<?xml version="1.0" encoding="UTF-8"?><svg id="Layer_1" xmlns="http://www.w3.org/2000/svg" viewBox="0 0 144 144"><defs><style>.cls-1{fill:#fff;isolation:isolate;}.cls-2{fill:rgba(255,255,255,0);}</style></defs><g id="Layer_3"><rect class="cls-2" width="144" height="144"/></g><g id="Layer_2"><path class="cls-1" d="M37.27,9.84h41.65c7.66,0,11.98,3.88,9.93,11.26l-14.67,63.28c-.8,2.43-3.09,4.45-6.19,5.46l-2.31.75,6.28.95c2.01.3,3.81,1.11,5.34,2.07,7.86,4.92,11.5,13.82,16.86,16.11,7.77,3.33,32.3,1.49,32.3,9.99v14.45h-55.26v-4.25h-9.56v4.25h-31.03v-21.04c0-7.44,7.65-18.28,7.65-24.23,0-5.18-9.97-37.68-12.56-66.48-.61-6.77,4.76-12.58,11.56-12.58h.01Z"/></g></svg>