<?xml version="1.0" encoding="UTF-8"?><svg id="Layer_1" xmlns="http://www.w3.org/2000/svg" viewBox="0 0 144 144"><defs><style>.cls-1{fill:#fff;isolation:isolate;}.cls-2{fill:rgba(255,255,255,0);}</style></defs><g id="Layer_3"><rect class="cls-2" width="144" height="144"/></g><g id="Layer_2"><path class="cls-1" d="M72,134.95c12.61,0,19.3-.29,29.2-3.16,7.6-5.46,24.22-33.35,24.22-52.79-11.04-2.3-19.34-12.08-19.34-23.81,0-13.43,10.89-24.32,24.32-24.32-4.6-17.25-24.2-21.82-34.09-21.82,0,13.49-10.88,24.42-24.31,24.42s-24.31-10.93-24.31-24.42c-9.9,0-29.49,4.57-34.09,21.82,13.43,0,24.32,10.89,24.32,24.32,0,11.72-8.3,21.51-19.34,23.81,0,19.44,16.62,47.33,24.22,52.79,9.9,2.88,16.59,3.16,29.2,3.16h0Z"/></g></svg>