<?xml version="1.0" encoding="UTF-8"?><svg id="Layer_1" xmlns="http://www.w3.org/2000/svg" viewBox="0 0 144 144"><defs><style>.cls-1{fill:#fff;isolation:isolate;}.cls-2{opacity:1;}.cls-3{fill:rgba(255,255,255,0);}</style></defs><g id="Layer_3"><rect class="cls-3" width="144" height="144"/></g><g id="Layer_2"><g class="cls-2"><path class="cls-1" d="M37.76,44.42v34.96c0,4.65-3.8,8.41-8.45,8.41s-8.41-3.76-8.41-8.41v-38.2c4.65,1.27,10.47,2.36,16.86,3.25h0Z"/><path class="cls-1" d="M59.1,46.43v53.22c0,4.65-3.8,8.45-8.45,8.45s-8.41-3.8-8.41-8.45v-54.66c5.4.62,11.15,1.09,16.86,1.44Z"/><path class="cls-1" d="M80.41,46.64v73.88c0,4.65-3.76,8.45-8.41,8.45s-8.41-3.8-8.41-8.45V46.64c2.84.1,5.64.17,8.41.21,2.77-.03,5.58-.1,8.41-.21Z"/><path class="cls-1" d="M101.75,45v54.66c0,4.65-3.76,8.45-8.41,8.45s-8.45-3.8-8.45-8.45v-53.22c5.71-.34,11.46-.82,16.86-1.44Z"/><path class="cls-1" d="M123.1,41.17v38.2c0,4.65-3.76,8.41-8.41,8.41s-8.45-3.76-8.45-8.41v-34.96c6.4-.89,12.21-1.98,16.86-3.25h0Z"/><path class="cls-1" d="M130.42,15.04v18.54c-1.88.92-4.34,1.81-7.32,2.63-4.65,1.27-10.47,2.36-16.86,3.25-1.47.21-2.94.41-4.48.58-5.4.65-11.12,1.13-16.86,1.44-1.5.07-2.98.17-4.48.21-2.84.14-5.64.21-8.41.21s-5.58-.07-8.41-.21c-1.5-.03-2.98-.14-4.48-.21-5.75-.31-11.46-.79-16.86-1.44-1.54-.17-3.01-.38-4.48-.58-6.4-.89-12.21-1.98-16.86-3.25-2.98-.82-5.44-1.71-7.32-2.63V15.04c9.78,4.86,35.95,8.11,58.42,8.28,22.47-.17,48.64-3.42,58.42-8.28h-.02Z"/></g></g></svg>