<?xml version="1.0" encoding="UTF-8"?><svg xmlns="http://www.w3.org/2000/svg" viewBox="0 0 319.7 144"><defs><style>.cls-1{opacity:.5;}.cls-1,.cls-2{fill:#fff;}.cls-2{opacity:0;}</style></defs><g id="Layer_3"><rect class="cls-2" x="175.7" width="144" height="144"/></g><g id="Layer_2"><path class="cls-1" d="M255.61,85.37v-27.25l20.57.38c4.14.08,7.46,3.46,7.46,7.6v3.53c0,2.63-1.36,5.08-3.6,6.46l-22.09,13.69v46.19h6.49l32.18-18.69V43.45c0-19.56-21.9-35.42-48.92-35.42s-48.92,15.86-48.92,35.42v73.83l32.18,18.69h6.49v-46.19l-22.09-13.69c-2.24-1.39-3.6-3.83-3.6-6.46v-3.53c0-4.14,3.32-7.52,7.46-7.6l20.57-.38v27.25h15.83Z"/></g></svg>