<?xml version="1.0" encoding="UTF-8"?><svg id="Layer_1" xmlns="http://www.w3.org/2000/svg" viewBox="0 0 144 144"><defs><style>.cls-1{fill:#fff;isolation:isolate;}.cls-2{fill:rgba(255,255,255,0);}</style></defs><g id="Layer_3"><rect class="cls-2" width="144" height="144"/></g><g id="Layer_2"><path class="cls-1" d="M47,133.77c-5.59-41.17-24.44-81.42-25.02-84.45-1.9-9.92,6.12-12.77,9.92-6.76,3.8,6.02,11.19,20.69,12.03,21.75-.08-16.56-1-37.16-.74-40.43.53-6.65,12.12-7.33,13.09.21,2.22,17.31,3.33,24.4,7.3,38.58,3.27-13.41,4.84-27.17,4.95-43.96.05-7.41,11.51-9.4,12.77,0,.91,6.74.84,41.8.84,45.39,6.44-13.93,8.9-22.16,11.19-30.51,1.9-6.91,13.93-5.59,11.61,3.59-4.17,16.48-6.24,33.73-9.61,44.34-1.72,5.42-3.72,8.17-6.65,10.13,8.37-3.72,15.31-9.71,20.06-13.41,5.32-4.14,16,1.15,9.61,7.92-15.94,16.89-27.76,32.73-32.51,47.61h-38.85.01Z"/></g></svg>