<?xml version="1.0" encoding="UTF-8"?>
<svg id="Layer_1" xmlns="http://www.w3.org/2000/svg" version="1.1" viewBox="0 0 864 864">
  <!-- Generator: Adobe Illustrator 29.8.1, SVG Export Plug-In . SVG Version: 2.1.1 Build 2)  -->
  <polygon points="779.42 587.2 655.62 587.2 650.82 580.4 501.33 367.57 559.1 285.34 563.29 279.36 774.61 580.4 779.42 587.2"/>
  <polygon points="638.79 587.2 533.62 587.2 528.87 580.4 440.39 454.41 492.94 379.53 634.05 580.4 638.79 587.2"/>
  <polygon points="516.85 587.2 347.17 587.2 351.91 580.4 432.01 466.36 512.11 580.4 516.85 587.2"/>
  <polygon points="484.63 367.57 432.01 442.52 379.39 367.57 432.01 292.69 484.63 367.57"/>
  <polygon points="423.63 454.41 335.14 580.4 330.4 587.2 225.23 587.2 229.97 580.4 371.07 379.53 423.63 454.41"/>
  <polygon points="362.69 367.57 213.2 580.4 208.4 587.2 84.6 587.2 89.41 580.4 300.73 279.36 304.92 285.34 362.69 367.57"/>
</svg>