<?xml version="1.0" encoding="UTF-8"?>
<svg id="Layer_1" xmlns="http://www.w3.org/2000/svg" version="1.1" viewBox="0 0 864 864">
  <!-- Generator: Adobe Illustrator 29.8.1, SVG Export Plug-In . SVG Version: 2.1.1 Build 2)  -->
  <defs>
    <style>
      .st0 {
        fill: none;
        stroke: #939598;
        stroke-miterlimit: 10;
        stroke-width: 1.76px;
      }

      .st1 {
        fill: #939598;
      }
    </style>
  </defs>
  <path class="st1" d="M159.66,270.11c-.22,87.34,2.35,231.19.55,313.52-.33-.63,275.83,158.82,271.24,157.23-.72-.15,275.45-159.37,271.79-156.29,0,0,0-314.47,0-314.47,4.25,3.65-272.87-157.07-271.79-156.28-70.11,42.55-196.56,112.58-271.79,156.28h0ZM159.66,270.11c77.3-44.51,195.18-114.51,271.79-158.19,0,0,.55-.32.55-.32,0,0,.55.32.55.32,0,0,272.34,157.24,272.34,157.24,0,0,.55.32.55.32,0,0,0,.64,0,.64,0,.64,0,314.52,0,315.1-.02.62-272.69,157-272.89,157.56,0,0-.55.32-.55.32l-.55-.32s-272.34-157.24-272.34-157.24c0,0-.55-.32-.55-.32,0,0,0-.64,0-.64-.48-87.81.98-225.66,1.1-314.47h0Z"/>
  <path class="st1" d="M772.72,230.64c-95.2,57.07-242.84,141.24-340.17,197.67-96.35,55.43-245.14,142.3-341.27,195.76,93.96-56.29,244.24-142.09,340.17-197.67,97.93-56.3,243.74-141.56,341.27-195.76h0Z"/>
  <path class="st1" d="M91.28,230.64c97.02,53.92,243.74,139.68,341.27,195.76,96.17,55.73,245.81,141.14,340.17,197.67-95.73-53.23-245.17-140.48-341.27-195.76-97.72-56.66-244.47-140.3-340.17-197.67h0Z"/>
  <path class="st0" d="M432,751.98l-281.14-162.32v-324.63L432,102.72l281.14,162.32v324.63l-281.14,162.32ZM168.46,579.5l263.54,152.16,263.54-152.16v-304.31L432,123.04l-263.54,152.16v304.31Z"/>
  <path class="st1" d="M86.88,616.44c95.2-57.07,242.84-141.24,340.17-197.66,96.35-55.43,245.14-142.3,341.27-195.76-93.96,56.29-244.24,142.09-340.17,197.66-97.93,56.3-243.74,141.56-341.27,195.76h0Z"/>
  <path class="st1" d="M777.12,238.26c-95.2,57.07-242.84,141.24-340.17,197.66-96.35,55.43-245.14,142.3-341.27,195.76,93.96-56.29,244.24-142.09,340.17-197.66,97.93-56.3,243.74-141.56,341.27-195.76h0Z"/>
  <path class="st1" d="M768.32,631.68c-97.02-53.91-243.74-139.68-341.27-195.76-96.17-55.73-245.81-141.14-340.17-197.66,95.73,53.23,245.17,140.48,341.27,195.76,97.72,56.66,244.46,140.3,340.17,197.66h0Z"/>
  <path class="st1" d="M95.68,223.02c97.02,53.91,243.74,139.68,341.27,195.76,96.17,55.73,245.81,141.14,340.17,197.66-95.73-53.23-245.17-140.48-341.27-195.76-97.72-56.66-244.46-140.3-340.17-197.66h0Z"/>
  <polygon class="st1" points="430.9 123.04 432 37.78 433.1 123.04 430.9 123.04 430.9 123.04"/>
  <polygon class="st1" points="433.1 731.66 432 826.22 430.9 731.66 433.1 731.66 433.1 731.66"/>
  <polygon points="704.32 280.28 704.32 574.51 695.51 569.4 449.6 427.44 695.51 285.38 704.32 280.28"/>
  <polygon points="695.51 589.73 432 741.82 168.49 589.73 177.29 584.63 432 437.56 686.71 584.63 695.51 589.73"/>
  <polygon points="695.51 265.05 686.71 270.16 432 417.23 177.29 270.16 168.49 265.05 432 112.88 695.51 265.05"/>
  <polygon points="414.4 427.44 168.49 569.4 159.69 574.51 159.69 280.28 168.49 285.38 414.4 427.44"/>
</svg>