<?xml version="1.0" encoding="UTF-8"?>
<svg id="Layer_1" xmlns="http://www.w3.org/2000/svg" version="1.1" viewBox="0 0 864 864">
  <!-- Generator: Adobe Illustrator 29.8.1, SVG Export Plug-In . SVG Version: 2.1.1 Build 2)  -->
  <path d="M600.69,510.28c-3.58-10.82-35.01-25.79-54.14-40.06v-28.34c8.39.31,17.25-.91,22.99-2.82-2.04-2.71-11.37-4.42-11.37-4.42,16.4-1.27,25.56-13.53,30.75-30.98-12.92,8.56-33.79,11.16-40.19,10.44,10.93-3.65,12.31-7.24,16.23-8.45-2.81-.5-5.63-.55-5.63-.55,5.08-5.8,10.1-5.85,25.01-18.06l-5.46-.22c4.8-5.3,12.31-6.73,12.31-13.08s-1-14.3-1-14.3c-2.65,6.35-27.44,21.14-34.5,24.01l5.63-6.95-6.57,1.49c7.51-2.87,13.8-16.29,13.8-20.6-1.45-.26-5.8,2.33-6.06,2.48,6.67-7.57,10.53-18.6,10.53-22.63s-2.04-9.17-2.04-9.17c-.17,2.65-3.26,5.86-3.92,8.56.11-8.83-3.7-22.86-8.28-27.55.03,13.39-5.38,30.43-12.23,43.23v-41.59h-16.32v-.2c0-1.88.17-6.91-17.78-23.53,1.01,4.96,2.1,14.13,2.87,23.73h-16.4c-2.64-4.84-4.79-8.42-5.19-10.97-1.43,1.49-1.49,4.69-1.49,4.69-7.34-11.21-15.79-13.25-17.72-13.69.75,4.15,4.58,12.17,7.74,19.97h-7.26c-3.49-5.15-8-12.97-12.92-17.59-5.25-4.93-12.68-6.3-18.05-9.42-3.07-1.78-6.42-3.24-9.93-4.56,4.84,5.54,10.89,19.71,20.59,31.57h-1.35c-10.92-8.48-21.41-12.56-43.36-14.33l.05,2.75c-1.99-.05-6.69-3.19-6.69-3.19-8.12-.46-17.65-.67-29.04-.73,6.5,3.25,16.58,8.44,27.56,15.5h-34.53c-25.57-21.59-52.21-47.86-85.23-72.32-2.65,2.93,8.72,9.45,10.49,19.11-4.53-2.71-10.22-4.47-12.81-4.47.83,4.8,18.6,26.83,19.43,31.25-4.8-5.41-11.04-8.45-12.53-9.28,8.23,7.73,21.75,25.46,30.7,31.92-7.29-1.83-11.28-1.7-18.78-2.9-11.77-1.88-19.08-7.76-24.12-7.76,9.6,4.91,12.7,16.18,21.86,22.64-9.11,1.27-9.99,3.03-9.99,4.47,0,.62,1.69,3.79,4.74,7.33.43.5-.05,1.39-1.82,2.11,1.88.61,3.68-.1,3.93.16,4,3.98,9.58,7.83,16.28,8.57l.61,2.65c6.18.88,16.56,1.71,18.28,6.62-46.49,2.04-58.2-6.02-65.54-12.37,6.07,12.65,18.71,27.06,38.04,27.06,1.05,0-2.37,2.48-6.9,2.48,2.81,6.35,20.21,6.16,27.44,3.43,2.04-.78-1.49,3.37-3.48,3.75,3.11.54,8.94.15,14.97-.64v9c-14.85,5.68-34.43,10.11-44.56,9.92l.05,1.76c8.61,1.16,10.05,7.68,25.45,7.9-1.43,2.37-7.39,2.65-7.39,2.65,2.92,2.76,7.39,4.09,11.09,4.09,5.74,0,10.44-3.4,15.36-6.87v115.14c-4.26,6.04-6.76,13.4-6.76,21.34,0,16.38,10.63,30.29,25.37,35.17-1.06-.7-2.08-1.43-3.11-2.19-3.21-2.53-6.57-5.12-8.82-8.58,2.57,3.16,6.14,5.35,9.56,7.49,2.26,1.32,4.59,2.57,7.01,3.59-1.34-1.22-2.66-2.47-3.84-3.85-.4-.49-.85-.99-1.04-1.6.54.67,1.28,1.12,2.04,1.54,18.3,18.41,46.49,38.45,84.29,52.81l1.18.45.95.36.95-.36,1.18-.45c47.25-17.95,79.48-44.78,96.15-66.22,5.3,4.94,11.09,9.55,14.53,12.57h1.71v-2.93l2.76.17,4.2,3.59,1.43-.11.28-6.68,1.16.05,6.18,5.14s7.68.71,10.82-.39c1.05-5.69-.49-9.82-.49-9.82l5.85.16c-.5-18.33-11.93-32.8-15.79-42.85,6.18,10.6,17,19.05,20.92,22.81-.16-6.58-5.68-17.34-6.51-18.12h2.37l.06-2.54,4.97,1.55c.66-4.47-6.74-13.03-6.74-13.03,0,0,8.06,2.98,14.97,3.09ZM515.43,343.31c-.99,3.43-4.97,6.3-4.97,6.3-.37-10.47-2.69-19.13-5.5-26.24h11.14c.38,8.91.28,16.68-.67,19.94ZM515.52,313.39c.18,2.45.33,4.91.45,7.31h-12.11c-1.15-2.67-2.35-5.11-3.51-7.31h15.17ZM486.61,325.42c-.52-.14-1.26-.86-2.22-2.05h1.96c.13.72.22,1.41.26,2.05ZM483.31,313.39c.98,2.56,1.85,5.05,2.44,7.31h-3.41c-1.47-1.99-3.27-4.49-5.43-7.31h6.4ZM456.96,313.39c.42.47.84.93,1.27,1.38-.54-.47-1.08-.93-1.61-1.38h.34ZM441.34,344.91c1.18,1.49.88,4.03,2.04,4.97,1.16.94,11.76,5.47,13.36,5.75v.99c-27.31-2.72-50.54-15.46-73.76-33.25h36.52c7.83,6.29,15.42,13.48,21.84,21.54ZM388.11,434.56c1.38-2.19.88-5.72-.66-8.65,0,0,5.08-3.58,8.28-3.58s5.41,2.37,5.41,4.19-.66,4.92-4.14,8.67c-3.48,3.75-10.88,5.25-14.36,6.79-3.48,1.55-8.45,4.81-11.26,4.81s-4.25-1.39-4.25-2.49c0-1.49.71-2.32,2.1-3.09,1.6.77,5.3,2.04,7.17,1.71,1.88-.33,10.33-6.18,11.71-8.36ZM379.66,431.21c1.12-.26,1.22,1.44.44,2.05-.77.6-3.09,1.38-3.37.66-.27-.72,1.21-2.3,2.93-2.71ZM385.73,427.29c.53.74,1.16,1.61,1.05,3.04-.11,1.44-1.32.17-1.49-.77-.16-.94-.01-2.91.44-2.27ZM405.91,313.39c3.36,2.26,6.78,4.7,10.18,7.31h-36.56c-3-2.36-6-4.8-9.01-7.31h35.39ZM345.19,372.47c3.21-.67,5.8-1.34,7.14-1.88-.31,2.29-2.99,4.77-7.14,7.22v-5.34ZM345.19,403.76c4.63-1.32,9.69-4.89,14.04-9.54-.16,2.15-1.66,4.53-2.26,6.3,3.03-3.32,5.41-2.77,7.06-6.41,1.11,1.22-1.49,4.36-1.76,5.3,2.1-.44,3.92-2.43,5.63-2.04l.22,1.71c-3.92,1.44-8.39,5.63-10.38,5.63l.44,1.44c5.36.27,8.51,5.24,18.44,5.41l1.61-1.16-1.21,2.25c.27-.08,4.57-1.53,6.06-1.53l.45,2.32s2.81-.34,4.69-2.1c.94.66-.66,3.81-.44,4.86.22,1.05,2.7,3.31,2.04,4.41-4.09.06-26.01,13.75-26.56,24.96l-7.62.22c-.27-4.31,0-9.5.89-11.7-7.4,3.53-7.18,11.26-7.18,13.14-3.32,2.21-3.65,18.55-1.22,24.84,4.2-4.52,14.91-15.13,15.79-15.13s3.87.67,4.53,0c.66-.66,6.08-7.17,6.08-7.17l11.94.71c-15.04,4.92-23.43,30.21-29.61,30.21-2.58,0-7.4-1.55-8.62-3.32-1.76,7.4,4.08,12.26,9.17,12.26,13.47,0,14.24-24.98,33.35-36.44-.66,4.86-8.06,18.11-10.71,19.21,5.3,1.66,12.37-8.17,14.79-8.94,2.43-.77,16.24-9.72,18.56-13.03,3.31,5.3,22.41,12.92,27.16,13.58-1.76.89-4.97,1.44-4.97,1.44.33,5.19,5.86,11.81,8.62,13.58,0,7.95,3.86,20.43,6.4,22.64h-8.39s-15.79-7.62-16.79-8.61c-.99-1-2.32-3.65-2.32-4.64s3.65-2.32,3.65-4.97-4.2-4.31-4.2-4.31c-3.09-7.95-12.26-8.5-12.26-8.5,5.2,3.75,5.86,6.4,6.52,8.72-3.2.11-3.75,2.1-3.75,3.87,0,3.42,5.3,5.85,5.3,10.82-6.41-1.88-8.95-11.93-10.94-11.93s-4.41,2.98-4.41,2.98c-3.43,0-6.85,1.33-7.62,5.42,2.65-1.55,5.19-3.21,6.51-1.55-.88,2.43.33,6.4,2.21,6.4s3.31-1.32,4.09-1.32,1.1,2.87,2.21,3.86c1.1,1,4.19,1.77,5.3,1.77.66,2.1-3.32,3.65-4.42,3.65s-4.75-2.99-6.3-2.99-3.09,3.65-3.09,3.65c-4.08,1.54-5.19,6.95-5.19,11.26,3.43-4.64,4.42-5.74,5.97-5.74.77,2.87,2.31,4.86,4.3,4.86s5.85-3.54,5.85-6.85c2.77,2.32,7.29-1.54,7.29-1.54l.89.88-.33,2.87,1.65,1.55s-3.64,2.87-3.64,3.97.33,3.98,2.32,3.98c.55,3.75-2.76,6.18-2.76,6.18,5.3.66,9.6-5.63,9.6-6.29,0,0,2.87-.45,2.87-2.54s-3.97-5.19-3.97-6.74,1.1-2.43,2.98-2.43,6.74,1.66,7.62,2.87l-2.1,2.65s4.97,3.43,11.16,3.43l-1.11,3.2,11.49.55c0,8.17-6.3,17.78-11.6,19.55l-.22,1.76c-3.09,0-10.63,2.24-13.47,7.51-.39.72-2.05-.38-.83-2.1,1.21-1.71,1.27-2.09,1.27-3.09s-3.09-1.65-4.36-1.65c-1.99-2.49-6.13-3.63-7.84-3.2,2.37.66,4.47,3.47,5.08,4.85-2.82.66-3.48,1.49-3.48,3.65s4.19,2.87,5.68,3.31c1.5.44,1.16,2.98.12,3.75-1.05.78-4.53,2.76-5.97,2.76-5.57,0-4.53-4.91-7.84-4.91-1.71,0-2.7.88-3.2,2.21-3.53,1.32-6.35,5.52-6.79,7.07,3.48-2.43,6.51-2.16,6.9-1.6,0,1.76,1.38,3.31,3.15,3.31s3.53-1.49,4.41-2.76h4.48l1.1,1.1-3.31,3.81s-4.31-.77-5.69.66c-1.38,1.44-.83,3.76.17,5.03-1.83,4.36-.67,6.85.27,8.34.22-3.15,1.88-7.07,3.04-6.8,1.16.28,1.6,2.49,4.47,1.16,2.87-1.32.17-5.52,1.33-6.51,1.16-.99,6.79-6.9,8-6.68,1.22.22,1.27.88.78,1.54-.5.67-2.43,1.44-2.43,3.1s1.32,2.98,4.8,2.98c1.27,2.15-.66,6.24-2.43,7.4,4.91-.06,7.34-5.25,7.23-7.4,2.6,0,3.76-1.05,3.81-2.1.06-1.05-4.52-4.58-4.52-6.3s1.43-4.41,3.36-4.41,4.53,2.59,4.2,4.58c6.02-2.1,6.84-4.85,10.99-6.35,6.4-2.32,6.63-13.77,11.43-21.31l3.2-.22,4.97-6.68,1.05,6.46,1.65-1.55,1.77-.05-.38,2.42,2.54-1.54h1.82l-1.22,3.81s3.65-1.93,6.52-7.57l.83,2.05s7.84-9.17,7.84-16.62l1.21-1.27,2.93,3.59.72-16.95s4.69-2.38,6.79-2.05c-.94,6.3,4.97,35.67,12.48,46.6l1.65-.11.72-1.43c.28,2.15,1.56,4.58,3.45,7.12-15.61,20.71-47.36,46.26-89.7,62.77-25.88-10.09-47.81-23.56-64.51-37.25,2.41-2.14,4.71-4.47,6.78-6.9.39-.5.8-.99,1.04-1.59-.03,1.3-.3,2.6-.67,3.86l1.68-1.09,1.66-1.5h1.01l-.14,1.53c8.35-6.79,13.68-17.15,13.68-28.75,0-20.47-16.59-37.06-37.06-37.06-6.53,0-12.67,1.69-18.01,4.66v-103.3ZM373.3,549.04l-9.18-13.09,4.49-6.39,13.68,19.48h-8.99ZM373.41,572.41c-.24-.2-.48-.4-.71-.61.31.01.57.04.69.11.1.06.09.26.02.5ZM363.2,534.65l-4.49-6.4,4.49-6.39,4.49,6.39-4.49,6.4ZM369.52,528.25l4.95-7.04,19.55,27.83h-9.9l-14.6-20.79ZM335.58,374.16c2.39-.35,4.76-.75,6.94-1.16v6.29c-2.08,1.08-4.42,2.14-6.94,3.17v-8.3ZM335.58,401.11c1.43-.96,2.9-1.89,4.44-2.69,1.27,2.59,0,4.69-1.11,5.52,1.13.33,2.34.43,3.61.32v104.44c-2.56,1.72-4.89,3.75-6.94,6.04v-113.63ZM332.38,549.04l1.63-2.32,1.69-2.41,6.82-9.7,2.67-3.81,6.74-9.59,4.95,7.04-10.5,14.95-1.65,2.35-2.45,3.49h-9.9ZM353.09,549.04h-8.98l1.52-2.16,1.64-2.34,10.52-14.98,4.49,6.39-9.19,13.09ZM363.2,537.26l8.27,11.78h-16.54l8.27-11.78ZM440.91,621.34l-1.18.45-1.18-.45c-34.46-13.09-60.81-30.9-78.84-47.81.33-.21.58-.42.73-.6.38-.48.82,0,.82,0,0,0,1.21,1.65,1.7,1.48s2.52.01,2.52.01l3.99-1.81c.95.82,1.92,1.64,2.92,2.46.09.08.18.15.27.23,17.2,14.25,39.98,28.28,67.07,38.72,43.05-16.59,75.23-42.25,91.42-63.47,1.46,1.73,3.14,3.49,4.92,5.22-16.33,21.14-48.22,47.74-95.16,65.57ZM534.26,440.03v18.5c-1.56-2.29-2.43-4.52-2.43-6.67v-12.69c.77.32,1.58.61,2.43.86ZM532.83,369.54c.37-2.62.87-4.62,1.43-6.47v5.49c-.48.37-.96.69-1.43.98ZM543.88,468.17c-2.68-2.13-5.04-4.23-6.95-6.3v-21.13c2.18.48,4.53.81,6.95.99v26.44ZM543.88,356.95c-2.26,3.68-4.62,6.84-6.95,9.21v-11.5c.96-3.66,1.84-8.55,2.36-16.43-.84.49-1.66,1.15-2.36,1.81v-19.34h-.42c-.28-2.28-.81-4.72-1.7-7.31h-.56c-1.21,2.27-2.49,5.57-2.98,7.31h-1.06l-.03-.03s.03-4.19.04-7.28h4.03c.11-.21.23-.42.34-.61.07.2.15.41.22.61h9.07v43.56Z"/>
</svg>