<?xml version="1.0" encoding="UTF-8"?>
<svg id="Layer_1" xmlns="http://www.w3.org/2000/svg" version="1.1" viewBox="0 0 864 864">
  <!-- Generator: Adobe Illustrator 29.8.1, SVG Export Plug-In . SVG Version: 2.1.1 Build 2)  -->
  <g>
    <path d="M664.52,305.78c.46-.27,8.21-4.88,10.79-4.42,0,7.67-11.2,31.57-24.57,36.68l11.7-2.65-10.02,12.37c12.57-5.11,56.71-31.44,61.43-42.75,0,0,1.78,14.15,1.78,25.46s-13.37,13.85-21.92,23.29l9.72.39c-26.55,21.74-35.49,21.83-44.53,32.16,0,0,5.02.09,10.02.98-6.98,2.15-9.44,8.55-28.9,15.05,11.4,1.28,48.55-3.35,71.56-18.59-9.24,31.07-25.55,52.9-54.75,55.16,0,0,16.61,3.04,20.24,7.87-16.81,5.59-48.66,7.85-67.14.2v22.59c0,32.65,113.36,76.1,122.6,104.02-12.3-.2-26.65-5.5-26.65-5.5,0,0,13.18,15.24,12,23.2l-8.85-2.76-.11,4.52h-4.22c1.48,1.39,11.31,20.55,11.59,32.26-6.98-6.69-26.24-21.74-37.25-40.61,6.87,17.89,27.22,43.66,28.11,76.29l-10.42-.28s2.74,7.35.87,17.48c-5.59,1.96-19.26.69-19.26.69l-11-9.15-2.07-.09-.5,11.89-2.55.2-7.48-6.39-4.91-.3v5.22h-3.04c-13.09-11.5-45.22-35.79-47.29-51.51l-1.28,2.55-2.94.2c-13.37-19.46-23.89-71.75-22.22-82.97-3.74-.59-12.09,3.65-12.09,3.65l-1.28,30.18-5.22-6.39-2.15,2.26c0,13.26-13.96,29.59-13.96,29.59l-1.48-3.65c-5.11,10.04-11.61,13.48-11.61,13.48l2.17-6.78h-3.24l-4.52,2.74.68-4.31-3.15.09-2.94,2.76-1.87-11.5-8.85,11.89-5.7.39c-8.55,13.42-8.96,33.81-20.35,37.94-7.39,2.67-8.85,7.57-19.57,11.31.59-3.54-4.02-8.15-7.48-8.15s-5.98,4.81-5.98,7.85,8.15,9.35,8.05,11.22c-.09,1.87-2.15,3.74-6.78,3.74.2,3.83-4.13,13.07-12.87,13.18,3.15-2.07,6.59-9.35,4.33-13.18-6.2,0-8.55-2.37-8.55-5.31s3.44-4.33,4.33-5.52c.87-1.18.78-2.35-1.39-2.74-2.15-.39-12.18,10.13-14.24,11.89s2.74,9.24-2.37,11.59c-5.11,2.37-5.89-1.57-7.96-2.07-2.07-.48-5.02,6.5-5.41,12.11-1.67-2.65-3.74-7.09-.48-14.85-1.78-2.26-2.76-6.39-.3-8.96,2.46-2.55,10.13-1.18,10.13-1.18l5.89-6.78-1.96-1.96h-7.98c-1.57,2.26-4.72,4.91-7.85,4.91s-5.61-2.76-5.61-5.89c-.69-1-6.09-1.48-12.29,2.85.78-2.76,5.8-10.24,12.09-12.59.89-2.37,2.65-3.93,5.7-3.93,5.89,0,4.04,8.74,13.96,8.74,2.56,0,8.76-3.53,10.63-4.91,1.85-1.37,2.46-5.89-.21-6.68-2.65-.78-10.11-2.07-10.11-5.89s1.18-5.32,6.2-6.5c-1.09-2.46-4.83-7.46-9.04-8.64,3.04-.77,10.42,1.26,13.96,5.7,2.26,0,7.76,1.18,7.76,2.94s-.11,2.46-2.26,5.5c-2.17,3.06.78,5.02,1.48,3.74,5.06-9.38,18.48-13.37,23.98-13.37l.39-3.13c9.44-3.15,20.65-20.26,20.65-34.81l-20.46-.98,1.98-5.7c-11.02,0-19.87-6.11-19.87-6.11l3.74-4.72c-1.57-2.15-10.22-5.11-13.57-5.11s-5.31,1.57-5.31,4.33,7.07,8.26,7.07,12-5.11,4.52-5.11,4.52c0,1.18-7.66,12.37-17.09,11.2,0,0,5.89-4.33,4.91-11-3.54,0-4.13-5.11-4.13-7.09s6.48-7.07,6.48-7.07l-2.94-2.76.59-5.11-1.58-1.57s-8.05,6.87-12.98,2.74c0,5.89-6.87,12.2-10.42,12.2s-6.29-3.54-7.66-8.65c-2.76,0-4.52,1.96-10.63,10.22,0-7.67,1.98-17.31,9.24-20.05,0,0,2.76-6.5,5.5-6.5s9.24,5.32,11.22,5.32,9.04-2.76,7.87-6.5c-1.98,0-7.48-1.37-9.44-3.15-1.98-1.76-2.56-6.87-3.93-6.87s-3.93,2.35-7.28,2.35-5.5-7.07-3.93-11.4c-2.35-2.96-6.87,0-11.59,2.76,1.37-7.28,7.46-9.65,13.57-9.65,0,0,4.33-5.31,7.85-5.31s8.07,17.89,19.48,21.24c0-8.85-9.44-13.18-9.44-19.26,0-3.15.98-6.69,6.68-6.89-1.18-4.13-2.35-8.85-11.61-15.53,0,0,16.33.98,21.83,15.13,0,0,7.48,2.96,7.48,7.67s-6.5,7.07-6.5,8.85,2.37,6.48,4.13,8.26c1.78,1.76,29.89,15.33,29.89,15.33h14.94c-4.52-3.93-11.4-26.16-11.4-40.31-4.91-3.15-14.76-14.94-15.35-24.18,0,0,5.72-.98,8.85-2.56-8.46-1.18-42.46-14.74-48.36-24.18-4.13,5.89-28.72,21.83-33.05,23.2-4.31,1.37-16.9,18.87-26.33,15.92,4.72-1.96,17.89-25.55,19.07-34.2-34.03,20.4-35.4,64.88-59.38,64.88-9.06,0-19.46-8.65-16.33-21.83,2.17,3.15,10.75,5.91,15.35,5.91,11,0,25.94-45.03,52.72-53.79l-21.26-1.26s-9.65,11.59-10.83,12.77c-1.18,1.19-6.48,0-8.07,0s-20.64,18.89-28.11,26.94c-4.33-11.2-3.74-40.29,2.17-44.23,0-3.35-.39-17.11,12.78-23.4-1.58,3.92-2.07,13.16-1.58,20.83l13.57-.39c.98-19.96,40.01-44.33,47.29-44.44,1.18-1.96-3.24-5.98-3.63-7.85s2.46-7.48.78-8.65c-3.35,3.13-8.35,3.74-8.35,3.74l-.8-4.13c-2.65,0-10.31,2.58-10.79,2.72l2.15-4.01-2.87,2.07c-17.68-.3-23.29-9.15-32.83-9.63l-.78-2.56c3.54,0,11.5-7.46,18.48-10.02l-.39-3.04c-3.04-.69-6.29,2.85-10.02,3.63.48-1.67,5.11-7.26,3.13-9.44-2.94,6.48-7.18,5.5-12.57,11.41,1.07-3.15,3.74-7.39,4.02-11.22-11.5,12.29-25.76,20.35-36.18,17.31,1.98-1.48,4.24-5.22,1.98-9.83-14.07,7.37-25.07,20.35-40.03,20.35-6.59,0-14.55-2.37-19.75-7.28,0,0,10.61-.5,13.16-4.72-27.42-.39-29.98-12-45.31-14.07l-.09-3.13c30.96.59,111.57-23.11,113.93-40.7-8.85,3.54-48.27,10.42-61.25,8.15,3.54-.68,9.83-8.07,6.2-6.68-12.87,4.86-43.85,5.2-48.86-6.11,8.07,0,14.15-4.42,12.29-4.42-34.42,0-56.92-25.66-67.73-48.18,13.07,11.31,33.92,25.66,116.69,22.02-3.06-8.74-21.54-10.22-32.55-11.79l-1.09-4.72c-11.93-1.32-21.86-8.17-28.99-15.26-.45-.46-3.65.8-7-.28,3.15-1.28,4.01-2.87,3.24-3.76-5.43-6.3-8.44-11.95-8.44-13.05,0-2.56,1.57-5.7,17.79-7.96-16.31-11.5-21.83-31.57-38.92-40.31,8.97,0,21.99,10.47,42.95,13.82,13.35,2.14,20.46,1.91,33.44,5.16-15.94-11.5-40.01-43.07-54.66-56.83,2.65,1.48,13.76,6.89,22.31,16.52-1.48-7.87-33.12-47.09-34.59-55.64,4.61,0,14.74,3.13,22.81,7.96-3.15-17.2-23.4-28.81-18.68-34.03,124.74,92.43,198.38,199.29,310.94,210.49v-1.76c-2.85-.5-21.72-8.56-23.79-10.24s-1.53-6.2-3.63-8.85c-36.38-45.62-93.6-75.6-119.36-88.47,20.28.11,37.25.48,51.71,1.3,0,0,8.37,5.59,11.91,5.68l-.09-4.9c44.83,3.61,62.82,12.64,85.91,32.73-21.03-22.22-33.33-52.4-42.96-63.42,6.25,2.35,12.21,4.95,17.68,8.12,9.56,5.56,22.79,7.99,32.14,16.77,10.29,9.67,19.59,27.21,26.08,35.65,9.33,12.14,14.99,21.17,17.59,21.85-1.09-16.61-19.26-49.14-21.53-61.73,3.44.78,18.48,4.42,31.55,24.37,0,0,.11-5.7,2.65-8.35,1.98,12.59,28.02,39.42,29.79,88.78,0,0,7.09-5.11,8.85-11.22,4.2-14.48-.98-79.04-5.31-100.28,31.96,29.59,31.66,38.55,31.66,41.89s-.09,18.07-.09,18.07l1.57,1.78c.09-1.87,3.44-10.91,6.29-15.83,8.96,24.68-.39,41.49.2,52.79,0,0,3.93-5.02,8.17-7.48-2.37,35.79-8.85,36.87-11.5,55.75,20.55-12.48,46.29-68.73,46.2-107.65,8.15,8.35,14.94,33.33,14.74,49.05,1.18-4.81,6.68-10.52,6.98-15.24,0,0,3.63,9.15,3.63,16.33s-6.87,26.81-18.75,40.29ZM369.87,439.89c6.2-6.68,7.37-12.2,7.37-15.44s-3.93-7.46-9.63-7.46-14.74,6.37-14.74,6.37c2.74,5.22,3.63,11.5,1.18,15.4-2.46,3.88-17.5,14.3-20.85,14.88-3.33.59-9.92-1.67-12.77-3.04-2.47,1.37-3.74,2.85-3.74,5.5,0,1.96,2.55,4.43,7.57,4.43s13.85-5.8,20.05-8.56c6.2-2.74,19.37-5.41,25.57-12.09ZM351.67,431.24c.2-2.55-.93-4.1-1.87-5.41-.8-1.14-1.07,2.37-.78,4.04.3,1.67,2.46,3.93,2.65,1.37ZM339.78,436.45c1.39-1.09,1.21-4.11-.78-3.65-3.06.73-5.7,3.54-5.22,4.83.5,1.28,4.63-.11,6-1.18Z"/>
    <path d="M375.67,625.54c0,20.65-9.49,39.1-24.36,51.19l.25-2.72h-1.8l-2.96,2.67-2.99,1.94c.66-2.24,1.14-4.56,1.19-6.87-.43,1.07-1.16,1.94-1.85,2.83-4.26,5-9.08,9.77-14.1,14.05-1.03.34-2.08.61-3.12.89l.41-2.14s2.17-3.63,1.48-4.06-4.24,0-4.24,0l-9.85,4.47s-3.61-.32-4.49-.02-3.03-2.64-3.03-2.64c0,0-.78-.85-1.46,0-.41.5-1.23,1.12-2.4,1.66-2.9-1.25-5.75-2.58-8.55-4.06-1.85-1.1-4.01-1.99-5.38-3.72.34,1.09,1.14,1.98,1.85,2.85,2.1,2.46,4.45,4.68,6.84,6.85-4.31-1.82-8.46-4.04-12.48-6.39-6.09-3.81-12.45-7.71-17.02-13.34,4.01,6.16,9.99,10.77,15.7,15.28,1.83,1.35,3.65,2.65,5.54,3.9-26.24-8.69-45.17-33.46-45.17-62.62,0-36.45,29.54-65.98,65.98-65.98s65.98,29.54,65.98,65.98ZM364.56,642.6l-34.81-49.55-8.81,12.53,26,37.02h17.63ZM343.68,642.6l-24.36-34.68-7.99,11.38,16.34,23.31h16.01ZM324.41,642.6l-14.72-20.97-14.72,20.97h29.45ZM317.68,605.58l-7.99-11.38-7.99,11.38,7.99,11.4,7.99-11.4ZM308.05,619.29l-7.99-11.38-24.36,34.68h15.99l16.36-23.31ZM298.44,605.58l-8.81-12.53-34.81,49.55h17.63l26-37.02Z"/>
  </g>
  <path d="M631.39,223.03v410.76l-.89,1.55c-22.52,39.32-83.83,98.53-182.45,135.98l-2.1.8-2.1-.8c-98.63-37.46-159.93-96.67-182.45-135.98l-.89-1.55V223.03h370.89M445.95,758.28c87.23-33.62,149.39-88.13,173.08-128.14V236.03h-346.15v394.12c23.69,40.01,85.85,94.52,173.08,128.14M634.06,220.35h-376.23v414.14l.35.62.89,1.55c22.74,39.7,84.53,99.44,183.82,137.15l2.1.8.95.36.95-.36,2.1-.8c99.29-37.71,161.08-97.45,183.82-137.15l.89-1.55.35-.62V220.35h0ZM275.54,238.7h340.81v390.71c-23.42,39.03-84.96,92.85-170.4,126.01-85.45-33.15-146.98-86.98-170.4-126.01V238.7h0Z"/>
</svg>