<?xml version="1.0" encoding="UTF-8"?>
<svg id="Layer_1" xmlns="http://www.w3.org/2000/svg" version="1.1" viewBox="0 0 864 864">
  <!-- Generator: Adobe Illustrator 29.8.1, SVG Export Plug-In . SVG Version: 2.1.1 Build 2)  -->
  <polygon points="666.7 512 549.91 512 544.51 503.83 437.95 343.12 437.46 342.3 432.63 334.94 549.34 334.94 554.74 343.12 661.3 503.83 666.7 512"/>
  <polygon points="549.34 334.94 543.94 326.76 437.46 166.14 436.89 165.32 432.06 157.96 548.77 157.96 554.24 166.14 660.73 326.76 666.21 334.94 549.34 334.94"/>
  <polygon points="430.92 512 426.09 519.45 425.52 520.18 319.03 680.81 313.55 688.98 196.85 688.98 202.25 680.81 309.22 520.18 314.7 512 430.92 512"/>
  <polygon points="667.19 688.98 550.48 688.98 544.92 680.81 436.48 520.18 435.9 519.36 431 512 549.91 512 555.31 520.18 661.79 680.81 667.19 688.98"/>
  <polygon points="431.98 157.96 427.07 165.4 426.58 166.14 320.1 326.76 314.7 334.94 197.83 334.94 203.31 326.76 309.79 166.14 315.27 157.96 422.16 157.96 422.16 158.04 422.25 157.96 431.98 157.96"/>
  <polygon points="432.55 334.94 427.72 342.3 427.15 343.12 320.18 503.83 314.7 512 197.34 512 202.74 503.83 309.3 343.12 314.7 334.94 432.55 334.94"/>
</svg>