<?xml version="1.0" encoding="UTF-8"?>
<svg id="Layer_1" xmlns="http://www.w3.org/2000/svg" version="1.1" viewBox="0 0 864 864">
  <!-- Generator: Adobe Illustrator 29.8.1, SVG Export Plug-In . SVG Version: 2.1.1 Build 2)  -->
  <defs>
    <style>
      .st0 {
        fill: #231f20;
      }

      .st1 {
        fill: #939598;
      }
    </style>
  </defs>
  <g>
    <line class="st0" x1="257.48" y1="205.83" x2="572.69" y2="654.78"/>
    <path class="st1" d="M257.48,205.83c45.95,62.27,113.28,159.77,158.51,223.84,44.39,63.52,114.1,161.34,156.71,225.11-45.32-61.47-113.96-160.68-158.51-223.84-45.09-64.57-113.51-160.41-156.71-225.11h0Z"/>
  </g>
  <g>
    <line class="st0" x1="384.56" y1="213.16" x2="699.77" y2="662.11"/>
    <path class="st1" d="M384.56,213.16c45.95,62.27,113.28,159.77,158.51,223.84,44.39,63.52,114.1,161.34,156.71,225.11-45.32-61.47-113.96-160.68-158.51-223.84-45.09-64.57-113.51-160.41-156.71-225.11h0Z"/>
  </g>
  <g>
    <line class="st0" x1="511.64" y1="205.83" x2="826.85" y2="654.78"/>
    <path class="st1" d="M511.64,205.83c45.95,62.27,113.28,159.77,158.51,223.84,44.39,63.52,114.1,161.34,156.71,225.11-45.32-61.47-113.96-160.68-158.51-223.84-45.09-64.57-113.51-160.41-156.71-225.11h0Z"/>
  </g>
  <g>
    <line class="st0" x1="606.52" y1="205.83" x2="291.31" y2="654.78"/>
    <path class="st1" d="M606.52,205.83c-42.97,64.36-111.8,160.8-156.71,225.11-44.67,63.32-113,162.11-158.51,223.84,42.42-63.5,112.43-161.75,156.71-225.1,45.42-64.33,112.32-161.24,158.51-223.84h0Z"/>
  </g>
  <g>
    <line class="st0" x1="479.44" y1="213.16" x2="164.23" y2="662.11"/>
    <path class="st1" d="M479.44,213.16c-42.97,64.36-111.8,160.8-156.71,225.11-44.67,63.32-113,162.11-158.51,223.84,42.42-63.5,112.43-161.75,156.71-225.1,45.42-64.33,112.32-161.24,158.51-223.84h0Z"/>
  </g>
  <g>
    <line class="st0" x1="352.36" y1="205.83" x2="50.7" y2="635.49"/>
    <path class="st1" d="M352.36,205.83c-41.05,61.64-106.96,153.91-149.93,215.46-43.62,61.76-107.33,154.14-151.73,214.19,41.16-61.81,106.81-153.68,149.93-215.46,43.47-61.56,107.47-154.33,151.73-214.2h0Z"/>
  </g>
  <g>
    <line class="st0" x1="863.01" y1="587.21" x2=".99" y2="587.21"/>
    <path class="st1" d="M863.01,587.21c-276.12,1.89-585.9,1.88-862.02,0,276.12-1.88,585.9-1.89,862.02,0h0Z"/>
  </g>
  <g>
    <line class="st0" x1="559.12" y1="647.32" x2="251.86" y2="209.78"/>
    <path class="st1" d="M559.12,647.32c-44.82-60.66-110.44-155.7-154.53-218.14-44.08-63.14-110.53-156.12-152.73-219.4,44.95,60.82,110.27,155.47,154.53,218.14,43.94,62.93,110.67,156.32,152.73,219.4h0Z"/>
  </g>
  <g>
    <line class="st0" x1="337.57" y1="308.01" x2="570.36" y2="639.43"/>
    <path class="st1" d="M337.57,308.01c34.41,45.77,83.76,117.7,117.3,165.08,33.36,47.85,83.89,118.16,115.5,166.34-34.41-45.81-83.72-117.64-117.3-165.08-33.32-47.83-83.94-118.19-115.5-166.34h0Z"/>
  </g>
  <g>
    <line class="st0" x1="686.2" y1="654.65" x2="378.93" y2="217.11"/>
    <path class="st1" d="M686.2,654.65c-44.82-60.66-110.44-155.7-154.53-218.14-44.08-63.14-110.53-156.13-152.73-219.41,44.95,60.83,110.27,155.47,154.53,218.14,43.94,62.93,110.67,156.33,152.73,219.41h0Z"/>
  </g>
  <g>
    <line class="st0" x1="459.51" y1="308.01" x2="697.44" y2="646.76"/>
    <path class="st1" d="M459.51,308.01c35.14,46.81,85.59,120.32,119.87,168.74,34.1,48.91,85.73,120.78,118.07,170.01-35.14-46.85-85.55-120.25-119.87-168.74-34.06-48.88-85.78-120.81-118.07-170.01h0Z"/>
  </g>
  <g>
    <line class="st0" x1="517.26" y1="201.89" x2="824.52" y2="639.43"/>
    <path class="st1" d="M517.26,201.89c44.82,60.66,110.44,155.7,154.53,218.14,44.08,63.14,110.53,156.12,152.73,219.4-44.95-60.82-110.27-155.47-154.53-218.14-43.94-62.93-110.66-156.32-152.73-219.4h0Z"/>
  </g>
  <g>
    <line class="st0" x1="612.14" y1="209.78" x2="310.49" y2="639.43"/>
    <path class="st1" d="M612.14,209.78c-41.05,61.64-106.96,153.91-149.93,215.46-43.62,61.76-107.33,154.14-151.73,214.19,41.16-61.81,106.81-153.68,149.93-215.46,43.47-61.56,107.47-154.33,151.73-214.19h0Z"/>
  </g>
  <g>
    <line class="st0" x1="299.24" y1="631.54" x2="526.45" y2="308.01"/>
    <path class="st1" d="M299.24,631.54c30.6-46.78,80.32-115.91,112.71-162.4,32.9-46.48,80.7-116.18,114.51-161.13-30.63,46.8-80.27,115.85-112.7,162.4-32.88,46.44-80.71,116.23-114.51,161.13h0Z"/>
  </g>
  <g>
    <line class="st0" x1="485.06" y1="217.11" x2="183.41" y2="646.76"/>
    <path class="st1" d="M485.06,217.11c-41.05,61.64-106.96,153.92-149.93,215.46-43.62,61.76-107.33,154.14-151.73,214.2,41.16-61.81,106.81-153.68,149.93-215.46,43.47-61.57,107.47-154.33,151.73-214.2h0Z"/>
  </g>
  <g>
    <line class="st0" x1="172.16" y1="638.88" x2="404.51" y2="308.01"/>
    <path class="st1" d="M172.16,638.88c31.32-47.82,82.15-118.52,115.27-166.06,33.64-47.53,82.54-118.8,117.07-164.8-31.36,47.84-82.1,118.46-115.27,166.06-33.62,47.49-82.55,118.86-117.08,164.8h0Z"/>
  </g>
  <g>
    <line class="st0" x1="31.53" y1="650.83" x2="346.74" y2="201.89"/>
    <path class="st1" d="M31.53,650.83c42.97-64.36,111.8-160.8,156.71-225.1,44.67-63.32,113-162.11,158.51-223.84-42.42,63.5-112.43,161.75-156.71,225.1-45.42,64.33-112.32,161.24-158.51,223.84h0Z"/>
  </g>
  <g>
    <line class="st0" x1="863.01" y1="594.08" x2=".99" y2="594.08"/>
    <path class="st1" d="M863.01,594.08c-276.12,1.89-585.9,1.88-862.02,0,276.12-1.88,585.9-1.89,862.02,0h0Z"/>
  </g>
  <polygon points="779.42 587.2 655.62 587.2 650.82 580.4 501.33 367.57 559.1 285.34 563.29 279.36 774.61 580.4 779.42 587.2"/>
  <polygon points="638.79 587.2 533.62 587.2 528.87 580.4 440.39 454.41 492.94 379.53 634.05 580.4 638.79 587.2"/>
  <polygon points="516.85 587.2 347.17 587.2 351.91 580.4 432.01 466.36 512.11 580.4 516.85 587.2"/>
  <polygon points="484.63 367.57 432.01 442.52 379.39 367.57 432.01 292.69 484.63 367.57"/>
  <polygon points="423.63 454.41 335.14 580.4 330.4 587.2 225.23 587.2 229.97 580.4 371.07 379.53 423.63 454.41"/>
  <polygon points="362.69 367.57 213.2 580.4 208.4 587.2 84.6 587.2 89.41 580.4 300.73 279.36 304.92 285.34 362.69 367.57"/>
</svg>