<?xml version="1.0" encoding="UTF-8"?>
<svg id="Layer_1" xmlns="http://www.w3.org/2000/svg" version="1.1" viewBox="0 0 864 864">
  <!-- Generator: Adobe Illustrator 29.8.1, SVG Export Plug-In . SVG Version: 2.1.1 Build 2)  -->
  <defs>
    <style>
      .st0, .st1, .st2, .st3, .st4, .st5, .st6 {
        fill: none;
        stroke: #000;
        stroke-miterlimit: 10;
      }

      .st0, .st3 {
        stroke-width: 14.17px;
      }

      .st7 {
        fill: #231f20;
      }

      .st1 {
        stroke-width: 1.89px;
      }

      .st2 {
        stroke-width: 4.72px;
      }

      .st3 {
        stroke-dasharray: 1.41 5.64;
      }

      .st4, .st6 {
        stroke-width: 1.42px;
      }

      .st5 {
        stroke-width: 5.2px;
      }

      .st6, .st8 {
        opacity: .5;
      }
    </style>
  </defs>
  <circle class="st2" cx="432" cy="432" r="402.31"/>
  <circle class="st4" cx="432" cy="432" r="409.59"/>
  <circle class="st1" cx="432" cy="432" r="347.9"/>
  <circle class="st1" cx="432" cy="432" r="309.33"/>
  <circle class="st5" cx="432" cy="432" r="290.8"/>
  <circle class="st1" cx="432" cy="432" r="282.25"/>
  <circle class="st2" cx="432" cy="432" r="241.53"/>
  <circle class="st1" cx="432" cy="432" r="228.55"/>
  <path class="st1" d="M29.89,432c105.93-97.07,247.1-156.31,402.11-156.31s296.18,59.24,402.11,156.31c-105.93,97.07-247.1,156.31-402.11,156.31-155.01,0-296.18-59.24-402.11-156.31Z"/>
  <path class="st1" d="M432,834.11c-97.07-105.93-156.31-247.1-156.31-402.11,0-155.01,59.24-296.18,156.31-402.11,97.07,105.93,156.31,247.1,156.31,402.11,0,155.01-59.24,296.18-156.31,402.11Z"/>
  <path class="st1" d="M186.63,677.36c5.41-123.87,55.4-246.16,149.99-340.74,94.58-94.58,216.87-144.58,340.74-149.99-5.41,123.87-55.4,246.16-149.99,340.74-94.58,94.58-216.87,144.58-340.74,149.99Z"/>
  <path class="st1" d="M677.37,677.36c-123.87-5.41-246.16-55.4-340.74-149.99-94.58-94.58-144.58-216.87-149.99-340.74,123.87,5.41,246.16,55.4,340.74,149.99,94.58,94.58,144.58,216.87,149.99,340.74Z"/>
  <path class="st6" d="M432,29.69c63.9,0,115.7,51.8,115.7,115.7,0,23.96-7.28,46.22-19.76,64.69"/>
  <path class="st6" d="M432,834.31c-63.9,0-115.7-51.8-115.7-115.7,0-23.96,7.28-46.22,19.76-64.69"/>
  <path class="st6" d="M307.68,49.38c60.77-19.75,126.05,13.51,145.79,74.29,7.4,22.79,7.36,46.21,1.2,67.63"/>
  <path class="st6" d="M556.32,814.62c-60.77,19.75-126.05-13.51-145.79-74.29-7.4-22.79-7.36-46.21-1.2-67.63"/>
  <path class="st6" d="M195.53,106.52c51.7-37.56,124.05-26.1,161.61,25.6,14.09,19.39,21.28,41.68,22.04,63.95"/>
  <path class="st6" d="M668.47,757.47c-51.7,37.56-124.05,26.1-161.61-25.6-14.09-19.39-21.28-41.68-22.04-63.95"/>
  <path class="st6" d="M106.52,195.53c37.56-51.7,109.92-63.16,161.61-25.6,19.39,14.09,33.11,33.06,40.72,54.01"/>
  <path class="st6" d="M757.48,668.47c-37.56,51.7-109.92,63.16-161.61,25.6-19.39-14.09-33.11-33.06-40.72-54.01"/>
  <path class="st6" d="M49.38,307.68c19.75-60.77,85.02-94.03,145.79-74.29,22.79,7.4,41.71,21.21,55.42,38.78"/>
  <path class="st6" d="M814.62,556.32c-19.75,60.77-85.02,94.03-145.79,74.29-22.79-7.4-41.71-21.21-55.42-38.78"/>
  <path class="st6" d="M29.69,432c0-63.9,51.8-115.7,115.7-115.7,23.96,0,46.22,7.28,64.69,19.76"/>
  <path class="st6" d="M834.31,432c0,63.9-51.8,115.7-115.7,115.7-23.96,0-46.22-7.28-64.69-19.76"/>
  <path class="st6" d="M49.38,556.32c-19.75-60.77,13.51-126.05,74.29-145.79,22.79-7.4,46.21-7.36,67.63-1.2"/>
  <path class="st6" d="M814.62,307.68c19.75,60.77-13.51,126.05-74.29,145.79-22.79,7.4-46.21,7.36-67.63,1.2"/>
  <path class="st6" d="M106.52,668.47c-37.56-51.7-26.1-124.05,25.6-161.61,19.39-14.09,41.68-21.28,63.95-22.04"/>
  <path class="st6" d="M757.48,195.53c37.56,51.7,26.1,124.05-25.6,161.61-19.39,14.09-41.68,21.28-63.95,22.04"/>
  <path class="st6" d="M195.53,757.47c-51.7-37.56-63.16-109.92-25.6-161.61,14.09-19.39,33.06-33.11,54.01-40.72"/>
  <path class="st6" d="M668.47,106.52c51.7,37.56,63.16,109.92,25.6,161.61-14.09,19.39-33.06,33.11-54.01,40.72"/>
  <path class="st6" d="M307.68,814.62c-60.77-19.75-94.03-85.02-74.29-145.79,7.4-22.79,21.21-41.71,38.78-55.42"/>
  <path class="st6" d="M556.32,49.38c60.77,19.75,94.03,85.02,74.29,145.79-7.4,22.79-21.21,41.71-38.78,55.42"/>
  <path class="st6" d="M299.41,245.82c-1.71-8.58-2.6-17.45-2.6-26.53,0-74.66,60.53-135.19,135.19-135.19"/>
  <path class="st6" d="M564.59,618.18c1.71,8.58,2.6,17.45,2.6,26.53,0,74.66-60.53,135.19-135.19,135.19"/>
  <path class="st6" d="M243.73,302.39c-4.54-7.48-8.41-15.51-11.52-24.04-25.54-70.16,10.64-147.74,80.8-173.27"/>
  <path class="st6" d="M620.27,561.61c4.54,7.48,8.41,15.51,11.52,24.04,25.54,70.16-10.64,147.74-80.8,173.27"/>
  <path class="st6" d="M210.76,374.6c-6.82-5.47-13.21-11.69-19.05-18.65-47.99-57.19-40.53-142.46,16.66-190.46"/>
  <path class="st6" d="M653.24,489.4c6.82,5.47,13.21,11.69,19.05,18.65,47.99,57.19,40.53,142.46-16.66,190.46"/>
  <path class="st6" d="M204.47,453.73c-8.28-2.81-16.41-6.47-24.28-11.01-64.66-37.33-86.81-120.01-49.48-184.67"/>
  <path class="st6" d="M659.53,410.27c8.28,2.81,16.41,6.47,24.28,11.01,64.66,37.33,86.81,120.01,49.48,184.67"/>
  <path class="st6" d="M225.62,530.24c-8.74.19-17.64-.47-26.58-2.04-73.53-12.96-122.62-83.08-109.66-156.61"/>
  <path class="st6" d="M638.38,333.76c8.74-.19,17.64.47,26.58,2.04,73.53,12.96,122.62,83.08,109.66,156.61"/>
  <path class="st6" d="M271.67,594.9c-8.15,3.17-16.73,5.59-25.67,7.17-73.53,12.96-143.64-36.13-156.61-109.66"/>
  <path class="st6" d="M592.33,269.1c8.15-3.17,16.73-5.59,25.67-7.17,73.53-12.96,143.64,36.13,156.61,109.66"/>
  <path class="st6" d="M337.05,639.91c-6.58,5.77-13.81,10.98-21.67,15.52-64.66,37.33-147.34,15.18-184.67-49.48"/>
  <path class="st6" d="M526.95,224.09c6.58-5.77,13.81-10.98,21.67-15.52,64.66-37.33,147.34-15.18,184.67,49.48"/>
  <path class="st6" d="M413.89,659.85c-4.21,7.67-9.22,15.04-15.06,21.99-47.99,57.19-133.26,64.65-190.46,16.66"/>
  <path class="st6" d="M450.11,204.15c4.21-7.67,9.22-15.04,15.06-21.99,47.99-57.19,133.26-64.65,190.46-16.66"/>
  <path class="st6" d="M492.91,652.3c-1.33,8.64-3.52,17.29-6.63,25.82-25.54,70.16-103.11,106.33-173.27,80.8"/>
  <path class="st6" d="M371.09,211.7c1.33-8.64,3.52-17.29,6.63-25.82,25.54-70.16,103.11-106.33,173.27-80.8"/>
  <g class="st8">
    <path d="M451.86,205.03c-115.37-10.15-202.5,102.6-164.29,211.76,8.81,25.1,24.04,47.87,43.79,65.69,6.6,5.92,13.68,11.32,21.14,16.11-7.49-4.76-14.59-10.12-21.23-16.01-19.87-17.76-35.24-40.5-44.19-65.61-25.08-68.32,1.91-148.39,63.16-187.7,29.77-19.65,66.2-28.81,101.74-25.64,0,0-.12,1.41-.12,1.41h0Z"/>
    <path d="M412.14,658.97c62.69,5.96,124.76-27.59,154.36-83.13,39.69-72.68,15.05-166.35-55-210.42,70.38,43.99,95.26,137.78,55.71,210.8-20.91,39.36-58.88,69.14-102.16,79.86-17.26,4.47-35.27,5.7-53.02,4.3l.12-1.41h0Z"/>
    <path d="M285.55,257.46c-88.76,74.4-70.64,215.74,33.56,265.91,23.98,11.52,50.85,16.85,77.41,15.48,8.86-.48,17.67-1.67,26.34-3.56-8.66,1.93-17.47,3.16-26.33,3.69-26.61,1.49-53.56-3.72-77.64-15.15-66.05-30.57-103.57-106.28-88.07-177.38,7.16-34.95,26.44-67.18,53.81-90.07,0,0,.91,1.09.91,1.09h0Z"/>
    <path d="M578.45,606.54c48.54-40.12,68.71-107.72,50.37-167.93-23.33-79.45-106.99-128.27-187.69-109.9,80.88-18.66,164.78,30.07,188.45,109.67,13.04,42.62,7.25,90.52-15.77,128.71-9.04,15.37-20.92,28.97-34.45,40.54,0,0-.91-1.09-.91-1.09h0Z"/>
    <path d="M205.03,412.14c-10.15,115.37,102.6,202.5,211.76,164.29,25.1-8.81,47.87-24.04,65.69-43.79,5.92-6.6,11.32-13.68,16.11-21.14-4.76,7.49-10.12,14.59-16.01,21.23-17.76,19.87-40.5,35.24-65.61,44.19-68.32,25.08-148.39-1.91-187.7-63.16-19.65-29.77-28.81-66.2-25.64-101.74,0,0,1.41.12,1.41.12h0Z"/>
    <path d="M658.97,451.86c5.96-62.69-27.59-124.76-83.13-154.36-72.68-39.69-166.35-15.05-210.42,55,43.99-70.38,137.78-95.26,210.8-55.71,39.36,20.91,69.14,58.88,79.86,102.16,4.47,17.26,5.7,35.27,4.3,53.02l-1.41-.12h0Z"/>
    <path d="M257.46,578.45c74.4,88.76,215.74,70.64,265.91-33.56,11.52-23.98,16.85-50.85,15.48-77.41-.48-8.86-1.67-17.67-3.56-26.34,1.93,8.66,3.16,17.47,3.69,26.33,1.49,26.61-3.72,53.56-15.15,77.64-30.57,66.05-106.28,103.57-177.38,88.07-34.95-7.16-67.18-26.44-90.07-53.81,0,0,1.09-.91,1.09-.91h0Z"/>
    <path d="M606.54,285.55c-40.12-48.54-107.72-68.71-167.93-50.37-79.45,23.33-128.27,106.99-109.9,187.69-18.66-80.88,30.07-164.78,109.67-188.45,42.62-13.04,90.52-7.25,128.71,15.77,15.37,9.04,28.97,20.92,40.54,34.45l-1.09.91h0Z"/>
  </g>
  <g class="st8">
    <path d="M412.02,203.61c116.02-9.99,203.93,103.62,164.89,213.34-8.95,25.11-24.32,47.85-44.19,65.61-6.63,5.9-13.74,11.26-21.23,16.01,7.47-4.79,14.54-10.19,21.14-16.11,19.75-17.82,34.98-40.59,43.79-65.69,31.3-87.82-21.11-185.49-111.69-207.67-17.14-4.3-35.01-5.63-52.6-4.08,0,0-.12-1.41-.12-1.41h0Z"/>
    <path d="M451.98,660.39c-63.15,5.79-125.56-28.13-155.19-84.16-39.55-73-14.66-166.84,55.71-210.8-70.07,44.11-94.69,137.72-55,210.42,20.91,39.04,58.72,68.52,101.76,79.04,17.14,4.38,35.01,5.53,52.6,4.09l.12,1.41h0Z"/>
    <path d="M579.36,256.38c89.11,74.97,70.93,217.47-34.26,267.45-24.08,11.43-51.03,16.64-77.64,15.15-8.86-.52-17.68-1.75-26.33-3.69,8.67,1.89,17.49,3.08,26.34,3.56,26.56,1.36,53.44-3.96,77.41-15.48,84.23-39.96,116.23-146.09,67.87-225.82-9.08-15.16-20.77-28.73-34.31-40.08,0,0,.91-1.09.91-1.09h0Z"/>
    <path d="M284.64,607.62c-48.74-40.56-68.89-108.68-50.22-169.25,23.65-79.59,107.61-128.34,188.45-109.67-80.73-18.36-164.34,30.43-187.69,109.9-12.82,42.39-6.93,89.97,16.07,127.84,9.02,15.22,20.84,28.67,34.3,40.09l-.91,1.09h0Z"/>
    <path d="M660.39,412.02c9.99,116.02-103.62,203.93-213.34,164.89-25.11-8.95-47.85-24.32-65.61-44.19-5.9-6.63-11.26-13.74-16.01-21.23,4.79,7.47,10.19,14.54,16.11,21.14,17.82,19.75,40.59,34.98,65.69,43.79,87.82,31.3,185.49-21.11,207.67-111.69,4.3-17.14,5.63-35.01,4.08-52.6,0,0,1.41-.12,1.41-.12h0Z"/>
    <path d="M203.61,451.98c-5.79-63.15,28.13-125.56,84.16-155.19,73-39.55,166.84-14.66,210.8,55.71-44.11-70.07-137.72-94.69-210.42-55-39.04,20.91-68.52,58.72-79.04,101.76-4.38,17.14-5.53,35.01-4.09,52.6,0,0-1.41.12-1.41.12h0Z"/>
    <path d="M607.62,579.36c-74.97,89.11-217.47,70.93-267.45-34.26-11.43-24.08-16.64-51.03-15.15-77.64.52-8.86,1.75-17.68,3.69-26.33-1.89,8.67-3.08,17.49-3.56,26.34-1.36,26.56,3.96,53.44,15.48,77.41,39.96,84.23,146.09,116.23,225.82,67.87,15.16-9.08,28.73-20.77,40.08-34.31,0,0,1.09.91,1.09.91h0Z"/>
    <path d="M256.38,284.64c40.56-48.74,108.67-68.89,169.25-50.22,79.59,23.65,128.34,107.61,109.67,188.45,18.36-80.73-30.43-164.34-109.9-187.69-42.39-12.82-89.97-6.93-127.84,16.07-15.22,9.02-28.67,20.84-40.09,34.3l-1.09-.91h0Z"/>
  </g>
  <circle cx="432" cy="261.39" r="6.99"/>
  <circle cx="432" cy="212.98" r="3.48"/>
  <circle cx="657.07" cy="432" r="3.48"/>
  <circle cx="206.93" cy="432" r="3.48"/>
  <circle cx="432" cy="174.03" r="3.48"/>
  <circle cx="776.69" cy="223.56" r="4.53"/>
  <circle cx="87.31" cy="640.43" r="4.53"/>
  <circle cx="87.19" cy="223.76" r="4.53"/>
  <circle cx="776.81" cy="640.24" r="4.53"/>
  <circle cx="432" cy="132.3" r="3.48"/>
  <circle cx="432" cy="154.01" r="4.25"/>
  <circle cx="432" cy="602.61" r="6.99"/>
  <circle cx="432" cy="651.01" r="3.48"/>
  <circle cx="432" cy="689.97" r="3.48"/>
  <circle cx="432" cy="731.7" r="3.48"/>
  <circle cx="405.88" cy="133.44" r="3.48"/>
  <circle cx="458.12" cy="730.56" r="3.48"/>
  <circle cx="379.96" cy="136.85" r="3.48"/>
  <circle cx="484.04" cy="727.15" r="3.48"/>
  <circle cx="354.43" cy="142.51" r="3.48"/>
  <circle cx="509.57" cy="721.49" r="3.48"/>
  <circle cx="329.5" cy="150.37" r="3.48"/>
  <circle cx="534.5" cy="713.62" r="3.48"/>
  <circle cx="305.34" cy="160.38" r="3.48"/>
  <circle cx="558.66" cy="703.62" r="3.48"/>
  <circle cx="282.15" cy="172.45" r="3.48"/>
  <circle cx="581.85" cy="691.55" r="3.48"/>
  <circle cx="260.1" cy="186.5" r="3.48"/>
  <circle cx="603.9" cy="677.5" r="3.48"/>
  <circle cx="239.36" cy="202.41" r="3.48"/>
  <circle cx="624.64" cy="661.58" r="3.48"/>
  <circle cx="220.08" cy="220.08" r="3.48"/>
  <circle cx="643.92" cy="643.92" r="3.48"/>
  <circle cx="458.12" cy="133.44" r="3.48"/>
  <circle cx="405.88" cy="730.56" r="3.48"/>
  <circle cx="484.04" cy="136.85" r="3.48"/>
  <circle cx="379.96" cy="727.15" r="3.48"/>
  <circle cx="509.57" cy="142.51" r="3.48"/>
  <circle cx="354.43" cy="721.49" r="3.48"/>
  <circle cx="534.5" cy="150.37" r="3.48"/>
  <circle cx="329.5" cy="713.62" r="3.48"/>
  <circle cx="558.66" cy="160.38" r="3.48"/>
  <circle cx="305.34" cy="703.62" r="3.48"/>
  <circle cx="581.85" cy="172.45" r="3.48"/>
  <circle cx="282.15" cy="691.55" r="3.48"/>
  <circle cx="603.9" cy="186.5" r="3.48"/>
  <circle cx="260.1" cy="677.5" r="3.48"/>
  <circle cx="624.64" cy="202.41" r="3.48"/>
  <circle cx="239.36" cy="661.58" r="3.48"/>
  <circle cx="643.92" cy="220.08" r="3.48"/>
  <circle cx="220.08" cy="643.92" r="3.48"/>
  <circle cx="432" cy="709.99" r="4.25"/>
  <g>
    <g>
      <path class="st0" d="M247.85,616.15c-.17-.17-.33-.33-.5-.5"/>
      <path class="st3" d="M243.41,611.61c-96.44-101.17-95.78-260.87,1.96-361.25"/>
      <path class="st0" d="M247.35,248.35c.17-.17.33-.33.5-.5"/>
    </g>
    <g>
      <path class="st0" d="M616.15,247.84c.17.17.33.33.5.5"/>
      <path class="st3" d="M620.59,252.39c96.44,101.17,95.78,260.87-1.96,361.25"/>
      <path class="st0" d="M616.65,615.65c-.17.17-.33.33-.5.5"/>
    </g>
  </g>
  <circle cx="432" cy="834.31" r="7.28"/>
  <circle class="st1" cx="432" cy="84.1" r="6.56"/>
  <circle class="st1" cx="432" cy="779.9" r="6.56"/>
  <circle class="st1" cx="678" cy="186" r="6.56"/>
  <circle class="st1" cx="186" cy="678" r="6.56"/>
  <circle class="st1" cx="779.9" cy="432" r="6.56"/>
  <circle class="st1" cx="84.1" cy="432" r="6.56"/>
  <circle class="st1" cx="678" cy="678" r="6.56"/>
  <circle class="st1" cx="186" cy="186" r="6.56"/>
  <g>
    <path class="st7" d="M393.85,497.27c11.22,6.59,24.29,10.37,38.24,10.37,41.77,0,75.64-33.86,75.64-75.63,0-13.96-3.78-27.03-10.38-38.25v-7.52c9.11,12.95,14.45,28.73,14.45,45.77,0,44.02-35.68,79.7-79.71,79.7-17.03,0-32.81-5.34-45.76-14.44h7.52Z"/>
    <polygon class="st7" points="462.43 401.67 431.57 470.67 422.63 441.47 393.44 432.52 462.43 401.67"/>
    <path class="st7" d="M366.83,477.77c-9.1-12.95-14.44-28.73-14.44-45.76,0-44.02,35.68-79.71,79.7-79.71,17.04,0,32.82,5.34,45.77,14.45h-7.52c-11.22-6.59-24.29-10.38-38.25-10.38-41.77,0-75.63,33.86-75.63,75.64,0,13.95,3.78,27.02,10.37,38.24v7.52Z"/>
    <path class="st7" d="M416.49,382.03c3.55-1.11,7.27-1.84,11.1-2.17l-.19-2.16c-3.99.34-7.86,1.1-11.56,2.26l.65,2.07ZM481.42,408.83c-1.69-3.58-3.76-6.94-6.15-10.05l-1.71,1.32c2.3,2.98,4.28,6.21,5.9,9.64l1.96-.92ZM472.67,468.37c2.62-2.92,4.92-6.12,6.87-9.56l-1.89-1.07c-1.87,3.3-4.08,6.38-6.59,9.18l1.61,1.44ZM464.65,391.05c2.95,2.35,5.66,5.02,8.04,7.94l1.69-1.36c-2.49-3.05-5.3-5.82-8.37-8.27l-1.35,1.69ZM470.1,467.96c-2.6,2.74-5.47,5.2-8.6,7.34l1.21,1.79c3.26-2.22,6.25-4.79,8.95-7.64l-1.57-1.48ZM391.39,464.89c-2.37-2.93-4.42-6.11-6.12-9.5l-1.94.96c1.77,3.53,3.91,6.85,6.38,9.9l1.69-1.36ZM400.51,473.74c-3.01-2.29-5.76-4.89-8.22-7.76l-1.64,1.4c2.56,2.99,5.42,5.7,8.55,8.08l1.31-1.72ZM387.15,405.19c1.94-3.25,4.24-6.27,6.82-9.01l-1.58-1.48c-2.69,2.86-5.08,6-7.11,9.39l1.86,1.11ZM384.55,405.36c-1.91,3.4-3.48,7.02-4.64,10.83l2.08.63c1.11-3.65,2.61-7.13,4.45-10.4l-1.89-1.06ZM379.8,429.35c.2-3.85.82-7.58,1.8-11.16l-2.09-.57c-1.02,3.73-1.67,7.62-1.87,11.62l2.16.11ZM380.7,442.03c-.63-3.25-.97-6.59-.97-10.02,0-.42.02-.84.03-1.25l-2.16-.05c-.01.43-.03.86-.03,1.3,0,3.57.36,7.05,1.01,10.43l2.12-.41ZM384.65,454.12c-1.58-3.38-2.81-6.97-3.65-10.71l-2.11.47c.86,3.89,2.14,7.62,3.8,11.15l1.96-.92ZM438.06,486.2c3.98-.44,7.82-1.31,11.49-2.56l-.69-2.05c-3.53,1.19-7.22,2.03-11.04,2.45l.24,2.16ZM432.09,484.37c-2.37,0-4.69-.18-6.97-.48l-.28,2.14c2.37.32,4.79.5,7.25.5,1.52,0,3.01-.08,4.5-.2l-.18-2.16c-1.42.12-2.87.2-4.32.2ZM429.01,379.75c1.02-.05,2.04-.09,3.07-.09,2.79,0,5.53.22,8.21.65l.33-2.14c-2.78-.44-5.64-.67-8.54-.67-1.07,0-2.14.03-3.2.1l.13,2.16ZM394.94,395.15c2.66-2.68,5.6-5.06,8.78-7.11l-1.18-1.82c-3.31,2.14-6.38,4.62-9.14,7.41l1.54,1.52ZM415.16,382.48l-.7-2.05c-3.76,1.29-7.34,2.96-10.67,5l1.12,1.85c3.21-1.96,6.64-3.56,10.25-4.79ZM411.49,480.14c-3.49-1.5-6.78-3.38-9.84-5.57l-1.25,1.76c3.18,2.28,6.61,4.23,10.25,5.8l.85-1.99ZM412.81,480.67l-.8,2.01c3.61,1.44,7.41,2.51,11.35,3.14l.34-2.14c-3.78-.61-7.43-1.64-10.9-3.01ZM460.31,476.07c-3.16,2.03-6.54,3.74-10.11,5.06l.75,2.03c3.72-1.38,7.25-3.16,10.54-5.27l-1.17-1.82ZM452.53,383.81l.85-1.99c-3.59-1.52-7.36-2.66-11.29-3.4l-.4,2.13c3.77.7,7.4,1.79,10.83,3.26ZM454.72,382.43l-.9,1.97c3.45,1.58,6.71,3.52,9.71,5.78l1.3-1.73c-3.13-2.36-6.52-4.38-10.12-6.03ZM484.41,433.43c-.1,3.85-.61,7.6-1.51,11.2l2.1.52c.93-3.75,1.46-7.65,1.57-11.66l-2.16-.05ZM485.83,422.86l-2.13.36c.49,2.86.75,5.79.75,8.79h2.16c0-3.12-.28-6.18-.78-9.16ZM482.54,446c-1.02,3.68-2.43,7.2-4.19,10.5l1.91,1.02c1.83-3.45,3.3-7.11,4.36-10.95l-2.08-.57ZM432.09,376.98c30.34,0,55.03,24.68,55.03,55.03s-24.68,55.03-55.03,55.03-55.03-24.69-55.03-55.03,24.69-55.03,55.03-55.03ZM480.05,411.03c1.5,3.42,2.65,7.04,3.4,10.79l2.12-.42c-.78-3.92-1.98-7.68-3.54-11.25l-1.98.87ZM482.41,444.5c.89-3.57,1.4-7.28,1.5-11.09l-7.07-.19c.01-.4.02-.81.02-1.21h7.09c0-2.97-.26-5.87-.74-8.71l-6.98,1.18c-.07-.4-.13-.8-.22-1.19l6.94-1.38c-.73-3.71-1.87-7.29-3.36-10.68l-6.47,2.84c-.16-.37-.33-.74-.51-1.11l6.4-3.01c-1.6-3.4-3.57-6.6-5.85-9.55l-5.59,4.3c-.25-.32-.5-.63-.76-.95l5.47-4.45c-2.36-2.91-5.03-5.53-7.96-7.87l-4.4,5.51c-.32-.26-.63-.5-.96-.74l4.25-5.64c-2.97-2.24-6.2-4.16-9.63-5.73l-2.93,6.42c-.36-.17-.73-.33-1.11-.49l2.77-6.51c-3.4-1.45-7-2.53-10.73-3.22l-1.29,6.95c-.39-.07-.79-.14-1.19-.2l1.1-7c-2.65-.42-5.37-.64-8.13-.64-1.02,0-2.04.03-3.05.09l.4,7.07c-.4.02-.8.05-1.21.08l-.6-7.05c-3.8.32-7.48,1.04-11,2.14l2.12,6.76c-.39.12-.78.25-1.16.38l-2.28-6.69c-3.57,1.23-6.97,2.81-10.15,4.75l3.67,6.04c-.34.21-.69.42-1.02.64l-3.83-5.92c-3.14,2.04-6.06,4.4-8.69,7.05l5.01,4.97c-.28.29-.57.58-.84.88l-5.14-4.83c-2.56,2.72-4.83,5.71-6.76,8.93l6.06,3.62c-.21.34-.41.69-.61,1.05l-6.16-3.46c-1.82,3.24-3.31,6.68-4.41,10.3l6.77,2.05c-.11.38-.22.77-.33,1.16l-6.82-1.86c-.97,3.55-1.58,7.25-1.78,11.05l7.08.36c-.02.4-.03.8-.04,1.21l-7.07-.16c-.01.41-.03.82-.03,1.23,0,3.39.34,6.71.96,9.92l6.94-1.35c.08.4.16.8.25,1.19l-6.9,1.54c.83,3.69,2.04,7.25,3.61,10.6l6.4-2.99c.17.36.34.73.53,1.09l-6.31,3.16c1.68,3.36,3.71,6.51,6.06,9.41l5.48-4.44c.26.32.51.63.78.93l-5.36,4.58c2.43,2.85,5.16,5.42,8.14,7.69l4.27-5.62c.32.24.65.49.97.71l-4.11,5.74c3.03,2.16,6.29,4.02,9.75,5.51l2.78-6.5c.37.16.75.31,1.13.47l-2.61,6.56c3.44,1.37,7.05,2.38,10.79,2.99l1.13-6.98c.4.06.8.12,1.19.18l-.93,7c2.26.3,4.56.48,6.9.48,1.44,0,2.87-.07,4.28-.2l-.57-7.05c.4-.03.8-.07,1.2-.11l.77,7.04c3.78-.42,7.44-1.25,10.93-2.43l-2.26-6.69c.38-.13.76-.26,1.14-.4l2.45,6.64c3.54-1.31,6.89-3.01,10.02-5.02l-3.82-5.93c.34-.22.68-.44,1.01-.67l3.98,5.84c3.09-2.11,5.94-4.55,8.51-7.27l-5.12-4.85c.28-.29.55-.59.82-.89l5.25,4.71c2.49-2.78,4.68-5.82,6.53-9.09l-6.14-3.47c.2-.35.39-.71.59-1.07l6.24,3.31c1.74-3.28,3.13-6.76,4.15-10.4l-6.81-1.89c.11-.39.21-.78.3-1.17l6.87,1.69Z"/>
    <path class="st7" d="M369.25,432.01c0,34.7,28.13,62.83,62.83,62.83s62.83-28.13,62.83-62.83-28.13-62.83-62.83-62.83-62.83,28.13-62.83,62.83ZM463.86,370.8c-9.52-4.96-20.32-7.77-31.77-7.77-38.03,0-68.97,30.94-68.97,68.98,0,11.45,2.8,22.25,7.76,31.76v-6.24l.09-.03c-3.28-7.85-5.09-16.46-5.09-25.49,0-36.57,29.65-66.22,66.22-66.22,8.96,0,17.5,1.78,25.29,5.01h0s6.48,0,6.48,0ZM469.12,370.8c-10.81-6.57-23.49-10.35-37.03-10.35-39.46,0-71.56,32.1-71.56,71.56,0,13.54,3.78,26.22,10.34,37.03v-4.54c-5.16-9.69-8.1-20.75-8.1-32.48,0-38.23,31.09-69.32,69.31-69.32,11.74,0,22.79,2.93,32.5,8.1h4.54ZM503.99,432.01c0,39.64-32.25,71.89-71.9,71.89-13.8,0-26.7-3.91-37.67-10.68h-23.55v-23.55c-6.77-10.96-10.68-23.87-10.68-37.67,0-39.65,32.25-71.9,71.89-71.9,13.81,0,26.71,3.92,37.67,10.69h23.54v23.54c6.77,10.96,10.69,23.87,10.69,37.67ZM432.09,500.99c38.04,0,68.98-30.94,68.98-68.97,0-11.45-2.81-22.25-7.77-31.77v6.25l-.09.03c3.28,7.85,5.09,16.46,5.09,25.49,0,36.57-29.64,66.22-66.22,66.22-8.96,0-17.49-1.78-25.29-5h-6.47c9.51,4.96,20.31,7.76,31.76,7.76ZM501.41,432.01c0,38.22-31.09,69.31-69.32,69.31-11.73,0-22.79-2.93-32.48-8.1h-4.54c10.81,6.56,23.48,10.34,37.03,10.34,39.46,0,71.56-32.1,71.56-71.56,0-13.54-3.78-26.23-10.35-37.03v4.54c5.17,9.7,8.1,20.76,8.1,32.5Z"/>
    <path class="st7" d="M499.2,364.9l-67.11-27.8-67.11,27.8-27.8,67.11,27.8,67.11,67.11,27.8,67.11-27.8,27.8-67.11-27.8-67.11ZM431.96,527.6l-67.5-27.96-.05-.13-27.96-67.5.05-.13,27.96-67.5.13-.05,67.5-27.96.13.05,67.5,27.96.05.13,27.96,67.5-.05.13-27.96,67.5-.13.05-67.5,27.96-.13-.05Z"/>
    <path class="st7" d="M503.16,360.94l-71.07-29.44-71.07,29.44-29.44,71.07,29.44,71.07,71.07,29.44,71.07-29.44,29.44-71.07-29.44-71.07ZM360.63,360.37l71.46-29.6.13.05,71.46,29.6.05.13,29.6,71.46-.05.13-29.6,71.46-.13.05-71.46,29.6-.13-.05-71.46-29.6-.05-.13-29.6-71.46.05-.13,29.6-71.46.13-.05Z"/>
  </g>
</svg>