<?xml version="1.0" encoding="UTF-8"?>
<svg id="Layer_1" xmlns="http://www.w3.org/2000/svg" version="1.1" viewBox="0 0 864 864">
  <!-- Generator: Adobe Illustrator 29.8.1, SVG Export Plug-In . SVG Version: 2.1.1 Build 2)  -->
  <defs>
    <style>
      .st0 {
        fill: #fff;
      }

      .st0, .st1, .st2, .st3, .st4, .st5, .st6 {
        stroke: #010101;
        stroke-miterlimit: 10;
      }

      .st0, .st3 {
        stroke-width: 1.42px;
      }

      .st1 {
        stroke-width: 4.27px;
      }

      .st1, .st2, .st3, .st4, .st5, .st6 {
        fill: none;
      }

      .st2 {
        stroke-width: .21px;
      }

      .st7 {
        font-size: 5.7px;
      }

      .st7, .st8, .st9, .st10, .st11, .st12, .st13 {
        fill: #010101;
      }

      .st7, .st8, .st9, .st10, .st12, .st13 {
        font-family: BebasNeue-Regular, 'Bebas Neue';
      }

      .st4 {
        stroke-width: 2.14px;
      }

      .st8 {
        font-size: 5.7px;
      }

      .st9 {
        font-size: 5.7px;
      }

      .st5 {
        stroke-width: .71px;
      }

      .st6 {
        stroke-width: 1.07px;
      }

      .st10 {
        font-size: 5.7px;
      }

      .st12 {
        font-size: 5.7px;
      }

      .st13 {
        font-size: 5.7px;
      }
    </style>
  </defs>
  <circle class="st3" cx="432" cy="435.21" r="412.09"/>
  <circle class="st1" cx="432" cy="435.21" r="262.37"/>
  <circle class="st3" cx="432" cy="435.21" r="247.48"/>
  <circle class="st3" cx="432" cy="435.21" r="194.71"/>
  <text class="st12" transform="translate(674.61 251.91)"><tspan x="0" y="0">Tempra</tspan></text>
  <text class="st12" transform="translate(674.68 261.42)"><tspan x="0" y="0" xml:space="preserve">4457889   325</tspan></text>
  <text class="st9" transform="translate(333.96 31.36) rotate(-11.58)"><tspan x="0" y="0" xml:space="preserve">sdfr  gjk  gh</tspan></text>
  <text class="st9" transform="translate(336.74 44.33) rotate(-11.58)"><tspan x="0" y="0">0987 45 397</tspan></text>
  <text class="st12" transform="translate(439.43 613.3)"><tspan x="0" y="0">Intuy</tspan></text>
  <text class="st12" transform="translate(440.8 624.52)"><tspan x="0" y="0">entud</tspan></text>
  <text class="st7" transform="translate(291.72 567.31) rotate(-45.19)"><tspan x="0" y="0" xml:space="preserve">alskje na  sd</tspan></text>
  <text class="st7" transform="translate(301.51 576.84) rotate(-45.19)"><tspan x="0" y="0" xml:space="preserve">7  782  3129</tspan></text>
  <text class="st12" transform="translate(444.85 726.04)"><tspan x="0" y="0" xml:space="preserve">restunl  6458</tspan></text>
  <text class="st10" transform="translate(730.6 713.92) rotate(-48.46)"><tspan x="0" y="0" xml:space="preserve">oihd er   gszijm</tspan></text>
  <text class="st10" transform="translate(739.39 721.46) rotate(-48.46)"><tspan x="0" y="0" xml:space="preserve">   36  54456  754</tspan></text>
  <text class="st12" transform="translate(155.72 612.21)"><tspan x="0" y="0" xml:space="preserve">bljkasd  011  42</tspan></text>
  <text class="st13" transform="translate(162.84 709.98) rotate(44.98)"><tspan x="0" y="0" xml:space="preserve">nkmrwljnb  x54</tspan></text>
  <text class="st13" transform="translate(153.56 722.3) rotate(44.98)"><tspan x="0" y="0">alk.yo1</tspan></text>
  <text class="st9" transform="translate(130.43 540.07) rotate(45)"><tspan x="0" y="0" xml:space="preserve">mbncc   687 1 795</tspan></text>
  <text class="st9" transform="translate(120.33 548.8) rotate(45)"><tspan x="0" y="0" xml:space="preserve">ojlkdfg   1845  88</tspan></text>
  <text class="st8" transform="translate(170.59 303.51) rotate(26.12)"><tspan x="0" y="0" xml:space="preserve">jkmnmnz  xcd</tspan></text>
  <text class="st8" transform="translate(173.85 319.76) rotate(26.12)"><tspan x="0" y="0">uhserty</tspan></text>
  <text class="st12" transform="translate(175.5 625.94)"><tspan x="0" y="0">lkhjs</tspan></text>
  <circle class="st2" cx="432" cy="435.21" r="164.25"/>
  <path class="st11" d="M432.11,270.96l-.11,164.25c.21-.04-.51-164.65.11-164.25h0Z"/>
  <path class="st11" d="M431.89,599.46l.11-164.25c-.21.04.51,164.65-.11,164.25h0Z"/>
  <path class="st11" d="M427.81,271.02l4.19,164.19c.21-.04-4.82-164.58-4.19-164.19h0Z"/>
  <path class="st11" d="M436.19,599.41l-4.19-164.19c-.21.04,4.82,164.58,4.19,164.19h0Z"/>
  <path class="st11" d="M423.51,271.18l8.49,164.03c.21-.05-9.13-164.39-8.49-164.03h0Z"/>
  <path class="st11" d="M440.49,599.24s-8.49-164.03-8.49-164.03c-.21.05,9.13,164.39,8.49,164.03h0Z"/>
  <path class="st11" d="M419.22,271.46s12.78,163.75,12.78,163.75c.21-.06-13.43-164.1-12.78-163.75h0Z"/>
  <path class="st11" d="M444.78,598.96l-12.78-163.75c-.21.06,13.43,164.1,12.78,163.75h0Z"/>
  <path class="st11" d="M414.94,271.85l17.06,163.36c.21-.06-17.72-163.69-17.06-163.36h0Z"/>
  <path class="st11" d="M449.06,598.57l-17.06-163.36c-.21.06,17.72,163.69,17.06,163.36h0Z"/>
  <path class="st11" d="M410.67,272.36l21.33,162.86c.2-.07-22-163.17-21.33-162.86h0Z"/>
  <path class="st11" d="M453.33,598.07l-21.33-162.86c-.2.07,22,163.17,21.33,162.86h0Z"/>
  <path class="st11" d="M406.41,272.97l25.59,162.24c.2-.07-26.26-162.54-25.59-162.24h0Z"/>
  <path class="st11" d="M457.59,597.45l-25.59-162.24c-.2.07,26.26,162.54,25.59,162.24h0Z"/>
  <path class="st11" d="M402.17,273.7l29.83,161.52c.2-.08-30.51-161.8-29.83-161.52h0Z"/>
  <path class="st11" d="M461.83,596.73l-29.83-161.52c-.2.08,30.51,161.8,29.83,161.52h0Z"/>
  <path class="st11" d="M397.96,274.53l34.04,160.68c.2-.08-34.73-160.94-34.04-160.68h0Z"/>
  <path class="st11" d="M466.04,595.89l-34.04-160.68c-.2.08,34.73,160.94,34.04,160.68h0Z"/>
  <path class="st11" d="M393.76,275.48l38.24,159.73c.2-.09-38.93-159.98-38.24-159.73h0Z"/>
  <path class="st11" d="M470.24,594.95l-38.24-159.73c-.2.09,38.93,159.98,38.24,159.73h0Z"/>
  <path class="st11" d="M389.59,276.53l42.41,158.68c.19-.09-43.11-158.9-42.41-158.68h0Z"/>
  <path class="st11" d="M474.41,593.89l-42.41-158.68c-.19.09,43.11,158.9,42.41,158.68h0Z"/>
  <path class="st11" d="M385.45,277.7l46.55,157.51c.19-.1-47.25-157.72-46.55-157.51h0Z"/>
  <path class="st11" d="M478.55,592.73l-46.55-157.51c-.19.1,47.25,157.72,46.55,157.51h0Z"/>
  <path class="st11" d="M381.35,278.97l50.65,156.24c.19-.1-51.37-156.43-50.65-156.24h0Z"/>
  <path class="st11" d="M482.65,591.45l-50.65-156.24c-.19.1,51.37,156.43,50.65,156.24h0Z"/>
  <path class="st11" d="M377.27,280.35l54.73,154.86c.19-.11-55.44-155.03-54.73-154.86h0Z"/>
  <path class="st11" d="M486.73,590.07l-54.73-154.86c-.19.11,55.44,155.03,54.73,154.86h0Z"/>
  <path class="st11" d="M373.24,281.84l58.76,153.38c.18-.11-59.48-153.53-58.76-153.38h0Z"/>
  <path class="st11" d="M490.76,588.59l-58.76-153.38c-.18.11,59.48,153.53,58.76,153.38h0Z"/>
  <path class="st11" d="M369.24,283.43l62.76,151.79c.18-.12-63.48-151.92-62.76-151.79h0Z"/>
  <path class="st11" d="M494.76,587l-62.76-151.79c-.18.12,63.48,151.92,62.76,151.79h0Z"/>
  <path class="st11" d="M365.29,285.12l66.71,150.09c.18-.12-67.44-150.2-66.71-150.09h0Z"/>
  <path class="st11" d="M498.71,585.3l-66.71-150.09c-.18.12,67.44,150.2,66.71,150.09h0Z"/>
  <path class="st11" d="M361.39,286.92l70.61,148.29c.17-.13-71.34-148.39-70.61-148.29h0Z"/>
  <path class="st11" d="M502.61,583.51l-70.61-148.29c-.17.13,71.34,148.39,70.61,148.29h0Z"/>
  <path class="st11" d="M357.53,288.82l74.47,146.39c.17-.13-75.2-146.47-74.47-146.39h0Z"/>
  <path class="st11" d="M506.47,581.61l-74.47-146.39c-.17.13,75.2,146.47,74.47,146.39h0Z"/>
  <path class="st11" d="M353.72,290.82s78.28,144.39,78.28,144.39c.17-.13-79.01-144.45-78.28-144.39h0Z"/>
  <path class="st11" d="M510.28,579.61l-78.28-144.39c-.17.13,79.01,144.45,78.28,144.39h0Z"/>
  <path class="st11" d="M349.97,292.92s82.03,142.3,82.03,142.3c.16-.14-82.77-142.33-82.03-142.3h0Z"/>
  <path class="st11" d="M514.03,577.51l-82.03-142.3c-.16.14,82.77,142.33,82.03,142.3h0Z"/>
  <path class="st11" d="M346.27,295.11l85.73,140.1c.16-.14-86.46-140.12-85.73-140.1h0Z"/>
  <path class="st11" d="M517.73,575.31l-85.73-140.1c-.16.14,86.46,140.12,85.73,140.1h0Z"/>
  <path class="st11" d="M342.63,297.4l89.37,137.81c.16-.15-90.1-137.81-89.37-137.81h0Z"/>
  <path class="st11" d="M521.37,573.02l-89.37-137.81c-.16.15,90.1,137.81,89.37,137.81h0Z"/>
  <path class="st11" d="M339.06,299.79l92.94,135.42c.15-.15-93.68-135.4-92.94-135.42h0Z"/>
  <path class="st11" d="M524.94,570.63l-92.94-135.42c-.15.15,93.68,135.4,92.94,135.42h0Z"/>
  <path class="st11" d="M335.54,302.27l96.46,132.94c.15-.16-97.19-132.9-96.46-132.94h0Z"/>
  <path class="st11" d="M528.46,568.15l-96.46-132.94c-.15.16,97.19,132.9,96.46,132.94h0Z"/>
  <path class="st11" d="M332.1,304.84l99.9,130.37c.14-.16-100.64-130.31-99.9-130.37h0Z"/>
  <path class="st11" d="M531.9,565.58l-99.9-130.37c-.14.16,100.64,130.31,99.9,130.37h0Z"/>
  <path class="st11" d="M328.72,307.5l103.28,127.71c.14-.16-104.01-127.63-103.28-127.71h0Z"/>
  <path class="st11" d="M535.28,562.92l-103.28-127.71c-.14.16,104.01,127.63,103.28,127.71h0Z"/>
  <path class="st11" d="M325.41,310.25l106.59,124.96c.13-.17-107.32-124.87-106.59-124.96h0Z"/>
  <path class="st11" d="M538.59,560.18l-106.59-124.96c-.13.17,107.32,124.87,106.59,124.96h0Z"/>
  <path class="st11" d="M322.18,313.08l109.82,122.13c.13-.17-110.55-122.01-109.82-122.13h0Z"/>
  <path class="st11" d="M541.82,557.34l-109.82-122.13c-.13.17,110.55,122.01,109.82,122.13h0Z"/>
  <path class="st11" d="M319.02,316l112.98,119.21c.13-.17-113.71-119.08-112.98-119.21h0Z"/>
  <path class="st11" d="M544.98,554.43l-112.98-119.21c-.13.17,113.71,119.08,112.98,119.21h0Z"/>
  <path class="st11" d="M315.94,319l116.06,116.22c.12-.18-116.78-116.06-116.06-116.22h0Z"/>
  <path class="st11" d="M548.06,551.43l-116.06-116.22c-.12.18,116.78,116.06,116.06,116.22h0Z"/>
  <path class="st11" d="M312.93,322.07l119.07,113.14c.12-.18-119.78-112.96-119.07-113.14h0Z"/>
  <path class="st11" d="M551.07,548.35l-119.07-113.14c-.12.18,119.78,112.96,119.07,113.14h0Z"/>
  <path class="st11" d="M310.01,325.23l121.99,109.98c.11-.18-122.7-109.79-121.99-109.98h0Z"/>
  <path class="st11" d="M553.99,545.19l-121.99-109.98c-.11.18,122.7,109.79,121.99,109.98h0Z"/>
  <path class="st11" d="M307.17,328.46l124.83,106.75c.11-.19-125.53-106.54-124.83-106.75h0Z"/>
  <path class="st11" d="M556.83,541.96l-124.83-106.75c-.11.19,125.53,106.54,124.83,106.75h0Z"/>
  <path class="st11" d="M304.42,331.76l127.58,103.45c.1-.19-128.28-103.22-127.58-103.45h0Z"/>
  <path class="st11" d="M559.58,538.66l-127.58-103.45c-.1.19,128.28,103.22,127.58,103.45h0Z"/>
  <path class="st11" d="M301.76,335.14s130.24,100.07,130.24,100.07c.1-.19-130.93-99.82-130.24-100.07h0Z"/>
  <path class="st11" d="M562.24,535.28l-130.24-100.07c-.1.19,130.93,99.82,130.24,100.07h0Z"/>
  <path class="st11" d="M299.18,338.58s132.82,96.63,132.82,96.63c.09-.19-133.5-96.36-132.82-96.63h0Z"/>
  <path class="st11" d="M564.82,531.84l-132.82-96.63c-.09.19,133.5,96.36,132.82,96.63h0Z"/>
  <path class="st11" d="M296.7,342.09l135.3,93.12c.09-.2-135.98-92.83-135.3-93.12h0Z"/>
  <path class="st11" d="M567.3,528.33l-135.3-93.12c-.09.2,135.98,92.83,135.3,93.12h0Z"/>
  <path class="st11" d="M294.31,345.67l137.69,89.55c.08-.2-138.36-89.24-137.69-89.55h0Z"/>
  <path class="st11" d="M569.69,524.76l-137.69-89.55c-.08.2,138.36,89.24,137.69,89.55h0Z"/>
  <path class="st11" d="M292.01,349.3s139.99,85.91,139.99,85.91c.08-.2-140.65-85.59-139.99-85.91h0Z"/>
  <path class="st11" d="M571.99,521.12l-139.99-85.91c-.08.2,140.65,85.59,139.99,85.91h0Z"/>
  <path class="st11" d="M289.81,353l142.19,82.22c.07-.2-142.84-81.88-142.19-82.22h0Z"/>
  <path class="st11" d="M574.19,517.43l-142.19-82.22c-.07.2,142.84,81.88,142.19,82.22h0Z"/>
  <path class="st11" d="M287.71,356.75s144.29,78.47,144.29,78.47c.07-.2-144.94-78.11-144.29-78.47h0Z"/>
  <path class="st11" d="M576.29,513.68l-144.29-78.47c-.07.2,144.94,78.11,144.29,78.47h0Z"/>
  <path class="st11" d="M285.7,360.55l146.3,74.66c.06-.21-146.93-74.29-146.3-74.66h0Z"/>
  <path class="st11" d="M578.3,509.87l-146.3-74.66c-.06.21,146.93,74.29,146.3,74.66h0Z"/>
  <path class="st11" d="M283.8,364.41l148.2,70.81c.06-.21-148.83-70.42-148.2-70.81h0Z"/>
  <path class="st11" d="M580.2,506.02l-148.2-70.81c-.06.21,148.83,70.42,148.2,70.81h0Z"/>
  <path class="st11" d="M282,368.31l150,66.9c.05-.21-150.62-66.5-150-66.9h0Z"/>
  <path class="st11" d="M582,502.12l-150-66.9c-.05.21,150.62,66.5,150,66.9h0Z"/>
  <path class="st11" d="M280.3,372.26l151.7,62.95c.04-.21-152.31-62.53-151.7-62.95h0Z"/>
  <path class="st11" d="M583.7,498.17s-151.7-62.95-151.7-62.95c-.04.21,152.31,62.53,151.7,62.95h0Z"/>
  <path class="st11" d="M278.7,376.25l153.3,58.96c.04-.21-153.89-58.53-153.3-58.96h0Z"/>
  <path class="st11" d="M585.3,494.17l-153.3-58.96c-.04.21,153.89,58.53,153.3,58.96h0Z"/>
  <path class="st11" d="M277.21,380.28l154.79,54.93c.03-.21-155.37-54.48-154.79-54.93h0Z"/>
  <path class="st11" d="M586.79,490.14l-154.79-54.93c-.03.21,155.37,54.48,154.79,54.93h0Z"/>
  <path class="st11" d="M275.82,384.36s156.18,50.86,156.18,50.86c.03-.21-156.75-50.39-156.18-50.86h0Z"/>
  <path class="st11" d="M588.18,486.07l-156.18-50.86c-.03.21,156.75,50.39,156.18,50.86h0Z"/>
  <path class="st11" d="M274.55,388.46l157.45,46.75c.02-.21-158.01-46.27-157.45-46.75h0Z"/>
  <path class="st11" d="M589.45,481.96l-157.45-46.75c-.02.21,158.01,46.27,157.45,46.75h0Z"/>
  <path class="st11" d="M273.38,392.6l158.62,42.61c.02-.21-159.17-42.12-158.62-42.61h0Z"/>
  <path class="st11" d="M590.62,477.83l-158.62-42.61c-.02.21,159.17,42.12,158.62,42.61h0Z"/>
  <path class="st11" d="M272.32,396.77l159.68,38.45c.01-.21-160.22-37.94-159.68-38.45h0Z"/>
  <path class="st11" d="M591.68,473.66l-159.68-38.45c-.01.21,160.22,37.94,159.68,38.45h0Z"/>
  <path class="st11" d="M271.36,400.96l160.64,34.25c0-.21-161.15-33.73-160.64-34.25h0Z"/>
  <path class="st11" d="M592.64,469.47l-160.64-34.25c0,.21,161.15,33.73,160.64,34.25h0Z"/>
  <path class="st11" d="M270.52,405.18l161.48,30.04c0-.21-161.98-29.5-161.48-30.04h0Z"/>
  <path class="st11" d="M593.48,465.25l-161.48-30.04c0,.21,161.98,29.5,161.48,30.04h0Z"/>
  <path class="st11" d="M269.79,409.41l162.21,25.8c0-.21-162.7-25.25-162.21-25.8h0Z"/>
  <path class="st11" d="M594.21,461.01l-162.21-25.8c0,.21,162.7,25.25,162.21,25.8h0Z"/>
  <path class="st11" d="M269.17,413.67l162.83,21.54c-.01-.21-163.3-20.98-162.83-21.54h0Z"/>
  <path class="st11" d="M594.83,456.76l-162.83-21.54c.01.21,163.3,20.98,162.83,21.54h0Z"/>
  <path class="st11" d="M268.66,417.94l163.34,17.27c-.02-.21-163.8-16.7-163.34-17.27h0Z"/>
  <path class="st11" d="M595.34,452.49l-163.34-17.27c.02.21,163.8,16.7,163.34,17.27h0Z"/>
  <path class="st11" d="M268.27,422.22l163.73,12.99c-.02-.21-164.18-12.41-163.73-12.99h0Z"/>
  <path class="st11" d="M595.73,448.21l-163.73-12.99c.02.21,164.18,12.41,163.73,12.99h0Z"/>
  <path class="st11" d="M267.98,426.51l164.02,8.7c-.03-.21-164.45-8.11-164.02-8.7h0Z"/>
  <path class="st11" d="M596.02,443.91l-164.02-8.7c.03.21,164.45,8.11,164.02,8.7h0Z"/>
  <path class="st11" d="M267.81,430.81l164.19,4.41c-.03-.21-164.6-3.8-164.19-4.41h0Z"/>
  <path class="st11" d="M596.19,439.62s-164.19-4.41-164.19-4.41c.03.21,164.6,3.8,164.19,4.41h0Z"/>
  <path class="st11" d="M267.75,435.11l164.25.11c-.04-.21-164.65.51-164.25-.11h0Z"/>
  <path class="st11" d="M596.25,435.32l-164.25-.11c.04.21,164.65-.51,164.25.11h0Z"/>
  <path class="st11" d="M267.81,439.4l164.19-4.19c-.04-.21-164.58,4.82-164.19,4.19h0Z"/>
  <path class="st11" d="M596.19,431.02l-164.19,4.19c.04.21,164.58-4.82,164.19-4.19h0Z"/>
  <path class="st11" d="M267.97,443.7l164.03-8.49c-.05-.21-164.39,9.13-164.03,8.49h0Z"/>
  <path class="st11" d="M596.03,426.72s-164.03,8.49-164.03,8.49c.05.21,164.39-9.13,164.03-8.49h0Z"/>
  <path class="st11" d="M268.25,447.99l163.75-12.78c-.06-.21-164.1,13.43-163.75,12.78h0Z"/>
  <path class="st11" d="M595.75,422.43l-163.75,12.78c.06.21,164.1-13.43,163.75-12.78h0Z"/>
  <path class="st11" d="M268.64,452.27l163.36-17.06c-.06-.21-163.69,17.72-163.36,17.06h0Z"/>
  <path class="st11" d="M595.36,418.15l-163.36,17.06c.06.21,163.69-17.72,163.36-17.06h0Z"/>
  <path class="st11" d="M269.14,456.54l162.86-21.33c-.07-.2-163.17,22-162.86,21.33h0Z"/>
  <path class="st11" d="M594.86,413.88l-162.86,21.33c.07.2,163.17-22,162.86-21.33h0Z"/>
  <path class="st11" d="M269.76,460.8s162.24-25.59,162.24-25.59c-.07-.2-162.54,26.26-162.24,25.59h0Z"/>
  <path class="st11" d="M594.24,409.62l-162.24,25.59c.07.2,162.54-26.26,162.24-25.59h0Z"/>
  <path class="st11" d="M270.48,465.04l161.52-29.83c-.08-.2-161.8,30.51-161.52,29.83h0Z"/>
  <path class="st11" d="M593.52,405.39l-161.52,29.83c.08.2,161.8-30.51,161.52-29.83h0Z"/>
  <path class="st11" d="M271.32,469.26l160.68-34.04c-.08-.2-160.94,34.73-160.68,34.04h0Z"/>
  <path class="st11" d="M592.68,401.17l-160.68,34.04c.08.2,160.94-34.73,160.68-34.04h0Z"/>
  <path class="st11" d="M272.27,473.45l159.73-38.24c-.09-.2-159.98,38.93-159.73,38.24h0Z"/>
  <path class="st11" d="M591.73,396.97l-159.73,38.24c.09.2,159.98-38.93,159.73-38.24h0Z"/>
  <path class="st11" d="M273.32,477.62s158.68-42.41,158.68-42.41c-.09-.19-158.9,43.11-158.68,42.41h0Z"/>
  <path class="st11" d="M590.68,392.8l-158.68,42.41c.09.19,158.9-43.11,158.68-42.41h0Z"/>
  <path class="st11" d="M274.49,481.76l157.51-46.55c-.1-.19-157.72,47.25-157.51,46.55h0Z"/>
  <path class="st11" d="M589.51,388.67l-157.51,46.55c.1.19,157.72-47.25,157.51-46.55h0Z"/>
  <path class="st11" d="M275.76,485.87l156.24-50.65c-.1-.19-156.43,51.37-156.24,50.65h0Z"/>
  <path class="st11" d="M588.24,384.56l-156.24,50.65c.1.19,156.43-51.37,156.24-50.65h0Z"/>
  <path class="st11" d="M277.14,489.94l154.86-54.73c-.11-.19-155.03,55.44-154.86,54.73h0Z"/>
  <path class="st11" d="M586.86,380.49s-154.86,54.73-154.86,54.73c.11.19,155.03-55.44,154.86-54.73h0Z"/>
  <path class="st11" d="M278.62,493.97s153.38-58.76,153.38-58.76c-.11-.18-153.53,59.48-153.38,58.76h0Z"/>
  <path class="st11" d="M585.38,376.45l-153.38,58.76c.11.18,153.53-59.48,153.38-58.76h0Z"/>
  <path class="st11" d="M280.21,497.97l151.79-62.76c-.12-.18-151.92,63.48-151.79,62.76h0Z"/>
  <path class="st11" d="M583.79,372.46l-151.79,62.76c.12.18,151.92-63.48,151.79-62.76h0Z"/>
  <path class="st11" d="M281.91,501.92l150.09-66.71c-.12-.18-150.2,67.44-150.09,66.71h0Z"/>
  <path class="st11" d="M582.09,368.5l-150.09,66.71c.12.18,150.2-67.44,150.09-66.71h0Z"/>
  <path class="st11" d="M283.71,505.83l148.29-70.61c-.13-.17-148.39,71.34-148.29,70.61h0Z"/>
  <path class="st11" d="M580.29,364.6l-148.29,70.61c.13.17,148.39-71.34,148.29-70.61h0Z"/>
  <path class="st11" d="M285.61,509.68l146.39-74.47c-.13-.17-146.47,75.2-146.39,74.47h0Z"/>
  <path class="st11" d="M578.39,360.74l-146.39,74.47c.13.17,146.47-75.2,146.39-74.47h0Z"/>
  <path class="st11" d="M287.61,513.49l144.39-78.28c-.13-.17-144.45,79.01-144.39,78.28h0Z"/>
  <path class="st11" d="M576.39,356.93l-144.39,78.28c.13.17,144.45-79.01,144.39-78.28h0Z"/>
  <path class="st11" d="M289.7,517.24l142.3-82.03c-.14-.16-142.33,82.77-142.3,82.03h0Z"/>
  <path class="st11" d="M574.3,353.18l-142.3,82.03c.14.16,142.33-82.77,142.3-82.03h0Z"/>
  <path class="st11" d="M291.9,520.94l140.1-85.73c-.14-.16-140.12,86.46-140.1,85.73h0Z"/>
  <path class="st11" d="M572.1,349.48l-140.1,85.73c.14.16,140.12-86.46,140.1-85.73h0Z"/>
  <path class="st11" d="M294.19,524.58l137.81-89.37c-.15-.16-137.81,90.1-137.81,89.37h0Z"/>
  <path class="st11" d="M569.81,345.85l-137.81,89.37c.15.16,137.81-90.1,137.81-89.37h0Z"/>
  <path class="st11" d="M296.58,528.15s135.42-92.94,135.42-92.94c-.15-.15-135.4,93.68-135.42,92.94h0Z"/>
  <path class="st11" d="M567.42,342.27l-135.42,92.94c.15.15,135.4-93.68,135.42-92.94h0Z"/>
  <path class="st11" d="M299.06,531.67l132.94-96.46c-.16-.15-132.9,97.19-132.94,96.46h0Z"/>
  <path class="st11" d="M564.94,338.76l-132.94,96.46c.16.15,132.9-97.19,132.94-96.46h0Z"/>
  <path class="st11" d="M301.63,535.11s130.37-99.9,130.37-99.9c-.16-.14-130.31,100.64-130.37,99.9h0Z"/>
  <path class="st11" d="M562.37,335.31l-130.37,99.9c.16.14,130.31-100.64,130.37-99.9h0Z"/>
  <path class="st11" d="M304.29,538.49l127.71-103.28c-.16-.14-127.63,104.01-127.71,103.28h0Z"/>
  <path class="st11" d="M559.71,331.93l-127.71,103.28c.16.14,127.63-104.01,127.71-103.28h0Z"/>
  <path class="st11" d="M307.04,541.8s124.96-106.59,124.96-106.59c-.17-.13-124.87,107.32-124.96,106.59h0Z"/>
  <path class="st11" d="M556.96,328.62s-124.96,106.59-124.96,106.59c.17.13,124.87-107.32,124.96-106.59h0Z"/>
  <path class="st11" d="M309.87,545.04l122.13-109.82c-.17-.13-122.01,110.55-122.13,109.82h0Z"/>
  <path class="st11" d="M554.13,325.39l-122.13,109.82c.17.13,122.01-110.55,122.13-109.82h0Z"/>
  <path class="st11" d="M312.79,548.19l119.21-112.98c-.17-.13-119.08,113.71-119.21,112.98h0Z"/>
  <path class="st11" d="M551.21,322.23l-119.21,112.98c.17.13,119.08-113.71,119.21-112.98h0Z"/>
  <path class="st11" d="M315.78,551.28l116.22-116.06c-.18-.12-116.06,116.78-116.22,116.06h0Z"/>
  <path class="st11" d="M548.22,319.15s-116.22,116.06-116.22,116.06c.18.12,116.06-116.78,116.22-116.06h0Z"/>
  <path class="st11" d="M318.86,554.28l113.14-119.07c-.18-.12-112.96,119.78-113.14,119.07h0Z"/>
  <path class="st11" d="M545.14,316.14l-113.14,119.07c.18.12,112.96-119.78,113.14-119.07h0Z"/>
  <path class="st11" d="M322.02,557.2l109.98-121.99c-.18-.11-109.79,122.7-109.98,121.99h0Z"/>
  <path class="st11" d="M541.98,313.22s-109.98,121.99-109.98,121.99c.18.11,109.79-122.7,109.98-121.99h0Z"/>
  <path class="st11" d="M325.25,560.04l106.75-124.83c-.19-.11-106.54,125.53-106.75,124.83h0Z"/>
  <path class="st11" d="M538.75,310.39l-106.75,124.83c.19.11,106.54-125.53,106.75-124.83h0Z"/>
  <path class="st11" d="M328.55,562.79l103.45-127.58c-.19-.1-103.22,128.28-103.45,127.58h0Z"/>
  <path class="st11" d="M535.45,307.64l-103.45,127.58c.19.1,103.22-128.28,103.45-127.58h0Z"/>
  <path class="st11" d="M331.93,565.45l100.07-130.24c-.19-.1-99.82,130.93-100.07,130.24h0Z"/>
  <path class="st11" d="M532.07,304.97l-100.07,130.24c.19.1,99.82-130.93,100.07-130.24h0Z"/>
  <path class="st11" d="M335.37,568.03l96.63-132.82c-.19-.09-96.36,133.5-96.63,132.82h0Z"/>
  <path class="st11" d="M528.63,302.4s-96.63,132.82-96.63,132.82c.19.09,96.36-133.5,96.63-132.82h0Z"/>
  <path class="st11" d="M338.88,570.51l93.12-135.3c-.2-.09-92.83,135.98-93.12,135.3h0Z"/>
  <path class="st11" d="M525.12,299.91l-93.12,135.3c.2.09,92.83-135.98,93.12-135.3h0Z"/>
  <path class="st11" d="M342.45,572.9l89.55-137.69c-.2-.08-89.24,138.36-89.55,137.69h0Z"/>
  <path class="st11" d="M521.55,297.52l-89.55,137.69c.2.08,89.24-138.36,89.55-137.69h0Z"/>
  <path class="st11" d="M346.09,575.2l85.91-139.99c-.2-.08-85.59,140.65-85.91,139.99h0Z"/>
  <path class="st11" d="M517.91,295.22s-85.91,139.99-85.91,139.99c.2.08,85.59-140.65,85.91-139.99h0Z"/>
  <path class="st11" d="M349.78,577.4l82.22-142.19c-.2-.07-81.88,142.84-82.22,142.19h0Z"/>
  <path class="st11" d="M514.22,293.02l-82.22,142.19c.2.07,81.88-142.84,82.22-142.19h0Z"/>
  <path class="st11" d="M353.53,579.5l78.47-144.29c-.2-.07-78.11,144.94-78.47,144.29h0Z"/>
  <path class="st11" d="M510.47,290.92l-78.47,144.29c.2.07,78.11-144.94,78.47-144.29h0Z"/>
  <path class="st11" d="M357.34,581.51l74.66-146.3c-.21-.06-74.29,146.93-74.66,146.3h0Z"/>
  <path class="st11" d="M506.66,288.92l-74.66,146.3c.21.06,74.29-146.93,74.66-146.3h0Z"/>
  <path class="st11" d="M361.19,583.41l70.81-148.2c-.21-.06-70.42,148.83-70.81,148.2h0Z"/>
  <path class="st11" d="M502.81,287.01l-70.81,148.2c.21.06,70.42-148.83,70.81-148.2h0Z"/>
  <path class="st11" d="M365.1,585.22l66.9-150c-.21-.05-66.5,150.62-66.9,150h0Z"/>
  <path class="st11" d="M498.9,285.21l-66.9,150c.21.05,66.5-150.62,66.9-150h0Z"/>
  <path class="st11" d="M369.05,586.92l62.95-151.7c-.21-.04-62.53,152.31-62.95,151.7h0Z"/>
  <path class="st11" d="M494.95,283.51l-62.95,151.7c.21.04,62.53-152.31,62.95-151.7h0Z"/>
  <path class="st11" d="M373.04,588.51l58.96-153.3c-.21-.04-58.53,153.89-58.96,153.3h0Z"/>
  <path class="st11" d="M490.96,281.91l-58.96,153.3c.21.04,58.53-153.89,58.96-153.3h0Z"/>
  <path class="st11" d="M377.07,590l54.93-154.79c-.21-.03-54.48,155.37-54.93,154.79h0Z"/>
  <path class="st11" d="M486.93,280.42l-54.93,154.79c.21.03,54.48-155.37,54.93-154.79h0Z"/>
  <path class="st11" d="M381.14,591.39l50.86-156.18c-.21-.03-50.39,156.75-50.86,156.18h0Z"/>
  <path class="st11" d="M482.86,279.04l-50.86,156.18c.21.03,50.39-156.75,50.86-156.18h0Z"/>
  <path class="st11" d="M385.25,592.67l46.75-157.45c-.21-.02-46.27,158.01-46.75,157.45h0Z"/>
  <path class="st11" d="M478.75,277.76l-46.75,157.45c.21.02,46.27-158.01,46.75-157.45h0Z"/>
  <path class="st11" d="M389.39,593.84l42.61-158.62c-.21-.02-42.12,159.17-42.61,158.62h0Z"/>
  <path class="st11" d="M474.61,276.59l-42.61,158.62c.21.02,42.12-159.17,42.61-158.62h0Z"/>
  <path class="st11" d="M393.55,594.9l38.45-159.68c-.21-.01-37.94,160.22-38.45,159.68h0Z"/>
  <path class="st11" d="M470.45,275.53s-38.45,159.68-38.45,159.68c.21.01,37.94-160.22,38.45-159.68h0Z"/>
  <path class="st11" d="M397.75,595.85l34.25-160.64c-.21,0-33.73,161.15-34.25,160.64h0Z"/>
  <path class="st11" d="M466.25,274.58l-34.25,160.64c.21,0,33.73-161.15,34.25-160.64h0Z"/>
  <path class="st11" d="M401.96,596.69l30.04-161.48c-.21,0-29.5,161.98-30.04,161.48h0Z"/>
  <path class="st11" d="M462.04,273.73l-30.04,161.48c.21,0,29.5-161.98,30.04-161.48h0Z"/>
  <path class="st11" d="M406.2,597.42l25.8-162.21c-.21,0-25.25,162.7-25.8,162.21h0Z"/>
  <path class="st11" d="M457.8,273s-25.8,162.21-25.8,162.21c.21,0,25.25-162.7,25.8-162.21h0Z"/>
  <path class="st11" d="M410.46,598.04l21.54-162.83c-.21.01-20.98,163.3-21.54,162.83h0Z"/>
  <path class="st11" d="M453.54,272.38l-21.54,162.83c.21-.01,20.98-163.3,21.54-162.83h0Z"/>
  <path class="st11" d="M414.73,598.55l17.27-163.34c-.21.02-16.7,163.8-17.27,163.34h0Z"/>
  <path class="st11" d="M449.27,271.88l-17.27,163.34c.21-.02,16.7-163.8,17.27-163.34h0Z"/>
  <path class="st11" d="M419.01,598.94l12.99-163.73c-.21.02-12.41,164.18-12.99,163.73h0Z"/>
  <path class="st11" d="M444.99,271.48l-12.99,163.73c.21-.02,12.41-164.18,12.99-163.73h0Z"/>
  <path class="st11" d="M423.3,599.23l8.7-164.02c-.21.03-8.11,164.45-8.7,164.02h0Z"/>
  <path class="st11" d="M440.7,271.2l-8.7,164.02c.21-.03,8.11-164.45,8.7-164.02h0Z"/>
  <path class="st11" d="M427.59,599.4l4.41-164.19c-.21.03-3.8,164.6-4.41,164.19h0Z"/>
  <path class="st11" d="M436.41,271.02l-4.41,164.19c.21-.03,3.8-164.6,4.41-164.19h0Z"/>
  <polyline class="st5" points="216.41 435.21 216.41 314.19 279.34 314.19 279.34 240.5 432 240.5"/>
  <polyline class="st5" points="237.29 435.21 237.29 282.2 311.58 282.2 311.58 218.95 432 218.95"/>
  <path class="st6" d="M197.22,434.19c0-29.6,40.07-31.69,40.07-93.97,0-43.54,1.56-50.46,42.05-62.31,18.54-5.43,32.27-2.9,52.86-37.4,31.88-53.43,64.6-11.34,99.81-11.34"/>
  <circle class="st11" cx="216.41" cy="400.72" r="1.69"/>
  <circle class="st11" cx="237.29" cy="340.21" r="1.69"/>
  <circle class="st11" cx="216.41" cy="314.19" r="1.69"/>
  <circle class="st11" cx="237.29" cy="314.19" r="1.69"/>
  <circle class="st11" cx="237.29" cy="282.2" r="1.69"/>
  <circle class="st11" cx="251.31" cy="289.12" r="1.69"/>
  <circle class="st11" cx="279.65" cy="282.2" r="1.69"/>
  <circle class="st11" cx="279.34" cy="314.19" r="1.69"/>
  <circle class="st11" cx="311.58" cy="282.2" r="1.69"/>
  <circle class="st11" cx="311.58" cy="266.26" r="1.69"/>
  <circle class="st11" cx="322.52" cy="254.52" r="1.69"/>
  <circle class="st11" cx="332.19" cy="240.5" r="1.69"/>
  <circle class="st11" cx="351.18" cy="218.95" r="1.69"/>
  <circle class="st11" cx="394.23" cy="218.95" r="1.69"/>
  <circle class="st11" cx="311.58" cy="240.5" r="1.69"/>
  <circle class="st11" cx="311.58" cy="218.95" r="1.69"/>
  <circle class="st11" cx="279.34" cy="240.5" r="1.69"/>
  <path class="st6" d="M432,320.06c-21.12,0-38.24-8.48-38.24-18.93s17.12-18.93,38.24-18.93"/>
  <path class="st6" d="M432,346.33c-38.24,0-69.23-16.23-69.23-36.26s31-36.26,69.23-36.26"/>
  <path class="st6" d="M432.01,374.87c-4.57.48-9.27.72-14.07.72-46,0-83.29-22.78-83.29-50.89s37.29-50.89,83.29-50.89c2.39,0,4.75.06,7.09.18"/>
  <path class="st6" d="M432,405.67c-8.25,1.62-16.96,2.48-25.96,2.48-52.57,0-95.19-29.52-95.19-65.93,0-31.5,31.89-57.84,74.53-64.38"/>
  <path class="st6" d="M371.95,435.21c-45.89-7.76-79.98-36.68-79.98-71.18,0-19.18,10.54-36.64,27.79-49.7"/>
  <path class="st6" d="M300.47,435.21c-15.55-15.22-24.85-34.56-24.85-55.61,0-3.59.27-7.12.8-10.6"/>
  <path class="st6" d="M432,406.31c-41.92,0-78.84,11.53-100.41,29.01"/>
  <path class="st6" d="M432,379.42c-61.47,0-114.21,23.05-136.79,55.9"/>
  <path class="st6" d="M432,353.2c-75.42,0-139.3,34.5-161,82.12"/>
  <path class="st6" d="M432,308.1c-90.51,0-163.88,47.42-163.88,105.92,0,1.03.02,2.05.07,3.07"/>
  <path class="st6" d="M432,291.74c-72.68,0-134.31,32.94-155.77,78.55"/>
  <path class="st6" d="M432,277.85c-43.34,0-82.62,13.33-111.2,34.91"/>
  <path class="st6" d="M432,328.45c-88.24,0-160.67,46.92-168.26,106.75"/>
  <circle class="st3" cx="400.37" cy="669.25" r="5.86"/>
  <circle class="st11" cx="400.37" cy="669.25" r="2.96"/>
  <polygon class="st11" points="398.22 627 388 679.79 396.82 626.75 398.22 627 398.22 627"/>
  <polygon class="st11" points="406.62 628.28 402.11 656.38 405.21 628.09 406.62 628.28 406.62 628.28"/>
  <circle class="st3" cx="420.96" cy="671.12" r="5.86"/>
  <circle class="st11" cx="420.96" cy="671.12" r="2.96"/>
  <polygon class="st11" points="415.14 629.21 409.56 682.69 413.72 629.09 415.14 629.21 415.14 629.21"/>
  <polygon class="st11" points="423.62 629.76 421.57 658.14 422.2 629.69 423.62 629.76 423.62 629.76"/>
  <circle class="st3" cx="380.12" cy="665.41" r="5.86"/>
  <circle class="st11" cx="380.12" cy="665.41" r="2.96"/>
  <polygon class="st11" points="381.66 623.13 366.88 674.83 380.29 622.76 381.66 623.13 381.66 623.13"/>
  <polygon class="st11" points="389.92 625.14 382.97 652.74 388.53 624.83 389.92 625.14 389.92 625.14"/>
  <circle class="st3" cx="340.77" cy="653.07" r="5.86"/>
  <circle class="st11" cx="340.77" cy="653.07" r="2.96"/>
  <polygon class="st11" points="349.64 611.71 326.11 660.05 348.35 611.1 349.64 611.71 349.64 611.71"/>
  <polygon class="st11" points="357.42 615.12 345.79 641.09 356.11 614.57 357.42 615.12 357.42 615.12"/>
  <circle class="st3" cx="360.18" cy="660.2" r="5.86"/>
  <circle class="st11" cx="360.18" cy="660.2" r="2.96"/>
  <polygon class="st11" points="365.41 618.22 346.18 668.43 364.07 617.73 365.41 618.22 365.41 618.22"/>
  <polygon class="st11" points="373.46 620.94 364.13 647.82 372.1 620.51 373.46 620.94 373.46 620.94"/>
  <circle class="st3" cx="322.21" cy="644.12" r="5.86"/>
  <circle class="st11" cx="322.21" cy="644.12" r="2.96"/>
  <polygon class="st11" points="334.64 603.68 306.99 649.79 333.41 602.97 334.64 603.68 334.64 603.68"/>
  <polygon class="st11" points="342.1 607.76 328.25 632.61 340.84 607.1 342.1 607.76 342.1 607.76"/>
  <circle class="st3" cx="287.04" cy="621.98" r="5.86"/>
  <circle class="st11" cx="287.04" cy="621.98" r="2.96"/>
  <polygon class="st11" points="306.31 584.32 271.06 624.92 305.22 583.4 306.31 584.32 306.31 584.32"/>
  <polygon class="st11" points="312.94 589.63 294.98 611.7 311.81 588.76 312.94 589.63 312.94 589.63"/>
  <circle class="st3" cx="303.94" cy="633.89" r="5.86"/>
  <circle class="st11" cx="303.94" cy="633.89" r="2.96"/>
  <polygon class="st11" points="319.85 594.69 288.28 638.21 318.69 593.87 319.85 594.69 319.85 594.69"/>
  <polygon class="st11" points="326.92 599.4 310.96 622.96 325.72 598.63 326.92 599.4 326.92 599.4"/>
  <circle class="st3" cx="271.42" cy="608.53" r="5.86"/>
  <circle class="st11" cx="271.42" cy="608.53" r="2.96"/>
  <polygon class="st11" points="293.9 572.69 255.25 610.07 292.9 571.68 293.9 572.69 293.9 572.69"/>
  <polygon class="st11" points="300.05 578.56 280.23 598.98 299 577.59 300.05 578.56 300.05 578.56"/>
  <circle class="st3" cx="243.02" cy="578.13" r="5.86"/>
  <circle class="st11" cx="243.02" cy="578.13" r="2.96"/>
  <polygon class="st11" points="271.38 546.74 226.83 576.84 270.57 545.57 271.38 546.74 271.38 546.74"/>
  <polygon class="st11" points="276.42 553.58 253.36 570.25 275.55 552.45 276.42 553.58 276.42 553.58"/>
  <circle class="st3" cx="256.26" cy="594.01" r="5.86"/>
  <circle class="st11" cx="256.26" cy="594.01" r="2.96"/>
  <polygon class="st11" points="281.78 560.26 240.02 594.13 280.87 559.17 281.78 560.26 281.78 560.26"/>
  <polygon class="st11" points="287.39 566.64 265.87 585.26 286.43 565.59 287.39 566.64 287.39 566.64"/>
  <circle class="st3" cx="231.42" cy="561.09" r="5.86"/>
  <circle class="st11" cx="231.42" cy="561.09" r="2.96"/>
  <polygon class="st11" points="262.41 532.29 215.41 558.39 261.7 531.06 262.41 532.29 262.41 532.29"/>
  <polygon class="st11" points="266.83 539.55 242.4 554.15 266.07 538.35 266.83 539.55 266.83 539.55"/>
  <circle class="st3" cx="212.08" cy="524.55" r="5.86"/>
  <circle class="st11" cx="212.08" cy="524.55" r="2.96"/>
  <polygon class="st11" points="247.6 501.57 196.78 519.11 247.12 500.23 247.6 501.57 247.6 501.57"/>
  <polygon class="st11" points="250.69 509.48 224.1 519.62 250.15 508.16 250.69 509.48 250.69 509.48"/>
  <circle class="st3" cx="220.76" cy="543.31" r="5.86"/>
  <circle class="st11" cx="220.76" cy="543.31" r="2.96"/>
  <polygon class="st11" points="254.15 517.32 205.05 539.23 253.55 516.03 254.15 517.32 254.15 517.32"/>
  <polygon class="st11" points="257.91 524.94 232.31 537.35 257.26 523.67 257.91 524.94 257.91 524.94"/>
  <circle class="st3" cx="205.29" cy="505.09" r="5.86"/>
  <circle class="st11" cx="205.29" cy="505.09" r="2.96"/>
  <polygon class="st11" points="242.67 485.29 190.52 498.34 242.31 483.91 242.67 485.29 242.67 485.29"/>
  <polygon class="st11" points="245.06 493.45 217.69 501.23 244.64 492.09 245.06 493.45 245.06 493.45"/>
  <circle class="st3" cx="196.38" cy="464.9" r="5.86"/>
  <circle class="st11" cx="196.38" cy="464.9" r="2.96"/>
  <polygon class="st11" points="236.64 451.89 183.01 455.68 236.52 450.47 236.64 451.89 236.64 451.89"/>
  <polygon class="st11" points="237.57 460.34 209.27 463.25 237.39 458.93 237.57 460.34 237.57 460.34"/>
  <circle class="st3" cx="199.91" cy="485.27" r="5.86"/>
  <circle class="st11" cx="199.91" cy="485.27" r="2.96"/>
  <polygon class="st11" points="238.88 468.81 185.78 477.26 238.64 467.4 238.88 468.81 238.88 468.81"/>
  <polygon class="st11" points="240.55 477.14 212.6 482.5 240.25 475.75 240.55 477.14 240.55 477.14"/>
  <circle class="st3" cx="194.85" cy="444.34" r="5.86"/>
  <circle class="st11" cx="194.85" cy="444.34" r="2.96"/>
  <polygon class="st11" points="236.09 434.9 182.33 434 236.09 433.47 236.09 434.9 236.09 434.9"/>
  <polygon class="st11" points="236.29 443.39 207.83 443.82 236.23 441.97 236.29 443.39 236.29 443.39"/>
  <g>
    <line class="st5" x1="276.61" y1="473.68" x2="277.59" y2="477.95"/>
    <line class="st5" x1="274.64" y1="465.13" x2="275.62" y2="469.4"/>
    <line class="st5" x1="344.81" y1="567.7" x2="340.54" y2="563.42"/>
    <line class="st5" x1="280.54" y1="490.77" x2="281.53" y2="495.04"/>
    <line class="st5" x1="353.36" y1="576.24" x2="349.09" y2="571.97"/>
    <line class="st5" x1="336.27" y1="559.15" x2="331.99" y2="554.87"/>
    <line class="st5" x1="278.58" y1="482.22" x2="279.56" y2="486.5"/>
    <line class="st5" x1="268.74" y1="439.49" x2="269.72" y2="443.76"/>
    <line class="st5" x1="272.67" y1="456.58" x2="273.66" y2="460.85"/>
    <line class="st5" x1="302.09" y1="524.96" x2="297.81" y2="520.69"/>
    <line class="st5" x1="282.51" y1="499.32" x2="283.5" y2="503.59"/>
    <line class="st5" x1="319.18" y1="542.05" x2="314.9" y2="537.78"/>
    <line class="st5" x1="270.7" y1="448.03" x2="271.69" y2="452.31"/>
    <line class="st5" x1="327.72" y1="550.6" x2="323.45" y2="546.33"/>
    <line class="st5" x1="310.63" y1="533.51" x2="306.36" y2="529.23"/>
    <line class="st5" x1="344.81" y1="567.7" x2="349.09" y2="571.97"/>
    <line class="st5" x1="336.27" y1="559.15" x2="340.54" y2="563.42"/>
    <line class="st5" x1="431.89" y1="599.87" x2="422.35" y2="597.61"/>
    <line class="st5" x1="327.72" y1="550.6" x2="331.99" y2="554.87"/>
    <line class="st5" x1="404.27" y1="593.34" x2="422.35" y2="597.61"/>
    <line class="st5" x1="353.36" y1="576.24" x2="357.63" y2="580.52"/>
    <line class="st5" x1="368.11" y1="584.79" x2="386.19" y2="589.06"/>
    <line class="st5" x1="404.27" y1="593.34" x2="386.19" y2="589.06"/>
    <line class="st5" x1="293.54" y1="516.41" x2="297.81" y2="520.69"/>
    <polyline class="st5" points="368.11 584.79 359.98 582.87 357.63 580.52"/>
    <line class="st5" x1="302.09" y1="524.96" x2="306.36" y2="529.23"/>
    <line class="st5" x1="310.63" y1="533.51" x2="314.9" y2="537.78"/>
    <line class="st5" x1="284.99" y1="507.86" x2="289.27" y2="512.14"/>
    <line class="st5" x1="319.18" y1="542.05" x2="323.45" y2="546.33"/>
    <line class="st5" x1="282.51" y1="499.32" x2="281.53" y2="495.04"/>
    <line class="st5" x1="274.64" y1="465.13" x2="273.66" y2="460.85"/>
    <line class="st5" x1="272.67" y1="456.58" x2="271.69" y2="452.31"/>
    <line class="st5" x1="280.54" y1="490.77" x2="279.56" y2="486.5"/>
    <polyline class="st5" points="284.99 507.86 284.33 507.2 283.5 503.59"/>
    <line class="st5" x1="270.7" y1="448.03" x2="269.72" y2="443.76"/>
    <line class="st5" x1="293.54" y1="516.41" x2="289.27" y2="512.14"/>
    <line class="st5" x1="276.61" y1="473.68" x2="275.62" y2="469.4"/>
    <line class="st5" x1="278.58" y1="482.22" x2="277.59" y2="477.95"/>
    <line class="st5" x1="267.75" y1="435.21" x2="268.74" y2="439.49"/>
    <line class="st5" x1="432" y1="435.21" x2="267.75" y2="435.21"/>
    <path class="st5" d="M268.74,439.49"/>
    <line class="st5" x1="268.74" y1="439.49" x2="432" y2="439.49"/>
    <path class="st5" d="M269.72,443.76"/>
    <line class="st5" x1="269.72" y1="443.76" x2="432" y2="443.76"/>
    <line class="st5" x1="432" y1="448.03" x2="270.7" y2="448.03"/>
    <path class="st5" d="M270.7,448.03"/>
    <line class="st5" x1="271.69" y1="452.31" x2="432" y2="452.31"/>
    <path class="st5" d="M271.69,452.31"/>
    <line class="st5" x1="432" y1="456.58" x2="272.67" y2="456.58"/>
    <path class="st5" d="M272.67,456.58"/>
    <path class="st5" d="M273.66,460.85"/>
    <line class="st5" x1="273.66" y1="460.85" x2="432" y2="460.85"/>
    <line class="st5" x1="432" y1="465.13" x2="274.64" y2="465.13"/>
    <path class="st5" d="M274.64,465.13"/>
    <path class="st5" d="M275.62,469.4"/>
    <line class="st5" x1="275.62" y1="469.4" x2="432" y2="469.4"/>
    <line class="st5" x1="432" y1="473.68" x2="276.61" y2="473.68"/>
    <path class="st5" d="M276.61,473.68"/>
    <path class="st5" d="M277.59,477.95"/>
    <line class="st5" x1="277.59" y1="477.95" x2="432" y2="477.95"/>
    <path class="st5" d="M278.58,482.22"/>
    <line class="st5" x1="432" y1="482.22" x2="278.58" y2="482.22"/>
    <line class="st5" x1="279.56" y1="486.5" x2="432" y2="486.5"/>
    <path class="st5" d="M279.56,486.5"/>
    <path class="st5" d="M280.54,490.77"/>
    <line class="st5" x1="432" y1="490.77" x2="280.54" y2="490.77"/>
    <path class="st5" d="M281.53,495.04"/>
    <line class="st5" x1="281.53" y1="495.04" x2="432" y2="495.04"/>
    <path class="st5" d="M282.51,499.32"/>
    <line class="st5" x1="432" y1="499.32" x2="282.51" y2="499.32"/>
    <line class="st5" x1="283.5" y1="503.59" x2="432" y2="503.59"/>
    <path class="st5" d="M283.5,503.59"/>
    <path class="st5" d="M284.99,507.86"/>
    <line class="st5" x1="432" y1="507.86" x2="284.99" y2="507.86"/>
    <path class="st5" d="M289.27,512.14"/>
    <line class="st5" x1="289.27" y1="512.14" x2="432" y2="512.14"/>
    <line class="st5" x1="432" y1="516.41" x2="293.54" y2="516.41"/>
    <path class="st5" d="M293.54,516.41"/>
    <path class="st5" d="M297.81,520.69"/>
    <line class="st5" x1="297.81" y1="520.69" x2="432" y2="520.69"/>
    <path class="st5" d="M302.09,524.96"/>
    <line class="st5" x1="432" y1="524.96" x2="302.09" y2="524.96"/>
    <line class="st5" x1="306.36" y1="529.23" x2="432" y2="529.23"/>
    <path class="st5" d="M306.36,529.23"/>
    <line class="st5" x1="432" y1="533.51" x2="310.63" y2="533.51"/>
    <path class="st5" d="M310.63,533.51"/>
    <line class="st5" x1="314.9" y1="537.78" x2="432" y2="537.78"/>
    <path class="st5" d="M314.9,537.78"/>
    <line class="st5" x1="432" y1="542.05" x2="319.18" y2="542.05"/>
    <path class="st5" d="M319.18,542.05"/>
    <path class="st5" d="M323.45,546.33"/>
    <line class="st5" x1="323.45" y1="546.33" x2="432" y2="546.33"/>
    <line class="st5" x1="432" y1="550.6" x2="327.72" y2="550.6"/>
    <path class="st5" d="M327.72,550.6"/>
    <path class="st5" d="M331.99,554.87"/>
    <line class="st5" x1="331.99" y1="554.87" x2="432" y2="554.87"/>
    <path class="st5" d="M336.27,559.15"/>
    <line class="st5" x1="432" y1="559.15" x2="336.27" y2="559.15"/>
    <line class="st5" x1="340.54" y1="563.42" x2="432" y2="563.42"/>
    <path class="st5" d="M340.54,563.42"/>
    <line class="st5" x1="432" y1="567.7" x2="344.81" y2="567.7"/>
    <path class="st5" d="M344.81,567.7"/>
    <path class="st5" d="M349.09,571.97"/>
    <line class="st5" x1="349.09" y1="571.97" x2="432" y2="571.97"/>
    <line class="st5" x1="432" y1="576.24" x2="353.36" y2="576.24"/>
    <path class="st5" d="M353.36,576.24"/>
    <path class="st5" d="M357.63,580.52"/>
    <line class="st5" x1="357.63" y1="580.52" x2="432" y2="580.52"/>
    <line class="st5" x1="432" y1="584.79" x2="368.11" y2="584.79"/>
    <path class="st5" d="M368.11,584.79"/>
    <line class="st5" x1="386.19" y1="589.06" x2="432" y2="589.06"/>
    <path class="st5" d="M386.19,589.06"/>
    <path class="st5" d="M404.27,593.34"/>
    <line class="st5" x1="432" y1="593.34" x2="404.27" y2="593.34"/>
    <path class="st5" d="M422.35,597.61"/>
    <line class="st5" x1="422.35" y1="597.61" x2="432" y2="597.61"/>
  </g>
  <line class="st5" x1="293.4" y1="572.18" x2="432.06" y2="435.1"/>
  <path class="st6" d="M654.03,435.21c0,122.63-99.41,222.03-222.03,222.03"/>
  <circle class="st11" cx="432" cy="657.25" r="2.16"/>
  <circle class="st11" cx="462.58" cy="655.13" r="2.16"/>
  <circle class="st11" cx="507.76" cy="643.92" r="2.16"/>
  <circle class="st11" cx="549.94" cy="623.33" r="2.16"/>
  <circle class="st11" cx="586.96" cy="594.23" r="2.16"/>
  <circle class="st11" cx="612.4" cy="564.65" r="2.16"/>
  <circle class="st11" cx="635" cy="525.16" r="2.16"/>
  <circle class="st11" cx="648.59" cy="484.07" r="2.16"/>
  <circle class="st3" cx="432" cy="435.21" r="165.24"/>
  <path class="st3" d="M432,459.63c20.43,0,79.73-7.71,102.24-23.48"/>
  <path class="st3" d="M432,485.27c49.06,0,117.18-18.06,142.04-49.95"/>
  <path class="st3" d="M432,508.82c72.98,0,138.42-24.75,161.86-73.61"/>
  <path class="st3" d="M432,531.67c55.83,0,141.25-16.39,164.48-80.49"/>
  <path class="st3" d="M432,551.94c75.98,0,133.7-30.4,155.54-60.81"/>
  <path class="st3" d="M432,569.35c52.05,0,111.02-18.25,143.21-51.65"/>
  <path class="st3" d="M432,582.98c52.37,0,84.15-11.63,118.86-32.98"/>
  <path class="st3" d="M431.89,593.47c27.94,0,65.82-5.7,81.91-14.65"/>
  <path class="st3" d="M458.57,435.32c3.39,45.19,9.65,137.8-5.12,163.75"/>
  <path class="st3" d="M492.44,435.32c16.26,52.75,17.33,121.16-4.95,155.58"/>
  <path class="st3" d="M527.47,435.32c18.98,43.83,17.3,109.69-5.79,138.7"/>
  <path class="st3" d="M560.72,435.32c9.75,24.97,13.32,78.65-2.33,106.34"/>
  <path class="st3" d="M585.57,435.32c3.84,8.07,5.52,51.9-1.44,64.49"/>
  <line class="st3" x1="612.69" y1="805.9" x2="432" y2="435.21"/>
  <line class="st3" x1="432" y1="435.21" x2="617.52" y2="620.73"/>
  <path class="st2" d="M432,232.14c112.16,0,203.08,90.92,203.08,203.08"/>
  <path class="st2" d="M432,224.44c116.41,0,210.77,94.37,210.77,210.77"/>
  <path class="st2" d="M432,216.12c121,0,219.09,98.09,219.09,219.09"/>
  <path class="st2" d="M432,207.05c126.01,0,228.16,102.15,228.16,228.16"/>
  <path class="st2" d="M432,197.49c131.29,0,237.72,106.43,237.72,237.72"/>
  <polyline class="st5" points="432 187.73 454.3 228.43 486.81 193.82 499.74 238.53 539.84 212.4 542.66 259.1 585.9 241.39 579.36 288.47 626.71 282.44 608.34 324.91 655.07 327.92 628.61 367.26 673.5 380.89 638.77 412.78 679.48 436.16"/>
  <polyline class="st5" points="639.96 435.21 678 408.03 635.08 390.18 665.75 353.72 619.78 345.73 641.45 303.33 594.67 305.63 607.06 260.29 561.54 272.51 562.89 225.14 521.72 247.54 512.72 201.2 477.94 232.34 458.28 189.11 432 227.25"/>
  <circle class="st11" cx="561.54" cy="272.51" r="4.32"/>
  <circle class="st11" cx="541.32" cy="236.87" r="4.32"/>
  <circle class="st11" cx="458.28" cy="189.11" r="4.32"/>
  <circle class="st11" cx="512.72" cy="201.2" r="4.32"/>
  <circle class="st11" cx="607.06" cy="260.29" r="4.32"/>
  <circle class="st11" cx="641.45" cy="303.33" r="4.32"/>
  <circle class="st11" cx="619.78" cy="345.73" r="4.32"/>
  <circle class="st11" cx="656.84" cy="423.15" r="4.32"/>
  <circle class="st11" cx="562.15" cy="251.12" r="3.35"/>
  <circle class="st11" cx="477.94" cy="232.34" r="3.35"/>
  <circle class="st11" cx="521.72" cy="247.54" r="3.35"/>
  <circle class="st11" cx="562.89" cy="225.14" r="3.35"/>
  <circle class="st11" cx="640.65" cy="349.36" r="3.35"/>
  <circle class="st11" cx="649.12" cy="373.49" r="3.35"/>
  <circle class="st11" cx="678" cy="408.03" r="3.35"/>
  <circle class="st11" cx="635.08" cy="390.18" r="2.16"/>
  <circle class="st11" cx="665.75" cy="353.72" r="2.16"/>
  <circle class="st11" cx="629.72" cy="326.29" r="2.16"/>
  <circle class="st11" cx="617.16" cy="304.53" r="2.16"/>
  <circle class="st11" cx="594.67" cy="305.63" r="2.16"/>
  <circle class="st11" cx="600.08" cy="285.83" r="2.16"/>
  <circle class="st11" cx="582.35" cy="266.92" r="2.16"/>
  <circle class="st11" cx="517.83" cy="226.83" r="2.16"/>
  <circle class="st11" cx="493.84" cy="218.1" r="2.16"/>
  <path class="st4" d="M460.46,435.21c0-15.72-12.74-28.46-28.46-28.46"/>
  <path class="st4" d="M493.73,435.21c0-34.09-27.64-61.73-61.73-61.73"/>
  <path class="st4" d="M524.61,435.21c0-51.15-41.46-92.61-92.61-92.61"/>
  <path class="st4" d="M557.61,435.21c0-69.37-56.24-125.61-125.61-125.61"/>
  <path class="st4" d="M589.63,435.21c0-87.06-70.57-157.63-157.63-157.63"/>
  <path class="st3" d="M460.46,435.21c6.29-14.23,1.89-72.57,11.15-152.61"/>
  <path class="st3" d="M493.73,435.21c-1.05-6.09,4.65-37.77,9.09-70.06,4.22-30.68,7.07-62.08,10.59-66.15"/>
  <path class="st3" d="M524.61,435.21c5.79-40.9,11.25-69.74,26.25-104.56"/>
  <path class="st3" d="M557.61,434.19c0-24.38,12.24-52.37,19.47-60.71"/>
  <path class="st3" d="M432,406.76c16.92-2.41,100.19-8.15,151.97-13.57"/>
  <path class="st3" d="M567.35,354.36c-12.38.07-114.86,19.12-135.35,19.12"/>
  <path class="st3" d="M432,342.6c20.87,0,94.94-18.7,103.54-26.25"/>
  <path class="st3" d="M432,309.6c18.28-.66,54.88-13.98,61.73-19.48"/>
  <line class="st4" x1="432" y1="23.12" x2="432" y2="847.28"/>
  <line class="st4" x1="19.92" y1="435.2" x2="844.08" y2="435.2"/>
  <line class="st3" x1="61.54" y1="254.52" x2="802.69" y2="254.52"/>
  <line class="st3" x1="251.31" y1="805.67" x2="251.31" y2="64.53"/>
  <line class="st3" x1="802.46" y1="615.9" x2="61.31" y2="615.9"/>
  <line class="st3" x1="612.69" y1="64.75" x2="612.69" y2="805.9"/>
  <line class="st3" x1="802.69" y1="254.52" x2="61.31" y2="615.9"/>
  <line class="st3" x1="432" y1="23.12" x2="844.08" y2="435.2"/>
  <line class="st3" x1="612.69" y1="64.75" x2="802.69" y2="254.52"/>
  <line class="st3" x1="19.92" y1="435.2" x2="432" y2="847.28"/>
  <line class="st3" x1="251.31" y1="805.67" x2="61.31" y2="615.9"/>
  <line class="st3" x1="612.69" y1="805.9" x2="61.54" y2="254.52"/>
  <line class="st3" x1="802.46" y1="615.9" x2="61.54" y2="254.52"/>
  <line class="st3" x1="251.31" y1="64.53" x2="802.46" y2="615.9"/>
  <line class="st3" x1="612.69" y1="64.75" x2="251.31" y2="805.67"/>
  <ellipse class="st0" cx="269.15" cy="355.78" rx="4.17" ry="4.04"/>
  <ellipse class="st0" cx="511.43" cy="272.36" rx="4.04" ry="4.17"/>
  <ellipse class="st0" cx="432.11" cy="403.88" rx="6.22" ry="6.43"/>
  <ellipse class="st0" cx="432.11" cy="377.55" rx="5.91" ry="6.11"/>
  <ellipse class="st0" cx="432.11" cy="352.07" rx="5.62" ry="5.8"/>
  <ellipse class="st0" cx="432.11" cy="328.16" rx="5.34" ry="5.51"/>
  <ellipse class="st0" cx="432.11" cy="307.81" rx="5.07" ry="5.24"/>
  <ellipse class="st0" cx="432.11" cy="290.82" rx="4.82" ry="4.98"/>
  <ellipse class="st0" cx="432.11" cy="275.41" rx="4.58" ry="4.73"/>
  <ellipse class="st0" cx="432.11" cy="254.52" rx="3.48" ry="3.6"/>
  <ellipse class="st0" cx="432" cy="146.91" rx="9.37" ry="9.68"/>
  <ellipse class="st0" cx="432" cy="723.08" rx="9.37" ry="9.68"/>
  <ellipse class="st0" cx="144.02" cy="435.1" rx="9.68" ry="9.37"/>
  <ellipse class="st0" cx="720.19" cy="434.89" rx="9.68" ry="9.37"/>
  <ellipse class="st0" cx="594.87" cy="355.82" rx="4.17" ry="4.04" transform="translate(-51.82 605.37) rotate(-51.99)"/>
  <ellipse class="st0" cx="613.18" cy="435.32" rx="4.17" ry="4.04" transform="translate(-128.7 312.4) rotate(-25.96)"/>
  <ellipse class="st0" cx="594.85" cy="514.64" rx="4.17" ry="4.04"/>
  <ellipse class="st0" cx="510.68" cy="598.42" rx="4.04" ry="4.17" transform="translate(-275.44 628.82) rotate(-51.74)"/>
  <ellipse class="st0" cx="432.53" cy="616.4" rx="4.04" ry="4.17" transform="translate(-227.49 253.91) rotate(-26.17)"/>
  <ellipse class="st0" cx="352.57" cy="598.06" rx="4.04" ry="4.17"/>
  <ellipse class="st0" cx="269.13" cy="514.6" rx="4.17" ry="4.04" transform="translate(-302.05 409.73) rotate(-51.99)"/>
  <ellipse class="st0" cx="250.82" cy="435.32" rx="4.17" ry="4.04" transform="translate(-165.62 154.26) rotate(-26.04)"/>
  <circle class="st11" cx="61.54" cy="254.52" r="5.1"/>
  <circle class="st11" cx="251.31" cy="64.53" r="5.1"/>
  <circle class="st11" cx="612.69" cy="64.75" r="5.1"/>
  <circle class="st11" cx="802.69" cy="254.52" r="5.1"/>
  <circle class="st11" cx="802.46" cy="615.9" r="5.1"/>
  <circle class="st11" cx="612.69" cy="805.9" r="5.1"/>
  <circle class="st11" cx="251.31" cy="805.67" r="5.1"/>
  <circle class="st11" cx="61.31" cy="615.9" r="5.1"/>
  <line class="st3" x1="43.23" y1="248.76" x2="56.21" y2="248.76"/>
  <line class="st3" x1="45.13" y1="253.35" x2="54.31" y2="244.17"/>
  <line class="st3" x1="54.31" y1="253.35" x2="45.13" y2="244.17"/>
  <g>
    <circle class="st3" cx="248.5" cy="53.73" r="3.09"/>
    <line class="st3" x1="245.41" y1="53.73" x2="233.81" y2="53.73"/>
    <line class="st3" x1="237.31" y1="50.11" x2="237.31" y2="61.71"/>
    <line class="st3" x1="240.16" y1="50.11" x2="240.16" y2="61.71"/>
    <line class="st3" x1="243.01" y1="50.11" x2="243.01" y2="61.71"/>
  </g>
  <g>
    <polyline class="st3" points="613.24 57.7 618.85 57.7 618.85 54.39"/>
    <polyline class="st3" points="624.46 57.7 618.85 57.7 618.85 54.39"/>
    <polyline class="st3" points="623.75 46.55 623.75 54.39 618.85 49.49 613.94 54.39 613.94 46.55"/>
  </g>
  <g>
    <ellipse class="st3" cx="814.46" cy="248.6" rx="1.94" ry="3.3"/>
    <polyline class="st3" points="814.46 245.3 814.46 243.57 809.74 243.57"/>
    <polyline class="st3" points="814.46 245.3 814.46 243.57 819.18 243.57"/>
    <polyline class="st3" points="819.18 246.29 819.18 251.91 817.08 254 814.46 254 811.84 254 809.74 251.91 809.74 246.29"/>
    <line class="st3" x1="814.46" y1="251.91" x2="814.46" y2="254"/>
  </g>
  <g>
    <rect class="st3" x="812.7" y="616.86" width="8.81" height="12.38"/>
    <ellipse class="st3" cx="817.11" cy="623.04" rx="8.29" ry="3.46"/>
  </g>
  <g>
    <line class="st3" x1="618.32" y1="811.48" x2="618.32" y2="822.91"/>
    <polyline class="st3" points="625.35 823.44 622.83 823.44 612.66 813.68"/>
    <line class="st3" x1="618.32" y1="819.11" x2="612.66" y2="819.11"/>
    <polyline class="st3" points="611.3 823.44 613.81 823.44 623.99 813.68"/>
    <line class="st3" x1="618.32" y1="819.11" x2="623.99" y2="819.11"/>
  </g>
  <g>
    <ellipse class="st3" cx="243.23" cy="820.19" rx="3.85" ry="5.13"/>
    <line class="st3" x1="238.46" y1="815.06" x2="248.15" y2="815.06"/>
    <polyline class="st3" points="243.23 820.19 245.65 820.19 250 820.19 250 817.73"/>
  </g>
  <g>
    <circle class="st3" cx="51.18" cy="622.13" r="3.33"/>
    <circle class="st3" cx="51.18" cy="622.13" r=".18"/>
    <polyline class="st3" points="47.86 621.95 45.44 621.95 45.44 617.78"/>
    <line class="st3" x1="42.55" y1="617.78" x2="48.09" y2="617.78"/>
    <polyline class="st3" points="47.86 621.95 45.44 621.95 45.44 617.78"/>
    <line class="st3" x1="42.55" y1="617.78" x2="48.09" y2="617.78"/>
    <polyline class="st3" points="47.86 622.31 45.44 622.31 45.44 626.48"/>
    <line class="st3" x1="42.55" y1="626.48" x2="48.09" y2="626.48"/>
  </g>
  <g>
    <line class="st3" x1="144.02" y1="428.93" x2="144.02" y2="440.83"/>
    <polyline class="st3" points="144.02 439.7 142.71 438.25 142.71 436.64 139.54 433.47 139.54 431.79"/>
    <polyline class="st3" points="144.02 430.4 142.35 432.06 142.35 432.81"/>
    <polyline class="st3" points="144.02 439.7 145.33 438.25 145.33 436.64 148.5 433.47 148.5 431.79"/>
    <polyline class="st3" points="144.02 430.4 145.68 432.06 145.68 432.81"/>
  </g>
  <g>
    <line class="st3" x1="427.36" y1="143.66" x2="436.64" y2="150.16"/>
    <line class="st3" x1="427.36" y1="150.16" x2="436.64" y2="143.66"/>
    <line class="st3" x1="432" y1="143.33" x2="432" y2="140.97"/>
    <polyline class="st3" points="427.36 148.06 427.36 150.16 429.46 150.16"/>
    <polyline class="st3" points="436.64 148.06 436.64 150.16 434.54 150.16"/>
  </g>
  <g>
    <line class="st3" x1="715.29" y1="429.99" x2="725.09" y2="439.8"/>
    <line class="st3" x1="715.29" y1="439.8" x2="725.09" y2="429.99"/>
  </g>
  <g>
    <polyline class="st3" points="427.02 719.35 428.93 719.35 428.93 726.22 430.52 727.81 432 727.81"/>
    <polyline class="st3" points="428.93 721.66 432 725.56 432 727.81"/>
    <polyline class="st3" points="436.98 719.35 435.07 719.35 435.07 726.22 433.48 727.81 432 727.81"/>
    <polyline class="st3" points="435.07 721.66 432 725.56 432 727.81"/>
  </g>
</svg>