<?xml version="1.0" encoding="UTF-8"?>
<svg id="Layer_1" xmlns="http://www.w3.org/2000/svg" version="1.1" viewBox="0 0 864 864">
  <!-- Generator: Adobe Illustrator 29.8.1, SVG Export Plug-In . SVG Version: 2.1.1 Build 2)  -->
  <defs>
    <style>
      .st0, .st1, .st2, .st3, .st4, .st5, .st6, .st7, .st8, .st9, .st10, .st11, .st12 {
        stroke: #010101;
        stroke-miterlimit: 10;
      }

      .st0, .st2, .st6 {
        stroke-width: .56px;
      }

      .st0, .st7, .st9 {
        fill: #fff;
      }

      .st1 {
        stroke-width: .28px;
      }

      .st1, .st2, .st3, .st4, .st5, .st6, .st8, .st10, .st11, .st12 {
        fill: none;
      }

      .st1, .st4, .st13 {
        opacity: .5;
      }

      .st2 {
        opacity: .15;
      }

      .st3 {
        stroke-width: 2.22px;
      }

      .st4, .st5 {
        stroke-width: 1.21px;
      }

      .st7 {
        stroke-width: .37px;
      }

      .st8 {
        stroke-width: 1.11px;
      }

      .st9 {
        stroke-width: .3px;
      }

      .st10 {
        stroke-width: .83px;
      }

      .st14 {
        fill: #010101;
      }

      .st11 {
        stroke-width: .97px;
      }

      .st12 {
        stroke-width: .48px;
      }
    </style>
  </defs>
  <line class="st6" x1="374.27" y1="484.2" x2="392.69" y2="467.33"/>
  <circle class="st14" cx="373.4" cy="484.99" r=".42"/>
  <line class="st6" x1="489.24" y1="378.85" x2="470.83" y2="395.73"/>
  <circle class="st14" cx="490.12" cy="378.06" r=".42"/>
  <line class="st6" x1="346.57" y1="516.71" x2="354.33" y2="508.96"/>
  <line class="st6" x1="516.17" y1="347.12" x2="509.97" y2="353.32"/>
  <line class="st6" x1="345.18" y1="515.14" x2="352.91" y2="507.67"/>
  <circle class="st14" cx="342.17" cy="518.03" r=".66"/>
  <line class="st6" x1="518.47" y1="347.67" x2="510.59" y2="355.28"/>
  <circle class="st14" cx="521.35" cy="345.02" r=".66"/>
  <line class="st6" x1="344.05" y1="513.32" x2="351.27" y2="506.59"/>
  <line class="st6" x1="519.83" y1="349.41" x2="511.89" y2="356.81"/>
  <line class="st6" x1="342.44" y1="511.96" x2="350.18" y2="504.99"/>
  <circle class="st14" cx="339.2" cy="514.85" r=".66"/>
  <line class="st6" x1="521.25" y1="350.96" x2="513.18" y2="358.22"/>
  <circle class="st14" cx="524.32" cy="348.2" r=".66"/>
  <line class="st6" x1="341.05" y1="510.38" x2="348.91" y2="503.55"/>
  <line class="st6" x1="522.8" y1="352.39" x2="514.29" y2="359.79"/>
  <line class="st6" x1="340.1" y1="508.44" x2="347.24" y2="502.45"/>
  <circle class="st14" cx="336.35" cy="511.57" r=".66"/>
  <line class="st6" x1="523.84" y1="354.27" x2="515.86" y2="360.96"/>
  <circle class="st14" cx="527.17" cy="351.48" r=".66"/>
  <line class="st6" x1="338.14" y1="507.34" x2="346.66" y2="500.44"/>
  <line class="st6" x1="524.77" y1="356.21" x2="517.48" y2="362.11"/>
  <line class="st6" x1="337.69" y1="505.02" x2="344.6" y2="499.62"/>
  <circle class="st14" cx="333.61" cy="508.2" r=".66"/>
  <line class="st6" x1="525.68" y1="358.15" x2="519.07" y2="363.31"/>
  <circle class="st14" cx="529.91" cy="354.86" r=".66"/>
  <line class="st6" x1="335.99" y1="503.7" x2="343.87" y2="497.76"/>
  <line class="st6" x1="527.75" y1="359.19" x2="519.44" y2="365.46"/>
  <line class="st6" x1="334.52" y1="502.18" x2="342.95" y2="496.06"/>
  <circle class="st14" cx="331" cy="504.72" r=".66"/>
  <line class="st6" x1="529.22" y1="360.72" x2="520.36" y2="367.16"/>
  <circle class="st14" cx="532.52" cy="358.33" r=".66"/>
  <line class="st6" x1="333.97" y1="500" x2="341.16" y2="494.97"/>
  <line class="st6" x1="529.77" y1="362.9" x2="522.14" y2="368.24"/>
  <line class="st6" x1="332.11" y1="498.74" x2="340.75" y2="492.92"/>
  <circle class="st14" cx="328.5" cy="501.16" r=".66"/>
  <line class="st6" x1="531.18" y1="364.47" x2="523" y2="369.99"/>
  <circle class="st14" cx="535.01" cy="361.9" r=".66"/>
  <line class="st6" x1="331.41" y1="496.69" x2="339.23" y2="491.62"/>
  <line class="st6" x1="532.11" y1="366.36" x2="524.29" y2="371.44"/>
  <line class="st6" x1="330.29" y1="494.93" x2="338.2" y2="489.99"/>
  <circle class="st14" cx="326.14" cy="497.52" r=".66"/>
  <line class="st6" x1="533.92" y1="367.69" x2="524.63" y2="373.5"/>
  <circle class="st14" cx="537.38" cy="365.54" r=".66"/>
  <line class="st6" x1="328.5" y1="493.58" x2="337.89" y2="487.93"/>
  <line class="st6" x1="534.08" y1="370.05" x2="526.57" y2="374.56"/>
  <line class="st6" x1="327.52" y1="491.71" x2="336.83" y2="486.34"/>
  <circle class="st14" cx="323.9" cy="493.79" r=".66"/>
  <line class="st6" x1="536.09" y1="371.29" x2="526.6" y2="376.77"/>
  <circle class="st14" cx="539.62" cy="369.27" r=".66"/>
  <line class="st6" x1="326.87" y1="489.67" x2="335.5" y2="484.88"/>
  <line class="st6" x1="536.65" y1="373.39" x2="528.02" y2="378.17"/>
  <line class="st6" x1="325.63" y1="487.96" x2="334.83" y2="483.07"/>
  <circle class="st14" cx="321.79" cy="489.99" r=".66"/>
  <line class="st6" x1="537.64" y1="375.23" x2="528.94" y2="379.86"/>
  <circle class="st14" cx="541.73" cy="373.07" r=".66"/>
  <line class="st6" x1="324.66" y1="486.1" x2="333.94" y2="481.37"/>
  <line class="st6" x1="538.37" y1="377.21" x2="530.07" y2="381.44"/>
  <line class="st6" x1="324.22" y1="483.98" x2="332.6" y2="479.89"/>
  <circle class="st14" cx="319.82" cy="486.11" r=".66"/>
  <line class="st6" x1="539.79" y1="378.84" x2="530.43" y2="383.4"/>
  <circle class="st14" cx="543.7" cy="376.94" r=".66"/>
  <line class="st6" x1="323.57" y1="481.98" x2="331.52" y2="478.27"/>
  <line class="st6" x1="540.22" y1="380.95" x2="531.73" y2="384.91"/>
  <line class="st6" x1="322.71" y1="480.08" x2="330.72" y2="476.51"/>
  <circle class="st14" cx="317.98" cy="482.17" r=".66"/>
  <line class="st6" x1="540.64" y1="383.05" x2="532.98" y2="386.46"/>
  <circle class="st14" cx="545.54" cy="380.88" r=".66"/>
  <line class="st6" x1="321.37" y1="478.39" x2="330.45" y2="474.53"/>
  <line class="st6" x1="542.4" y1="384.56" x2="532.82" y2="388.63"/>
  <line class="st6" x1="320.32" y1="476.56" x2="329.97" y2="472.65"/>
  <circle class="st14" cx="316.28" cy="478.17" r=".66"/>
  <line class="st6" x1="543.46" y1="386.4" x2="533.3" y2="390.51"/>
  <circle class="st14" cx="547.24" cy="384.89" r=".66"/>
  <line class="st6" x1="320.31" y1="474.31" x2="328.5" y2="471.17"/>
  <line class="st6" x1="543.46" y1="388.65" x2="534.76" y2="391.99"/>
  <line class="st6" x1="318.81" y1="472.64" x2="328.6" y2="469.08"/>
  <circle class="st14" cx="314.73" cy="474.11" r=".66"/>
  <line class="st6" x1="544.45" y1="390.51" x2="535.18" y2="393.89"/>
  <circle class="st14" cx="548.79" cy="388.94" r=".66"/>
  <line class="st6" x1="318.63" y1="470.48" x2="327.44" y2="467.45"/>
  <line class="st6" x1="544.89" y1="392.58" x2="536.08" y2="395.61"/>
  <line class="st6" x1="317.97" y1="468.5" x2="326.83" y2="465.62"/>
  <circle class="st14" cx="313.31" cy="470" r=".66"/>
  <line class="st6" x1="546.33" y1="394.3" x2="535.91" y2="397.69"/>
  <circle class="st14" cx="550.21" cy="393.05" r=".66"/>
  <line class="st6" x1="316.55" y1="466.75" x2="327.04" y2="463.55"/>
  <line class="st6" x1="545.92" y1="396.63" x2="537.53" y2="399.19"/>
  <line class="st6" x1="316.06" y1="464.7" x2="326.39" y2="461.74"/>
  <circle class="st14" cx="312.04" cy="465.85" r=".66"/>
  <line class="st6" x1="547.56" y1="398.32" x2="537.03" y2="401.34"/>
  <circle class="st14" cx="551.48" cy="397.21" r=".66"/>
  <line class="st6" x1="315.92" y1="462.57" x2="325.46" y2="460.01"/>
  <line class="st6" x1="547.6" y1="400.49" x2="538.07" y2="403.04"/>
  <line class="st6" x1="315.13" y1="460.61" x2="325.24" y2="458.09"/>
  <circle class="st14" cx="310.92" cy="461.65" r=".66"/>
  <line class="st6" x1="548.12" y1="402.52" x2="538.55" y2="404.9"/>
  <circle class="st14" cx="552.6" cy="401.41" r=".66"/>
  <line class="st6" x1="314.64" y1="458.57" x2="324.79" y2="456.22"/>
  <line class="st6" x1="547.48" y1="404.81" x2="540.13" y2="406.51"/>
  <line class="st6" x1="314.73" y1="456.41" x2="323.84" y2="454.47"/>
  <circle class="st14" cx="309.94" cy="457.41" r=".66"/>
  <line class="st6" x1="547.95" y1="406.83" x2="540.52" y2="408.41"/>
  <circle class="st14" cx="553.58" cy="405.65" r=".66"/>
  <line class="st6" x1="313.5" y1="454.52" x2="324.27" y2="452.42"/>
  <line class="st6" x1="548.78" y1="408.78" x2="540.5" y2="410.39"/>
  <line class="st6" x1="315.02" y1="452.11" x2="322.02" y2="450.88"/>
  <circle class="st14" cx="309.11" cy="453.14" r=".66"/>
  <line class="st6" x1="549.13" y1="410.83" x2="540.87" y2="412.29"/>
  <circle class="st14" cx="554.41" cy="409.91" r=".66"/>
  <line class="st6" x1="313.31" y1="450.29" x2="323.06" y2="448.75"/>
  <line class="st6" x1="549.08" y1="412.95" x2="541.59" y2="414.13"/>
  <line class="st6" x1="314.51" y1="448.01" x2="321.27" y2="447.06"/>
  <circle class="st14" cx="308.43" cy="448.85" r=".66"/>
  <line class="st6" x1="550.03" y1="414.91" x2="541.24" y2="416.14"/>
  <circle class="st14" cx="555.09" cy="414.21" r=".66"/>
  <line class="st6" x1="313.71" y1="446.02" x2="321.55" y2="445.06"/>
  <line class="st6" x1="550.52" y1="416.95" x2="541.27" y2="418.08"/>
  <line class="st6" x1="312.22" y1="444.09" x2="322.58" y2="443"/>
  <circle class="st14" cx="307.9" cy="444.54" r=".66"/>
  <line class="st6" x1="551.02" y1="418.99" x2="541.22" y2="420.02"/>
  <circle class="st14" cx="555.62" cy="418.52" r=".66"/>
  <line class="st6" x1="313.45" y1="441.88" x2="320.97" y2="441.22"/>
  <line class="st6" x1="550.95" y1="421.1" x2="541.67" y2="421.91"/>
  <line class="st6" x1="313.29" y1="439.81" x2="320.82" y2="439.29"/>
  <circle class="st14" cx="307.52" cy="440.21" r=".66"/>
  <line class="st6" x1="551.94" y1="423.13" x2="541" y2="423.89"/>
  <circle class="st14" cx="556" cy="422.85" r=".66"/>
  <line class="st6" x1="312.49" y1="437.78" x2="321.36" y2="437.31"/>
  <line class="st6" x1="550.97" y1="425.28" x2="542.21" y2="425.74"/>
  <line class="st6" x1="312.93" y1="435.68" x2="320.76" y2="435.41"/>
  <circle class="st14" cx="307.29" cy="435.86" r=".66"/>
  <line class="st6" x1="552.16" y1="427.32" x2="541.2" y2="427.71"/>
  <circle class="st14" cx="556.22" cy="427.19" r=".66"/>
  <line class="st6" x1="312.79" y1="433.61" x2="320.78" y2="433.47"/>
  <line class="st6" x1="551.66" y1="429.44" x2="541.8" y2="429.61"/>
  <line class="st6" x1="311.56" y1="431.53" x2="321.98" y2="431.53"/>
  <circle class="st14" cx="307.22" cy="431.52" r=".66"/>
  <line class="st6" x1="551.68" y1="431.53" x2="541.82" y2="431.53"/>
  <circle class="st14" cx="556.3" cy="431.54" r=".66"/>
  <line class="st6" x1="312.57" y1="429.45" x2="321.01" y2="429.6"/>
  <line class="st6" x1="551.39" y1="433.62" x2="542.08" y2="433.45"/>
  <line class="st6" x1="312.18" y1="427.35" x2="321.5" y2="427.68"/>
  <circle class="st14" cx="307.3" cy="427.17" r=".66"/>
  <line class="st6" x1="551.88" y1="435.72" x2="541.48" y2="435.36"/>
  <circle class="st14" cx="556.22" cy="435.89" r=".66"/>
  <line class="st6" x1="312.49" y1="425.28" x2="321.36" y2="425.74"/>
  <line class="st6" x1="551.27" y1="437.79" x2="541.91" y2="437.3"/>
  <line class="st6" x1="312.68" y1="423.2" x2="321.43" y2="423.81"/>
  <circle class="st14" cx="307.52" cy="422.83" r=".66"/>
  <line class="st6" x1="551.07" y1="439.87" x2="541.87" y2="439.23"/>
  <circle class="st14" cx="556" cy="440.23" r=".66"/>
  <line class="st6" x1="312.29" y1="421.08" x2="322.12" y2="421.94"/>
  <line class="st6" x1="551.5" y1="442" x2="541.13" y2="441.1"/>
  <line class="st6" x1="312.22" y1="418.96" x2="322.58" y2="420.05"/>
  <circle class="st14" cx="307.9" cy="418.5" r=".66"/>
  <line class="st6" x1="551.57" y1="444.12" x2="540.67" y2="442.98"/>
  <circle class="st14" cx="555.62" cy="444.56" r=".66"/>
  <line class="st6" x1="313.28" y1="416.98" x2="321.98" y2="418.05"/>
  <line class="st6" x1="550.98" y1="446.17" x2="540.81" y2="444.92"/>
  <line class="st6" x1="312.73" y1="414.8" x2="323.05" y2="416.25"/>
  <circle class="st14" cx="308.43" cy="414.19" r=".66"/>
  <line class="st6" x1="551" y1="448.29" x2="540.26" y2="446.78"/>
  <circle class="st14" cx="555.09" cy="448.87" r=".66"/>
  <line class="st6" x1="313.58" y1="412.81" x2="322.79" y2="414.27"/>
  <line class="st6" x1="549.93" y1="450.25" x2="540.73" y2="448.79"/>
  <line class="st6" x1="313.93" y1="410.75" x2="323.11" y2="412.37"/>
  <circle class="st14" cx="309.11" cy="409.89" r=".66"/>
  <line class="st6" x1="550.4" y1="452.45" x2="539.61" y2="450.55"/>
  <circle class="st14" cx="554.41" cy="453.17" r=".66"/>
  <line class="st6" x1="313.5" y1="408.54" x2="324.27" y2="410.63"/>
  <line class="st6" x1="548.94" y1="454.31" x2="540.33" y2="452.63"/>
  <line class="st6" x1="314.03" y1="406.5" x2="324.54" y2="408.74"/>
  <circle class="st14" cx="309.94" cy="405.62" r=".66"/>
  <line class="st6" x1="549.6" y1="456.58" x2="538.88" y2="454.3"/>
  <circle class="st14" cx="553.58" cy="457.43" r=".66"/>
  <line class="st6" x1="314.91" y1="404.55" x2="324.53" y2="406.77"/>
  <line class="st6" x1="548.61" y1="458.51" x2="539" y2="456.29"/>
  <line class="st6" x1="315.13" y1="402.45" x2="325.24" y2="404.97"/>
  <circle class="st14" cx="310.92" cy="401.39" r=".66"/>
  <line class="st6" x1="548.12" y1="460.54" x2="538.55" y2="458.15"/>
  <circle class="st14" cx="552.6" cy="461.67" r=".66"/>
  <line class="st6" x1="315.66" y1="400.42" x2="325.72" y2="403.12"/>
  <line class="st6" x1="547.33" y1="462.5" x2="538.33" y2="460.08"/>
  <line class="st6" x1="316.75" y1="398.55" x2="325.71" y2="401.12"/>
  <circle class="st14" cx="312.05" cy="397.19" r=".66"/>
  <line class="st6" x1="547.3" y1="464.66" x2="537.29" y2="461.79"/>
  <circle class="st14" cx="551.47" cy="465.87" r=".66"/>
  <line class="st6" x1="316.55" y1="396.31" x2="327.04" y2="399.51"/>
  <line class="st6" x1="546.21" y1="466.52" x2="537.24" y2="463.78"/>
  <line class="st6" x1="318.23" y1="394.64" x2="326.57" y2="397.35"/>
  <circle class="st14" cx="313.32" cy="393.03" r=".66"/>
  <line class="st6" x1="545.11" y1="468.36" x2="537.13" y2="465.77"/>
  <circle class="st14" cx="550.2" cy="470.02" r=".66"/>
  <line class="st6" x1="318.37" y1="392.49" x2="327.7" y2="395.7"/>
  <line class="st6" x1="545.41" y1="470.66" x2="535.56" y2="467.27"/>
  <line class="st6" x1="318.81" y1="390.42" x2="328.6" y2="393.98"/>
  <circle class="st14" cx="314.73" cy="388.92" r=".66"/>
  <line class="st6" x1="544.96" y1="472.73" x2="534.67" y2="468.98"/>
  <circle class="st14" cx="548.79" cy="474.13" r=".66"/>
  <line class="st6" x1="320.31" y1="388.75" x2="328.5" y2="391.89"/>
  <line class="st6" x1="543.03" y1="474.24" x2="535.2" y2="471.24"/>
  <line class="st6" x1="320.32" y1="386.5" x2="329.97" y2="390.4"/>
  <circle class="st14" cx="316.29" cy="384.87" r=".66"/>
  <line class="st6" x1="542.08" y1="476.1" x2="534.67" y2="473.11"/>
  <circle class="st14" cx="547.23" cy="478.19" r=".66"/>
  <line class="st6" x1="321.62" y1="384.78" x2="330.2" y2="388.42"/>
  <line class="st6" x1="541.08" y1="477.93" x2="534.14" y2="474.98"/>
  <line class="st6" x1="322.46" y1="382.86" x2="330.97" y2="386.65"/>
  <circle class="st14" cx="317.99" cy="380.86" r=".66"/>
  <line class="st6" x1="540.46" y1="479.92" x2="533.16" y2="476.67"/>
  <circle class="st14" cx="545.53" cy="482.19" r=".66"/>
  <line class="st6" x1="322.58" y1="380.62" x2="332.51" y2="385.25"/>
  <line class="st6" x1="539.55" y1="481.79" x2="532.4" y2="478.46"/>
  <line class="st6" x1="323.58" y1="378.77" x2="333.24" y2="383.48"/>
  <circle class="st14" cx="319.83" cy="376.92" r=".66"/>
  <line class="st6" x1="539.1" y1="483.88" x2="531.12" y2="479.99"/>
  <circle class="st14" cx="543.69" cy="486.13" r=".66"/>
  <line class="st6" x1="324.91" y1="377.09" x2="333.7" y2="381.57"/>
  <line class="st6" x1="538.17" y1="485.75" x2="530.26" y2="481.72"/>
  <line class="st6" x1="325.63" y1="375.1" x2="334.83" y2="379.99"/>
  <circle class="st14" cx="321.8" cy="373.05" r=".66"/>
  <line class="st6" x1="537.21" y1="487.6" x2="529.37" y2="483.43"/>
  <circle class="st14" cx="541.72" cy="490.01" r=".66"/>
  <line class="st6" x1="326.63" y1="373.26" x2="335.74" y2="378.31"/>
  <line class="st6" x1="536" y1="489.31" x2="528.67" y2="485.24"/>
  <line class="st6" x1="328.14" y1="371.7" x2="336.21" y2="376.36"/>
  <circle class="st14" cx="323.91" cy="369.25" r=".66"/>
  <line class="st6" x1="535.85" y1="491.63" x2="526.84" y2="486.42"/>
  <circle class="st14" cx="539.61" cy="493.81" r=".66"/>
  <line class="st6" x1="328.97" y1="369.76" x2="337.42" y2="374.85"/>
  <line class="st6" x1="534.34" y1="493.17" x2="526.31" y2="488.34"/>
  <line class="st6" x1="330.52" y1="368.27" x2="337.96" y2="372.92"/>
  <circle class="st14" cx="326.15" cy="365.52" r=".66"/>
  <line class="st6" x1="532.83" y1="494.69" x2="525.72" y2="490.24"/>
  <circle class="st14" cx="537.37" cy="497.53" r=".66"/>
  <line class="st6" x1="331.97" y1="366.73" x2="338.67" y2="371.08"/>
  <line class="st6" x1="532.56" y1="496.99" x2="523.83" y2="491.32"/>
  <line class="st6" x1="333.28" y1="365.11" x2="339.58" y2="369.35"/>
  <circle class="st14" cx="328.52" cy="361.88" r=".66"/>
  <line class="st6" x1="531.63" y1="498.89" x2="522.55" y2="492.77"/>
  <circle class="st14" cx="535" cy="501.18" r=".66"/>
  <line class="st6" x1="334.69" y1="363.56" x2="340.44" y2="367.59"/>
  <line class="st6" x1="529.77" y1="500.16" x2="522.14" y2="494.81"/>
  <line class="st6" x1="335.36" y1="361.49" x2="342.1" y2="366.39"/>
  <circle class="st14" cx="331.01" cy="358.32" r=".66"/>
  <line class="st6" x1="528.78" y1="502.02" x2="520.8" y2="496.22"/>
  <circle class="st14" cx="532.51" cy="504.74" r=".66"/>
  <line class="st6" x1="336.2" y1="359.52" x2="343.65" y2="365.13"/>
  <line class="st6" x1="527.31" y1="503.53" x2="519.87" y2="497.93"/>
  <line class="st6" x1="337.48" y1="357.87" x2="344.82" y2="363.6"/>
  <circle class="st14" cx="333.63" cy="354.85" r=".66"/>
  <line class="st6" x1="526.69" y1="505.7" x2="518.05" y2="498.95"/>
  <circle class="st14" cx="529.89" cy="508.21" r=".66"/>
  <line class="st6" x1="338.14" y1="355.72" x2="346.66" y2="362.62"/>
  <line class="st6" x1="524.53" y1="506.65" x2="517.72" y2="501.14"/>
  <line class="st6" x1="339.56" y1="354.16" x2="347.79" y2="361.07"/>
  <circle class="st14" cx="336.36" cy="351.47" r=".66"/>
  <line class="st6" x1="524.05" y1="508.97" x2="515.65" y2="501.92"/>
  <circle class="st14" cx="527.16" cy="511.59" r=".66"/>
  <line class="st6" x1="341.25" y1="352.85" x2="348.7" y2="359.33"/>
  <line class="st6" x1="522.27" y1="510.21" x2="514.82" y2="503.73"/>
  <line class="st6" x1="342.44" y1="351.1" x2="350.18" y2="358.07"/>
  <circle class="st14" cx="339.22" cy="348.19" r=".66"/>
  <line class="st6" x1="520.88" y1="511.77" x2="513.55" y2="505.17"/>
  <circle class="st14" cx="524.3" cy="514.87" r=".66"/>
  <line class="st6" x1="343.85" y1="349.56" x2="351.47" y2="356.66"/>
  <line class="st6" x1="519.27" y1="513.13" x2="512.45" y2="506.78"/>
  <line class="st6" x1="345.69" y1="348.42" x2="352.4" y2="354.89"/>
  <circle class="st14" cx="342.18" cy="345.01" r=".66"/>
  <line class="st6" x1="518.22" y1="515.03" x2="510.73" y2="507.79"/>
  <circle class="st14" cx="521.34" cy="518.05" r=".66"/>
  <line class="st6" x1="346.57" y1="346.34" x2="354.33" y2="354.1"/>
  <line class="st6" x1="516.38" y1="516.15" x2="509.76" y2="509.53"/>
  <line class="st6" x1="348.84" y1="345.66" x2="354.93" y2="351.97"/>
  <circle class="st14" cx="345.25" cy="341.94" r=".66"/>
  <line class="st6" x1="514.55" y1="517.26" x2="508.73" y2="511.23"/>
  <circle class="st14" cx="518.27" cy="521.12" r=".66"/>
  <line class="st6" x1="349.97" y1="343.82" x2="356.7" y2="351.04"/>
  <line class="st6" x1="513.73" y1="519.44" x2="506.63" y2="511.82"/>
  <line class="st6" x1="351.33" y1="342.21" x2="358.3" y2="349.95"/>
  <circle class="st14" cx="348.43" cy="338.97" r=".66"/>
  <line class="st6" x1="512.37" y1="521.06" x2="505.04" y2="512.91"/>
  <circle class="st14" cx="515.09" cy="524.09" r=".66"/>
  <line class="st6" x1="353.44" y1="341.44" x2="359.2" y2="348.06"/>
  <line class="st6" x1="510.26" y1="521.83" x2="504.14" y2="514.8"/>
  <line class="st6" x1="354.5" y1="339.45" x2="361.2" y2="347.43"/>
  <circle class="st14" cx="351.72" cy="336.12" r=".66"/>
  <line class="st6" x1="508.84" y1="523.4" x2="502.5" y2="515.84"/>
  <circle class="st14" cx="511.81" cy="526.94" r=".66"/>
  <line class="st6" x1="356.46" y1="338.55" x2="362.33" y2="345.79"/>
  <line class="st6" x1="507.06" y1="524.51" x2="501.19" y2="517.27"/>
  <line class="st6" x1="358.1" y1="337.25" x2="363.84" y2="344.59"/>
  <circle class="st14" cx="355.09" cy="333.38" r=".66"/>
  <line class="st6" x1="505.93" y1="526.46" x2="499.18" y2="517.83"/>
  <circle class="st14" cx="508.43" cy="529.68" r=".66"/>
  <line class="st6" x1="359.26" y1="335.32" x2="365.86" y2="344.07"/>
  <line class="st6" x1="503.6" y1="526.87" x2="498.32" y2="519.86"/>
  <line class="st6" x1="361.01" y1="334.16" x2="367.33" y2="342.85"/>
  <circle class="st14" cx="358.57" cy="330.77" r=".66"/>
  <line class="st6" x1="502.57" y1="528.99" x2="496.13" y2="520.13"/>
  <circle class="st14" cx="504.95" cy="532.29" r=".66"/>
  <line class="st6" x1="362.98" y1="333.3" x2="368.64" y2="341.38"/>
  <line class="st6" x1="500.54" y1="529.76" x2="494.89" y2="521.68"/>
  <line class="st6" x1="364.55" y1="331.88" x2="370.37" y2="340.52"/>
  <circle class="st14" cx="362.13" cy="328.27" r=".66"/>
  <line class="st6" x1="498.54" y1="530.54" x2="493.58" y2="523.18"/>
  <circle class="st14" cx="501.39" cy="534.78" r=".66"/>
  <line class="st6" x1="366.3" y1="330.72" x2="371.97" y2="339.46"/>
  <line class="st6" x1="496.44" y1="531.13" x2="492.33" y2="524.8"/>
  <line class="st6" x1="368.36" y1="330.06" x2="373.3" y2="337.97"/>
  <circle class="st14" cx="365.77" cy="325.91" r=".66"/>
  <line class="st6" x1="494.71" y1="532.27" x2="490.68" y2="525.83"/>
  <circle class="st14" cx="497.75" cy="537.15" r=".66"/>
  <line class="st6" x1="369.71" y1="328.27" x2="375.36" y2="337.66"/>
  <line class="st6" x1="492.94" y1="533.35" x2="489.03" y2="526.84"/>
  <line class="st6" x1="372.07" y1="328.15" x2="376.46" y2="335.75"/>
  <circle class="st14" cx="369.5" cy="323.67" r=".66"/>
  <line class="st6" x1="491.14" y1="534.38" x2="487.37" y2="527.85"/>
  <circle class="st14" cx="494.02" cy="539.39" r=".66"/>
  <line class="st6" x1="373.62" y1="326.64" x2="378.41" y2="335.27"/>
  <line class="st6" x1="489.35" y1="535.42" x2="485.67" y2="528.78"/>
  <line class="st6" x1="375.33" y1="325.4" x2="380.22" y2="334.6"/>
  <circle class="st14" cx="373.3" cy="321.56" r=".66"/>
  <line class="st6" x1="487.43" y1="536.23" x2="484.06" y2="529.89"/>
  <circle class="st14" cx="490.22" cy="541.5" r=".66"/>
  <line class="st6" x1="377.94" y1="325.91" x2="381.17" y2="332.24"/>
  <line class="st6" x1="485.51" y1="537.01" x2="482.42" y2="530.96"/>
  <line class="st6" x1="379.85" y1="325.11" x2="382.85" y2="331.25"/>
  <circle class="st14" cx="377.17" cy="319.59" r=".66"/>
  <line class="st6" x1="483.74" y1="538.11" x2="480.59" y2="531.65"/>
  <circle class="st14" cx="486.35" cy="543.47" r=".66"/>
  <line class="st6" x1="381.39" y1="323.51" x2="384.94" y2="331.12"/>
  <line class="st6" x1="481.95" y1="539.17" x2="478.76" y2="532.33"/>
  <line class="st6" x1="383.46" y1="323.03" x2="386.53" y2="329.93"/>
  <circle class="st14" cx="381.11" cy="317.75" r=".66"/>
  <line class="st6" x1="480.34" y1="540.63" x2="476.73" y2="532.52"/>
  <circle class="st14" cx="482.41" cy="545.31" r=".66"/>
  <line class="st6" x1="385.1" y1="321.6" x2="388.57" y2="329.77"/>
  <line class="st6" x1="478.4" y1="541.41" x2="474.98" y2="533.34"/>
  <line class="st6" x1="387.22" y1="321.28" x2="390.15" y2="328.55"/>
  <circle class="st14" cx="385.12" cy="316.05" r=".66"/>
  <line class="st6" x1="476.89" y1="543.23" x2="472.78" y2="533.07"/>
  <circle class="st14" cx="478.4" cy="547.01" r=".66"/>
  <line class="st6" x1="388.78" y1="319.57" x2="392.32" y2="328.79"/>
  <line class="st6" x1="474.74" y1="543.49" x2="471.2" y2="534.28"/>
  <line class="st6" x1="390.65" y1="318.58" x2="394.21" y2="328.37"/>
  <circle class="st14" cx="389.17" cy="314.5" r=".66"/>
  <line class="st6" x1="472.78" y1="544.22" x2="469.4" y2="534.95"/>
  <circle class="st14" cx="474.35" cy="548.56" r=".66"/>
  <line class="st6" x1="392.63" y1="317.88" x2="396.02" y2="327.73"/>
  <line class="st6" x1="470.71" y1="544.66" x2="467.68" y2="535.85"/>
  <line class="st6" x1="394.79" y1="317.74" x2="397.67" y2="326.6"/>
  <circle class="st14" cx="393.29" cy="313.08" r=".66"/>
  <line class="st6" x1="468.9" y1="545.84" x2="465.69" y2="535.94"/>
  <circle class="st14" cx="470.24" cy="549.98" r=".66"/>
  <line class="st6" x1="396.54" y1="316.32" x2="399.74" y2="326.81"/>
  <line class="st6" x1="466.75" y1="545.98" x2="464.01" y2="537.01"/>
  <line class="st6" x1="398.86" y1="316.78" x2="401.27" y2="325.21"/>
  <circle class="st14" cx="397.44" cy="311.81" r=".66"/>
  <line class="st6" x1="464.61" y1="546.1" x2="462.3" y2="538.04"/>
  <circle class="st14" cx="466.08" cy="551.25" r=".66"/>
  <line class="st6" x1="400.72" y1="315.69" x2="403.28" y2="325.23"/>
  <line class="st6" x1="462.5" y1="546.27" x2="460.54" y2="538.94"/>
  <line class="st6" x1="402.68" y1="314.9" x2="405.2" y2="325.01"/>
  <circle class="st14" cx="401.64" cy="310.69" r=".66"/>
  <line class="st6" x1="460.65" y1="547.41" x2="458.51" y2="538.8"/>
  <circle class="st14" cx="461.88" cy="552.37" r=".66"/>
  <line class="st6" x1="404.91" y1="315.22" x2="406.88" y2="323.76"/>
  <line class="st6" x1="458.48" y1="547.25" x2="456.78" y2="539.9"/>
  <line class="st6" x1="406.77" y1="313.96" x2="408.94" y2="324.15"/>
  <circle class="st14" cx="405.88" cy="309.71" r=".66"/>
  <line class="st6" x1="456.42" y1="547.52" x2="454.92" y2="540.49"/>
  <circle class="st14" cx="457.64" cy="553.35" r=".66"/>
  <line class="st6" x1="408.93" y1="314.08" x2="410.71" y2="323.23"/>
  <line class="st6" x1="454.42" y1="548.11" x2="452.98" y2="540.7"/>
  <line class="st6" x1="410.98" y1="313.7" x2="412.6" y2="322.88"/>
  <circle class="st14" cx="410.14" cy="308.88" r=".66"/>
  <line class="st6" x1="452.5" y1="549.14" x2="450.96" y2="540.4"/>
  <circle class="st14" cx="453.38" cy="554.18" r=".66"/>
  <line class="st6" x1="412.91" y1="312.54" x2="414.63" y2="323.37"/>
  <line class="st6" x1="450.3" y1="548.61" x2="449.19" y2="541.6"/>
  <line class="st6" x1="415.01" y1="312.34" x2="416.5" y2="322.98"/>
  <circle class="st14" cx="414.44" cy="308.2" r=".66"/>
  <line class="st6" x1="448.26" y1="548.96" x2="447.26" y2="541.84"/>
  <circle class="st14" cx="449.08" cy="554.86" r=".66"/>
  <line class="st6" x1="417.15" y1="312.5" x2="418.35" y2="322.3"/>
  <line class="st6" x1="446.21" y1="549.23" x2="445.34" y2="542.09"/>
  <line class="st6" x1="419.2" y1="311.99" x2="420.29" y2="322.35"/>
  <circle class="st14" cx="418.75" cy="307.67" r=".66"/>
  <line class="st6" x1="444.12" y1="549.11" x2="443.44" y2="542.67"/>
  <circle class="st14" cx="444.77" cy="555.39" r=".66"/>
  <line class="st6" x1="421.28" y1="311.79" x2="422.19" y2="322.17"/>
  <line class="st6" x1="442.08" y1="549.47" x2="441.49" y2="542.7"/>
  <line class="st6" x1="423.41" y1="312.17" x2="424.06" y2="321.47"/>
  <circle class="st14" cx="423.08" cy="307.29" r=".66"/>
  <line class="st6" x1="440.05" y1="550.03" x2="439.52" y2="542.45"/>
  <circle class="st14" cx="440.44" cy="555.77" r=".66"/>
  <line class="st6" x1="425.46" y1="311.22" x2="426.03" y2="322.17"/>
  <line class="st6" x1="437.98" y1="550.15" x2="437.58" y2="542.57"/>
  <line class="st6" x1="427.59" y1="312.23" x2="427.9" y2="320.99"/>
  <circle class="st14" cx="427.42" cy="307.06" r=".66"/>
  <line class="st6" x1="435.91" y1="550.22" x2="435.64" y2="542.68"/>
  <circle class="st14" cx="436.1" cy="555.99" r=".66"/>
  <line class="st6" x1="429.67" y1="311.63" x2="429.84" y2="321.49"/>
  <line class="st6" x1="433.84" y1="550.72" x2="433.69" y2="542.29"/>
  <line class="st6" x1="431.76" y1="311.33" x2="431.76" y2="321.75"/>
  <path class="st14" d="M431.11,306.99c0,.36.29.66.66.66s.66-.29.66-.66c0-.36-.29-.66-.66-.66s-.66.29-.66.66Z"/>
  <line class="st6" x1="431.76" y1="552" x2="431.76" y2="541.04"/>
  <path class="st14" d="M432.41,556.07c0-.36-.29-.66-.66-.66s-.66.29-.66.66c0,.36.29.66.66.66s.66-.29.66-.66Z"/>
  <line class="st6" x1="433.84" y1="312.17" x2="433.69" y2="320.94"/>
  <line class="st6" x1="429.68" y1="550.69" x2="429.83" y2="542.31"/>
  <line class="st6" x1="435.96" y1="311.41" x2="435.59" y2="321.82"/>
  <circle class="st14" cx="436.12" cy="307.07" r=".66"/>
  <line class="st6" x1="427.59" y1="550.89" x2="427.9" y2="542.01"/>
  <circle class="st14" cx="427.4" cy="555.99" r=".66"/>
  <line class="st6" x1="438.02" y1="312.05" x2="437.53" y2="321.35"/>
  <line class="st6" x1="425.5" y1="551.01" x2="425.99" y2="541.71"/>
  <line class="st6" x1="440.11" y1="312.17" x2="439.46" y2="321.47"/>
  <circle class="st14" cx="440.46" cy="307.29" r=".66"/>
  <line class="st6" x1="423.36" y1="551.71" x2="424.12" y2="540.77"/>
  <circle class="st14" cx="423.06" cy="555.77" r=".66"/>
  <line class="st6" x1="442.26" y1="311.52" x2="441.3" y2="322.44"/>
  <line class="st6" x1="421.36" y1="550.45" x2="422.12" y2="541.72"/>
  <line class="st6" x1="444.34" y1="311.83" x2="443.22" y2="322.51"/>
  <circle class="st14" cx="444.79" cy="307.67" r=".66"/>
  <line class="st6" x1="419.17" y1="551.34" x2="420.31" y2="540.44"/>
  <circle class="st14" cx="418.73" cy="555.39" r=".66"/>
  <line class="st6" x1="446.38" y1="312.5" x2="445.17" y2="322.3"/>
  <line class="st6" x1="417.15" y1="550.56" x2="418.35" y2="540.77"/>
  <line class="st6" x1="448.49" y1="312.5" x2="447.04" y2="322.82"/>
  <circle class="st14" cx="449.1" cy="308.2" r=".66"/>
  <line class="st6" x1="415.07" y1="550.28" x2="416.44" y2="540.52"/>
  <circle class="st14" cx="414.42" cy="554.86" r=".66"/>
  <line class="st6" x1="450.56" y1="312.81" x2="448.93" y2="323.1"/>
  <line class="st6" x1="413.04" y1="549.7" x2="414.5" y2="540.5"/>
  <line class="st6" x1="452.54" y1="313.7" x2="450.92" y2="322.88"/>
  <circle class="st14" cx="453.4" cy="308.88" r=".66"/>
  <line class="st6" x1="410.89" y1="549.9" x2="412.7" y2="539.65"/>
  <circle class="st14" cx="410.12" cy="554.18" r=".66"/>
  <line class="st6" x1="454.75" y1="313.27" x2="452.65" y2="324.04"/>
  <line class="st6" x1="408.93" y1="549.01" x2="410.71" y2="539.81"/>
  <line class="st6" x1="456.58" y1="314.76" x2="454.76" y2="323.34"/>
  <circle class="st14" cx="457.66" cy="309.71" r=".66"/>
  <line class="st6" x1="406.98" y1="548.11" x2="408.72" y2="539.91"/>
  <circle class="st14" cx="405.86" cy="553.35" r=".66"/>
  <line class="st6" x1="458.74" y1="314.68" x2="456.52" y2="324.3"/>
  <line class="st6" x1="404.72" y1="548.65" x2="407.06" y2="538.5"/>
  <line class="st6" x1="460.84" y1="314.9" x2="458.32" y2="325.01"/>
  <circle class="st14" cx="461.9" cy="310.69" r=".66"/>
  <line class="st6" x1="402.75" y1="547.89" x2="405.13" y2="538.32"/>
  <circle class="st14" cx="401.62" cy="552.37" r=".66"/>
  <line class="st6" x1="462.66" y1="316.22" x2="460.39" y2="324.7"/>
  <line class="st6" x1="401.02" y1="546.25" x2="402.98" y2="538.96"/>
  <line class="st6" x1="464.89" y1="315.99" x2="462.02" y2="326"/>
  <circle class="st14" cx="466.1" cy="311.82" r=".66"/>
  <line class="st6" x1="398.96" y1="545.91" x2="401.17" y2="538.23"/>
  <circle class="st14" cx="397.42" cy="551.24" r=".66"/>
  <line class="st6" x1="466.74" y1="317.11" x2="464.02" y2="326.02"/>
  <line class="st6" x1="396.78" y1="545.95" x2="399.5" y2="537.04"/>
  <line class="st6" x1="468.73" y1="317.74" x2="465.85" y2="326.6"/>
  <circle class="st14" cx="470.26" cy="313.09" r=".66"/>
  <line class="st6" x1="394.53" y1="546.1" x2="397.92" y2="535.68"/>
  <circle class="st14" cx="393.26" cy="549.97" r=".66"/>
  <line class="st6" x1="470.98" y1="317.62" x2="467.41" y2="327.99"/>
  <line class="st6" x1="392.9" y1="544.4" x2="395.75" y2="536.11"/>
  <line class="st6" x1="472.93" y1="318.43" x2="469.25" y2="328.52"/>
  <circle class="st14" cx="474.37" cy="314.5" r=".66"/>
  <line class="st6" x1="390.56" y1="544.73" x2="394.31" y2="534.44"/>
  <circle class="st14" cx="389.15" cy="548.56" r=".66"/>
  <line class="st6" x1="474.74" y1="319.57" x2="471.2" y2="328.79"/>
  <line class="st6" x1="388.78" y1="543.49" x2="392.32" y2="534.28"/>
  <line class="st6" x1="476.79" y1="320.09" x2="472.88" y2="329.74"/>
  <circle class="st14" cx="478.42" cy="316.06" r=".66"/>
  <line class="st6" x1="386.84" y1="542.72" x2="390.53" y2="533.57"/>
  <circle class="st14" cx="385.1" cy="547" r=".66"/>
  <line class="st6" x1="478.72" y1="320.89" x2="474.65" y2="330.48"/>
  <line class="st6" x1="385.01" y1="541.67" x2="388.65" y2="533.09"/>
  <line class="st6" x1="480.43" y1="322.23" x2="476.63" y2="330.74"/>
  <circle class="st14" cx="482.43" cy="317.76" r=".66"/>
  <line class="st6" x1="382.87" y1="541.33" x2="387.11" y2="531.82"/>
  <circle class="st14" cx="381.1" cy="545.3" r=".66"/>
  <line class="st6" x1="482.67" y1="322.35" x2="478.04" y2="332.28"/>
  <line class="st6" x1="381.18" y1="539.99" x2="385.14" y2="531.5"/>
  <line class="st6" x1="484.09" y1="324.24" x2="480.25" y2="332.12"/>
  <circle class="st14" cx="486.36" cy="319.6" r=".66"/>
  <line class="st6" x1="379.51" y1="538.65" x2="383.19" y2="531.11"/>
  <circle class="st14" cx="377.16" cy="543.46" r=".66"/>
  <line class="st6" x1="486.2" y1="324.68" x2="481.72" y2="333.47"/>
  <line class="st6" x1="377.19" y1="538.63" x2="381.92" y2="529.35"/>
  <line class="st6" x1="488.19" y1="325.4" x2="483.3" y2="334.6"/>
  <circle class="st14" cx="490.24" cy="321.57" r=".66"/>
  <line class="st6" x1="375.2" y1="537.9" x2="380.35" y2="528.22"/>
  <circle class="st14" cx="373.28" cy="541.49" r=".66"/>
  <line class="st6" x1="489.63" y1="327.12" x2="485.38" y2="334.79"/>
  <line class="st6" x1="373.75" y1="536.18" x2="378.27" y2="528.03"/>
  <line class="st6" x1="491.86" y1="327.44" x2="486.65" y2="336.46"/>
  <circle class="st14" cx="494.04" cy="323.68" r=".66"/>
  <line class="st6" x1="371.8" y1="535.39" x2="376.73" y2="526.84"/>
  <circle class="st14" cx="369.48" cy="539.38" r=".66"/>
  <line class="st6" x1="492.93" y1="329.73" x2="489.04" y2="336.2"/>
  <line class="st6" x1="370.14" y1="534.09" x2="374.93" y2="526.1"/>
  <line class="st6" x1="494.69" y1="330.81" x2="490.69" y2="337.22"/>
  <circle class="st14" cx="497.77" cy="325.92" r=".66"/>
  <line class="st6" x1="367.92" y1="533.69" x2="373.73" y2="524.4"/>
  <circle class="st14" cx="365.75" cy="537.14" r=".66"/>
  <line class="st6" x1="496.35" y1="332.08" x2="492.43" y2="338.11"/>
  <line class="st6" x1="366.74" y1="531.65" x2="371.52" y2="524.29"/>
  <line class="st6" x1="498.03" y1="333.28" x2="494.09" y2="339.12"/>
  <circle class="st14" cx="501.41" cy="328.29" r=".66"/>
  <line class="st6" x1="364.39" y1="531.4" x2="370.52" y2="522.32"/>
  <circle class="st14" cx="362.11" cy="534.77" r=".66"/>
  <line class="st6" x1="500.01" y1="334.06" x2="495.42" y2="340.61"/>
  <line class="st6" x1="362.98" y1="529.76" x2="368.63" y2="521.68"/>
  <line class="st6" x1="501.58" y1="335.43" x2="497.12" y2="341.57"/>
  <circle class="st14" cx="504.97" cy="330.78" r=".66"/>
  <line class="st6" x1="361.27" y1="528.55" x2="367.07" y2="520.57"/>
  <circle class="st14" cx="358.55" cy="532.28" r=".66"/>
  <line class="st6" x1="503.5" y1="336.33" x2="498.42" y2="343.07"/>
  <line class="st6" x1="359.75" y1="527.09" x2="365.36" y2="519.65"/>
  <line class="st6" x1="505.14" y1="337.61" x2="499.97" y2="344.22"/>
  <circle class="st14" cx="508.44" cy="333.4" r=".66"/>
  <line class="st6" x1="357.76" y1="526.25" x2="364.17" y2="518.04"/>
  <circle class="st14" cx="355.08" cy="529.66" r=".66"/>
  <line class="st6" x1="507.23" y1="338.33" x2="501.02" y2="346"/>
  <line class="st6" x1="356.45" y1="524.54" x2="362.34" y2="517.25"/>
  <line class="st6" x1="508.49" y1="340.08" x2="502.85" y2="346.8"/>
  <circle class="st14" cx="511.82" cy="336.13" r=".66"/>
  <line class="st6" x1="355.15" y1="522.83" x2="360.54" y2="516.41"/>
  <circle class="st14" cx="351.7" cy="526.93" r=".66"/>
  <line class="st6" x1="510.44" y1="341.02" x2="503.96" y2="348.47"/>
  <line class="st6" x1="352.9" y1="522.24" x2="359.74" y2="514.38"/>
  <line class="st6" x1="512.19" y1="342.21" x2="505.22" y2="349.95"/>
  <circle class="st14" cx="515.1" cy="338.99" r=".66"/>
  <line class="st6" x1="351.15" y1="521.06" x2="358.48" y2="512.91"/>
  <circle class="st14" cx="348.42" cy="524.07" r=".66"/>
  <line class="st6" x1="513.8" y1="343.55" x2="506.56" y2="351.31"/>
  <line class="st6" x1="350.16" y1="519.03" x2="356.51" y2="512.22"/>
  <line class="st6" x1="515.26" y1="345.07" x2="508.02" y2="352.56"/>
  <circle class="st14" cx="518.28" cy="341.95" r=".66"/>
  <line class="st6" x1="348.46" y1="517.79" x2="355.31" y2="510.7"/>
  <circle class="st14" cx="345.24" cy="521.11" r=".66"/>
  <line class="st6" x1="345.1" y1="515.22" x2="352.99" y2="507.6"/>
  <circle class="st14" cx="342.17" cy="518.04" r=".66"/>
  <line class="st6" x1="369.9" y1="478.99" x2="389.72" y2="463.78"/>
  <circle class="st14" cx="368.97" cy="479.7" r=".42"/>
  <line class="st6" x1="493.62" y1="384.06" x2="473.8" y2="399.27"/>
  <circle class="st14" cx="494.55" cy="383.35" r=".42"/>
  <line class="st6" x1="366" y1="473.42" x2="387.07" y2="460"/>
  <circle class="st14" cx="365.01" cy="474.05" r=".42"/>
  <line class="st6" x1="497.52" y1="389.64" x2="476.45" y2="403.06"/>
  <circle class="st14" cx="498.51" cy="389.01" r=".42"/>
  <line class="st6" x1="362.6" y1="467.53" x2="384.76" y2="456"/>
  <circle class="st14" cx="361.55" cy="468.07" r=".42"/>
  <line class="st6" x1="500.92" y1="395.53" x2="478.76" y2="407.06"/>
  <circle class="st14" cx="501.96" cy="394.99" r=".42"/>
  <line class="st6" x1="359.73" y1="461.37" x2="382.81" y2="451.81"/>
  <circle class="st14" cx="358.64" cy="461.81" r=".42"/>
  <line class="st6" x1="503.79" y1="401.69" x2="480.71" y2="411.25"/>
  <circle class="st14" cx="504.88" cy="401.25" r=".42"/>
  <line class="st6" x1="357.4" y1="454.97" x2="381.23" y2="447.46"/>
  <circle class="st14" cx="356.28" cy="455.32" r=".42"/>
  <line class="st6" x1="506.12" y1="408.08" x2="482.29" y2="415.6"/>
  <circle class="st14" cx="507.24" cy="407.74" r=".42"/>
  <line class="st6" x1="355.64" y1="448.4" x2="380.03" y2="443"/>
  <circle class="st14" cx="354.49" cy="448.65" r=".42"/>
  <line class="st6" x1="507.88" y1="414.65" x2="483.49" y2="420.06"/>
  <circle class="st14" cx="509.03" cy="414.41" r=".42"/>
  <line class="st6" x1="354.46" y1="441.71" x2="379.23" y2="438.44"/>
  <circle class="st14" cx="353.29" cy="441.85" r=".42"/>
  <line class="st6" x1="509.06" y1="421.35" x2="484.29" y2="424.61"/>
  <circle class="st14" cx="510.23" cy="421.21" r=".42"/>
  <line class="st6" x1="353.86" y1="434.93" x2="378.82" y2="433.84"/>
  <circle class="st14" cx="352.69" cy="434.97" r=".42"/>
  <line class="st6" x1="509.65" y1="428.13" x2="484.7" y2="429.22"/>
  <circle class="st14" cx="510.83" cy="428.08" r=".42"/>
  <line class="st6" x1="353.86" y1="428.13" x2="378.82" y2="429.22"/>
  <circle class="st14" cx="352.69" cy="428.07" r=".42"/>
  <line class="st6" x1="509.65" y1="434.93" x2="484.7" y2="433.84"/>
  <circle class="st14" cx="510.83" cy="434.99" r=".42"/>
  <line class="st6" x1="354.46" y1="421.35" x2="379.23" y2="424.61"/>
  <circle class="st14" cx="353.29" cy="421.19" r=".42"/>
  <line class="st6" x1="509.06" y1="441.71" x2="484.29" y2="438.44"/>
  <circle class="st14" cx="510.23" cy="441.87" r=".42"/>
  <line class="st6" x1="355.64" y1="414.65" x2="380.03" y2="420.06"/>
  <circle class="st14" cx="354.49" cy="414.39" r=".42"/>
  <line class="st6" x1="507.88" y1="448.4" x2="483.49" y2="443"/>
  <circle class="st14" cx="509.03" cy="448.67" r=".42"/>
  <line class="st6" x1="357.4" y1="408.08" x2="381.23" y2="415.6"/>
  <circle class="st14" cx="356.28" cy="407.72" r=".42"/>
  <line class="st6" x1="506.12" y1="454.97" x2="482.29" y2="447.46"/>
  <circle class="st14" cx="507.24" cy="455.33" r=".42"/>
  <line class="st6" x1="359.73" y1="401.69" x2="382.81" y2="411.25"/>
  <circle class="st14" cx="358.64" cy="401.24" r=".42"/>
  <line class="st6" x1="503.79" y1="461.37" x2="480.71" y2="451.81"/>
  <circle class="st14" cx="504.88" cy="461.82" r=".42"/>
  <line class="st6" x1="362.6" y1="395.53" x2="384.76" y2="407.06"/>
  <circle class="st14" cx="361.56" cy="394.98" r=".42"/>
  <line class="st6" x1="500.92" y1="467.53" x2="478.76" y2="456"/>
  <circle class="st14" cx="501.96" cy="468.08" r=".42"/>
  <line class="st6" x1="366" y1="389.64" x2="387.07" y2="403.06"/>
  <circle class="st14" cx="365.01" cy="389" r=".42"/>
  <line class="st6" x1="497.52" y1="473.42" x2="476.45" y2="460"/>
  <circle class="st14" cx="498.51" cy="474.06" r=".42"/>
  <line class="st6" x1="369.9" y1="384.06" x2="389.72" y2="399.27"/>
  <circle class="st14" cx="368.97" cy="383.34" r=".42"/>
  <line class="st6" x1="493.62" y1="478.99" x2="473.8" y2="463.78"/>
  <circle class="st14" cx="494.54" cy="479.71" r=".42"/>
  <line class="st6" x1="374.27" y1="378.85" x2="392.69" y2="395.73"/>
  <circle class="st14" cx="373.41" cy="378.05" r=".42"/>
  <line class="st6" x1="489.24" y1="484.2" x2="470.83" y2="467.33"/>
  <circle class="st14" cx="490.11" cy="485" r=".42"/>
  <line class="st6" x1="379.08" y1="374.04" x2="395.96" y2="392.46"/>
  <circle class="st14" cx="378.3" cy="373.17" r=".42"/>
  <line class="st6" x1="484.43" y1="489.01" x2="467.56" y2="470.59"/>
  <circle class="st14" cx="485.22" cy="489.88" r=".42"/>
  <line class="st6" x1="384.29" y1="369.67" x2="399.5" y2="389.49"/>
  <circle class="st14" cx="383.58" cy="368.74" r=".42"/>
  <line class="st6" x1="479.22" y1="493.39" x2="464.02" y2="473.57"/>
  <circle class="st14" cx="479.93" cy="494.32" r=".42"/>
  <line class="st6" x1="389.87" y1="365.77" x2="403.29" y2="386.84"/>
  <circle class="st14" cx="389.24" cy="364.78" r=".42"/>
  <line class="st6" x1="473.65" y1="497.29" x2="460.23" y2="476.22"/>
  <circle class="st14" cx="474.28" cy="498.28" r=".42"/>
  <line class="st6" x1="395.76" y1="362.37" x2="407.29" y2="384.53"/>
  <circle class="st14" cx="395.22" cy="361.32" r=".42"/>
  <line class="st6" x1="467.76" y1="500.69" x2="456.23" y2="478.53"/>
  <circle class="st14" cx="468.3" cy="501.73" r=".42"/>
  <line class="st6" x1="401.92" y1="359.49" x2="411.48" y2="382.58"/>
  <circle class="st14" cx="401.48" cy="358.41" r=".42"/>
  <line class="st6" x1="461.6" y1="503.56" x2="452.04" y2="480.48"/>
  <circle class="st14" cx="462.04" cy="504.65" r=".42"/>
  <line class="st6" x1="408.31" y1="357.17" x2="415.83" y2="380.99"/>
  <circle class="st14" cx="407.97" cy="356.05" r=".42"/>
  <line class="st6" x1="455.21" y1="505.89" x2="447.69" y2="482.06"/>
  <circle class="st14" cx="455.55" cy="507.01" r=".42"/>
  <line class="st6" x1="414.88" y1="355.41" x2="420.29" y2="379.8"/>
  <circle class="st14" cx="414.64" cy="354.26" r=".42"/>
  <line class="st6" x1="448.64" y1="507.65" x2="443.23" y2="483.26"/>
  <circle class="st14" cx="448.88" cy="508.8" r=".42"/>
  <line class="st6" x1="421.58" y1="354.23" x2="424.84" y2="379"/>
  <circle class="st14" cx="421.44" cy="353.06" r=".42"/>
  <line class="st6" x1="441.94" y1="508.83" x2="438.68" y2="484.06"/>
  <circle class="st14" cx="442.08" cy="510" r=".42"/>
  <line class="st6" x1="428.36" y1="353.63" x2="429.45" y2="378.59"/>
  <circle class="st14" cx="428.31" cy="352.46" r=".42"/>
  <line class="st6" x1="435.16" y1="509.42" x2="434.07" y2="484.46"/>
  <circle class="st14" cx="435.21" cy="510.6" r=".42"/>
  <line class="st6" x1="435.16" y1="353.63" x2="434.07" y2="378.59"/>
  <circle class="st14" cx="435.22" cy="352.46" r=".42"/>
  <line class="st6" x1="428.36" y1="509.42" x2="429.45" y2="484.46"/>
  <circle class="st14" cx="428.3" cy="510.6" r=".42"/>
  <line class="st6" x1="441.94" y1="354.23" x2="438.68" y2="379"/>
  <circle class="st14" cx="442.1" cy="353.06" r=".42"/>
  <line class="st6" x1="421.58" y1="508.83" x2="424.84" y2="484.06"/>
  <circle class="st14" cx="421.42" cy="510" r=".42"/>
  <line class="st6" x1="448.64" y1="355.41" x2="443.23" y2="379.8"/>
  <circle class="st14" cx="448.9" cy="354.26" r=".42"/>
  <line class="st6" x1="414.88" y1="507.65" x2="420.29" y2="483.26"/>
  <circle class="st14" cx="414.62" cy="508.8" r=".42"/>
  <line class="st6" x1="455.21" y1="357.17" x2="447.69" y2="380.99"/>
  <circle class="st14" cx="455.57" cy="356.05" r=".42"/>
  <line class="st6" x1="408.31" y1="505.89" x2="415.83" y2="482.06"/>
  <circle class="st14" cx="407.95" cy="507.01" r=".42"/>
  <line class="st6" x1="461.6" y1="359.49" x2="452.04" y2="382.58"/>
  <circle class="st14" cx="462.05" cy="358.41" r=".42"/>
  <line class="st6" x1="401.92" y1="503.56" x2="411.48" y2="480.48"/>
  <circle class="st14" cx="401.47" cy="504.65" r=".42"/>
  <line class="st6" x1="467.76" y1="362.37" x2="456.23" y2="384.53"/>
  <circle class="st14" cx="468.31" cy="361.33" r=".42"/>
  <line class="st6" x1="395.76" y1="500.69" x2="407.29" y2="478.53"/>
  <circle class="st14" cx="395.21" cy="501.73" r=".42"/>
  <line class="st6" x1="473.65" y1="365.77" x2="460.23" y2="386.84"/>
  <circle class="st14" cx="474.29" cy="364.78" r=".42"/>
  <line class="st6" x1="389.87" y1="497.29" x2="403.29" y2="476.22"/>
  <circle class="st14" cx="389.23" cy="498.27" r=".42"/>
  <line class="st6" x1="479.22" y1="369.67" x2="464.02" y2="389.49"/>
  <circle class="st14" cx="479.95" cy="368.74" r=".42"/>
  <line class="st6" x1="384.29" y1="493.39" x2="399.5" y2="473.57"/>
  <circle class="st14" cx="383.57" cy="494.31" r=".42"/>
  <line class="st6" x1="484.43" y1="374.04" x2="467.56" y2="392.46"/>
  <circle class="st14" cx="485.23" cy="373.18" r=".42"/>
  <line class="st6" x1="379.08" y1="489.01" x2="395.96" y2="470.59"/>
  <circle class="st14" cx="378.29" cy="489.88" r=".42"/>
  <g>
    <line class="st1" x1="535.73" y1="431.53" x2="512.38" y2="431.53"/>
    <line class="st1" x1="535.73" y1="431.53" x2="507.68" y2="459.58"/>
    <line class="st1" x1="535.73" y1="431.53" x2="492.64" y2="484.61"/>
    <line class="st1" x1="535.72" y1="431.52" x2="511.48" y2="445.1"/>
    <line class="st1" x1="535.73" y1="431.53" x2="512.2" y2="437.55"/>
    <line class="st1" x1="535.73" y1="431.53" x2="507.38" y2="403.18"/>
    <line class="st1" x1="535.73" y1="431.53" x2="492.64" y2="378.44"/>
    <line class="st1" x1="535.72" y1="431.54" x2="511.29" y2="417.85"/>
    <line class="st1" x1="535.73" y1="431.53" x2="512.36" y2="425.55"/>
    <line class="st1" x1="327.79" y1="431.53" x2="351.14" y2="431.53"/>
    <line class="st1" x1="327.79" y1="431.53" x2="355.84" y2="403.48"/>
    <line class="st1" x1="327.79" y1="431.53" x2="370.87" y2="378.44"/>
    <line class="st1" x1="327.8" y1="431.54" x2="352.04" y2="417.95"/>
    <line class="st1" x1="327.79" y1="431.53" x2="351.32" y2="425.51"/>
    <line class="st1" x1="327.79" y1="431.53" x2="356.13" y2="459.87"/>
    <line class="st1" x1="327.79" y1="431.53" x2="370.87" y2="484.61"/>
    <line class="st1" x1="327.8" y1="431.52" x2="352.23" y2="445.21"/>
    <line class="st1" x1="327.79" y1="431.53" x2="351.16" y2="437.51"/>
    <line class="st1" x1="521.8" y1="483.51" x2="501.58" y2="471.84"/>
    <line class="st1" x1="521.8" y1="483.51" x2="483.49" y2="493.78"/>
    <line class="st1" x1="521.8" y1="483.51" x2="457.95" y2="507.94"/>
    <line class="st1" x1="521.8" y1="483.5" x2="494.01" y2="483.15"/>
    <line class="st1" x1="521.8" y1="483.51" x2="498.41" y2="476.97"/>
    <line class="st1" x1="521.8" y1="483.51" x2="511.43" y2="444.79"/>
    <line class="st1" x1="521.8" y1="483.51" x2="511.03" y2="416"/>
    <line class="st1" x1="521.79" y1="483.52" x2="507.48" y2="459.45"/>
    <line class="st1" x1="521.8" y1="483.51" x2="504.55" y2="466.65"/>
    <line class="st1" x1="341.72" y1="379.54" x2="361.94" y2="391.22"/>
    <line class="st1" x1="341.72" y1="379.54" x2="380.03" y2="369.28"/>
    <line class="st1" x1="341.72" y1="379.54" x2="405.57" y2="355.11"/>
    <line class="st1" x1="341.72" y1="379.56" x2="369.51" y2="379.91"/>
    <line class="st1" x1="341.72" y1="379.54" x2="365.1" y2="386.09"/>
    <line class="st1" x1="341.72" y1="379.54" x2="352.09" y2="418.26"/>
    <line class="st1" x1="341.72" y1="379.54" x2="352.49" y2="447.06"/>
    <line class="st1" x1="341.73" y1="379.54" x2="356.04" y2="403.61"/>
    <line class="st1" x1="341.72" y1="379.54" x2="358.97" y2="396.41"/>
    <line class="st1" x1="483.74" y1="521.57" x2="472.07" y2="501.35"/>
    <line class="st1" x1="483.74" y1="521.57" x2="445.43" y2="511.3"/>
    <line class="st1" x1="483.74" y1="521.57" x2="416.23" y2="510.8"/>
    <line class="st1" x1="483.75" y1="521.56" x2="459.86" y2="507.36"/>
    <line class="st1" x1="483.74" y1="521.57" x2="466.77" y2="504.21"/>
    <line class="st1" x1="483.74" y1="521.57" x2="494.12" y2="482.85"/>
    <line class="st1" x1="483.74" y1="521.57" x2="508.17" y2="457.71"/>
    <line class="st1" x1="483.73" y1="521.57" x2="483.37" y2="493.57"/>
    <line class="st1" x1="483.74" y1="521.57" x2="477.24" y2="498.34"/>
    <line class="st1" x1="379.77" y1="341.49" x2="391.45" y2="361.71"/>
    <line class="st1" x1="379.77" y1="341.49" x2="418.09" y2="351.75"/>
    <line class="st1" x1="379.77" y1="341.49" x2="447.29" y2="352.26"/>
    <line class="st1" x1="379.77" y1="341.5" x2="403.66" y2="355.7"/>
    <line class="st1" x1="379.77" y1="341.49" x2="396.75" y2="358.85"/>
    <line class="st1" x1="379.77" y1="341.49" x2="369.4" y2="380.21"/>
    <line class="st1" x1="379.77" y1="341.49" x2="355.34" y2="405.34"/>
    <line class="st1" x1="379.79" y1="341.49" x2="380.15" y2="369.49"/>
    <line class="st1" x1="379.77" y1="341.49" x2="386.28" y2="364.72"/>
    <line class="st1" x1="431.76" y1="535.5" x2="431.76" y2="512.15"/>
    <line class="st1" x1="431.76" y1="535.5" x2="403.71" y2="507.45"/>
    <line class="st1" x1="431.76" y1="535.5" x2="378.68" y2="492.41"/>
    <line class="st1" x1="431.77" y1="535.49" x2="418.18" y2="511.25"/>
    <line class="st1" x1="431.76" y1="535.5" x2="425.74" y2="511.97"/>
    <line class="st1" x1="431.76" y1="535.5" x2="460.1" y2="507.15"/>
    <line class="st1" x1="431.76" y1="535.5" x2="484.84" y2="492.41"/>
    <line class="st1" x1="431.75" y1="535.49" x2="445.44" y2="511.06"/>
    <line class="st1" x1="431.76" y1="535.5" x2="437.74" y2="512.13"/>
    <line class="st1" x1="431.76" y1="327.56" x2="431.76" y2="350.91"/>
    <line class="st1" x1="431.76" y1="327.56" x2="459.81" y2="355.61"/>
    <line class="st1" x1="431.76" y1="327.56" x2="484.84" y2="370.64"/>
    <line class="st1" x1="431.75" y1="327.57" x2="445.34" y2="351.81"/>
    <line class="st1" x1="431.76" y1="327.56" x2="437.78" y2="351.09"/>
    <line class="st1" x1="431.76" y1="327.56" x2="403.41" y2="355.9"/>
    <line class="st1" x1="431.76" y1="327.56" x2="378.68" y2="370.64"/>
    <line class="st1" x1="431.77" y1="327.57" x2="418.08" y2="351.99"/>
    <line class="st1" x1="431.76" y1="327.56" x2="425.78" y2="350.93"/>
    <line class="st1" x1="379.77" y1="521.57" x2="391.45" y2="501.35"/>
    <line class="st1" x1="379.77" y1="521.57" x2="369.51" y2="483.26"/>
    <line class="st1" x1="379.77" y1="521.57" x2="355.34" y2="457.71"/>
    <line class="st1" x1="379.79" y1="521.57" x2="380.14" y2="493.78"/>
    <line class="st1" x1="379.77" y1="521.57" x2="386.32" y2="498.18"/>
    <line class="st1" x1="379.77" y1="521.57" x2="418.49" y2="511.19"/>
    <line class="st1" x1="379.77" y1="521.57" x2="447.29" y2="510.8"/>
    <line class="st1" x1="379.77" y1="521.56" x2="403.84" y2="507.25"/>
    <line class="st1" x1="379.77" y1="521.57" x2="396.64" y2="504.32"/>
    <line class="st1" x1="483.74" y1="341.49" x2="472.07" y2="361.71"/>
    <line class="st1" x1="483.74" y1="341.49" x2="494.01" y2="379.8"/>
    <line class="st1" x1="483.74" y1="341.49" x2="508.17" y2="405.34"/>
    <line class="st1" x1="483.73" y1="341.49" x2="483.38" y2="369.28"/>
    <line class="st1" x1="483.74" y1="341.49" x2="477.2" y2="364.87"/>
    <line class="st1" x1="483.74" y1="341.49" x2="445.02" y2="351.86"/>
    <line class="st1" x1="483.74" y1="341.49" x2="416.23" y2="352.26"/>
    <line class="st1" x1="483.75" y1="341.5" x2="459.68" y2="355.81"/>
    <line class="st1" x1="483.74" y1="341.49" x2="466.88" y2="358.74"/>
    <line class="st1" x1="341.72" y1="483.51" x2="361.94" y2="471.84"/>
    <line class="st1" x1="341.72" y1="483.51" x2="351.98" y2="445.2"/>
    <line class="st1" x1="341.72" y1="483.51" x2="352.49" y2="416"/>
    <line class="st1" x1="341.73" y1="483.52" x2="355.93" y2="459.63"/>
    <line class="st1" x1="341.72" y1="483.51" x2="359.08" y2="466.53"/>
    <line class="st1" x1="341.72" y1="483.51" x2="380.44" y2="493.89"/>
    <line class="st1" x1="341.72" y1="483.51" x2="405.57" y2="507.94"/>
    <line class="st1" x1="341.72" y1="483.5" x2="369.72" y2="483.14"/>
    <line class="st1" x1="341.72" y1="483.51" x2="364.95" y2="477.01"/>
    <line class="st1" x1="521.8" y1="379.54" x2="501.58" y2="391.22"/>
    <line class="st1" x1="521.8" y1="379.54" x2="511.53" y2="417.86"/>
    <line class="st1" x1="521.8" y1="379.54" x2="511.03" y2="447.06"/>
    <line class="st1" x1="521.79" y1="379.54" x2="507.59" y2="403.43"/>
    <line class="st1" x1="521.8" y1="379.54" x2="504.44" y2="396.52"/>
    <line class="st1" x1="521.8" y1="379.54" x2="483.08" y2="369.17"/>
    <line class="st1" x1="521.8" y1="379.54" x2="457.95" y2="355.11"/>
    <line class="st1" x1="521.8" y1="379.56" x2="493.8" y2="379.91"/>
    <line class="st1" x1="521.8" y1="379.54" x2="498.57" y2="386.05"/>
  </g>
  <line class="st2" x1="341.26" y1="522.03" x2="274.92" y2="588.37"/>
  <line class="st2" x1="522.26" y1="341.03" x2="589.68" y2="273.61"/>
  <line class="st2" x1="267.2" y1="584.98" x2="240.09" y2="610.26"/>
  <line class="st2" x1="338.16" y1="518.81" x2="298.79" y2="555.52"/>
  <line class="st2" x1="525.36" y1="344.24" x2="565.87" y2="306.47"/>
  <line class="st2" x1="335.17" y1="515.49" x2="289.93" y2="554.82"/>
  <line class="st2" x1="528.35" y1="347.56" x2="578.5" y2="303.97"/>
  <line class="st2" x1="332.3" y1="512.07" x2="280.19" y2="554.26"/>
  <line class="st2" x1="531.22" y1="350.99" x2="572.07" y2="317.91"/>
  <line class="st2" x1="329.55" y1="508.55" x2="269.62" y2="553.71"/>
  <line class="st2" x1="533.97" y1="354.51" x2="598.89" y2="305.59"/>
  <line class="st2" x1="326.92" y1="504.94" x2="263.15" y2="549.59"/>
  <line class="st2" x1="536.6" y1="358.12" x2="623.81" y2="297.06"/>
  <line class="st2" x1="324.42" y1="501.23" x2="262.91" y2="541.18"/>
  <line class="st2" x1="539.1" y1="361.82" x2="588.05" y2="330.03"/>
  <polyline class="st2" points="322.06 497.45 272.02 527.51 260.41 534.48"/>
  <line class="st2" x1="635.56" y1="309.07" x2="646.92" y2="302.25"/>
  <line class="st2" x1="541.46" y1="365.61" x2="623.56" y2="316.28"/>
  <line class="st2" x1="319.82" y1="493.58" x2="261.25" y2="526.04"/>
  <line class="st2" x1="543.7" y1="369.48" x2="609.85" y2="332.81"/>
  <line class="st2" x1="317.72" y1="489.63" x2="260.58" y2="518.75"/>
  <line class="st2" x1="545.79" y1="373.43" x2="601.27" y2="345.16"/>
  <line class="st2" x1="315.77" y1="485.62" x2="261.32" y2="511"/>
  <line class="st2" x1="547.75" y1="377.44" x2="618.83" y2="344.3"/>
  <line class="st2" x1="313.95" y1="481.54" x2="253" y2="507.41"/>
  <line class="st2" x1="549.57" y1="381.52" x2="635.19" y2="345.18"/>
  <line class="st2" x1="312.28" y1="477.39" x2="245.88" y2="502.88"/>
  <line class="st2" x1="551.24" y1="385.66" x2="646.32" y2="349.17"/>
  <line class="st2" x1="310.75" y1="473.2" x2="268.91" y2="487.6"/>
  <line class="st2" x1="552.77" y1="389.86" x2="651.34" y2="355.92"/>
  <line class="st2" x1="309.37" y1="468.95" x2="252.63" y2="486.3"/>
  <line class="st2" x1="554.15" y1="394.11" x2="655.24" y2="363.2"/>
  <line class="st2" x1="308.14" y1="464.65" x2="260.35" y2="477.46"/>
  <line class="st2" x1="555.38" y1="398.4" x2="655.96" y2="371.45"/>
  <path class="st2" d="M307.06,460.32"/>
  <line class="st2" x1="556.46" y1="402.74" x2="633.58" y2="384.93"/>
  <line class="st2" x1="306.13" y1="455.95" x2="269.26" y2="463.12"/>
  <line class="st2" x1="557.39" y1="407.11" x2="651.52" y2="388.81"/>
  <line class="st2" x1="305.35" y1="451.55" x2="248.5" y2="460.55"/>
  <line class="st2" x1="558.17" y1="411.51" x2="629.15" y2="400.26"/>
  <line class="st2" x1="304.73" y1="447.13" x2="267.39" y2="451.71"/>
  <line class="st2" x1="558.79" y1="415.93" x2="622.68" y2="408.09"/>
  <line class="st2" x1="304.26" y1="442.68" x2="206.19" y2="451.26"/>
  <line class="st2" x1="559.26" y1="420.37" x2="617.85" y2="415.25"/>
  <line class="st2" x1="303.95" y1="438.23" x2="213.05" y2="442.99"/>
  <line class="st2" x1="559.57" y1="424.83" x2="620.28" y2="421.65"/>
  <line class="st2" x1="303.79" y1="433.76" x2="202.82" y2="435.52"/>
  <line class="st2" x1="559.72" y1="429.3" x2="622.57" y2="428.2"/>
  <line class="st2" x1="303.79" y1="429.3" x2="211.37" y2="427.68"/>
  <line class="st2" x1="559.72" y1="433.76" x2="643.48" y2="435.22"/>
  <line class="st2" x1="303.95" y1="424.83" x2="198.9" y2="419.32"/>
  <line class="st2" x1="654.73" y1="443.21" x2="673.61" y2="444.2"/>
  <line class="st2" x1="559.57" y1="438.23" x2="622.3" y2="441.51"/>
  <path class="st2" d="M304.26,420.37"/>
  <line class="st2" x1="559.26" y1="442.68" x2="646.13" y2="450.28"/>
  <line class="st2" x1="304.73" y1="415.93" x2="210.97" y2="404.42"/>
  <line class="st2" x1="558.79" y1="447.13" x2="649.6" y2="458.28"/>
  <line class="st2" x1="305.35" y1="411.51" x2="222.57" y2="398.4"/>
  <line class="st2" x1="558.17" y1="451.55" x2="640.43" y2="464.58"/>
  <line class="st2" x1="306.13" y1="407.11" x2="227.87" y2="391.9"/>
  <line class="st2" x1="557.39" y1="455.95" x2="603.87" y2="464.98"/>
  <line class="st2" x1="307.06" y1="402.74" x2="230.36" y2="385.03"/>
  <line class="st2" x1="631.33" y1="477.6" x2="643.27" y2="480.36"/>
  <line class="st2" x1="556.46" y1="460.32" x2="613.04" y2="473.38"/>
  <line class="st2" x1="308.14" y1="398.4" x2="199.8" y2="369.38"/>
  <line class="st2" x1="555.38" y1="464.65" x2="652.68" y2="490.72"/>
  <line class="st2" x1="309.37" y1="394.11" x2="235.91" y2="371.65"/>
  <line class="st2" x1="554.15" y1="468.95" x2="619.89" y2="489.04"/>
  <line class="st2" x1="235.6" y1="363.99" x2="212.52" y2="356.04"/>
  <line class="st2" x1="310.75" y1="389.86" x2="249.71" y2="368.85"/>
  <line class="st2" x1="552.77" y1="473.2" x2="605.16" y2="491.23"/>
  <line class="st2" x1="312.28" y1="385.66" x2="188.76" y2="338.25"/>
  <line class="st2" x1="659.96" y1="519.13" x2="668.23" y2="522.3"/>
  <line class="st2" x1="551.24" y1="477.39" x2="650.07" y2="515.33"/>
  <line class="st2" x1="313.95" y1="381.52" x2="209.35" y2="337.12"/>
  <line class="st2" x1="549.57" y1="481.54" x2="658.79" y2="527.9"/>
  <line class="st2" x1="315.77" y1="377.44" x2="218.75" y2="332.2"/>
  <line class="st2" x1="547.75" y1="485.62" x2="631.1" y2="524.48"/>
  <line class="st2" x1="317.72" y1="373.43" x2="230.77" y2="329.12"/>
  <line class="st2" x1="545.79" y1="489.63" x2="626.01" y2="530.51"/>
  <line class="st2" x1="319.82" y1="369.48" x2="234.75" y2="322.32"/>
  <line class="st2" x1="543.7" y1="493.58" x2="622.01" y2="536.99"/>
  <line class="st2" x1="322.06" y1="365.61" x2="226.63" y2="308.27"/>
  <line class="st2" x1="541.46" y1="497.45" x2="603.63" y2="534.8"/>
  <line class="st2" x1="324.42" y1="361.82" x2="244.96" y2="310.22"/>
  <line class="st2" x1="539.1" y1="501.23" x2="622.08" y2="555.12"/>
  <line class="st2" x1="326.92" y1="358.12" x2="228.83" y2="289.44"/>
  <line class="st2" x1="536.6" y1="504.94" x2="607.03" y2="554.25"/>
  <line class="st2" x1="329.55" y1="354.51" x2="252.52" y2="296.46"/>
  <line class="st2" x1="533.97" y1="508.55" x2="599.69" y2="558.08"/>
  <line class="st2" x1="332.3" y1="350.99" x2="233.92" y2="271.33"/>
  <line class="st2" x1="531.22" y1="512.07" x2="624.2" y2="587.36"/>
  <line class="st2" x1="335.17" y1="347.56" x2="244.48" y2="268.73"/>
  <line class="st2" x1="528.35" y1="515.49" x2="625.69" y2="600.11"/>
  <line class="st2" x1="338.16" y1="344.24" x2="271.44" y2="282.03"/>
  <line class="st2" x1="525.36" y1="518.81" x2="608.89" y2="596.71"/>
  <line class="st2" x1="284.48" y1="284.25" x2="246.45" y2="246.22"/>
  <line class="st2" x1="341.26" y1="341.03" x2="313.53" y2="313.3"/>
  <line class="st2" x1="522.26" y1="522.03" x2="608" y2="607.77"/>
  <line class="st2" x1="344.47" y1="337.93" x2="267.31" y2="255.17"/>
  <line class="st2" x1="519.04" y1="525.13" x2="599.82" y2="611.75"/>
  <line class="st2" x1="347.79" y1="334.94" x2="271.14" y2="246.76"/>
  <line class="st2" x1="515.72" y1="528.12" x2="594.49" y2="618.73"/>
  <line class="st2" x1="351.22" y1="332.07" x2="273.08" y2="235.58"/>
  <line class="st2" x1="512.3" y1="530.99" x2="543.71" y2="569.78"/>
  <line class="st2" x1="354.74" y1="329.32" x2="294.45" y2="249.32"/>
  <line class="st2" x1="508.78" y1="533.74" x2="580.01" y2="628.26"/>
  <line class="st2" x1="358.35" y1="326.69" x2="322.57" y2="275.59"/>
  <line class="st2" x1="505.17" y1="536.37" x2="572.47" y2="632.48"/>
  <line class="st2" x1="362.05" y1="324.19" x2="313.66" y2="249.66"/>
  <line class="st2" x1="501.46" y1="538.87" x2="567.06" y2="639.87"/>
  <line class="st2" x1="315.76" y1="238.47" x2="296.78" y2="206.89"/>
  <line class="st2" x1="365.84" y1="321.82" x2="320.18" y2="245.82"/>
  <line class="st2" x1="497.68" y1="541.23" x2="545.15" y2="620.24"/>
  <line class="st2" x1="369.71" y1="319.59" x2="340.56" y2="267"/>
  <line class="st2" x1="493.81" y1="543.47" x2="552.26" y2="648.91"/>
  <line class="st2" x1="373.66" y1="317.49" x2="334.84" y2="241.31"/>
  <line class="st2" x1="489.86" y1="545.56" x2="540.29" y2="644.52"/>
  <line class="st2" x1="329.11" y1="211.41" x2="321" y2="194.01"/>
  <line class="st2" x1="377.67" y1="315.54" x2="337.47" y2="229.33"/>
  <line class="st2" x1="485.85" y1="547.52" x2="534.63" y2="652.14"/>
  <line class="st2" x1="381.75" y1="313.72" x2="343.89" y2="224.52"/>
  <line class="st2" x1="481.77" y1="549.34" x2="530.17" y2="663.36"/>
  <line class="st2" x1="385.89" y1="312.05" x2="344.95" y2="205.38"/>
  <line class="st2" x1="477.63" y1="551.01" x2="512.7" y2="642.4"/>
  <line class="st2" x1="390.09" y1="310.52" x2="353.15" y2="203.22"/>
  <line class="st2" x1="473.43" y1="552.54" x2="494.14" y2="612.68"/>
  <line class="st2" x1="394.34" y1="309.14" x2="372.47" y2="237.6"/>
  <line class="st2" x1="469.18" y1="553.92" x2="494.93" y2="638.14"/>
  <line class="st2" x1="398.63" y1="307.91" x2="367.45" y2="191.52"/>
  <line class="st2" x1="464.88" y1="555.15" x2="491.1" y2="652.99"/>
  <line class="st2" x1="402.97" y1="306.82" x2="378.02" y2="198.74"/>
  <line class="st2" x1="460.55" y1="556.23" x2="487.77" y2="674.12"/>
  <line class="st2" x1="407.34" y1="305.9" x2="391.17" y2="222.74"/>
  <line class="st2" x1="456.18" y1="557.16" x2="479.4" y2="676.6"/>
  <line class="st2" x1="411.74" y1="305.12" x2="394.93" y2="199.02"/>
  <line class="st2" x1="451.78" y1="557.94" x2="467.67" y2="658.24"/>
  <line class="st2" x1="416.16" y1="304.5" x2="402.53" y2="193.45"/>
  <line class="st2" x1="447.36" y1="558.56" x2="457.03" y2="637.36"/>
  <line class="st2" x1="420.61" y1="304.03" x2="412.65" y2="213.11"/>
  <line class="st2" x1="442.91" y1="559.03" x2="452.14" y2="664.44"/>
  <line class="st2" x1="425.06" y1="303.72" x2="420.72" y2="220.88"/>
  <line class="st2" x1="438.46" y1="559.34" x2="442.49" y2="636.33"/>
  <line class="st2" x1="429.53" y1="303.56" x2="428.06" y2="219.81"/>
  <line class="st2" x1="433.99" y1="559.49" x2="435.63" y2="653.25"/>
  <line class="st2" x1="433.99" y1="303.56" x2="435.48" y2="218.6"/>
  <line class="st2" x1="429.53" y1="559.49" x2="427.56" y2="672.04"/>
  <line class="st2" x1="438.46" y1="303.72" x2="443.11" y2="214.94"/>
  <line class="st2" x1="425.06" y1="559.34" x2="419.21" y2="670.95"/>
  <line class="st2" x1="442.91" y1="304.03" x2="451.57" y2="205.1"/>
  <line class="st2" x1="420.61" y1="559.03" x2="413.21" y2="643.5"/>
  <line class="st2" x1="447.36" y1="304.5" x2="458.08" y2="217.16"/>
  <line class="st2" x1="416.16" y1="558.56" x2="404.21" y2="655.94"/>
  <line class="st2" x1="451.78" y1="305.12" x2="465.3" y2="219.74"/>
  <line class="st2" x1="411.74" y1="557.94" x2="401" y2="625.73"/>
  <line class="st2" x1="456.18" y1="305.9" x2="470.53" y2="232.07"/>
  <line class="st2" x1="407.34" y1="557.16" x2="384.56" y2="674.33"/>
  <line class="st2" x1="460.55" y1="306.82" x2="478.52" y2="229"/>
  <line class="st2" x1="402.97" y1="556.23" x2="375.76" y2="674.1"/>
  <line class="st2" x1="464.88" y1="307.91" x2="483.85" y2="237.12"/>
  <line class="st2" x1="398.63" y1="555.15" x2="370.5" y2="660.14"/>
  <line class="st2" x1="469.18" y1="309.14" x2="488.78" y2="245.02"/>
  <line class="st2" x1="394.34" y1="553.92" x2="370.7" y2="631.24"/>
  <line class="st2" x1="473.43" y1="310.52" x2="497.79" y2="239.77"/>
  <line class="st2" x1="390.09" y1="552.54" x2="364.32" y2="627.39"/>
  <line class="st2" x1="477.63" y1="312.05" x2="518.77" y2="204.85"/>
  <line class="st2" x1="352.54" y1="637.91" x2="345.38" y2="656.56"/>
  <line class="st2" x1="385.89" y1="551.01" x2="356.31" y2="628.09"/>
  <line class="st2" x1="481.77" y1="313.72" x2="516.47" y2="231.96"/>
  <line class="st2" x1="381.75" y1="549.34" x2="357.11" y2="607.39"/>
  <line class="st2" x1="485.85" y1="315.54" x2="513.41" y2="256.43"/>
  <line class="st2" x1="377.67" y1="547.52" x2="343.65" y2="620.48"/>
  <line class="st2" x1="489.86" y1="317.49" x2="531.4" y2="235.98"/>
  <line class="st2" x1="373.66" y1="545.56" x2="336.81" y2="617.89"/>
  <line class="st2" x1="493.81" y1="319.59" x2="549.68" y2="218.8"/>
  <line class="st2" x1="315.04" y1="642.09" x2="304.7" y2="660.74"/>
  <line class="st2" x1="369.71" y1="543.47" x2="317.32" y2="637.99"/>
  <line class="st2" x1="497.68" y1="321.82" x2="531.76" y2="265.1"/>
  <line class="st2" x1="365.84" y1="541.23" x2="334.77" y2="592.95"/>
  <line class="st2" x1="501.46" y1="324.19" x2="542.52" y2="260.97"/>
  <line class="st2" x1="362.05" y1="538.87" x2="313.1" y2="614.24"/>
  <line class="st2" x1="505.17" y1="326.69" x2="553.35" y2="257.88"/>
  <line class="st2" x1="358.35" y1="536.37" x2="306.98" y2="609.73"/>
  <line class="st2" x1="508.78" y1="329.32" x2="552.77" y2="270.94"/>
  <line class="st2" x1="354.74" y1="533.74" x2="305.26" y2="599.4"/>
  <line class="st2" x1="512.3" y1="332.07" x2="568" y2="263.28"/>
  <line class="st2" x1="351.22" y1="530.99" x2="308.65" y2="583.56"/>
  <line class="st2" x1="586.81" y1="253.17" x2="603.69" y2="233.74"/>
  <line class="st2" x1="515.72" y1="334.94" x2="562.7" y2="280.9"/>
  <line class="st2" x1="347.79" y1="528.12" x2="292.91" y2="591.25"/>
  <line class="st2" x1="519.04" y1="337.93" x2="575.57" y2="277.31"/>
  <line class="st2" x1="344.47" y1="525.13" x2="282.88" y2="591.18"/>
  <circle class="st14" cx="233.51" cy="250.63" r="2.06"/>
  <circle class="st14" cx="219.93" cy="266.74" r="2.06"/>
  <circle class="st14" cx="215.98" cy="271.94" r="2.06"/>
  <circle class="st14" cx="212.18" cy="277.21" r="2.06"/>
  <circle class="st14" cx="207.35" cy="284.33" r="2.06"/>
  <circle class="st14" cx="273.7" cy="214.63" r="2.06"/>
  <circle class="st14" cx="279.1" cy="210.79" r="2.06"/>
  <circle class="st14" cx="290.91" cy="203.08" r="2.06"/>
  <circle class="st14" cx="297.17" cy="199.33" r="2.06"/>
  <circle class="st14" cx="309.88" cy="192.41" r="2.06"/>
  <circle class="st14" cx="315.98" cy="189.4" r="2.06"/>
  <circle class="st14" cx="328.2" cy="183.93" r="2.06"/>
  <circle class="st14" cx="334.42" cy="181.42" r="2.06"/>
  <circle class="st14" cx="355.28" cy="174.27" r="2.06"/>
  <circle class="st14" cx="362.74" cy="172.17" r="2.06"/>
  <circle class="st14" cx="369.71" cy="170.42" r="2.06"/>
  <circle class="st14" cx="377.35" cy="168.72" r="2.06"/>
  <circle class="st14" cx="411.41" cy="163.92" r="2.06"/>
  <circle class="st14" cx="423.72" cy="163.27" r="2.06"/>
  <circle class="st14" cx="484.42" cy="168.36" r="2.06"/>
  <circle class="st14" cx="498.06" cy="171.46" r="2.06"/>
  <circle class="st14" cx="509.49" cy="174.65" r="2.06"/>
  <circle class="st14" cx="515.63" cy="176.59" r="2.06"/>
  <circle class="st14" cx="521.22" cy="178.49" r="2.06"/>
  <circle class="st14" cx="541.18" cy="186.46" r="2.06"/>
  <circle class="st14" cx="573.39" cy="203.56" r="2.06"/>
  <circle class="st14" cx="586.85" cy="212.49" r="2.06"/>
  <circle class="st14" cx="595.95" cy="219.23" r="2.06"/>
  <circle class="st14" cx="604.14" cy="225.82" r="2.06"/>
  <circle class="st14" cx="641.16" cy="263.66" r="2.06"/>
  <circle class="st14" cx="672.71" cy="313.32" r="2.06"/>
  <circle class="st14" cx="677.36" cy="323.32" r="2.06"/>
  <circle class="st14" cx="690.48" cy="360.17" r="2.06"/>
  <circle class="st14" cx="693.15" cy="370.68" r="2.06"/>
  <circle class="st14" cx="699.94" cy="442.02" r="2.06"/>
  <circle class="st14" cx="699.35" cy="452.12" r="2.06"/>
  <circle class="st14" cx="698.43" cy="461.84" r="2.06"/>
  <circle class="st14" cx="699.45" cy="412.3" r="2.06"/>
  <circle class="st14" cx="683.19" cy="525.41" r="2.06"/>
  <circle class="st14" cx="672.85" cy="549.44" r="2.06"/>
  <circle class="st14" cx="669.72" cy="555.64" r="2.06"/>
  <circle class="st14" cx="666.69" cy="561.29" r="2.06"/>
  <circle class="st14" cx="654.62" cy="581.07" r="2.06"/>
  <circle class="st14" cx="650.47" cy="587.08" r="2.06"/>
  <circle class="st14" cx="641.73" cy="598.69" r="2.06"/>
  <circle class="st14" cx="637.17" cy="604.26" r="2.06"/>
  <circle class="st14" cx="601.68" cy="639.27" r="2.06"/>
  <circle class="st14" cx="582.14" cy="653.82" r="2.06"/>
  <circle class="st14" cx="576.55" cy="657.51" r="2.06"/>
  <circle class="st14" cx="549.98" cy="672.47" r="2.06"/>
  <circle class="st14" cx="530.07" cy="681.26" r="2.06"/>
  <circle class="st14" cx="513.03" cy="687.31" r="2.06"/>
  <circle class="st14" cx="506.54" cy="689.28" r="2.06"/>
  <circle class="st14" cx="500.53" cy="690.95" r="2.06"/>
  <circle class="st14" cx="494.07" cy="692.58" r="2.06"/>
  <circle class="st14" cx="477.88" cy="695.92" r="2.06"/>
  <circle class="st14" cx="427.13" cy="699.87" r="2.06"/>
  <circle class="st14" cx="406.73" cy="698.74" r="2.06"/>
  <circle class="st14" cx="396.46" cy="697.58" r="2.06"/>
  <circle class="st14" cx="386.44" cy="696.06" r="2.06"/>
  <circle class="st14" cx="375.32" cy="693.91" r="2.06"/>
  <circle class="st14" cx="326" cy="678.2" r="2.06"/>
  <circle class="st14" cx="281.17" cy="653.68" r="2.06"/>
  <circle class="st14" cx="275.29" cy="649.58" r="2.06"/>
  <circle class="st14" cx="259.5" cy="637.34" r="2.06"/>
  <circle class="st14" cx="224.92" cy="602.55" r="2.06"/>
  <circle class="st14" cx="190.63" cy="549.36" r="2.06"/>
  <circle class="st14" cx="180.69" cy="526.37" r="2.06"/>
  <circle class="st14" cx="178.33" cy="519.86" r="2.06"/>
  <circle class="st14" cx="167.33" cy="477.4" r="2.06"/>
  <circle class="st14" cx="165.69" cy="466.7" r="2.06"/>
  <circle class="st14" cx="164.37" cy="454.55" r="2.06"/>
  <circle class="st14" cx="168.55" cy="379.07" r="2.06"/>
  <circle class="st8" cx="431.76" cy="431.53" r="413.39"/>
  <circle class="st8" cx="431.76" cy="431.53" r="262.07"/>
  <circle class="st8" cx="431.76" cy="431.53" r="273.72"/>
  <circle class="st8" cx="431.76" cy="431.53" r="179.5"/>
  <circle class="st8" cx="431.76" cy="431.53" r="107.29"/>
  <circle class="st8" cx="431.76" cy="431.53" r="103.97"/>
  <path class="st14" d="M431.76,351.24c20.55,0,41.1,7.84,56.78,23.52,31.36,31.36,31.36,82.2,0,113.55-15.68,15.68-36.23,23.52-56.78,23.52s-41.1-7.84-56.78-23.52c-31.36-31.36-31.36-82.2,0-113.55,15.68-15.68,36.23-23.52,56.78-23.52M431.76,350.12c-21.74,0-42.19,8.47-57.56,23.84s-23.84,35.82-23.84,57.56,8.47,42.19,23.84,57.56c15.38,15.38,35.82,23.84,57.56,23.84s42.19-8.47,57.56-23.84c15.38-15.38,23.84-35.82,23.84-57.56s-8.47-42.19-23.84-57.56-35.82-23.84-57.56-23.84h0Z"/>
  <path class="st14" d="M431.76,354.67c20.53,0,39.83,7.99,54.35,22.51,29.97,29.97,29.97,78.73,0,108.69-14.52,14.52-33.82,22.51-54.35,22.51s-39.83-7.99-54.35-22.51c-29.97-29.97-29.97-78.73,0-108.69,14.52-14.52,33.82-22.51,54.35-22.51M431.76,353.56c-19.95,0-39.91,7.61-55.13,22.84-30.45,30.45-30.45,79.82,0,110.27,15.22,15.22,35.18,22.84,55.13,22.84s39.91-7.61,55.13-22.84c30.45-30.45,30.45-79.82,0-110.27-15.22-15.22-35.18-22.84-55.13-22.84h0Z"/>
  <circle class="st8" cx="431.76" cy="431.53" r="52.99"/>
  <circle class="st8" cx="431.76" cy="431.53" r="48.34"/>
  <line class="st3" x1="431.76" y1="479.87" x2="431.76" y2="935.69"/>
  <line class="st3" x1="399.41" y1="463.88" x2="238.21" y2="625.08"/>
  <line class="st4" x1="383.42" y1="431.53" x2="-72.4" y2="431.53"/>
  <line class="st3" x1="431.76" y1="383.19" x2="431.76" y2="-72.63"/>
  <line class="st4" x1="480.1" y1="431.53" x2="935.92" y2="431.53"/>
  <line class="st3" x1="465.94" y1="397.35" x2="788.26" y2="75.03"/>
  <line class="st11" x1="-38.65" y1="431.53" x2="346.98" y2="359.37"/>
  <path class="st3" d="M594.89,294.56c-7.22,7.22-18.94,7.22-26.16,0-7.22-7.22-7.22-18.94,0-26.16"/>
  <path class="st3" d="M554.33,527.93c7.22,7.22,7.22,18.94,0,26.16-7.22,7.22-18.94,7.22-26.16,0"/>
  <line class="st5" x1="237.14" y1="427.83" x2="237.14" y2="437.98"/>
  <line class="st5" x1="288.49" y1="424.76" x2="288.49" y2="434.91"/>
  <line class="st10" x1="471.58" y1="471.35" x2="617.07" y2="616.84"/>
  <circle class="st14" cx="538.37" cy="538.14" r="2.21"/>
  <circle class="st14" cx="543.76" cy="543.49" r="1.72"/>
  <circle class="st14" cx="530.79" cy="530.52" r="1.37"/>
  <circle class="st14" cx="549.87" cy="549.6" r="1.37"/>
  <circle class="st14" cx="522.73" cy="522.46" r="1.93"/>
  <circle class="st0" cx="327.24" cy="476.6" r="5.91"/>
  <circle class="st9" cx="390.29" cy="537.54" r="3.14"/>
  <circle class="st0" cx="531.25" cy="487.14" r="5.91"/>
  <circle class="st7" cx="475.81" cy="326.33" r="3.88"/>
  <circle class="st0" cx="431.97" cy="587.85" r="2.88"/>
  <g>
    <path class="st12" d="M434.75,385.92c.26,14.62-50.55,37.19-42.29,69.85"/>
    <path class="st12" d="M434.75,385.92c32.6,9.18-51.83,51.31-31.13,82.03"/>
    <path class="st12" d="M434.75,385.92c55.56,12.82-41.82,62.26-21.27,87.88"/>
    <path class="st12" d="M420.81,476.1c-8.63-21.69,88.48-73.71,13.94-90.18"/>
    <path class="st12" d="M428.16,477.2c-.93-12.55,54.34-39.63,41.41-71.45"/>
    <path class="st12" d="M476.5,421.6c-2.74,31.95-39.96,50.85-46.96,55.92"/>
    <path class="st12" d="M435.31,477.44c15.6-10.24,33.02-12.09,41.25-35.96"/>
    <path class="st12" d="M385.94,428.93c7.36-35.75,38.64-38.51,44.92-43.11"/>
    <path class="st12" d="M429.23,385.92c-.26,14.52,53,30.4,41.3,70.28"/>
    <path class="st12" d="M477.36,436.56c-.86-29.18-42.04-45.75-44.55-50.64"/>
    <path class="st12" d="M451.16,473.27c46.09-27.31-41.06-70.27-26.77-86.86"/>
    <path class="st12" d="M444.7,475.72c39.29-21.54-54.13-67.13-25.36-88.2"/>
    <path class="st12" d="M411.77,390.39c-36.97,26.62,50.1,66.95,28.87,86.32"/>
    <path class="st12" d="M434.54,477.44c9.48-14.17-46.75-32.54-40.49-71.9"/>
    <path class="st12" d="M431.35,477.52c-1.81-8.62-44.31-23.64-43.95-57.65"/>
    <path class="st12" d="M387.65,444.42c2.61,9.34,31.99,32.71,41.21,33.07"/>
    <path class="st12" d="M445.99,388.08c-1.28,10.13-48.55,7.47-54.14,20.95-3.64,8.78,88.82,22.1,84.81,32.03-5.41,13.42-70.41,17.57-72.34,27.24"/>
    <path class="st12" d="M455.08,392.06c3.06,7-63.44,16.15-66.71,24.65-4.6,11.94,91.09,22.29,85.18,33.9-5.34,10.49-57.2,13.67-62.36,22.12"/>
    <path class="st12" d="M461.68,396.95c1.86,11.05-74.93,19.08-75.56,29.84-.67,11.56,88.12,20.76,82.78,31.81-4.22,8.73-46.53,11.53-50.3,17.07"/>
    <path class="st12" d="M461.34,466.75c8.06-12.45-74.31-18-75.22-30.44-.91-12.47,92.67-21.75,81.23-33.52-5.67-5.84-44.67-9.99-46.03-15.77"/>
    <path class="st12" d="M412.35,390.11c-5.51,6.83,58,11.93,61.06,22.38s-89.05,24.46-85.56,32.54c5.75,13.31,67.76,16.36,67.23,25.94"/>
    <path class="st12" d="M439.1,386.17c.84,3.52-37.12,7.14-41.44,14.82-4.98,8.86,79.35,19.14,79.95,30.46.62,11.49-81.08,20.29-80.47,30.38"/>
    <path class="st12" d="M405.06,394.37c-7.52,8.66,69.45,16.87,71.38,26.99,2.25,11.82-87.87,22.12-83.98,33.52,2.88,8.42,53.58,12.43,55.39,19.79"/>
    <circle class="st12" cx="431.74" cy="431.7" r="45.88"/>
  </g>
  <g class="st13">
    <path class="st14" d="M115.58,696.87c83.7,101.29,231.59,132.13,348.88,73.03,117.84-57.15,183.26-194.13,153.57-321.7,29.86,127.69-35.34,264.84-153.46,321.94-117.36,59.06-265.34,28.12-348.99-73.26h0Z"/>
    <path class="st14" d="M747.6,166.53c-71.24-84.94-185.4-121.33-292.71-93.86-115.7,29.98-201.58,128.1-214.83,247.04-3.58,31.83-1.84,64.22,5.09,95.5-6.96-31.27-8.73-63.66-5.19-95.51,13.1-118.92,99.09-217.55,214.85-247.34,107.37-27.38,221.63,9.13,292.79,94.17h0Z"/>
    <path class="st14" d="M395.63,842.65c130.81,12.43,257.19-70.33,298.33-195.05,42.92-123.73-7.69-266.85-118.89-336.07,111.4,69.18,162.28,212.26,119.13,336.16-41.23,124.75-167.75,207.51-298.58,194.97h0Z"/>
    <path class="st14" d="M467.54,20.75c-110.43-9.69-216.89,45.31-273.35,140.61-60.61,103.01-51.96,233.12,22.78,326.59,19.98,25.04,44.11,46.71,71.13,63.93-27.04-17.19-51.19-38.84-71.2-63.87-74.83-93.35-83.76-223.9-22.98-326.82C250.48,65.91,357.09,10.93,467.54,20.75h0Z"/>
    <path class="st14" d="M696.75,747.71c101.29-83.7,132.13-231.59,73.03-348.88-57.15-117.84-194.13-183.26-321.7-153.57,127.69-29.86,264.84,35.34,321.94,153.46,59.06,117.36,28.12,265.34-73.26,348.99h0Z"/>
    <path class="st14" d="M166.42,115.69c-84.94,71.24-121.33,185.4-93.86,292.71,29.98,115.7,128.1,201.58,247.04,214.83,31.83,3.58,64.22,1.84,95.5-5.09-31.27,6.96-63.66,8.73-95.51,5.19-118.92-13.1-217.55-99.09-247.34-214.85-27.38-107.37,9.13-221.63,94.17-292.79h0Z"/>
    <path class="st14" d="M842.54,467.65c12.43-130.81-70.33-257.19-195.05-298.33-123.73-42.92-266.85,7.69-336.07,118.89,69.18-111.4,212.26-162.28,336.16-119.13,124.75,41.23,207.51,167.75,194.97,298.58h0Z"/>
    <path class="st14" d="M20.63,395.75c-9.69,110.43,45.31,216.89,140.61,273.35,103.01,60.61,233.12,51.96,326.59-22.78,25.04-19.98,46.71-44.11,63.93-71.13-17.19,27.04-38.84,51.19-63.87,71.2-93.35,74.83-223.9,83.76-326.82,22.98C65.79,612.81,10.82,506.2,20.63,395.75h0Z"/>
  </g>
  <g class="st13">
    <path class="st14" d="M166.42,747.71c-101.39-83.68-132.32-231.61-73.26-348.99,57.29-118.24,194.04-183.25,321.94-153.46-127.61-29.67-264.53,35.72-321.7,153.57-59.11,117.27-28.25,265.2,73.03,348.87h0Z"/>
    <path class="st14" d="M696.75,115.69c85.06,71.19,121.55,185.4,94.17,292.79-29.78,115.75-128.45,201.76-247.34,214.85-31.84,3.55-64.23,1.78-95.51-5.19,31.28,6.93,63.66,8.67,95.5,5.09,118.97-13.26,217.06-99.13,247.04-214.83,27.47-107.29-8.94-221.51-93.86-292.71h0Z"/>
    <path class="st14" d="M20.63,467.65C8.11,336.79,90.85,210.32,215.6,169.07c124.12-43.1,266.78,7.63,336.15,119.14-69.25-111.22-212.31-161.8-336.07-118.88C90.97,210.45,8.19,336.87,20.63,467.65h0Z"/>
    <path class="st14" d="M842.54,395.75c9.8,110.49-45.15,217.05-140.44,273.62-102.91,60.79-233.49,51.84-326.82-22.98-25.02-20.01-46.68-44.16-63.87-71.2,17.21,27.02,38.89,51.15,63.93,71.13,93.5,74.75,223.58,83.39,326.59,22.78,95.29-56.44,150.31-162.95,140.61-273.35h0Z"/>
    <path class="st14" d="M115.58,166.53c83.68-101.39,231.61-132.32,348.99-73.26,118.24,57.29,183.25,194.04,153.46,321.94,29.67-127.61-35.72-264.53-153.57-321.7-117.27-59.11-265.2-28.25-348.87,73.03h0Z"/>
    <path class="st14" d="M747.6,696.87c-71.19,85.06-185.4,121.55-292.79,94.17-115.75-29.78-201.76-128.45-214.85-247.34-3.55-31.84-1.78-64.23,5.19-95.51-6.93,31.28-8.67,63.66-5.09,95.5,13.26,118.97,99.13,217.06,214.83,247.04,107.29,27.47,221.51-8.94,292.71-93.86h0Z"/>
    <path class="st14" d="M395.63,20.75c130.86-12.53,257.34,70.21,298.58,194.97,43.1,124.12-7.63,266.78-119.14,336.15,111.22-69.25,161.8-212.31,118.88-336.07C652.84,91.08,526.41,8.3,395.63,20.75h0Z"/>
    <path class="st14" d="M467.54,842.65c-110.49,9.8-217.05-45.15-273.62-140.44-60.79-102.91-51.84-233.49,22.98-326.82,20.01-25.02,44.16-46.68,71.2-63.87-27.02,17.21-51.15,38.89-71.13,63.93-74.75,93.5-83.39,223.58-22.78,326.59,56.44,95.29,162.95,150.31,273.35,140.61h0Z"/>
  </g>
</svg>