<?xml version="1.0" encoding="UTF-8"?>
<svg id="Layer_1" xmlns="http://www.w3.org/2000/svg" version="1.1" viewBox="0 0 864 864">
  <!-- Generator: Adobe Illustrator 29.8.1, SVG Export Plug-In . SVG Version: 2.1.1 Build 2)  -->
  <defs>
    <style>
      .st0 {
        fill: #231f20;
      }

      .st1 {
        fill: #6d6e71;
      }
    </style>
  </defs>
  <rect class="st1" x="563.61" y="235.42" width="6.71" height="340.71"/>
  <rect class="st1" x="668.69" y="385.82" width="6.71" height="306.58"/>
  <rect class="st1" x="293.21" y="238.77" width="6.71" height="337.36"/>
  <rect class="st1" x="188.12" y="385.82" width="6.71" height="306.58"/>
  <rect class="st1" x="428.41" y="104.15" width="6.71" height="28.64"/>
  <g>
    <path class="st1" d="M431.78,132.8h-.02c-200.58,0-363.2,162.6-363.2,363.2,0,62.7,15.87,121.66,43.85,173.13,61.49,113.2,181.45,190.08,319.36,190.08s255.14-75.13,317.25-186.23c29.27-52.37,45.95-112.71,45.95-176.97,0-200.61-162.6-363.18-363.18-363.2ZM721.33,667.29c-13.19,20.39-28.49,39.29-45.59,56.41-4.58,4.61-9.32,9.1-14.18,13.44-18.42,16.5-38.64,31.03-60.3,43.29-6.93,3.94-14,7.62-21.22,11.05-44.92,21.44-95.21,33.45-148.29,33.45s-103.37-11.98-148.29-33.43c-7.22-3.44-14.29-7.13-21.22-11.05-21.67-12.25-41.9-26.81-60.33-43.31-4.85-4.34-9.57-8.81-14.18-13.42-17.08-17.13-32.38-36.04-45.59-56.43-34.88-53.89-55.12-118.1-55.12-187.08,0-173.15,127.69-316.49,294.05-340.96.07,0,.11,0,.18-.02,2.62-.4,5.23-.74,7.85-1.07,1.34-.16,2.68-.31,4.02-.47,2.71-.31,5.41-.58,8.12-.83,1.43-.13,2.86-.25,4.32-.36,2.86-.22,5.77-.4,8.68-.54,1.39-.09,2.77-.13,4.18-.2,4.43-.16,8.85-.25,13.33-.25s8.9.09,13.33.25c1.34.07,2.68.11,4.02.2h.16c2.91.13,5.79.31,8.68.54,1.43.11,2.88.22,4.32.36,2.86.25,5.72.54,8.56.87,1.34.16,2.68.31,4.02.47,3.94.49,7.87,1.05,11.76,1.7,164.32,26.25,289.86,168.61,289.86,340.31,0,68.98-20.26,133.19-55.14,187.08Z"/>
    <path class="st1" d="M588.12,768.8c-6.71,3.56-13.53,6.89-20.5,9.97-54.89-64.8-83.98-255.25-84.94-436.99v-.49c0-1.54-.02-3.09-.02-4.63v467.02c-9.28,1.41-18.67,2.46-28.17,3.09h0c0-9.87-5.47-391.63-5.47-391.63l-2.67-19.07-2.68,19.09-4.61,385.38-4.54-384.92-2.74-19.55-2.74,19.56-4.54,384.92-4.61-385.39-2.68-19.09-2.67,19.07s-5.47,381.76-5.47,391.63h0c-9.5-.63-18.89-1.68-28.17-3.09v-466.17c0-.2,0-.4-.02-.58-1.92,157.61-106.12,300.62-223.41,327.52-37.9-54.22-60.12-120.2-60.12-191.37,0-184.71,149.74-334.45,334.45-334.45,5.77,0,11.52.16,17.22.42l.13-3.09c-1.34-.09-2.68-.13-4.02-.2-4.43-.16-8.85-.25-13.33-.25s-8.9.09-13.33.25c-1.41.07-2.79.13-4.18.2-2.91.13-5.79.34-8.68.54-1.45.11-2.88.22-4.32.36-2.71.25-5.41.51-8.12.83-1.34.16-2.68.31-4.02.47-2.62.34-5.23.69-7.85,1.07-.07.02-.11.02-.18.02-163.85,24.46-289.53,165.77-289.53,336.44,0,70.52,21.46,136.01,58.18,190.34,13.15,19.41,28.24,37.41,44.99,53.68,4.63,4.52,9.39,8.88,14.29,13.12,18.45,15.99,38.64,30.03,60.26,41.81,6.8,3.69,13.75,7.18,20.82,10.42,43.13,19.79,91.11,30.81,141.67,30.81,7.74,0,15.43-.27,23.03-.78,42.1-2.79,82.1-13.28,118.64-30.03,7.07-3.24,14.02-6.73,20.82-10.42-2.08-1.83-4.11-3.8-6.13-5.86ZM215.73,728.4c-4.87-4.11-9.64-8.38-14.27-12.79,114.41-72.26,175.3-226.21,179.23-368.46-3.38,151.57-59.5,309.56-164.97,381.25ZM295.91,778.78c-6.98-3.09-13.8-6.42-20.5-9.97,68.13-69.45,104.19-254.89,105.45-427.02-.96,181.74-30.05,372.19-84.94,436.99Z"/>
    <path class="st1" d="M486.61,139.91c-3.91-.63-7.83-1.19-11.76-1.7-1.34-.16-2.68-.31-4.02-.47-2.84-.31-5.7-.6-8.56-.87-1.43-.13-2.88-.25-4.32-.36-2.88-.2-5.77-.4-8.68-.54h-.16l-.13,3.09c176.7,8.97,317.23,155.08,317.23,334.02,0,71.17-22.23,137.15-60.12,191.37-117.3-26.9-221.49-169.91-223.41-327.52v4.85c1.25,172.12,37.32,357.57,105.45,427.02,2.01,2.06,4.05,4.02,6.13,5.86,21.62-11.78,41.81-25.82,60.26-41.81,4.9-4.25,9.66-8.61,14.29-13.12,16.75-16.28,31.84-34.28,44.99-53.68,36.71-54.33,58.18-119.82,58.18-190.34,0-169.21-123.56-309.54-285.35-335.79ZM647.77,728.42c-105.47-71.73-161.57-229.72-164.94-381.27,3.93,142.25,64.82,296.19,179.23,368.46-4.63,4.4-9.41,8.68-14.29,12.81Z"/>
    <path class="st1" d="M380.87,332.53v4.99c0-.2,0-.4-.02-.58.02-1.48.02-2.93.02-4.4Z"/>
  </g>
  <path class="st0" d="M473.71,110.83v3.19l-17.71,12.05v-2.32l-3.92-8.13h-9.72l-1.75,3.34-1.6.29-3.48-5.51-1.88-9.58h-3.78l-1.89,9.58-3.48,5.51-1.6-.29-1.75-3.34h-9.72l-3.92,8.13v2.32l-17.71-12.05v-3.19l1.3-1.6.3-3.19,6.97-2.32,14.08-18.72-1.75-6.97,8.57-15.68h1.45l8.85-52.27h4.36l8.85,52.27h1.45l8.57,15.68-1.75,6.97,14.09,18.72,6.96,2.32.3,3.19,1.3,1.6ZM444.39,80.92v-1.88l-5.23-10.96h-2.18l-.58,5.88,1.75,2.91v.87l2.61,1.75v1.45h3.63ZM432.73,72.37V25.33c0-.53-.43-.97-.97-.97s-.97.43-.97.97v47.04c0,.53.43.97.97.97s.97-.43.97-.97ZM427.11,73.95l-.58-5.88h-2.18l-5.23,10.96v1.88h3.63v-1.45l2.61-1.75v-.87l1.75-2.91Z"/>
  <path class="st0" d="M597.31,204.72l-.52,4.18.77.1-1.33,10.74-.77-.1-1.03,8.36-5.63,8.45v5.15h-.66l-.44,7.2h-1.76l-4.84-4.97v-27.46h-5.09v12.56h-1.83v-13.35l-.69-.69v8.76l-2.18,2.18v11.81h-8.64v-11.81l-2.18-2.18v-8.77l-.7.7v13.35h-1.82v-12.56h-5.1v27.46l-4.83,4.97h-1.78l-.44-7.2h-.66v-5.15l-5.63-8.45-1.03-8.36-.77.1-1.33-10.74.78-.1-.52-4.18-10.21-14.65-.91-16.23,10.73,9.15v7.85h5.76v-2.96c0-1.33,1.08-2.41,2.41-2.41h4.52l3.53-3.01v-2.6h-.62v-4.52h.62v-2.69l-6.8-2.62v-3.01l13.07-8.37,1.83-25.89h2.22v9.87h.43v7.64h-.43v4.4h.43v7.64h-.43v2.34l1.01,2.36h6.36l1.01-2.36v-2.34h-.42v-7.64h.42v-4.4h-.42v-7.64h.42v-9.87h2.23l1.82,25.89,13.09,8.37v3.01l-6.8,2.62v2.69h.62v4.52h-.62v2.6l3.53,3.01h4.52c1.33,0,2.41,1.08,2.41,2.41v2.96h5.75v-7.85l10.72-9.15-.91,16.23-10.2,14.65Z"/>
  <path class="st0" d="M714.85,353.61c.09.19.11.4.08.61l-4.19,26.35c-.07.41-.42.72-.84.72l-.11,1.78-3.62-.39-.45-7.08-.89-1.78-7.57,7.03c-.19.18-.33.41-.38.66l-8.16,34.91v3.18l10.83,11.2c.34.35.36.91.04,1.28l-1.11,1.3-16.62-4.18-.89-1.06h-17.85l-.89,1.06-16.62,4.18-1.11-1.3c-.32-.37-.3-.93.04-1.28l10.83-11.2v-3.18l-8.16-34.91c-.06-.25-.19-.48-.38-.66l-7.57-7.03-.89,1.78-.45,7.08-3.62.39-.11-1.78c-.21,0-.4-.08-.55-.2-.15-.13-.25-.3-.29-.51l-4.19-26.35c-.03-.21,0-.42.08-.61l2.2-4.92c.17-.39.56-.64.98-.64h3.09l.61-3.71h3.12s0,.86,0,.86l.72.73.77-.49c.46-.29,1.06-.2,1.41.21l8.37,9.92,5.3-2.62,3.85-8.53,1.06-.5.95-1.34v-1.28l.67-.5v-.84l4.07-7.92.78.39v-1l4.01-13.45c.27-.81,1.41-.81,1.68,0l4.01,13.45v1l.78-.39,4.07,7.92v.84l.67.5v1.28l.95,1.34,1.06.5,3.85,8.53,5.3,2.62,8.37-9.92c.35-.41.95-.51,1.41-.21l.76.49.73-.73v-.87h3.12s.61,3.71.61,3.71h3.09c.43,0,.81.25.99.64l2.2,4.92ZM680.63,418.14l-1.73-30.78-5.75,5.33c-.63.58-1.6.58-2.22,0l-5.75-5.33-1.73,30.78,2.45,2.17h12.27l2.45-2.17Z"/>
  <path class="st0" d="M233.31,398.44v1.32l-6.48,4.79.3.45-3.3,7.4-6.23,5.17,1.19,1.49-.02,6.95-.47.27-5.56-.74-1.64,6.76-2.61.2-3.63-2.71-.45-1.39v-21.66l-4.84,3.95v4.32l-2.96-3-1.61-8.47-1.34-.55-.17.99-.4.27-.52,1.69h-2.17l-.52-1.69-.4-.27-.17-.99-1.34.55-1.61,8.47-2.96,3v-4.32l-4.84-3.95v21.66l-.45,1.39-3.63,2.71-2.61-.2-1.64-6.76-5.56.74-.47-.27-.02-6.95,1.19-1.49-6.23-5.17-3.3-7.4.3-.45-6.48-4.79v-1.32l12.05-18.85,2.26.57v3.75h2.21l4.18-8.15,2.97-1.17v.55l2.62-2.22.89-2.38,3.48-27.32-3.05-7.68,10.43-17.78,2.48-1.26-.66,7.35.96.36.07,4.5-.86.43-.83,33.32,1.66-7.29h1.99l1.66,7.29-.83-33.32-.86-.43.07-4.5.96-.36-.66-7.35,2.48,1.26,10.43,17.78-3.05,7.68,3.48,27.32.9,2.38,2.62,2.22v-.55l2.97,1.17,4.18,8.15h2.21v-3.75l2.26-.57,12.05,18.85ZM218.98,389.75v-2.56h-2.09v.42l.87,1.24v.89h1.22ZM166.05,387.61v-.42h-2.09v2.56h1.22v-.89l.87-1.24Z"/>
  <path class="st0" d="M339.45,207.8l1.77,48.2h-.61v4.63h-2.95v-4.63h-.64l-6.24-29.44-.97.18-2.4-11.32-1.6.12-1.21-10.01h-6.5l.69,17.43-4.84,2.94.59.97-8.89,5.39-.59-.97-4.08,2.48-.6,5.01h-7.62l-.6-5.01-4.08-2.48-.59.97-8.89-5.39.59-.97-4.84-2.94.69-17.43h-6.5l-1.21,10.01-1.6-.12-2.4,11.32-.97-.18-6.24,29.44h-.64v4.63h-2.95v-4.63h-.61l1.76-48.2c.04-.91-1.25-1.13-1.51-.26l-7.28,24.43,2.81-43.97c.12-1.83,1.46-3.35,3.26-3.7l18.78-3.61v2.01h.93v9.93h-.93v2.08h5.74l.07-1.6,4.2-6.34v-24.11h.89v-8.85h.95v8.85h.77v20.16l4.19-6.31v-51.65h2.61v46.45l4.01-30.88h6.8l4.2,32.44,6.61,9.96v-14.14h-.65v-2.92h.65v-3.11h2.61v24.11l4.2,6.34.07,1.6h5.74v-2.08h-.93v-9.93h.93v-2.01l18.78,3.61c1.8.35,3.14,1.87,3.26,3.7l2.81,43.97-7.28-24.43c-.26-.87-1.55-.65-1.51.26Z"/>
  <path class="st0" d="M531.97,397.12c.02,1.87-1.16,3.54-2.93,4.14l-21.79,7.48-4.04,13.01c0,.85-6.66,1.54-14.86,1.54s-14.87-.69-14.87-1.54l-3.93-11.47v-38.33h-2.81l-4.67,8.97.16,15.45s-2.71,3.5-5.25,3.5v7.75c-1.19.62-3.25,1.14-5.7,1.58l-.3,3.52c0,.14-.57.27-1.49.36v1.88c0,.19-1.46.34-3.25.34s-3.25-.15-3.25-.34v-1.88c-.92-.09-1.49-.22-1.49-.36l-.19-2.32c-1.63.13-3.2.24-4.61.32l-.21,2.48c0,.14-.57.27-1.49.36v1.88c0,.19-1.45.34-3.24.34h0c-1.79,0-3.25-.15-3.25-.34v-1.88c-.92-.09-1.49-.22-1.49-.36l-.21-2.48c-1.41-.08-2.98-.18-4.61-.32l-.19,2.32c0,.14-.57.27-1.49.36v1.88c0,.19-1.45.34-3.25.34s-3.25-.15-3.25-.34v-1.88c-.92-.09-1.49-.22-1.49-.36l-.3-3.52c-2.45-.43-4.51-.96-5.7-1.58v-7.75c-2.55,0-5.26-3.5-5.26-3.5l.16-15.45-4.67-8.97h-2.82v38.33l-3.93,11.47c0,.85-6.66,1.54-14.87,1.54s-14.87-.69-14.87-1.54l-4.04-13.01-21.79-7.48c-1.76-.61-2.95-2.28-2.93-4.14l.32-33.87c.01-1.31.52-2.56,1.41-3.51l23.61-25.07.66-23.28.93-.93v-12.16l-.58-.58v-5.58h15.87l1.43,1.22v1.1c.93-.13,1.92-.19,2.95-.19,5.12,0,9.26,1.67,9.26,3.74l2.23.66v3.4l1.43.1v16.94l1.01,1.01h1.11c-1.33-1.11-1.11-4.99.27-5.68v-1.54l11.73-11.79v-1.97l-.53-.69v-5.31l1.7-1.49-.27-1.75,8.44-24v-10.51l-.58-.58v-2.34s5.42-3.4,7.22-3.35c.74-1.75,2.25-23.47,2.23-28.78l2.98-.53v-34.83c0-1.18,2.4-2.12,5.36-2.12s5.36.95,5.36,2.12v34.83l2.97.53c-.02,5.3,1.49,27.03,2.23,28.78,1.8-.05,7.22,3.35,7.22,3.35v2.34l-.58.58v10.51l8.44,24-.26,1.75,1.7,1.49v5.31l-.53.69v1.97l11.73,11.79v1.54c1.38.69,1.59,4.57.26,5.68h1.12l1.01-1.01v-16.94l1.44-.1v-3.4l2.23-.66c0-2.07,4.15-3.74,9.27-3.74,1.03,0,2.02.06,2.95.19v-1.1l1.43-1.22h15.88v5.58l-.58.58v12.16l.93.93.67,23.28,23.61,25.07c.89.95,1.4,2.21,1.41,3.51l.32,33.87Z"/>
</svg>