<?xml version="1.0" encoding="UTF-8"?>
<svg id="Layer_1" xmlns="http://www.w3.org/2000/svg" version="1.1" viewBox="0 0 864 864">
  <!-- Generator: Adobe Illustrator 29.8.1, SVG Export Plug-In . SVG Version: 2.1.1 Build 2)  -->
  <g>
    <path d="M160.51,196.8c-2.72-8.13-7.29-10.96-7.29-10.96,1.63,11.81-9.69,29.17-33.44,32.49,5.41-3.56,1.72-9.36,1.72-9.36-7.24,4.92-16.84,4.68-20.9,3.94,8-1.72,6.39-8.49,6.39-8.49-13.28,1.36-31.86-5.17-23.75-63.1l23.37,27.05v-9.34l18.96,21.14v-43.54l-5.17,3.43c7.62-24.84,1.72-124.73,116.86-124.73,88.59,0,120.31,66.91,116.88,114.9,4.9-2.23,8.36-7.66,8.36-9.25,2.63,13.28-6.15,27.16-6.62,27.92,2.56-1.27,4.77-2.94,5.28-3.34-21.28,18.27-14.55,61.74-92.15,102.02-100.4,0-130.41,51.42-130.41,103.58s42.31,110.98,104.07,110.98c26.34,0,47.97-6.42,94.98-6.42l-10.34-11.32c23.13,4.68,66.69,40.62,66.69,75.06,0,12.48-8.89,25.87-9.34,26.54,1.05-.85,34.67-28.59,34.67-78.72l-15.51,18.47c0-28.05,8.62-60.54,12.79-64.97l-.98-7.13c-6.64.74-24.35,23.86-25.09,28.79-.98-18.2,5.66-41.58,18.94-56.1-8.11,4.43-28.79,21.9-28.79,21.9,3.7-22.15-7.87-36.16-5.66-71.34-3.43,14.75-14.26,16.22-14.5,26.56-2.23-23.13,2.7-82.79,2.7-82.79h-9.85v-15.37c-4.99,10.72-25.24,23.31-26.49,24.06,12.83-12.68,44.96-68.65,49.62-99.1-4.66.98-14.26,13.77-14.26,13.77,2.21-19.92,16-35.92,18.69-45.76-5.17.76-13.03,7.89-13.03,7.89,2.45-12.05,18.2-34.2,18.2-34.2-3.59-.25-12.01,3.45-12.52,3.68,19.92-20.16,60.27-25.58,93.47-27.54-3.92-5.41-14.01-12.54-14.01-12.54,16-1,44.29,13.28,48.95,13.28-.49-2.96-7.87-8.13-7.87-8.13l16,.76-9.85-11.32c13.03,1.47,60.05,29.52,63.72,32.46l1.47,12.3c9.11,4.68,45.03,7.4,45.03,7.4,9.36,3.43,14.28,13.03,14.28,17.96s-4.19,32.98-11.56,32.98-17.47-15.51-24.87-15.51-10.56,7.37-10.56,7.37c8.36.25,13.28.25,15.24,2.47,1.98,2.21,4.68,19.92,26.09,19.18-17.71,10.83-29.52-10.58-38.39-10.58-7.13,0-18.69,9.36-18.69,14.77s6.88,9.58,11.56,9.58,12.3-4.66,18.69-4.66,14.04,1.47,14.04,5.15-7.4,15.75-7.4,15.75c-16.58,0-48.39,3.68-56.1,17.56-7.37-4.03-14.73-8.2-20.94-13.81l-.4.38c7.51,7.78,16.93,13.28,25.93,19.12,13.57,8.44,27.61,16.38,40.57,25.62,4.21,2.99,8,6.39,11.54,10.09,6.91,7.75,14.15,17.62,25.13,20.03l.22-.51c-9.87-5.53-14.35-14.57-21.19-23.22-3.5-4.37-7.84-7.8-12.48-10.85,4.88-5.7,12.41-6.66,12.63-10.2.25-3.94-4.68-18.2-3.94-20.65,17.74-5.26,53.9-32.73,57.84-43.56,0,0-6.66,0-9.36,1.96,5.9-11.07,23.86-19.43,23.86-19.43l-8.85-1.23c6.64-4.19,19.18-5.9,22.88-7.89.49-39.12,16.71-69.38,40.6-69.38-4.68,3.94-2.23,5.15-2.23,10.2s-17.22,11.7-17.22,31.62c12.05-16.96,31.75-13.52,39.37-10.07-4.68.25-6.88-.25-8.36,1.96-1.49,2.21-23.37,21.9-25.36,22.88,9.6,2.45,36.92-5.9,41.33,17.47-5.66-5.66-5.15-3.19-8.6-3.19s-27.32-2.23-30.01.74c-2.72,2.94-7.15,7.13-7.15,11.56s13.06,14.5,20.43,14.75c7.37.25,14.77,12.3,12.54,22.64-9.09-11.07-30.75-18.45-35.67-18.45s-42.07,10.58-42.07,23.13,8.13,16.98,8.13,16.98l-6.42.25,4.43,10.09-11.81-9.11v22.15c-14.77,3.21-20.25,30.26-20.25,35.18,12.12,5.41,52.23,6.88,57.15,6.15,4.92-.74,21.66-8.36,26.34-18.2,4.66-9.85,22.64-53.38,34.2-53.63,11.56-.25,15.24,5.66,15.98,8.6-4.66-2.45-8.36-1.72-9.58,1.23-1.23,2.96-12.3,14.53-12.3,17.49s.25,11.56-1.49,13.28c22.88-.25,36.67,1.47,37.41,12.54-5.9-5.66-10.83-3.21-10.83-3.21-.74,7.15-3.94,9.11-8.11,9.11s-11.07-3.7-14.77-3.7-14.53,8.38-15.75,12.32c31.26,11.32,37.65,13.77,36.18,37.14-7.4-7.87-28.05-15.51-39.61-14.77-11.56.76-3.94,6.91.74,12.81s9.83,15.24,9.83,20.65-5.15,10.83-3.19,16.98c-7.13-1.72-6.88-13.03-6.88-16s-19.45-24.95-27.56-25.09c-6.02-.09-8.87,7.51-12.54,11.56-5.39,5.9-12.57,11.72-13.3,16.24,0-12.05-6.64-11.81-11.81-4.43-4.59,6.55-24.02,21.7-33.98,26-9.2-7.84-21.01-12.57-33.18-11.72-4.57.16-9.05.71-13.55,1.23,4.52.04,9.05.04,13.48.45,5.41.31,10.54,1.69,15.24,3.94-34.11,14.1-19.14,45.5-60.45,104.12-.22.31-.42.6-.65.89-5.28,7.26-10.85,12.12-16.62,15.42-.07.04-.11.07-.16.09-7.49,3.99-16.11,6.06-25.33,6.97-16.82,1.8-34.85,4.81-48.28,16,15.28-10.9,31.19-11.34,46.54-12.5-14.79,6.91-37.21,26.11-37.21,41.78,0,6.88,2.83,8.85,11.56,8.85,20.43,0,62.74-23.13,92.15-23.13,22.64,0,35.18,33.35,37.77,44.18,0,0-6.39-4.57-8.98-4.57,3.21,16.73-14.26,46.5-22.64,51.31l-1.11,22.88c13.9,7.37,41.46-1.74,44.92-8.38l.85-9.58,6.04-7.64s.62-17.82,1.47-20.3c.87-2.45,12.79-10.2,21.66-7.37-4.3.74-5.04,1.23-5.17,4.43-.11,3.19-2.83,13.66-7.87,14.26-2.72,3.45-.87,20.54,3.81,20.92,4.68.36,13.77-13.55,19.43-13.55s9.22,7.02,15.37,7.02c-4.41,3.07-4.5,6.8-9.71,9.6-5.19,2.79-11.56,3.56-11.56,6.39,0,3.32,9.36,8.73,19.56,8.73,4.55,0,9.22,10.2,9.85,15.62-5.55.49-11.45-9.22-23.51-9.22-14.88,0-21.28,11.21-21.28,11.21,16.87,8.85,19.81,27.54,19.81,33.82-12.83-14.88-27.18-23.86-31.37-23.86s-9.71,4.68-11.07,7.87c-2.58-7.02-10.58-18.58-22.88-18.58s-20.41,9.85-23.24,15.26c-2.83-3.19-24.13-6.88-31.99-5.17-7.87,1.72-12.43,9.71-12.79,10.2l-4.43.62s-13.77-12.68-13.77-22.15c0-14.99,34.69-20.05,34.69-31.97,0-14.04-17.85-29.9-39.75-29.9-16.44,0-28.03,6.66-40.06,9.14-1.76-1.25-3.45-2.58-5.06-3.94-6.73-5.93-13.06-13.01-15.77-21.79,1.56,9.18,6.82,18.8,13.97,26.65,4.75,5.24,10.34,9.69,16.22,12.7.8,13.44-.33,45.14-4.1,51.07-4.32,6.75-25.64,29.5-33.22,29.39-35.8-.49-63.48,9.36-63.48,17.36s26.31,29.52,32.22,29.52,17.89-13.41,18.29-19.32c.42-5.9,24.64-23.13,24.64-23.13,0,0,16.98-4.19,26.83,4.3-6.02-.6-5.79,4.3-11.07,6.28-5.79,2.18-13.44,1.6-18.63,5.84-3.54,2.85-7.62,5.75-7.95,9.42-.11,1.34,8.76,10.45,13.06,10.45s7.62-2.34,11.07-.62c3.43,1.74,11.92,10.96,10.34,19.45-6.28-8.87-11.56-1.98-16.87-1.98-7.87,0-15.13-7.73-20.79-7.73s-15.86,4.66-17.85,8.73c0,0,24.37,23.13,27.32,26.69,2.96,3.56,0,17.82-4.43,21.9,2.47-6.77-23.24-32.86-28.54-34.2-5.28-1.36-9.22,9.34-8.73,13.15.49,3.83,5.66,22.15,3.45,27.56-2.21,5.41-11.32,11.21-15.13,11.7,7.13-6.04,5.53-30.39,3.19-33.96-2.34-3.56-13.66-14.53-17.71-14.39,2.23-8-42.69-71.97-65.68-47.37,8.24-13.66,11.92-29.41,9.58-33.58,5.55.11,47.86-24.62,60.67-48.59.96-1.8,1.8-3.61,2.52-5.39.02,0,.02-.02.02-.04.94-1.63,1.78-3.28,2.21-5.08,1.18-4.72,1.85-9.6,1.92-14.5.04-1.18.04-2.34-.02-3.48-.31-8.71-2.58-14.84-3.19-16.31-.09-.25-.13-.36-.13-.36,1.58,7.17,1.14,14.44-.65,21.48-15.91-11.39-38.86-37.19-38.86-63.3,0-15.02,19.23-21.03,19.07-50.8-.38-67.18-47.86-50.93-120.43-50.93h-.76c-84.51,0-142.19-72.7-146.63-111.09l3.92-1.23c-5.77-21.41,1.49-44.29,1.49-44.29,0,8.73,2.83,16,3.68,17.47,17.6-62.5,111.34-119.09,128.56-121.05l25.36-.98c23.62-4.92,68.76-52.29,68.76-91.42,0-32.84-26.45-100.13-92.75-100.13s-100.02,44.16-100.02,86.85c0,26.45,20.92,55.37,20.92,81.57Z"/>
    <path d="M187.34,146.41l44-25.4-44-25.4v50.8ZM235.8,118.44l46.21-26.69-46.21-26.69-46.23,26.69,46.23,26.69ZM278.51,188.67c.8-2.81,1.4-5.68,1.49-8.6-.53,1.34-1.47,2.43-2.32,3.54-5.33,6.26-11.36,12.25-17.65,17.58-1.29.42-2.61.78-3.92,1.11l.53-2.65s2.7-4.57,1.83-5.08c-.85-.56-5.28,0-5.28,0l-12.32,5.59s-4.55-.42-5.61-.04c-1.09.38-3.79-3.3-3.79-3.3,0,0-.98-1.07-1.85,0-.49.62-1.52,1.4-2.99,2.07-3.63-1.56-7.22-3.23-10.69-5.08-2.34-1.36-5.01-2.5-6.73-4.66.4,1.36,1.43,2.47,2.29,3.56,2.65,3.07,5.59,5.86,8.58,8.6-5.39-2.27-10.61-5.08-15.62-8-7.62-4.79-15.57-9.65-21.32-16.71,5.04,7.71,12.52,13.48,19.67,19.12,2.27,1.69,4.57,3.32,6.91,4.9-32.82-10.9-56.5-41.87-56.5-78.36,0-45.61,36.96-82.57,82.57-82.57s82.55,36.96,82.55,82.57c0,25.82-11.88,48.91-30.46,64.03l.31-3.41h-2.25l-3.7,3.34-3.74,2.43ZM284.23,146.41v-50.8l-44,25.4,44,25.4ZM235.8,123.57l-46.23,26.69,46.23,26.67,46.21-26.67-46.21-26.69Z"/>
  </g>
  <path d="M699.15,209.21v412.42l-.94,1.56c-23.78,39.48-88.49,98.92-192.61,136.53l-2.22.8-2.22-.8c-104.12-37.61-168.83-97.05-192.61-136.53l-.94-1.56V209.21h391.54M503.38,746.63c92.09-33.75,157.7-88.48,182.71-128.65V222.27h-365.42v395.7c25.01,40.17,90.63,94.9,182.71,128.65M701.9,206.46h-397.04v415.93l.39.65.94,1.56c24.01,39.86,89.23,99.84,194.03,137.7l2.22.8.94.34.94-.34,2.22-.8c104.8-37.85,170.02-97.84,194.03-137.7l.94-1.56.39-.65V206.46h0ZM323.42,225.02h359.92v392.16c-24.75,39.19-89.73,93.23-179.96,126.51-90.23-33.28-155.21-87.32-179.96-126.51V225.02h0Z"/>
</svg>