<?xml version="1.0" encoding="UTF-8"?>
<svg id="Layer_1" xmlns="http://www.w3.org/2000/svg" version="1.1" viewBox="0 0 864 864">
  <!-- Generator: Adobe Illustrator 29.8.1, SVG Export Plug-In . SVG Version: 2.1.1 Build 2)  -->
  <defs>
    <style>
      .st0 {
        fill: #231f20;
      }

      .st1 {
        fill: #939598;
      }
    </style>
  </defs>
  <path class="st1" d="M239.59,157.95c54.38-1.85,137.26-.88,192.41-1.1,55.43.21,137.69-.73,192.41,1.1-54.41,1.83-137.19.89-192.41,1.1-55.39-.22-137.74.75-192.41-1.1h0Z"/>
  <path class="st1" d="M130.85,334.93c84.95-1.82,215.03-.9,301.15-1.1,85.08.17,216.97-.67,301.14,1.1-83.83,1.77-216.29.93-301.14,1.1-86.47-.2-215.76.73-301.15-1.1h0Z"/>
  <path class="st1" d="M130.12,512c85.15-1.82,215.56-.9,301.88-1.1,85.29.17,217.5-.67,301.88,1.1-84.03,1.77-216.82.93-301.88,1.1-86.68-.2-216.28.73-301.88-1.1h0Z"/>
  <path class="st1" d="M728.15,688.98c-33.71,1.85-85.13.88-119.34,1.1-34.38-.21-85.41.73-119.34-1.1,33.74-1.82,85.08-.9,119.34-1.1,34.35.22,85.45-.75,119.34,1.1h0Z"/>
  <path class="st1" d="M135.85,688.98c33.71-1.85,85.13-.88,119.34-1.1,34.38.21,85.41-.73,119.34,1.1-33.74,1.82-85.08.9-119.34,1.1-34.35-.22-85.45.75-119.34-1.1h0Z"/>
  <path class="st1" d="M465.58,107.3c-41.06,65.23-107.03,163.07-150.02,228.28-42.79,64.23-108.19,164.4-151.86,227.07,40.54-64.35,107.63-164.03,150.02-228.28,43.51-65.26,107.54-163.52,151.86-227.07h0Z"/>
  <path class="st1" d="M700.3,562.65c-44.09-63.21-108.53-162.07-151.86-227.07-42.5-64.42-109.31-163.66-150.02-228.28,43.49,62.4,109.18,163,151.86,227.07,43.17,65.48,108.75,162.72,150.02,228.28h0Z"/>
  <path class="st1" d="M352.7,101.42c-25.64,42-67.86,103.94-95.25,145.63-27.88,41.66-68.21,104.18-97.08,144.41,25.68-42.02,67.82-103.89,95.25-145.63,27.87-41.62,68.21-104.23,97.08-144.41h0Z"/>
  <path class="st1" d="M511.3,101.42c28.72,39.96,69.34,102.96,97.08,144.41,27.53,41.89,69.43,103.37,95.25,145.63-28.71-40-69.31-102.9-97.08-144.41-27.5-41.87-69.47-103.4-95.25-145.63h0Z"/>
  <path class="st1" d="M399,284.28c44.08,63.22,108.49,162.07,151.81,227.07,42.49,64.42,109.27,163.66,149.97,228.28-43.47-62.4-109.14-163-151.81-227.07-43.15-65.48-108.71-162.72-149.97-228.28h0Z"/>
  <path class="st1" d="M163.06,739.63c41.25-65.23,107.52-163.07,150.71-228.28,42.98-64.23,108.68-164.4,152.54-227.06-40.73,64.35-108.12,164.03-150.71,228.28-43.71,65.26-108.03,163.52-152.54,227.06h0Z"/>
  <path class="st1" d="M398.42,463.83c30.03,41.17,72.66,106.04,101.74,148.73,28.87,43.14,72.76,106.46,99.92,149.96-30.02-41.22-72.63-105.98-101.74-148.73-28.84-43.11-72.8-106.49-99.92-149.96h0Z"/>
  <path class="st1" d="M264.81,762.52c26.93-43.96,71.13-108.87,99.83-152.54,29.2-43.65,71.49-109.13,101.67-151.32-26.97,43.97-71.08,108.82-99.83,152.54-29.19,43.61-71.49,109.18-101.67,151.32h0Z"/>
  <g>
    <line class="st0" x1="239.59" y1="149.78" x2="624.41" y2="149.78"/>
    <path class="st1" d="M239.59,149.78c54.38-1.85,137.26-.88,192.41-1.1,55.43.21,137.69-.73,192.41,1.1-54.41,1.83-137.19.89-192.41,1.1-55.39-.22-137.74.75-192.41-1.1h0Z"/>
  </g>
  <g>
    <line class="st0" x1="427.15" y1="343.11" x2="130.85" y2="343.11"/>
    <path class="st1" d="M427.15,343.11c-41.86,1.85-105.68.88-148.15,1.1-42.68-.21-106.02.73-148.15-1.1,41.89-1.82,105.62-.9,148.15-1.1,42.65.22,106.06-.75,148.15,1.1h0Z"/>
  </g>
  <g>
    <line class="st0" x1="733.15" y1="343.11" x2="437.95" y2="343.11"/>
    <path class="st1" d="M733.15,343.11c-41.71,1.85-105.29.88-147.6,1.1-42.52-.21-105.63.73-147.6-1.1,41.74-1.82,105.23-.9,147.6-1.1,42.49.22,105.67-.75,147.6,1.1h0Z"/>
  </g>
  <g>
    <line class="st0" x1="310.28" y1="326.75" x2="556.18" y2="326.75"/>
    <path class="st1" d="M310.28,326.75c34.73-1.85,87.7-.88,122.95-1.1,35.42.21,88-.73,122.95,1.1-34.76,1.82-87.66.9-122.95,1.1-35.39-.22-88.03.75-122.95-1.1h0Z"/>
  </g>
  <g>
    <line class="st0" x1="425.52" y1="520.18" x2="130.12" y2="520.18"/>
    <path class="st1" d="M425.52,520.18c-41.73,1.85-105.36.88-147.7,1.1-42.55-.21-105.7.73-147.7-1.1,41.76-1.82,105.3-.9,147.7-1.1,42.52.22,105.74-.75,147.7,1.1h0Z"/>
  </g>
  <g>
    <line class="st0" x1="733.88" y1="520.18" x2="436.48" y2="520.18"/>
    <path class="st1" d="M733.88,520.18c-42.02,1.85-106.08.88-148.7,1.1-42.84-.21-106.42.73-148.7-1.1,42.05-1.82,106.02-.9,148.7-1.1,42.8.22,106.46-.75,148.7,1.1h0Z"/>
  </g>
  <g>
    <line class="st0" x1="202.74" y1="503.82" x2="661.3" y2="503.82"/>
    <path class="st1" d="M202.74,503.82c64.8-1.84,163.56-.89,229.28-1.1,66.05.21,164.07-.73,229.28,1.1-64.85,1.83-163.47.89-229.28,1.1-66-.22-164.13.75-229.28-1.1h0Z"/>
  </g>
  <g>
    <line class="st0" x1="728.16" y1="697.15" x2="489.48" y2="697.15"/>
    <path class="st1" d="M728.16,697.15c-33.71,1.85-85.13.88-119.34,1.1-34.38-.21-85.41.73-119.34-1.1,33.74-1.82,85.08-.9,119.34-1.1,34.35.22,85.45-.75,119.34,1.1h0Z"/>
  </g>
  <g>
    <line class="st0" x1="374.52" y1="697.15" x2="135.84" y2="697.15"/>
    <path class="st1" d="M374.52,697.15c-33.71,1.85-85.13.88-119.34,1.1-34.38-.21-85.41.73-119.34-1.1,33.74-1.82,85.08-.9,119.34-1.1,34.35.22,85.45-.75,119.34,1.1h0Z"/>
  </g>
  <g>
    <line class="st0" x1="156.88" y1="558.13" x2="422.2" y2="157.93"/>
    <path class="st1" d="M156.88,558.13c35.96-57.58,93.9-143.23,131.74-200.71,38.39-57.52,94.32-143.59,133.58-199.49-36,57.6-93.84,143.16-131.74,200.71-38.37,57.48-94.34,143.65-133.58,199.49h0Z"/>
  </g>
  <g>
    <line class="st0" x1="436.92" y1="165.34" x2="207.07" y2="512.04"/>
    <path class="st1" d="M436.92,165.34c-30.94,50.01-81.25,124.15-114.01,173.96-33.28,49.82-81.63,124.45-115.84,172.74,30.98-50.03,81.2-124.09,114.01-173.96,33.27-49.78,81.64-124.51,115.84-172.74h0Z"/>
  </g>
  <g>
    <line class="st0" x1="656.88" y1="511.95" x2="427.11" y2="165.38"/>
    <path class="st1" d="M656.88,511.95c-34.01-47.96-82.69-123.13-115.8-172.68-32.92-50.03-82.82-123.6-113.97-173.9,34.01,48,82.66,123.06,115.8,172.68,32.88,50,82.87,123.63,113.97,173.9h0Z"/>
  </g>
  <g>
    <line class="st0" x1="442" y1="158.24" x2="707.12" y2="558.13"/>
    <path class="st1" d="M442,158.24c39,55.5,95.3,142.15,133.48,199.34,38.01,57.71,95.46,142.67,131.64,200.55-39.02-55.54-95.26-142.07-133.48-199.34-37.97-57.68-95.51-142.71-131.64-200.55h0Z"/>
  </g>
  <g>
    <line class="st0" x1="150.17" y1="386.94" x2="342.5" y2="96.9"/>
    <path class="st1" d="M150.17,386.94c25.64-42,67.86-103.94,95.25-145.63,27.88-41.66,68.21-104.18,97.08-144.41-25.68,42.02-67.82,103.89-95.25,145.63-27.87,41.62-68.21,104.23-97.08,144.41h0Z"/>
  </g>
  <g>
    <line class="st0" x1="518.12" y1="96.9" x2="710.45" y2="386.94"/>
    <path class="st1" d="M518.12,96.9c28.72,39.96,69.34,102.96,97.08,144.41,27.53,41.89,69.43,103.37,95.25,145.63-28.71-40-69.31-102.9-97.08-144.41-27.5-41.87-69.47-103.4-95.25-145.63h0Z"/>
  </g>
  <g>
    <line class="st0" x1="657.41" y1="688.98" x2="427.67" y2="342.34"/>
    <path class="st1" d="M657.41,688.98c-34.01-47.97-82.68-123.15-115.79-172.71-32.91-50.04-82.81-123.62-113.95-173.93,34.01,48.01,82.64,123.08,115.78,172.71,32.88,50.01,82.86,123.65,113.95,173.93h0Z"/>
  </g>
  <g>
    <line class="st0" x1="442.41" y1="334.97" x2="707.6" y2="735.11"/>
    <path class="st1" d="M442.41,334.98c39.01,55.53,95.33,142.23,133.51,199.46,38.02,57.75,95.49,142.76,131.67,200.67-39.02-55.57-95.28-142.15-133.51-199.46-37.98-57.71-95.54-142.8-131.68-200.67h0Z"/>
  </g>
  <g>
    <line class="st0" x1="156.25" y1="735.09" x2="422.72" y2="334.97"/>
    <path class="st1" d="M156.25,735.09c36.12-57.57,94.31-143.21,132.32-200.67,38.55-57.51,94.73-143.56,134.15-199.45-36.16,57.59-94.25,143.13-132.32,200.67-38.53,57.46-94.75,143.62-134.15,199.45h0Z"/>
  </g>
  <g>
    <line class="st0" x1="437.48" y1="342.32" x2="206.76" y2="688.77"/>
    <path class="st1" d="M437.48,342.32c-31.07,49.98-81.56,124.06-114.45,173.83-33.41,49.78-81.94,124.36-116.28,172.61,31.1-50,81.51-124,114.45-173.83,33.39-49.74,81.95-124.42,116.28-172.61h0Z"/>
  </g>
  <g>
    <line class="st0" x1="593.3" y1="767.09" x2="426.1" y2="519.44"/>
    <path class="st1" d="M593.3,767.09c-25.15-33.96-60.37-87.84-84.51-123.21-23.91-35.79-60.43-88.21-82.69-124.44,25.15,33.99,60.35,87.78,84.51,123.21,23.88,35.77,60.47,88.23,82.69,124.44h0Z"/>
  </g>
  <g>
    <line class="st0" x1="435.88" y1="519.35" x2="271.63" y2="767.04"/>
    <path class="st1" d="M435.88,519.35c-21.67,36.01-57.85,88.83-81.21,124.45-23.83,35.56-58.16,89.03-83.04,123.24,21.7-36.03,57.8-88.79,81.21-124.45,23.82-35.53,58.17-89.08,83.04-123.24h0Z"/>
  </g>
  <polygon points="666.7 512 549.91 512 544.51 503.83 437.95 343.12 437.46 342.3 432.63 334.94 549.34 334.94 554.74 343.12 661.3 503.83 666.7 512"/>
  <polygon points="549.34 334.94 543.94 326.76 437.46 166.14 436.89 165.32 432.06 157.96 548.77 157.96 554.24 166.14 660.73 326.76 666.21 334.94 549.34 334.94"/>
  <polygon points="430.92 512 426.09 519.45 425.52 520.18 319.03 680.81 313.55 688.98 196.85 688.98 202.25 680.81 309.22 520.18 314.7 512 430.92 512"/>
  <polygon points="667.19 688.98 550.48 688.98 544.92 680.81 436.48 520.18 435.9 519.36 431 512 549.91 512 555.31 520.18 661.79 680.81 667.19 688.98"/>
  <polygon points="431.98 157.96 427.07 165.4 426.58 166.14 320.1 326.76 314.7 334.94 197.83 334.94 203.31 326.76 309.79 166.14 315.27 157.96 422.16 157.96 422.16 158.04 422.25 157.96 431.98 157.96"/>
  <polygon points="432.55 334.94 427.72 342.3 427.15 343.12 320.18 503.83 314.7 512 197.34 512 202.74 503.83 309.3 343.12 314.7 334.94 432.55 334.94"/>
</svg>