<?xml version="1.0" encoding="UTF-8"?>
<svg id="Layer_1" xmlns="http://www.w3.org/2000/svg" version="1.1" viewBox="0 0 864 864">
  <!-- Generator: Adobe Illustrator 29.8.1, SVG Export Plug-In . SVG Version: 2.1.1 Build 2)  -->
  <g>
    <path d="M585.49,438.5c48.1,0,106.91,39.72,106.91,108.2,0,78.37-142.98,186.38-225.65,186.38-66.55,0-74.93-11.82-90.17-11.82-29.88,0-64.45,15.03-96.63,64.06-.8,1.21-2.64.31-2.2-1.07,26.11-80.84,95.81-81.44,108.28-81.44s32.86,6.65,49.81,6.65c28.52,0,57.39-8.94,86.5-25.43,15.28-8.65,28.62-24.32,41.9-35.75,13.55-11.7,29.53-20.63,39.43-33.93,16.78-22.57,27.12-46.55,27.12-68.71,0-18.68-17.83-51.74-34.14-51.74-4.94,0-22.75,2.99-22.75,27.04,0,57.98-45.3,172.2-184.43,172.2-117.45,0-218.36-74.93-218.36-214.06,0-88.46,88.46-167.26,185.07-167.26,26.23,0,47.44,2.7,65.19,6.92,62.78,14.91,82.49,48.7,128.9,48.7,25.12,0,41.86-13.1,41.86-35.44s-29.42-31.56-41.65-31.56c-34.35,0-48.31,17.83-94.68,17.83-12.46,0-23.6-1.22-33.48-3.4-47.6-10.58-66.14-43.75-66.14-72.17,0-30.27,28.99-60.56,61.19-69.99-4.94-2.59-12.44-9.24-12.44-20.63,0-18.66,22.53-45.51,24.26-55.39.76-4.41,1.71-12.44,1.71-16.31s3.87-10.09,12.44-10.09,12.46,6.22,12.46,10.09.95,11.9,1.71,16.31c1.73,9.88,24.26,36.73,24.26,55.39,0,17.38-4.88,22.07-13.08,33.71-23.62,33.5-62.06,24.69-62.06,49.38s14.17,28.99,44.23,28.99c20.61,0,83.95-17.19,103.06-17.19,60.12,0,95.11,48.96,95.11,95.99s-27.71,86.95-99.41,86.95c-84.17,0-102.42-58.41-170.69-58.41-48.53,0-135.05,40.36-135.05,118.09,0,63.34,52.38,145.35,140.2,145.35s112.07-64.63,118.29-106.06c5.13-34.06,20.18-90.39,83.1-90.39ZM467.4,136.83c-.64-7.93-9.88-25.64-9.88-25.64v12.99s8.38,9.02,9.88,12.66ZM429.19,124.17v-12.99s-9.24,17.71-9.88,25.64c1.5-3.64,9.88-12.66,9.88-12.66Z"/>
    <path d="M490.73,504.06c0,34.22-15.73,64.78-40.34,84.83l.41-4.53h-2.99l-4.88,4.43-4.96,3.23c1.07-3.73,1.87-7.54,1.96-11.39-.7,1.77-1.92,3.21-3.07,4.69-7.04,8.3-15.05,16.22-23.37,23.29-1.71.54-3.44,1.01-5.17,1.46l.7-3.52s3.58-6.03,2.43-6.73c-1.15-.72-7.02,0-7.02,0l-16.31,7.41s-6.01-.54-7.45-.04-5.02-4.37-5.02-4.37c0,0-1.28-1.42-2.43,0-.66.84-2.02,1.87-3.97,2.74-4.8-2.06-9.55-4.28-14.15-6.73-3.09-1.81-6.65-3.31-8.92-6.16.54,1.81,1.89,3.27,3.05,4.72,3.5,4.06,7.39,7.76,11.35,11.37-7.14-3.01-14.04-6.71-20.69-10.6-10.09-6.34-20.63-12.77-28.23-22.11,6.65,10.21,16.56,17.85,26.05,25.31,3.01,2.24,6.05,4.39,9.16,6.47-43.49-14.43-74.85-55.45-74.85-103.78,0-60.41,48.96-109.36,109.36-109.36s109.34,48.96,109.34,109.36ZM437.3,556.15l-27.9-42.07h27.78l-27.9-42.09h27.76l-27.9-42.07h-55.53l-27.9,42.07h27.76l-27.9,42.09h27.78l-27.9,42.07h27.76l27.9-42.07h.51l27.9,42.07h27.76Z"/>
    <polygon points="381.52 471.98 409.4 514.07 381.64 514.07 381.13 514.07 353.37 514.07 381.25 471.98 381.52 471.98"/>
    <polygon points="381.38 429.91 409.28 471.98 381.52 471.98 381.25 471.98 353.48 471.98 381.38 429.91"/>
  </g>
  <path d="M626.19,242.48v410.57l-.93,1.55c-23.67,39.3-88.1,98.48-191.75,135.92l-2.21.8-2.21-.8c-103.65-37.44-168.08-96.62-191.75-135.92l-.93-1.55V242.48h389.78M431.3,777.49c91.67-33.6,157-88.08,181.89-128.08V255.48H249.4v393.93c24.9,39.99,90.22,94.48,181.89,128.08M628.92,239.75H233.67v414.07l.39.65.93,1.55c23.9,39.68,88.83,99.4,193.16,137.08l2.21.8.93.34.93-.34,2.21-.8c104.33-37.69,169.26-97.4,193.16-137.08l.93-1.55.39-.65V239.75h0ZM252.14,258.22h358.31v390.41c-24.64,39.02-89.33,92.81-179.16,125.95-89.82-33.13-154.52-86.93-179.16-125.95v-390.41h0Z"/>
</svg>