<?xml version="1.0" encoding="UTF-8"?>
<svg id="Layer_1" xmlns="http://www.w3.org/2000/svg" version="1.1" viewBox="0 0 864 864">
  <!-- Generator: Adobe Illustrator 29.8.1, SVG Export Plug-In . SVG Version: 2.1.1 Build 2)  -->
  <path d="M236.43,203.69l35.16-20.3-35.16-20.3v40.6ZM275.16,181.34l36.93-21.33-36.93-21.33-36.95,21.33,36.95,21.33ZM309.29,237.46c.64-2.24,1.12-4.54,1.19-6.87-.43,1.07-1.18,1.94-1.85,2.83-4.26,5-9.08,9.79-14.1,14.05-1.03.34-2.08.62-3.13.89l.43-2.12s2.15-3.65,1.46-4.06c-.68-.45-4.22,0-4.22,0l-9.85,4.47s-3.63-.34-4.49-.04c-.87.3-3.03-2.64-3.03-2.64,0,0-.78-.85-1.48,0-.39.5-1.21,1.12-2.39,1.66-2.9-1.25-5.77-2.58-8.55-4.06-1.87-1.09-4.01-1.99-5.38-3.72.32,1.09,1.14,1.98,1.83,2.85,2.12,2.46,4.47,4.68,6.85,6.87-4.31-1.82-8.48-4.06-12.48-6.39-6.09-3.83-12.45-7.71-17.04-13.35,4.02,6.16,10.01,10.77,15.72,15.28,1.82,1.35,3.65,2.65,5.52,3.92-26.23-8.71-45.15-33.46-45.15-62.62,0-36.45,29.54-65.98,65.98-65.98s65.97,29.54,65.97,65.98c0,20.64-9.49,39.08-24.34,51.17l.25-2.72h-1.8l-2.96,2.67-2.99,1.94ZM313.87,203.69v-40.6l-35.16,20.3,35.16,20.3ZM275.16,185.44l-36.95,21.33,36.95,21.31,36.93-21.31-36.93-21.33Z"/>
  <path d="M684.71,315.62c1.39-1.37,1.19-8.26,1.19-10.61s8.85-11.61,9.83-13.98c.98-2.35,3.93-2.94,7.66-.98-.59-2.35-3.53-7.07-12.77-6.87-9.24.2-23.61,34.99-27.33,42.86-3.74,7.87-17.11,13.96-21.05,14.55-2.55.37-16.95.02-29.4-1.46v-49.19l9.35,7.21-3.54-8.07,5.13-.2s-6.5-3.54-6.5-13.57,29.68-18.48,33.62-18.48,21.24,5.89,28.51,14.74c1.78-8.26-4.13-17.89-10.02-18.09-5.89-.2-16.33-8.26-16.33-11.79s3.54-6.89,5.72-9.24c2.15-2.37,21.22-.59,23.98-.59s2.35-1.98,6.87,2.55c-3.53-18.68-25.35-12-33.03-13.96,1.58-.78,19.07-16.52,20.26-18.29,1.18-1.76,2.94-1.37,6.68-1.57-6.09-2.76-21.83-5.5-31.46,8.05,0-15.92,13.76-21.22,13.76-25.27s-1.96-5,1.78-8.15c-19.09,0-32.05,24.18-32.44,55.44-2.96,1.58-12.98,2.96-18.29,6.3l7.07.98s-14.35,6.68-19.07,15.53c2.15-1.57,7.48-1.57,7.48-1.57-3.1,8.49-31.03,29.84-45.46,34.56h-43.59c8.97-8.26,30.29-10.58,42.04-10.58,0,0,5.91-9.63,5.91-12.59s-6.11-4.11-11.22-4.11-11.2,3.72-14.94,3.72-9.24-3.33-9.24-7.66,9.24-11.8,14.94-11.8c7.09,0,16.52,17.11,30.68,8.46-17.11.59-19.26-13.57-20.85-15.33-1.57-1.78-5.5-1.78-12.18-1.98,0,0,2.55-5.89,8.44-5.89s13.96,12.39,19.87,12.39,9.24-22.42,9.24-26.35-3.93-11.61-11.41-14.35c0,0-28.7-2.17-35.98-5.91l-1.18-9.83c-2.94-2.35-40.51-24.77-50.92-25.94l7.87,9.04-12.78-.61s5.89,4.13,6.29,6.5c-3.72,0-26.33-11.41-39.12-10.61,0,0,8.07,5.7,11.2,10.02-26.53,1.57-58.77,5.89-74.69,22.01.41-.18,7.14-3.13,10.01-2.94,0,0-12.59,17.7-14.55,27.33,0,0,6.29-5.7,10.42-6.3-2.15,7.87-13.18,20.65-14.94,36.57,0,0,7.67-10.22,11.4-11-1.98,12.91-10.13,31.57-18.89,47.73h-43.57v165.73c-17.97,1.51-30.39,3.81-44.49,3.81-49.36,0-83.17-47.98-83.17-88.69s23.98-82.77,104.21-82.77c62.01-32.19,56.64-66.93,73.64-81.53-.41.32-2.17,1.66-4.22,2.67.37-.61,7.39-11.7,5.29-22.31,0,1.26-2.76,5.61-6.68,7.39,2.74-38.35-22.61-91.82-93.4-91.82-92.02,0-87.3,79.82-93.39,99.67l4.13-2.74v34.79l-15.15-16.9v7.46l-18.68-21.61c-6.48,46.29,8.37,51.51,18.98,50.42,0,0,1.28,5.41-5.11,6.78,3.24.59,10.91.78,16.7-3.15,0,0,2.96,4.63-1.37,7.48,18.98-2.65,28.02-16.52,26.73-25.96,0,0,3.65,2.26,5.82,8.76,0-20.94-16.72-44.05-16.72-65.18,0-34.11,26.94-69.4,79.93-69.4s74.12,53.77,74.12,80.02c0,31.27-36.07,69.12-54.95,73.05l-20.26.78c-13.76,1.57-88.67,46.79-102.73,96.73-.68-1.18-2.94-6.98-2.94-13.96,0,0-5.8,18.29-1.19,35.4l-3.13.98c3.54,30.68,49.64,88.78,117.17,88.78h.61c14.83,0,28.35-.84,40.26-1.21v116.66l.5.84.68,1.1c9.08,15.06,26.3,34.11,51.47,52.76-13.19,11.16-28.59,19.55-31.48,19.5,1.87,3.33-1.07,15.92-7.66,26.83,18.37-19.66,54.27,31.46,52.49,37.85,3.24-.11,12.29,8.65,14.15,11.5,1.87,2.85,3.15,22.31-2.55,27.13,3.04-.39,10.33-5.02,12.09-9.35,1.76-4.33-2.37-18.96-2.76-22.02-.39-3.04,2.76-11.59,6.98-10.5,4.24,1.07,24.78,21.92,22.81,27.33,3.54-3.26,5.91-14.65,3.54-17.5-2.35-2.85-21.83-21.33-21.83-21.33,1.58-3.26,9.74-6.98,14.26-6.98s10.33,6.18,16.61,6.18c4.24,0,8.46-5.5,13.48,1.58,1.26-6.78-5.52-14.15-8.26-15.54-2.76-1.37-5.41.5-8.85.5s-10.52-7.28-10.43-8.35c.27-2.94,3.53-5.25,6.36-7.53.09-.07.18-.14.28-.21,6.18,2.64,12.57,5.15,19.18,7.53l1.58.57,1.19.45,1.19-.45,1.58-.57c42.16-15.24,75.46-35.47,99.65-55.39,7.35,2.19,12.14,9.49,13.89,14.21,1.09-2.55,5.41-6.29,8.85-6.29s14.81,7.18,25.07,19.07c0-5.02-2.35-19.96-15.83-27.03,0,0,5.11-8.96,17-8.96,9.63,0,14.35,7.76,18.78,7.37-.5-4.33-4.24-12.48-7.87-12.48-8.15,0-15.63-4.33-15.63-6.98,0-2.26,5.09-2.88,9.24-5.11,4.17-2.24,4.24-5.22,7.76-7.67-4.91,0-7.76-5.61-12.29-5.61s-11.79,11.11-15.53,10.83c-.93-.07-1.73-.98-2.35-2.33,3.63-4.58,6.68-8.94,9.13-13l.66-1.1.52-.84v-197.63c3.53-2.97,6.43-5.77,7.76-7.67,4.13-5.89,9.44-6.09,9.44,3.54.59-3.61,6.32-8.26,10.63-12.98,2.94-3.24,5.22-9.31,10.02-9.24,6.48.11,22.02,17.7,22.02,20.05s-.2,11.41,5.5,12.78c-1.57-4.91,2.55-9.24,2.55-13.57s-4.11-11.79-7.85-16.51c-3.74-4.72-9.83-9.63-.59-10.24,9.24-.59,25.75,5.52,31.66,11.8,1.18-18.68-3.93-20.64-28.92-29.68.98-3.15,9.63-9.85,12.59-9.85s8.46,2.96,11.8,2.96,5.89-1.57,6.48-7.28c0,0,3.93-1.96,8.65,2.56-.59-8.85-11.61-10.22-29.89-10.02ZM569.17,320.05c5.47,6.91,9.04,14.14,16.93,18.55l-.18.41c-8.78-1.92-14.56-9.81-20.08-16.01-2.83-2.96-5.86-5.68-9.22-8.07-6.02-4.29-12.32-8.23-18.68-12.09h31.35v.37c-.18,2.83-6.2,3.6-10.1,8.15,3.7,2.44,7.18,5.18,9.97,8.67ZM566.48,289.98c.57,2.69,1.62,6.43,2.26,9.37h-36.57c-2.67-1.62-5.34-3.24-7.98-4.88-2.31-1.5-4.68-2.97-7-4.49h49.28ZM503.79,278.89c3.24,2.92,6.85,5.36,10.63,7.58h-2.37c-3.06-2.19-5.96-4.58-8.58-7.28l.32-.3ZM469.55,599.62c-4.7-2.4-9.17-5.96-12.96-10.15-5.72-6.27-9.92-13.96-11.16-21.29,2.17,7.02,7.23,12.68,12.61,17.41,1.28,1.09,2.64,2.15,4.04,3.15,9.61-1.98,18.87-7.3,32.01-7.3,17.5,0,31.76,12.68,31.76,23.89,0,9.53-27.72,13.57-27.72,25.55,0,7.57,11,17.7,11,17.7l3.54-.5c.28-.39,3.93-6.78,10.22-8.15,2.31-.5,6.07-.43,10.02,0-18.41,11.7-39.9,22.65-63.92,31.55-.32-.12-.64-.23-.94-.36.66-.25,1.44-.34,2.44-.23-3.99-3.44-9.42-4.27-13.83-4.26-3.92-1.62-7.76-3.29-11.54-5.02,7.55-5.06,18.46-16.99,21.15-21.19,3.01-4.74,3.92-30.07,3.28-40.81ZM369.13,298.7v.64h-.32l.32-.64ZM369.13,302.85v8.14h7.87s-3.93,47.68-2.15,66.16c.2-8.26,8.85-9.44,11.59-21.22-1.76,28.11,7.48,39.31,4.52,57.01,0,0,16.52-13.96,23-17.5-10.61,11.61-15.92,30.29-15.13,44.83.59-3.93,14.74-22.42,20.05-23l.78,5.7c-3.33,3.54-10.22,29.5-10.22,51.92l12.39-14.76c0,39.44-26.03,61.53-27.65,62.85.62-.98,7.41-11.41,7.41-21.15,0-27.53-34.81-56.25-53.29-59.98l8.26,9.04c-5.41,0-10.4.11-15.03.28v-148.31h17.63c-4.38,6.89-8.37,12.3-11.2,15.08.84-.52,12.43-7.71,18.46-15.08h2.71ZM341.54,469.92c24.82,1.03,39.42,8.72,39.6,41.93.12,23.79-15.24,28.59-15.24,40.59,0,20.87,18.34,41.49,31.05,50.58,1.42-5.63,1.78-11.43.52-17.16,0,0,.04.09.11.28.48,1.18,2.3,6.07,2.55,13.03.05.91.05,1.83.02,2.78-.05,3.92-.59,7.82-1.53,11.59-.34,1.44-1.01,2.76-1.76,4.06,0,.02,0,.04-.02.04-.57,1.42-1.25,2.87-2.01,4.31-1.35,2.51-3.1,5.04-5.15,7.53-22.52-16.31-39.05-33.28-48.13-47.5v-112.06ZM328.66,289.98h38.14c-1.83,3.28-3.67,6.43-5.47,9.37h-23.31v151.98c-3.29.16-6.41.36-9.37.59v-161.94ZM380.51,638.94c-25.09-18.45-42.2-37.3-51.17-52.2l-.68-1.12v-115.77c3.24-.09,6.37-.11,9.37-.04v113.19c9.21,14.8,26.1,32.33,49.3,49.19-2.08,2.31-4.4,4.58-6.82,6.75ZM429.37,685.94c-.32,4.72-9.9,15.44-14.62,15.44s-25.75-17.2-25.75-23.59c0-4.47,10.83-9.67,27.12-12.25,6.85,3.7,14.05,7.3,21.62,10.75-4.31,3.67-8.21,7.55-8.37,9.65ZM449.06,667.46s-3.95,2.81-8.33,6.34c-6.48-2.9-12.71-5.93-18.66-9.06,5.47-.59,11.41-.91,17.66-.82.43,0,.91-.07,1.46-.25,2.71,1.28,5.45,2.51,8.24,3.72-.25.04-.37.07-.37.07ZM470.59,684.61l-1.58.57-1.6-.57c-5.56-2.01-10.95-4.11-16.2-6.27,3.44-1.07,7.28-1.23,10.45-2.42,1.48-.55,2.42-1.41,3.22-2.24,1.37.53,2.74,1.05,4.13,1.55,26.33-9.65,49.64-21.69,69.28-34.52,4.88.91,9.13,2.17,10.18,3.37,2.24-4.27,8.6-12.02,18.25-12.2-23.68,19-55.76,38.16-96.13,52.74ZM593.78,594.32l-4.83,6.11-.68,7.66c-1.55,2.99-9.26,6.62-17.68,8.14,9.47-8.39,17.29-16.7,23.29-24.5-.07,1.57-.11,2.6-.11,2.6ZM596.47,576.42c-.84.66-1.37,1.26-1.51,1.67-.28.85-.55,3.99-.75,7.26-6.84,9.76-16.91,20.62-29.84,31.57-4.43.18-8.69-.41-11.98-2.15l.89-18.29c6.69-3.85,20.65-27.63,18.09-41,2.07,0,7.18,3.65,7.18,3.65-2.07-8.65-12.09-35.31-30.18-35.31-23.5,0-57.31,18.48-73.64,18.48-6.98,0-9.24-1.57-9.24-7.07,0-12.52,17.91-27.86,29.73-33.38-12.27.93-24.98,1.28-37.19,9.99,10.74-8.94,25.14-11.34,38.58-12.78,7.37-.73,14.26-2.39,20.24-5.57.04-.02.07-.04.12-.07,4.61-2.64,9.06-6.52,13.28-12.32.18-.23.34-.46.52-.71,33.01-46.84,21.05-71.93,48.3-83.2-3.76-1.8-7.85-2.9-12.18-3.15-3.54-.32-7.16-.32-10.77-.36,3.6-.41,7.18-.85,10.83-.98,9.72-.68,19.16,3.1,26.51,9.37.91-.39,1.92-.91,3.01-1.51v175.88ZM609.34,585.61l-.68,1.12c-2.03,3.38-4.49,6.96-7.35,10.68-.75-4.06-.64-8.78.53-10.27,4.02-.48,6.2-8.85,6.29-11.39.07-1.53.3-2.28,1.21-2.76v12.62ZM609.34,571.74c-3.24-.12-6.68,1.03-9.37,2.44v-175.73c3.03-1.91,6.3-4.24,9.37-6.64v179.94ZM609.34,338.66c-3.53-.5-6.77-1.1-9.37-1.83v-15.05c2.03-5.16,5.09-10.33,9.37-12.86v29.73Z"/>
</svg>