<?xml version="1.0" encoding="UTF-8"?>
<svg id="Layer_1" xmlns="http://www.w3.org/2000/svg" version="1.1" viewBox="0 0 864 864">
  <!-- Generator: Adobe Illustrator 29.8.1, SVG Export Plug-In . SVG Version: 2.1.1 Build 2)  -->
  <g>
    <path d="M485.76,500.95c0,31.34-14.4,59.33-36.95,77.68l.37-4.15h-2.74l-4.47,4.06-4.54,2.96c.98-3.42,1.71-6.91,1.8-10.43-.64,1.62-1.76,2.94-2.81,4.29-6.45,7.6-13.78,14.85-21.4,21.33-1.57.5-3.15.93-4.74,1.34l.64-3.22s3.28-5.52,2.23-6.16c-1.05-.66-6.43,0-6.43,0l-14.94,6.78s-5.5-.5-6.82-.04-4.59-4.01-4.59-4.01c0,0-1.18-1.3-2.23,0-.61.77-1.85,1.71-3.63,2.51-4.4-1.89-8.74-3.92-12.96-6.16-2.83-1.66-6.09-3.03-8.17-5.64.5,1.66,1.73,2.99,2.8,4.33,3.2,3.72,6.77,7.1,10.4,10.42-6.53-2.76-12.86-6.14-18.94-9.7-9.24-5.8-18.89-11.7-25.85-20.24,6.09,9.35,15.17,16.34,23.86,23.18,2.76,2.05,5.54,4.02,8.39,5.93-39.83-13.21-68.55-50.78-68.55-95.04,0-55.32,44.83-100.15,100.15-100.15s100.13,44.83,100.13,100.15ZM436.83,548.65l-25.55-38.53h25.44l-25.55-38.55h25.43l-25.55-38.53h-50.85l-25.55,38.53h25.43l-25.55,38.55h25.44l-25.55,38.53h25.43l25.55-38.53h.46l25.55,38.53h25.43Z"/>
    <polygon points="385.75 471.57 411.28 510.12 385.86 510.12 385.4 510.12 359.97 510.12 385.5 471.57 385.75 471.57"/>
    <polygon points="385.63 433.05 411.18 471.57 385.75 471.57 385.5 471.57 360.08 471.57 385.63 433.05"/>
  </g>
  <path d="M599.2,445.06v-26.58c22.15-14.32,31.55-37.91,31.55-65.06,0-43.07-32.05-87.9-87.1-87.9-17.5,0-75.51,15.74-94.38,15.74-27.53,0-40.51-4.52-40.51-26.55s35.2-14.55,56.83-45.22c7.51-10.67,11.98-14.96,11.98-30.87,0-17.09-20.64-41.68-22.22-50.73-.69-4.04-1.57-11.4-1.57-14.94s-3.54-9.24-11.41-9.24-11.4,5.7-11.4,9.24-.87,10.9-1.57,14.94c-1.58,9.05-22.22,33.63-22.22,50.73,0,10.43,6.87,16.52,11.4,18.89-29.48,8.64-56.03,36.38-56.03,64.1,0,8.07,1.64,16.56,5.18,24.71h-104.19v69.94c-41.82,28.61-70.47,73.64-70.47,121.82,0,69.78,27.72,121.93,70.47,154.81v3.6l.59.98.78,1.3c10.95,18.2,32.07,41.34,63.12,63.8-14.74,11-28.63,28.17-37.3,54.98-.41,1.26,1.28,2.08,2.01.98,15.51-23.64,31.64-38.65,47.41-47.56,24.2,16.02,53.56,31.3,87.97,43.75l1.85.66,1.39.52,1.39-.52,1.87-.66c65.98-23.84,113.35-58.17,141.44-88.03,51.15-35.25,94.38-85.45,94.38-126.68,0-50.37-34.76-83.75-71.26-94.94ZM455.35,141.16s8.46,16.22,9.05,23.48c-1.37-3.33-9.05-11.59-9.05-11.59v-11.89ZM429.41,141.16v11.89s-7.67,8.26-9.04,11.59c.59-7.26,9.04-23.48,9.04-23.48ZM263.54,517.24c-2.51-10.04-3.81-20.01-3.81-29.54s1.35-18.02,3.81-26.14v55.68ZM423.12,327.69c9.04,1.99,19.25,3.12,30.66,3.12,42.46,0,55.25-16.33,86.71-16.33,11.2,0,38.14,8.46,38.14,28.9s-15.33,32.46-38.33,32.46c-42.5,0-60.55-30.94-118.05-44.6-16.26-3.86-35.68-6.34-59.7-6.34-28.19,0-55.6,7.32-79.91,19.94v-39.42h97.98c9.67,9.97,23.57,18.07,42.5,22.27ZM267.63,290.4h102.08c1.96,3.77,4.36,7.44,7.25,10.91h-98.41v45.69c-3.72,2.05-7.37,4.24-10.91,6.53v-63.14ZM267.63,450.63c2.96-6.57,6.64-12.68,10.91-18.34v121.96c-4.4-7.64-8.05-15.56-10.91-23.59v-80.03ZM331.52,700.06c-31.12-22.31-52.22-45.35-63.1-63.4l-.16-.27c7.82,5.63,16.1,10.63,24.78,14.99,12.13,13.75,28.67,28.42,48.98,42.54-3.49,1.75-7.02,3.79-10.5,6.14ZM433.22,750.84l-1.85.68-1.85-.68c-33.24-12-61.68-26.67-85.23-42.07,4.22-2.12,8.4-3.81,12.53-5.13,21.54,13.46,46.6,26,74.55,36.25,29.16-10.7,55.16-23.89,77.33-38,16.42-5.75,33.56-14.08,50.3-24.2-28.38,25.78-70.42,53.17-125.77,73.14ZM362.23,702.12c6.5-1.58,12.86-2.28,19-2.28,13.96,0,21.63,10.83,82.58,10.83,8.99,0,18.77-1.39,29-3.97-18.36,10.61-38.96,20.49-61.44,28.83-25.69-9.51-48.91-21.05-69.14-33.4ZM580.09,611.67c-8.26,7.39-18.2,13.71-27.01,21.33-12.16,10.47-24.37,24.82-38.37,32.74-26.65,15.1-53.09,23.29-79.21,23.29-15.53,0-33.81-6.09-45.62-6.09-5.59,0-23.68.14-43.52,8.92-17.25-11.8-31.82-24.04-43.3-35.75,27.3,11.89,57.95,17.98,89.97,17.98,127.41,0,168.9-104.6,168.9-157.7,0-18.8,11.88-23.56,18.16-24.54v119.81ZM580.09,441.26c-2.53-.23-5.06-.36-7.55-.36-57.62,0-71.4,51.58-76.1,82.77-5.7,37.94-30.46,97.13-108.33,97.13-47.59,0-83.83-26.32-105.48-59.81v-133.8c26.83-31.5,71.4-47.65,100.76-47.65,62.51,0,79.23,53.49,156.31,53.49,15.7,0,29.09-1.99,40.38-5.64v13.87ZM595.1,593.44c-1.85,2.85-3.83,5.68-5.91,8.49-1.51,2.03-3.19,3.95-5,5.8v-116.02c3.69.46,7.41,2.65,10.91,5.95v95.77ZM595.1,443.9c-3.63-.94-7.28-1.67-10.91-2.17v-15.78c3.9-1.46,7.55-3.15,10.91-5.02v22.97ZM599.2,586.84v-84.73c8.44,10.36,14.83,26.21,14.83,36.91,0,15.42-5.47,31.78-14.83,47.82Z"/>
</svg>