<?xml version="1.0" encoding="UTF-8"?>
<svg id="Layer_1" xmlns="http://www.w3.org/2000/svg" version="1.1" viewBox="0 0 864 864">
  <!-- Generator: Adobe Illustrator 29.8.1, SVG Export Plug-In . SVG Version: 2.1.1 Build 2)  -->
  <path d="M427.51,283.74c195.33-5.67,199.05,294.18,5.67,296.05-189.84,1.84-197.32-290.48-5.67-296.05Z"/>
  <path d="M837.82,25.5l-230.24,329.87c-22.71-42.84-55.02-83.41-103.28-97.92L837.82,25.5Z"/>
  <path d="M359.25,605.59L25.7,837.55l228.46-333.49,31.07,50.43c19.3,21.34,45.85,44.28,74.02,51.1Z"/>
  <path d="M837.82,837.55l-333.54-231.96c22.93-3.22,41.36-23.35,59.9-36.21l45.19-65.32,228.45,333.49Z"/>
  <polygon points="359.22 253.93 302.97 290.05 255.94 355.38 25.7 25.5 359.22 253.93"/>
  <path d="M141.65,239.4l47.24,74.53c-33.15,77.82-32.54,157.28-.07,235.27l-52.5,74.51c-75.41-113.04-74.78-267.86-2.15-382.05l7.48-2.25Z"/>
  <path d="M728.98,239.4c55.91,93.55,71.37,202.04,36.38,306.39-7.16,21.34-21.87,55.65-35.27,73.32-1.78,2.35.49,6.22-6.44,4.6l-48.95-74.51c32.47-77.99,33.08-157.44-.07-235.27.39-4.17,40.19-62.43,46.14-69.97,2.28-2.89-.1-6.7,8.22-4.56Z"/>
  <path d="M311.14,674.98c33.04,7.61,65.63,22.23,100.73,24.78,48.2,3.5,93.1-8.99,137.57-25.45l74.39,52.7c-114.87,75.8-269.28,75.81-384.16,0l71.47-52.03Z"/>
  <path d="M391.13,80.91c82.71-7.95,163.33,9.67,232.71,55.13l-75.07,52.03c-77.93-32.3-156.01-32.34-234.02,0l-75.07-52.03c45.03-28.25,98.06-50,151.45-55.13Z"/>
</svg>