<?xml version="1.0" encoding="UTF-8"?><svg xmlns="http://www.w3.org/2000/svg" viewBox="0 0 864 864"><defs><style>.cls-1{fill:#010101;}.cls-2{fill:#fff;}.cls-3,.cls-4{fill:none;}.cls-4{stroke:#fff;stroke-miterlimit:10;stroke-width:.75px;}</style></defs><g id="Layer_3"><g id="BG"><rect class="cls-1" width="864" height="864"/></g></g><g id="Outer_03"><animateTransform attributeName="transform" type="rotate" dur="350s" values="0 432 432;360 432 432;" repeatCount="indefinite"/><circle class="cls-4" cx="400.37" cy="669.25" r="5.86"/><circle class="cls-2" cx="400.37" cy="669.25" r="2.22"/><polygon class="cls-2" points="398.22 627 388 679.79 396.82 626.75 398.22 627 398.22 627"/><polygon class="cls-2" points="406.62 628.28 402.11 656.38 405.21 628.09 406.62 628.28 406.62 628.28"/><circle class="cls-4" cx="420.96" cy="671.12" r="5.86"/><circle class="cls-2" cx="420.96" cy="671.12" r="2.22"/><polygon class="cls-2" points="415.14 629.21 409.56 682.69 413.72 629.09 415.14 629.21 415.14 629.21"/><polygon class="cls-2" points="423.62 629.76 421.57 658.14 422.2 629.69 423.62 629.76 423.62 629.76"/><circle class="cls-4" cx="380.12" cy="665.41" r="5.86"/><circle class="cls-2" cx="380.12" cy="665.41" r="2.22"/><polygon class="cls-2" points="381.66 623.13 366.88 674.83 380.29 622.76 381.66 623.13 381.66 623.13"/><polygon class="cls-2" points="389.92 625.14 382.97 652.74 388.53 624.83 389.92 625.14 389.92 625.14"/><circle class="cls-4" cx="340.77" cy="653.07" r="5.86"/><circle class="cls-2" cx="340.77" cy="653.07" r="2.22"/><polygon class="cls-2" points="349.64 611.71 326.11 660.05 348.35 611.1 349.64 611.71 349.64 611.71"/><polygon class="cls-2" points="357.42 615.12 345.79 641.09 356.11 614.57 357.42 615.12 357.42 615.12"/><circle class="cls-4" cx="360.18" cy="660.2" r="5.86"/><circle class="cls-2" cx="360.18" cy="660.2" r="2.22"/><polygon class="cls-2" points="365.41 618.22 346.18 668.43 364.07 617.73 365.41 618.22 365.41 618.22"/><polygon class="cls-2" points="373.46 620.94 364.13 647.82 372.1 620.51 373.46 620.94 373.46 620.94"/><circle class="cls-4" cx="322.21" cy="644.12" r="5.86"/><circle class="cls-2" cx="322.21" cy="644.12" r="2.22"/><polygon class="cls-2" points="334.64 603.68 306.99 649.79 333.41 602.97 334.64 603.68 334.64 603.68"/><polygon class="cls-2" points="342.1 607.76 328.25 632.61 340.84 607.1 342.1 607.76 342.1 607.76"/><circle class="cls-4" cx="287.04" cy="621.98" r="5.86"/><circle class="cls-2" cx="287.04" cy="621.98" r="2.22"/><polygon class="cls-2" points="306.31 584.32 271.06 624.92 305.22 583.4 306.31 584.32 306.31 584.32"/><polygon class="cls-2" points="312.94 589.63 294.98 611.7 311.81 588.76 312.94 589.63 312.94 589.63"/><circle class="cls-4" cx="303.94" cy="633.89" r="5.86"/><circle class="cls-2" cx="303.94" cy="633.89" r="2.22"/><polygon class="cls-2" points="319.85 594.69 288.28 638.21 318.69 593.87 319.85 594.69 319.85 594.69"/><polygon class="cls-2" points="326.92 599.4 310.96 622.96 325.72 598.63 326.92 599.4 326.92 599.4"/><circle class="cls-4" cx="271.42" cy="608.53" r="5.86"/><circle class="cls-2" cx="271.42" cy="608.53" r="2.22"/><polygon class="cls-2" points="293.9 572.69 255.25 610.07 292.9 571.68 293.9 572.69 293.9 572.69"/><polygon class="cls-2" points="300.05 578.56 280.23 598.98 299 577.59 300.05 578.56 300.05 578.56"/><circle class="cls-4" cx="243.02" cy="578.13" r="5.86"/><circle class="cls-2" cx="243.02" cy="578.13" r="2.22"/><polygon class="cls-2" points="271.38 546.74 226.83 576.84 270.57 545.57 271.38 546.74 271.38 546.74"/><polygon class="cls-2" points="276.42 553.58 253.36 570.25 275.55 552.45 276.42 553.58 276.42 553.58"/><circle class="cls-4" cx="256.26" cy="594.01" r="5.86"/><circle class="cls-2" cx="256.28" cy="594.07" r="2.22" transform="translate(-354.48 807.54) rotate(-85.93)"/><polygon class="cls-2" points="281.78 560.26 240.02 594.13 280.87 559.17 281.78 560.26 281.78 560.26"/><polygon class="cls-2" points="287.39 566.64 265.87 585.26 286.43 565.59 287.39 566.64 287.39 566.64"/><circle class="cls-4" cx="231.42" cy="561.09" r="5.86"/><circle class="cls-2" cx="231.42" cy="561.09" r="2.22"/><polygon class="cls-2" points="262.41 532.29 215.41 558.39 261.7 531.06 262.41 532.29 262.41 532.29"/><polygon class="cls-2" points="266.83 539.55 242.4 554.15 266.07 538.35 266.83 539.55 266.83 539.55"/><circle class="cls-4" cx="212.08" cy="524.55" r="5.86"/><circle class="cls-2" cx="212.08" cy="524.55" r="2.22"/><polygon class="cls-2" points="247.6 501.57 196.78 519.11 247.12 500.23 247.6 501.57 247.6 501.57"/><polygon class="cls-2" points="250.69 509.48 224.1 519.62 250.15 508.16 250.69 509.48 250.69 509.48"/><circle class="cls-4" cx="220.76" cy="543.31" r="5.86"/><circle class="cls-2" cx="220.76" cy="543.31" r="2.22"/><polygon class="cls-2" points="254.15 517.32 205.05 539.23 253.55 516.03 254.15 517.32 254.15 517.32"/><polygon class="cls-2" points="257.91 524.94 232.31 537.35 257.26 523.67 257.91 524.94 257.91 524.94"/><circle class="cls-4" cx="205.29" cy="505.09" r="5.86"/><circle class="cls-2" cx="205.29" cy="505.09" r="2.22"/><polygon class="cls-2" points="242.67 485.29 190.52 498.34 242.31 483.91 242.67 485.29 242.67 485.29"/><polygon class="cls-2" points="245.06 493.45 217.69 501.23 244.64 492.09 245.06 493.45 245.06 493.45"/><circle class="cls-4" cx="196.38" cy="464.9" r="5.86"/><circle class="cls-2" cx="196.38" cy="464.9" r="2.22"/><polygon class="cls-2" points="236.64 451.89 183.01 455.68 236.52 450.47 236.64 451.89 236.64 451.89"/><polygon class="cls-2" points="237.57 460.34 209.27 463.25 237.39 458.93 237.57 460.34 237.57 460.34"/><polygon class="cls-2" points="235.93 435.83 182.17 435.21 235.93 434.4 235.93 435.83 235.93 435.83"/><polygon class="cls-2" points="236.16 444.32 207.72 444.91 236.1 442.9 236.16 444.32 236.16 444.32"/><circle class="cls-4" cx="199.91" cy="485.27" r="5.86"/><circle class="cls-2" cx="199.91" cy="485.27" r="2.22"/><polygon class="cls-2" points="238.88 468.81 185.78 477.26 238.64 467.4 238.88 468.81 238.88 468.81"/><polygon class="cls-2" points="240.55 477.14 212.6 482.5 240.25 475.75 240.55 477.14 240.55 477.14"/><circle class="cls-4" cx="194.85" cy="444.34" r="5.86"/><circle class="cls-2" cx="194.85" cy="444.34" r="2.22"/><circle class="cls-4" cx="197.96" cy="403.58" r="5.86"/><circle class="cls-2" cx="197.96" cy="403.58" r="2.22"/><polygon class="cls-2" points="240.21 401.43 187.42 391.21 240.46 400.03 240.21 401.43 240.21 401.43"/><polygon class="cls-2" points="238.93 409.83 210.83 405.32 239.12 408.42 238.93 409.83 238.93 409.83"/><circle class="cls-4" cx="196.09" cy="424.17" r="5.86"/><circle class="cls-2" cx="196.09" cy="424.17" r="2.22"/><polygon class="cls-2" points="238 418.35 184.52 412.77 238.12 416.93 238 418.35 238 418.35"/><polygon class="cls-2" points="237.45 426.83 209.07 424.78 237.52 425.41 237.45 426.83 237.45 426.83"/><circle class="cls-4" cx="201.8" cy="383.33" r="5.86"/><circle class="cls-2" cx="201.8" cy="383.33" r="2.22"/><polygon class="cls-2" points="244.08 384.87 192.38 370.09 244.45 383.5 244.08 384.87 244.08 384.87"/><polygon class="cls-2" points="242.07 393.13 214.47 386.18 242.38 391.74 242.07 393.13 242.07 393.13"/><circle class="cls-4" cx="214.14" cy="343.98" r="5.86"/><circle class="cls-2" cx="214.14" cy="343.98" r="2.22"/><polygon class="cls-2" points="255.5 352.85 207.16 329.32 256.11 351.56 255.5 352.85 255.5 352.85"/><polygon class="cls-2" points="252.09 360.63 226.12 349 252.64 359.32 252.09 360.63 252.09 360.63"/><circle class="cls-4" cx="207.01" cy="363.39" r="5.86"/><circle class="cls-2" cx="207.01" cy="363.39" r="2.22"/><polygon class="cls-2" points="248.99 368.62 198.78 349.39 249.48 367.28 248.99 368.62 248.99 368.62"/><polygon class="cls-2" points="246.27 376.67 219.39 367.34 246.7 375.31 246.27 376.67 246.27 376.67"/><circle class="cls-4" cx="223.09" cy="325.42" r="5.86"/><circle class="cls-2" cx="223.09" cy="325.42" r="2.22"/><polygon class="cls-2" points="263.53 337.85 217.42 310.2 264.24 336.62 263.53 337.85 263.53 337.85"/><polygon class="cls-2" points="259.45 345.31 234.6 331.46 260.11 344.05 259.45 345.31 259.45 345.31"/><circle class="cls-4" cx="245.23" cy="290.25" r="5.86"/><circle class="cls-2" cx="245.23" cy="290.25" r="2.22"/><polygon class="cls-2" points="282.89 309.52 242.29 274.27 283.81 308.43 282.89 309.52 282.89 309.52"/><polygon class="cls-2" points="277.58 316.15 255.51 298.19 278.45 315.02 277.58 316.15 277.58 316.15"/><circle class="cls-4" cx="233.32" cy="307.15" r="5.86"/><circle class="cls-2" cx="233.32" cy="307.15" r="2.22"/><polygon class="cls-2" points="272.52 323.06 229 291.49 273.34 321.9 272.52 323.06 272.52 323.06"/><polygon class="cls-2" points="267.81 330.13 244.25 314.17 268.58 328.93 267.81 330.13 267.81 330.13"/><circle class="cls-4" cx="258.68" cy="274.63" r="5.86"/><circle class="cls-2" cx="258.68" cy="274.63" r="2.22"/><polygon class="cls-2" points="294.52 297.11 257.14 258.46 295.53 296.11 294.52 297.11 294.52 297.11"/><polygon class="cls-2" points="288.65 303.26 268.23 283.44 289.62 302.21 288.65 303.26 288.65 303.26"/><circle class="cls-4" cx="289.08" cy="246.23" r="5.86"/><circle class="cls-2" cx="289.08" cy="246.23" r="2.22"/><polygon class="cls-2" points="320.47 274.59 290.37 230.04 321.64 273.78 320.47 274.59 320.47 274.59"/><polygon class="cls-2" points="313.63 279.63 296.96 256.57 314.76 278.76 313.63 279.63 313.63 279.63"/><circle class="cls-4" cx="273.2" cy="259.47" r="5.86"/><circle class="cls-2" cx="273.14" cy="259.49" r="2.22" transform="translate(-5.08 513.53) rotate(-85.93)"/><polygon class="cls-2" points="306.95 284.99 273.08 243.23 308.04 284.08 306.95 284.99 306.95 284.99"/><polygon class="cls-2" points="300.57 290.6 281.95 269.08 301.62 289.64 300.57 290.6 300.57 290.6"/><circle class="cls-4" cx="306.12" cy="234.63" r="5.86"/><circle class="cls-2" cx="306.12" cy="234.63" r="2.22"/><polygon class="cls-2" points="334.92 265.62 308.82 218.62 336.15 264.91 334.92 265.62 334.92 265.62"/><polygon class="cls-2" points="327.66 270.04 313.06 245.61 328.86 269.28 327.66 270.04 327.66 270.04"/><circle class="cls-4" cx="342.66" cy="215.29" r="5.86"/><circle class="cls-2" cx="342.66" cy="215.29" r="2.22"/><polygon class="cls-2" points="365.64 250.81 348.1 199.99 366.98 250.33 365.64 250.81 365.64 250.81"/><polygon class="cls-2" points="357.73 253.9 347.59 227.31 359.05 253.36 357.73 253.9 357.73 253.9"/><circle class="cls-4" cx="323.9" cy="223.97" r="5.86"/><circle class="cls-2" cx="323.9" cy="223.97" r="2.22"/><polygon class="cls-2" points="349.89 257.36 327.98 208.26 351.18 256.76 349.89 257.36 349.89 257.36"/><polygon class="cls-2" points="342.27 261.12 329.86 235.52 343.54 260.47 342.27 261.12 342.27 261.12"/><circle class="cls-4" cx="362.12" cy="208.5" r="5.86"/><circle class="cls-2" cx="362.12" cy="208.5" r="2.22"/><polygon class="cls-2" points="381.92 245.88 368.87 193.73 383.3 245.52 381.92 245.88 381.92 245.88"/><polygon class="cls-2" points="373.76 248.27 365.98 220.9 375.12 247.85 373.76 248.27 373.76 248.27"/><circle class="cls-4" cx="402.31" cy="199.59" r="5.86"/><circle class="cls-2" cx="402.31" cy="199.59" r="2.22"/><polygon class="cls-2" points="415.32 239.85 411.53 186.22 416.74 239.73 415.32 239.85 415.32 239.85"/><polygon class="cls-2" points="406.87 240.78 403.96 212.48 408.28 240.6 406.87 240.78 406.87 240.78"/><polygon class="cls-2" points="431.38 239.14 432 185.38 432.81 239.14 431.38 239.14 431.38 239.14"/><polygon class="cls-2" points="422.89 239.37 422.3 210.93 424.31 239.31 422.89 239.37 422.89 239.37"/><circle class="cls-4" cx="381.94" cy="203.12" r="5.86"/><circle class="cls-2" cx="381.94" cy="203.12" r="2.22"/><polygon class="cls-2" points="398.4 242.09 389.95 188.99 399.81 241.85 398.4 242.09 398.4 242.09"/><polygon class="cls-2" points="390.07 243.76 384.71 215.81 391.46 243.46 390.07 243.76 390.07 243.76"/><circle class="cls-4" cx="422.87" cy="198.06" r="5.86"/><circle class="cls-2" cx="422.87" cy="198.06" r="2.22"/><circle class="cls-4" cx="463.63" cy="201.17" r="5.86"/><circle class="cls-2" cx="463.63" cy="201.17" r="2.22"/><polygon class="cls-2" points="465.78 243.42 476 190.63 467.18 243.67 465.78 243.42 465.78 243.42"/><polygon class="cls-2" points="457.38 242.14 461.89 214.04 458.79 242.33 457.38 242.14 457.38 242.14"/><circle class="cls-4" cx="443.04" cy="199.3" r="5.86"/><circle class="cls-2" cx="443.04" cy="199.3" r="2.22"/><polygon class="cls-2" points="448.86 241.21 454.44 187.73 450.28 241.33 448.86 241.21 448.86 241.21"/><polygon class="cls-2" points="440.38 240.66 442.43 212.28 441.8 240.73 440.38 240.66 440.38 240.66"/><circle class="cls-4" cx="483.88" cy="205.01" r="5.86"/><circle class="cls-2" cx="483.88" cy="205.01" r="2.22"/><polygon class="cls-2" points="482.34 247.29 497.12 195.59 483.71 247.66 482.34 247.29 482.34 247.29"/><polygon class="cls-2" points="474.08 245.28 481.03 217.68 475.47 245.59 474.08 245.28 474.08 245.28"/><circle class="cls-4" cx="523.23" cy="217.35" r="5.86"/><circle class="cls-2" cx="523.23" cy="217.35" r="2.22"/><polygon class="cls-2" points="514.36 258.71 537.89 210.37 515.65 259.32 514.36 258.71 514.36 258.71"/><polygon class="cls-2" points="506.58 255.3 518.21 229.33 507.89 255.85 506.58 255.3 506.58 255.3"/><circle class="cls-4" cx="503.82" cy="210.22" r="5.86"/><circle class="cls-2" cx="503.82" cy="210.22" r="2.22"/><polygon class="cls-2" points="498.59 252.2 517.82 201.99 499.93 252.69 498.59 252.2 498.59 252.2"/><polygon class="cls-2" points="490.54 249.48 499.87 222.6 491.9 249.91 490.54 249.48 490.54 249.48"/><circle class="cls-4" cx="541.79" cy="226.3" r="5.86"/><circle class="cls-2" cx="541.79" cy="226.3" r="2.22"/><polygon class="cls-2" points="529.36 266.74 557.01 220.63 530.59 267.45 529.36 266.74 529.36 266.74"/><polygon class="cls-2" points="521.9 262.66 535.75 237.81 523.16 263.32 521.9 262.66 521.9 262.66"/><circle class="cls-4" cx="576.96" cy="248.44" r="5.86"/><circle class="cls-2" cx="576.96" cy="248.44" r="2.22"/><polygon class="cls-2" points="557.69 286.1 592.94 245.5 558.78 287.02 557.69 286.1 557.69 286.1"/><polygon class="cls-2" points="551.06 280.79 569.02 258.72 552.19 281.66 551.06 280.79 551.06 280.79"/><circle class="cls-4" cx="560.06" cy="236.53" r="5.86"/><circle class="cls-2" cx="560.06" cy="236.53" r="2.22"/><polygon class="cls-2" points="544.15 275.73 575.72 232.21 545.31 276.55 544.15 275.73 544.15 275.73"/><polygon class="cls-2" points="537.08 271.02 553.04 247.46 538.28 271.79 537.08 271.02 537.08 271.02"/><circle class="cls-4" cx="592.58" cy="261.89" r="5.86"/><circle class="cls-2" cx="592.58" cy="261.89" r="2.22"/><polygon class="cls-2" points="570.1 297.73 608.75 260.35 571.1 298.74 570.1 297.73 570.1 297.73"/><polygon class="cls-2" points="563.95 291.86 583.77 271.44 565 292.83 563.95 291.86 563.95 291.86"/><circle class="cls-4" cx="620.98" cy="292.29" r="5.86"/><circle class="cls-2" cx="620.98" cy="292.29" r="2.22"/><polygon class="cls-2" points="592.62 323.68 637.17 293.58 593.43 324.85 592.62 323.68 592.62 323.68"/><polygon class="cls-2" points="587.58 316.84 610.64 300.17 588.45 317.97 587.58 316.84 587.58 316.84"/><circle class="cls-4" cx="607.74" cy="276.41" r="5.86"/><circle class="cls-2" cx="607.72" cy="276.35" r="2.22" transform="translate(288.93 862.93) rotate(-85.93)"/><polygon class="cls-2" points="582.22 310.16 623.98 276.29 583.13 311.25 582.22 310.16 582.22 310.16"/><polygon class="cls-2" points="576.61 303.78 598.13 285.16 577.57 304.83 576.61 303.78 576.61 303.78"/><circle class="cls-4" cx="632.58" cy="309.33" r="5.86"/><circle class="cls-2" cx="632.58" cy="309.33" r="2.22"/><polygon class="cls-2" points="601.59 338.13 648.59 312.03 602.3 339.36 601.59 338.13 601.59 338.13"/><polygon class="cls-2" points="597.17 330.87 621.6 316.27 597.93 332.07 597.17 330.87 597.17 330.87"/><circle class="cls-4" cx="651.92" cy="345.87" r="5.86"/><circle class="cls-2" cx="651.92" cy="345.87" r="2.22"/><polygon class="cls-2" points="616.4 368.85 667.22 351.31 616.88 370.19 616.4 368.85 616.4 368.85"/><polygon class="cls-2" points="613.31 360.94 639.9 350.8 613.85 362.26 613.31 360.94 613.31 360.94"/><circle class="cls-4" cx="643.24" cy="327.11" r="5.86"/><circle class="cls-2" cx="643.24" cy="327.11" r="2.22"/><polygon class="cls-2" points="609.85 353.1 658.95 331.19 610.45 354.39 609.85 353.1 609.85 353.1"/><polygon class="cls-2" points="606.09 345.48 631.69 333.07 606.74 346.75 606.09 345.48 606.09 345.48"/><circle class="cls-4" cx="658.71" cy="365.33" r="5.86"/><circle class="cls-2" cx="658.71" cy="365.33" r="2.22"/><polygon class="cls-2" points="621.33 385.13 673.48 372.08 621.69 386.51 621.33 385.13 621.33 385.13"/><polygon class="cls-2" points="618.94 376.97 646.31 369.19 619.36 378.33 618.94 376.97 618.94 376.97"/><circle class="cls-4" cx="667.62" cy="405.52" r="5.86"/><circle class="cls-2" cx="667.62" cy="405.52" r="2.22"/><polygon class="cls-2" points="627.36 418.53 680.99 414.74 627.48 419.95 627.36 418.53 627.36 418.53"/><polygon class="cls-2" points="626.43 410.08 654.73 407.17 626.61 411.49 626.43 410.08 626.43 410.08"/><polygon class="cls-2" points="628.07 434.59 681.83 435.21 628.07 436.02 628.07 434.59 628.07 434.59"/><polygon class="cls-2" points="627.84 426.1 656.28 425.51 627.9 427.52 627.84 426.1 627.84 426.1"/><circle class="cls-4" cx="664.09" cy="385.15" r="5.86"/><circle class="cls-2" cx="664.09" cy="385.15" r="2.22"/><polygon class="cls-2" points="625.12 401.61 678.22 393.16 625.36 403.02 625.12 401.61 625.12 401.61"/><polygon class="cls-2" points="623.45 393.28 651.4 387.92 623.75 394.67 623.45 393.28 623.45 393.28"/><circle class="cls-4" cx="669.15" cy="426.08" r="5.86"/><circle class="cls-2" cx="669.15" cy="426.08" r="2.22"/><circle class="cls-3" cx="432" cy="435.21" r="262.37"/><circle class="cls-4" cx="666.04" cy="466.84" r="5.86"/><circle class="cls-2" cx="666.04" cy="466.84" r="2.22"/><polygon class="cls-2" points="623.79 468.99 676.58 479.21 623.54 470.39 623.79 468.99 623.79 468.99"/><polygon class="cls-2" points="625.07 460.59 653.17 465.1 624.88 462 625.07 460.59 625.07 460.59"/><circle class="cls-4" cx="667.91" cy="446.25" r="5.86"/><circle class="cls-2" cx="667.91" cy="446.25" r="2.22"/><polygon class="cls-2" points="626 452.07 679.48 457.65 625.88 453.49 626 452.07 626 452.07"/><polygon class="cls-2" points="626.55 443.59 654.93 445.64 626.48 445.01 626.55 443.59 626.55 443.59"/><circle class="cls-4" cx="662.2" cy="487.09" r="5.86"/><circle class="cls-2" cx="662.2" cy="487.09" r="2.22"/><polygon class="cls-2" points="619.92 485.55 671.62 500.33 619.55 486.92 619.92 485.55 619.92 485.55"/><polygon class="cls-2" points="621.93 477.29 649.53 484.24 621.62 478.68 621.93 477.29 621.93 477.29"/><circle class="cls-4" cx="649.86" cy="526.44" r="5.86"/><circle class="cls-2" cx="649.86" cy="526.44" r="2.22"/><polygon class="cls-2" points="608.5 517.57 656.84 541.1 607.89 518.86 608.5 517.57 608.5 517.57"/><polygon class="cls-2" points="611.91 509.79 637.88 521.42 611.36 511.1 611.91 509.79 611.91 509.79"/><circle class="cls-4" cx="656.99" cy="507.03" r="5.86"/><circle class="cls-2" cx="656.99" cy="507.03" r="2.22"/><polygon class="cls-2" points="615.01 501.8 665.22 521.03 614.52 503.14 615.01 501.8 615.01 501.8"/><polygon class="cls-2" points="617.73 493.75 644.61 503.08 617.3 495.11 617.73 493.75 617.73 493.75"/><circle class="cls-4" cx="640.91" cy="545" r="5.86"/><circle class="cls-2" cx="640.91" cy="545" r="2.22"/><polygon class="cls-2" points="600.47 532.57 646.58 560.22 599.76 533.8 600.47 532.57 600.47 532.57"/><polygon class="cls-2" points="604.55 525.11 629.4 538.96 603.89 526.37 604.55 525.11 604.55 525.11"/><circle class="cls-4" cx="618.77" cy="580.17" r="5.86"/><circle class="cls-2" cx="618.77" cy="580.17" r="2.22"/><polygon class="cls-2" points="581.11 560.9 621.71 596.15 580.19 561.99 581.11 560.9 581.11 560.9"/><polygon class="cls-2" points="586.42 554.27 608.49 572.23 585.55 555.4 586.42 554.27 586.42 554.27"/><circle class="cls-4" cx="630.68" cy="563.27" r="5.86"/><circle class="cls-2" cx="630.68" cy="563.27" r="2.22"/><polygon class="cls-2" points="591.48 547.36 635 578.93 590.66 548.52 591.48 547.36 591.48 547.36"/><polygon class="cls-2" points="596.19 540.29 619.75 556.25 595.42 541.49 596.19 540.29 596.19 540.29"/><circle class="cls-4" cx="605.32" cy="595.79" r="5.86"/><circle class="cls-2" cx="605.32" cy="595.79" r="2.22"/><polygon class="cls-2" points="569.48 573.31 606.86 611.96 568.47 574.31 569.48 573.31 569.48 573.31"/><polygon class="cls-2" points="575.35 567.16 595.77 586.98 574.38 568.21 575.35 567.16 575.35 567.16"/><circle class="cls-4" cx="574.92" cy="624.19" r="5.86"/><circle class="cls-2" cx="574.92" cy="624.19" r="2.22"/><polygon class="cls-2" points="543.53 595.83 573.63 640.38 542.36 596.64 543.53 595.83 543.53 595.83"/><polygon class="cls-2" points="550.37 590.79 567.04 613.85 549.24 591.66 550.37 590.79 550.37 590.79"/><circle class="cls-4" cx="590.8" cy="610.95" r="5.86"/><circle class="cls-2" cx="590.86" cy="610.93" r="2.22" transform="translate(-60.47 1156.94) rotate(-85.93)"/><polygon class="cls-2" points="557.05 585.43 590.92 627.19 555.96 586.34 557.05 585.43 557.05 585.43"/><polygon class="cls-2" points="563.43 579.82 582.05 601.34 562.38 580.78 563.43 579.82 563.43 579.82"/><circle class="cls-4" cx="557.88" cy="635.79" r="5.86"/><circle class="cls-2" cx="557.88" cy="635.79" r="2.22"/><polygon class="cls-2" points="529.08 604.8 555.18 651.8 527.85 605.51 529.08 604.8 529.08 604.8"/><polygon class="cls-2" points="536.34 600.38 550.94 624.81 535.14 601.14 536.34 600.38 536.34 600.38"/><circle class="cls-4" cx="521.34" cy="655.13" r="5.86"/><circle class="cls-2" cx="521.34" cy="655.13" r="2.22"/><polygon class="cls-2" points="498.36 619.61 515.9 670.43 497.02 620.09 498.36 619.61 498.36 619.61"/><polygon class="cls-2" points="506.27 616.52 516.41 643.11 504.95 617.06 506.27 616.52 506.27 616.52"/><circle class="cls-4" cx="540.1" cy="646.45" r="5.86"/><circle class="cls-2" cx="540.1" cy="646.45" r="2.22"/><polygon class="cls-2" points="514.11 613.06 536.02 662.16 512.82 613.66 514.11 613.06 514.11 613.06"/><polygon class="cls-2" points="521.73 609.3 534.14 634.9 520.46 609.95 521.73 609.3 521.73 609.3"/><circle class="cls-4" cx="501.88" cy="661.92" r="5.86"/><circle class="cls-2" cx="501.88" cy="661.92" r="2.22"/><polygon class="cls-2" points="482.08 624.54 495.13 676.69 480.7 624.9 482.08 624.54 482.08 624.54"/><polygon class="cls-2" points="490.24 622.15 498.02 649.52 488.88 622.57 490.24 622.15 490.24 622.15"/><circle class="cls-4" cx="461.69" cy="670.83" r="5.86"/><circle class="cls-2" cx="461.69" cy="670.83" r="2.22"/><polygon class="cls-2" points="448.68 630.57 452.47 684.2 447.26 630.69 448.68 630.57 448.68 630.57"/><polygon class="cls-2" points="457.13 629.64 460.04 657.94 455.72 629.82 457.13 629.64 457.13 629.64"/><polygon class="cls-2" points="432.62 631.28 432 685.04 431.19 631.28 432.62 631.28 432.62 631.28"/><polygon class="cls-2" points="441.11 631.05 441.7 659.49 439.69 631.11 441.11 631.05 441.11 631.05"/><circle class="cls-4" cx="482.06" cy="667.3" r="5.86"/><circle class="cls-2" cx="482.06" cy="667.3" r="2.22"/><polygon class="cls-2" points="465.6 628.33 474.05 681.43 464.19 628.57 465.6 628.33 465.6 628.33"/><polygon class="cls-2" points="473.93 626.66 479.29 654.61 472.54 626.96 473.93 626.66 473.93 626.66"/><circle class="cls-4" cx="441.13" cy="672.36" r="5.86"/><circle class="cls-2" cx="441.13" cy="672.36" r="2.22"/></g><g id="Inner_03"><path d="M239.29,435.21c0-106.43,86.28-192.71,192.71-192.71s192.71,86.28,192.71,192.71-86.28,192.71-192.71,192.71v60.54c139.86,0,253.24-113.38,253.24-253.24s-113.38-253.24-253.24-253.24-253.24,113.38-253.24,253.24h60.54Z"/></g></svg>