<?xml version="1.0" encoding="UTF-8"?>
<svg id="Layer_1" xmlns="http://www.w3.org/2000/svg" version="1.1" viewBox="0 0 864 864">
  <!-- Generator: Adobe Illustrator 30.1.0, SVG Export Plug-In . SVG Version: 2.1.1 Build 136)  -->
  <defs>
    <style>
      .st0 {
        fill: #010101;
      }

      .st1 {
        fill: #fff;
      }

      .st2 {
        stroke: #fff;
        stroke-miterlimit: 10;
        stroke-width: .5px;
      }

      .st2, .st3 {
        fill: none;
      }
    </style>
  </defs>
  <rect id="BG" class="st0" width="864" height="864"/>
  <g id="Outer_x5F_02">
    <path class="st2" d="M654.03,432c0,122.63-99.41,222.03-222.03,222.03"/>
    <circle class="st1" cx="432" cy="654.04" r="2.16"/>
    <circle class="st1" cx="462.58" cy="651.92" r="2.16"/>
    <circle class="st1" cx="507.76" cy="640.71" r="2.16"/>
    <circle class="st1" cx="549.94" cy="620.12" r="2.16"/>
    <circle class="st1" cx="586.96" cy="591.02" r="2.16"/>
    <circle class="st1" cx="612.4" cy="561.44" r="2.16"/>
    <circle class="st1" cx="635" cy="521.95" r="2.16"/>
    <circle class="st1" cx="648.59" cy="480.86" r="2.16"/>
    <path class="st2" d="M432,654.03c-122.63,0-222.03-99.41-222.03-222.03"/>
    <circle class="st1" cx="209.96" cy="432" r="2.16"/>
    <circle class="st1" cx="212.08" cy="462.58" r="2.16"/>
    <circle class="st1" cx="223.29" cy="507.76" r="2.16"/>
    <circle class="st1" cx="243.88" cy="549.94" r="2.16"/>
    <circle class="st1" cx="272.98" cy="586.96" r="2.16"/>
    <circle class="st1" cx="302.56" cy="612.4" r="2.16"/>
    <circle class="st1" cx="342.05" cy="635" r="2.16"/>
    <circle class="st1" cx="383.14" cy="648.59" r="2.16"/>
    <path class="st2" d="M209.97,432c0-122.63,99.41-222.03,222.03-222.03"/>
    <circle class="st1" cx="432" cy="209.96" r="2.16"/>
    <circle class="st1" cx="401.42" cy="212.08" r="2.16"/>
    <circle class="st1" cx="356.24" cy="223.29" r="2.16"/>
    <circle class="st1" cx="314.06" cy="243.88" r="2.16"/>
    <circle class="st1" cx="277.04" cy="272.98" r="2.16"/>
    <circle class="st1" cx="251.6" cy="302.56" r="2.16"/>
    <circle class="st1" cx="229" cy="342.05" r="2.16"/>
    <circle class="st1" cx="215.41" cy="383.14" r="2.16"/>
    <circle class="st3" cx="432" cy="432" r="262.37"/>
    <path class="st2" d="M432,209.97c122.63,0,222.03,99.41,222.03,222.03"/>
    <circle class="st1" cx="654.04" cy="432" r="2.16"/>
    <circle class="st1" cx="651.92" cy="401.42" r="2.16"/>
    <circle class="st1" cx="640.71" cy="356.24" r="2.16"/>
    <circle class="st1" cx="620.12" cy="314.06" r="2.16"/>
    <circle class="st1" cx="591.02" cy="277.04" r="2.16"/>
    <circle class="st1" cx="561.44" cy="251.6" r="2.16"/>
    <circle class="st1" cx="521.95" cy="229" r="2.16"/>
    <circle class="st1" cx="480.86" cy="215.41" r="2.16"/>
  </g>
  <g id="Inner_x5F_02">
    <path d="M432,631.78c-110.33,0-199.78-89.44-199.78-199.78s89.44-199.78,199.78-199.78,199.78,89.44,199.78,199.78h53.46c0-139.86-113.38-253.24-253.24-253.24s-253.24,113.38-253.24,253.24,113.38,253.24,253.24,253.24v-53.46h0Z"/>
  </g>
</svg>