<?xml version="1.0" encoding="UTF-8"?><svg id="Layer_1" xmlns="http://www.w3.org/2000/svg" viewBox="0 0 864 864"><defs><style>.cls-1{fill:#010101;}.cls-2{fill:#fff;}.cls-3,.cls-4{fill:none;}.cls-4{stroke:#fff;stroke-miterlimit:10;stroke-width:.75px;}</style></defs><rect id="BG" class="cls-1" width="864" height="864"/><g id="Outer_03"><animateTransform attributeName="transform" type="rotate" dur="350s" values="0 432 432;360 432 432;" repeatCount="indefinite"/><circle class="cls-4" cx="400.37" cy="666.05" r="5.86"/><circle class="cls-2" cx="400.37" cy="666.05" r="2.22"/><polygon class="cls-2" points="398.22 623.8 388 676.59 396.82 623.55 398.22 623.8 398.22 623.8"/><polygon class="cls-2" points="406.62 625.08 402.11 653.18 405.21 624.89 406.62 625.08 406.62 625.08"/><circle class="cls-4" cx="420.96" cy="667.92" r="5.86"/><circle class="cls-2" cx="420.96" cy="667.92" r="2.22"/><polygon class="cls-2" points="415.14 626.01 409.56 679.49 413.72 625.89 415.14 626.01 415.14 626.01"/><polygon class="cls-2" points="423.62 626.56 421.57 654.94 422.2 626.49 423.62 626.56 423.62 626.56"/><circle class="cls-4" cx="380.12" cy="662.21" r="5.86"/><circle class="cls-2" cx="380.12" cy="662.21" r="2.22"/><polygon class="cls-2" points="381.66 619.93 366.88 671.63 380.29 619.56 381.66 619.93 381.66 619.93"/><polygon class="cls-2" points="389.92 621.94 382.97 649.54 388.53 621.63 389.92 621.94 389.92 621.94"/><circle class="cls-4" cx="340.77" cy="649.87" r="5.86"/><circle class="cls-2" cx="340.77" cy="649.87" r="2.22"/><polygon class="cls-2" points="349.64 608.51 326.11 656.85 348.35 607.9 349.64 608.51 349.64 608.51"/><polygon class="cls-2" points="357.42 611.92 345.79 637.89 356.11 611.37 357.42 611.92 357.42 611.92"/><circle class="cls-4" cx="360.18" cy="657" r="5.86"/><circle class="cls-2" cx="360.18" cy="657" r="2.22"/><polygon class="cls-2" points="365.41 615.02 346.18 665.23 364.07 614.53 365.41 615.02 365.41 615.02"/><polygon class="cls-2" points="373.46 617.74 364.13 644.62 372.1 617.31 373.46 617.74 373.46 617.74"/><circle class="cls-4" cx="322.21" cy="640.92" r="5.86"/><circle class="cls-2" cx="322.21" cy="640.92" r="2.22"/><polygon class="cls-2" points="334.64 600.48 306.99 646.59 333.41 599.77 334.64 600.48 334.64 600.48"/><polygon class="cls-2" points="342.1 604.56 328.25 629.41 340.84 603.9 342.1 604.56 342.1 604.56"/><circle class="cls-4" cx="287.04" cy="618.78" r="5.86"/><circle class="cls-2" cx="287.04" cy="618.78" r="2.22"/><polygon class="cls-2" points="306.31 581.12 271.06 621.72 305.22 580.2 306.31 581.12 306.31 581.12"/><polygon class="cls-2" points="312.94 586.43 294.98 608.5 311.81 585.56 312.94 586.43 312.94 586.43"/><circle class="cls-4" cx="303.94" cy="630.69" r="5.86"/><circle class="cls-2" cx="303.94" cy="630.69" r="2.22"/><polygon class="cls-2" points="319.85 591.49 288.28 635.01 318.69 590.67 319.85 591.49 319.85 591.49"/><polygon class="cls-2" points="326.92 596.2 310.96 619.76 325.72 595.43 326.92 596.2 326.92 596.2"/><circle class="cls-4" cx="271.42" cy="605.33" r="5.86"/><circle class="cls-2" cx="271.42" cy="605.33" r="2.22"/><polygon class="cls-2" points="293.9 569.49 255.25 606.87 292.9 568.48 293.9 569.49 293.9 569.49"/><polygon class="cls-2" points="300.05 575.36 280.23 595.78 299 574.39 300.05 575.36 300.05 575.36"/><circle class="cls-4" cx="243.02" cy="574.93" r="5.86"/><circle class="cls-2" cx="243.02" cy="574.93" r="2.22"/><polygon class="cls-2" points="271.38 543.54 226.83 573.64 270.57 542.37 271.38 543.54 271.38 543.54"/><polygon class="cls-2" points="276.42 550.38 253.36 567.05 275.55 549.25 276.42 550.38 276.42 550.38"/><circle class="cls-4" cx="256.26" cy="590.81" r="5.86"/><circle class="cls-2" cx="256.28" cy="590.87" r="2.22" transform="translate(-351.29 804.57) rotate(-85.93)"/><polygon class="cls-2" points="281.78 557.06 240.02 590.93 280.87 555.97 281.78 557.06 281.78 557.06"/><polygon class="cls-2" points="287.39 563.44 265.87 582.06 286.43 562.39 287.39 563.44 287.39 563.44"/><circle class="cls-4" cx="231.42" cy="557.89" r="5.86"/><circle class="cls-2" cx="231.42" cy="557.89" r="2.22"/><polygon class="cls-2" points="262.41 529.09 215.41 555.19 261.7 527.86 262.41 529.09 262.41 529.09"/><polygon class="cls-2" points="266.83 536.35 242.4 550.95 266.07 535.15 266.83 536.35 266.83 536.35"/><circle class="cls-4" cx="212.08" cy="521.35" r="5.86"/><circle class="cls-2" cx="212.08" cy="521.35" r="2.22"/><polygon class="cls-2" points="247.6 498.37 196.78 515.91 247.12 497.03 247.6 498.37 247.6 498.37"/><polygon class="cls-2" points="250.69 506.28 224.1 516.42 250.15 504.96 250.69 506.28 250.69 506.28"/><circle class="cls-4" cx="220.76" cy="540.11" r="5.86"/><circle class="cls-2" cx="220.76" cy="540.11" r="2.22"/><polygon class="cls-2" points="254.15 514.12 205.05 536.03 253.55 512.83 254.15 514.12 254.15 514.12"/><polygon class="cls-2" points="257.91 521.74 232.31 534.15 257.26 520.47 257.91 521.74 257.91 521.74"/><circle class="cls-4" cx="205.29" cy="501.89" r="5.86"/><circle class="cls-2" cx="205.29" cy="501.89" r="2.22"/><polygon class="cls-2" points="242.67 482.09 190.52 495.14 242.31 480.71 242.67 482.09 242.67 482.09"/><polygon class="cls-2" points="245.06 490.25 217.69 498.03 244.64 488.89 245.06 490.25 245.06 490.25"/><circle class="cls-4" cx="196.38" cy="461.7" r="5.86"/><circle class="cls-2" cx="196.38" cy="461.7" r="2.22"/><polygon class="cls-2" points="236.64 448.69 183.01 452.48 236.52 447.27 236.64 448.69 236.64 448.69"/><polygon class="cls-2" points="237.57 457.14 209.27 460.05 237.39 455.73 237.57 457.14 237.57 457.14"/><polygon class="cls-2" points="235.93 432.63 182.17 432.01 235.93 431.2 235.93 432.63 235.93 432.63"/><polygon class="cls-2" points="236.16 441.12 207.72 441.71 236.1 439.7 236.16 441.12 236.16 441.12"/><circle class="cls-4" cx="199.91" cy="482.07" r="5.86"/><circle class="cls-2" cx="199.91" cy="482.07" r="2.22"/><polygon class="cls-2" points="238.88 465.61 185.78 474.06 238.64 464.2 238.88 465.61 238.88 465.61"/><polygon class="cls-2" points="240.55 473.94 212.6 479.3 240.25 472.55 240.55 473.94 240.55 473.94"/><circle class="cls-4" cx="194.85" cy="441.14" r="5.86"/><circle class="cls-2" cx="194.85" cy="441.14" r="2.22"/><circle class="cls-4" cx="197.96" cy="400.38" r="5.86"/><circle class="cls-2" cx="197.96" cy="400.38" r="2.22"/><polygon class="cls-2" points="240.21 398.23 187.42 388.01 240.46 396.83 240.21 398.23 240.21 398.23"/><polygon class="cls-2" points="238.93 406.63 210.83 402.12 239.12 405.22 238.93 406.63 238.93 406.63"/><circle class="cls-4" cx="196.09" cy="420.97" r="5.86"/><circle class="cls-2" cx="196.09" cy="420.97" r="2.22"/><polygon class="cls-2" points="238 415.15 184.52 409.57 238.12 413.73 238 415.15 238 415.15"/><polygon class="cls-2" points="237.45 423.63 209.07 421.58 237.52 422.21 237.45 423.63 237.45 423.63"/><circle class="cls-4" cx="201.8" cy="380.13" r="5.86"/><circle class="cls-2" cx="201.8" cy="380.13" r="2.22"/><polygon class="cls-2" points="244.08 381.67 192.38 366.89 244.45 380.3 244.08 381.67 244.08 381.67"/><polygon class="cls-2" points="242.07 389.93 214.47 382.98 242.38 388.54 242.07 389.93 242.07 389.93"/><circle class="cls-4" cx="214.14" cy="340.78" r="5.86"/><circle class="cls-2" cx="214.14" cy="340.78" r="2.22"/><polygon class="cls-2" points="255.5 349.65 207.16 326.12 256.11 348.36 255.5 349.65 255.5 349.65"/><polygon class="cls-2" points="252.09 357.43 226.12 345.8 252.64 356.12 252.09 357.43 252.09 357.43"/><circle class="cls-4" cx="207.01" cy="360.19" r="5.86"/><circle class="cls-2" cx="207.01" cy="360.19" r="2.22"/><polygon class="cls-2" points="248.99 365.42 198.78 346.19 249.48 364.08 248.99 365.42 248.99 365.42"/><polygon class="cls-2" points="246.27 373.47 219.39 364.14 246.7 372.11 246.27 373.47 246.27 373.47"/><circle class="cls-4" cx="223.09" cy="322.22" r="5.86"/><circle class="cls-2" cx="223.09" cy="322.22" r="2.22"/><polygon class="cls-2" points="263.53 334.65 217.42 307 264.24 333.42 263.53 334.65 263.53 334.65"/><polygon class="cls-2" points="259.45 342.11 234.6 328.26 260.11 340.85 259.45 342.11 259.45 342.11"/><circle class="cls-4" cx="245.23" cy="287.05" r="5.86"/><circle class="cls-2" cx="245.23" cy="287.05" r="2.22"/><polygon class="cls-2" points="282.89 306.32 242.29 271.07 283.81 305.23 282.89 306.32 282.89 306.32"/><polygon class="cls-2" points="277.58 312.95 255.51 294.99 278.45 311.82 277.58 312.95 277.58 312.95"/><circle class="cls-4" cx="233.32" cy="303.95" r="5.86"/><circle class="cls-2" cx="233.32" cy="303.95" r="2.22"/><polygon class="cls-2" points="272.52 319.86 229 288.29 273.34 318.7 272.52 319.86 272.52 319.86"/><polygon class="cls-2" points="267.81 326.93 244.25 310.97 268.58 325.73 267.81 326.93 267.81 326.93"/><circle class="cls-4" cx="258.68" cy="271.43" r="5.86"/><circle class="cls-2" cx="258.68" cy="271.43" r="2.22"/><polygon class="cls-2" points="294.52 293.91 257.14 255.26 295.53 292.91 294.52 293.91 294.52 293.91"/><polygon class="cls-2" points="288.65 300.06 268.23 280.24 289.62 299.01 288.65 300.06 288.65 300.06"/><circle class="cls-4" cx="289.08" cy="243.03" r="5.86"/><circle class="cls-2" cx="289.08" cy="243.03" r="2.22"/><polygon class="cls-2" points="320.47 271.39 290.37 226.84 321.64 270.58 320.47 271.39 320.47 271.39"/><polygon class="cls-2" points="313.63 276.43 296.96 253.37 314.76 275.56 313.63 276.43 313.63 276.43"/><circle class="cls-4" cx="273.2" cy="256.27" r="5.86"/><circle class="cls-2" cx="273.14" cy="256.3" r="2.22"/><polygon class="cls-2" points="306.95 281.79 273.08 240.03 308.04 280.88 306.95 281.79 306.95 281.79"/><polygon class="cls-2" points="300.57 287.4 281.95 265.88 301.62 286.44 300.57 287.4 300.57 287.4"/><circle class="cls-4" cx="306.12" cy="231.43" r="5.86"/><circle class="cls-2" cx="306.12" cy="231.43" r="2.22"/><polygon class="cls-2" points="334.92 262.42 308.82 215.42 336.15 261.71 334.92 262.42 334.92 262.42"/><polygon class="cls-2" points="327.66 266.84 313.06 242.41 328.86 266.08 327.66 266.84 327.66 266.84"/><circle class="cls-4" cx="342.66" cy="212.09" r="5.86"/><circle class="cls-2" cx="342.66" cy="212.09" r="2.22"/><polygon class="cls-2" points="365.64 247.61 348.1 196.79 366.98 247.13 365.64 247.61 365.64 247.61"/><polygon class="cls-2" points="357.73 250.7 347.59 224.11 359.05 250.16 357.73 250.7 357.73 250.7"/><circle class="cls-4" cx="323.9" cy="220.77" r="5.86"/><circle class="cls-2" cx="323.9" cy="220.77" r="2.22"/><polygon class="cls-2" points="349.89 254.16 327.98 205.06 351.18 253.56 349.89 254.16 349.89 254.16"/><polygon class="cls-2" points="342.27 257.92 329.86 232.32 343.54 257.27 342.27 257.92 342.27 257.92"/><circle class="cls-4" cx="362.12" cy="205.3" r="5.86"/><circle class="cls-2" cx="362.12" cy="205.3" r="2.22"/><polygon class="cls-2" points="381.92 242.68 368.87 190.53 383.3 242.32 381.92 242.68 381.92 242.68"/><polygon class="cls-2" points="373.76 245.07 365.98 217.7 375.12 244.65 373.76 245.07 373.76 245.07"/><circle class="cls-4" cx="402.31" cy="196.39" r="5.86"/><circle class="cls-2" cx="402.31" cy="196.39" r="2.22"/><polygon class="cls-2" points="415.32 236.65 411.53 183.02 416.74 236.53 415.32 236.65 415.32 236.65"/><polygon class="cls-2" points="406.87 237.58 403.96 209.28 408.28 237.4 406.87 237.58 406.87 237.58"/><polygon class="cls-2" points="431.38 235.94 432 182.18 432.81 235.94 431.38 235.94 431.38 235.94"/><polygon class="cls-2" points="422.89 236.17 422.3 207.73 424.31 236.11 422.89 236.17 422.89 236.17"/><circle class="cls-4" cx="381.94" cy="199.92" r="5.86"/><circle class="cls-2" cx="381.94" cy="199.92" r="2.22"/><polygon class="cls-2" points="398.4 238.89 389.95 185.79 399.81 238.65 398.4 238.89 398.4 238.89"/><polygon class="cls-2" points="390.07 240.56 384.71 212.61 391.46 240.26 390.07 240.56 390.07 240.56"/><circle class="cls-4" cx="422.87" cy="194.86" r="5.86"/><circle class="cls-2" cx="422.87" cy="194.86" r="2.22"/><circle class="cls-4" cx="463.63" cy="197.97" r="5.86"/><circle class="cls-2" cx="463.63" cy="197.97" r="2.22"/><polygon class="cls-2" points="465.78 240.22 476 187.43 467.18 240.47 465.78 240.22 465.78 240.22"/><polygon class="cls-2" points="457.38 238.94 461.89 210.84 458.79 239.13 457.38 238.94 457.38 238.94"/><circle class="cls-4" cx="443.04" cy="196.1" r="5.86"/><circle class="cls-2" cx="443.04" cy="196.1" r="2.22"/><polygon class="cls-2" points="448.86 238.01 454.44 184.53 450.28 238.13 448.86 238.01 448.86 238.01"/><polygon class="cls-2" points="440.38 237.46 442.43 209.08 441.8 237.53 440.38 237.46 440.38 237.46"/><circle class="cls-4" cx="483.88" cy="201.81" r="5.86"/><circle class="cls-2" cx="483.88" cy="201.81" r="2.22"/><polygon class="cls-2" points="482.34 244.09 497.12 192.39 483.71 244.46 482.34 244.09 482.34 244.09"/><polygon class="cls-2" points="474.08 242.08 481.03 214.48 475.47 242.39 474.08 242.08 474.08 242.08"/><circle class="cls-4" cx="523.23" cy="214.15" r="5.86"/><circle class="cls-2" cx="523.23" cy="214.15" r="2.22"/><polygon class="cls-2" points="514.36 255.51 537.89 207.17 515.65 256.12 514.36 255.51 514.36 255.51"/><polygon class="cls-2" points="506.58 252.1 518.21 226.13 507.89 252.65 506.58 252.1 506.58 252.1"/><circle class="cls-4" cx="503.82" cy="207.02" r="5.86"/><circle class="cls-2" cx="503.82" cy="207.02" r="2.22"/><polygon class="cls-2" points="498.59 249 517.82 198.79 499.93 249.49 498.59 249 498.59 249"/><polygon class="cls-2" points="490.54 246.28 499.87 219.4 491.9 246.71 490.54 246.28 490.54 246.28"/><circle class="cls-4" cx="541.79" cy="223.1" r="5.86"/><circle class="cls-2" cx="541.79" cy="223.1" r="2.22"/><polygon class="cls-2" points="529.36 263.54 557.01 217.43 530.59 264.25 529.36 263.54 529.36 263.54"/><polygon class="cls-2" points="521.9 259.46 535.75 234.61 523.16 260.12 521.9 259.46 521.9 259.46"/><circle class="cls-4" cx="576.96" cy="245.24" r="5.86"/><circle class="cls-2" cx="576.96" cy="245.24" r="2.22"/><polygon class="cls-2" points="557.69 282.9 592.94 242.3 558.78 283.82 557.69 282.9 557.69 282.9"/><polygon class="cls-2" points="551.06 277.59 569.02 255.52 552.19 278.46 551.06 277.59 551.06 277.59"/><circle class="cls-4" cx="560.06" cy="233.33" r="5.86"/><circle class="cls-2" cx="560.06" cy="233.33" r="2.22"/><polygon class="cls-2" points="544.15 272.53 575.72 229.01 545.31 273.35 544.15 272.53 544.15 272.53"/><polygon class="cls-2" points="537.08 267.82 553.04 244.26 538.28 268.59 537.08 267.82 537.08 267.82"/><circle class="cls-4" cx="592.58" cy="258.69" r="5.86"/><circle class="cls-2" cx="592.58" cy="258.69" r="2.22"/><polygon class="cls-2" points="570.1 294.53 608.75 257.15 571.1 295.54 570.1 294.53 570.1 294.53"/><polygon class="cls-2" points="563.95 288.66 583.77 268.24 565 289.63 563.95 288.66 563.95 288.66"/><circle class="cls-4" cx="620.98" cy="289.09" r="5.86"/><circle class="cls-2" cx="620.98" cy="289.09" r="2.22"/><polygon class="cls-2" points="592.62 320.48 637.17 290.38 593.43 321.65 592.62 320.48 592.62 320.48"/><polygon class="cls-2" points="587.58 313.64 610.64 296.97 588.45 314.77 587.58 313.64 587.58 313.64"/><circle class="cls-4" cx="607.74" cy="273.21" r="5.86"/><circle class="cls-2" cx="607.72" cy="273.16" r="2.22" transform="translate(292.12 859.95) rotate(-85.93)"/><polygon class="cls-2" points="582.22 306.96 623.98 273.09 583.13 308.05 582.22 306.96 582.22 306.96"/><polygon class="cls-2" points="576.61 300.58 598.13 281.96 577.57 301.63 576.61 300.58 576.61 300.58"/><circle class="cls-4" cx="632.58" cy="306.13" r="5.86"/><circle class="cls-2" cx="632.58" cy="306.13" r="2.22"/><polygon class="cls-2" points="601.59 334.93 648.59 308.83 602.3 336.16 601.59 334.93 601.59 334.93"/><polygon class="cls-2" points="597.17 327.67 621.6 313.07 597.93 328.87 597.17 327.67 597.17 327.67"/><circle class="cls-4" cx="651.92" cy="342.67" r="5.86"/><circle class="cls-2" cx="651.92" cy="342.67" r="2.22"/><polygon class="cls-2" points="616.4 365.65 667.22 348.11 616.88 366.99 616.4 365.65 616.4 365.65"/><polygon class="cls-2" points="613.31 357.74 639.9 347.6 613.85 359.06 613.31 357.74 613.31 357.74"/><circle class="cls-4" cx="643.24" cy="323.91" r="5.86"/><circle class="cls-2" cx="643.24" cy="323.91" r="2.22"/><polygon class="cls-2" points="609.85 349.9 658.95 327.99 610.45 351.19 609.85 349.9 609.85 349.9"/><polygon class="cls-2" points="606.09 342.28 631.69 329.87 606.74 343.55 606.09 342.28 606.09 342.28"/><circle class="cls-4" cx="658.71" cy="362.13" r="5.86"/><circle class="cls-2" cx="658.71" cy="362.13" r="2.22"/><polygon class="cls-2" points="621.33 381.93 673.48 368.88 621.69 383.31 621.33 381.93 621.33 381.93"/><polygon class="cls-2" points="618.94 373.77 646.31 365.99 619.36 375.13 618.94 373.77 618.94 373.77"/><circle class="cls-4" cx="667.62" cy="402.32" r="5.86"/><circle class="cls-2" cx="667.62" cy="402.32" r="2.22"/><polygon class="cls-2" points="627.36 415.33 680.99 411.54 627.48 416.75 627.36 415.33 627.36 415.33"/><polygon class="cls-2" points="626.43 406.88 654.73 403.97 626.61 408.29 626.43 406.88 626.43 406.88"/><polygon class="cls-2" points="628.07 431.39 681.83 432.01 628.07 432.82 628.07 431.39 628.07 431.39"/><polygon class="cls-2" points="627.84 422.9 656.28 422.31 627.9 424.32 627.84 422.9 627.84 422.9"/><circle class="cls-4" cx="664.09" cy="381.95" r="5.86"/><circle class="cls-2" cx="664.09" cy="381.95" r="2.22"/><polygon class="cls-2" points="625.12 398.41 678.22 389.96 625.36 399.82 625.12 398.41 625.12 398.41"/><polygon class="cls-2" points="623.45 390.08 651.4 384.72 623.75 391.47 623.45 390.08 623.45 390.08"/><circle class="cls-4" cx="669.15" cy="422.88" r="5.86"/><circle class="cls-2" cx="669.15" cy="422.88" r="2.22"/><circle class="cls-3" cx="432" cy="432.01" r="262.37"/><circle class="cls-4" cx="666.04" cy="463.64" r="5.86"/><circle class="cls-2" cx="666.04" cy="463.64" r="2.22"/><polygon class="cls-2" points="623.79 465.79 676.58 476.01 623.54 467.19 623.79 465.79 623.79 465.79"/><polygon class="cls-2" points="625.07 457.39 653.17 461.9 624.88 458.8 625.07 457.39 625.07 457.39"/><circle class="cls-4" cx="667.91" cy="443.05" r="5.86"/><circle class="cls-2" cx="667.91" cy="443.05" r="2.22"/><polygon class="cls-2" points="626 448.87 679.48 454.45 625.88 450.29 626 448.87 626 448.87"/><polygon class="cls-2" points="626.55 440.39 654.93 442.44 626.48 441.81 626.55 440.39 626.55 440.39"/><circle class="cls-4" cx="662.2" cy="483.89" r="5.86"/><circle class="cls-2" cx="662.2" cy="483.89" r="2.22"/><polygon class="cls-2" points="619.92 482.35 671.62 497.13 619.55 483.72 619.92 482.35 619.92 482.35"/><polygon class="cls-2" points="621.93 474.09 649.53 481.04 621.62 475.48 621.93 474.09 621.93 474.09"/><circle class="cls-4" cx="649.86" cy="523.24" r="5.86"/><circle class="cls-2" cx="649.86" cy="523.24" r="2.22"/><polygon class="cls-2" points="608.5 514.37 656.84 537.9 607.89 515.66 608.5 514.37 608.5 514.37"/><polygon class="cls-2" points="611.91 506.59 637.88 518.22 611.36 507.9 611.91 506.59 611.91 506.59"/><circle class="cls-4" cx="656.99" cy="503.83" r="5.86"/><circle class="cls-2" cx="656.99" cy="503.83" r="2.22"/><polygon class="cls-2" points="615.01 498.6 665.22 517.83 614.52 499.94 615.01 498.6 615.01 498.6"/><polygon class="cls-2" points="617.73 490.55 644.61 499.88 617.3 491.91 617.73 490.55 617.73 490.55"/><circle class="cls-4" cx="640.91" cy="541.8" r="5.86"/><circle class="cls-2" cx="640.91" cy="541.8" r="2.22"/><polygon class="cls-2" points="600.47 529.37 646.58 557.02 599.76 530.6 600.47 529.37 600.47 529.37"/><polygon class="cls-2" points="604.55 521.91 629.4 535.76 603.89 523.17 604.55 521.91 604.55 521.91"/><circle class="cls-4" cx="618.77" cy="576.97" r="5.86"/><circle class="cls-2" cx="618.77" cy="576.97" r="2.22"/><polygon class="cls-2" points="581.11 557.7 621.71 592.95 580.19 558.79 581.11 557.7 581.11 557.7"/><polygon class="cls-2" points="586.42 551.07 608.49 569.03 585.55 552.2 586.42 551.07 586.42 551.07"/><circle class="cls-4" cx="630.68" cy="560.07" r="5.86"/><circle class="cls-2" cx="630.68" cy="560.07" r="2.22"/><polygon class="cls-2" points="591.48 544.16 635 575.73 590.66 545.32 591.48 544.16 591.48 544.16"/><polygon class="cls-2" points="596.19 537.09 619.75 553.05 595.42 538.29 596.19 537.09 596.19 537.09"/><circle class="cls-4" cx="605.32" cy="592.59" r="5.86"/><circle class="cls-2" cx="605.32" cy="592.59" r="2.22"/><polygon class="cls-2" points="569.48 570.11 606.86 608.76 568.47 571.11 569.48 570.11 569.48 570.11"/><polygon class="cls-2" points="575.35 563.96 595.77 583.78 574.38 565.01 575.35 563.96 575.35 563.96"/><circle class="cls-4" cx="574.92" cy="620.99" r="5.86"/><circle class="cls-2" cx="574.92" cy="620.99" r="2.22"/><polygon class="cls-2" points="543.53 592.63 573.63 637.18 542.36 593.44 543.53 592.63 543.53 592.63"/><polygon class="cls-2" points="550.37 587.59 567.04 610.65 549.24 588.46 550.37 587.59 550.37 587.59"/><circle class="cls-4" cx="590.8" cy="607.75" r="5.86"/><circle class="cls-2" cx="590.86" cy="607.73" r="2.22"/><polygon class="cls-2" points="557.05 582.23 590.92 623.99 555.96 583.14 557.05 582.23 557.05 582.23"/><polygon class="cls-2" points="563.43 576.62 582.05 598.14 562.38 577.58 563.43 576.62 563.43 576.62"/><circle class="cls-4" cx="557.88" cy="632.59" r="5.86"/><circle class="cls-2" cx="557.88" cy="632.59" r="2.22"/><polygon class="cls-2" points="529.08 601.6 555.18 648.6 527.85 602.31 529.08 601.6 529.08 601.6"/><polygon class="cls-2" points="536.34 597.18 550.94 621.61 535.14 597.94 536.34 597.18 536.34 597.18"/><circle class="cls-4" cx="521.34" cy="651.93" r="5.86"/><circle class="cls-2" cx="521.34" cy="651.93" r="2.22"/><polygon class="cls-2" points="498.36 616.41 515.9 667.23 497.02 616.89 498.36 616.41 498.36 616.41"/><polygon class="cls-2" points="506.27 613.32 516.41 639.91 504.95 613.86 506.27 613.32 506.27 613.32"/><circle class="cls-4" cx="540.1" cy="643.25" r="5.86"/><circle class="cls-2" cx="540.1" cy="643.25" r="2.22"/><polygon class="cls-2" points="514.11 609.86 536.02 658.96 512.82 610.46 514.11 609.86 514.11 609.86"/><polygon class="cls-2" points="521.73 606.1 534.14 631.7 520.46 606.75 521.73 606.1 521.73 606.1"/><circle class="cls-4" cx="501.88" cy="658.72" r="5.86"/><circle class="cls-2" cx="501.88" cy="658.72" r="2.22"/><polygon class="cls-2" points="482.08 621.34 495.13 673.49 480.7 621.7 482.08 621.34 482.08 621.34"/><polygon class="cls-2" points="490.24 618.95 498.02 646.32 488.88 619.37 490.24 618.95 490.24 618.95"/><circle class="cls-4" cx="461.69" cy="667.63" r="5.86"/><circle class="cls-2" cx="461.69" cy="667.63" r="2.22"/><polygon class="cls-2" points="448.68 627.37 452.47 681 447.26 627.49 448.68 627.37 448.68 627.37"/><polygon class="cls-2" points="457.13 626.44 460.04 654.74 455.72 626.62 457.13 626.44 457.13 626.44"/><polygon class="cls-2" points="432.62 628.08 432 681.84 431.19 628.08 432.62 628.08 432.62 628.08"/><polygon class="cls-2" points="441.11 627.85 441.7 656.29 439.69 627.91 441.11 627.85 441.11 627.85"/><circle class="cls-4" cx="482.06" cy="664.1" r="5.86"/><circle class="cls-2" cx="482.06" cy="664.1" r="2.22"/><polygon class="cls-2" points="465.6 625.13 474.05 678.23 464.19 625.37 465.6 625.13 465.6 625.13"/><polygon class="cls-2" points="473.93 623.46 479.29 651.41 472.54 623.76 473.93 623.46 473.93 623.46"/><circle class="cls-4" cx="441.13" cy="669.16" r="5.86"/><circle class="cls-2" cx="441.13" cy="669.16" r="2.22"/></g><g id="Inner_03"><path d="M239.29,432.1c0-106.43,86.28-192.71,192.71-192.71s192.71,86.28,192.71,192.71-86.28,192.71-192.71,192.71v60.54c139.86,0,253.24-113.38,253.24-253.24s-113.38-253.24-253.24-253.24-253.24,113.38-253.24,253.24h60.54,0Z"/></g><circle cx="432" cy="432.01" r="191.45"/></svg>