<?xml version="1.0" encoding="UTF-8"?><svg xmlns="http://www.w3.org/2000/svg" viewBox="0 0 864 864"><defs><style>.cls-1{fill:#010101;}.cls-2{fill:#fff;}.cls-3{stroke:#fff;stroke-miterlimit:10;stroke-width:.5px;}.cls-3,.cls-4{fill:none;}</style></defs><g id="Layer_3"><g id="BG"><rect class="cls-1" width="864" height="864"/></g></g><g id="Outer_02"><animateTransform attributeName="transform" type="rotate" dur="350s" values="0 432 432;360 432 432;" repeatCount="indefinite"/><path class="cls-3" d="M654.03,435.21c0,122.63-99.41,222.03-222.03,222.03"/><circle class="cls-2" cx="432" cy="657.25" r="2.16"/><circle class="cls-2" cx="462.58" cy="655.13" r="2.16"/><circle class="cls-2" cx="507.76" cy="643.92" r="2.16"/><circle class="cls-2" cx="549.94" cy="623.33" r="2.16"/><circle class="cls-2" cx="586.96" cy="594.23" r="2.16"/><circle class="cls-2" cx="612.4" cy="564.65" r="2.16"/><circle class="cls-2" cx="635" cy="525.16" r="2.16"/><circle class="cls-2" cx="648.59" cy="484.07" r="2.16"/><path class="cls-3" d="M432,657.24c-122.63,0-222.03-99.41-222.03-222.03"/><circle class="cls-2" cx="209.96" cy="435.21" r="2.16"/><circle class="cls-2" cx="212.08" cy="465.79" r="2.16"/><circle class="cls-2" cx="223.29" cy="510.97" r="2.16"/><circle class="cls-2" cx="243.88" cy="553.15" r="2.16"/><circle class="cls-2" cx="272.98" cy="590.17" r="2.16"/><circle class="cls-2" cx="302.56" cy="615.61" r="2.16"/><circle class="cls-2" cx="342.05" cy="638.21" r="2.16"/><circle class="cls-2" cx="383.14" cy="651.8" r="2.16"/><path class="cls-3" d="M209.97,435.21c0-122.63,99.41-222.03,222.03-222.03"/><circle class="cls-2" cx="432" cy="213.17" r="2.16"/><circle class="cls-2" cx="401.42" cy="215.29" r="2.16"/><circle class="cls-2" cx="356.24" cy="226.5" r="2.16"/><circle class="cls-2" cx="314.06" cy="247.09" r="2.16"/><circle class="cls-2" cx="277.04" cy="276.19" r="2.16"/><circle class="cls-2" cx="251.6" cy="305.77" r="2.16"/><circle class="cls-2" cx="229" cy="345.26" r="2.16"/><circle class="cls-2" cx="215.41" cy="386.35" r="2.16"/><circle class="cls-4" cx="432" cy="435.21" r="262.37"/><path class="cls-3" d="M432,213.18c122.63,0,222.03,99.41,222.03,222.03"/><circle class="cls-2" cx="654.04" cy="435.21" r="2.16"/><circle class="cls-2" cx="651.92" cy="404.63" r="2.16"/><circle class="cls-2" cx="640.71" cy="359.45" r="2.16"/><circle class="cls-2" cx="620.12" cy="317.27" r="2.16"/><circle class="cls-2" cx="591.02" cy="280.25" r="2.16"/><circle class="cls-2" cx="561.44" cy="254.81" r="2.16"/><circle class="cls-2" cx="521.95" cy="232.21" r="2.16"/><circle class="cls-2" cx="480.86" cy="218.62" r="2.16"/></g><g id="Inner_02"><path d="M432,634.99c-110.33,0-199.78-89.44-199.78-199.78s89.44-199.78,199.78-199.78,199.78,89.44,199.78,199.78h53.46c0-139.86-113.38-253.24-253.24-253.24s-253.24,113.38-253.24,253.24,113.38,253.24,253.24,253.24v-53.46Z"/></g></svg>