<?xml version="1.0" encoding="UTF-8"?><svg xmlns="http://www.w3.org/2000/svg" viewBox="0 0 864 864"><defs><style>.cls-1{fill:#010101;}.cls-2{fill:#fff;}.cls-3,.cls-4,.cls-5,.cls-6{fill:none;}.cls-4{stroke-width:.21px;}.cls-4,.cls-5,.cls-6{stroke:#fff;stroke-miterlimit:10;}.cls-5{stroke-width:.75px;}.cls-6{stroke-width:.35px;}</style></defs><g id="Layer_3"><g id="BG"><rect class="cls-1" width="864" height="864"/></g></g><g id="Outer_01"><circle class="cls-3" cx="432" cy="435.21" r="262.37"/><circle class="cls-5" cx="432" cy="435.21" r="247.48"/><path class="cls-4" d="M432,232.14c112.16,0,203.08,90.92,203.08,203.08"/><path class="cls-4" d="M432,224.44c116.41,0,210.77,94.37,210.77,210.77"/><path class="cls-4" d="M432,216.12c121,0,219.09,98.09,219.09,219.09"/><path class="cls-4" d="M432,207.05c126.01,0,228.16,102.15,228.16,228.16"/><path class="cls-4" d="M432,197.49c131.29,0,237.72,106.43,237.72,237.72"/><polyline class="cls-6" points="432 187.73 454.3 228.43 486.81 193.82 499.74 238.53 540.51 212.73 542.66 259.1 585.9 241.39 579.36 288.47 626.71 282.44 608.34 324.91 654.51 326.75 628.61 367.26 673.5 380.89 638.77 412.78 679.48 436.16"/><polyline class="cls-6" points="639.96 435.21 678 408.03 635.08 390.18 665.75 353.72 618.99 344.06 641.45 303.33 594.67 305.63 607.06 260.29 561.54 272.51 562.89 225.14 523.22 247.77 512.72 201.2 477.94 232.34 458.28 189.11 432 227.25"/><circle class="cls-2" cx="561.54" cy="272.51" r="2.16"/><circle class="cls-2" cx="541.65" cy="237.26" r="2.16"/><circle class="cls-2" cx="458.28" cy="189.11" r="2.16"/><path class="cls-2" d="M512.72,199.04c1.19,0,2.16.97,2.16,2.16s-.97,2.16-2.16,2.16-2.16-.97-2.16-2.16.97-2.16,2.16-2.16Z"/><circle class="cls-2" cx="607.06" cy="260.29" r="2.16"/><circle class="cls-2" cx="641.45" cy="303.33" r="2.16"/><circle class="cls-2" cx="618.99" cy="344.06" r="2.16"/><circle class="cls-2" cx="656.84" cy="423.15" r="2.16"/><circle class="cls-2" cx="562.15" cy="251.12" r="1.67"/><circle class="cls-2" cx="477.94" cy="232.34" r="1.68"/><circle class="cls-2" cx="523.22" cy="247.77" r="1.67"/><circle class="cls-2" cx="562.89" cy="225.14" r="1.67"/><circle class="cls-2" cx="640.65" cy="348.7" r="1.67"/><circle class="cls-2" cx="649.12" cy="373.49" r="1.67"/><circle class="cls-2" cx="678" cy="408.03" r="1.67"/><circle class="cls-2" cx="635.08" cy="390.18" r="1.08"/><circle class="cls-2" cx="665.75" cy="353.72" r="1.08"/><circle class="cls-2" cx="637.76" cy="326.29" r="2.16"/><circle class="cls-2" cx="617.16" cy="304.53" r="1.08"/><circle class="cls-2" cx="594.67" cy="305.63" r="1.08"/><circle class="cls-2" cx="600.08" cy="285.83" r="1.08"/><circle class="cls-2" cx="582.35" cy="266.92" r="1.08"/><circle class="cls-2" cx="518.51" cy="226.53" r="1.08"/><circle class="cls-2" cx="493.84" cy="218.1" r="1.08"/><path class="cls-4" d="M228.93,435.21c0-112.16,90.92-203.08,203.08-203.08"/><path class="cls-4" d="M221.23,435.21c0-116.41,94.37-210.77,210.77-210.77"/><path class="cls-4" d="M212.91,435.21c0-121,98.09-219.09,219.09-219.09"/><path class="cls-4" d="M203.84,435.21c0-126.01,102.15-228.16,228.16-228.16"/><path class="cls-4" d="M194.28,435.21c0-131.29,106.43-237.72,237.72-237.72"/><polyline class="cls-6" points="184.52 435.21 225.22 412.91 190.61 380.4 235.32 367.47 209.52 326.7 255.89 324.55 238.18 281.31 285.26 287.85 279.23 240.5 321.7 258.87 323.54 212.7 364.05 238.6 377.68 193.71 409.57 228.44 432.95 187.73"/><polyline class="cls-6" points="432 227.25 404.82 189.21 386.97 232.13 350.51 201.46 340.85 248.22 300.12 225.76 302.42 272.54 257.08 260.15 269.3 305.67 221.93 304.32 244.56 343.99 197.99 354.49 229.13 389.27 185.9 408.93 224.04 435.21"/><circle class="cls-2" cx="269.3" cy="305.67" r="2.16"/><circle class="cls-2" cx="234.05" cy="325.56" r="2.16"/><circle class="cls-2" cx="185.9" cy="408.93" r="2.16"/><path class="cls-2" d="M195.83,354.49c0-1.19.97-2.16,2.16-2.16s2.16.97,2.16,2.16-.97,2.16-2.16,2.16-2.16-.97-2.16-2.16Z"/><circle class="cls-2" cx="257.08" cy="260.15" r="2.16"/><circle class="cls-2" cx="300.12" cy="225.76" r="2.16"/><circle class="cls-2" cx="340.85" cy="248.22" r="2.16"/><circle class="cls-2" cx="419.94" cy="210.37" r="2.16"/><circle class="cls-2" cx="247.91" cy="305.06" r="1.67"/><circle class="cls-2" cx="229.13" cy="389.27" r="1.68"/><circle class="cls-2" cx="244.56" cy="343.99" r="1.67"/><circle class="cls-2" cx="221.93" cy="304.32" r="1.67"/><circle class="cls-2" cx="345.49" cy="226.56" r="1.67"/><circle class="cls-2" cx="370.28" cy="218.09" r="1.67"/><circle class="cls-2" cx="404.82" cy="189.21" r="1.67"/><circle class="cls-2" cx="386.97" cy="232.13" r="1.08"/><circle class="cls-2" cx="350.51" cy="201.46" r="1.08"/><circle class="cls-2" cx="323.08" cy="229.45" r="2.16"/><circle class="cls-2" cx="301.32" cy="250.05" r="1.08"/><circle class="cls-2" cx="302.42" cy="272.54" r="1.08"/><circle class="cls-2" cx="282.62" cy="267.13" r="1.08"/><circle class="cls-2" cx="263.71" cy="284.86" r="1.08"/><circle class="cls-2" cx="223.32" cy="348.7" r="1.08"/><circle class="cls-2" cx="214.89" cy="373.37" r="1.08"/><path class="cls-4" d="M432,638.28c-112.16,0-203.08-90.92-203.08-203.08"/><path class="cls-4" d="M432,645.98c-116.41,0-210.77-94.37-210.77-210.77"/><path class="cls-4" d="M432,654.3c-121,0-219.09-98.09-219.09-219.09"/><path class="cls-4" d="M432,663.37c-126.01,0-228.16-102.15-228.16-228.16"/><path class="cls-4" d="M432,672.93c-131.29,0-237.72-106.43-237.72-237.72"/><polyline class="cls-6" points="432 682.69 409.7 641.99 377.19 676.6 364.26 631.89 323.49 657.69 321.34 611.32 278.1 629.03 284.64 581.95 237.29 587.98 255.66 545.51 209.49 543.67 235.39 503.16 190.5 489.53 225.23 457.64 184.52 434.26"/><polyline class="cls-6" points="224.04 435.21 186 462.39 228.92 480.24 198.25 516.7 245.01 526.36 222.55 567.09 269.33 564.79 256.94 610.13 302.46 597.91 301.11 645.28 340.78 622.65 351.28 669.22 386.06 638.08 405.72 681.31 432 643.17"/><circle class="cls-2" cx="302.46" cy="597.91" r="2.16"/><circle class="cls-2" cx="322.35" cy="633.16" r="2.16"/><circle class="cls-2" cx="405.72" cy="681.31" r="2.16"/><path class="cls-2" d="M351.28,671.38c-1.19,0-2.16-.97-2.16-2.16s.97-2.16,2.16-2.16,2.16.97,2.16,2.16-.97,2.16-2.16,2.16Z"/><circle class="cls-2" cx="256.94" cy="610.13" r="2.16"/><circle class="cls-2" cx="222.55" cy="567.09" r="2.16"/><circle class="cls-2" cx="245.01" cy="526.36" r="2.16"/><circle class="cls-2" cx="207.16" cy="447.27" r="2.16"/><circle class="cls-2" cx="301.85" cy="619.3" r="1.67"/><circle class="cls-2" cx="386.06" cy="638.08" r="1.68"/><circle class="cls-2" cx="340.78" cy="622.65" r="1.67"/><circle class="cls-2" cx="301.11" cy="645.28" r="1.67"/><circle class="cls-2" cx="223.35" cy="521.72" r="1.67"/><circle class="cls-2" cx="214.88" cy="496.93" r="1.67"/><circle class="cls-2" cx="186" cy="462.39" r="1.67"/><circle class="cls-2" cx="228.92" cy="480.24" r="1.08"/><circle class="cls-2" cx="198.25" cy="516.7" r="1.08"/><circle class="cls-2" cx="226.24" cy="544.13" r="2.16"/><circle class="cls-2" cx="246.84" cy="565.89" r="1.08"/><circle class="cls-2" cx="269.33" cy="564.79" r="1.08"/><circle class="cls-2" cx="263.92" cy="584.59" r="1.08"/><circle class="cls-2" cx="281.65" cy="603.5" r="1.08"/><circle class="cls-2" cx="345.49" cy="643.89" r="1.08"/><circle class="cls-2" cx="370.16" cy="652.32" r="1.08"/><path class="cls-4" d="M635.07,435.21c0,112.16-90.92,203.08-203.08,203.08"/><path class="cls-4" d="M642.77,435.21c0,116.41-94.37,210.77-210.77,210.77"/><path class="cls-4" d="M651.09,435.21c0,121-98.09,219.09-219.09,219.09"/><path class="cls-4" d="M660.16,435.21c0,126.01-102.15,228.16-228.16,228.16"/><path class="cls-4" d="M669.72,435.21c0,131.29-106.43,237.72-237.72,237.72"/><polyline class="cls-6" points="679.48 435.21 638.78 457.51 673.39 490.02 628.68 502.95 654.48 543.72 608.11 545.87 625.82 589.11 578.74 582.57 584.77 629.92 542.3 611.55 540.46 657.72 499.95 631.82 486.32 676.71 454.43 641.98 431.05 682.69"/><polyline class="cls-6" points="432 643.17 459.18 681.21 477.03 638.29 513.49 668.96 523.15 622.2 563.88 644.66 561.58 597.88 606.92 610.27 594.7 564.75 642.07 566.1 619.44 526.43 666.01 515.93 634.87 481.15 678.1 461.49 639.96 435.21"/><circle class="cls-2" cx="594.7" cy="564.75" r="2.16"/><circle class="cls-2" cx="629.95" cy="544.86" r="2.16"/><circle class="cls-2" cx="678.1" cy="461.49" r="2.16"/><path class="cls-2" d="M668.17,515.93c0,1.19-.97,2.16-2.16,2.16s-2.16-.97-2.16-2.16.97-2.16,2.16-2.16,2.16.97,2.16,2.16Z"/><circle class="cls-2" cx="606.92" cy="610.27" r="2.16"/><circle class="cls-2" cx="563.88" cy="644.66" r="2.16"/><circle class="cls-2" cx="523.15" cy="622.2" r="2.16"/><circle class="cls-2" cx="444.06" cy="660.05" r="2.16"/><circle class="cls-2" cx="616.09" cy="565.36" r="1.67"/><circle class="cls-2" cx="634.87" cy="481.15" r="1.68"/><circle class="cls-2" cx="619.44" cy="526.43" r="1.67"/><circle class="cls-2" cx="642.07" cy="566.1" r="1.67"/><circle class="cls-2" cx="518.51" cy="643.86" r="1.67"/><circle class="cls-2" cx="493.72" cy="652.33" r="1.67"/><circle class="cls-2" cx="459.18" cy="681.21" r="1.67"/><circle class="cls-2" cx="477.03" cy="638.29" r="1.08"/><circle class="cls-2" cx="513.49" cy="668.96" r="1.08"/><circle class="cls-2" cx="540.92" cy="640.97" r="2.16"/><circle class="cls-2" cx="562.68" cy="620.37" r="1.08"/><circle class="cls-2" cx="561.58" cy="597.88" r="1.08"/><circle class="cls-2" cx="581.38" cy="603.29" r="1.08"/><circle class="cls-2" cx="600.29" cy="585.56" r="1.08"/><circle class="cls-2" cx="640.68" cy="521.72" r="1.08"/><circle class="cls-2" cx="649.11" cy="497.05" r="1.08"/></g><g id="Mask_01"><path d="M631.78,435.21c0,110.33-89.44,199.78-199.78,199.78s-199.78-89.44-199.78-199.78,89.44-199.78,199.78-199.78v-53.46c-139.86,0-253.24,113.38-253.24,253.24s113.38,253.24,253.24,253.24,253.24-113.38,253.24-253.24h-53.46Z"/></g></svg>