<?xml version="1.0" encoding="UTF-8"?><svg xmlns="http://www.w3.org/2000/svg" viewBox="0 0 954.8 954.8"><defs><style>.cls-1{stroke-width:2.22px;}.cls-1,.cls-2,.cls-3,.cls-4,.cls-5,.cls-6,.cls-7,.cls-8,.cls-9,.cls-10,.cls-11,.cls-12,.cls-13{fill:none;stroke:#fff;stroke-miterlimit:10;}.cls-2{stroke-width:.77px;}.cls-14{fill:#fff;}.cls-3{stroke-width:2.76px;}.cls-4{stroke-width:2.44px;}.cls-5{stroke-width:2.16px;}.cls-6{stroke-width:1.92px;}.cls-7{stroke-width:2.22px;}.cls-8{stroke-width:2.29px;}.cls-9{stroke-width:.15px;}.cls-10{stroke-width:1.53px;}.cls-11{stroke-width:2.67px;}.cls-12{stroke-width:1.28px;}.cls-13{stroke-width:1.15px;}</style></defs><g id="BG"><rect width="954.8" height="954.8"/></g><g id="Inner"><circle class="cls-10" cx="477.96" cy="479.29" r="423.52"/><path class="cls-2" d="M647.13,577.59c-48.11,33.07-106.38,52.42-169.17,52.42s-121.72-19.57-169.99-52.99"/><path class="cls-2" d="M309.18,578.25c-5.14-58.15,6.66-118.41,37.54-173.08,31.05-54.99,78.42-95.63,131.25-121.22"/><path class="cls-2" d="M477.96,283.95c53.16,24.12,96.64,63.73,129.07,117.5,32.61,54.07,43.78,117.56,40.1,176.15"/><circle class="cls-10" cx="477.96" cy="479.29" r="456.7"/><path class="cls-14" d="M477.96,283.79c26.39,0,51.99,5.17,76.09,15.36,23.28,9.85,44.19,23.94,62.14,41.9,17.95,17.95,32.05,38.86,41.9,62.14,10.19,24.1,15.36,49.7,15.36,76.09s-5.17,51.99-15.36,76.09c-9.85,23.28-23.94,44.19-41.9,62.14-17.95,17.95-38.86,32.05-62.14,41.9-24.1,10.19-49.7,15.36-76.09,15.36s-51.99-5.17-76.09-15.36c-23.28-9.85-44.19-23.94-62.14-41.9-17.95-17.95-32.05-38.86-41.9-62.14-10.19-24.1-15.36-49.7-15.36-76.09s5.17-51.99,15.36-76.09c9.85-23.28,23.94-44.19,41.9-62.14,17.95-17.95,38.86-32.05,62.14-41.9,24.1-10.19,49.7-15.36,76.09-15.36M477.96,282.26c-108.81,0-197.03,88.21-197.03,197.03s88.21,197.03,197.03,197.03,197.03-88.21,197.03-197.03-88.21-197.03-197.03-197.03h0Z"/><path class="cls-14" d="M477.96,402.02c42.6,0,77.26,34.66,77.26,77.26s-34.66,77.26-77.26,77.26-77.26-34.66-77.26-77.26,34.66-77.26,77.26-77.26M477.96,400.49c-43.52,0-78.8,35.28-78.8,78.8s35.28,78.8,78.8,78.8,78.8-35.28,78.8-78.8-35.28-78.8-78.8-78.8h0Z"/><path class="cls-14" d="M477.96,419.67c32.87,0,59.61,26.74,59.61,59.61s-26.74,59.61-59.61,59.61-59.61-26.74-59.61-59.61,26.74-59.61,59.61-59.61M477.96,418.14c-33.77,0-61.15,27.38-61.15,61.15s27.38,61.15,61.15,61.15,61.15-27.38,61.15-61.15-27.38-61.15-61.15-61.15h0Z"/><polygon class="cls-10" points="647.13 576.95 477.96 283.95 308.79 576.95 647.13 576.95"/><polygon class="cls-2" points="635.15 570.04 477.96 297.77 320.77 570.04 635.15 570.04"/><line class="cls-2" x1="477.96" y1="22.58" x2="477.96" y2="55.77"/><line class="cls-2" x1="477.96" y1="935.99" x2="477.96" y2="902.8"/><line class="cls-2" x1="800.9" y1="156.35" x2="777.43" y2="179.81"/><line class="cls-2" x1="155.02" y1="802.22" x2="178.49" y2="778.76"/><line class="cls-2" x1="934.66" y1="479.29" x2="901.48" y2="479.29"/><line class="cls-2" x1="21.26" y1="479.29" x2="54.44" y2="479.29"/><line class="cls-2" x1="800.9" y1="802.22" x2="777.43" y2="778.76"/><line class="cls-2" x1="155.02" y1="156.35" x2="178.49" y2="179.81"/><path class="cls-14" d="M477.96,25.46c3.7,0,3.71-5.75,0-5.75s-3.71,5.75,0,5.75h0Z"/><path class="cls-14" d="M800.9,159.22c3.7,0,3.71-5.75,0-5.75s-3.71,5.75,0,5.75h0Z"/><path class="cls-14" d="M934.66,482.16c3.7,0,3.71-5.75,0-5.75s-3.71,5.75,0,5.75h0Z"/><path class="cls-14" d="M800.9,805.1c3.7,0,3.71-5.75,0-5.75s-3.71,5.75,0,5.75h0Z"/><path class="cls-14" d="M477.96,938.86c3.7,0,3.71-5.75,0-5.75s-3.71,5.75,0,5.75h0Z"/><path class="cls-14" d="M155.02,805.1c3.7,0,3.71-5.75,0-5.75s-3.71,5.75,0,5.75h0Z"/><path class="cls-14" d="M21.26,482.16c3.7,0,3.71-5.75,0-5.75s-3.71,5.75,0,5.75h0Z"/><path class="cls-14" d="M155.02,159.22c3.7,0,3.71-5.75,0-5.75s-3.71,5.75,0,5.75h0Z"/><path class="cls-14" d="M477.96,289.7c7.4,0,7.42-11.51,0-11.51s-7.42,11.51,0,11.51h0Z"/><path class="cls-14" d="M646.62,583.59c7.4,0,7.42-11.51,0-11.51s-7.42,11.51,0,11.51h0Z"/><path class="cls-14" d="M308.62,582.41c7.4,0,7.42-11.51,0-11.51s-7.42,11.51,0,11.51h0Z"/><path class="cls-14" d="M477.96,632.75c3.7,0,3.71-5.75,0-5.75s-3.71,5.75,0,5.75h0Z"/><path class="cls-14" d="M347.94,406.19c3.7,0,3.71-5.75,0-5.75s-3.71,5.75,0,5.75h0Z"/><path class="cls-14" d="M608.51,407.1c3.7,0,3.71-5.75,0-5.75s-3.71,5.75,0,5.75h0Z"/><circle class="cls-1" cx="895.64" cy="321.17" r="4.81"/><line class="cls-1" x1="893.8" y1="316.73" x2="886.88" y2="300.04"/><line class="cls-1" x1="894.17" y1="302.92" x2="877.49" y2="309.83"/><line class="cls-1" x1="895.87" y1="307.02" x2="879.18" y2="313.93"/><line class="cls-1" x1="897.57" y1="311.11" x2="880.88" y2="318.03"/><circle class="cls-11" cx="642.58" cy="889.38" r="6.25"/><circle class="cls-11" cx="642.58" cy="889.38" r=".33"/><polyline class="cls-11" points="648.48 887.3 652.67 885.56 655.67 892.8"/><line class="cls-11" x1="660.67" y1="890.73" x2="651.08" y2="894.71"/><polyline class="cls-11" points="648.48 887.3 652.67 885.56 655.67 892.8"/><line class="cls-11" x1="660.67" y1="890.73" x2="651.08" y2="894.71"/><polyline class="cls-11" points="648.22 886.68 652.42 884.95 649.42 877.7"/><line class="cls-11" x1="654.42" y1="875.63" x2="644.82" y2="879.61"/><polyline class="cls-8" points="73.86 321.79 77.31 313.47 72.41 311.43"/><polyline class="cls-8" points="80.76 305.14 77.31 313.47 72.41 311.43"/><polyline class="cls-8" points="63.79 299.34 75.42 304.16 65.13 308.42 69.39 318.71 57.76 313.89"/><polyline class="cls-3" points="65.89 660.74 64.48 657.32 76.77 652.22 78.43 648.21 77.33 645.56"/><polyline class="cls-3" points="68.6 655.61 73.32 647.22 77.33 645.56"/><polyline class="cls-3" points="58.51 642.91 59.93 646.34 72.22 641.25 76.23 642.91 77.33 645.56"/><polyline class="cls-3" points="64.06 644.63 73.32 647.22 77.33 645.56"/><line class="cls-4" x1="315.98" y1="892.94" x2="305.54" y2="876.54"/><line class="cls-4" x1="320.25" y1="882.64" x2="301.27" y2="886.84"/><line class="cls-4" x1="308.41" y1="890.43" x2="306.86" y2="894.17"/><polyline class="cls-4" points="318.87 885.97 320.25 882.64 316.92 881.26"/><polyline class="cls-4" points="304.16 879.87 305.54 876.54 308.87 877.92"/><line class="cls-5" x1="305.89" y1="63.54" x2="312.51" y2="79.52"/><polyline class="cls-5" points="322.64 76.18 319.12 77.64 299.25 69.9"/><line class="cls-5" x1="310.31" y1="74.21" x2="302.39" y2="77.49"/><polyline class="cls-5" points="302.99 84.32 306.51 82.86 315.08 63.34"/><line class="cls-5" x1="310.31" y1="74.21" x2="318.23" y2="70.93"/><line class="cls-7" x1="894.44" y1="651.93" x2="877.33" y2="644.85"/><polyline class="cls-7" points="878.95 645.52 881.82 644.5 884.14 645.46 890.57 642.79 893 643.79"/><polyline class="cls-7" points="892.33 651.06 890.93 647.67 889.85 647.23"/><polyline class="cls-7" points="878.95 645.52 880.26 648.27 882.58 649.23 885.24 655.66 887.66 656.67"/><polyline class="cls-7" points="892.33 651.06 888.94 652.46 887.87 652.01"/><path class="cls-6" d="M651.11,62.05c-2.64,6.38-1.54,9.6,5.12,12.35"/><path class="cls-6" d="M638.76,67.17c6.38,2.64,9.6,1.54,12.35-5.12"/><path class="cls-6" d="M643.88,79.52c2.64-6.38,1.54-9.6-5.12-12.35"/><path class="cls-6" d="M656.23,74.4c-6.38-2.64-9.6-1.54-12.35,5.12"/><polyline class="cls-12" points="655.28 76.69 656.23 74.4 657.18 72.12"/><polyline class="cls-12" points="637.82 69.45 638.76 67.17 639.71 64.88"/><polyline class="cls-12" points="653.4 63 651.11 62.05 648.83 61.11"/><polyline class="cls-12" points="646.16 80.47 643.88 79.52 641.59 78.57"/><circle class="cls-12" cx="654.57" cy="67.91" r=".64"/><circle class="cls-12" cx="640.42" cy="73.67" r=".64"/></g><g id="Outer"><circle class="cls-2" cx="477.96" cy="479.29" r="359.93"/><circle class="cls-2" cx="477.96" cy="479.29" r="272.53"/><circle class="cls-10" cx="477.96" cy="479.29" r="417.22"/><circle class="cls-13" cx="477.96" cy="479.29" r="199.9"/><line class="cls-9" x1="477.96" y1="62.06" x2="309.74" y2="371.26"/><line class="cls-9" x1="477.96" y1="62.06" x2="646.18" y2="371.26"/><line class="cls-9" x1="477.96" y1="896.51" x2="646.18" y2="587.31"/><line class="cls-9" x1="477.96" y1="896.51" x2="309.74" y2="587.31"/><line class="cls-9" x1="456.12" y1="62.64" x2="304.31" y2="380.21"/><line class="cls-9" x1="456.12" y1="62.64" x2="640.3" y2="362.6"/><line class="cls-9" x1="499.8" y1="895.93" x2="651.61" y2="578.36"/><line class="cls-9" x1="499.8" y1="895.93" x2="315.62" y2="595.97"/><line class="cls-9" x1="434.35" y1="64.35" x2="299.37" y2="389.44"/><line class="cls-9" x1="434.35" y1="64.35" x2="633.97" y2="354.27"/><line class="cls-9" x1="521.57" y1="894.22" x2="656.55" y2="569.13"/><line class="cls-9" x1="521.57" y1="894.22" x2="321.95" y2="604.3"/><line class="cls-9" x1="412.69" y1="67.2" x2="294.91" y2="398.91"/><line class="cls-9" x1="412.69" y1="67.2" x2="627.21" y2="346.28"/><line class="cls-9" x1="543.23" y1="891.37" x2="661.01" y2="559.66"/><line class="cls-9" x1="543.23" y1="891.37" x2="328.71" y2="612.3"/><line class="cls-9" x1="391.22" y1="71.18" x2="290.95" y2="408.6"/><line class="cls-9" x1="391.22" y1="71.18" x2="620.05" y2="338.65"/><line class="cls-9" x1="564.71" y1="887.39" x2="664.97" y2="549.97"/><line class="cls-9" x1="564.71" y1="887.39" x2="335.87" y2="619.92"/><line class="cls-9" x1="369.98" y1="76.28" x2="287.51" y2="418.48"/><line class="cls-9" x1="369.98" y1="76.28" x2="612.49" y2="331.4"/><line class="cls-9" x1="585.94" y1="882.29" x2="668.41" y2="540.09"/><line class="cls-9" x1="585.94" y1="882.29" x2="343.43" y2="627.17"/><line class="cls-9" x1="349.03" y1="82.48" x2="284.59" y2="428.53"/><line class="cls-9" x1="349.03" y1="82.48" x2="604.57" y2="324.56"/><line class="cls-9" x1="606.89" y1="876.09" x2="671.33" y2="530.04"/><line class="cls-9" x1="606.89" y1="876.09" x2="351.35" y2="634.01"/><line class="cls-9" x1="328.44" y1="89.78" x2="282.2" y2="438.72"/><line class="cls-9" x1="328.44" y1="89.78" x2="596.3" y2="318.15"/><line class="cls-9" x1="627.48" y1="868.79" x2="673.72" y2="519.85"/><line class="cls-9" x1="627.48" y1="868.79" x2="359.62" y2="640.42"/><line class="cls-9" x1="308.26" y1="98.13" x2="280.34" y2="449.02"/><line class="cls-9" x1="308.26" y1="98.13" x2="587.7" y2="312.18"/><line class="cls-9" x1="647.66" y1="860.44" x2="675.58" y2="509.55"/><line class="cls-9" x1="647.66" y1="860.44" x2="368.22" y2="646.39"/><line class="cls-9" x1="288.55" y1="107.54" x2="279.03" y2="459.41"/><line class="cls-9" x1="288.55" y1="107.54" x2="578.81" y2="306.66"/><line class="cls-9" x1="667.37" y1="851.03" x2="676.89" y2="499.16"/><line class="cls-9" x1="667.37" y1="851.03" x2="377.11" y2="651.91"/><line class="cls-9" x1="269.35" y1="117.96" x2="278.26" y2="469.84"/><line class="cls-9" x1="269.35" y1="117.96" x2="569.63" y2="301.62"/><line class="cls-9" x1="686.57" y1="840.61" x2="677.66" y2="488.73"/><line class="cls-9" x1="686.57" y1="840.61" x2="386.29" y2="656.95"/><line class="cls-9" x1="250.73" y1="129.37" x2="278.04" y2="480.31"/><line class="cls-9" x1="250.73" y1="129.37" x2="560.21" y2="297.07"/><line class="cls-9" x1="705.19" y1="829.2" x2="677.88" y2="478.26"/><line class="cls-9" x1="705.19" y1="829.2" x2="395.71" y2="661.5"/><line class="cls-9" x1="232.72" y1="141.75" x2="278.37" y2="490.77"/><line class="cls-9" x1="232.72" y1="141.75" x2="550.56" y2="293.01"/><line class="cls-9" x1="723.2" y1="816.82" x2="677.55" y2="467.8"/><line class="cls-9" x1="723.2" y1="816.82" x2="405.36" y2="665.56"/><line class="cls-9" x1="215.39" y1="155.04" x2="279.24" y2="501.2"/><line class="cls-9" x1="215.39" y1="155.04" x2="540.71" y2="289.47"/><line class="cls-9" x1="740.53" y1="803.53" x2="676.68" y2="457.37"/><line class="cls-9" x1="740.53" y1="803.53" x2="415.21" y2="669.1"/><line class="cls-9" x1="198.78" y1="169.23" x2="280.66" y2="511.57"/><line class="cls-9" x1="198.78" y1="169.23" x2="530.69" y2="286.44"/><line class="cls-9" x1="757.14" y1="789.34" x2="675.26" y2="447"/><line class="cls-9" x1="757.14" y1="789.34" x2="425.23" y2="672.13"/><line class="cls-9" x1="182.94" y1="184.27" x2="282.62" y2="521.85"/><line class="cls-9" x1="182.94" y1="184.27" x2="520.53" y2="283.95"/><line class="cls-9" x1="772.98" y1="774.31" x2="673.3" y2="436.72"/><line class="cls-9" x1="772.98" y1="774.31" x2="435.39" y2="674.62"/><line class="cls-9" x1="167.9" y1="200.11" x2="285.12" y2="532.02"/><line class="cls-9" x1="167.9" y1="200.11" x2="510.25" y2="281.99"/><line class="cls-9" x1="788.02" y1="758.46" x2="670.8" y2="426.55"/><line class="cls-9" x1="788.02" y1="758.46" x2="445.68" y2="676.58"/><line class="cls-9" x1="153.72" y1="216.72" x2="288.14" y2="542.04"/><line class="cls-9" x1="153.72" y1="216.72" x2="499.88" y2="280.57"/><line class="cls-9" x1="802.2" y1="741.85" x2="667.78" y2="416.53"/><line class="cls-9" x1="802.2" y1="741.85" x2="456.05" y2="678"/><line class="cls-9" x1="140.42" y1="234.05" x2="291.69" y2="551.88"/><line class="cls-9" x1="140.42" y1="234.05" x2="489.45" y2="279.7"/><line class="cls-9" x1="815.5" y1="724.52" x2="664.23" y2="406.69"/><line class="cls-9" x1="815.5" y1="724.52" x2="466.48" y2="678.88"/><line class="cls-9" x1="128.05" y1="252.05" x2="295.74" y2="561.53"/><line class="cls-9" x1="128.05" y1="252.05" x2="478.98" y2="279.37"/><line class="cls-9" x1="827.87" y1="706.52" x2="660.18" y2="397.04"/><line class="cls-9" x1="827.87" y1="706.52" x2="476.94" y2="679.2"/><line class="cls-9" x1="116.64" y1="270.67" x2="300.3" y2="570.96"/><line class="cls-9" x1="116.64" y1="270.67" x2="468.52" y2="279.59"/><line class="cls-9" x1="839.28" y1="687.9" x2="655.62" y2="387.61"/><line class="cls-9" x1="839.28" y1="687.9" x2="487.4" y2="678.98"/><line class="cls-9" x1="106.21" y1="289.87" x2="305.34" y2="580.13"/><line class="cls-9" x1="106.21" y1="289.87" x2="458.08" y2="280.36"/><line class="cls-9" x1="849.71" y1="668.7" x2="650.58" y2="378.44"/><line class="cls-9" x1="849.71" y1="668.7" x2="497.84" y2="678.21"/><line class="cls-9" x1="96.81" y1="309.59" x2="310.85" y2="589.03"/><line class="cls-9" x1="96.81" y1="309.59" x2="447.7" y2="281.67"/><line class="cls-9" x1="859.11" y1="648.98" x2="645.07" y2="369.54"/><line class="cls-9" x1="859.11" y1="648.98" x2="508.22" y2="676.9"/><line class="cls-9" x1="88.45" y1="329.77" x2="316.83" y2="597.62"/><line class="cls-9" x1="88.45" y1="329.77" x2="437.4" y2="283.52"/><line class="cls-9" x1="867.47" y1="628.8" x2="639.1" y2="360.95"/><line class="cls-9" x1="867.47" y1="628.8" x2="518.52" y2="675.05"/><line class="cls-9" x1="81.16" y1="350.36" x2="323.24" y2="605.89"/><line class="cls-9" x1="81.16" y1="350.36" x2="427.21" y2="285.91"/><line class="cls-9" x1="874.76" y1="608.21" x2="632.68" y2="352.68"/><line class="cls-9" x1="874.76" y1="608.21" x2="528.71" y2="672.66"/><line class="cls-9" x1="74.96" y1="371.3" x2="330.08" y2="613.82"/><line class="cls-9" x1="74.96" y1="371.3" x2="417.16" y2="288.84"/><line class="cls-9" x1="880.96" y1="587.27" x2="625.84" y2="344.75"/><line class="cls-9" x1="880.96" y1="587.27" x2="538.76" y2="669.73"/><line class="cls-9" x1="69.86" y1="392.54" x2="337.32" y2="621.37"/><line class="cls-9" x1="69.86" y1="392.54" x2="407.27" y2="292.28"/><line class="cls-9" x1="886.06" y1="566.03" x2="618.6" y2="337.2"/><line class="cls-9" x1="886.06" y1="566.03" x2="548.65" y2="666.29"/><line class="cls-9" x1="65.88" y1="414.02" x2="344.95" y2="628.54"/><line class="cls-9" x1="65.88" y1="414.02" x2="397.58" y2="296.24"/><line class="cls-9" x1="890.04" y1="544.55" x2="610.97" y2="330.03"/><line class="cls-9" x1="890.04" y1="544.55" x2="558.34" y2="662.34"/><line class="cls-9" x1="63.02" y1="435.67" x2="352.94" y2="635.29"/><line class="cls-9" x1="63.02" y1="435.67" x2="388.11" y2="300.69"/><line class="cls-9" x1="892.9" y1="522.9" x2="602.98" y2="323.28"/><line class="cls-9" x1="892.9" y1="522.9" x2="567.81" y2="657.88"/><line class="cls-9" x1="61.31" y1="457.45" x2="361.28" y2="641.62"/><line class="cls-9" x1="61.31" y1="457.45" x2="378.89" y2="305.64"/><line class="cls-9" x1="894.61" y1="501.12" x2="594.64" y2="316.95"/><line class="cls-9" x1="894.61" y1="501.12" x2="577.03" y2="652.93"/><line class="cls-9" x1="60.74" y1="479.29" x2="369.94" y2="647.51"/><line class="cls-9" x1="60.74" y1="479.29" x2="369.94" y2="311.06"/><line class="cls-9" x1="895.18" y1="479.29" x2="585.98" y2="311.06"/><line class="cls-9" x1="895.18" y1="479.29" x2="585.98" y2="647.51"/><line class="cls-9" x1="61.31" y1="501.12" x2="378.89" y2="652.93"/><line class="cls-9" x1="61.31" y1="501.12" x2="361.28" y2="316.95"/><line class="cls-9" x1="894.61" y1="457.45" x2="577.03" y2="305.64"/><line class="cls-9" x1="894.61" y1="457.45" x2="594.64" y2="641.62"/><line class="cls-9" x1="63.02" y1="522.9" x2="388.11" y2="657.88"/><line class="cls-9" x1="63.02" y1="522.9" x2="352.94" y2="323.28"/><line class="cls-9" x1="892.9" y1="435.67" x2="567.81" y2="300.69"/><line class="cls-9" x1="892.9" y1="435.67" x2="602.98" y2="635.29"/><line class="cls-9" x1="65.88" y1="544.55" x2="397.58" y2="662.34"/><line class="cls-9" x1="65.88" y1="544.55" x2="344.95" y2="330.03"/><line class="cls-9" x1="890.04" y1="414.02" x2="558.34" y2="296.24"/><line class="cls-9" x1="890.04" y1="414.02" x2="610.97" y2="628.54"/><line class="cls-9" x1="69.86" y1="566.03" x2="407.27" y2="666.29"/><line class="cls-9" x1="69.86" y1="566.03" x2="337.32" y2="337.2"/><line class="cls-9" x1="886.06" y1="392.54" x2="548.65" y2="292.28"/><line class="cls-9" x1="886.06" y1="392.54" x2="618.6" y2="621.37"/><line class="cls-9" x1="74.96" y1="587.27" x2="417.16" y2="669.73"/><line class="cls-9" x1="74.96" y1="587.27" x2="330.08" y2="344.75"/><line class="cls-9" x1="880.96" y1="371.3" x2="538.76" y2="288.84"/><line class="cls-9" x1="880.96" y1="371.3" x2="625.84" y2="613.82"/><line class="cls-9" x1="81.16" y1="608.21" x2="427.21" y2="672.66"/><line class="cls-9" x1="81.16" y1="608.21" x2="323.24" y2="352.68"/><line class="cls-9" x1="874.76" y1="350.36" x2="528.71" y2="285.91"/><line class="cls-9" x1="874.76" y1="350.36" x2="632.68" y2="605.89"/><line class="cls-9" x1="88.45" y1="628.8" x2="437.4" y2="675.05"/><line class="cls-9" x1="88.45" y1="628.8" x2="316.83" y2="360.95"/><line class="cls-9" x1="867.47" y1="329.77" x2="518.52" y2="283.52"/><line class="cls-9" x1="867.47" y1="329.77" x2="639.1" y2="597.62"/><line class="cls-9" x1="96.81" y1="648.98" x2="447.7" y2="676.9"/><line class="cls-9" x1="96.81" y1="648.98" x2="310.85" y2="369.54"/><line class="cls-9" x1="859.11" y1="309.59" x2="508.22" y2="281.67"/><line class="cls-9" x1="859.11" y1="309.59" x2="645.07" y2="589.03"/><line class="cls-9" x1="106.21" y1="668.7" x2="458.08" y2="678.21"/><line class="cls-9" x1="106.21" y1="668.7" x2="305.34" y2="378.44"/><line class="cls-9" x1="849.71" y1="289.87" x2="497.84" y2="280.36"/><line class="cls-9" x1="849.71" y1="289.87" x2="650.58" y2="580.13"/><line class="cls-9" x1="116.64" y1="687.9" x2="468.52" y2="678.98"/><line class="cls-9" x1="116.64" y1="687.9" x2="300.3" y2="387.61"/><line class="cls-9" x1="839.28" y1="270.67" x2="487.4" y2="279.59"/><line class="cls-9" x1="839.28" y1="270.67" x2="655.62" y2="570.96"/><line class="cls-9" x1="128.05" y1="706.52" x2="478.98" y2="679.2"/><line class="cls-9" x1="128.05" y1="706.52" x2="295.74" y2="397.04"/><line class="cls-9" x1="827.87" y1="252.05" x2="476.94" y2="279.37"/><line class="cls-9" x1="827.87" y1="252.05" x2="660.18" y2="561.53"/><line class="cls-9" x1="140.42" y1="724.52" x2="489.45" y2="678.88"/><line class="cls-9" x1="140.42" y1="724.52" x2="291.69" y2="406.69"/><line class="cls-9" x1="815.5" y1="234.05" x2="466.48" y2="279.7"/><line class="cls-9" x1="815.5" y1="234.05" x2="664.23" y2="551.88"/><line class="cls-9" x1="153.72" y1="741.85" x2="499.88" y2="678"/><line class="cls-9" x1="153.72" y1="741.85" x2="288.14" y2="416.53"/><line class="cls-9" x1="802.2" y1="216.72" x2="456.05" y2="280.57"/><line class="cls-9" x1="802.2" y1="216.72" x2="667.78" y2="542.04"/><line class="cls-9" x1="167.9" y1="758.46" x2="510.25" y2="676.58"/><line class="cls-9" x1="167.9" y1="758.46" x2="285.12" y2="426.55"/><line class="cls-9" x1="788.02" y1="200.11" x2="445.68" y2="281.99"/><line class="cls-9" x1="788.02" y1="200.11" x2="670.8" y2="532.02"/><line class="cls-9" x1="182.94" y1="774.31" x2="520.53" y2="674.62"/><line class="cls-9" x1="182.94" y1="774.31" x2="282.62" y2="436.72"/><line class="cls-9" x1="772.98" y1="184.27" x2="435.39" y2="283.95"/><line class="cls-9" x1="772.98" y1="184.27" x2="673.3" y2="521.85"/><line class="cls-9" x1="198.78" y1="789.34" x2="530.69" y2="672.13"/><line class="cls-9" x1="198.78" y1="789.34" x2="280.66" y2="447"/><line class="cls-9" x1="757.14" y1="169.23" x2="425.23" y2="286.44"/><line class="cls-9" x1="757.14" y1="169.23" x2="675.26" y2="511.57"/><line class="cls-9" x1="215.39" y1="803.53" x2="540.71" y2="669.1"/><line class="cls-9" x1="215.39" y1="803.53" x2="279.24" y2="457.37"/><line class="cls-9" x1="740.53" y1="155.04" x2="415.21" y2="289.47"/><line class="cls-9" x1="740.53" y1="155.04" x2="676.68" y2="501.2"/><line class="cls-9" x1="232.72" y1="816.82" x2="550.56" y2="665.56"/><line class="cls-9" x1="232.72" y1="816.82" x2="278.37" y2="467.8"/><line class="cls-9" x1="723.2" y1="141.75" x2="405.36" y2="293.01"/><line class="cls-9" x1="723.2" y1="141.75" x2="677.55" y2="490.77"/><line class="cls-9" x1="250.73" y1="829.2" x2="560.21" y2="661.5"/><line class="cls-9" x1="250.73" y1="829.2" x2="278.04" y2="478.26"/><line class="cls-9" x1="705.19" y1="129.37" x2="395.71" y2="297.07"/><line class="cls-9" x1="705.19" y1="129.37" x2="677.88" y2="480.31"/><line class="cls-9" x1="269.35" y1="840.61" x2="569.63" y2="656.95"/><line class="cls-9" x1="269.35" y1="840.61" x2="278.26" y2="488.73"/><line class="cls-9" x1="686.57" y1="117.96" x2="386.29" y2="301.62"/><line class="cls-9" x1="686.57" y1="117.96" x2="677.66" y2="469.84"/><line class="cls-9" x1="288.55" y1="851.03" x2="578.81" y2="651.91"/><line class="cls-9" x1="288.55" y1="851.03" x2="279.03" y2="499.16"/><line class="cls-9" x1="667.37" y1="107.54" x2="377.11" y2="306.66"/><line class="cls-9" x1="667.37" y1="107.54" x2="676.89" y2="459.41"/><line class="cls-9" x1="308.26" y1="860.44" x2="587.7" y2="646.39"/><line class="cls-9" x1="308.26" y1="860.44" x2="280.34" y2="509.55"/><line class="cls-9" x1="647.66" y1="98.13" x2="368.22" y2="312.18"/><line class="cls-9" x1="647.66" y1="98.13" x2="675.58" y2="449.02"/><line class="cls-9" x1="328.44" y1="868.79" x2="596.3" y2="640.42"/><line class="cls-9" x1="328.44" y1="868.79" x2="282.2" y2="519.85"/><line class="cls-9" x1="627.48" y1="89.78" x2="359.62" y2="318.15"/><line class="cls-9" x1="627.48" y1="89.78" x2="673.72" y2="438.72"/><line class="cls-9" x1="349.03" y1="876.09" x2="604.57" y2="634.01"/><line class="cls-9" x1="349.03" y1="876.09" x2="284.59" y2="530.04"/><line class="cls-9" x1="606.89" y1="82.48" x2="351.35" y2="324.56"/><line class="cls-9" x1="606.89" y1="82.48" x2="671.33" y2="428.53"/><line class="cls-9" x1="369.98" y1="882.29" x2="612.49" y2="627.17"/><line class="cls-9" x1="369.98" y1="882.29" x2="287.51" y2="540.09"/><line class="cls-9" x1="585.94" y1="76.28" x2="343.43" y2="331.4"/><line class="cls-9" x1="585.94" y1="76.28" x2="668.41" y2="418.48"/><line class="cls-9" x1="391.22" y1="887.39" x2="620.05" y2="619.92"/><line class="cls-9" x1="391.22" y1="887.39" x2="290.95" y2="549.97"/><line class="cls-9" x1="564.71" y1="71.18" x2="335.87" y2="338.65"/><line class="cls-9" x1="564.71" y1="71.18" x2="664.97" y2="408.6"/><line class="cls-9" x1="412.69" y1="891.37" x2="627.21" y2="612.3"/><line class="cls-9" x1="412.69" y1="891.37" x2="294.91" y2="559.66"/><line class="cls-9" x1="543.23" y1="67.2" x2="328.71" y2="346.28"/><line class="cls-9" x1="543.23" y1="67.2" x2="661.01" y2="398.91"/><line class="cls-9" x1="434.35" y1="894.22" x2="633.97" y2="604.3"/><line class="cls-9" x1="434.35" y1="894.22" x2="299.37" y2="569.13"/><line class="cls-9" x1="521.57" y1="64.35" x2="321.95" y2="354.27"/><line class="cls-9" x1="521.57" y1="64.35" x2="656.55" y2="389.44"/><line class="cls-9" x1="456.12" y1="895.93" x2="640.3" y2="595.97"/><line class="cls-9" x1="456.12" y1="895.93" x2="304.31" y2="578.36"/><line class="cls-9" x1="499.8" y1="62.64" x2="315.62" y2="362.6"/><line class="cls-9" x1="499.8" y1="62.64" x2="651.61" y2="380.21"/><path class="cls-14" d="M487.78,177.04c3.7,0,3.71-5.75,0-5.75s-3.71,5.75,0,5.75h0Z"/><path class="cls-14" d="M197.41,235.93c3.7,0,3.71-5.75,0-5.75s-3.71,5.75,0,5.75h0Z"/><path class="cls-14" d="M203.83,526.45c3.7,0,3.71-5.75,0-5.75s-3.71,5.75,0,5.75h0Z"/><path class="cls-14" d="M163.08,411.91c3.7,0,3.71-5.75,0-5.75s-3.71,5.75,0,5.75h0Z"/><path class="cls-14" d="M152.1,471.94c3.7,0,3.71-5.75,0-5.75s-3.71,5.75,0,5.75h0Z"/><path class="cls-14" d="M331.59,766.76c3.7,0,3.71-5.75,0-5.75s-3.71,5.75,0,5.75h0Z"/><path class="cls-14" d="M255.24,800.64c3.7,0,3.71-5.75,0-5.75s-3.71,5.75,0,5.75h0Z"/><path class="cls-14" d="M694.36,752.31c3.7,0,3.71-5.75,0-5.75s-3.71,5.75,0,5.75h0Z"/><path class="cls-14" d="M528.56,693.12c3.7,0,3.71-5.75,0-5.75s-3.71,5.75,0,5.75h0Z"/><path class="cls-14" d="M685.32,485.31c3.7,0,3.71-5.75,0-5.75s-3.71,5.75,0,5.75h0Z"/><path class="cls-14" d="M408.39,267.11c3.7,0,3.71-5.75,0-5.75s-3.71,5.75,0,5.75h0Z"/><path class="cls-14" d="M778.38,206.12c3.7,0,3.71-5.75,0-5.75s-3.71,5.75,0,5.75h0Z"/><path class="cls-14" d="M804.59,471.31c3.7,0,3.71-5.75,0-5.75s-3.71,5.75,0,5.75h0Z"/><path class="cls-14" d="M814.53,586.51c3.7,0,3.71-5.75,0-5.75s-3.71,5.75,0,5.75h0Z"/><path class="cls-14" d="M527.65,741.01c3.7,0,3.71-5.75,0-5.75s-3.71,5.75,0,5.75h0Z"/><path class="cls-14" d="M108.87,618.13c3.7,0,3.71-5.75,0-5.75s-3.71,5.75,0,5.75h0Z"/><path class="cls-14" d="M263.37,239.1c3.7,0,3.71-5.75,0-5.75s-3.71,5.75,0,5.75h0Z"/><path class="cls-14" d="M380.83,119.33c2.47,0,2.47-3.84,0-3.84s-2.47,3.84,0,3.84h0Z"/><path class="cls-14" d="M670.41,250.34c2.47,0,2.47-3.84,0-3.84s-2.47,3.84,0,3.84h0Z"/><path class="cls-14" d="M700.68,396.71c2.47,0,2.47-3.84,0-3.84s-2.47,3.84,0,3.84h0Z"/><path class="cls-14" d="M206.45,666.42c2.47,0,2.47-3.84,0-3.84s-2.47,3.84,0,3.84h0Z"/><path class="cls-14" d="M110.67,372.77c2.47,0,2.47-3.84,0-3.84s-2.47,3.84,0,3.84h0Z"/><path class="cls-14" d="M773.41,318.56c2.47,0,2.47-3.84,0-3.84s-2.47,3.84,0,3.84h0Z"/><path class="cls-14" d="M260.66,333.92c2.47,0,2.47-3.84,0-3.84s-2.47,3.84,0,3.84h0Z"/><path class="cls-14" d="M465.31,799.69c2.47,0,2.47-3.84,0-3.84s-2.47,3.84,0,3.84h0Z"/><path class="cls-14" d="M481.12,857.96c2.47,0,2.47-3.84,0-3.84s-2.47,3.84,0,3.84h0Z"/><path class="cls-14" d="M775.22,753.15c2.47,0,2.47-3.84,0-3.84s-2.47,3.84,0,3.84h0Z"/><path class="cls-14" d="M770.7,288.29c2.47,0,2.47-3.84,0-3.84s-2.47,3.84,0,3.84h0Z"/><path class="cls-14" d="M578.25,211.94c2.47,0,2.47-3.84,0-3.84s-2.47,3.84,0,3.84h0Z"/><path class="cls-14" d="M271.05,586.45c2.47,0,2.47-3.84,0-3.84s-2.47,3.84,0,3.84h0Z"/></g></svg>