<?xml version="1.0" encoding="UTF-8"?>
<svg xmlns="http://www.w3.org/2000/svg" version="1.1" viewBox="0 0 864 864">
  <!-- Generator: Adobe Illustrator 30.1.0, SVG Export Plug-In . SVG Version: 2.1.1 Build 136)  -->
  <defs>
    <style>
      .st0 {
        fill: none;
        stroke: #fff;
        stroke-miterlimit: 10;
        stroke-width: .24px;
      }
    </style>
  </defs>
  <g id="Layer_1">
    <g id="BG">
      <rect x="-6.86" y="-6.92" width="877.57" height="877.57"/>
    </g>
    <rect x="-391.53" y="-391.6" width="1646.92" height="1646.92"/>
  </g>
  <g id="Outer_x5F_04"> 
    <g>
      <line class="st0" x1="432.43" y1="119.59" x2="432.43" y2="355.91"/>
      <line class="st0" x1="432.43" y1="742.28" x2="432.43" y2="505.96"/>
      <line class="st0" x1="432.43" y1="742.28" x2="432.43" y2="505.96"/>
      <line class="st0" x1="432.43" y1="119.59" x2="432.43" y2="355.91"/>
    </g>
    <g>
      <line class="st0" x1="412.07" y1="120.25" x2="427.53" y2="356.07"/>
      <line class="st0" x1="452.8" y1="741.61" x2="437.34" y2="505.8"/>
      <line class="st0" x1="452.8" y1="741.61" x2="437.34" y2="505.8"/>
      <line class="st0" x1="412.07" y1="120.25" x2="427.53" y2="356.07"/>
    </g>
    <g>
      <line class="st0" x1="391.79" y1="122.25" x2="422.64" y2="356.55"/>
      <line class="st0" x1="473.07" y1="739.61" x2="442.23" y2="505.32"/>
      <line class="st0" x1="473.07" y1="739.61" x2="442.23" y2="505.32"/>
      <line class="st0" x1="391.79" y1="122.25" x2="422.64" y2="356.55"/>
    </g>
    <g>
      <line class="st0" x1="371.69" y1="125.57" x2="417.8" y2="357.35"/>
      <line class="st0" x1="493.17" y1="736.3" x2="447.07" y2="504.52"/>
      <line class="st0" x1="493.17" y1="736.3" x2="447.07" y2="504.52"/>
      <line class="st0" x1="371.69" y1="125.57" x2="417.8" y2="357.35"/>
    </g>
    <g>
      <line class="st0" x1="351.85" y1="130.2" x2="413.01" y2="358.46"/>
      <line class="st0" x1="513.01" y1="731.67" x2="451.85" y2="503.4"/>
      <line class="st0" x1="513.01" y1="731.67" x2="451.85" y2="503.4"/>
      <line class="st0" x1="351.85" y1="130.2" x2="413.01" y2="358.46"/>
    </g>
    <g>
      <line class="st0" x1="332.35" y1="136.11" x2="408.32" y2="359.89"/>
      <line class="st0" x1="532.51" y1="725.75" x2="456.55" y2="501.98"/>
      <line class="st0" x1="532.51" y1="725.75" x2="456.55" y2="501.98"/>
      <line class="st0" x1="332.35" y1="136.11" x2="408.32" y2="359.89"/>
    </g>
    <g>
      <line class="st0" x1="313.29" y1="143.29" x2="403.72" y2="361.62"/>
      <line class="st0" x1="551.58" y1="718.58" x2="461.14" y2="500.25"/>
      <line class="st0" x1="551.58" y1="718.58" x2="461.14" y2="500.25"/>
      <line class="st0" x1="313.29" y1="143.29" x2="403.72" y2="361.62"/>
    </g>
    <g>
      <line class="st0" x1="294.73" y1="151.7" x2="399.25" y2="363.64"/>
      <line class="st0" x1="570.14" y1="710.17" x2="465.62" y2="498.22"/>
      <line class="st0" x1="570.14" y1="710.17" x2="465.62" y2="498.22"/>
      <line class="st0" x1="294.73" y1="151.7" x2="399.25" y2="363.64"/>
    </g>
    <g>
      <line class="st0" x1="276.76" y1="161.3" x2="394.92" y2="365.96"/>
      <line class="st0" x1="588.11" y1="700.57" x2="469.95" y2="495.91"/>
      <line class="st0" x1="588.11" y1="700.57" x2="469.95" y2="495.91"/>
      <line class="st0" x1="276.76" y1="161.3" x2="394.92" y2="365.96"/>
    </g>
    <g>
      <line class="st0" x1="259.46" y1="172.06" x2="390.75" y2="368.55"/>
      <line class="st0" x1="605.41" y1="689.81" x2="474.12" y2="493.32"/>
      <line class="st0" x1="605.41" y1="689.81" x2="474.12" y2="493.32"/>
      <line class="st0" x1="259.46" y1="172.06" x2="390.75" y2="368.55"/>
    </g>
    <g>
      <line class="st0" x1="242.9" y1="183.93" x2="386.76" y2="371.41"/>
      <line class="st0" x1="621.97" y1="677.94" x2="478.11" y2="490.46"/>
      <line class="st0" x1="621.97" y1="677.94" x2="478.11" y2="490.46"/>
      <line class="st0" x1="242.9" y1="183.93" x2="386.76" y2="371.41"/>
    </g>
    <g>
      <line class="st0" x1="227.15" y1="196.85" x2="382.96" y2="374.52"/>
      <line class="st0" x1="637.72" y1="665.01" x2="481.9" y2="487.34"/>
      <line class="st0" x1="637.72" y1="665.01" x2="481.9" y2="487.34"/>
      <line class="st0" x1="227.15" y1="196.85" x2="382.96" y2="374.52"/>
    </g>
    <g>
      <line class="st0" x1="212.28" y1="210.78" x2="379.38" y2="377.88"/>
      <line class="st0" x1="652.59" y1="651.09" x2="485.49" y2="483.99"/>
      <line class="st0" x1="652.59" y1="651.09" x2="485.49" y2="483.99"/>
      <line class="st0" x1="212.28" y1="210.78" x2="379.38" y2="377.88"/>
    </g>
    <g>
      <line class="st0" x1="198.35" y1="225.65" x2="376.02" y2="381.46"/>
      <line class="st0" x1="666.51" y1="636.22" x2="488.84" y2="480.4"/>
      <line class="st0" x1="666.51" y1="636.22" x2="488.84" y2="480.4"/>
      <line class="st0" x1="198.35" y1="225.65" x2="376.02" y2="381.46"/>
    </g>
    <g>
      <line class="st0" x1="185.43" y1="241.4" x2="372.91" y2="385.26"/>
      <line class="st0" x1="679.44" y1="620.47" x2="491.96" y2="476.61"/>
      <line class="st0" x1="679.44" y1="620.47" x2="491.96" y2="476.61"/>
      <line class="st0" x1="185.43" y1="241.4" x2="372.91" y2="385.26"/>
    </g>
    <g>
      <line class="st0" x1="173.56" y1="257.96" x2="370.05" y2="389.25"/>
      <line class="st0" x1="691.31" y1="603.91" x2="494.82" y2="472.62"/>
      <line class="st0" x1="691.31" y1="603.91" x2="494.82" y2="472.62"/>
      <line class="st0" x1="173.56" y1="257.96" x2="370.05" y2="389.25"/>
    </g>
    <g>
      <line class="st0" x1="162.8" y1="275.26" x2="367.46" y2="393.42"/>
      <line class="st0" x1="702.07" y1="586.61" x2="497.41" y2="468.45"/>
      <line class="st0" x1="702.07" y1="586.61" x2="497.41" y2="468.45"/>
      <line class="st0" x1="162.8" y1="275.26" x2="367.46" y2="393.42"/>
    </g>
    <g>
      <line class="st0" x1="153.2" y1="293.23" x2="365.14" y2="397.75"/>
      <line class="st0" x1="711.67" y1="568.64" x2="499.72" y2="464.12"/>
      <line class="st0" x1="711.67" y1="568.64" x2="499.72" y2="464.12"/>
      <line class="st0" x1="153.2" y1="293.23" x2="365.14" y2="397.75"/>
    </g>
    <g>
      <line class="st0" x1="144.79" y1="311.79" x2="363.12" y2="402.22"/>
      <line class="st0" x1="720.08" y1="550.08" x2="501.75" y2="459.64"/>
      <line class="st0" x1="720.08" y1="550.08" x2="501.75" y2="459.64"/>
      <line class="st0" x1="144.79" y1="311.79" x2="363.12" y2="402.22"/>
    </g>
    <g>
      <line class="st0" x1="137.61" y1="330.85" x2="361.39" y2="406.82"/>
      <line class="st0" x1="727.25" y1="531.01" x2="503.48" y2="455.05"/>
      <line class="st0" x1="727.25" y1="531.01" x2="503.48" y2="455.05"/>
      <line class="st0" x1="137.61" y1="330.85" x2="361.39" y2="406.82"/>
    </g>
    <g>
      <line class="st0" x1="131.7" y1="350.35" x2="359.96" y2="411.51"/>
      <line class="st0" x1="733.17" y1="511.51" x2="504.9" y2="450.35"/>
      <line class="st0" x1="733.17" y1="511.51" x2="504.9" y2="450.35"/>
      <line class="st0" x1="131.7" y1="350.35" x2="359.96" y2="411.51"/>
    </g>
    <g>
      <line class="st0" x1="127.07" y1="370.19" x2="358.85" y2="416.3"/>
      <line class="st0" x1="737.8" y1="491.67" x2="506.02" y2="445.57"/>
      <line class="st0" x1="737.8" y1="491.67" x2="506.02" y2="445.57"/>
      <line class="st0" x1="127.07" y1="370.19" x2="358.85" y2="416.3"/>
    </g>
    <g>
      <line class="st0" x1="123.75" y1="390.29" x2="358.05" y2="421.14"/>
      <line class="st0" x1="741.11" y1="471.57" x2="506.82" y2="440.73"/>
      <line class="st0" x1="741.11" y1="471.57" x2="506.82" y2="440.73"/>
      <line class="st0" x1="123.75" y1="390.29" x2="358.05" y2="421.14"/>
    </g>
    <g>
      <line class="st0" x1="121.75" y1="410.57" x2="357.57" y2="426.03"/>
      <line class="st0" x1="743.11" y1="451.3" x2="507.3" y2="435.84"/>
      <line class="st0" x1="743.11" y1="451.3" x2="507.3" y2="435.84"/>
      <line class="st0" x1="121.75" y1="410.57" x2="357.57" y2="426.03"/>
    </g>
    <g>
      <line class="st0" x1="121.09" y1="430.93" x2="357.41" y2="430.93"/>
      <line class="st0" x1="743.78" y1="430.93" x2="507.46" y2="430.93"/>
      <line class="st0" x1="743.78" y1="430.93" x2="507.46" y2="430.93"/>
      <line class="st0" x1="121.09" y1="430.93" x2="357.41" y2="430.93"/>
    </g>
    <g>
      <line class="st0" x1="121.75" y1="451.3" x2="357.57" y2="435.84"/>
      <line class="st0" x1="743.11" y1="410.57" x2="507.3" y2="426.03"/>
      <line class="st0" x1="743.11" y1="410.57" x2="507.3" y2="426.03"/>
      <line class="st0" x1="121.75" y1="451.3" x2="357.57" y2="435.84"/>
    </g>
    <g>
      <line class="st0" x1="123.75" y1="471.57" x2="358.05" y2="440.73"/>
      <line class="st0" x1="741.11" y1="390.29" x2="506.82" y2="421.14"/>
      <line class="st0" x1="741.11" y1="390.29" x2="506.82" y2="421.14"/>
      <line class="st0" x1="123.75" y1="471.57" x2="358.05" y2="440.73"/>
    </g>
    <g>
      <line class="st0" x1="127.07" y1="491.67" x2="358.85" y2="445.57"/>
      <line class="st0" x1="737.8" y1="370.19" x2="506.02" y2="416.3"/>
      <line class="st0" x1="737.8" y1="370.19" x2="506.02" y2="416.3"/>
      <line class="st0" x1="127.07" y1="491.67" x2="358.85" y2="445.57"/>
    </g>
    <g>
      <line class="st0" x1="131.7" y1="511.51" x2="359.96" y2="450.35"/>
      <line class="st0" x1="733.17" y1="350.35" x2="504.9" y2="411.51"/>
      <line class="st0" x1="733.17" y1="350.35" x2="504.9" y2="411.51"/>
      <line class="st0" x1="131.7" y1="511.51" x2="359.96" y2="450.35"/>
    </g>
    <g>
      <line class="st0" x1="137.61" y1="531.01" x2="361.39" y2="455.05"/>
      <line class="st0" x1="727.25" y1="330.85" x2="503.48" y2="406.82"/>
      <line class="st0" x1="727.25" y1="330.85" x2="503.48" y2="406.82"/>
      <line class="st0" x1="137.61" y1="531.01" x2="361.39" y2="455.05"/>
    </g>
    <g>
      <line class="st0" x1="144.79" y1="550.08" x2="363.12" y2="459.64"/>
      <line class="st0" x1="720.08" y1="311.79" x2="501.75" y2="402.22"/>
      <line class="st0" x1="720.08" y1="311.79" x2="501.75" y2="402.22"/>
      <line class="st0" x1="144.79" y1="550.08" x2="363.12" y2="459.64"/>
    </g>
    <g>
      <line class="st0" x1="153.2" y1="568.64" x2="365.14" y2="464.12"/>
      <line class="st0" x1="711.67" y1="293.23" x2="499.72" y2="397.75"/>
      <line class="st0" x1="711.67" y1="293.23" x2="499.72" y2="397.75"/>
      <line class="st0" x1="153.2" y1="568.64" x2="365.14" y2="464.12"/>
    </g>
    <g>
      <line class="st0" x1="162.8" y1="586.61" x2="367.46" y2="468.45"/>
      <line class="st0" x1="702.07" y1="275.26" x2="497.41" y2="393.42"/>
      <line class="st0" x1="702.07" y1="275.26" x2="497.41" y2="393.42"/>
      <line class="st0" x1="162.8" y1="586.61" x2="367.46" y2="468.45"/>
    </g>
    <g>
      <line class="st0" x1="173.56" y1="603.91" x2="370.05" y2="472.62"/>
      <line class="st0" x1="691.31" y1="257.96" x2="494.82" y2="389.25"/>
      <line class="st0" x1="691.31" y1="257.96" x2="494.82" y2="389.25"/>
      <line class="st0" x1="173.56" y1="603.91" x2="370.05" y2="472.62"/>
    </g>
    <g>
      <line class="st0" x1="185.43" y1="620.47" x2="372.91" y2="476.61"/>
      <line class="st0" x1="679.44" y1="241.4" x2="491.96" y2="385.26"/>
      <line class="st0" x1="679.44" y1="241.4" x2="491.96" y2="385.26"/>
      <line class="st0" x1="185.43" y1="620.47" x2="372.91" y2="476.61"/>
    </g>
    <g>
      <line class="st0" x1="198.35" y1="636.22" x2="376.02" y2="480.4"/>
      <line class="st0" x1="666.51" y1="225.65" x2="488.84" y2="381.46"/>
      <line class="st0" x1="666.51" y1="225.65" x2="488.84" y2="381.46"/>
      <line class="st0" x1="198.35" y1="636.22" x2="376.02" y2="480.4"/>
    </g>
    <g>
      <line class="st0" x1="212.28" y1="651.09" x2="379.38" y2="483.99"/>
      <line class="st0" x1="652.59" y1="210.78" x2="485.49" y2="377.88"/>
      <line class="st0" x1="652.59" y1="210.78" x2="485.49" y2="377.88"/>
      <line class="st0" x1="212.28" y1="651.09" x2="379.38" y2="483.99"/>
    </g>
    <g>
      <line class="st0" x1="227.15" y1="665.01" x2="382.96" y2="487.34"/>
      <line class="st0" x1="637.72" y1="196.85" x2="481.9" y2="374.52"/>
      <line class="st0" x1="637.72" y1="196.85" x2="481.9" y2="374.52"/>
      <line class="st0" x1="227.15" y1="665.01" x2="382.96" y2="487.34"/>
    </g>
    <g>
      <line class="st0" x1="242.9" y1="677.94" x2="386.76" y2="490.46"/>
      <line class="st0" x1="621.97" y1="183.93" x2="478.11" y2="371.41"/>
      <line class="st0" x1="621.97" y1="183.93" x2="478.11" y2="371.41"/>
      <line class="st0" x1="242.9" y1="677.94" x2="386.76" y2="490.46"/>
    </g>
    <g>
      <line class="st0" x1="259.46" y1="689.81" x2="390.75" y2="493.32"/>
      <line class="st0" x1="605.41" y1="172.06" x2="474.12" y2="368.55"/>
      <line class="st0" x1="605.41" y1="172.06" x2="474.12" y2="368.55"/>
      <line class="st0" x1="259.46" y1="689.81" x2="390.75" y2="493.32"/>
    </g>
    <g>
      <line class="st0" x1="276.76" y1="700.57" x2="394.92" y2="495.91"/>
      <line class="st0" x1="588.11" y1="161.3" x2="469.95" y2="365.96"/>
      <line class="st0" x1="588.11" y1="161.3" x2="469.95" y2="365.96"/>
      <line class="st0" x1="276.76" y1="700.57" x2="394.92" y2="495.91"/>
    </g>
    <g>
      <line class="st0" x1="294.73" y1="710.17" x2="399.25" y2="498.22"/>
      <line class="st0" x1="570.14" y1="151.7" x2="465.62" y2="363.64"/>
      <line class="st0" x1="570.14" y1="151.7" x2="465.62" y2="363.64"/>
      <line class="st0" x1="294.73" y1="710.17" x2="399.25" y2="498.22"/>
    </g>
    <g>
      <line class="st0" x1="313.29" y1="718.58" x2="403.72" y2="500.25"/>
      <line class="st0" x1="551.58" y1="143.29" x2="461.14" y2="361.62"/>
      <line class="st0" x1="551.58" y1="143.29" x2="461.14" y2="361.62"/>
      <line class="st0" x1="313.29" y1="718.58" x2="403.72" y2="500.25"/>
    </g>
    <g>
      <line class="st0" x1="332.35" y1="725.75" x2="408.32" y2="501.98"/>
      <line class="st0" x1="532.51" y1="136.11" x2="456.55" y2="359.89"/>
      <line class="st0" x1="532.51" y1="136.11" x2="456.55" y2="359.89"/>
      <line class="st0" x1="332.35" y1="725.75" x2="408.32" y2="501.98"/>
    </g>
    <g>
      <line class="st0" x1="351.85" y1="731.67" x2="413.01" y2="503.4"/>
      <line class="st0" x1="513.01" y1="130.2" x2="451.85" y2="358.46"/>
      <line class="st0" x1="513.01" y1="130.2" x2="451.85" y2="358.46"/>
      <line class="st0" x1="351.85" y1="731.67" x2="413.01" y2="503.4"/>
    </g>
    <g>
      <line class="st0" x1="371.69" y1="736.3" x2="417.8" y2="504.52"/>
      <line class="st0" x1="493.17" y1="125.57" x2="447.07" y2="357.35"/>
      <line class="st0" x1="493.17" y1="125.57" x2="447.07" y2="357.35"/>
      <line class="st0" x1="371.69" y1="736.3" x2="417.8" y2="504.52"/>
    </g>
    <g>
      <line class="st0" x1="391.79" y1="739.61" x2="422.64" y2="505.32"/>
      <line class="st0" x1="473.07" y1="122.25" x2="442.23" y2="356.55"/>
      <line class="st0" x1="473.07" y1="122.25" x2="442.23" y2="356.55"/>
      <line class="st0" x1="391.79" y1="739.61" x2="422.64" y2="505.32"/>
    </g>
    <g>
      <line class="st0" x1="412.07" y1="741.61" x2="427.53" y2="505.8"/>
      <line class="st0" x1="452.8" y1="120.25" x2="437.34" y2="356.07"/>
      <line class="st0" x1="452.8" y1="120.25" x2="437.34" y2="356.07"/>
      <line class="st0" x1="412.07" y1="741.61" x2="427.53" y2="505.8"/>
    </g>
  </g>
  <g id="Mask_x5F_02">
    <g>
      <path d="M432.43,331.49c-54.92,0-99.44,44.52-99.44,99.44s44.52,99.45,99.44,99.45,99.45-44.52,99.45-99.45-44.52-99.44-99.45-99.44ZM346.92,588.08v-71.64h-120.92l31.92-31.92,3.17-3.17,50.42-50.42-50-50-2.99-2.99-32.52-32.52h120.92v-120.92l32.64,32.64,3.65,3.65,49.22,49.22,48.99-48.99,3.88-3.88,32.64-32.64v120.92h120.93l-33.53,33.53-2.76,2.76-49.22,49.22,49.64,49.64,4.37,4.37,31.5,31.5h-120.93v120.93l-32.8-32.8-2.28-2.28-50.43-50.43-50.65,50.65-3.48,3.48-31.38,31.38v-49.29Z"/>
      <path d="M603,480.57l-49.64-49.64,49.22-49.22c4.67,15.9,7.17,32.73,7.17,50.15s-2.35,33.23-6.75,48.71Z"/>
      <path d="M517.94,587.54v-71.1h70.45c-16.2,29.9-40.72,54.64-70.45,71.1Z"/>
      <path d="M517.94,345.42v-69.23c29.11,16.11,53.22,40.16,69.42,69.23h-69.42Z"/>
      <path d="M105.52,431.86c0-180.27,146.14-326.4,326.41-326.4s326.41,146.13,326.41,326.4-146.14,326.41-326.41,326.41S105.52,612.13,105.52,431.86ZM346.92,224.5v46.4l-128.44-53.2,52.9,127.72h-45.38l32.52,32.52-128.96,53.42,128.36,53.16-31.92,31.92h45.15l-53.38,128.87,129.15-53.5v45.56l31.38-31.38,53.13,128.24,53.71-129.66,32.8,32.8v-44.13l127.44,52.79-53.68-129.59h47.17l-31.5-31.5,126.93-52.57-128.96-53.42,33.53-33.53h-45.23l52.45-127.01-128.15,53.24v-47.15l-32.64,32.64-52.87-127.65-52.87,127.65-32.64-32.64Z"/>
      <path d="M332.99,430.93c0-54.92,44.52-99.44,99.44-99.44s99.45,44.52,99.45,99.44-44.52,99.45-99.45,99.45-99.44-44.52-99.44-99.45Z"/>
      <path d="M381.78,602.51l50.65-50.65,50.43,50.43c-16.13,4.81-33.23,7.4-50.93,7.4s-34.25-2.5-50.15-7.18Z"/>
      <path d="M383.21,260.79c15.48-4.39,31.82-6.75,48.72-6.75s33.78,2.43,49.49,6.98l-48.99,48.99-49.22-49.22Z"/>
      <path d="M346.92,516.44v71.64c-30.18-16.45-55.07-41.4-71.45-71.64h71.45Z"/>
      <path d="M346.92,275.64v69.78h-70.42c16.38-29.4,40.86-53.66,70.42-69.78Z"/>
      <path d="M261.09,481.35c-4.55-15.71-6.98-32.32-6.98-49.49s2.59-34.8,7.4-50.93l50,50-50.42,50.42Z"/>
    </g>
  </g>
</svg>