<?xml version="1.0" encoding="UTF-8"?>
<svg id="Layer_1" xmlns="http://www.w3.org/2000/svg" version="1.1" viewBox="0 0 864 864">
  <!-- Generator: Adobe Illustrator 29.8.1, SVG Export Plug-In . SVG Version: 2.1.1 Build 2)  -->
  <defs>
    <style>
      .st0 {
        fill: #231f20;
      }

      .st1 {
        stroke-width: .61px;
      }

      .st1, .st2, .st3, .st4, .st5, .st6 {
        fill: none;
      }

      .st1, .st3, .st7, .st4, .st5, .st6 {
        stroke: #231f20;
        stroke-miterlimit: 10;
      }

      .st3 {
        stroke-width: 14.2px;
      }

      .st7 {
        fill: #fff;
      }

      .st7, .st5 {
        stroke-width: 3.55px;
      }

      .st4 {
        stroke-width: 2.45px;
      }

      .st6 {
        stroke-width: 9.63px;
      }
    </style>
  </defs>
  <line class="st1" x1="758.34" y1="366.57" x2="708.62" y2="246.54"/>
  <line class="st1" x1="616.75" y1="154.67" x2="496.72" y2="104.95"/>
  <line class="st1" x1="246.77" y1="708.39" x2="366.8" y2="758.11"/>
  <line class="st1" x1="154.9" y1="246.54" x2="105.18" y2="366.57"/>
  <line class="st1" x1="758.34" y1="496.49" x2="708.62" y2="616.52"/>
  <line class="st1" x1="154.9" y1="616.52" x2="105.18" y2="496.49"/>
  <line class="st1" x1="246.77" y1="154.67" x2="366.8" y2="104.95"/>
  <line class="st1" x1="154.9" y1="246.54" x2="246.77" y2="154.67"/>
  <line class="st1" x1="154.9" y1="616.52" x2="246.77" y2="708.39"/>
  <line class="st1" x1="496.72" y1="758.11" x2="616.75" y2="708.39"/>
  <line class="st1" x1="708.62" y1="616.52" x2="616.75" y2="708.39"/>
  <line class="st1" x1="708.62" y1="246.54" x2="616.75" y2="154.67"/>
  <ellipse class="st4" cx="431.68" cy="431.75" rx="242.22" ry="241.42"/>
  <polygon class="st4" points="431.76 20.18 274.34 51.49 140.89 140.66 51.73 274.11 20.41 431.53 51.73 588.94 140.89 722.39 274.34 811.56 431.76 842.87 589.17 811.56 722.62 722.39 811.79 588.94 843.11 431.53 811.79 274.11 722.62 140.66 589.17 51.49 431.76 20.18"/>
  <line class="st1" x1="589.17" y1="51.49" x2="389.39" y2="218.54"/>
  <line class="st1" x1="431.76" y1="20.18" x2="311.11" y2="250.96"/>
  <line class="st1" x1="274.34" y1="51.49" x2="251.19" y2="310.88"/>
  <line class="st1" x1="140.89" y1="140.66" x2="218.77" y2="389.16"/>
  <line class="st1" x1="51.73" y1="274.11" x2="218.77" y2="473.9"/>
  <line class="st1" x1="20.41" y1="431.53" x2="251.19" y2="552.18"/>
  <line class="st1" x1="51.73" y1="588.94" x2="311.11" y2="612.09"/>
  <line class="st1" x1="389.39" y1="644.52" x2="140.89" y2="722.39"/>
  <line class="st1" x1="274.34" y1="811.56" x2="474.13" y2="644.52"/>
  <line class="st1" x1="552.41" y1="612.09" x2="431.76" y2="842.87"/>
  <line class="st1" x1="589.17" y1="811.56" x2="612.33" y2="552.18"/>
  <line class="st1" x1="644.75" y1="473.9" x2="722.62" y2="722.39"/>
  <line class="st1" x1="811.79" y1="588.94" x2="644.75" y2="389.16"/>
  <line class="st1" x1="612.33" y1="310.88" x2="843.11" y2="431.53"/>
  <line class="st1" x1="811.79" y1="274.11" x2="552.41" y2="250.96"/>
  <line class="st1" x1="722.62" y1="140.66" x2="474.13" y2="218.54"/>
  <line class="st1" x1="589.17" y1="51.49" x2="612.33" y2="310.88"/>
  <line class="st1" x1="722.62" y1="140.66" x2="644.75" y2="389.16"/>
  <line class="st1" x1="811.79" y1="274.11" x2="644.75" y2="473.9"/>
  <line class="st1" x1="843.11" y1="431.53" x2="612.33" y2="552.18"/>
  <line class="st1" x1="811.79" y1="588.94" x2="552.41" y2="612.09"/>
  <line class="st1" x1="722.62" y1="722.39" x2="474.13" y2="644.52"/>
  <line class="st1" x1="589.17" y1="811.56" x2="389.39" y2="644.52"/>
  <line class="st1" x1="431.76" y1="842.87" x2="311.11" y2="612.09"/>
  <line class="st1" x1="274.34" y1="811.56" x2="251.19" y2="552.18"/>
  <line class="st1" x1="140.89" y1="722.39" x2="218.77" y2="473.9"/>
  <line class="st1" x1="51.73" y1="588.94" x2="218.77" y2="389.16"/>
  <line class="st1" x1="20.41" y1="431.53" x2="251.19" y2="310.88"/>
  <line class="st1" x1="51.73" y1="274.11" x2="311.11" y2="250.96"/>
  <line class="st1" x1="140.89" y1="140.66" x2="389.39" y2="218.54"/>
  <line class="st1" x1="274.34" y1="51.49" x2="474.13" y2="218.54"/>
  <line class="st1" x1="431.76" y1="20.18" x2="552.41" y2="250.96"/>
  <g>
    <line class="st4" x1="474.13" y1="218.54" x2="431.76" y2="20.18"/>
    <line class="st4" x1="389.39" y1="218.54" x2="431.76" y2="20.18"/>
    <line class="st4" x1="474.13" y1="644.52" x2="431.76" y2="842.87"/>
    <line class="st4" x1="389.39" y1="644.52" x2="431.76" y2="842.87"/>
    <line class="st4" x1="644.75" y1="473.9" x2="843.11" y2="431.53"/>
    <line class="st4" x1="644.75" y1="389.16" x2="843.11" y2="431.53"/>
    <line class="st4" x1="218.77" y1="473.9" x2="20.41" y2="431.53"/>
    <line class="st4" x1="218.77" y1="389.16" x2="20.41" y2="431.53"/>
    <line class="st4" x1="311.11" y1="250.96" x2="140.89" y2="140.66"/>
    <line class="st4" x1="251.19" y1="310.88" x2="140.89" y2="140.66"/>
    <line class="st4" x1="612.33" y1="552.18" x2="722.62" y2="722.39"/>
    <line class="st4" x1="552.41" y1="612.09" x2="722.62" y2="722.39"/>
    <line class="st4" x1="612.33" y1="310.88" x2="722.62" y2="140.66"/>
    <line class="st4" x1="552.41" y1="250.96" x2="722.62" y2="140.66"/>
    <line class="st4" x1="311.11" y1="612.09" x2="140.89" y2="722.39"/>
    <line class="st4" x1="251.19" y1="552.18" x2="140.89" y2="722.39"/>
  </g>
  <line class="st4" x1="274.34" y1="51.49" x2="350.28" y2="234.83"/>
  <line class="st4" x1="512.65" y1="626.83" x2="589.17" y2="811.56"/>
  <line class="st4" x1="20.41" y1="431.53" x2="218.47" y2="431.53"/>
  <line class="st4" x1="843.11" y1="431.53" x2="643.52" y2="431.53"/>
  <line class="st4" x1="431.76" y1="20.18" x2="431.76" y2="218.91"/>
  <line class="st4" x1="431.76" y1="842.87" x2="431.76" y2="643.96"/>
  <path class="st0" d="M708.62,249.6c3.95,0,3.95-6.14,0-6.14s-3.95,6.14,0,6.14h0Z"/>
  <path class="st0" d="M758.34,369.64c3.95,0,3.95-6.14,0-6.14s-3.95,6.14,0,6.14h0Z"/>
  <path class="st0" d="M758.34,499.56c3.95,0,3.95-6.14,0-6.14s-3.95,6.14,0,6.14h0Z"/>
  <path class="st0" d="M708.62,619.59c3.95,0,3.95-6.14,0-6.14s-3.95,6.14,0,6.14h0Z"/>
  <path class="st0" d="M616.75,711.46c3.95,0,3.95-6.14,0-6.14s-3.95,6.14,0,6.14h0Z"/>
  <path class="st0" d="M496.72,761.18c3.95,0,3.95-6.14,0-6.14s-3.95,6.14,0,6.14h0Z"/>
  <path class="st0" d="M366.8,761.18c3.95,0,3.95-6.14,0-6.14s-3.95,6.14,0,6.14h0Z"/>
  <path class="st0" d="M246.77,711.46c3.95,0,3.95-6.14,0-6.14s-3.95,6.14,0,6.14h0Z"/>
  <path class="st0" d="M154.9,619.59c3.95,0,3.95-6.14,0-6.14s-3.95,6.14,0,6.14h0Z"/>
  <path class="st0" d="M105.18,499.56c3.95,0,3.95-6.14,0-6.14s-3.95,6.14,0,6.14h0Z"/>
  <path class="st0" d="M105.18,369.64c3.95,0,3.95-6.14,0-6.14s-3.95,6.14,0,6.14h0Z"/>
  <path class="st0" d="M154.9,249.6c3.95,0,3.95-6.14,0-6.14s-3.95,6.14,0,6.14h0Z"/>
  <path class="st0" d="M246.77,157.74c3.95,0,3.95-6.14,0-6.14s-3.95,6.14,0,6.14h0Z"/>
  <path class="st0" d="M366.8,108.02c3.95,0,3.95-6.14,0-6.14s-3.95,6.14,0,6.14h0Z"/>
  <path class="st0" d="M496.72,108.02c3.95,0,3.95-6.14,0-6.14s-3.95,6.14,0,6.14h0Z"/>
  <path class="st0" d="M616.75,157.74c3.95,0,3.95-6.14,0-6.14s-3.95,6.14,0,6.14h0Z"/>
  <polygon class="st4" points="473.27 218.91 388.72 218.91 310.61 251.26 250.83 311.05 218.47 389.16 218.47 473.71 250.83 551.82 310.61 611.6 388.72 643.96 473.27 643.96 551.38 611.6 611.17 551.82 643.52 473.71 643.52 389.16 611.17 311.05 551.38 251.26 473.27 218.91"/>
  <g>
    <path class="st2" d="M431.99,612.53c-99.81,0-180.71-80.91-180.71-180.71s80.91-180.71,180.71-180.71c99.81,0,180.71,80.91,180.71,180.71,0,99.81-80.91,180.71-180.71,180.71"/>
    <path class="st5" d="M431.99,573.79c-78.41,0-141.98-63.57-141.98-141.98s63.57-141.98,141.98-141.98c78.41,0,141.98,63.57,141.98,141.98,0,78.41-63.57,141.98-141.98,141.98"/>
    <path class="st6" d="M431.99,594.91"/>
    <path class="st7" d="M431.99,476.64c-24.76,0-44.83-20.07-44.83-44.83s20.07-44.83,44.83-44.83c24.76,0,44.83,20.07,44.83,44.83s-20.07,44.83-44.83,44.83"/>
    <path class="st5" d="M472.83,413.31c58.51,2.39,101.14,9.77,101.14,18.5,0,10.67-63.57,19.31-141.98,19.31"/>
    <path class="st5" d="M431.99,451.13c-78.41,0-141.98-8.65-141.98-19.31,0-8.74,42.63-16.12,101.14-18.5"/>
    <path class="st5" d="M431.99,365.34c-63.82,0-115.56-6.55-115.56-14.64s51.74-14.64,115.56-14.64c63.82,0,115.56,6.55,115.56,14.64,0,8.08-51.74,14.64-115.56,14.64"/>
    <path class="st5" d="M431.99,498.29c63.82,0,115.56,6.55,115.56,14.64s-51.74,14.64-115.56,14.64c-63.82,0-115.56-6.55-115.56-14.64,0-8.08,51.74-14.64,115.56-14.64"/>
    <path class="st6" d="M466.47,271.83c-11.12-2.38-22.65-3.65-34.47-3.65-90.37,0-163.63,73.26-163.63,163.63s73.26,163.63,163.63,163.63c11.83,0,23.36-1.27,34.47-3.65"/>
    <line class="st3" x1="431.99" y1="258.04" x2="431.99" y2="289.83"/>
    <line class="st3" x1="431.99" y1="605.58" x2="431.99" y2="573.79"/>
  </g>
</svg>