<?xml version="1.0" encoding="UTF-8"?>
<svg id="Layer_1" xmlns="http://www.w3.org/2000/svg" version="1.1" viewBox="0 0 864 864">
  <!-- Generator: Adobe Illustrator 30.1.0, SVG Export Plug-In . SVG Version: 2.1.1 Build 136)  -->
  <defs>
    <style>
      .st0 {
        fill: #010101;
      }

      .st1 {
        fill: #fff;
      }

      .st2, .st3, .st4, .st5 {
        fill: none;
      }

      .st3 {
        stroke-width: .21px;
      }

      .st3, .st4, .st5 {
        stroke: #fff;
        stroke-miterlimit: 10;
      }

      .st4 {
        stroke-width: .75px;
      }

      .st5 {
        stroke-width: .35px;
      }
    </style>
  </defs>
  <rect id="BG" class="st0" width="864" height="864"/>
  <g id="Outer_x5F_01">
    <circle class="st2" cx="432" cy="432" r="262.37"/>
    <circle class="st4" cx="432" cy="432" r="247.48"/>
    <path class="st3" d="M432,228.93c112.16,0,203.08,90.92,203.08,203.08"/>
    <path class="st3" d="M432,221.23c116.41,0,210.77,94.37,210.77,210.77"/>
    <path class="st3" d="M432,212.91c121,0,219.09,98.09,219.09,219.09"/>
    <path class="st3" d="M432,203.84c126.01,0,228.16,102.15,228.16,228.16"/>
    <path class="st3" d="M432,194.28c131.29,0,237.72,106.43,237.72,237.72"/>
    <polyline class="st5" points="432 184.52 454.3 225.22 486.81 190.61 499.74 235.32 540.51 209.52 542.66 255.89 585.9 238.18 579.36 285.26 626.71 279.23 608.34 321.7 654.51 323.54 628.61 364.05 673.5 377.68 638.77 409.57 679.48 432.95"/>
    <polyline class="st5" points="639.96 432 678 404.82 635.08 386.97 665.75 350.51 618.99 340.85 641.45 300.12 594.67 302.42 607.06 257.08 561.54 269.3 562.89 221.93 523.22 244.56 512.72 197.99 477.94 229.13 458.28 185.9 432 224.04"/>
    <circle class="st1" cx="561.54" cy="269.3" r="2.16"/>
    <circle class="st1" cx="541.65" cy="234.05" r="2.16"/>
    <circle class="st1" cx="458.28" cy="185.9" r="2.16"/>
    <path class="st1" d="M512.72,195.83c1.19,0,2.16.97,2.16,2.16s-.97,2.16-2.16,2.16-2.16-.97-2.16-2.16.97-2.16,2.16-2.16Z"/>
    <circle class="st1" cx="607.06" cy="257.08" r="2.16"/>
    <circle class="st1" cx="641.45" cy="300.12" r="2.16"/>
    <circle class="st1" cx="618.99" cy="340.85" r="2.16"/>
    <circle class="st1" cx="656.84" cy="419.94" r="2.16"/>
    <circle class="st1" cx="562.15" cy="247.91" r="1.67"/>
    <circle class="st1" cx="477.94" cy="229.13" r="1.68"/>
    <circle class="st1" cx="523.22" cy="244.56" r="1.67"/>
    <circle class="st1" cx="562.89" cy="221.93" r="1.67"/>
    <circle class="st1" cx="640.65" cy="345.49" r="1.67"/>
    <circle class="st1" cx="649.12" cy="370.28" r="1.67"/>
    <circle class="st1" cx="678" cy="404.82" r="1.67"/>
    <circle class="st1" cx="635.08" cy="386.97" r="1.08"/>
    <circle class="st1" cx="665.75" cy="350.51" r="1.08"/>
    <circle class="st1" cx="637.76" cy="323.08" r="2.16"/>
    <circle class="st1" cx="617.16" cy="301.32" r="1.08"/>
    <circle class="st1" cx="594.67" cy="302.42" r="1.08"/>
    <circle class="st1" cx="600.08" cy="282.62" r="1.08"/>
    <circle class="st1" cx="582.35" cy="263.71" r="1.08"/>
    <circle class="st1" cx="518.51" cy="223.32" r="1.08"/>
    <circle class="st1" cx="493.84" cy="214.89" r="1.08"/>
    <path class="st3" d="M228.93,432c0-112.16,90.92-203.08,203.08-203.08"/>
    <path class="st3" d="M221.23,432c0-116.41,94.37-210.77,210.77-210.77"/>
    <path class="st3" d="M212.91,432c0-121,98.09-219.09,219.09-219.09"/>
    <path class="st3" d="M203.84,432c0-126.01,102.15-228.16,228.16-228.16"/>
    <path class="st3" d="M194.28,432c0-131.29,106.43-237.72,237.72-237.72"/>
    <polyline class="st5" points="184.52 432 225.22 409.7 190.61 377.19 235.32 364.26 209.52 323.49 255.89 321.34 238.18 278.1 285.26 284.64 279.23 237.29 321.7 255.66 323.54 209.49 364.05 235.39 377.68 190.5 409.57 225.23 432.95 184.52"/>
    <polyline class="st5" points="432 224.04 404.82 186 386.97 228.92 350.51 198.25 340.85 245.01 300.12 222.55 302.42 269.33 257.08 256.94 269.3 302.46 221.93 301.11 244.56 340.78 197.99 351.28 229.13 386.06 185.9 405.72 224.04 432"/>
    <circle class="st1" cx="269.3" cy="302.46" r="2.16"/>
    <circle class="st1" cx="234.05" cy="322.35" r="2.16"/>
    <circle class="st1" cx="185.9" cy="405.72" r="2.16"/>
    <path class="st1" d="M195.83,351.28c0-1.19.97-2.16,2.16-2.16s2.16.97,2.16,2.16-.97,2.16-2.16,2.16-2.16-.97-2.16-2.16Z"/>
    <circle class="st1" cx="257.08" cy="256.94" r="2.16"/>
    <circle class="st1" cx="300.12" cy="222.55" r="2.16"/>
    <circle class="st1" cx="340.85" cy="245.01" r="2.16"/>
    <circle class="st1" cx="419.94" cy="207.16" r="2.16"/>
    <circle class="st1" cx="247.91" cy="301.85" r="1.67"/>
    <circle class="st1" cx="229.13" cy="386.06" r="1.68"/>
    <circle class="st1" cx="244.56" cy="340.78" r="1.67"/>
    <circle class="st1" cx="221.93" cy="301.11" r="1.67"/>
    <circle class="st1" cx="345.49" cy="223.35" r="1.67"/>
    <circle class="st1" cx="370.28" cy="214.88" r="1.67"/>
    <circle class="st1" cx="404.82" cy="186" r="1.67"/>
    <circle class="st1" cx="386.97" cy="228.92" r="1.08"/>
    <circle class="st1" cx="350.51" cy="198.25" r="1.08"/>
    <circle class="st1" cx="323.08" cy="226.24" r="2.16"/>
    <circle class="st1" cx="301.32" cy="246.84" r="1.08"/>
    <circle class="st1" cx="302.42" cy="269.33" r="1.08"/>
    <circle class="st1" cx="282.62" cy="263.92" r="1.08"/>
    <circle class="st1" cx="263.71" cy="281.65" r="1.08"/>
    <circle class="st1" cx="223.32" cy="345.49" r="1.08"/>
    <circle class="st1" cx="214.89" cy="370.16" r="1.08"/>
    <path class="st3" d="M432,635.07c-112.16,0-203.08-90.92-203.08-203.08"/>
    <path class="st3" d="M432,642.77c-116.41,0-210.77-94.37-210.77-210.77"/>
    <path class="st3" d="M432,651.09c-121,0-219.09-98.09-219.09-219.09"/>
    <path class="st3" d="M432,660.16c-126.01,0-228.16-102.15-228.16-228.16"/>
    <path class="st3" d="M432,669.72c-131.29,0-237.72-106.43-237.72-237.72"/>
    <polyline class="st5" points="432 679.48 409.7 638.78 377.19 673.39 364.26 628.68 323.49 654.48 321.34 608.11 278.1 625.82 284.64 578.74 237.29 584.77 255.66 542.3 209.49 540.46 235.39 499.95 190.5 486.32 225.23 454.43 184.52 431.05"/>
    <polyline class="st5" points="224.04 432 186 459.18 228.92 477.03 198.25 513.49 245.01 523.15 222.55 563.88 269.33 561.58 256.94 606.92 302.46 594.7 301.11 642.07 340.78 619.44 351.28 666.01 386.06 634.87 405.72 678.1 432 639.96"/>
    <circle class="st1" cx="302.46" cy="594.7" r="2.16"/>
    <circle class="st1" cx="322.35" cy="629.95" r="2.16"/>
    <circle class="st1" cx="405.72" cy="678.1" r="2.16"/>
    <path class="st1" d="M351.28,668.17c-1.19,0-2.16-.97-2.16-2.16s.97-2.16,2.16-2.16,2.16.97,2.16,2.16-.97,2.16-2.16,2.16Z"/>
    <circle class="st1" cx="256.94" cy="606.92" r="2.16"/>
    <circle class="st1" cx="222.55" cy="563.88" r="2.16"/>
    <circle class="st1" cx="245.01" cy="523.15" r="2.16"/>
    <circle class="st1" cx="207.16" cy="444.06" r="2.16"/>
    <circle class="st1" cx="301.85" cy="616.09" r="1.67"/>
    <circle class="st1" cx="386.06" cy="634.87" r="1.68"/>
    <circle class="st1" cx="340.78" cy="619.44" r="1.67"/>
    <circle class="st1" cx="301.11" cy="642.07" r="1.67"/>
    <circle class="st1" cx="223.35" cy="518.51" r="1.67"/>
    <circle class="st1" cx="214.88" cy="493.72" r="1.67"/>
    <circle class="st1" cx="186" cy="459.18" r="1.67"/>
    <circle class="st1" cx="228.92" cy="477.03" r="1.08"/>
    <circle class="st1" cx="198.25" cy="513.49" r="1.08"/>
    <circle class="st1" cx="226.24" cy="540.92" r="2.16"/>
    <circle class="st1" cx="246.84" cy="562.68" r="1.08"/>
    <circle class="st1" cx="269.33" cy="561.58" r="1.08"/>
    <circle class="st1" cx="263.92" cy="581.38" r="1.08"/>
    <circle class="st1" cx="281.65" cy="600.29" r="1.08"/>
    <circle class="st1" cx="345.49" cy="640.68" r="1.08"/>
    <circle class="st1" cx="370.16" cy="649.11" r="1.08"/>
    <path class="st3" d="M635.07,432c0,112.16-90.92,203.08-203.08,203.08"/>
    <path class="st3" d="M642.77,432c0,116.41-94.37,210.77-210.77,210.77"/>
    <path class="st3" d="M651.09,432c0,121-98.09,219.09-219.09,219.09"/>
    <path class="st3" d="M660.16,432c0,126.01-102.15,228.16-228.16,228.16"/>
    <path class="st3" d="M669.72,432c0,131.29-106.43,237.72-237.72,237.72"/>
    <polyline class="st5" points="679.48 432 638.78 454.3 673.39 486.81 628.68 499.74 654.48 540.51 608.11 542.66 625.82 585.9 578.74 579.36 584.77 626.71 542.3 608.34 540.46 654.51 499.95 628.61 486.32 673.5 454.43 638.77 431.05 679.48"/>
    <polyline class="st5" points="432 639.96 459.18 678 477.03 635.08 513.49 665.75 523.15 618.99 563.88 641.45 561.58 594.67 606.92 607.06 594.7 561.54 642.07 562.89 619.44 523.22 666.01 512.72 634.87 477.94 678.1 458.28 639.96 432"/>
    <circle class="st1" cx="594.7" cy="561.54" r="2.16"/>
    <circle class="st1" cx="629.95" cy="541.65" r="2.16"/>
    <circle class="st1" cx="678.1" cy="458.28" r="2.16"/>
    <path class="st1" d="M668.17,512.72c0,1.19-.97,2.16-2.16,2.16s-2.16-.97-2.16-2.16.97-2.16,2.16-2.16,2.16.97,2.16,2.16Z"/>
    <circle class="st1" cx="606.92" cy="607.06" r="2.16"/>
    <circle class="st1" cx="563.88" cy="641.45" r="2.16"/>
    <circle class="st1" cx="523.15" cy="618.99" r="2.16"/>
    <circle class="st1" cx="444.06" cy="656.84" r="2.16"/>
    <circle class="st1" cx="616.09" cy="562.15" r="1.67"/>
    <circle class="st1" cx="634.87" cy="477.94" r="1.68"/>
    <circle class="st1" cx="619.44" cy="523.22" r="1.67"/>
    <circle class="st1" cx="642.07" cy="562.89" r="1.67"/>
    <circle class="st1" cx="518.51" cy="640.65" r="1.67"/>
    <circle class="st1" cx="493.72" cy="649.12" r="1.67"/>
    <circle class="st1" cx="459.18" cy="678" r="1.67"/>
    <circle class="st1" cx="477.03" cy="635.08" r="1.08"/>
    <circle class="st1" cx="513.49" cy="665.75" r="1.08"/>
    <circle class="st1" cx="540.92" cy="637.76" r="2.16"/>
    <circle class="st1" cx="562.68" cy="617.16" r="1.08"/>
    <circle class="st1" cx="561.58" cy="594.67" r="1.08"/>
    <circle class="st1" cx="581.38" cy="600.08" r="1.08"/>
    <circle class="st1" cx="600.29" cy="582.35" r="1.08"/>
    <circle class="st1" cx="640.68" cy="518.51" r="1.08"/>
    <circle class="st1" cx="649.11" cy="493.84" r="1.08"/>
  </g>
  <g id="Mask_x5F_01">
    <path d="M631.78,432c0,110.33-89.44,199.78-199.78,199.78s-199.78-89.44-199.78-199.78,89.44-199.78,199.78-199.78v-53.46c-139.86,0-253.24,113.38-253.24,253.24s113.38,253.24,253.24,253.24,253.24-113.38,253.24-253.24h-53.46Z"/>
  </g>
</svg>