<?xml version="1.0" encoding="UTF-8"?>
<svg id="Layer_1" xmlns="http://www.w3.org/2000/svg" version="1.1" viewBox="0 0 864 864">
  <!-- Generator: Adobe Illustrator 30.1.0, SVG Export Plug-In . SVG Version: 2.1.1 Build 136)  -->
  <defs>
    <style>
      .st0 {
        fill: #010101;
      }

      .st1 {
        font-family: BebasNeue-Regular, 'Bebas Neue';
        font-size: 4.27px;
      }

      .st1, .st2, .st3, .st4, .st5, .st6, .st7, .st8 {
        fill: #fff;
      }

      .st1, .st9 {
        isolation: isolate;
      }

      .st2 {
        stroke-miterlimit: 10;
        stroke-width: .75px;
      }

      .st2, .st10, .st4, .st11, .st12, .st13, .st5, .st6, .st14, .st15, .st7, .st8 {
        stroke: #fff;
      }

      .st10, .st11, .st12, .st13, .st6, .st14, .st15 {
        stroke-miterlimit: 10;
      }

      .st10, .st11, .st12, .st13, .st14, .st15 {
        fill: none;
      }

      .st4 {
        stroke-miterlimit: 10;
        stroke-width: .75px;
      }

      .st11 {
        stroke-width: .5px;
      }

      .st12 {
        stroke-width: .21px;
      }

      .st13, .st6 {
        stroke-width: .75px;
      }

      .st5 {
        stroke-miterlimit: 10;
        stroke-width: .75px;
      }

      .st14 {
        stroke-width: .35px;
      }

      .st15 {
        stroke-width: 2px;
      }

      .st7 {
        stroke-miterlimit: 10;
        stroke-width: .75px;
      }

      .st8 {
        stroke-miterlimit: 10;
        stroke-width: .75px;
      }
    </style>
  </defs>
  <rect id="BG" class="st0" width="864" height="864"/>
  <g id="Inner">
    <circle class="st13" cx="432" cy="432" r="412.09"/>
    <circle class="st15" cx="432" cy="432" r="262.37"/>
    <circle class="st13" cx="432" cy="432" r="194.71"/>
    <g class="st9">
      <g class="st9">
        <g class="st9">
          <text class="st1" transform="translate(674.61 248.7)"><tspan x="0" y="0">Tempra</tspan></text>
        </g>
      </g>
    </g>
    <g class="st9">
      <g class="st9">
        <g class="st9">
          <text class="st1" transform="translate(674.68 258.21)"><tspan x="0" y="0" xml:space="preserve">4457889   325</tspan></text>
        </g>
      </g>
    </g>
    <g class="st9">
      <g class="st9">
        <g class="st9">
          <text class="st1" transform="translate(333.96 28.15) rotate(-11.58)"><tspan x="0" y="0" xml:space="preserve">sdfr  gjk  gh</tspan></text>
        </g>
      </g>
    </g>
    <g class="st9">
      <g class="st9">
        <g class="st9">
          <text class="st1" transform="translate(336.74 41.12) rotate(-11.58)"><tspan x="0" y="0">0987 45 397</tspan></text>
        </g>
      </g>
    </g>
    <g class="st9">
      <g class="st9">
        <g class="st9">
          <text class="st1" transform="translate(439.43 610.09)"><tspan x="0" y="0">Intuy</tspan></text>
        </g>
      </g>
    </g>
    <g class="st9">
      <g class="st9">
        <g class="st9">
          <text class="st1" transform="translate(440.8 621.31)"><tspan x="0" y="0">entud</tspan></text>
        </g>
      </g>
    </g>
    <g class="st9">
      <g class="st9">
        <g class="st9">
          <text class="st1" transform="translate(291.72 564.1) rotate(-45.19)"><tspan x="0" y="0" xml:space="preserve">alskje na  sd</tspan></text>
        </g>
      </g>
    </g>
    <g class="st9">
      <g class="st9">
        <g class="st9">
          <text class="st1" transform="translate(301.51 573.63) rotate(-45.19)"><tspan x="0" y="0" xml:space="preserve">7  782  3129</tspan></text>
        </g>
      </g>
    </g>
    <g class="st9">
      <g class="st9">
        <g class="st9">
          <text class="st1" transform="translate(444.85 722.83)"><tspan x="0" y="0" xml:space="preserve">restunl  6458</tspan></text>
        </g>
      </g>
    </g>
    <g class="st9">
      <g class="st9">
        <g class="st9">
          <text class="st1" transform="translate(730.6 710.71) rotate(-48.46)"><tspan x="0" y="0" xml:space="preserve">oihd er   gszijm</tspan></text>
        </g>
      </g>
    </g>
    <g class="st9">
      <g class="st9">
        <g class="st9">
          <text class="st1" transform="translate(739.39 718.25) rotate(-48.46)"><tspan x="0" y="0" xml:space="preserve">   36  54456  754</tspan></text>
        </g>
      </g>
    </g>
    <g class="st9">
      <g class="st9">
        <g class="st9">
          <text class="st1" transform="translate(155.72 609)"><tspan x="0" y="0" xml:space="preserve">bljkasd  011  42</tspan></text>
        </g>
      </g>
    </g>
    <g class="st9">
      <g class="st9">
        <g class="st9">
          <text class="st1" transform="translate(162.84 706.77) rotate(44.98)"><tspan x="0" y="0" xml:space="preserve">nkmrwljnb  x54</tspan></text>
        </g>
      </g>
    </g>
    <g class="st9">
      <g class="st9">
        <g class="st9">
          <text class="st1" transform="translate(153.56 719.09) rotate(44.98)"><tspan x="0" y="0">alk.yo1</tspan></text>
        </g>
      </g>
    </g>
    <g class="st9">
      <g class="st9">
        <g class="st9">
          <text class="st1" transform="translate(130.43 536.86) rotate(45)"><tspan x="0" y="0" xml:space="preserve">mbncc   687 1 795</tspan></text>
        </g>
      </g>
    </g>
    <g class="st9">
      <g class="st9">
        <g class="st9">
          <text class="st1" transform="translate(120.33 545.59) rotate(45)"><tspan x="0" y="0" xml:space="preserve">ojlkdfg   1845  88</tspan></text>
        </g>
      </g>
    </g>
    <g class="st9">
      <g class="st9">
        <g class="st9">
          <text class="st1" transform="translate(170.59 300.3) rotate(26.12)"><tspan x="0" y="0" xml:space="preserve">jkmnmnz  xcd</tspan></text>
        </g>
      </g>
    </g>
    <g class="st9">
      <g class="st9">
        <g class="st9">
          <text class="st1" transform="translate(173.85 316.55) rotate(26.12)"><tspan x="0" y="0">uhserty</tspan></text>
        </g>
      </g>
    </g>
    <g class="st9">
      <g class="st9">
        <g class="st9">
          <text class="st1" transform="translate(175.5 622.73)"><tspan x="0" y="0">lkhjs</tspan></text>
        </g>
      </g>
    </g>
    <circle class="st12" cx="432" cy="432" r="164.25"/>
    <path class="st3" d="M432.11,267.75l-.11,164.25c.21-.04-.51-164.65.11-164.25h0Z"/>
    <path class="st3" d="M431.89,596.25l.11-164.25c-.21.04.51,164.65-.11,164.25h0Z"/>
    <path class="st3" d="M427.81,267.81l4.19,164.19c.21-.04-4.82-164.58-4.19-164.19h0Z"/>
    <path class="st3" d="M436.19,596.2l-4.19-164.19c-.21.04,4.82,164.58,4.19,164.19h0Z"/>
    <path class="st3" d="M423.51,267.97l8.49,164.03c.21-.05-9.13-164.39-8.49-164.03h0Z"/>
    <path class="st3" d="M440.49,596.03l-8.49-164.03c-.21.05,9.13,164.39,8.49,164.03h0Z"/>
    <path class="st3" d="M419.22,268.25l12.78,163.75c.21-.06-13.43-164.1-12.78-163.75h0Z"/>
    <path class="st3" d="M444.78,595.75l-12.78-163.75c-.21.06,13.43,164.1,12.78,163.75h0Z"/>
    <path class="st3" d="M414.94,268.64l17.06,163.36c.21-.06-17.72-163.69-17.06-163.36h0Z"/>
    <path class="st3" d="M449.06,595.36l-17.06-163.36c-.21.06,17.72,163.69,17.06,163.36h0Z"/>
    <path class="st3" d="M410.67,269.15l21.33,162.86c.2-.07-22-163.17-21.33-162.86h0Z"/>
    <path class="st3" d="M453.33,594.86l-21.33-162.86c-.2.07,22,163.17,21.33,162.86h0Z"/>
    <path class="st3" d="M406.41,269.76l25.59,162.24c.2-.07-26.26-162.54-25.59-162.24h0Z"/>
    <path class="st3" d="M457.59,594.24l-25.59-162.24c-.2.07,26.26,162.54,25.59,162.24h0Z"/>
    <path class="st3" d="M402.17,270.49l29.83,161.52c.2-.08-30.51-161.8-29.83-161.52h0Z"/>
    <path class="st3" d="M461.83,593.52l-29.83-161.52c-.2.08,30.51,161.8,29.83,161.52h0Z"/>
    <path class="st3" d="M397.96,271.32l34.04,160.68c.2-.08-34.73-160.94-34.04-160.68h0Z"/>
    <path class="st3" d="M466.04,592.68l-34.04-160.68c-.2.08,34.73,160.94,34.04,160.68h0Z"/>
    <path class="st3" d="M393.76,272.27l38.24,159.73c.2-.09-38.93-159.98-38.24-159.73h0Z"/>
    <path class="st3" d="M470.24,591.74l-38.24-159.73c-.2.09,38.93,159.98,38.24,159.73h0Z"/>
    <path class="st3" d="M389.59,273.32l42.41,158.68c.19-.09-43.11-158.9-42.41-158.68h0Z"/>
    <path class="st3" d="M474.41,590.68l-42.41-158.68c-.19.09,43.11,158.9,42.41,158.68h0Z"/>
    <path class="st3" d="M385.45,274.49l46.55,157.51c.19-.1-47.25-157.72-46.55-157.51h0Z"/>
    <path class="st3" d="M478.55,589.52l-46.55-157.51c-.19.1,47.25,157.72,46.55,157.51h0Z"/>
    <path class="st3" d="M381.35,275.76l50.65,156.24c.19-.1-51.37-156.43-50.65-156.24h0Z"/>
    <path class="st3" d="M482.65,588.24l-50.65-156.24c-.19.1,51.37,156.43,50.65,156.24h0Z"/>
    <path class="st3" d="M377.27,277.14l54.73,154.86c.19-.11-55.44-155.03-54.73-154.86h0Z"/>
    <path class="st3" d="M486.73,586.86l-54.73-154.86c-.19.11,55.44,155.03,54.73,154.86h0Z"/>
    <path class="st3" d="M373.24,278.63l58.76,153.38c.18-.11-59.48-153.53-58.76-153.38h0Z"/>
    <path class="st3" d="M490.76,585.38l-58.76-153.38c-.18.11,59.48,153.53,58.76,153.38h0Z"/>
    <path class="st3" d="M369.24,280.22l62.76,151.79c.18-.12-63.48-151.92-62.76-151.79h0Z"/>
    <path class="st3" d="M494.76,583.79l-62.76-151.79c-.18.12,63.48,151.92,62.76,151.79h0Z"/>
    <path class="st3" d="M365.29,281.91l66.71,150.09c.18-.12-67.44-150.2-66.71-150.09h0Z"/>
    <path class="st3" d="M498.71,582.09l-66.71-150.09c-.18.12,67.44,150.2,66.71,150.09h0Z"/>
    <path class="st3" d="M361.39,283.71l70.61,148.29c.17-.13-71.34-148.39-70.61-148.29h0Z"/>
    <path class="st3" d="M502.61,580.3l-70.61-148.29c-.17.13,71.34,148.39,70.61,148.29h0Z"/>
    <path class="st3" d="M357.53,285.61l74.47,146.39c.17-.13-75.2-146.47-74.47-146.39h0Z"/>
    <path class="st3" d="M506.47,578.4l-74.47-146.39c-.17.13,75.2,146.47,74.47,146.39h0Z"/>
    <path class="st3" d="M353.72,287.61l78.28,144.39c.17-.13-79.01-144.45-78.28-144.39h0Z"/>
    <path class="st3" d="M510.28,576.4l-78.28-144.39c-.17.13,79.01,144.45,78.28,144.39h0Z"/>
    <path class="st3" d="M349.97,289.71l82.03,142.3c.16-.14-82.77-142.33-82.03-142.3h0Z"/>
    <path class="st3" d="M514.03,574.3l-82.03-142.3c-.16.14,82.77,142.33,82.03,142.3h0Z"/>
    <path class="st3" d="M346.27,291.9l85.73,140.1c.16-.14-86.46-140.12-85.73-140.1h0Z"/>
    <path class="st3" d="M517.73,572.1l-85.73-140.1c-.16.14,86.46,140.12,85.73,140.1h0Z"/>
    <path class="st3" d="M342.63,294.19l89.37,137.81c.16-.15-90.1-137.81-89.37-137.81h0Z"/>
    <path class="st3" d="M521.37,569.81l-89.37-137.81c-.16.15,90.1,137.81,89.37,137.81h0Z"/>
    <path class="st3" d="M339.06,296.58l92.94,135.42c.15-.15-93.68-135.4-92.94-135.42h0Z"/>
    <path class="st3" d="M524.94,567.42l-92.94-135.42c-.15.15,93.68,135.4,92.94,135.42h0Z"/>
    <path class="st3" d="M335.54,299.06l96.46,132.94c.15-.16-97.19-132.9-96.46-132.94h0Z"/>
    <path class="st3" d="M528.46,564.94l-96.46-132.94c-.15.16,97.19,132.9,96.46,132.94h0Z"/>
    <path class="st3" d="M332.1,301.63l99.9,130.37c.14-.16-100.64-130.31-99.9-130.37h0Z"/>
    <path class="st3" d="M531.9,562.37l-99.9-130.37c-.14.16,100.64,130.31,99.9,130.37h0Z"/>
    <path class="st3" d="M328.72,304.29l103.28,127.71c.14-.16-104.01-127.63-103.28-127.71h0Z"/>
    <path class="st3" d="M535.28,559.71l-103.28-127.71c-.14.16,104.01,127.63,103.28,127.71h0Z"/>
    <path class="st3" d="M325.41,307.04l106.59,124.96c.13-.17-107.32-124.87-106.59-124.96h0Z"/>
    <path class="st3" d="M538.59,556.97l-106.59-124.96c-.13.17,107.32,124.87,106.59,124.96h0Z"/>
    <path class="st3" d="M322.18,309.87l109.82,122.13c.13-.17-110.55-122.01-109.82-122.13h0Z"/>
    <path class="st3" d="M541.82,554.13l-109.82-122.13c-.13.17,110.55,122.01,109.82,122.13h0Z"/>
    <path class="st3" d="M319.02,312.79l112.98,119.21c.13-.17-113.71-119.08-112.98-119.21h0Z"/>
    <path class="st3" d="M544.98,551.22l-112.98-119.21c-.13.17,113.71,119.08,112.98,119.21h0Z"/>
    <path class="st3" d="M315.94,315.79l116.06,116.22c.12-.18-116.78-116.06-116.06-116.22h0Z"/>
    <path class="st3" d="M548.06,548.22l-116.06-116.22c-.12.18,116.78,116.06,116.06,116.22h0Z"/>
    <path class="st3" d="M312.93,318.86l119.07,113.14c.12-.18-119.78-112.96-119.07-113.14h0Z"/>
    <path class="st3" d="M551.07,545.14l-119.07-113.14c-.12.18,119.78,112.96,119.07,113.14h0Z"/>
    <path class="st3" d="M310.01,322.02l121.99,109.98c.11-.18-122.7-109.79-121.99-109.98h0Z"/>
    <path class="st3" d="M553.99,541.98l-121.99-109.98c-.11.18,122.7,109.79,121.99,109.98h0Z"/>
    <path class="st3" d="M307.17,325.25l124.83,106.75c.11-.19-125.53-106.54-124.83-106.75h0Z"/>
    <path class="st3" d="M556.83,538.75l-124.83-106.75c-.11.19,125.53,106.54,124.83,106.75h0Z"/>
    <path class="st3" d="M304.42,328.55l127.58,103.45c.1-.19-128.28-103.22-127.58-103.45h0Z"/>
    <path class="st3" d="M559.58,535.45l-127.58-103.45c-.1.19,128.28,103.22,127.58,103.45h0Z"/>
    <path class="st3" d="M301.76,331.93l130.24,100.07c.1-.19-130.93-99.82-130.24-100.07h0Z"/>
    <path class="st3" d="M562.24,532.07l-130.24-100.07c-.1.19,130.93,99.82,130.24,100.07h0Z"/>
    <path class="st3" d="M299.18,335.37l132.82,96.63c.09-.19-133.5-96.36-132.82-96.63h0Z"/>
    <path class="st3" d="M564.82,528.63l-132.82-96.63c-.09.19,133.5,96.36,132.82,96.63h0Z"/>
    <path class="st3" d="M296.7,338.88l135.3,93.12c.09-.2-135.98-92.83-135.3-93.12h0Z"/>
    <path class="st3" d="M567.3,525.12l-135.3-93.12c-.09.2,135.98,92.83,135.3,93.12h0Z"/>
    <path class="st3" d="M294.31,342.46l137.69,89.55c.08-.2-138.36-89.24-137.69-89.55h0Z"/>
    <path class="st3" d="M569.69,521.55l-137.69-89.55c-.08.2,138.36,89.24,137.69,89.55h0Z"/>
    <path class="st3" d="M292.01,346.09l139.99,85.91c.08-.2-140.65-85.59-139.99-85.91h0Z"/>
    <path class="st3" d="M571.99,517.91l-139.99-85.91c-.08.2,140.65,85.59,139.99,85.91h0Z"/>
    <path class="st3" d="M289.81,349.79l142.19,82.22c.07-.2-142.84-81.88-142.19-82.22h0Z"/>
    <path class="st3" d="M574.19,514.22l-142.19-82.22c-.07.2,142.84,81.88,142.19,82.22h0Z"/>
    <path class="st3" d="M287.71,353.54l144.29,78.47c.07-.2-144.94-78.11-144.29-78.47h0Z"/>
    <path class="st3" d="M576.29,510.47l-144.29-78.47c-.07.2,144.94,78.11,144.29,78.47h0Z"/>
    <path class="st3" d="M285.7,357.34l146.3,74.66c.06-.21-146.93-74.29-146.3-74.66h0Z"/>
    <path class="st3" d="M578.3,506.66l-146.3-74.66c-.06.21,146.93,74.29,146.3,74.66h0Z"/>
    <path class="st3" d="M283.8,361.2l148.2,70.81c.06-.21-148.83-70.42-148.2-70.81h0Z"/>
    <path class="st3" d="M580.2,502.81l-148.2-70.81c-.06.21,148.83,70.42,148.2,70.81h0Z"/>
    <path class="st3" d="M282,365.1l150,66.9c.05-.21-150.62-66.5-150-66.9h0Z"/>
    <path class="st3" d="M582,498.91l-150-66.9c-.05.21,150.62,66.5,150,66.9h0Z"/>
    <path class="st3" d="M280.3,369.05l151.7,62.95c.04-.21-152.31-62.53-151.7-62.95h0Z"/>
    <path class="st3" d="M583.7,494.96l-151.7-62.95c-.04.21,152.31,62.53,151.7,62.95h0Z"/>
    <path class="st3" d="M278.7,373.04l153.3,58.96c.04-.21-153.89-58.53-153.3-58.96h0Z"/>
    <path class="st3" d="M585.3,490.96l-153.3-58.96c-.04.21,153.89,58.53,153.3,58.96h0Z"/>
    <path class="st3" d="M277.21,377.07l154.79,54.93c.03-.21-155.37-54.48-154.79-54.93h0Z"/>
    <path class="st3" d="M586.79,486.93l-154.79-54.93c-.03.21,155.37,54.48,154.79,54.93h0Z"/>
    <path class="st3" d="M275.82,381.15l156.18,50.86c.03-.21-156.75-50.39-156.18-50.86h0Z"/>
    <path class="st3" d="M588.18,482.86l-156.18-50.86c-.03.21,156.75,50.39,156.18,50.86h0Z"/>
    <path class="st3" d="M274.55,385.25l157.45,46.75c.02-.21-158.01-46.27-157.45-46.75h0Z"/>
    <path class="st3" d="M589.45,478.75l-157.45-46.75c-.02.21,158.01,46.27,157.45,46.75h0Z"/>
    <path class="st3" d="M273.38,389.39l158.62,42.61c.02-.21-159.17-42.12-158.62-42.61h0Z"/>
    <path class="st3" d="M590.62,474.62l-158.62-42.61c-.02.21,159.17,42.12,158.62,42.61h0Z"/>
    <path class="st3" d="M272.32,393.56l159.68,38.45c.01-.21-160.22-37.94-159.68-38.45h0Z"/>
    <path class="st3" d="M591.68,470.45l-159.68-38.45c-.01.21,160.22,37.94,159.68,38.45h0Z"/>
    <path class="st3" d="M271.36,397.75l160.64,34.25c0-.21-161.15-33.73-160.64-34.25h0Z"/>
    <path class="st3" d="M592.64,466.26l-160.64-34.25c0,.21,161.15,33.73,160.64,34.25h0Z"/>
    <path class="st3" d="M270.52,401.97l161.48,30.04c0-.21-161.98-29.5-161.48-30.04h0Z"/>
    <path class="st3" d="M593.48,462.04l-161.48-30.04c0,.21,161.98,29.5,161.48,30.04h0Z"/>
    <path class="st3" d="M269.79,406.2l162.21,25.8c0-.21-162.7-25.25-162.21-25.8h0Z"/>
    <path class="st3" d="M594.21,457.8l-162.21-25.8c0,.21,162.7,25.25,162.21,25.8h0Z"/>
    <path class="st3" d="M269.17,410.46l162.83,21.54c-.01-.21-163.3-20.98-162.83-21.54h0Z"/>
    <path class="st3" d="M594.83,453.55l-162.83-21.54c.01.21,163.3,20.98,162.83,21.54h0Z"/>
    <path class="st3" d="M268.66,414.73l163.34,17.27c-.02-.21-163.8-16.7-163.34-17.27h0Z"/>
    <path class="st3" d="M595.34,449.28l-163.34-17.27c.02.21,163.8,16.7,163.34,17.27h0Z"/>
    <path class="st3" d="M268.27,419.01l163.73,12.99c-.02-.21-164.18-12.41-163.73-12.99h0Z"/>
    <path class="st3" d="M595.73,445l-163.73-12.99c.02.21,164.18,12.41,163.73,12.99h0Z"/>
    <path class="st3" d="M267.98,423.3l164.02,8.7c-.03-.21-164.45-8.11-164.02-8.7h0Z"/>
    <path class="st3" d="M596.02,440.7l-164.02-8.7c.03.21,164.45,8.11,164.02,8.7h0Z"/>
    <path class="st3" d="M267.81,427.6l164.19,4.41c-.03-.21-164.6-3.8-164.19-4.41h0Z"/>
    <path class="st3" d="M596.19,436.41l-164.19-4.41c.03.21,164.6,3.8,164.19,4.41h0Z"/>
    <path class="st3" d="M267.75,431.9l164.25.11c-.04-.21-164.65.51-164.25-.11h0Z"/>
    <path class="st3" d="M596.25,432.11l-164.25-.11c.04.21,164.65-.51,164.25.11h0Z"/>
    <path class="st3" d="M267.81,436.19l164.19-4.19c-.04-.21-164.58,4.82-164.19,4.19h0Z"/>
    <path class="st3" d="M596.19,427.81l-164.19,4.19c.04.21,164.58-4.82,164.19-4.19h0Z"/>
    <path class="st3" d="M267.97,440.49l164.03-8.49c-.05-.21-164.39,9.13-164.03,8.49h0Z"/>
    <path class="st3" d="M596.03,423.51l-164.03,8.49c.05.21,164.39-9.13,164.03-8.49h0Z"/>
    <path class="st3" d="M268.25,444.78l163.75-12.78c-.06-.21-164.1,13.43-163.75,12.78h0Z"/>
    <path class="st3" d="M595.75,419.22l-163.75,12.78c.06.21,164.1-13.43,163.75-12.78h0Z"/>
    <path class="st3" d="M268.64,449.06l163.36-17.06c-.06-.21-163.69,17.72-163.36,17.06h0Z"/>
    <path class="st3" d="M595.36,414.94l-163.36,17.06c.06.21,163.69-17.72,163.36-17.06h0Z"/>
    <path class="st3" d="M269.14,453.33l162.86-21.33c-.07-.2-163.17,22-162.86,21.33h0Z"/>
    <path class="st3" d="M594.86,410.67l-162.86,21.33c.07.2,163.17-22,162.86-21.33h0Z"/>
    <path class="st3" d="M269.76,457.59l162.24-25.59c-.07-.2-162.54,26.26-162.24,25.59h0Z"/>
    <path class="st3" d="M594.24,406.41l-162.24,25.59c.07.2,162.54-26.26,162.24-25.59h0Z"/>
    <path class="st3" d="M270.48,461.83l161.52-29.83c-.08-.2-161.8,30.51-161.52,29.83h0Z"/>
    <path class="st3" d="M593.52,402.18l-161.52,29.83c.08.2,161.8-30.51,161.52-29.83h0Z"/>
    <path class="st3" d="M271.32,466.05l160.68-34.04c-.08-.2-160.94,34.73-160.68,34.04h0Z"/>
    <path class="st3" d="M592.68,397.96l-160.68,34.04c.08.2,160.94-34.73,160.68-34.04h0Z"/>
    <path class="st3" d="M272.27,470.24l159.73-38.24c-.09-.2-159.98,38.93-159.73,38.24h0Z"/>
    <path class="st3" d="M591.73,393.76l-159.73,38.24c.09.2,159.98-38.93,159.73-38.24h0Z"/>
    <path class="st3" d="M273.32,474.41l158.68-42.41c-.09-.19-158.9,43.11-158.68,42.41h0Z"/>
    <path class="st3" d="M590.68,389.59l-158.68,42.41c.09.19,158.9-43.11,158.68-42.41h0Z"/>
    <path class="st3" d="M274.49,478.55l157.51-46.55c-.1-.19-157.72,47.25-157.51,46.55h0Z"/>
    <path class="st3" d="M589.51,385.46l-157.51,46.55c.1.19,157.72-47.25,157.51-46.55h0Z"/>
    <path class="st3" d="M275.76,482.66l156.24-50.65c-.1-.19-156.43,51.37-156.24,50.65h0Z"/>
    <path class="st3" d="M588.24,381.35l-156.24,50.65c.1.19,156.43-51.37,156.24-50.65h0Z"/>
    <path class="st3" d="M277.14,486.73l154.86-54.73c-.11-.19-155.03,55.44-154.86,54.73h0Z"/>
    <path class="st3" d="M586.86,377.28l-154.86,54.73c.11.19,155.03-55.44,154.86-54.73h0Z"/>
    <path class="st3" d="M278.62,490.76l153.38-58.76c-.11-.18-153.53,59.48-153.38,58.76h0Z"/>
    <path class="st3" d="M585.38,373.24l-153.38,58.76c.11.18,153.53-59.48,153.38-58.76h0Z"/>
    <path class="st3" d="M280.21,494.76l151.79-62.76c-.12-.18-151.92,63.48-151.79,62.76h0Z"/>
    <path class="st3" d="M583.79,369.25l-151.79,62.76c.12.18,151.92-63.48,151.79-62.76h0Z"/>
    <path class="st3" d="M281.91,498.71l150.09-66.71c-.12-.18-150.2,67.44-150.09,66.71h0Z"/>
    <path class="st3" d="M582.09,365.29l-150.09,66.71c.12.18,150.2-67.44,150.09-66.71h0Z"/>
    <path class="st3" d="M283.71,502.62l148.29-70.61c-.13-.17-148.39,71.34-148.29,70.61h0Z"/>
    <path class="st3" d="M580.29,361.39l-148.29,70.61c.13.17,148.39-71.34,148.29-70.61h0Z"/>
    <path class="st3" d="M285.61,506.47l146.39-74.47c-.13-.17-146.47,75.2-146.39,74.47h0Z"/>
    <path class="st3" d="M578.39,357.53l-146.39,74.47c.13.17,146.47-75.2,146.39-74.47h0Z"/>
    <path class="st3" d="M287.61,510.28l144.39-78.28c-.13-.17-144.45,79.01-144.39,78.28h0Z"/>
    <path class="st3" d="M576.39,353.72l-144.39,78.28c.13.17,144.45-79.01,144.39-78.28h0Z"/>
    <path class="st3" d="M289.7,514.03l142.3-82.03c-.14-.16-142.33,82.77-142.3,82.03h0Z"/>
    <path class="st3" d="M574.3,349.97l-142.3,82.03c.14.16,142.33-82.77,142.3-82.03h0Z"/>
    <path class="st3" d="M291.9,517.73l140.1-85.73c-.14-.16-140.12,86.46-140.1,85.73h0Z"/>
    <path class="st3" d="M572.1,346.27l-140.1,85.73c.14.16,140.12-86.46,140.1-85.73h0Z"/>
    <path class="st3" d="M294.19,521.37l137.81-89.37c-.15-.16-137.81,90.1-137.81,89.37h0Z"/>
    <path class="st3" d="M569.81,342.64l-137.81,89.37c.15.16,137.81-90.1,137.81-89.37h0Z"/>
    <path class="st3" d="M296.58,524.94l135.42-92.94c-.15-.15-135.4,93.68-135.42,92.94h0Z"/>
    <path class="st3" d="M567.42,339.06l-135.42,92.94c.15.15,135.4-93.68,135.42-92.94h0Z"/>
    <path class="st3" d="M299.06,528.46l132.94-96.46c-.16-.15-132.9,97.19-132.94,96.46h0Z"/>
    <path class="st3" d="M564.94,335.55l-132.94,96.46c.16.15,132.9-97.19,132.94-96.46h0Z"/>
    <path class="st3" d="M301.63,531.9l130.37-99.9c-.16-.14-130.31,100.64-130.37,99.9h0Z"/>
    <path class="st3" d="M562.37,332.1l-130.37,99.9c.16.14,130.31-100.64,130.37-99.9h0Z"/>
    <path class="st3" d="M304.29,535.28l127.71-103.28c-.16-.14-127.63,104.01-127.71,103.28h0Z"/>
    <path class="st3" d="M559.71,328.72l-127.71,103.28c.16.14,127.63-104.01,127.71-103.28h0Z"/>
    <path class="st3" d="M307.04,538.59l124.96-106.59c-.17-.13-124.87,107.32-124.96,106.59h0Z"/>
    <path class="st3" d="M556.96,325.41l-124.96,106.59c.17.13,124.87-107.32,124.96-106.59h0Z"/>
    <path class="st3" d="M309.87,541.83l122.13-109.82c-.17-.13-122.01,110.55-122.13,109.82h0Z"/>
    <path class="st3" d="M554.13,322.18l-122.13,109.82c.17.13,122.01-110.55,122.13-109.82h0Z"/>
    <path class="st3" d="M312.79,544.98l119.21-112.98c-.17-.13-119.08,113.71-119.21,112.98h0Z"/>
    <path class="st3" d="M551.21,319.02l-119.21,112.98c.17.13,119.08-113.71,119.21-112.98h0Z"/>
    <path class="st3" d="M315.78,548.07l116.22-116.06c-.18-.12-116.06,116.78-116.22,116.06h0Z"/>
    <path class="st3" d="M548.22,315.94l-116.22,116.06c.18.12,116.06-116.78,116.22-116.06h0Z"/>
    <path class="st3" d="M318.86,551.07l113.14-119.07c-.18-.12-112.96,119.78-113.14,119.07h0Z"/>
    <path class="st3" d="M545.14,312.93l-113.14,119.07c.18.12,112.96-119.78,113.14-119.07h0Z"/>
    <path class="st3" d="M322.02,553.99l109.98-121.99c-.18-.11-109.79,122.7-109.98,121.99h0Z"/>
    <path class="st3" d="M541.98,310.01l-109.98,121.99c.18.11,109.79-122.7,109.98-121.99h0Z"/>
    <path class="st3" d="M325.25,556.83l106.75-124.83c-.19-.11-106.54,125.53-106.75,124.83h0Z"/>
    <path class="st3" d="M538.75,307.18l-106.75,124.83c.19.11,106.54-125.53,106.75-124.83h0Z"/>
    <path class="st3" d="M328.55,559.58l103.45-127.58c-.19-.1-103.22,128.28-103.45,127.58h0Z"/>
    <path class="st3" d="M535.45,304.43l-103.45,127.58c.19.1,103.22-128.28,103.45-127.58h0Z"/>
    <path class="st3" d="M331.93,562.24l100.07-130.24c-.19-.1-99.82,130.93-100.07,130.24h0Z"/>
    <path class="st3" d="M532.07,301.76l-100.07,130.24c.19.1,99.82-130.93,100.07-130.24h0Z"/>
    <path class="st3" d="M335.37,564.82l96.63-132.82c-.19-.09-96.36,133.5-96.63,132.82h0Z"/>
    <path class="st3" d="M528.63,299.19l-96.63,132.82c.19.09,96.36-133.5,96.63-132.82h0Z"/>
    <path class="st3" d="M338.88,567.3l93.12-135.3c-.2-.09-92.83,135.98-93.12,135.3h0Z"/>
    <path class="st3" d="M525.12,296.7l-93.12,135.3c.2.09,92.83-135.98,93.12-135.3h0Z"/>
    <path class="st3" d="M342.45,569.69l89.55-137.69c-.2-.08-89.24,138.36-89.55,137.69h0Z"/>
    <path class="st3" d="M521.55,294.31l-89.55,137.69c.2.08,89.24-138.36,89.55-137.69h0Z"/>
    <path class="st3" d="M346.09,571.99l85.91-139.99c-.2-.08-85.59,140.65-85.91,139.99h0Z"/>
    <path class="st3" d="M517.91,292.01l-85.91,139.99c.2.08,85.59-140.65,85.91-139.99h0Z"/>
    <path class="st3" d="M349.78,574.19l82.22-142.19c-.2-.07-81.88,142.84-82.22,142.19h0Z"/>
    <path class="st3" d="M514.22,289.81l-82.22,142.19c.2.07,81.88-142.84,82.22-142.19h0Z"/>
    <path class="st3" d="M353.53,576.29l78.47-144.29c-.2-.07-78.11,144.94-78.47,144.29h0Z"/>
    <path class="st3" d="M510.47,287.71l-78.47,144.29c.2.07,78.11-144.94,78.47-144.29h0Z"/>
    <path class="st3" d="M357.34,578.3l74.66-146.3c-.21-.06-74.29,146.93-74.66,146.3h0Z"/>
    <path class="st3" d="M506.66,285.71l-74.66,146.3c.21.06,74.29-146.93,74.66-146.3h0Z"/>
    <path class="st3" d="M361.19,580.2l70.81-148.2c-.21-.06-70.42,148.83-70.81,148.2h0Z"/>
    <path class="st3" d="M502.81,283.8l-70.81,148.2c.21.06,70.42-148.83,70.81-148.2h0Z"/>
    <path class="st3" d="M365.1,582.01l66.9-150c-.21-.05-66.5,150.62-66.9,150h0Z"/>
    <path class="st3" d="M498.9,282l-66.9,150c.21.05,66.5-150.62,66.9-150h0Z"/>
    <path class="st3" d="M369.05,583.71l62.95-151.7c-.21-.04-62.53,152.31-62.95,151.7h0Z"/>
    <path class="st3" d="M494.95,280.3l-62.95,151.7c.21.04,62.53-152.31,62.95-151.7h0Z"/>
    <path class="st3" d="M373.04,585.3l58.96-153.3c-.21-.04-58.53,153.89-58.96,153.3h0Z"/>
    <path class="st3" d="M490.96,278.7l-58.96,153.3c.21.04,58.53-153.89,58.96-153.3h0Z"/>
    <path class="st3" d="M377.07,586.79l54.93-154.79c-.21-.03-54.48,155.37-54.93,154.79h0Z"/>
    <path class="st3" d="M486.93,277.21l-54.93,154.79c.21.03,54.48-155.37,54.93-154.79h0Z"/>
    <path class="st3" d="M381.14,588.18l50.86-156.18c-.21-.03-50.39,156.75-50.86,156.18h0Z"/>
    <path class="st3" d="M482.86,275.83l-50.86,156.18c.21.03,50.39-156.75,50.86-156.18h0Z"/>
    <path class="st3" d="M385.25,589.46l46.75-157.45c-.21-.02-46.27,158.01-46.75,157.45h0Z"/>
    <path class="st3" d="M478.75,274.55l-46.75,157.45c.21.02,46.27-158.01,46.75-157.45h0Z"/>
    <path class="st3" d="M389.39,590.63l42.61-158.62c-.21-.02-42.12,159.17-42.61,158.62h0Z"/>
    <path class="st3" d="M474.61,273.38l-42.61,158.62c.21.02,42.12-159.17,42.61-158.62h0Z"/>
    <path class="st3" d="M393.55,591.69l38.45-159.68c-.21-.01-37.94,160.22-38.45,159.68h0Z"/>
    <path class="st3" d="M470.45,272.32l-38.45,159.68c.21.01,37.94-160.22,38.45-159.68h0Z"/>
    <path class="st3" d="M397.75,592.64l34.25-160.64c-.21,0-33.73,161.15-34.25,160.64h0Z"/>
    <path class="st3" d="M466.25,271.37l-34.25,160.64c.21,0,33.73-161.15,34.25-160.64h0Z"/>
    <path class="st3" d="M401.96,593.48l30.04-161.48c-.21,0-29.5,161.98-30.04,161.48h0Z"/>
    <path class="st3" d="M462.04,270.52l-30.04,161.48c.21,0,29.5-161.98,30.04-161.48h0Z"/>
    <path class="st3" d="M406.2,594.21l25.8-162.21c-.21,0-25.25,162.7-25.8,162.21h0Z"/>
    <path class="st3" d="M457.8,269.79l-25.8,162.21c.21,0,25.25-162.7,25.8-162.21h0Z"/>
    <path class="st3" d="M410.46,594.83l21.54-162.83c-.21.01-20.98,163.3-21.54,162.83h0Z"/>
    <path class="st3" d="M453.54,269.17l-21.54,162.83c.21-.01,20.98-163.3,21.54-162.83h0Z"/>
    <path class="st3" d="M414.73,595.34l17.27-163.34c-.21.02-16.7,163.8-17.27,163.34h0Z"/>
    <path class="st3" d="M449.27,268.67l-17.27,163.34c.21-.02,16.7-163.8,17.27-163.34h0Z"/>
    <path class="st3" d="M419.01,595.73l12.99-163.73c-.21.02-12.41,164.18-12.99,163.73h0Z"/>
    <path class="st3" d="M444.99,268.27l-12.99,163.73c.21-.02,12.41-164.18,12.99-163.73h0Z"/>
    <path class="st3" d="M423.3,596.02l8.7-164.02c-.21.03-8.11,164.45-8.7,164.02h0Z"/>
    <path class="st3" d="M440.7,267.99l-8.7,164.02c.21-.03,8.11-164.45,8.7-164.02h0Z"/>
    <path class="st3" d="M427.59,596.19l4.41-164.19c-.21.03-3.8,164.6-4.41,164.19h0Z"/>
    <path class="st3" d="M436.41,267.81l-4.41,164.19c.21-.03,3.8-164.6,4.41-164.19h0Z"/>
    <path class="st11" d="M432,316.85c-21.12,0-38.24-8.48-38.24-18.93s17.12-18.93,38.24-18.93"/>
    <path class="st11" d="M432,343.12c-38.24,0-69.23-16.23-69.23-36.26s31-36.26,69.23-36.26"/>
    <path class="st11" d="M432.01,371.66c-4.57.48-9.27.72-14.07.72-46,0-83.29-22.78-83.29-50.89s37.29-50.89,83.29-50.89c2.39,0,4.75.06,7.09.18"/>
    <path class="st11" d="M432,402.46c-8.25,1.62-16.96,2.48-25.96,2.48-52.57,0-95.19-29.52-95.19-65.93,0-31.5,31.89-57.84,74.53-64.38"/>
    <path class="st11" d="M371.95,432c-45.89-7.76-79.98-36.68-79.98-71.18,0-19.18,10.54-36.64,27.79-49.7"/>
    <path class="st11" d="M300.47,432c-15.55-15.22-24.85-34.56-24.85-55.61,0-3.59.08-5.83.61-9.31"/>
    <path class="st11" d="M432,403.1c-41.92,0-78.84,11.53-100.41,29.01"/>
    <path class="st11" d="M432,376.21c-61.47,0-114.21,23.05-136.79,55.9"/>
    <path class="st11" d="M432,349.99c-75.42,0-139.3,34.5-161,82.12"/>
    <path class="st11" d="M432,304.89c-90.51,0-163.88,47.42-163.88,105.92,0,1.03.02,2.05.07,3.07"/>
    <path class="st11" d="M432,288.53c-72.68,0-134.31,32.94-155.77,78.55"/>
    <path class="st11" d="M432,274.64c-43.34,0-82.62,13.33-111.2,34.91"/>
    <path class="st11" d="M432,325.24c-88.24,0-160.67,46.92-168.26,106.75"/>
    <g>
      <line class="st14" x1="276.61" y1="470.47" x2="277.59" y2="474.74"/>
      <line class="st14" x1="274.64" y1="461.92" x2="275.62" y2="466.19"/>
      <line class="st14" x1="344.81" y1="564.49" x2="340.54" y2="560.21"/>
      <line class="st14" x1="280.54" y1="487.56" x2="281.53" y2="491.83"/>
      <line class="st14" x1="353.36" y1="573.03" x2="349.09" y2="568.76"/>
      <line class="st14" x1="336.27" y1="555.94" x2="331.99" y2="551.66"/>
      <line class="st14" x1="278.58" y1="479.01" x2="279.56" y2="483.29"/>
      <line class="st14" x1="268.74" y1="436.28" x2="269.72" y2="440.55"/>
      <line class="st14" x1="272.67" y1="453.37" x2="273.66" y2="457.64"/>
      <line class="st14" x1="302.09" y1="521.75" x2="297.81" y2="517.48"/>
      <line class="st14" x1="282.51" y1="496.11" x2="283.5" y2="500.38"/>
      <line class="st14" x1="319.18" y1="538.84" x2="314.9" y2="534.57"/>
      <line class="st14" x1="270.7" y1="444.82" x2="271.69" y2="449.1"/>
      <line class="st14" x1="327.72" y1="547.39" x2="323.45" y2="543.12"/>
      <line class="st14" x1="310.63" y1="530.3" x2="306.36" y2="526.02"/>
      <line class="st14" x1="344.81" y1="564.49" x2="349.09" y2="568.76"/>
      <line class="st14" x1="336.27" y1="555.94" x2="340.54" y2="560.21"/>
      <line class="st14" x1="431.89" y1="596.66" x2="422.35" y2="594.4"/>
      <line class="st14" x1="327.72" y1="547.39" x2="331.99" y2="551.66"/>
      <line class="st14" x1="404.27" y1="590.13" x2="422.35" y2="594.4"/>
      <line class="st14" x1="353.36" y1="573.03" x2="357.63" y2="577.31"/>
      <line class="st14" x1="368.11" y1="581.58" x2="386.19" y2="585.85"/>
      <line class="st14" x1="404.27" y1="590.13" x2="386.19" y2="585.85"/>
      <line class="st14" x1="293.54" y1="513.2" x2="297.81" y2="517.48"/>
      <polyline class="st14" points="368.11 581.58 359.98 579.66 357.63 577.31"/>
      <line class="st14" x1="302.09" y1="521.75" x2="306.36" y2="526.02"/>
      <line class="st14" x1="310.63" y1="530.3" x2="314.9" y2="534.57"/>
      <line class="st14" x1="284.99" y1="504.65" x2="289.27" y2="508.93"/>
      <line class="st14" x1="319.18" y1="538.84" x2="323.45" y2="543.12"/>
      <line class="st14" x1="282.51" y1="496.11" x2="281.53" y2="491.83"/>
      <line class="st14" x1="274.64" y1="461.92" x2="273.66" y2="457.64"/>
      <line class="st14" x1="272.67" y1="453.37" x2="271.69" y2="449.1"/>
      <line class="st14" x1="280.54" y1="487.56" x2="279.56" y2="483.29"/>
      <polyline class="st14" points="284.99 504.65 284.33 503.99 283.5 500.38"/>
      <line class="st14" x1="270.7" y1="444.82" x2="269.72" y2="440.55"/>
      <line class="st14" x1="293.54" y1="513.2" x2="289.27" y2="508.93"/>
      <line class="st14" x1="276.61" y1="470.47" x2="275.62" y2="466.19"/>
      <line class="st14" x1="278.58" y1="479.01" x2="277.59" y2="474.74"/>
      <line class="st14" x1="267.75" y1="432" x2="268.74" y2="436.28"/>
      <line class="st14" x1="432" y1="432" x2="267.75" y2="432"/>
      <path class="st14" d="M268.74,436.28"/>
      <line class="st14" x1="268.74" y1="436.28" x2="432" y2="436.28"/>
      <path class="st14" d="M269.72,440.55"/>
      <line class="st14" x1="269.72" y1="440.55" x2="432" y2="440.55"/>
      <line class="st14" x1="432" y1="444.82" x2="270.7" y2="444.82"/>
      <path class="st14" d="M270.7,444.82"/>
      <line class="st14" x1="271.69" y1="449.1" x2="432" y2="449.1"/>
      <path class="st14" d="M271.69,449.1"/>
      <line class="st14" x1="432" y1="453.37" x2="272.67" y2="453.37"/>
      <path class="st14" d="M272.67,453.37"/>
      <path class="st14" d="M273.66,457.64"/>
      <line class="st14" x1="273.66" y1="457.64" x2="432" y2="457.64"/>
      <line class="st14" x1="432" y1="461.92" x2="274.64" y2="461.92"/>
      <path class="st14" d="M274.64,461.92"/>
      <path class="st14" d="M275.62,466.19"/>
      <line class="st14" x1="275.62" y1="466.19" x2="432" y2="466.19"/>
      <line class="st14" x1="432" y1="470.47" x2="276.61" y2="470.47"/>
      <path class="st14" d="M276.61,470.47"/>
      <path class="st14" d="M277.59,474.74"/>
      <line class="st14" x1="277.59" y1="474.74" x2="432" y2="474.74"/>
      <path class="st14" d="M278.58,479.01"/>
      <line class="st14" x1="432" y1="479.01" x2="278.58" y2="479.01"/>
      <line class="st14" x1="279.56" y1="483.29" x2="432" y2="483.29"/>
      <path class="st14" d="M279.56,483.29"/>
      <path class="st14" d="M280.54,487.56"/>
      <line class="st14" x1="432" y1="487.56" x2="280.54" y2="487.56"/>
      <path class="st14" d="M281.53,491.83"/>
      <line class="st14" x1="281.53" y1="491.83" x2="432" y2="491.83"/>
      <path class="st14" d="M282.51,496.11"/>
      <line class="st14" x1="432" y1="496.11" x2="282.51" y2="496.11"/>
      <line class="st14" x1="283.5" y1="500.38" x2="432" y2="500.38"/>
      <path class="st14" d="M283.5,500.38"/>
      <path class="st14" d="M284.99,504.65"/>
      <line class="st14" x1="432" y1="504.65" x2="284.99" y2="504.65"/>
      <path class="st14" d="M289.27,508.93"/>
      <line class="st14" x1="289.27" y1="508.93" x2="432" y2="508.93"/>
      <line class="st14" x1="432" y1="513.2" x2="293.54" y2="513.2"/>
      <path class="st14" d="M293.54,513.2"/>
      <path class="st14" d="M297.81,517.48"/>
      <line class="st14" x1="297.81" y1="517.48" x2="432" y2="517.48"/>
      <path class="st14" d="M302.09,521.75"/>
      <line class="st14" x1="432" y1="521.75" x2="302.09" y2="521.75"/>
      <line class="st14" x1="306.36" y1="526.02" x2="432" y2="526.02"/>
      <path class="st14" d="M306.36,526.02"/>
      <line class="st14" x1="432" y1="530.3" x2="310.63" y2="530.3"/>
      <path class="st14" d="M310.63,530.3"/>
      <line class="st14" x1="314.9" y1="534.57" x2="432" y2="534.57"/>
      <path class="st14" d="M314.9,534.57"/>
      <line class="st14" x1="432" y1="538.84" x2="319.18" y2="538.84"/>
      <path class="st14" d="M319.18,538.84"/>
      <path class="st14" d="M323.45,543.12"/>
      <line class="st14" x1="323.45" y1="543.12" x2="432" y2="543.12"/>
      <line class="st14" x1="432" y1="547.39" x2="327.72" y2="547.39"/>
      <path class="st14" d="M327.72,547.39"/>
      <path class="st14" d="M331.99,551.66"/>
      <line class="st14" x1="331.99" y1="551.66" x2="432" y2="551.66"/>
      <path class="st14" d="M336.27,555.94"/>
      <line class="st14" x1="432" y1="555.94" x2="336.27" y2="555.94"/>
      <line class="st14" x1="340.54" y1="560.21" x2="432" y2="560.21"/>
      <path class="st14" d="M340.54,560.21"/>
      <line class="st14" x1="432" y1="564.49" x2="344.81" y2="564.49"/>
      <path class="st14" d="M344.81,564.49"/>
      <path class="st14" d="M349.09,568.76"/>
      <line class="st14" x1="349.09" y1="568.76" x2="432" y2="568.76"/>
      <line class="st14" x1="432" y1="573.03" x2="353.36" y2="573.03"/>
      <path class="st14" d="M353.36,573.03"/>
      <path class="st14" d="M357.63,577.31"/>
      <line class="st14" x1="357.63" y1="577.31" x2="432" y2="577.31"/>
      <line class="st14" x1="432" y1="581.58" x2="368.11" y2="581.58"/>
      <path class="st14" d="M368.11,581.58"/>
      <line class="st14" x1="386.19" y1="585.85" x2="432" y2="585.85"/>
      <path class="st14" d="M386.19,585.85"/>
      <path class="st14" d="M404.27,590.13"/>
      <line class="st14" x1="432" y1="590.13" x2="404.27" y2="590.13"/>
      <path class="st14" d="M422.35,594.4"/>
      <line class="st14" x1="422.35" y1="594.4" x2="432" y2="594.4"/>
    </g>
    <line class="st14" x1="293.4" y1="568.97" x2="432.06" y2="431.89"/>
    <circle class="st13" cx="432" cy="432" r="165.24"/>
    <path class="st13" d="M432,456.42c20.43,0,79.73-7.71,102.24-23.48"/>
    <path class="st13" d="M432,482.06c49.06,0,117.18-18.06,142.04-49.95"/>
    <path class="st13" d="M432,505.61c72.98,0,138.42-24.75,161.86-73.61"/>
    <path class="st13" d="M432,528.46c55.83,0,141.25-16.39,164.48-80.49"/>
    <path class="st13" d="M432,548.73c75.98,0,133.7-30.4,155.54-60.81"/>
    <path class="st13" d="M432,566.14c52.05,0,111.02-18.25,143.21-51.65"/>
    <path class="st13" d="M432,579.77c52.37,0,84.15-11.63,118.86-32.98"/>
    <path class="st13" d="M431.89,590.26c27.94,0,65.82-5.7,81.91-14.65"/>
    <path class="st13" d="M458.57,432.11c3.39,45.19,9.65,137.8-5.12,163.75"/>
    <path class="st13" d="M492.44,432.11c16.26,52.75,17.33,121.16-4.95,155.58"/>
    <path class="st13" d="M527.47,432.11c18.98,43.83,17.3,109.69-5.79,138.7"/>
    <path class="st13" d="M560.72,432.11c9.75,24.97,13.32,78.65-2.33,106.34"/>
    <path class="st13" d="M585.57,432.11c3.84,8.07,5.52,51.9-1.44,64.49"/>
    <line class="st13" x1="612.69" y1="802.69" x2="432" y2="432"/>
    <line class="st13" x1="432" y1="432" x2="617.52" y2="617.52"/>
    <path class="st10" d="M460.46,432c0-15.72-12.74-28.46-28.46-28.46"/>
    <path class="st10" d="M493.73,432c0-34.09-27.64-61.73-61.73-61.73"/>
    <path class="st10" d="M524.61,432c0-51.15-41.46-92.61-92.61-92.61"/>
    <path class="st10" d="M557.61,432c0-69.37-56.24-125.61-125.61-125.61"/>
    <path class="st10" d="M589.63,432c0-87.06-70.57-157.63-157.63-157.63"/>
    <path class="st13" d="M460.46,432c6.29-14.23,1.89-72.57,11.15-152.61"/>
    <path class="st13" d="M493.73,432c-1.05-6.09,4.65-37.77,9.09-70.06,4.22-30.68,7.07-62.08,10.59-66.15"/>
    <path class="st13" d="M524.61,432c5.79-40.9,11.25-69.74,26.25-104.56"/>
    <path class="st13" d="M557.61,430.98c0-24.38,12.24-52.37,19.47-60.71"/>
    <path class="st13" d="M432,403.55c16.92-2.41,100.19-8.15,151.97-13.57"/>
    <path class="st13" d="M567.35,351.15c-12.38.07-114.86,19.12-135.35,19.12"/>
    <path class="st13" d="M432,339.39c20.87,0,94.94-18.7,103.54-26.25"/>
    <path class="st13" d="M432,306.39c18.28-.66,54.88-13.98,61.73-19.48"/>
    <line class="st10" x1="432" y1="19.91" x2="432" y2="844.07"/>
    <line class="st10" x1="19.92" y1="431.99" x2="844.08" y2="431.99"/>
    <line class="st13" x1="61.54" y1="251.31" x2="802.69" y2="251.31"/>
    <line class="st13" x1="251.31" y1="802.46" x2="251.31" y2="61.32"/>
    <line class="st13" x1="802.46" y1="612.69" x2="61.31" y2="612.69"/>
    <line class="st13" x1="612.69" y1="61.54" x2="612.69" y2="802.69"/>
    <line class="st13" x1="802.69" y1="251.31" x2="61.31" y2="612.69"/>
    <line class="st13" x1="432" y1="19.91" x2="844.08" y2="431.99"/>
    <line class="st13" x1="612.69" y1="61.54" x2="802.69" y2="251.31"/>
    <line class="st13" x1="19.92" y1="431.99" x2="432" y2="844.07"/>
    <line class="st13" x1="251.31" y1="802.46" x2="61.31" y2="612.69"/>
    <line class="st13" x1="612.69" y1="802.69" x2="61.54" y2="251.31"/>
    <line class="st13" x1="802.46" y1="612.69" x2="61.54" y2="251.31"/>
    <line class="st13" x1="251.31" y1="61.32" x2="802.46" y2="612.69"/>
    <line class="st13" x1="612.69" y1="61.54" x2="251.31" y2="802.46"/>
    <ellipse class="st6" cx="269.15" cy="352.57" rx="4.17" ry="4.04"/>
    <ellipse class="st6" cx="511.43" cy="269.15" rx="4.04" ry="4.17"/>
    <ellipse class="st6" cx="432.11" cy="400.67" rx="6.22" ry="6.43"/>
    <ellipse class="st6" cx="432.11" cy="374.34" rx="5.91" ry="6.11"/>
    <ellipse class="st6" cx="432.11" cy="348.86" rx="5.62" ry="5.8"/>
    <ellipse class="st6" cx="432.11" cy="324.95" rx="5.34" ry="5.51"/>
    <ellipse class="st6" cx="432.11" cy="304.6" rx="5.07" ry="5.24"/>
    <ellipse class="st6" cx="432.11" cy="287.61" rx="4.82" ry="4.98"/>
    <ellipse class="st6" cx="432.11" cy="272.2" rx="4.58" ry="4.73"/>
    <ellipse class="st6" cx="432.11" cy="251.31" rx="3.48" ry="3.6"/>
    <ellipse class="st6" cx="432" cy="143.7" rx="9.37" ry="9.68"/>
    <ellipse class="st6" cx="432" cy="719.87" rx="9.37" ry="9.68"/>
    <ellipse class="st6" cx="144.02" cy="431.89" rx="9.68" ry="9.37"/>
    <ellipse class="st6" cx="720.19" cy="431.68" rx="9.68" ry="9.37"/>
    <ellipse class="st8" cx="594.85" cy="352.57" rx="4.17" ry="4.04" transform="translate(-49.25 604.14) rotate(-51.99)"/>
    <ellipse class="st2" cx="613.17" cy="432.17" rx="4.17" ry="4.04" transform="translate(-127.31 312.02) rotate(-25.96)"/>
    <ellipse class="st6" cx="594.85" cy="511.43" rx="4.17" ry="4.04"/>
    <ellipse class="st5" cx="510.67" cy="595.17" rx="4.04" ry="4.17" transform="translate(-272.88 627.6) rotate(-51.74)"/>
    <ellipse class="st4" cx="432.55" cy="613.16" rx="4.04" ry="4.17" transform="translate(-226.08 253.62) rotate(-26.17)"/>
    <ellipse class="st6" cx="352.57" cy="594.85" rx="4.04" ry="4.17"/>
    <ellipse class="st8" cx="269.15" cy="511.36" rx="4.17" ry="4.04" transform="translate(-299.49 408.53) rotate(-51.99)"/>
    <ellipse class="st7" cx="250.84" cy="432.08" rx="4.17" ry="4.04" transform="translate(-164.22 153.98) rotate(-26.04)"/>
    <circle class="st3" cx="61.54" cy="251.31" r="3.82"/>
    <circle class="st3" cx="251.31" cy="61.32" r="3.83"/>
    <circle class="st3" cx="612.69" cy="61.54" r="3.82"/>
    <circle class="st3" cx="802.69" cy="251.31" r="3.82"/>
    <circle class="st3" cx="802.46" cy="612.69" r="3.82"/>
    <circle class="st3" cx="612.69" cy="802.69" r="3.82"/>
    <circle class="st3" cx="251.31" cy="802.46" r="3.82"/>
    <circle class="st3" cx="61.31" cy="612.68" r="3.82"/>
    <line class="st13" x1="43.23" y1="245.55" x2="56.21" y2="245.55"/>
    <line class="st13" x1="45.13" y1="250.14" x2="54.31" y2="240.96"/>
    <line class="st13" x1="54.31" y1="250.14" x2="45.13" y2="240.96"/>
    <g>
      <circle class="st13" cx="248.5" cy="50.52" r="3.09"/>
      <line class="st13" x1="245.41" y1="50.52" x2="233.81" y2="50.52"/>
      <line class="st13" x1="237.31" y1="46.9" x2="237.31" y2="58.5"/>
      <line class="st13" x1="240.16" y1="46.9" x2="240.16" y2="58.5"/>
      <line class="st13" x1="243.01" y1="46.9" x2="243.01" y2="58.5"/>
    </g>
    <g>
      <polyline class="st13" points="613.24 54.49 618.85 54.49 618.85 51.18"/>
      <polyline class="st13" points="624.46 54.49 618.85 54.49 618.85 51.18"/>
      <polyline class="st13" points="623.75 43.34 623.75 51.18 618.85 46.28 613.94 51.18 613.94 43.34"/>
    </g>
    <g>
      <ellipse class="st13" cx="814.46" cy="245.39" rx="1.94" ry="3.3"/>
      <polyline class="st13" points="814.46 242.09 814.46 240.36 809.74 240.36"/>
      <polyline class="st13" points="814.46 242.09 814.46 240.36 819.18 240.36"/>
      <polyline class="st13" points="819.18 243.08 819.18 248.7 817.08 250.79 814.46 250.79 811.84 250.79 809.74 248.7 809.74 243.08"/>
      <line class="st13" x1="814.46" y1="248.7" x2="814.46" y2="250.79"/>
    </g>
    <g>
      <rect class="st13" x="812.7" y="613.65" width="8.81" height="12.38"/>
      <ellipse class="st13" cx="817.11" cy="619.83" rx="8.29" ry="3.46"/>
    </g>
    <g>
      <line class="st13" x1="618.32" y1="808.27" x2="618.32" y2="819.7"/>
      <polyline class="st13" points="625.35 820.23 622.83 820.23 612.66 810.47"/>
      <line class="st13" x1="618.32" y1="815.9" x2="612.66" y2="815.9"/>
      <polyline class="st13" points="611.3 820.23 613.81 820.23 623.99 810.47"/>
      <line class="st13" x1="618.32" y1="815.9" x2="623.99" y2="815.9"/>
    </g>
    <g>
      <ellipse class="st13" cx="243.23" cy="816.98" rx="3.85" ry="5.13"/>
      <line class="st13" x1="238.46" y1="811.85" x2="248.15" y2="811.85"/>
      <polyline class="st13" points="243.23 816.98 245.65 816.98 250 816.98 250 814.52"/>
    </g>
    <g>
      <circle class="st13" cx="51.18" cy="618.92" r="3.33"/>
      <circle class="st13" cx="51.18" cy="618.92" r=".18"/>
      <polyline class="st13" points="47.86 618.74 45.44 618.74 45.44 614.57"/>
      <line class="st13" x1="42.55" y1="614.57" x2="48.09" y2="614.57"/>
      <polyline class="st13" points="47.86 618.74 45.44 618.74 45.44 614.57"/>
      <line class="st13" x1="42.55" y1="614.57" x2="48.09" y2="614.57"/>
      <polyline class="st13" points="47.86 619.1 45.44 619.1 45.44 623.27"/>
      <line class="st13" x1="42.55" y1="623.27" x2="48.09" y2="623.27"/>
    </g>
    <g>
      <line class="st13" x1="144.02" y1="425.72" x2="144.02" y2="437.62"/>
      <polyline class="st13" points="144.02 436.49 142.71 435.04 142.71 433.43 139.54 430.26 139.54 428.58"/>
      <polyline class="st13" points="144.02 427.19 142.35 428.85 142.35 429.6"/>
      <polyline class="st13" points="144.02 436.49 145.33 435.04 145.33 433.43 148.5 430.26 148.5 428.58"/>
      <polyline class="st13" points="144.02 427.19 145.68 428.85 145.68 429.6"/>
    </g>
    <g>
      <line class="st13" x1="427.36" y1="140.45" x2="436.64" y2="146.95"/>
      <line class="st13" x1="427.36" y1="146.95" x2="436.64" y2="140.45"/>
      <line class="st13" x1="432" y1="140.12" x2="432" y2="137.76"/>
      <polyline class="st13" points="427.36 144.85 427.36 146.95 429.46 146.95"/>
      <polyline class="st13" points="436.64 144.85 436.64 146.95 434.54 146.95"/>
    </g>
    <g>
      <line class="st13" x1="715.29" y1="426.78" x2="725.09" y2="436.59"/>
      <line class="st13" x1="715.29" y1="436.59" x2="725.09" y2="426.78"/>
    </g>
    <g>
      <polyline class="st13" points="427.02 716.14 428.93 716.14 428.93 723.01 430.52 724.6 432 724.6"/>
      <polyline class="st13" points="428.93 718.45 432 722.35 432 724.6"/>
      <polyline class="st13" points="436.98 716.14 435.07 716.14 435.07 723.01 433.48 724.6 432 724.6"/>
      <polyline class="st13" points="435.07 718.45 432 722.35 432 724.6"/>
    </g>
  </g>
</svg>