<?xml version="1.0" encoding="UTF-8"?><svg xmlns="http://www.w3.org/2000/svg" viewBox="0 0 864 864"><defs><style>.cls-1{fill:#010101;}.cls-2{fill:#fff;}.cls-3{stroke-width:.5px;}.cls-3,.cls-4,.cls-5{fill:none;}.cls-3,.cls-5{stroke:#fff;stroke-miterlimit:10;}.cls-5{stroke-width:.35px;}</style></defs><g id="Layer_3"><g id="BG"><rect class="cls-1" width="864" height="864"/></g></g><g id="Outer_04"><circle class="cls-4" cx="432" cy="435.21" r="262.37"/><path class="cls-3" d="M197.22,436.21c0-29.6,40.07-32.87,40.07-95.15,0-43.54,1.56-50.46,42.05-62.31,18.54-5.43,32.27-2.9,52.86-37.4,31.88-53.43,64.6-11.34,99.81-11.34,38.35-.24,33.22-14.35,63.03-12.36,26.32,1.75,29.87,29.96,39.31,34.45,17.03,8.1,43.97-.98,52.44,16.09,13.16,26.53-6.03,46.27,8.04,51.57,9.76,3.68,46.86-6.94,46.64,20.45s-9.5,32.25-2.43,54.78,30.92,38.5,21.87,61.77-32.91,17.54-38.65,51.1-14.36,70.26-18.33,85.48-18.66,3.37-34.84.13-45.48,18.5-55.68,33.03-19.97,34.63-55.61,31.1-34.24-11.26-69.39-21.2-66.23,25.84-75.64-8.61c-7.84-28.69,2.25-48.18-34.68-48.17-21.41,0-15.83-19.57-39.02-24.74-12.84-2.86-15.17-24.09-8.83-41.76,21.08-58.78-33.01-44.75-33.01-76.9Z"/><circle class="cls-4" cx="432" cy="435.21" r="262.37"/><circle class="cls-4" cx="432" cy="435.21" r="262.37"/><circle class="cls-4" cx="432" cy="435.21" r="262.37"/><circle class="cls-4" cx="432" cy="435.54" r="238.42"/></g><g id="Inner_04"><polyline class="cls-5" points="215.74 435.21 215.74 314.19 279.34 314.19 279.34 240.5 432 240.5"/><polyline class="cls-5" points="237.29 435.21 237.29 282.2 311.58 282.2 311.58 218.95 432 218.95"/><circle id="Move_Y:5.1003-5.9753" class="cls-2" cx="215.74" cy="402.91" r="1.69"/><circle id="Move_Y:4.3403-5.0347" class="cls-2" cx="215.74" cy="314.19" r="1.69"/><circle id="Move_Y:4.3961-5.9517" class="cls-2" cx="237.29" cy="340.21" r="1.69"/><circle id="Move_Y:3.896-4.2849" class="cls-2" cx="237.29" cy="282.2" r="1.69"/><circle id="Move_Y:3.5476-5.9226" class="cls-2" cx="251.31" cy="314.12" r="1.69"/><circle id="Move_Y:3.896-4.2849-2" class="cls-2" cx="279.65" cy="282.2" r="1.69"/><circle id="Move_Y:3.3168-3.8562" class="cls-2" cx="279.34" cy="240.5" r="1.69"/><circle id="Move_Y:3.8413-3.369" class="cls-2" cx="311.58" cy="266.26" r="1.69"/><circle id="Move_Y:3.0175-3.2536" class="cls-2" cx="311.58" cy="218.95" r="1.69"/><circle id="Move_X:3.3833-3.0361" class="cls-2" cx="237.29" cy="314.19" r="1.69"/><circle id="Move_X:4.3403-3.4396" class="cls-2" cx="279.34" cy="314.19" r="1.69"/><circle id="Move_X:4.304-3.9151" class="cls-2" cx="311.58" cy="282.2" r="1.69"/><circle id="Move_X:3.4837-5.8449" class="cls-2" cx="322.52" cy="254.52" r="1.69"/><circle id="Move_X:4.304-4.5124" class="cls-2" cx="311.58" cy="240.5" r="1.69"/><circle id="Move_X:4.5903-5.9097" class="cls-2" cx="332.19" cy="240.5" r="1.69"/><circle id="Move_X:4.4096-5.1179" class="cls-2" cx="351.18" cy="218.95" r="1.69"/><circle id="Move_X:5.1881-5.9013" class="cls-2" cx="385.23" cy="218.95" r="1.69"/><path d="M432,246.44c104.26,0,188.77,84.52,188.77,188.77,0,104.26-84.52,188.77-188.77,188.77s-188.77-84.52-188.77-188.77h-64.47c0,139.86,113.38,253.24,253.24,253.24s253.24-113.38,253.24-253.24-113.38-253.24-253.24-253.24v64.47Z"/></g></svg>