<?xml version="1.0" encoding="UTF-8"?>
<svg id="Layer_1" xmlns="http://www.w3.org/2000/svg" version="1.1" viewBox="0 0 864 864">
  <!-- Generator: Adobe Illustrator 30.1.0, SVG Export Plug-In . SVG Version: 2.1.1 Build 136)  -->
  <defs>
    <style>
      .st0 {
        fill: #010101;
      }

      .st1 {
        fill: #fff;
      }

      .st2 {
        stroke-width: .5px;
      }

      .st2, .st3, .st4 {
        fill: none;
      }

      .st2, .st4 {
        stroke: #fff;
        stroke-miterlimit: 10;
      }

      .st4 {
        stroke-width: .35px;
      }
    </style>
  </defs>
  <rect id="BG" class="st0" width="864" height="864"/>
  <g id="Outer_x5F_04">
    <circle class="st3" cx="432" cy="432" r="262.37"/>
    <path class="st2" d="M197.22,433c0-29.6,40.07-32.87,40.07-95.15,0-43.54,1.56-50.46,42.05-62.31,18.54-5.43,32.27-2.9,52.86-37.4,31.88-53.43,64.6-11.34,99.81-11.34,38.35-.24,33.22-14.35,63.03-12.36,26.32,1.75,29.87,29.96,39.31,34.45,17.03,8.1,43.97-.98,52.44,16.09,13.16,26.53-6.03,46.27,8.04,51.57,9.76,3.68,46.86-6.94,46.64,20.45s-9.5,32.25-2.43,54.78,30.92,38.5,21.87,61.77-32.91,17.54-38.65,51.1c-5.74,33.56-14.36,70.26-18.33,85.48s-18.66,3.37-34.84.13-45.48,18.5-55.68,33.03-19.97,34.63-55.61,31.1-34.24-11.26-69.39-21.2-66.23,25.84-75.64-8.61c-7.84-28.69,2.25-48.18-34.68-48.17-21.41,0-15.83-19.57-39.02-24.74-12.84-2.86-15.17-24.09-8.83-41.76,21.08-58.78-33.01-44.75-33.01-76.9h0Z"/>
    <circle class="st3" cx="432" cy="432" r="262.37"/>
    <circle class="st3" cx="432" cy="432" r="262.37"/>
    <circle class="st3" cx="432" cy="432" r="262.37"/>
    <circle class="st3" cx="432" cy="432.33" r="238.42"/>
  </g>
  <g id="Inner_x5F_04">
    <polyline class="st4" points="215.74 432 215.74 310.98 279.34 310.98 279.34 237.29 432 237.29"/>
    <polyline class="st4" points="237.29 432 237.29 278.99 311.58 278.99 311.58 215.74 432 215.74"/>
    <circle id="Move_x5F_Y:5.1003-5.9753" class="st1" cx="215.74" cy="399.7" r="1.69"/>
    <circle id="Move_x5F_Y:4.3403-5.0347" class="st1" cx="215.74" cy="310.98" r="1.69"/>
    <circle id="Move_x5F_Y:4.3961-5.9517" class="st1" cx="237.29" cy="337" r="1.69"/>
    <circle id="Move_x5F_Y:3.896-4.2849" class="st1" cx="237.29" cy="278.99" r="1.69"/>
    <circle id="Move_x5F_Y:3.5476-5.9226" class="st1" cx="251.31" cy="310.91" r="1.69"/>
    <circle id="Move_x5F_Y:3.896-4.28491" class="st1" cx="279.65" cy="278.99" r="1.69"/>
    <circle id="Move_x5F_Y:3.3168-3.8562" class="st1" cx="279.34" cy="237.29" r="1.69"/>
    <circle id="Move_x5F_Y:3.8413-3.369" class="st1" cx="311.58" cy="263.05" r="1.69"/>
    <circle id="Move_x5F_Y:3.0175-3.2536" class="st1" cx="311.58" cy="215.74" r="1.69"/>
    <circle id="Move_x5F_X:3.3833-3.0361" class="st1" cx="237.29" cy="310.98" r="1.69"/>
    <circle id="Move_x5F_X:4.3403-3.4396" class="st1" cx="279.34" cy="310.98" r="1.69"/>
    <circle id="Move_x5F_X:4.304-3.9151" class="st1" cx="311.58" cy="278.99" r="1.69"/>
    <circle id="Move_x5F_X:3.4837-5.8449" class="st1" cx="322.52" cy="251.31" r="1.69"/>
    <circle id="Move_x5F_X:4.304-4.5124" class="st1" cx="311.58" cy="237.29" r="1.69"/>
    <circle id="Move_x5F_X:4.5903-5.9097" class="st1" cx="332.19" cy="237.29" r="1.69"/>
    <circle id="Move_x5F_X:4.4096-5.1179" class="st1" cx="351.18" cy="215.74" r="1.69"/>
    <circle id="Move_x5F_X:5.1881-5.9013" class="st1" cx="385.23" cy="215.74" r="1.69"/>
    <path d="M432,243.23c104.26,0,188.77,84.52,188.77,188.77s-84.52,188.77-188.77,188.77-188.77-84.52-188.77-188.77h-64.47c0,139.86,113.38,253.24,253.24,253.24s253.24-113.38,253.24-253.24-113.38-253.24-253.24-253.24v64.47h0Z"/>
  </g>
  <circle cx="432" cy="432.01" r="191.45"/>
</svg>