<?xml version="1.0" encoding="UTF-8"?><svg id="Layer_2" xmlns="http://www.w3.org/2000/svg" viewBox="0 0 142.06 142.06"><defs><style>.cls-1{fill:#fff;}</style></defs><path class="cls-1" d="M141.54,70.16c-6.73-.72-13.45-1.33-20.18-1.84-1.35-25.68-21.94-46.26-47.63-47.61-.5-6.73-1.11-13.46-1.83-20.18-.08-.7-1.67-.7-1.74,0-.72,6.72-1.33,13.45-1.84,20.18-11.88.62-22.67,5.36-30.97,12.82-5.12-4.41-10.3-8.73-15.56-12.97-.55-.44-1.67.69-1.24,1.23,4.24,5.26,8.57,10.45,12.97,15.57-7.46,8.3-12.2,19.08-12.82,30.96-6.73.51-13.45,1.12-20.18,1.84-.69.08-.69,1.67,0,1.75,6.73.72,13.45,1.33,20.18,1.83,1.35,25.68,21.94,46.27,47.62,47.62.51,6.73,1.12,13.46,1.84,20.18.07.7,1.67.7,1.74,0,.72-6.72,1.33-13.45,1.83-20.18,11.88-.62,22.67-5.36,30.97-12.82,5.12,4.4,10.31,8.72,15.57,12.97.54.44,1.67-.69,1.23-1.23-4.24-5.26-8.57-10.45-12.96-15.57,7.46-8.3,12.2-19.09,12.82-30.97,6.73-.5,13.45-1.11,20.18-1.83.69-.08.69-1.67,0-1.75ZM36.47,40.76c7.65,8.79,15.53,17.37,23.64,25.74-11.64.19-23.28.68-34.91,1.48.68-10.4,4.82-19.85,11.27-27.22ZM52.2,101.62v-12.16h-12.15c-5.74,0-13.64-3.72-14.8-15.4,13.72.95,27.45,1.47,41.18,1.57.09,13.74.61,27.46,1.56,41.17-11.73-1.21-15.79-9.45-15.79-15.18ZM66.51,60.11c-8.37-8.1-16.95-15.98-25.74-23.64,7.37-6.46,16.82-10.6,27.22-11.28-.8,11.63-1.3,23.28-1.48,34.92ZM89.85,40.43v12.16h12.16c5.73,0,13.63,3.72,14.8,15.39-13.72-.94-27.45-1.46-41.18-1.56-.09-13.75-.61-27.49-1.56-41.22,11.97,1.08,15.78,9.44,15.78,15.23ZM74.06,116.86c.81-11.63,1.31-23.27,1.49-34.92,8.36,8.1,16.94,15.98,25.74,23.64-7.37,6.47-16.82,10.6-27.23,11.28ZM105.58,101.3c-7.65-8.8-15.53-17.38-23.64-25.74,11.64-.19,23.29-.68,34.92-1.49-.68,10.4-4.82,19.86-11.28,27.23Z"/></svg>