<?xml version="1.0" encoding="UTF-8"?>
<svg id="Layer_1" xmlns="http://www.w3.org/2000/svg" version="1.1" viewBox="0 0 864 864">
  <!-- Generator: Adobe Illustrator 29.8.1, SVG Export Plug-In . SVG Version: 2.1.1 Build 2)  -->
  <path d="M166.72,71.92c46.11-1.64,80.68,26.85,118.7,48.2,4.04,2.27,22.09,10.69,23.51,13.21,2.49,4.45,1.52,31.14,1.46,38.04-.51,56.68-1.71,114.7,0,171.3,1.31,43.56,6.14,76.02,41.82,105.07,81.32,66.23,196.14,13.74,201.66-88.69l-.06-220.36c.12-2.47.9-5.06,2.72-6.8,56.67-31.31,114.28-80.11,182.75-50.75,58.44,25.06,91.46,86.61,76.48,149.46-13.7,57.47-65.01,77.19-106.79,110.14-88.18,69.53-134.76,164.86-149.62,275.38-6.56,48.75-2.67,96.54-37.46,135.94-47,53.24-137.14,52.4-182.27-2.76-34.43-42.09-28.76-91.5-36.18-141.98-16.91-115.04-68.97-208.44-162.9-277.07-24.33-17.78-53.15-32.66-71.51-57.02-60.54-80.28-1.36-197.78,97.68-201.3Z"/>
  <path d="M428.56,135.15c32.1-1.15,61.98,16.22,76.68,44.64,11.19,21.63,8.04,40.99,8.44,64.32.67,38.58,2.58,80.58.02,118.96-5.44,81.53-119.48,101.82-155.31,28.82-13.98-28.47-8.27-78.89-8.16-111.21.08-23.62-2.18-49.92.34-73.23,4.35-40.14,37.54-70.86,77.98-72.3Z"/>
</svg>