<?xml version="1.0" encoding="UTF-8"?><svg xmlns="http://www.w3.org/2000/svg" viewBox="0 0 144 144"><defs><style>.cls-1{fill:#a171b1;}.cls-2{opacity:0;}.cls-3{fill:#252b1f;}.cls-4{fill:#5ca76b;}</style></defs><g id="Layer_2"><rect class="cls-2" width="144" height="144"/></g><g id="Layer_1"><rect class="cls-2" x="0" width="144" height="144"/><polygon class="cls-3" points="72.27 13.77 16.28 54.45 37.67 120.27 106.87 120.27 128.26 54.45 72.27 13.77"/><path class="cls-1" d="M72,109.87c20.92,0,37.87-16.95,37.87-37.87,0-20.92-16.95-37.87-37.87-37.87-20.92,0-37.87,16.95-37.87,37.87,0,20.92,16.95,37.87,37.87,37.87ZM84.45,102.34c-2.08.95-4.28,1.61-6.58,1.99-2.27.43-4.47.54-6.79.54-2.3-.05-4.64-.38-6.93-1.02-2.27-.64-4.57-1.75-6.46-3.03-3.88-2.56-7.22-6.01-9.47-10.13-2.27-4.14-3.31-8.78-3.36-13.28s.76-8.99,2.65-13.09c.99-2.01,2.25-3.91,3.81-5.47,1.59-1.56,3.5-2.75,5.54-3.38-1.73,1.23-3.17,2.75-4.26,4.43-1.07,1.7-1.87,3.53-2.34,5.47-1.07,3.81-1.14,7.86-.69,11.74.47,3.88,1.63,7.57,3.6,10.72,1.94,3.17,4.66,5.89,7.81,7.93,1.61,1.07,3.12,1.82,4.9,2.37,1.73.57,3.57.88,5.47,1.02,1.87.14,3.91.12,5.8-.09,1.89-.19,3.76-.54,5.61-1.16,7.41-2.34,13.92-7.79,18.7-14.77-2.51,8.14-8.64,15.5-16.99,19.22ZM58.08,72c0-7.69,6.22-13.92,13.92-13.92,7.69,0,13.92,6.22,13.92,13.92s-6.22,13.92-13.92,13.92c-7.69,0-13.92-6.22-13.92-13.92ZM60.71,42.7c2.08-.95,4.28-1.61,6.58-1.99,2.27-.43,4.47-.54,6.79-.54,2.3.05,4.64.38,6.93,1.02,2.27.64,4.57,1.75,6.46,3.03,3.88,2.56,7.22,6.01,9.47,10.13,2.27,4.14,3.31,8.78,3.36,13.28.05,4.5-.76,8.99-2.65,13.09-.99,2.01-2.25,3.91-3.81,5.47-1.59,1.56-3.5,2.75-5.54,3.38,1.73-1.23,3.17-2.75,4.26-4.43,1.07-1.7,1.87-3.53,2.34-5.47,1.07-3.81,1.14-7.86.69-11.74-.47-3.88-1.63-7.57-3.6-10.72-1.94-3.17-4.66-5.89-7.81-7.93-1.61-1.07-3.12-1.82-4.9-2.37-1.73-.57-3.57-.88-5.47-1.02-1.87-.14-3.91-.12-5.8.09-1.89.19-3.76.54-5.61,1.16-7.41,2.34-13.92,7.79-18.7,14.77,2.49-8.12,8.62-15.48,16.99-19.22Z"/><polygon class="cls-4" points="104.55 35.74 104.55 24.65 72.27 1.2 39.99 24.65 39.99 35.74 72 13.11 104.55 35.74"/><path class="cls-4" d="M132.29,52.8l-22.93,70.56H35.18S12.25,52.8,12.25,52.8L72.27,9.2l60.02,43.6ZM104.81,117.09l20.1-61.89-52.64-38.25L19.63,55.2l20.11,61.89h65.07Z"/></g></svg>