<?xml version="1.0" encoding="UTF-8"?><svg id="Layer_1" xmlns="http://www.w3.org/2000/svg" viewBox="0 0 144 144"><defs><style>.cls-1{fill:#be2c36;}.cls-2{opacity:0;}.cls-3{fill:#252b1f;}.cls-4{fill:#5ca76b;}</style></defs><rect class="cls-2" width="144" height="144"/><polygon class="cls-3" points="72.27 13.1 16.28 53.78 37.67 119.59 106.87 119.59 128.26 53.78 72.27 13.1"/><polygon class="cls-4" points="104.55 35.07 104.55 23.98 72.27 .52 39.99 23.98 39.99 35.07 72 12.44 104.55 35.07"/><path class="cls-4" d="M124.91,54.52l-52.64-38.24L19.63,54.52l20.11,61.89h65.07s20.1-61.89,20.1-61.89ZM72.27,8.52l60.02,43.61-22.93,70.55H35.18S12.25,52.13,12.25,52.13L72.27,8.52Z"/><path class="cls-1" d="M62.1,110.71h6.07v-15.09h-8.58c-6.3,0-11.41-5.11-11.41-11.41s5.11-11.41,11.41-11.41h8.58v-39.49h-6.07v18.88c0,4.53-1.58,8.81-7.45,10.84s-16.81,9.17-16.81,21.19,9.74,21.76,21.76,21.76h2.51v4.75Z"/><path class="cls-1" d="M81.9,110.71h-6.07v-15.09h8.58c6.3,0,11.41-5.11,11.41-11.41s-5.11-11.41-11.41-11.41h-8.58v-39.49h6.07v18.88c0,4.53,1.58,8.81,7.45,10.84s16.81,9.17,16.81,21.19-9.74,21.76-21.76,21.76h-2.51v4.75Z"/></svg>