<?xml version="1.0" encoding="UTF-8"?><svg xmlns="http://www.w3.org/2000/svg" viewBox="0 0 144 144.08"><defs><style>.cls-1{fill:#c23d27;}.cls-2{fill:#b76d9b;}.cls-3{opacity:0;}.cls-4{fill:#2f1718;}.cls-5{fill:#493838;}</style></defs><g id="Layer_2"><rect class="cls-3" y=".04" width="144" height="144"/></g><g id="Layer_1"><rect class="cls-3" x="0" width="144" height="144"/><polygon class="cls-4" points="72.27 131.51 128.26 90.83 106.87 25.01 37.67 25.01 16.28 90.83 72.27 131.51"/><g id="layer1"><path id="path252" class="cls-5" d="M47.61,103.92l18.75-2.37"/><path id="path264" class="cls-2" d="M47.59,103.95l22.93-63.89-4.13,61.52s-9.01.47-18.8,2.37Z"/><path id="path268" class="cls-2" d="M38.39,91.22l27.25-47.32s-14.71,1.73-23.69,15.97c-8.98,14.23-4.76,27.66-3.56,31.35h0Z"/><path id="path529" class="cls-2" d="M96.15,103.95l-22.93-63.89,4.13,61.52s9.01.47,18.8,2.37Z"/><path id="path531" class="cls-2" d="M105.61,91.22l-27.25-47.32s14.71,1.73,23.69,15.97c8.98,14.23,4.76,27.66,3.56,31.35h0Z"/><path id="path594" class="cls-5" d="M47.61,103.92l18.75-2.37"/><path id="path638" class="cls-5" d="M47.62,103.92l18.76-2.37"/><path id="path650" class="cls-5" d="M47.62,103.92l18.76-2.37"/><path id="path662" class="cls-5" d="M47.62,103.92l18.76-2.37"/><path id="path674" class="cls-5" d="M47.62,103.92l18.76-2.37"/><path id="path686" class="cls-5" d="M47.62,103.92l18.76-2.37"/><path id="path698" class="cls-5" d="M47.62,103.92l18.76-2.37"/></g><polygon class="cls-1" points="39.99 109.54 39.99 120.63 72.27 144.08 104.55 120.63 104.55 109.54 72.54 132.17 39.99 109.54"/><path class="cls-1" d="M72.27,128.32l52.64-38.24-20.11-61.89H39.73l-20.1,61.89,52.64,38.24ZM132.29,92.47l-60.02,43.61L12.25,92.47,35.18,21.92h74.18l22.93,70.55Z"/></g></svg>