<?xml version="1.0" encoding="UTF-8"?><svg xmlns="http://www.w3.org/2000/svg" viewBox="0 0 144 144"><defs><style>.cls-1{fill:#487ea2;}.cls-2{fill:#86b2cd;}.cls-3{opacity:0;}.cls-4{fill:#1f3b47;}</style></defs><g id="Layer_2"><rect class="cls-3" width="144" height="144"/></g><g id="Layer_1"><rect class="cls-3" x="0" width="144" height="144"/><polygon class="cls-4" points="131.14 71.97 90.46 15.98 24.64 37.37 24.64 106.57 90.46 127.96 131.14 71.97"/><polygon class="cls-1" points="109.17 104.25 120.26 104.25 143.71 71.97 120.26 39.68 109.17 39.68 131.8 71.7 109.17 104.25"/><path class="cls-1" d="M92.1,11.95l43.61,60.02-43.61,60.02-70.55-22.93V34.88S92.1,11.95,92.1,11.95ZM89.71,19.33l-61.89,20.11v65.07s61.89,20.1,61.89,20.1l38.24-52.64-38.24-52.64Z"/><path class="cls-2" d="M72.11,60.59c14.88.14,14.59,23.22-.44,22.78-14.75-.43-14.17-22.92.44-22.78Z"/><path class="cls-2" d="M77.58,85.4c3.71-1.12,6.2-4.24,7.95-7.54l17.72,25.38-25.67-17.85Z"/><path class="cls-2" d="M66.42,58.61c-2.17.52-4.21,2.29-5.7,3.93l-2.39,3.88-17.58-25.66,25.67,17.85h0Z"/><path class="cls-2" d="M103.25,40.76l-17.58,25.66-3.48-5.03c-1.43-.99-2.84-2.54-4.61-2.79l25.67-17.85h0Z"/><polygon class="cls-2" points="40.75 103.24 58.47 77.86 62.09 82.89 66.42 85.67 40.75 103.24"/><path class="cls-2" d="M49.68,86.78l-.58-.17c-5.59-8.79-5.64-20.7.17-29.4l4.04,5.73c-2.5,6-2.55,12.12,0,18.1l-3.64,5.74h0Z"/><path class="cls-2" d="M94.87,86.78c-.64.16-.46-.13-.63-.35-.46-.58-3.52-5.06-3.55-5.38,2.55-5.99,2.5-12.1,0-18.1l3.77-5.73c.53-.12.36.17.5.35,1.03,1.36,2.16,4,2.71,5.64,2.69,8.03,1.5,16.38-2.8,23.58h0Z"/><path class="cls-2" d="M62.72,53.27l-5.5-4c8.84-5.83,20.72-5.83,29.56,0l-5.72,4.06c-3.42-1.27-6.88-2.23-10.59-1.96-2.7.2-5.21,1.32-7.75,1.91h0Z"/><path class="cls-2" d="M57.22,94.74l5.78-4c6,2.49,12.01,2.49,18.01,0l5.78,4c-5.34,3.5-11.54,4.85-17.91,4.24-4.11-.39-8.19-2.07-11.65-4.24Z"/></g></svg>