<?xml version="1.0" encoding="UTF-8"?><svg xmlns="http://www.w3.org/2000/svg" viewBox="0 0 144 144"><defs><style>.cls-1{opacity:0;}.cls-2{fill:#252b1f;}.cls-3{fill:#5ca76b;}.cls-4{fill:#98cc9e;}</style></defs><g id="Layer_2"><rect class="cls-1" width="144" height="144"/></g><g id="Layer_1"><rect class="cls-1" x="0" width="144" height="144"/><polygon class="cls-2" points="72.27 13.1 16.28 53.78 37.67 119.59 106.87 119.59 128.26 53.78 72.27 13.1"/><polygon class="cls-3" points="104.55 35.07 104.55 23.98 72.27 .52 39.99 23.98 39.99 35.07 72 12.44 104.55 35.07"/><path class="cls-3" d="M124.91,54.52l-52.64-38.24L19.63,54.52l20.11,61.89h65.07s20.1-61.89,20.1-61.89ZM72.27,8.52l60.02,43.61-22.93,70.55H35.18S12.25,52.13,12.25,52.13L72.27,8.52Z"/><path class="cls-4" d="M72.11,60.59c14.88.14,14.59,23.22-.44,22.78-14.75-.43-14.17-22.92.44-22.78Z"/><path class="cls-4" d="M77.58,85.4c3.71-1.12,6.2-4.24,7.95-7.54l17.72,25.38-25.67-17.85Z"/><path class="cls-4" d="M66.42,58.61c-2.17.52-4.21,2.29-5.7,3.93l-2.39,3.88-17.58-25.66,25.67,17.85h0Z"/><path class="cls-4" d="M103.25,40.76l-17.58,25.66-3.48-5.03c-1.43-.99-2.84-2.54-4.61-2.79l25.67-17.85h0Z"/><polygon class="cls-4" points="40.75 103.24 58.47 77.86 62.09 82.89 66.42 85.67 40.75 103.24"/><path class="cls-4" d="M49.68,86.78l-.58-.17c-5.59-8.79-5.64-20.7.17-29.4l4.04,5.73c-2.5,6-2.55,12.12,0,18.1l-3.64,5.74h0Z"/><path class="cls-4" d="M94.87,86.78c-.64.16-.46-.13-.63-.35-.46-.58-3.52-5.06-3.55-5.38,2.55-5.99,2.5-12.1,0-18.1l3.77-5.73c.53-.12.36.17.5.35,1.03,1.36,2.16,4,2.71,5.64,2.69,8.03,1.5,16.38-2.8,23.58h0Z"/><path class="cls-4" d="M62.72,53.27l-5.5-4c8.84-5.83,20.72-5.83,29.56,0l-5.72,4.06c-3.42-1.27-6.88-2.23-10.59-1.96-2.7.2-5.21,1.32-7.75,1.91h0Z"/><path class="cls-4" d="M57.22,94.74l5.78-4c6,2.49,12.01,2.49,18.01,0l5.78,4c-5.34,3.5-11.54,4.85-17.91,4.24-4.11-.39-8.19-2.07-11.65-4.24Z"/></g></svg>