<?xml version="1.0" encoding="UTF-8"?><svg xmlns="http://www.w3.org/2000/svg" viewBox="0 0 144 144"><defs><style>.cls-1{opacity:0;}.cls-2{fill:#252b1f;}.cls-3{fill:#ee6624;}.cls-4{fill:#5ca76b;}</style></defs><g id="Layer_2"><rect class="cls-1" width="144" height="144"/></g><g id="Layer_1"><rect class="cls-1" x="0" width="144" height="144"/><polygon class="cls-2" points="72.27 13.1 16.28 53.78 37.67 119.59 106.87 119.59 128.26 53.78 72.27 13.1"/><path class="cls-3" d="M72.27,30.09c.12.19.65.96.91,1.39,6.93,11.42,14.43,22.48,21.72,33.66,2.97,4.55,5.69,9.24,7.12,14.57,2.53,9.42.31,17.58-6.42,24.57-3.42,3.55-7.35,6.32-12,8-.37.15-.81.26-1.27.31h-.02c1.76-1.07,3.27-2.17,4.7-3.37l-.06.05c7.89-6.87,9.46-16.31,4.21-25.38-4.84-8.37-10.35-16.31-15.58-24.43-1.07-1.64-2.11-3.3-3.18-4.97-.14.08-.3.12-.35.21-6.15,9.81-12.89,19.23-18.67,29.27-3.74,6.5-4.26,13.13-.41,19.79,2.01,3.46,4.89,6.1,8.29,8.16.34.2.76.29,1.03.8-3.5-1.07-6.54-2.69-9.19-4.76l.06.05c-4.93-3.81-8.88-8.36-10.68-14.47-1.93-6.53-.78-12.78,1.87-18.85,2.54-5.83,6.24-10.98,9.73-16.24,5.97-8.97,11.83-18.01,17.47-27.19.21-.35.53-.81.73-1.15h0Z"/><path class="cls-3" d="M72.27,72.94c2.08,3.53,4.03,6.8,5.95,10.09,1.66,2.84,3.39,5.65,4.79,8.63,2.43,5.2.96,10.54-3.85,14.17-4.41,3.33-10.02,3.17-14.26-.41-4.67-3.93-5.78-9.22-2.93-14.61,3.12-5.9,6.63-11.58,10.02-17.32.07-.11.12-.24.27-.54Z"/><polygon class="cls-4" points="104.55 35.07 104.55 23.98 72.27 .52 39.99 23.98 39.99 35.07 72 12.44 104.55 35.07"/><path class="cls-4" d="M132.29,52.13l-22.93,70.56H35.18S12.25,52.13,12.25,52.13L72.27,8.53l60.02,43.6ZM104.81,116.42l20.1-61.89-52.64-38.25L19.63,54.53l20.11,61.89h65.07Z"/></g></svg>