<?xml version="1.0" encoding="UTF-8"?><svg id="Layer_1" xmlns="http://www.w3.org/2000/svg" viewBox="0 0 144 144"><defs><style>.cls-1{opacity:0;}.cls-2{fill:#252b1f;}.cls-3{fill:#5ca76b;}.cls-4{fill:#e36679;}</style></defs><rect class="cls-1" width="144" height="144"/><polygon class="cls-2" points="72.27 13.1 16.28 53.78 37.67 119.59 106.87 119.59 128.26 53.78 72.27 13.1"/><polygon class="cls-3" points="104.55 35.07 104.55 23.98 72.27 .52 39.99 23.98 39.99 35.07 72 12.44 104.55 35.07"/><path class="cls-3" d="M124.91,54.52l-52.64-38.24L19.63,54.52l20.11,61.89h65.07s20.1-61.89,20.1-61.89ZM72.27,8.52l60.02,43.61-22.93,70.55H35.18S12.25,52.13,12.25,52.13L72.27,8.52Z"/><path class="cls-4" d="M69.91,30.02v64.75l-18.22-31.65,12.23-.28.9-23.89c-15.08,3.38-26.37,17.17-26.37,33.65s10.65,29.46,25.06,33.32c-17.14-3.87-29.95-19.19-29.95-37.5,0-20.54,16.09-37.31,36.36-38.4Z"/><path class="cls-4" d="M74.09,30.02v64.75l18.22-31.65-12.23-.28-.9-23.89c15.08,3.38,26.37,17.17,26.37,33.65s-10.65,29.46-25.06,33.32c17.14-3.87,29.95-19.19,29.95-37.5,0-20.54-16.09-37.31-36.36-38.4Z"/><polygon class="cls-4" points="72 113.98 78.54 98.49 72 104.95 65.46 98.49 72 113.98"/></svg>