<?xml version="1.0" encoding="UTF-8"?><svg id="Layer_1" xmlns="http://www.w3.org/2000/svg" viewBox="0 0 144 144"><defs><style>.cls-1{fill:#f7943f;}.cls-2{fill:#c23d27;}.cls-3{opacity:0;}.cls-4{fill:#2f1718;}</style></defs><rect class="cls-3" width="144" height="144"/><polygon class="cls-4" points="72.27 130.84 128.26 90.16 106.87 24.34 37.67 24.34 16.28 90.16 72.27 130.84"/><polygon class="cls-2" points="39.99 108.86 39.99 119.96 72.27 143.41 104.55 119.96 104.55 108.86 72.54 131.49 39.99 108.86"/><path class="cls-2" d="M39.73,27.53l-20.1,61.88,52.64,38.25,52.64-38.25-20.11-61.88H39.73ZM72.27,135.42L12.25,91.81,35.18,21.25h74.18s22.93,70.56,22.93,70.56l-60.02,43.61Z"/><path class="cls-1" d="M74.78,63.35v17.73h19.16v5.55h-19.16v27.18h-5.55v-50.49l-18.09-.09v16.99h-5.55v-17.02l-13.1-.06.03-5.55,34.19.17-15.85-12.62c-4.1-3.26-1.79-9.85,3.44-9.85h35.4c5.23,0,7.54,6.6,3.45,9.85l-15.92,12.67,34.28.17-.02,5.55-36.71-.18Z"/></svg>