<?xml version="1.0" encoding="UTF-8"?><svg id="Layer_1" xmlns="http://www.w3.org/2000/svg" viewBox="0 0 144 144"><defs><style>.cls-1{fill:#c23d27;}.cls-2{opacity:0;}.cls-3{fill:#e36679;}.cls-4{fill:#2f1718;}</style></defs><rect class="cls-2" width="144" height="144"/><polygon class="cls-4" points="72.27 130.84 128.26 90.16 106.87 24.34 37.67 24.34 16.28 90.16 72.27 130.84"/><polygon class="cls-1" points="39.99 108.86 39.99 119.96 72.27 143.41 104.55 119.96 104.55 108.86 72.54 131.49 39.99 108.86"/><path class="cls-1" d="M12.25,91.81L35.18,21.25h74.18s22.93,70.56,22.93,70.56l-60.02,43.61L12.25,91.81ZM39.73,27.53l-20.1,61.88,52.64,38.25,52.64-38.25-20.11-61.88H39.73Z"/><path class="cls-3" d="M69.91,30.02v64.75l-18.22-31.65,12.23-.28.9-23.89c-15.08,3.38-26.37,17.17-26.37,33.65s10.65,29.46,25.06,33.32c-17.14-3.87-29.95-19.19-29.95-37.5,0-20.54,16.09-37.31,36.36-38.4Z"/><path class="cls-3" d="M74.09,30.02v64.75l18.22-31.65-12.23-.28-.9-23.89c15.08,3.38,26.37,17.17,26.37,33.65s-10.65,29.46-25.06,33.32c17.14-3.87,29.95-19.19,29.95-37.5,0-20.54-16.09-37.31-36.36-38.4Z"/><polygon class="cls-3" points="72 113.98 78.54 98.49 72 104.95 65.46 98.49 72 113.98"/></svg>