<?xml version="1.0" encoding="UTF-8"?><svg id="Layer_1" xmlns="http://www.w3.org/2000/svg" viewBox="0 0 144 144"><defs><style>.cls-1{fill:#be2c36;}.cls-2{fill:#c23d27;}.cls-3{opacity:0;}.cls-4{fill:#2f1718;}</style></defs><rect class="cls-3" width="144" height="144"/><polygon class="cls-4" points="72.27 130.84 128.26 90.16 106.87 24.34 37.67 24.34 16.28 90.16 72.27 130.84"/><polygon class="cls-2" points="39.99 108.86 39.99 119.96 72.27 143.41 104.55 119.96 104.55 108.86 72.54 131.49 39.99 108.86"/><path class="cls-2" d="M39.73,27.53l-20.1,61.88,52.64,38.25,52.64-38.25-20.11-61.88H39.73ZM72.27,135.42L12.25,91.81,35.18,21.25h74.18s22.93,70.56,22.93,70.56l-60.02,43.61Z"/><path class="cls-1" d="M62.1,110.71h6.07v-15.09h-8.58c-6.3,0-11.41-5.11-11.41-11.41s5.11-11.41,11.41-11.41h8.58v-39.49h-6.07v18.88c0,4.53-1.58,8.81-7.45,10.84s-16.81,9.17-16.81,21.19,9.74,21.76,21.76,21.76h2.51v4.75Z"/><path class="cls-1" d="M81.9,110.71h-6.07v-15.09h8.58c6.3,0,11.41-5.11,11.41-11.41s-5.11-11.41-11.41-11.41h-8.58v-39.49h6.07v18.88c0,4.53,1.58,8.81,7.45,10.84s16.81,9.17,16.81,21.19-9.74,21.76-21.76,21.76h-2.51v4.75Z"/></svg>