<?xml version="1.0" encoding="UTF-8"?><svg xmlns="http://www.w3.org/2000/svg" viewBox="0 0 144 144"><defs><style>.cls-1{fill:#c23d27;}.cls-2{fill:#7cbce7;}.cls-3{opacity:0;}.cls-4{fill:#2f1718;}</style></defs><g id="Layer_2"><rect class="cls-3" width="144" height="144"/></g><g id="Layer_1"><rect class="cls-3" x="0" width="144" height="144"/><polygon class="cls-4" points="72.27 130.84 128.26 90.16 106.87 24.34 37.67 24.34 16.28 90.16 72.27 130.84"/><polygon class="cls-1" points="39.99 108.86 39.99 119.96 72.27 143.41 104.55 119.96 104.55 108.86 72.54 131.49 39.99 108.86"/><path class="cls-1" d="M39.73,27.53l-20.1,61.88,52.64,38.25,52.64-38.25-20.11-61.88H39.73ZM72.27,135.42L12.25,91.81,35.18,21.25h74.18s22.93,70.56,22.93,70.56l-60.02,43.61Z"/><path class="cls-2" d="M74,40.59v11.19c0,2.71.28,2.9,2.6,1.62,5.21-2.86,10.41-5.74,15.6-8.62,1.48-.82,3.12-1.11,4.77-1.33,2.44-.33,4.88-.65,7.48-.57-.32.64-.89.89-1.28,1.28-2.32,2.22-4.69,4.39-7,6.62-3.64,3.51-7.25,7.06-10.89,10.58-.51.5-.41.71.17,1.01,4.06,2.11,7.98,4.49,12.15,6.37,2.41,1.08,4.11,2.89,5.58,5.03-.44.26-.81.16-1.17.16-3.51,0-7.02-.02-10.53,0-1.91,0-2.18.42-1.28,2.06,2.88,5.28,5.76,10.56,8.72,15.8.92,1.63,1.26,3.37,1.51,5.16.34,2.42.68,4.86.53,7.49-1.15-1.2-2.19-2.27-3.21-3.37-5.01-5.38-10.1-10.68-15.26-15.91-.64-.64-.84-.47-1.2.22-2.15,4.16-4.58,8.18-6.54,12.44-1.02,2.22-2.88,3.66-4.79,5.08-.29-.43-.17-.8-.17-1.15v-10.64c0-1.94-.33-2.17-2.02-1.24-5.31,2.9-10.61,5.82-15.91,8.76-1.49.83-3.1,1.18-4.74,1.4-2.04.27-4.1.44-6.16.64-.42.04-.86,0-1.45,0,.56-.94,1.28-1.46,1.9-2.04,5.7-5.31,11.32-10.71,16.86-16.18.72-.72.65-1-.22-1.46-4.12-2.15-8.11-4.56-12.34-6.49-2.01-.91-3.41-2.56-4.71-4.27-.12-.16-.34-.35-.19-.58.14-.23.47-.15.71-.15,3.51,0,7.02,0,10.53,0,.41,0,.81-.02,1.22-.02.9,0,1.13-.46.74-1.22-.92-1.77-1.86-3.53-2.83-5.27-2.15-3.91-4.33-7.81-6.48-11.73-1.11-2.03-1.23-4.31-1.53-6.53-.19-1.2-.29-2.59-.29-4.01,0-.4,0-.79.02-1.19v.06c.88.76,1.94,1.57,2.88,2.52,1.66,1.68,3.21,3.47,4.85,5.16,3.55,3.67,7.12,7.3,10.66,10.97.6.62.89.67,1.33-.16,2.07-3.99,4.42-7.85,6.26-11.97,1.02-2.32,2.83-3.96,5.08-5.53h0ZM71.96,77.92c.19-.17.37-.29.52-.44,1.7-1.7,3.38-3.41,5.1-5.08.51-.5.41-.81-.05-1.26-1.66-1.63-3.31-3.27-4.93-4.94-.44-.46-.74-.56-1.24-.04-1.67,1.73-3.37,3.42-5.1,5.1-.39.38-.47.62-.03,1.05,1.75,1.7,3.46,3.44,5.18,5.16.17.14.34.27.54.45h0Z"/></g></svg>