<?xml version="1.0" encoding="UTF-8"?><svg id="Layer_1" xmlns="http://www.w3.org/2000/svg" viewBox="0 0 144 144"><defs><style>.cls-1{fill:#be2c36;}.cls-2{fill:#487ea2;}.cls-3{opacity:0;}.cls-4{fill:#1f3b47;}</style></defs><rect class="cls-3" width="144" height="144"/><polygon class="cls-4" points="131.14 71.97 90.46 15.98 24.64 37.37 24.64 106.57 90.46 127.96 131.14 71.97"/><polygon class="cls-2" points="109.17 104.25 120.26 104.25 143.71 71.97 120.26 39.68 109.17 39.68 131.8 71.7 109.17 104.25"/><path class="cls-2" d="M92.1,11.95l43.61,60.02-43.61,60.02-70.55-22.93V34.88S92.1,11.95,92.1,11.95ZM89.71,19.33l-61.89,20.11v65.07s61.89,20.1,61.89,20.1l38.24-52.64-38.24-52.64Z"/><path class="cls-1" d="M62.1,110.71h6.07v-15.09h-8.58c-6.3,0-11.41-5.11-11.41-11.41s5.11-11.41,11.41-11.41h8.58v-39.49h-6.07v18.88c0,4.53-1.58,8.81-7.45,10.84s-16.81,9.17-16.81,21.19,9.74,21.76,21.76,21.76h2.51v4.75Z"/><path class="cls-1" d="M81.9,110.71h-6.07v-15.09h8.58c6.3,0,11.41-5.11,11.41-11.41s-5.11-11.41-11.41-11.41h-8.58v-39.49h6.07v18.88c0,4.53,1.58,8.81,7.45,10.84s16.81,9.17,16.81,21.19-9.74,21.76-21.76,21.76h-2.51v4.75Z"/></svg>