<?xml version="1.0" encoding="UTF-8"?><svg xmlns="http://www.w3.org/2000/svg" viewBox="0 0 144 144"><defs><style>.cls-1{fill:#99742b;}.cls-2{opacity:0;}.cls-3{fill:#476798;}.cls-4{fill:#382915;}</style></defs><g id="Layer_2"><rect class="cls-2" width="144" height="144"/></g><g id="Layer_1"><rect class="cls-2" x="0" width="144" height="144"/><polygon class="cls-4" points="131.14 72.64 90.46 16.65 24.64 38.04 24.64 107.24 90.46 128.63 131.14 72.64"/><path class="cls-3" d="M75.92,107.41c-.77,1.28-3.99,5.89-5.14,5.89-.27,0-.92-.31-1.07-.54l-8.15-11.85-20.68-30.73c-1.44-2.14-2.74-4.53-3.88-6.69-.16-.31-.1-1.16.07-1.46,1.33-2.27,2.9-4.64,4.47-6.83l9.16-12.76c1.72-2.39,3.21-4.74,5.2-6.91.52-.57,1.24-.63,1.84-.21,1.8,1.72,3.16,3.53,4.65,5.54,4.49,6.04,9.2,11.7,14.1,17.54l-.09,33.68-.2,11.11-.28,4.2Z"/><path class="cls-3" d="M107.14,64.85c-.48,1.91-11.71,17.96-13.07,17.02-.97-.67-2.11-1.56-2.82-2.47l-9.19-11.86c-.11-2.46.1-4.72.11-7.17l.06-20.81c0-.82.11-8.92,1.08-8.75,1.08.19,8.13,10.57,9.29,12.29l8.53,12.66,6,9.08Z"/><polygon class="cls-1" points="109.17 104.92 120.26 104.92 143.71 72.64 120.26 40.36 109.17 40.36 131.8 72.37 109.17 104.92"/><path class="cls-1" d="M92.11,132.66l-70.56-22.93V35.55S92.11,12.62,92.11,12.62l43.6,60.02-43.6,60.02ZM27.82,105.18l61.89,20.1,38.25-52.64-38.25-52.64-61.89,20.11v65.07Z"/></g></svg>