<?xml version="1.0" encoding="UTF-8"?><svg xmlns="http://www.w3.org/2000/svg" viewBox="0 0 144 144"><defs><style>.cls-1{fill:#b76d9b;}.cls-2{opacity:0;}.cls-3{fill:#252b1f;}.cls-4{fill:#5ca76b;}.cls-5{fill:#493838;}</style></defs><g id="Layer_2"><rect class="cls-2" width="144" height="144"/></g><g id="Layer_1"><polygon class="cls-3" points="72.27 14.44 16.28 55.12 37.67 120.94 106.87 120.94 128.26 55.12 72.27 14.44"/><g id="layer1"><path id="path252" class="cls-5" d="M47.61,103.92l18.75-2.37"/><path id="path264" class="cls-1" d="M47.59,103.95l22.93-63.89-4.13,61.52s-9.01.47-18.8,2.37Z"/><path id="path268" class="cls-1" d="M38.39,91.22l27.25-47.32s-14.71,1.73-23.69,15.97c-8.98,14.23-4.76,27.66-3.56,31.35h0Z"/><path id="path529" class="cls-1" d="M96.15,103.95l-22.93-63.89,4.13,61.52s9.01.47,18.8,2.37Z"/><path id="path531" class="cls-1" d="M105.61,91.22l-27.25-47.32s14.71,1.73,23.69,15.97c8.98,14.23,4.76,27.66,3.56,31.35h0Z"/><path id="path594" class="cls-5" d="M47.61,103.92l18.75-2.37"/><path id="path638" class="cls-5" d="M47.62,103.92l18.76-2.37"/><path id="path650" class="cls-5" d="M47.62,103.92l18.76-2.37"/><path id="path662" class="cls-5" d="M47.62,103.92l18.76-2.37"/><path id="path674" class="cls-5" d="M47.62,103.92l18.76-2.37"/><path id="path686" class="cls-5" d="M47.62,103.92l18.76-2.37"/><path id="path698" class="cls-5" d="M47.62,103.92l18.76-2.37"/></g><polygon class="cls-4" points="104.55 36.41 104.55 25.32 72.27 1.87 39.99 25.32 39.99 36.41 72 13.79 104.55 36.41"/><path class="cls-4" d="M132.28,53.47l-22.92,70.56H35.17L12.25,53.47,72.27,9.86l60.01,43.61ZM104.8,117.75l20.11-61.88-52.64-38.25L19.62,55.87l20.11,61.88h65.07Z"/></g></svg>