<?xml version="1.0" encoding="UTF-8"?><svg xmlns="http://www.w3.org/2000/svg" viewBox="0 0 144 144"><defs><style>.cls-1{opacity:0;}.cls-2{fill:#252b1f;}.cls-3{fill:#5ca76b;}.cls-4{fill:#64bd5f;}</style></defs><g id="Layer_2"><rect class="cls-1" width="144" height="144"/></g><g id="Layer_1"><rect class="cls-1" x="0" width="144" height="144"/><polygon class="cls-2" points="72.27 13.77 16.28 54.45 37.67 120.27 106.87 120.27 128.26 54.45 72.27 13.77"/><path class="cls-4" d="M78.48,64.72c3.52-3.04,3.48-8.03.17-10.95-2.25-1.98-4.34-3.88-6.7-5.69l-6.6,5.68c-3.34,2.87-3.26,7.93.03,10.82.73.65,1.43,1.13,2.2,2.03l-8.88,7.76c-2.01-1.27-3.35-2.78-5.14-4.22-6.69-5.66-7-15.92-.3-21.71l18.69-16.15,18.78,16.16c6.72,5.78,6.43,16.01-.3,21.71l-29.65,25.58c-4.71,4.06-5.6,10.27-2.59,15.97-2.03-.87-3.19-2.31-4.75-3.64-6.67-5.69-6.76-15.9-.06-21.68l25.1-21.67Z"/><path class="cls-4" d="M85.87,111.61c5.14-11.74-2.18-15.15-9.5-21.86l9.01-7.82c1.98,1.57,3.69,3.06,5.51,4.71,6.12,5.56,6.25,14.92.46,20.75-1.88,1.34-2.87,3.15-5.49,4.23Z"/><polygon class="cls-3" points="104.55 35.74 104.55 24.65 72.27 1.2 39.99 24.65 39.99 35.74 72 13.11 104.55 35.74"/><path class="cls-3" d="M132.29,52.8l-22.93,70.56H35.18S12.25,52.8,12.25,52.8L72.27,9.2l60.02,43.6ZM104.81,117.09l20.1-61.89-52.64-38.25L19.63,55.2l20.11,61.89h65.07Z"/></g></svg>