<?xml version="1.0" encoding="UTF-8"?><svg id="Layer_1" xmlns="http://www.w3.org/2000/svg" viewBox="0 0 144 144"><defs><style>.cls-1{fill:#99742b;}.cls-2{opacity:0;}.cls-3{fill:#e36679;}.cls-4{fill:#382915;}</style></defs><rect class="cls-2" width="144" height="144"/><polygon class="cls-4" points="131.14 71.97 90.46 15.98 24.64 37.37 24.64 106.57 90.46 127.96 131.14 71.97"/><polygon class="cls-1" points="109.17 104.25 120.26 104.25 143.71 71.97 120.26 39.68 109.17 39.68 131.8 71.7 109.17 104.25"/><path class="cls-1" d="M92.11,131.99l-70.56-22.92V34.88S92.11,11.95,92.11,11.95l43.6,60.02-43.6,60.02ZM27.83,104.51l61.88,20.11,38.25-52.65-38.25-52.64-61.88,20.11v65.07Z"/><path class="cls-3" d="M69.91,30.02v64.75l-18.22-31.65,12.23-.28.9-23.89c-15.08,3.38-26.37,17.17-26.37,33.65s10.65,29.46,25.06,33.32c-17.14-3.87-29.95-19.19-29.95-37.5,0-20.54,16.09-37.31,36.36-38.4Z"/><path class="cls-3" d="M74.09,30.02v64.75l18.22-31.65-12.23-.28-.9-23.89c15.08,3.38,26.37,17.17,26.37,33.65s-10.65,29.46-25.06,33.32c17.14-3.87,29.95-19.19,29.95-37.5,0-20.54-16.09-37.31-36.36-38.4Z"/><polygon class="cls-3" points="72 113.98 78.54 98.49 72 104.95 65.46 98.49 72 113.98"/></svg>