<?xml version="1.0" encoding="UTF-8"?><svg xmlns="http://www.w3.org/2000/svg" viewBox="0 0 144 144"><defs><style>.cls-1{fill:#487ea2;}.cls-2{fill:#b76d9b;}.cls-3{opacity:0;}.cls-4{fill:#1f3b47;}.cls-5{fill:#493838;}</style></defs><g id="Layer_2"><rect class="cls-3" width="144" height="144"/></g><g id="Layer_1"><rect class="cls-3" x="0" width="144" height="144"/><polygon class="cls-4" points="131.14 72.64 90.46 16.65 24.64 38.04 24.64 107.24 90.46 128.63 131.14 72.64"/><g id="layer1"><path id="path252" class="cls-5" d="M47.61,103.92l18.75-2.37"/><path id="path264" class="cls-2" d="M47.59,103.95l22.93-63.89-4.13,61.52s-9.01.47-18.8,2.37Z"/><path id="path268" class="cls-2" d="M38.39,91.22l27.25-47.32s-14.71,1.73-23.69,15.97c-8.98,14.23-4.76,27.66-3.56,31.35h0Z"/><path id="path529" class="cls-2" d="M96.15,103.95l-22.93-63.89,4.13,61.52s9.01.47,18.8,2.37Z"/><path id="path531" class="cls-2" d="M105.61,91.22l-27.25-47.32s14.71,1.73,23.69,15.97c8.98,14.23,4.76,27.66,3.56,31.35h0Z"/><path id="path594" class="cls-5" d="M47.61,103.92l18.75-2.37"/><path id="path638" class="cls-5" d="M47.62,103.92l18.76-2.37"/><path id="path650" class="cls-5" d="M47.62,103.92l18.76-2.37"/><path id="path662" class="cls-5" d="M47.62,103.92l18.76-2.37"/><path id="path674" class="cls-5" d="M47.62,103.92l18.76-2.37"/><path id="path686" class="cls-5" d="M47.62,103.92l18.76-2.37"/><path id="path698" class="cls-5" d="M47.62,103.92l18.76-2.37"/></g><polygon class="cls-1" points="109.17 104.92 120.26 104.92 143.71 72.64 120.26 40.36 109.17 40.36 131.8 72.37 109.17 104.92"/><path class="cls-1" d="M92.11,132.66l-70.56-22.93V35.55S92.11,12.62,92.11,12.62l43.6,60.02-43.6,60.02ZM27.82,105.18l61.89,20.1,38.25-52.64-38.25-52.64-61.89,20.11v65.07Z"/></g></svg>