<?xml version="1.0" encoding="UTF-8"?><svg id="Layer_1" xmlns="http://www.w3.org/2000/svg" viewBox="0 0 144 144"><defs><style>.cls-1{fill:#f7943f;}.cls-2{fill:#99742b;}.cls-3{opacity:0;}.cls-4{fill:#382915;}</style></defs><rect class="cls-3" width="144" height="144"/><polygon class="cls-4" points="131.14 71.97 90.46 15.98 24.64 37.37 24.64 106.57 90.46 127.96 131.14 71.97"/><polygon class="cls-2" points="109.17 104.25 120.26 104.25 143.71 71.97 120.26 39.68 109.17 39.68 131.8 71.7 109.17 104.25"/><path class="cls-2" d="M92.11,131.99l-70.56-22.92V34.88S92.11,11.95,92.11,11.95l43.6,60.02-43.6,60.02ZM27.83,104.51l61.88,20.11,38.25-52.65-38.25-52.64-61.88,20.11v65.07Z"/><path class="cls-1" d="M74.78,63.35v17.73h19.16v5.55h-19.16v27.18h-5.55v-50.49l-18.09-.09v16.99h-5.55v-17.02l-13.1-.06.03-5.55,34.19.17-15.85-12.62c-4.1-3.26-1.79-9.85,3.44-9.85h35.4c5.23,0,7.54,6.6,3.45,9.85l-15.92,12.67,34.28.17-.02,5.55-36.71-.18Z"/></svg>