<?xml version="1.0" encoding="UTF-8"?><svg id="Layer_1" xmlns="http://www.w3.org/2000/svg" viewBox="0 0 144 144"><defs><style>.cls-1{fill:#f7943f;}.cls-2{opacity:0;}.cls-3{fill:#252b1f;}.cls-4{fill:#5ca76b;}</style></defs><rect class="cls-2" width="144" height="144"/><polygon class="cls-3" points="72.27 13.1 16.28 53.78 37.67 119.59 106.87 119.59 128.26 53.78 72.27 13.1"/><polygon class="cls-4" points="104.55 35.07 104.55 23.98 72.27 .52 39.99 23.98 39.99 35.07 72 12.44 104.55 35.07"/><path class="cls-4" d="M124.91,54.52l-52.64-38.24L19.63,54.52l20.11,61.89h65.07s20.1-61.89,20.1-61.89ZM72.27,8.52l60.02,43.61-22.93,70.55H35.18S12.25,52.13,12.25,52.13L72.27,8.52Z"/><path class="cls-1" d="M74.78,63.35v17.73h19.16v5.55h-19.16v27.18h-5.55v-50.49l-18.09-.09v16.99h-5.55v-17.02l-13.1-.06.03-5.55,34.19.17-15.85-12.62c-4.1-3.26-1.79-9.85,3.44-9.85h35.4c5.23,0,7.54,6.6,3.45,9.85l-15.92,12.67,34.28.17-.02,5.55-36.71-.18Z"/></svg>