<?xml version="1.0" encoding="UTF-8"?><svg xmlns="http://www.w3.org/2000/svg" viewBox="0 0 144 144"><defs><style>.cls-1{fill:#c23d27;}.cls-2{opacity:0;}.cls-3{fill:#c68778;}.cls-4{fill:#2f1718;}</style></defs><g id="Layer_2"><rect class="cls-2" width="144" height="144"/></g><g id="Layer_1"><rect class="cls-2" x="0" width="144" height="144"/><polygon class="cls-4" points="72.27 130.84 128.26 90.16 106.87 24.34 37.67 24.34 16.28 90.16 72.27 130.84"/><polygon class="cls-1" points="39.99 108.86 39.99 119.96 72.27 143.41 104.55 119.96 104.55 108.86 72.54 131.49 39.99 108.86"/><path class="cls-1" d="M39.73,27.53l-20.1,61.88,52.64,38.25,52.64-38.25-20.11-61.88H39.73ZM72.27,135.42L12.25,91.81,35.18,21.25h74.18s22.93,70.56,22.93,70.56l-60.02,43.61Z"/><g id="Layer_2-2"><g id="Layer_1-2"><path class="cls-3" d="M41.05,73.36c-.07,0-.11.07-.1.13l.13-.13s-.02,0-.03,0ZM48.11,64.18v.13l.27-.13h-.27ZM48.61,48.75c-.06-.06-.15-.09-.23-.1v.13h.27s-.03-.03-.04-.04ZM52.29,49.59s0,.01,0,.02c0,0,.01-.02.02-.03,0,0-.01,0-.02,0ZM55.06,65.06s-.02.11.07.2h.13v-.27c-.07,0-.15.02-.2.07ZM66.19,55.27h.13l.03-.08-.16.08ZM76.86,60l.12-.12c-.08.02-.12.06-.12.12ZM85.29,59.19h.08s-.05,0-.08,0ZM60.8,65.09c.37-.36.75-.71,1.14-1.04-.41.32-.79.67-1.14,1.04ZM82.93,55.14c.09.18.23.32.41.41,0-.18-.13-.32-.41-.41ZM45.41,46.5l-.27-.27c-.07-.12-.12-.26-.13-.41-.09-.18-.23-.32-.41-.41-.07-.16-.23-.27-.4-.27l.2.34.2.2c.18.18.27.31.27.4l.27.54v.14l.27-.27ZM44.19,45.55c0,.18.04.23.13.14.09-.09.04-.14-.13-.14ZM37.58,45.96c0,.18.23.32.67.41-.14-.25-.39-.4-.67-.41ZM49.19,47.04c0-.06-.04-.13-.1-.13-.01,0-.02,0-.03,0l-.14-.13h-.13l.13.13c0,.06.04.13.1.13.01,0,.02,0,.03,0l.13.13c.09.09.13.09.13,0l-.13-.13ZM49.32,46.9c0,.06.04.13.1.13.01,0,.02,0,.03,0,.09-.18.04-.22-.13-.13ZM42.03,46.9h-.14v.13c.07.08.17.13.27.13h.13l-.27-.27ZM42.3,47.04c0-.06-.04-.13-.1-.13-.01,0-.02,0-.03,0h-.13c.08.11.15.2.23.27.1.09.21.14.31.14l.54.54h.4c-.34-.36-.75-.64-1.21-.81ZM43.79,47.44c-.11-.1-.26-.15-.41-.13,0,.1.06.2.13.27h.14c.07.17.23.27.4.27.09-.09,0-.23-.27-.41ZM59.31,47.65s-.04-.07-.14-.07v.13h-.13v-.13h-.13v.27c-.09.27-.04.45.13.54.02-.14.06-.28.13-.41h.14c.09.09.13.11.13.07v-.2c-.09-.09-.13-.16-.13-.2ZM47.57,49.33c-.09-.36-.18-.54-.27-.54h-.41c-.09,0-.22-.09-.4-.27-.25-.33-.58-.61-.95-.81v.14c0,.09.09.18.27.27.01.12.06.24.13.34.1.15.24.26.41.34h.13v.14h.13c.16.46.59.78,1.08.81.28.2.6.34.95.41-.29-.35-.66-.63-1.08-.81ZM50.27,47.85v.27l.27-.13c0-.09-.09-.13-.27-.13ZM42.3,48.39c-.09,0-.19-.02-.27-.07-.09-.05-.14-.02-.14.07.19.19.42.32.68.4l.13-.13c-.12-.11-.26-.2-.41-.27ZM49.05,48.25c0,.07.02.15.07.2.04.04.07.02.07-.07.09-.09.04-.14-.13-.14ZM50.81,48.52v.27c0,.07.04.13.1.14.01,0,.02,0,.03,0l.13-.14v-.27h-.27ZM44.87,48.52c-.07,0-.13.04-.14.1,0,.01,0,.02,0,.03,0,.07.04.13.1.13.01,0,.02,0,.03,0l.13.14c.12.07.26.12.41.13-.08-.26-.28-.46-.54-.54ZM41.9,48.79l-.13.14.13.13.41.13c0-.18-.13-.31-.41-.41ZM45.95,49.2c-.07-.08-.17-.13-.27-.13.12.11.26.2.41.27l-.13-.13ZM68.22,49.06c-.74.16-1.46.38-2.16.67-.1.1-.22.19-.34.27l-.4.27-.34.13.67-.13c0-.09.23-.27.68-.54.56-.36,1.23-.51,1.89-.41.4-.11.81-.15,1.21-.13h.95c-.27,0-.99-.04-2.16-.13ZM63.29,50.14l.07.13v-.27l-.07.13ZM47.43,50.14c0,.06.04.13.1.13.01,0,.02,0,.03,0,.09-.18.04-.22-.14-.13ZM63.77,50.82c0-.09-.04,0-.14.27v.13c-.08.07-.13.17-.13.27.18.09.32,0,.41-.27.09-.09.04-.23-.13-.41ZM63.29,51.09c-.09.09-.13.11-.13.07s-.02.02-.07.2v.13h.14l.07-.13.07-.2c.04-.13.02-.16-.07-.07ZM45.71,51.76s-.02,0-.03,0c-.18-.09-.27-.04-.27.13l.13.13h.27v-.13c0-.06-.04-.13-.1-.13ZM58.37,54.73c0-.06-.04-.13-.1-.13-.01,0-.02,0-.03,0h-.4c-.07,0-.13.04-.14.1,0,.01,0,.02,0,.03l.41.14h.27l.13-.14h-.13ZM55.13,56.89v-.13c-.06-.07-.16-.09-.24-.03-.01,0-.02.02-.03.03l.14.13v.14h.13c0,.06.04.13.1.13.01,0,.02,0,.03,0,0-.1-.06-.2-.13-.27ZM81.58,57.3c-.19-.02-.38.03-.54.13-.16.13-.34.22-.54.27v.13c.22.09.46.09.67,0l.27-.27c.18-.09.23-.18.14-.27ZM60.93,57.84l-.13-.13c0-.09-.04-.09-.13,0s-.09.22,0,.41v.13h.13c0,.09.04.09.13,0,.09-.09.09-.23,0-.41ZM83.74,57.7h-.14l-.2-.07-.07-.07h-.27c0,.09.09.13.27.13.18.18.42.28.67.27v-.13l-.27-.13ZM78.75,59.59h-.14c-.07.08-.17.13-.27.14-.12.07-.26.12-.41.13-.18,0-.25.04-.2.13.03.08.11.14.2.13h.27c.16-.13.34-.22.54-.27l.13-.13-.13-.14ZM62.28,60.13h-.13l-.13.14c0,.06.04.13.1.13.01,0,.02,0,.03,0v.13h.41v-.34l-.27-.07ZM60.26,60.27c-.18,0-.27.04-.27.13h.27l.2-.2.2-.07c-.14.02-.28.06-.41.14ZM63.9,60.54c-.1,0-.2.06-.27.13h-.13c-.49.19-.91.52-1.21.95-.09,0-.22.09-.41.27l-.07.2-.13.13c-.06.05-.13.07-.2.07l-.13.14c0,.1-.06.2-.13.27.1,0,.2-.06.27-.13.09,0,.23-.09.41-.27l.27-.27c.13-.22.32-.41.54-.54.15-.07.28-.16.4-.27.12-.11.26-.2.41-.27v-.13c.07-.08.17-.13.27-.14.01,0,.02,0,.03,0,.06,0,.11-.07.1-.13ZM48.17,62.23s-.08.06-.13.07h-.2l-.13-.13h-.2l-.07.13c-.18.18-.27.32-.27.41.18-.02.37-.07.54-.13l.54-.13c.08-.07.13-.17.13-.27-.07,0-.15.02-.2.07ZM51.89,62.16l-.13.13h.27v-.13h-.13ZM56.95,62.97c-.04-.18-.17-.33-.34-.41h-.2c-.13,0-.2.04-.2.13l.07.13.13.2.34.34c.16-.06.25-.24.2-.4ZM61.07,62.97l-.67.67c-.11.12-.2.26-.27.41-.33.25-.65.52-.95.81-.17.18-.22.44-.13.67h.41c.18-.2.32-.43.41-.67,0-.19.05-.37.13-.54-.13.13-.04.02.27-.34l.47-.54.47-.47h-.13ZM48.92,64.59l-.27.27v.13l.13-.13h.27v-.27h-.14ZM48.24,64.86l-.13.13v.14h-.13v.13h.13l.2-.2-.07-.2ZM48.51,64.99l-.13.14v.13l.27-.13v-.14h-.14ZM57.56,65.67c-.09.18-.04.22.13.13.09-.18.05-.23-.13-.13ZM49.05,67.29l-.07.13-.2.27h.13c.18,0,.27-.13.27-.4h-.14ZM50.94,68.64h-.13c-.09-.09-.18-.04-.27.13,0,.07.04.13.1.14.01,0,.02,0,.03,0h.13c.09,0,.09-.04,0-.14l.13-.13ZM51.08,68.77l-.13.14h.13l.14-.14h-.14ZM68.22,69.85h-.41l.14.14.27.13.13.13v-.13c0-.1-.06-.2-.13-.27ZM66.6,76.2c0-.09-.02-.13-.07-.13h-.2c-.21.01-.4.11-.54.27v.2l.13.07c.19.09.41.03.54-.13.18-.09.27-.18.27-.27h-.13ZM66.87,77.82c-.1.11-.15.26-.14.41v.13c.18-.02.37-.07.54-.13v-.41h-.4ZM67.14,80.38v-.27h-.13c-.18.09-.32.23-.41.41-.08.07-.13.17-.13.27l.07.07s.11.02.2-.07h.2s.11-.04.2-.14c.01,0,.02-.02.03-.03.06-.07.04-.18-.03-.24ZM72.27,80.25v.4c.02.14.06.28.13.41.08.07.13.17.13.27v-.68c-.09-.27-.18-.4-.27-.4ZM73.01,80.65l-.07.07s0,.11.13.2c0,.09.02.11.07.07.05-.06.07-.13.07-.2v-.14h-.2ZM77.81,80.92c0-.07-.04-.13-.1-.13-.01,0-.02,0-.03,0-.07-.08-.17-.13-.27-.14-.27.09-.36.23-.27.41-.09.09,0,.23.27.41.36.09.54,0,.54-.27,0-.1-.06-.2-.13-.27ZM74.16,81.6c-.08-.07-.13-.17-.13-.27l-.13-.14v.27c.09,0,.13.02.13.07v.07h.13ZM72.67,82.27v-.27h-.13l-.13.13v.13c.07.08.17.13.27.14.09,0,.09-.04,0-.14ZM78.48,82.14l-.13-.13-.27.13.27.27c.18,0,.22-.09.13-.27ZM74.83,83.89l-.27-.54v-.13c.01-.15-.04-.29-.14-.41v-.13l-.13-.34-.13-.2-.13-.13h-.13l.13.41.2.2.14.2c.09.14.11.23.07.27-.01.18,0,.37.07.54.05.1.12.19.2.27,0,.27.04.41.13.41.07,0,.13-.04.14-.1,0-.01,0-.02,0-.03,0-.1-.06-.2-.14-.27ZM73.62,82.81c-.08.07-.13.17-.13.27v.54c-.27.81-.54,1.58-.81,2.29l-.07.07c-.05.06-.07.13-.07.2,0,.09.09.13.27.13v-.27c.02-.14.06-.28.14-.4v-.41c.09-.27.27-.77.54-1.49l.13-.13c.07-.17.11-.36.13-.54,0-.01,0-.02,0-.03,0-.07.07-.11.13-.1v-.41c-.09-.09-.18,0-.27.27ZM70.72,82.88s-.11-.02-.2.07c0,.06.04.13.1.13.01,0,.02,0,.03,0,.09-.09.11-.16.07-.2ZM82.8,84.03c-.07,0-.13.04-.13.1,0,.01,0,.02,0,.03-.08.12-.05.29.07.37.02.01.04.03.07.03h.27v-.27c-.09-.18-.18-.27-.27-.27ZM40.68,84.84l-.27-.13v-.27c.09-.09.13-.16.13-.2s-.04-.11-.13-.2c-.27-.18-.41-.32-.41-.41-.09-.09-.13-.16-.13-.2s-.05-.07-.14-.07c.01-.15-.04-.29-.13-.4h-.13v.54c.08.47.32.9.67,1.21,0,.06.04.13.1.13.01,0,.02,0,.03,0v.13l.14.14.27.13c.07,0,.13.04.13.1v-.37l-.13-.13ZM46.49,89.43l-.13-.07c-.08-.04-.18-.07-.27-.07v-.27l-.13-.13c-.17-.07-.36-.11-.54-.14-.53-.31-1.03-.67-1.49-1.08-.69-.65-1.24-1.43-1.62-2.29-.12-.11-.26-.2-.41-.27-.15-.07-.28-.16-.41-.27-.09.18.05.63.41,1.35.18.21.34.44.47.67.23.36.38.63.47.81.25.2.53.38.81.54.2.21.43.39.68.54l.27.14.27.27h.13s.02,0,.03,0c.07,0,.11.07.1.13h.27s.02,0,.03,0c.06,0,.11.07.1.14h.27l.27.13h.13l.13.13c.12.07.26.12.41.13v-.13c0-.09-.09-.18-.27-.27ZM69.64,85.18s-.08-.04-.12-.02c0,0-.01.01-.02.02-.04.04-.02.11.07.2.09-.09.11-.16.07-.2ZM68.49,86.19c-.18.09-.27.31-.27.67.27-.27.36-.5.27-.67ZM78.48,86.59l-.27-.27h-.13c-.09-.09-.13-.09-.13,0v.13c-.01.15.04.29.13.41h.13s.02.02.03.03c.08.06.18.04.24-.03.09,0,.09-.09,0-.27ZM47.7,60.81c-.09-.09-.22-.09-.41,0l-.13.13c-.18.09-.22.18-.13.27,0,.09.09.14.27.14l.2-.2.2-.07h.13c.15-.07.29-.16.41-.27h-.54ZM49.93,67.42l-.13.07-.2.2-.13.27.27-.13c0-.09.09-.18.27-.27v-.13h-.07ZM60.83,50.58s-.02-.02-.03-.03h-.13l-.13.4c0,.07.04.13.1.14.01,0,.02,0,.03,0l.13-.27c.08-.06.09-.16.03-.24ZM70.25,63.51v.13h.27v-.13h-.27ZM48.11,63.64c-.09-.09-.13-.09-.13,0h0c0,.08.06.14.13.14.07,0,.14-.06.14-.13h0s-.13,0-.13,0ZM79.42,87.4c0,.06.04.13.1.13.01,0,.02,0,.03,0v-.13h-.13ZM69.17,87.67c-.36.27-.45.72-.27,1.35.45-.54.54-.99.27-1.35ZM79.96,87.94h-.14v.13c.09.09.16.11.2.07.04-.04.02-.11-.07-.2ZM72.41,88.21c-.27.18-.32.54-.14,1.08.27-.45.32-.81.14-1.08ZM81.85,89.56l-.13.13v.13c.07.08.17.13.27.14v-.34s-.04-.07-.13-.07ZM90.16,100.7l-.2-.47-.13-.14-.13.13c.05.18.12.35.21.51.09.16.2.31.33.44.09,0,.07-.16-.07-.47ZM68.89,82.41c0-.18-.09-.23-.27-.14v.41h.13l.2-.07c.14-.04.11-.11-.07-.2ZM68.83,84.03c-.1.01-.19.1-.2.2v.07c.18.09.27.04.27-.13,0-.09-.02-.13-.07-.13ZM71.46,81.87v-.14l-.13-.13c0-.09-.04-.09-.14,0v.13l.14.27c.09.18.16.2.2.07.04-.13.02-.2-.07-.2ZM71.59,79.3v-.27c0-.36-.09-.54-.27-.54-.09,0-.14.09-.14.27l.14.13v.2s.04.11.13.2c.01,0,.02,0,.03,0,.07,0,.11.07.1.13l.14.27h.13c0-.09-.09-.23-.27-.41ZM74.97,81.46v.13c-.08.06-.09.16-.03.24.01.01.02.02.03.03.06,0,.13-.04.13-.1,0-.01,0-.02,0-.03l-.13-.27ZM87.96,94.59s-.02-.02-.03-.03c0-.09-.05-.17-.14-.2-.08-.04-.18-.07-.27-.07l.13.13v.13c0,.07.04.13.1.13.01,0,.02,0,.03,0,0,.18.04.23.14.14.07-.06.09-.16.03-.24ZM87.79,96.58v.27h.14v-.13l-.14-.13ZM86.44,97.93v.27h.07l.07-.13c.09-.09.04-.14-.13-.14ZM85.97,99.75c-.05.06-.07.13-.07.2h.13v-.13l-.07-.07ZM96.03,73.77c0-.1-.06-.2-.14-.27v-.13l-.13-.41-.13.13v.41s0,.02,0,.03c0,.07.07.11.13.1v.14l.27.27v.13h.13v-.27s0-.02,0-.03c0-.07-.07-.11-.13-.1ZM49.12,47.58c-.14,0-.2-.04-.2-.13h-.27c0,.1.06.2.13.27h.27l.13.14c.06,0,.13-.04.13-.1,0-.01,0-.02,0-.03,0-.09-.07-.13-.2-.13ZM98.59,49.2c-.08.07-.13.17-.13.27-.09.09-.04.13.13.13h.14c.06.07.16.09.24.03.01,0,.02-.02.03-.03v-.13c-.09-.27-.22-.36-.41-.27ZM84.96,46.9c-.09-.09-.13-.09-.13,0-.09,0-.09.04,0,.13l.13.13h.07l.07-.13c.04-.09,0-.13-.13-.13ZM44.46,47.85v.13c.09.09.13.07.13-.07s-.04-.16-.13-.07ZM44.46,48.66c-.09,0-.09.04,0,.13.06.08.16.09.24.03.01,0,.02-.02.03-.03-.09-.18-.18-.22-.27-.13ZM45.07,51.16s-.16-.02-.34.07c0,.09.09.13.27.13.09,0,.13-.02.13-.07,0-.05-.03-.1-.07-.13ZM46.89,47.04c-.07-.08-.17-.13-.27-.13,0,.09.09.22.27.41h.14c0-.1-.06-.2-.14-.27ZM46.89,46.23c0-.07-.04-.13-.1-.13-.01,0-.02,0-.03,0h-.13c-.02.13.07.25.2.27.02,0,.04,0,.07,0,.09,0,.09-.04,0-.13ZM40.88,49.33l-.07-.13c-.27-.09-.43-.11-.47-.07s-.02.11.07.2l.27.27h.27v-.13l-.07-.14ZM40.01,44.88c-.13-.02-.25-.1-.34-.2-.1-.11-.21-.2-.34-.27-.12-.06-.23-.13-.34-.2-.1-.08-.21-.12-.34-.13-.16-.13-.34-.22-.54-.27,0,.1.06.2.13.27.1,0,.2.06.27.13.08.07.13.17.13.27.17.15.35.29.54.41.2.18.43.32.67.41.18,0,.27-.04.27-.13,0-.1-.06-.2-.13-.27ZM40.82,46.23l-.54-.27c0-.09-.07-.16-.2-.2-.13-.04-.24-.11-.34-.2l-.13-.13h-.13v.13l.4.41c.09.18.23.32.41.41.36.27.58.31.68.13,0-.1-.06-.2-.14-.27ZM54.59,46.9c-.1,0-.2-.06-.27-.13s-.17-.13-.27-.14l.13.14v.13h.13l.27.13c.09,0,.09-.04,0-.13ZM54.89,48.12s-.02,0-.03,0c-.09,0-.13.02-.13.07s.04.07.13.07v.14h.14v-.14c0-.06-.04-.13-.1-.13ZM48.11,51.56l-.27-.14-.27.07c-.09.18,0,.32.27.41l.14-.13.13-.13c.09,0,.09-.02,0-.07ZM41.83,43.39c-.13-.09-.2-.04-.2.14,0,.09.09.13.27.13.09,0,.14-.02.14-.07s-.07-.11-.2-.2ZM50.94,49.06v.13c.06.07.16.09.24.03.01,0,.02-.02.03-.03v-.13h-.27ZM88.47,98.74v-.13c-.05-.2-.14-.38-.27-.54l-.41-.54h-.13v.13c0,.19.05.37.13.54,0,.09.09.22.27.41,0,.09.09.22.27.4.07.08.17.13.27.14-.02-.14-.06-.28-.14-.41ZM89.28,97.53v-.14s-.02-.02-.03-.03c-.07-.06-.18-.04-.24.03.01.21.11.4.27.54.09.18.18.27.27.27v-.27c0-.09-.09-.22-.27-.4ZM86.92,96.45l-.07-.14v-.13h-.27l.13.13v.14h.2ZM85.23,94.96v.2l.14.2.13.13v-.27c0-.09-.09-.18-.27-.27ZM86.98,93.88l-.13-.2v-.34l-.14.07v.47c0,.14.02.28.07.41.04.09.16.09.34,0v-.41h-.13ZM88.87,94.42s.09.09.14.13v-.07l-.14-.07ZM88.47,95.77c-.12-.19-.26-.37-.41-.54l-.13.14c-.03.47.17.92.54,1.21.18.09.27.07.27-.07-.04-.26-.13-.51-.27-.74ZM84.55,98.61c-.09-.18-.18-.23-.27-.14.02.25.12.48.27.68.09.18.18.27.27.27,0-.29-.1-.57-.27-.81ZM83.88,91.45v-.13l-.27-.13h0c0-.09-.09-.13-.27-.13.09.18.18.36.27.54l.27.27h.07s.07-.04.07-.13c0-.1-.06-.2-.13-.27ZM84.15,91.86v.2l.07.13c.04.06.06.13.07.2l.13.13h.13v-.27l-.4-.41ZM82.73,89.5l-.2-.07c.02.14.06.28.13.4h.13l.07-.07v-.13l-.13-.13ZM81.18,89.02l-.13-.13h-.27v.13l.14.13v.13c.09.09.16.14.2.14s.07-.04.07-.14c.09,0,.09-.09,0-.27ZM80.37,88.21v.14c0,.06.04.13.1.13.01,0,.02,0,.03,0v-.13l-.13-.14ZM65.52,79.98v-.27l-.13.13v.13l.27.27v-.14l-.13-.13ZM78.07,81.33h-.13c.05,0,.1,0,.14.01h0ZM78.28,81.46c-.03-.06-.1-.1-.2-.12l.13.26.13.13c0-.09-.02-.19-.07-.27ZM78.21,81.19l-.14-.13c0,.1.06.2.14.27l.13.13c0-.1-.06-.2-.13-.27ZM81.58,82.81c0,.18.04.27.13.27,0-.1-.06-.2-.13-.27ZM82.26,82.54c0,.18.04.27.13.27,0-.1-.06-.2-.13-.27ZM45,88.21h-.13s.09.01.14.03c0,0,0-.02,0-.03ZM45.71,88.48s-.02,0-.03,0c0-.07-.04-.13-.1-.13-.01,0-.02,0-.03,0h-.27c-.08-.05-.17-.09-.27-.11,0,.08.06.15.13.18.06.04.13.06.2.07h.2l.13.13h.14c0-.06-.04-.13-.1-.13ZM42.23,87.47c-.1-.06-.22-.08-.34-.07.07.08.17.13.27.13.09.09.16.13.2.13h.07v-.13c-.07,0-.15-.02-.2-.07ZM39.06,82.95c-.09,0-.16-.07-.2-.2-.04-.13-.11-.2-.2-.2-.09-.09-.13-.09-.13,0v.41c.14.02.28.06.41.13l.27.13h.13l-.27-.27ZM48.11,68.23v.14l.13-.07v-.07h-.13ZM47.97,68.1l-.14.13v.14l.2-.2-.07-.07ZM48.24,66.88c0-.09-.04-.09-.13,0,0,.06-.04.13-.1.13h.1c.1,0,.2-.06.27-.13h-.13ZM47.84,62.66v-.1c-.08.07-.13.17-.13.27.07-.08.17-.13.27-.13v-.13c-.07,0-.13.04-.14.1ZM47.03,60.77s0,.02,0,.03l.13-.14c-.06,0-.13.04-.13.1ZM48.11,64.59h.13s0-.02,0-.03c0,0,0,0,0-.01l-.14.05ZM48.38,64.45c-.06,0-.12.03-.13.09l.27-.09h-.13ZM49.08,66.65s-.02-.02-.03-.03c-.09,0-.13.09-.13.27h.13c.08-.06.09-.16.03-.24ZM48.11,67.56h.13l.13-.13-.27.13ZM47.7,64.99v.14c.09-.09.09-.14,0-.14ZM48.38,62.43l-.13.27c.07,0,.15-.02.2-.07.04-.04.02-.11-.07-.2ZM52.43,63.07s0,.02,0,.03h.13v-.13c-.06,0-.13.04-.13.1ZM60.12,60h.13c-.09-.09-.13-.09-.13,0ZM62.69,58.92c.18,0,.27-.04.27-.13l-.27.13ZM61.34,61.62c-.06,0-.13.04-.13.1,0,.01,0,.02,0,.03h.13c.08-.07.13-.17.13-.27l-.13.13ZM58.1,65.4l.13.13c.07,0,.13-.04.14-.1,0-.01,0-.02,0-.03h-.27ZM56.75,63.78v.13c.06,0,.13-.04.13-.1,0-.01,0-.02,0-.03h-.13ZM61.61,60.94l.13.13v-.13h-.13ZM57.83,55.14h.13v-.13l-.13.13ZM50.67,57.97c0,.09.05.09.14,0h-.14ZM45.27,57.84s-.18,0-.4.13c0,.09.09.14.27.14l.2-.2-.07-.07ZM42.57,53.92v.13l.13-.13h-.13ZM81.31,56.08l-.13.13c-.1,0-.2.06-.27.13.09.09.22.09.4,0l.13-.13v-.07l-.13-.07ZM79.69,58.51c.07,0,.15-.02.2-.07l.2-.2v-.13c-.09,0-.22.13-.41.4ZM82.26,55.41c-.09,0-.17.05-.2.13-.04.09,0,.11.13.07.13-.04.2-.11.2-.2h-.13ZM87.25,52.84v.13l.13.13.27.14c-.03-.21-.2-.37-.41-.41ZM87.52,53.65v.14l.13.13v-.27h-.13ZM92.65,53.79l-.13-.14v.14c-.09.09-.09.13,0,.13,0,.09.04.09.13,0h.13l-.13-.13ZM96.57,71.88h.14l.1-.1c-.06.06-.15.09-.23.1ZM97.11,71.34l-.27.41.07-.07c.06-.05.13-.07.2-.07l.13-.14c.15-.17.29-.35.41-.54-.09,0-.27.14-.54.41ZM97.69,70.85c.06-.12.14-.23.23-.32v-.14l-.23.46ZM99.2,50.08c-.05.06-.07.13-.07.2.07,0,.13-.04.14-.1,0-.01,0-.02,0-.03,0-.09-.02-.11-.07-.07ZM99.13,50.82c-.06,0-.13.04-.13.1,0,.01,0,.02,0,.03l-.13.14c.13.02.25-.07.27-.2,0-.02,0-.05,0-.07ZM49.52,50.89c-.1-.06-.22-.08-.34-.07l.13.13.27.14c0-.07-.02-.15-.07-.2ZM49.86,51.09c-.09,0-.09.04,0,.13l.13.13v-.13l-.13-.13ZM48.58,51.29l-.2-.07h-.13l.27.13h.14l-.07-.07ZM48.65,51.36c0,.07.04.13.1.13.01,0,.02,0,.03,0l-.13-.13ZM48.51,51.09c-.09.09-.09.13,0,.13h.27v-.13h-.27ZM48.65,52.03h-.13v.14h.13c.09-.09.09-.14,0-.14ZM47.84,52.3c-.07,0-.13.06-.13.14,0,.07.06.13.13.13v-.13h.14l-.14-.13ZM47.46,50.82s-.02,0-.03,0c0,.1.06.2.14.27v-.14c0-.06-.04-.13-.1-.13ZM44.19,44.74c-.18,0-.27.04-.27.13v.14h.13c.07-.08.17-.13.27-.14.07-.08.17-.13.27-.13h-.4ZM41.36,45.55c0,.07.04.13.1.14.01,0,.02,0,.03,0l-.13-.14ZM38.66,45.55c0-.09-.04-.09-.13,0v.14h.27l-.14-.14ZM41.09,44.07l.13.13c-.09-.18-.13-.23-.13-.13ZM45.34,45.96c-.04-.09-.11-.09-.2,0l.14.13.13.14c0-.09-.02-.19-.07-.27ZM47.84,46.63v.14c.11.1.26.15.41.13v-.13c-.12-.07-.26-.12-.41-.14ZM48.92,46.5h.13v-.13l-.13.13ZM46.01,49.81s-.07-.02-.07.07c0,.07.04.13.1.14.01,0,.02,0,.03,0,0-.07-.02-.15-.07-.2ZM41.9,47.31l.14.13h.13c-.07-.08-.17-.13-.27-.13ZM49.73,50.68l.13.13h.13c0-.18-.09-.22-.27-.13ZM46.76,49.87c-.06,0-.13.04-.13.1,0,.01,0,.02,0,.03v.27l.27.41v-.41c.01-.15-.04-.29-.13-.41ZM44.46,47.04l.13.13c.09-.09.04-.13-.13-.13ZM41.76,48.52h-.13v.13h.13c.09,0,.09-.04,0-.13ZM42.44,48.12v.13l.14.14-.14-.27ZM38.42,46.5s-.02,0-.03,0c-.09,0-.09.04,0,.13h.13c0-.06-.04-.13-.1-.13ZM45.34,49.4s-.04.08-.02.12c0,0,.01.01.02.02.04.04.07.02.07-.07s-.02-.11-.07-.07ZM45.81,48.93c.06.07.16.09.24.03.01,0,.02-.02.03-.03h-.27ZM49.32,50.55h-.27c0,.06.04.13.1.13.01,0,.02,0,.03,0h.27l-.13-.13ZM48.38,50.41v.14c.07,0,.13-.04.13-.1,0-.01,0-.02,0-.03h-.13ZM64.04,49.6c-.09-.09-.13-.04-.13.13l.13.13v-.13c.09,0,.09-.04,0-.13ZM60.12,48.79v.14l.07-.14h-.07ZM60.26,48.66l-.07.13h.14l-.07-.13ZM60.02,49.6s-.02,0-.03,0c-.09,0-.09.09,0,.27h.13v-.13c0-.06-.04-.13-.1-.13ZM59.72,49.74v-.07l-.13-.2h-.13v.13h.13v.27h-.13c.27.09.4.09.4,0l-.13-.13ZM77.53,46.63l.17.04c-.05-.03-.11-.05-.17-.04ZM77.81,46.7l-.1-.03s.02.02.04.03c.06.05.13.07.2.07l-.13-.07ZM78.61,47.17v.14h.14l-.14-.14ZM78.75,47.31v.13h.13l-.13-.13ZM84.96,55.68v.13l.13.14v-.2l-.13-.07ZM85.09,57.3c-.09,0-.13.09-.13.27h.27l-.14-.27ZM77.13,55.75l-1.08.54-.2.14-.07.07h-.13v.13c.41-.11.82-.24,1.21-.41.27-.18.41-.31.41-.41s-.04-.11-.13-.07ZM77.67,55.54c-.13-.02-.25.07-.27.2,0,.02,0,.04,0,.07h.27l.13-.13v-.27l-.13.13ZM71.33,59.86c-.13-.02-.25.07-.27.2,0,.02,0,.04,0,.07v.14c.09.09.23,0,.41-.27v-.2s-.04-.02-.13.07ZM71.05,60.81l-.13-.14s-.07-.02-.11-.03c-.02,0-.04,0-.06,0-.18-.02-.37.04-.5.17-.07.12-.12.26-.13.4.13.17.35.22.54.14.15.01.29-.04.41-.14.15-.07.23-.15.26-.22,0-.02,0-.03,0-.05-.1,0-.2-.06-.27-.13ZM71.22,60.5s-.02.02-.03.03c-.08.06-.11.18-.07.27.04.09.11.09.2,0,.08-.07.13-.17.13-.27-.06-.07-.16-.09-.24-.03ZM70.82,60.37s-.02.02-.03.03l-.14.13.1.1.04.04.27-.27c-.06-.07-.16-.09-.24-.03ZM70.38,60.54l-.13.13h.13c.09-.09.09-.13,0-.13ZM69.71,65.53v.14h.13l.07-.07v-.07h-.2ZM69.71,66.21c-.04-.09-.09-.04-.13.13-.05.18,0,.22.13.13l.07-.13-.07-.13ZM70.11,67.42c-.16-.11-.35-.16-.54-.13l-.14.13c.12,0,.23.03.34.07.11.04.22.06.34.07.18.09.27.11.27.07s-.09-.11-.27-.2ZM68.17,69.13s-.01-.01-.02-.02c-.04-.04-.11-.02-.2.07v.13c.07,0,.15-.02.2-.07.04-.03.04-.08.02-.12ZM67.68,68.91l-.13.13.13.13.13-.27h-.13ZM46.76,51.76v.13l.13-.13h-.13ZM44.6,50.68v.13l.13-.13h-.13ZM44.87,47.71c-.09.09-.09.14,0,.14h.13l-.13-.14ZM45.14,47.71h.13v-.13l-.13.13ZM45.41,46.23s0,.02,0,.03c0,0,0,0,0,0,0-.01,0-.03,0-.04ZM45.41,46.27c0,.06.03.09.06.09h.04c-.05,0-.09-.04-.1-.09ZM43.41,46.9s-.02,0-.03,0v.13h.13c0-.06-.04-.13-.1-.13ZM97.92,50.68c0,.1.06.2.13.27h.13v-.13c0-.09-.09-.13-.27-.13ZM98.19,51.05s0,.02,0,.03h.14v-.14c-.07,0-.13.04-.14.1ZM41.22,84.84l-.13-.13c-.07,0-.13-.04-.14-.1,0-.01,0-.02,0-.03v-.14c-.06-.07-.16-.09-.24-.03-.01,0-.02.02-.03.03v.27c0,.06.04.13.1.13.01,0,.02,0,.03,0h.14c.07,0,.15.02.2.07.03.04.08.06.13.07.04,0,.07-.04.07-.13h-.13ZM37.71,81.87l-.27-.14.13.14v.13l.13-.13ZM42.3,88.48c0,.06.04.13.1.13.01,0,.02,0,.03,0v-.13h-.13ZM42.57,89.43c0,.09.04.09.13,0-.09-.09-.13-.09-.13,0ZM42.84,88.62c0,.07.04.13.1.13.01,0,.02,0,.03,0v-.13h-.13ZM43.38,88.89h.13c-.09-.09-.13-.09-.13,0ZM42.44,88.75v.14h.14l-.14-.14ZM43.15,89.43s-.02,0-.03,0h-.13l.27.13c0-.07-.04-.13-.1-.13ZM43.65,89.16h.14v-.13l-.14.13ZM95.49,76.2l.14.27v-.27h-.14ZM95.08,76.74v.13h.13l-.13-.13ZM71.73,80.52v.27h.13v-.13l-.13-.13ZM71.87,81.33h.13v-.13l-.13.13ZM74.57,81.87v.13l.13.13v-.13l-.13-.13ZM74.7,82.14c0,.09.04.09.13,0h-.13ZM73.75,80.65l.13.13v.14c.09-.18.05-.27-.13-.27ZM74.19,77.92s-.02.02-.03.03l.13.14c.07,0,.13-.04.13-.1,0-.01,0-.02,0-.03-.06-.07-.16-.09-.24-.03ZM88.47,78.9h-.13c.05,0,.11,0,.16.02l-.02-.02ZM88.74,78.9c0,.09-.04.11-.13.07-.04-.02-.07-.03-.11-.04l.11.11h.27l-.13-.13ZM83.47,85.11l.13.13v-.13h-.13ZM83.2,90.64v.13h.13v-.13h-.13Z"/><path class="cls-3" d="M85.63,56.49c0,.07-.02.15-.07.2-.04.04-.07.02-.07-.07h-.27l-.14-.27v-.13c0-.09.09-.09.27,0l.27.27Z"/><path class="cls-3" d="M106.56,97.8l-.13-.27-.41-.27v-.13l-.13-.13c-.11-.1-.26-.15-.41-.14,0-.01,0-.02,0-.03,0-.06-.07-.11-.13-.1v-.27l-.27-.14v-.13c-.07-.08-.17-.13-.27-.13l-.41-.41h-.13v-.13l-.54-.27s0-.02,0-.03c0-.06.07-.11.13-.1-.07-.08-.17-.13-.27-.13h-.13v-.13l-.27-.27h-.14l-.27-.41v-.13h-.27v-.13l-.54-.54h-.13c-.07-.08-.17-.13-.27-.13-.18-.09-.27-.18-.27-.27h-.13l-.13-.41-.14-.13v-.13h-.13l-.13-.13-.13.13-.14-.13v-.27h-.13c-.12-.11-.26-.2-.41-.27h-.13v-.27l-.13-.07v-.07l-.41-.27-.4-.4-.27-.14-.13-.13v-.13l-1.35-1.35c-.09-.1-.16-.21-.2-.34-.04-.11-.06-.22-.07-.34l-.41-.27-.27-.14-1.21-1.21c0-.09-.09-.18-.27-.27-.18-.09-.27-.18-.27-.27l-6.34-6.35-.07-.13c-.03-.08-.11-.14-.2-.13-.18-.18-.45-.47-.81-.88-.28-.33-.6-.62-.95-.88-1.35-1.44-2.16-2.34-2.43-2.7h1.08v-.27h.54l-.27-.27c.22-.05.42-.14.61-.27.27-.15.52-.33.74-.54.88-.54,1.65-1.22,2.3-2.03.27-.57.58-1.11.94-1.62.55-1.1.91-2.29,1.08-3.51l.13-.74v-.88c-.01-.18-.03-.36-.07-.54-.03-.18-.06-.36-.07-.54-.16-.84-.43-1.66-.81-2.43-.63-1.43-1.55-2.72-2.7-3.78-.26-.12-.53-.21-.81-.27-.07-.08-.17-.13-.27-.13v-.14c-.05-.12-.12-.23-.2-.34-.04-.04-.07-.02-.07.07l-.13.13c-.17-.07-.36-.11-.54-.13,0,.1.06.2.13.27l.07.2.07.07s.02,0,.03,0c.06,0,.11.07.1.13l-.14.54v.27s0,.02,0,.03c0,.06.07.11.14.1l-.14.13v.41l-.07.2-.07.07v.14h.19s.05,0,.08,0h-.08c-.12,0-.24.05-.33.13v.13h.24c-.06,0-.11.07-.1.13l.14.14c-.18.09-.27.18-.27.27.01,0,.02,0,.03,0,.07,0,.11-.07.1-.13.01,0,.02.02.03.03.06.07.04.18-.03.24.09,0,.09.04,0,.14-.01,0-.02,0-.03,0-.06,0-.11.07-.1.13-.09.09-.09.13,0,.13v.13l.13.14c1.1,1.17,1.72,2.71,1.76,4.32-.01,1.29-.44,2.55-1.22,3.58-.76,1.09-1.85,1.92-3.1,2.36-.63.19-1.3.14-1.89-.14-.5,0-1,.04-1.49.14-.36.08-.74.03-1.08-.14-1.75-.75-3.08-2.23-3.65-4.05-.2-.89-.25-1.8-.13-2.7.18-1.54.96-2.94,2.16-3.91.09,0,.18-.09.27-.27l.07.13h.13l.34-.13.27-.13v-.13c-.14.02-.28.06-.4.13-.06,0-.11,0-.15.02l-.12.12c0-.06.04-.1.12-.12l.02-.02.54-.27c.12-.11.26-.2.41-.27v-1.08c.27.36.45.54.54.54l.13.13c.18-.09.18-.27,0-.54v-.13l-.27-.27c0-.09-.02-.31-.07-.67-.04-.36-.02-.54.07-.54-.02-.32-.06-.63-.13-.95-.42.14-.83.32-1.22.54h-.13c-.07.08-.17.13-.27.14-.28.06-.55.15-.81.27h-.41l-.13.13h-.13c-.59.21-1.1.59-1.49,1.08-.94.84-1.72,1.85-2.29,2.97,0,.02,0,.03,0,.05-.08.45-.21.88-.4,1.3-.07.41-.16.82-.27,1.22l-.07.61-.07.34v2.16c.12.16.19.34.2.54.03.21.08.41.13.61.06.22.11.45.13.68,0,.22.08.43.2.61.36.74.77,1.46,1.21,2.16h-2.16l-.07-.13h-.2c-.59.11-1.19.07-1.75-.14.09,0,.18-.07.27-.2.08-.12.17-.23.27-.34-.25.15-.48.33-.67.54-.31-.11-.59-.3-.81-.54.07,0,.15-.02.2-.07.06-.05.13-.07.2-.07l.27.27h.27c0-.09-.13-.23-.41-.41l-.67.13-.41-.27-.41-.27-.13-.13h-.13v.27h.13v.14h-.13c-.09,0-.32-.18-.67-.54.19,0,.37.05.54.14l.13-.14h.13c.31.07.63.12.95.14-.1,0-.2-.06-.27-.14v-.27l.14-.07h.27l.13.07-.27-.27h-.27c.09-.09.11-.16.07-.2-.1-.06-.22-.08-.34-.07l-.07-.07s-.1-.06-.16-.07h.49c-.11-.1-.26-.15-.4-.14l-.14-.07v-.2h.81l-.13-.13v-.14h1.62c.18.01.36.03.54.07.18.03.36.06.54.07v-.14c-.23-.03-.45-.07-.68-.13-.15-.03-.29-.1-.4-.2-.11-.1-.25-.17-.41-.2-.1,0-.2-.06-.27-.13.07-.08.17-.13.27-.13h.54l-.13-.13c-.18.04-.25-.05-.2-.27l.07-.34v-.34c.36.36.63.54.81.54.13.13.2.16.2.07v-.13l-.2-.2c-.18-.18-.32-.27-.41-.27l.13-.47v-.47l-.27-.27c.18-.18.5-.45.95-.81h.13v-.13c-.07.08-.17.13-.27.13-.19.02-.38-.03-.54-.13.17-.09.35-.13.54-.13l-.27-.13.67-.68c.1,0,.2-.06.27-.13l.07-.07c.05-.06.07-.13.07-.2-.15-.07-.29-.16-.41-.27v-.41l.13-.13v-.2s-.04-.11-.13-.2v-.13l.13-.41c-.1,0-.2-.06-.27-.13l.13-.13.27-.13c-.22.08-.44.13-.68.13-.2-.29-.42-.56-.67-.81-.39-.59-.71-1.22-.95-1.89-.25-.3-.58-.54-.94-.67,0-.01,0-.02,0-.03,0-.06-.07-.11-.14-.1v-.54l-.27-.27c-.07-.12-.12-.26-.13-.41v-.13l.13-.27v-.13h-.13l-.11.05-.03.08h-.13l.16-.08.04-.12.2-.2h-.27c-.16-.11-.35-.16-.54-.14l-.13-.2v-.2c-.09-.09-.09-.14,0-.14v-.13c.1,0,.2-.06.27-.13l.4-.27c.08-.07.13-.17.14-.27.46-.37.96-.68,1.48-.95.18,0,.68-.04,1.49-.13h2.57c.27,0,.95.04,2.03.13h.27l-.27.13h-.27v.14h.68l.27-.27,1.21-.27c.81-.09,2.16-.23,4.05-.41.68.02,1.36.09,2.03.2.9.14,1.39.2,1.48.2.54.09,1.12.18,1.76.27.35.17.71.3,1.08.41-.07-.12-.12-.26-.14-.41.31.1.63.14.95.13.95.08,1.9.22,2.83.41l.14.27.13-.14h.41c.27-.09.45-.09.54,0h.13l.13.14v.13c0,.1.06.2.13.27v-.27c.07-.08.17-.13.27-.13.65-.02,1.28.23,1.75.67.18-.09.45.04.81.41v5.6c0,.32-.02.63-.07.95-.05.22-.09.5-.14.81-.04.32-.09.61-.13.88-.04.27-.07.54-.07.81v7.42c.09.36.27.5.54.41.06.15.1.31.13.47.03.1.07.19.13.27.08.1.12.22.14.34.1.65.12,1.3.07,1.96-.04.86-.07,1.42-.07,1.69,0,.09.09.22.27.4.12-.44.17-.9.13-1.35l.14-1.08v-1.08c0-.18-.02-.36-.07-.54-.04-.18-.09-.41-.13-.67-.04-.22-.06-.45-.07-.68.15.25.24.52.27.81v-.67c.11-.1.26-.15.4-.14l.14-.13.27-.13.41-.13v-.14l.13-.27v-.27c.07-.08.17-.13.27-.13h.4v.41h.14l.13-.13v-.54h-.13l-.14-.14v-.27l-.13-.13v-.14h-.13v-.4l.13-.27v-.27h.13l-.13-.27v-.13h-.13v-.41s.02,0,.03,0c.07,0,.11-.07.1-.13.07-.12.12-.26.13-.41v-.13h-.13l-.13.13v-.27l.13-.14v-.27c.13-2.07.15-4.14.07-6.21-.04-3.78-.07-5.8-.07-6.07l.13-.81.34.07c.22.04.34.02.34-.07v-.27c.01-.15-.04-.29-.13-.41v-.4s0-.02,0-.03c0-.06.07-.11.13-.1.01,0,.02,0,.03,0,.06,0,.11-.07.1-.13l-.27-.27-.13.13v.13c-.18-.27-.36-.41-.54-.41v-.13c-.07-.12-.12-.26-.13-.41.01,0,.02,0,.03,0,.06,0,.11-.07.1-.13.11.12.2.26.27.41.07.15.16.29.27.41v-.27l-.07-.13-.07-.2v-.07l-.27-.27s0-.02,0-.03c0-.07.07-.11.13-.1v-.14l-.13-.13v-.13c-.12-.07-.26-.12-.41-.13v-.14c.09-.18.11-.29.07-.34-.05-.04-.11-.02-.2.07l-.2-.13h-1.15c-.11-.05-.22-.1-.34-.14l-.2-.07-.14-.07h-.13s-.02,0-.03,0c-.07,0-.11-.07-.1-.13h-.41l-.13-.13c-.39-.15-.8-.24-1.21-.27-.54-.08-1.08-.13-1.62-.13v-.27h-.14l-.13.14v.13l-.13.13h-1.75c-.27-.36-.5-.67-.68-.95v-.13c-.12.07-.26.12-.4.13,0,.09-.07.14-.2.14-.1-.01-.19.01-.27.07-.06.05-.13.07-.2.07-.16.11-.35.16-.54.13h-.4c-.17.07-.36.11-.54.13-.75-.22-1.52-.35-2.3-.4-.77-.09-1.56,0-2.29.27-.56.2-1.16.29-1.75.27h-.13c-.18-.09-.32-.23-.41-.41v.13c0,.09.13.23.41.41-.67.17-1.34.31-2.03.41-.88.26-1.79.44-2.7.54-.9.18-1.53.31-1.89.4h-.4l-.27-.13-.34-.07-.07-.07c-.09,0-.18.09-.27.27-.17.15-.35.29-.54.41-.32,0-.64.04-.95.14-.11.1-.26.15-.41.13-.22.06-.45.11-.67.13l-.27.13h-.27c-.11.1-.26.15-.41.13h-.27l-.27.07c-.13.04-.27.06-.4.07l-.2.13h-.47c-.09-.09-.14-.09-.14,0l.14.13h-.14v-.13s-.04-.03-.07-.03c-.14-.05-.29.03-.34.17l-.14.13-.07-.13c-.03-.08-.11-.14-.2-.13-.09,0-.32.18-.67.54-.33.09-.65.22-.95.41-.19-.02-.38.03-.54.13h-.27l-.27-.07v.47c-.09-.26-.13-.53-.13-.81.08-.07.13-.17.13-.27l.07-.14c.04-.09.02-.13-.07-.13l-.2.13h-.07v.14c0,.23-.04.46-.13.67-.09,0-.13.09-.13.27v.14h-.27v-.14l.2-.34.2-.2v-.54l.13-.13s.02,0,.03,0c.07,0,.11-.07.1-.13-.18-.18-.45-.13-.81.13-.01,0-.02,0-.03,0-.06,0-.1.05-.1.11v-.51s0-.02,0-.03c0-.06.07-.11.13-.1v-.2s-.03-.07-.07-.07-.07.03-.07.07c0,.05-.03.1-.07.13-.04.03-.06.08-.07.13,0,0,0,.01,0,.02,0,.03-.03.06-.07.05-.04,0-.07.04-.07.14v-.41c-.07-.08-.17-.13-.27-.13.02.14.06.28.13.4,0,.01,0,.02,0,.03,0,.06-.07.11-.13.1v.27c.01.25-.16.48-.41.54h-.13c-.2-.22-.29-.51-.27-.81v-.41l.14-.13c.16-.14.26-.33.27-.54,0-.18-.04-.27-.13-.27s-.13.09-.13.27c-.15.25-.24.52-.27.81.09.18.09.32,0,.41-.09,0-.13-.09-.13-.27-.08-.07-.13-.17-.14-.27l-.27-.13-.13.13-.07.13h-.07l.14-.13-.14-.13s-.02,0-.03,0c-.06,0-.11-.07-.1-.14,0-.01,0-.02,0-.03,0-.06-.07-.11-.13-.1v-.54c.09-.17.09-.37,0-.54,0-.09-.09-.22-.27-.41v.14l-.13.13-.41-.41h-.13l.13.27.27.27v.27l-.27-.14h-.13c-.02-.14-.06-.28-.13-.4-.07-.15-.16-.29-.27-.41,0,.27.05.41.14.41v.4h-.41l-.41-.13-.41-.2c-.08-.04-.18-.07-.27-.07l-.07-.14h-.07v.14c-.18,0-.41-.18-.67-.54-.15-.21-.31-.41-.48-.61.09.1.16.22.21.34.08.16.17.32.27.47.1.15.19.31.27.47-.12.07-.26.12-.41.13-.11-.1-.26-.15-.4-.13h-.27c-.12-.11-.26-.2-.41-.27-.15-.07-.28-.16-.41-.27-.16-.13-.34-.22-.54-.27-.18-.09-.43-.23-.74-.41-.28-.16-.57-.3-.88-.41l.81.54c.26.14.51.3.74.47.18.15.38.27.61.34l.41.41v.13c-.36-.09-.68-.28-.94-.54-.07-.08-.17-.13-.27-.13.34.3.62.67.81,1.08-.11.1-.26.15-.41.13v-.4l-.13-.14s0-.02,0-.03c0-.06-.07-.11-.14-.1h-.13c-.13.16-.22.34-.27.54l-.07-.13h-.07s-.02,0-.03,0c-.06,0-.11-.07-.1-.13h-.41c-.11-.1-.26-.15-.4-.14v-.27c.09,0,.09-.04,0-.13,0-.09-.09-.14-.27-.14l-.13.27v.27c.11.1.26.15.41.14l.27.27v.13c.17.08.26.17.27.25,0,0,.01,0,.02,0,.02-.05,0-.13-.08-.25l-.13-.2-.07-.07h.27c.2.05.38.14.54.27l.14.14v.27c-.1,0-.2-.06-.27-.13,0-.01,0-.02,0-.03,0-.06-.07-.11-.13-.1-.07,0-.15.02-.2.07-.01.02-.03.03-.05.04,0,0,0,.02-.02.03,0,0,0-.01,0-.02-.02,0-.04.01-.07.02-.04,0-.07.04-.07.13-.44-.11-.9-.15-1.35-.13-.24-.13-.47-.29-.68-.47-.21-.18-.43-.34-.67-.47-.3-.06-.58-.2-.81-.41l-.27-.27c-.18-.09-.27-.18-.27-.27l-.27-.13v.27s0,.02,0,.03c0,.06.07.11.14.1,0,.09.18.27.54.54,0,.09.04.17.1.23.01.01.03.03.04.04v.14h.13s0,.02,0,.03c0,.06.07.11.13.1.14.02.28.06.41.13s.26.12.41.13c.28.21.55.43.81.68l.13.13h.27l.27.2.14.2h.54v.13c-.46-.02-.92-.11-1.35-.27-.09-.09-.13-.16-.13-.2,0,0,0-.01,0-.02,0-.03-.03-.05-.07-.05-.04,0-.11-.04-.2-.13l-.54-.54h-.27l-.13.13v.13h-.27v.13c.12.01.24.06.34.14.1.08.21.12.34.13l.54.41c.21.29.48.52.81.67.11.12.2.26.27.41-.18,0-.34-.11-.41-.27-.07-.08-.17-.13-.27-.13h-.54c.09,0,.18.09.27.27,0,.1.06.2.13.27v.13h.13c.14.02.28.06.41.13v.14l-.07.07c-.06.05-.13.07-.2.07-.15-.17-.29-.35-.4-.54-.2-.12-.44-.17-.67-.13v-.14s0-.02,0-.03c0-.06-.07-.11-.14-.1h-.13c-.09-.09-.13-.09-.13,0v.27h.27c.15.07.29.16.41.27-.08.07-.13.17-.13.27h-.68l.14.13h.13s.02.02.03.03c.07.06.18.04.24-.03l.14.13h-.13c.1,0,.2.06.27.13h.13l.14.14c-.45.09-.68.18-.68.27l.34-.13h.2c.08.07.13.17.14.27h-.68l-.13.14v.27c-.16.28-.34.55-.54.81-.2.25-.38.53-.54.81l-.54,2.83c.35.1.72.12,1.08.07.45-.05.81-.07,1.08-.07v.14l.13.13h.14c.09-.18.18-.27.27-.27.07,0,.15-.02.2-.07.06-.1.08-.22.07-.34v-.14c0-.1.06-.2.14-.27.15.01.29-.04.41-.13,0-.1-.06-.2-.14-.27h-.13s0-.02,0-.03c0-.07.07-.11.13-.1.11-.12.2-.26.27-.41h1.48c.37-.04.73-.14,1.08-.27.21-.16.43-.3.68-.41l.81-.54c.52-.2,1.07-.33,1.62-.41h.67c.17-.08.36-.11.54-.07.17.07.36.11.54.13.22.04.45.06.67.07l.13.14s0,.02,0,.03c0,.06.07.11.13.1l.13.13h.41c-.07-.08-.17-.13-.27-.13l-.14-.13h.14l.13.13h.27c-.09.09-.09.13,0,.13l.13.13h.27c.57.25,1.08.62,1.49,1.08.19.34.33.7.41,1.08l.27.41c0,.19.05.37.13.54.07.15.16.29.27.41.17.28.22.62.13.95l.41.27v.13c-.01.15.04.29.13.41,0,.01,0,.02,0,.03,0,.07.07.11.14.1v.54h-.41s-.02,0-.03,0c-.07,0-.11.07-.1.14,0,.1.06.2.13.27h.13l.13-.13h.14c0,.1-.06.2-.14.27.09.36.04.58-.13.68-.28.16-.55.34-.81.54-.27.18-.5.41-.67.67-.16.13-.32.27-.48.4-.39.34-.77.68-1.14,1.04-.37.36-.74.73-1.09,1.12h-.67c-.18-.09-.27-.04-.27.13h-.14c-.28-.18-.63-.23-.94-.13-.23,0-.45-.03-.68-.07-.18-.03-.36-.06-.54-.07h-.13s-.02,0-.03,0c-.07,0-.11-.07-.1-.13-.1,0-.2-.06-.27-.13h-.13l-.13-.13-.34-.14-.2-.13c-.09,0-.09-.04,0-.13h-.27c-.09,0-.22-.09-.4-.27-.14-.16-.33-.26-.54-.27l-.14-.13h-.13v-.41c-.99-.45-1.49-.72-1.49-.81-.14-.45-.37-.86-.67-1.21-.1-.1-.19-.22-.27-.34-.09-.13-.2-.25-.34-.34-.13-.09-.21-.24-.2-.41-.13-.16-.22-.34-.27-.54h-.67c-.07-.08-.17-.13-.27-.13h-1.08l-.13.13h-.27c-.09,0-.09.04,0,.13h.13l.13.14.27.13.27.27c0,.1.06.2.13.27h-.27l-.27.13c-.18,0-.27.04-.27.13-.12.07-.26.12-.41.14v.13l.27-.07.13-.07h.27l.13.13h.14l.13.13c-.07.08-.17.13-.27.13,0,.01,0,.02,0,.03,0,.06-.05.1-.11.1h.11v.13c0,.1-.06.2-.13.27-.01,0-.02,0-.03,0-.06,0-.11.07-.1.14h.13c.09,0,.09.04,0,.13v.13s0,.02,0,.03c0,.07-.07.11-.13.1l-.13.14c0,.09.04.09.13,0,.1,0,.2-.06.27-.14h.27c0,.1-.06.2-.13.27h.4l.14-.13c.08.07.13.17.13.27-.11.1-.26.15-.41.13-.1,0-.2.06-.27.14h-.14s-.02,0-.03,0c-.06,0-.11.07-.1.13h.13l.27.13v.13c.1,0,.2-.06.27-.13h.27s0,.02,0,.03c0,.07-.07.11-.13.1v.14l-.13.13h0c.1,0,.2-.05.27-.13h.13l-.54.54.14.13-.27.13s-.02,0-.03,0c-.07,0-.11.07-.1.13l-.27.27s-.02,0-.03,0c-.06,0-.11.07-.1.13.18-.02.37-.07.54-.13h.27l-.14.13c-.08.07-.13.17-.13.27h.13s.02-.02.03-.03c.08-.06.18-.04.24.03.29.39.56.79.81,1.21l.41.41v.13l.13.13h.13s0,.02,0,.03c0,.07.07.11.14.1v.27h.13l.13.13.27.13.13.14s.02,0,.03,0c.07,0,.11.07.1.13v.13l.27.27v.07s.04.07.13.07c.07.08.17.13.27.13l.07-.07c.06-.05.13-.07.2-.07v.67c-.27.45-.71.79-1.21.95l-.34.13h-.2l-.27.13h-1.21l-.13.14.13.13c0,.1.06.2.13.27l.07.07c.05.06.07.13.07.2.08.07.13.17.14.27.08.07.13.17.13.27l-.13-.27c-.09-.09-.13-.16-.13-.2s-.04-.07-.14-.07v-.2l-.07-.14-.2-.2-.27-.27h-4.45c-.12.07-.26.12-.41.14-.11,0-.23.03-.34.07-.11.04-.22.06-.34.07-.27.09-.72.27-1.35.54-.18.18-.32.27-.41.27-.08.14-.17.28-.27.41l-.2.27-.07.13-.13.27c-.02.14-.06.28-.14.41v.2s-.04.11-.13.2v.13c-.09,0-.13-.09-.13-.27h.13v-.27c.07-.15.16-.29.27-.41v-.13c-.22.24-.4.51-.54.81-.01,0-.02,0-.03,0-.06,0-.11.07-.1.13-.2.28-.34.6-.41.95-.09.36.14.58.68.67.02.25.12.48.27.67,0,.2-.03.41-.07.61-.04.16-.06.31-.07.47v1.08c-.13.58-.18,1.17-.13,1.75h-.27s-.02-.07-.07-.34c-.04-.23-.06-.35-.07-.35.03-.15.05-.31.07-.46l.07-.54v-.88s.02-.02.03-.03c.06-.08.04-.18-.03-.24l.14-.27c0-.09-.14-.18-.41-.27h-.27l-.13-.41c-.09-.18-.18-.18-.27,0-.09,0-.09.14,0,.41l.41.27s.02,0,.03,0c.07,0,.11.07.1.13l.14.27v1.08c-.07-.08-.17-.13-.27-.13.01-.17-.11-.31-.27-.34-.18-.04-.27-.02-.27.07-.08.07-.13.17-.13.27,0,.12.03.23.07.34.04.11.06.22.07.34.1.21.14.44.13.68,0,.19-.05.37-.13.54v.27l.13.13h.27c.18.09.27.18.27.27,0,.11-.03.23-.07.34-.05.11-.02.25.07.34l.67,1.21c.34.57.86.99,1.49,1.22-.05-.5-.15-1-.27-1.49v-.81c.02-.32.06-.63.13-.94.12-1,.44-1.96.95-2.84.21-.3.39-.61.54-.94l.27-.27v.13l-.14.14v.07c0,.07-.03.14-.07.2-.04.06-.06.13-.07.2,0,.07-.03.14-.07.2-.03.08-.11.14-.2.13l.13.13.27-.4c0-.12.03-.23.07-.34.03-.1.07-.19.14-.27.06-.06.1-.13.13-.2.05-.1.12-.19.2-.27,0-.1.06-.2.14-.27l.13-.27.74-.54.47-.27c.49-.31,1.04-.5,1.62-.54.3-.02.59-.06.88-.13.29-.07.58-.12.88-.13h6.48s-.07.05-.1.08c-.36.34-.38.91-.04,1.27.14.53.19,1.08.13,1.62v.88c.02.3-.03.6-.13.88v.88c.03.26-.01.51-.13.74,0,.34.03.68.07,1.01.04.41.07.7.07.88,0,.34-.03.68-.07,1.01-.04.4-.07.65-.07.74l.13,1.01v2.16c0,.13-.02.45-.07.95-.04.5-.02.79.07.88l.07.2.07.07.14-.07c.08-.03.14-.11.13-.2v-1.08c.1-.42.12-.85.07-1.28-.04-.58-.07-.97-.07-1.15.09-.21.12-.45.07-.67-.03-.18-.06-.36-.07-.54,0-.27.02-.74.07-1.42.05-.52.03-1.04-.07-1.55-.09,0-.11-.31-.07-.95.04-.63.07-.99.07-1.08.01-.18.03-.36.07-.54.04-.22.06-.45.07-.67v-1.15c-.01-.39.03-.77.13-1.15.16-.29.34-.56.54-.81-.08-.26-.12-.54-.13-.81l.13-.13c.99.44,2.04.75,3.11.94.09.18.18.27.27.27.09.09.18,0,.27-.27h1.62c.09,1.12.09,2.25,0,3.38v.13l.13.2.13.07.14-.13v-.41c.09-1.53.13-2.61.13-3.24,1.26.09,2.12.14,2.57.14v4.59h-.27l-.13-.13-.13.13.13.13h.13c.1.21.14.44.13.68,0,.1.06.2.14.27h.27l.07-.34.07-.2v-.54c0-.36.02-1.04.07-2.03.04-.99.07-1.75.07-2.29.1,0,.2-.06.27-.13.12-.07.26-.12.41-.13h1.62l-.13,1.21v1.49l-.14,3.24v1.62l-.07.34-.13.41c-.04.11-.06.22-.07.34.05.2.14.38.27.54,0,.27.09.36.27.27v-.13c.07-.17.11-.36.13-.54.09,0,.32-.32.67-.95v-.13l-.13-.13c-.02-.14-.06-.28-.13-.41.09-.09.09-.32,0-.67h-.27v-.27h.27c.07,0,.15-.02.2-.07.04-.04.02-.07-.07-.07-.01,0-.02,0-.03,0-.06,0-.11-.07-.1-.13-.21-.27-.3-.61-.27-.95h.27s0-.02,0-.03c0-.07-.07-.11-.13-.1h-.13c.08-.07.13-.17.13-.27-.02-.14-.06-.28-.13-.4,0-.18.04-.72.13-1.62,0-.54.04-1.4.13-2.57h.13c.16.02.32.06.47.13.15.07.31.12.47.13.63.27.95.5.95.68.03.17.1.33.2.47.1.14.17.3.2.47,0,.45-.02,1.08-.07,1.89-.04.81-.07,1.39-.07,1.75,0,.1.06.2.13.27h.27c.09,0,.13-.09.13-.27v-3.78c.25.15.48.33.68.54.2.21.42.39.67.54.08.07.13.17.13.27,0,.18.04.27.13.27,0,.09.09.16.27.2.18.04.27.11.27.2l.95.94v.27l.07.2.07.07c.1,0,.2-.06.27-.13l.27.27c0,.09.04.09.13,0,.09,0,.09-.04,0-.14v-.27h.14c.34.27.62.62.81,1.01.27.5.45.83.54,1.01.18.09.54.31,1.08.67.09,0,.36.22.81.67-.1.11-.15.26-.14.41l.27-.41c.09.54.31.86.67.95.18,0,.45.22.81.67l.13-.13v.27c.27.18.41.36.41.54.12.23.26.46.4.68,0,.18.04.27.14.27v-.27l-.14-.14v-.13c.36.36.58.54.68.54l.67.54.54.54-.07.07c-.06.05-.13.07-.2.07.12.19.26.37.41.54.41.31.77.67,1.08,1.08,0,.18.04.27.13.27h.14c0-.07.02-.15.07-.2.05-.06.07-.13.07-.2v-.13s0-.02,0-.03c0-.07-.07-.11-.13-.1l-.14-.41h.27c.07.08.17.13.27.13.09,0,.09-.09,0-.27v-.41c-.07-.08-.17-.13-.27-.13h.41v.13c.09,0,.13-.09.13-.27l.07-.2-.2-.2h-.14c-.15-.07-.28-.16-.4-.27l-.14-.13s0-.02,0-.03c0-.07-.07-.11-.13-.1v-.14l-.27-.14h-.14c0-.09-.09-.13-.27-.13-.07-.08-.17-.13-.27-.13l.41.41.13.27.14.13c.12.11.26.2.4.27l.27.27-.13.14h-.41l-.27-.27v.41h-.27v-.27l.13-.13s0-.02,0-.03c0-.07-.07-.11-.13-.1l-.27-.27s-.02.02-.03.03c-.06.08-.04.18.03.24-.18,0-.22-.09-.13-.27l.27-.27-.27-.27c-.11-.13-.18-.3-.2-.47-.02-.17-.09-.34-.2-.47-.33,0-.66.09-.94.27-.06-.24-.15-.46-.27-.67.12.11.26.2.41.27h.27l-.13-.14c-.1,0-.2-.06-.27-.13-.11-.12-.2-.26-.27-.41-.12-.11-.26-.2-.41-.27-.15-.14-.29-.3-.4-.47-.1-.14-.24-.24-.41-.27-.15-.03-.29-.1-.41-.2l-.13-.54-.27.13c.01-.15-.04-.29-.13-.4l-.54-.68c-.16-.11-.35-.16-.54-.13-.01,0-.02,0-.03,0-.07,0-.11-.07-.1-.13-.08-.07-.13-.17-.13-.27,0-.01,0-.02,0-.03,0-.06-.07-.11-.14-.1v-.47c0-.05-.03-.1-.07-.13-.06-.05-.13-.07-.2-.07-.32-.16-.6-.39-.81-.67-.18-.29-.32-.61-.4-.95.01-.15-.04-.29-.14-.41-.15-.25-.33-.48-.54-.67.02.14.06.28.14.41l.27.27c-.18.02-.37.07-.54.14-.13-.15-.24-.3-.34-.47-.1-.17-.21-.33-.34-.47v-.54l.27.13h.14s0-.04,0-.07c-.02-.13-.14-.22-.27-.2.09-.18.07-.23-.07-.13l-.2.13-.14.13c-.18-.09-.32-.23-.4-.41v-.13l-.27-.27.13-.54-.54-.54c0-.36.14-.36.41,0,.2.3.48.54.81.67,0,.09.09.22.27.41.23.22.32.29.27.2-.04-.09.02-.04.2.13.18.18.23.27.13.27s-.02.09.2.27l.34.27.34.34.74.61.88.88h-.13v.27h.27v-.14l.14.14c.34.42.7.83,1.08,1.21l.34.2.34.34c.11.44.15.9.13,1.35v.14c.09.18.22.18.41,0v-1.76c.18.09.27.09.27,0,.07-.08.17-.13.27-.13.01,0,.02,0,.03,0,.06,0,.11-.07.1-.13l-.41-.54s0-.02,0-.03c0-.07-.07-.11-.13-.1l-.13-.27c-.15-.07-.29-.16-.41-.27l-.13-.13c0-.1-.06-.2-.14-.27h-.13l-.13-.27s-.02,0-.03,0c-.07,0-.11-.07-.1-.13h-.14l-.13-.2v-.07s0-.02,0-.03c0-.07-.07-.11-.13-.1l-.13-.27-.27-.13-.13-.13c-.07-.08-.17-.13-.27-.14-.45-.45-1.03-1.08-1.75-1.89l-1.21-1.22c.58.14,1.16.23,1.75.27.26-.1.53-.15.81-.13h.94c.17.09.35.13.54.13.18-.09.32-.23.41-.41.36,0,.72.27,1.08.81.76.58,1.44,1.26,2.03,2.02.27.27.45.41.54.41.63-.19,1.3-.14,1.89.14.25.15.48.33.68.54.27.27.4.45.4.54.18.18.5.47.95.88s.81.74,1.08,1.01l1.75,1.89,3.24,3.24c.57.69,1.2,1.32,1.89,1.89.39.43.85.79,1.35,1.08v-.41c.45.36,1.04.86,1.76,1.49-.03.42.06.84.27,1.21v-.95c.36.36.9.88,1.62,1.55.72.68,1.26,1.15,1.62,1.42.18.18.47.45.88.81.33.28.62.6.88.95.47.34.92.7,1.35,1.08.63.54,1.12.95,1.49,1.21-.01-.15.04-.29.13-.4v-.27ZM69.3,62.16l.13-.13c.08.07.13.17.14.27h-.27v-.13ZM68.76,67.69h-.67c-.15.01-.29-.04-.41-.13.18-.18.54-.13,1.08.13ZM66.87,52.44s.02,0,.03,0c.06,0,.11.07.1.13l-.14.14h-.13c0-.1.06-.2.13-.27ZM65.93,52.98h.27v.13l-.13.14h-.13l-.07-.2.07-.07ZM52.29,50.82c-.18.09-.22.04-.13-.13.01,0,.02,0,.03,0,.07,0,.11.07.1.13ZM58.64,49.2v-.13h.27c-.07.08-.17.13-.27.13ZM61.74,54.06l-.13-.2-.14-.07v-.14c.15-.01.29.04.41.14v.13l.13.13h-.27ZM50.27,73.77c-.07-.12-.12-.26-.14-.41l-.13-.13v-.14l.13.14v.13l.14.2v.2ZM64.98,52.44h.13l.13.13h-.13l-.13-.13ZM65.25,53.79l-.13-.14v-.13c.09-.18.18-.18.27,0v.13c.09,0,.11.02.07.07-.06.05-.13.07-.2.07ZM66.87,70.39h-.13v-.13s.02,0,.03,0c.07,0,.11.07.1.13ZM83.88,89.02v.27s-.02-.02-.03-.03c-.06-.07-.04-.18.03-.24Z"/></g></g></g></svg>