<?xml version="1.0" encoding="UTF-8"?><svg id="Layer_1" xmlns="http://www.w3.org/2000/svg" viewBox="0 0 144 144"><defs><style>.cls-1{fill:#c23d27;}.cls-2{opacity:0;}.cls-3{fill:#c68778;}.cls-4{fill:#2f1718;}</style></defs><rect class="cls-2" width="144" height="144"/><polygon class="cls-4" points="72.27 130.84 128.26 90.16 106.87 24.34 37.67 24.34 16.28 90.16 72.27 130.84"/><polygon class="cls-1" points="39.99 108.86 39.99 119.96 72.27 143.41 104.55 119.96 104.55 108.86 72.54 131.49 39.99 108.86"/><path class="cls-1" d="M39.73,27.53l-20.1,61.88,52.64,38.25,52.64-38.25-20.11-61.88H39.73ZM72.27,135.42L12.25,91.81,35.18,21.25h74.18s22.93,70.56,22.93,70.56l-60.02,43.61Z"/><path class="cls-3" d="M105.26,47.16v.39l-16.04,15.89c4.66,6.6,5.15,14.88,1.39,21.97l8.35,8.32c1.62,1.65,1.74,4.07.26,5.8-1.32,1.55-4.15,2.12-5.86.42l-9.31-9.27c.37-.66,1.11-1.35,1.74-1.48l6.64,6.61c.82-1.35,1.63-2.08,2.73-2.65l-7.07-7.11c6.28-9.48,3.06-22.04-7.04-27.25l-.05,8.28c4.7,4.72,4.61,12.13.17,16.73s-12.04,4.83-16.75.35c-4.71-4.49-5.07-12.13-.23-16.99l.03-8.43c-10.16,5.07-13.55,17.81-7.19,27.3l-7.04,7.1c1.15.71,1.96,1.44,2.71,2.68l6.76-6.74,1.69,1.51-9.47,9.42c-1.63,1.62-4.32,1.11-5.67-.34-1.55-1.66-1.56-4.18.1-5.89l8.39-8.37c-3.73-6.97-3.22-14.97,1.04-21.52l-16.79-16.71v-.33l1.61-1.31,16.56,16.55c3.81-4.15,8.72-6.82,14.5-7.11l.11-4.89,1.95.12.03,4.72c5.6.31,10.43,2.71,14.32,6.73l15.8-15.79,1.66,1.31ZM71.48,63.58l-.03-6.86c-2.18.25-3.8.6-5.55,1.25l.03,7.54c1.93-.91,3.34-1.42,5.55-1.94ZM79.27,65.46l.04-7.45c-1.82-.69-3.54-1.06-5.82-1.28v6.83c2.17.42,3.74.98,5.79,1.9Z"/><path class="cls-3" d="M49.18,87.11c-3.32-6.87-3.58-14.34-.75-21.54l-6.83-6.91c.09-.39.64-.97,1.14-1.24l7.72,7.72c-3.02,6.7-3.02,13.98-.06,20.64-.03.4-.64,1.06-1.22,1.33Z"/><path class="cls-3" d="M96.07,87.08c-.65-.11-1.43-.91-1.2-1.43,2.95-6.64,2.83-13.81-.1-20.49l7.31-7.3c.33-.33,1.49.87,1.18,1.18l-6.46,6.51c2.7,7.04,2.64,14.63-.73,21.53Z"/><path class="cls-3" d="M73.44,109.64c0,.41-1.32.46-1.69.2v-20.04s1.69-.04,1.69-.04v19.88Z"/><path class="cls-3" d="M65.9,102.07c-.51.08-1.26.07-1.67-.01v-14.86c.49.05,1.35.53,1.67.96v13.91Z"/><polygon class="cls-3" points="79.31 98.77 79.29 88.1 80.98 87.01 81.01 98.71 79.31 98.77"/></svg>