<?xml version="1.0" encoding="UTF-8"?><svg xmlns="http://www.w3.org/2000/svg" viewBox="0 0 144 144"><defs><style>.cls-1{opacity:0;}.cls-2{fill:#252b1f;}.cls-3{fill:#5ca76b;}.cls-4{fill:#98cc9e;}</style></defs><g id="Layer_2"><rect class="cls-1" width="144" height="144"/></g><g id="Layer_1"><rect class="cls-1" x="0" width="144" height="144"/><polygon class="cls-2" points="72.27 13.1 16.28 53.78 37.67 119.59 106.87 119.59 128.26 53.78 72.27 13.1"/><polygon class="cls-3" points="104.55 35.07 104.55 23.98 72.27 .52 39.99 23.98 39.99 35.07 72 12.44 104.55 35.07"/><path class="cls-3" d="M124.91,54.52l-52.64-38.24L19.63,54.52l20.11,61.89h65.07s20.1-61.89,20.1-61.89ZM72.27,8.52l60.02,43.61-22.93,70.55H35.18S12.25,52.13,12.25,52.13L72.27,8.52Z"/><polygon class="cls-4" points="112.93 85.91 96.37 85.92 73.27 62.83 73.27 39.71 79.19 45.5 79.19 52.37 112.93 85.91"/><polygon class="cls-4" points="31.81 85.93 65.55 52.4 65.58 45.56 71.51 39.71 71.54 62.81 48.44 85.9 31.81 85.93"/><polygon class="cls-4" points="88.06 87.73 72.31 104.29 56.53 87.71 88.06 87.73"/><polygon class="cls-4" points="89 85.9 79.43 85.91 73.27 79.8 73.41 66.13 88.99 81.55 89 85.9"/><polygon class="cls-4" points="65.42 85.86 55.82 85.92 55.8 81.54 71.4 66.09 71.52 79.78 65.42 85.86"/><path class="cls-4" d="M109.24,79.63l-27.53-27.54c.64-.77,1.27-1.45,2.04-2.2l29.4,29.69-3.92.06Z"/><path class="cls-4" d="M35.83,79.54c-1.75.11-3.25.11-4.99.01l29.4-29.68c.78.76,1.4,1.43,2.04,2.21l-26.45,27.46Z"/></g></svg>