<?xml version="1.0" encoding="UTF-8"?><svg xmlns="http://www.w3.org/2000/svg" viewBox="0 0 144 144"><defs><style>.cls-1{fill:#487ea2;}.cls-2{fill:#86b2cd;}.cls-3{opacity:0;}.cls-4{fill:#1f3b47;}</style></defs><g id="Layer_2"><rect class="cls-3" width="144" height="144"/></g><g id="Layer_1"><rect class="cls-3" x="0" width="144" height="144"/><polygon class="cls-4" points="131.14 71.97 90.46 15.98 24.64 37.37 24.64 106.57 90.46 127.96 131.14 71.97"/><polygon class="cls-1" points="109.17 104.25 120.26 104.25 143.71 71.97 120.26 39.68 109.17 39.68 131.8 71.7 109.17 104.25"/><path class="cls-1" d="M92.1,11.95l43.61,60.02-43.61,60.02-70.55-22.93V34.88S92.1,11.95,92.1,11.95ZM89.71,19.33l-61.89,20.11v65.07s61.89,20.1,61.89,20.1l38.24-52.64-38.24-52.64Z"/><g id="Layer_2-2"><g id="Layer_1-2"><path class="cls-2" d="M114.75,70.67c-3.9,1-6.18,1.62-6.85,1.84-4.57,1.11-8.8,2.23-12.7,3.34-1.15.29-2.32.46-3.51.5-.45-.11-.72-.06-.84.17-.45.22-1.78,1.06-4.01,2.51.67.11,1.39.78,2.17,2,.33.47.26,1.12-.17,1.5-.73.72-1.4,1.51-2,2.34-.21.33-.63.47-1,.33h-1.84c-.14.35-.23.71-.25,1.09-.01.4-.16.78-.42,1.09-.89.56-1.56.72-2,.5l-.33.84c-.67,2.23-1.17,3.84-1.5,4.85-.17.59-.52,1.12-1,1.5-.31.18-.59.41-.84.67l-.67.67c-1.06.86-1.92,1.94-2.51,3.17-.33.77-1.01,1.34-1.84,1.5-.87.23-1.79.04-2.51-.5-.31-.31-.59-.64-.84-1-.52-1.32-1.38-2.48-2.51-3.34-.24-.24-.49-.46-.75-.67-.18-.16-.38-.3-.58-.42-.14-.08-.25-.2-.33-.33-.07-.12-.16-.23-.25-.33-.1-.13-.19-.27-.25-.42-.09-.15-.15-.32-.17-.5-.03-.26-.09-.51-.17-.75-.11-.39-.22-.75-.33-1.09-.11-.33-.28-.86-.5-1.59-.14-.48-.3-.96-.5-1.42l-.33-.84c-.71.19-1.47,0-2-.5-.26-.31-.4-.69-.42-1.09-.06-.5-.08-.81-.08-.92-.22,0-.89-.06-2-.17-.44,0-.87-.18-1.17-.5-.33-.34-.63-.71-.92-1.09-.29-.38-.59-.74-.92-1.09-.45-.59-.45-1.41,0-2,.11,0,.28-.17.5-.5.56-.67,1.06-1,1.5-1-2.23-1.45-3.56-2.34-4.01-2.67h-.84c-2-.33-3.06-.5-3.17-.5-2.34-.56-8.8-2.23-19.38-5.01l-.5-.17c-.12-.56-.06-1.15.17-1.67,4.12-6.24,6.18-9.41,6.18-9.52,2.16-3.13,4.75-5.94,7.69-8.35,2.11-1.57,4.35-2.97,6.68-4.18.08.01.16-.04.17-.12,0-.01,0-.03,0-.04,4.53-2.24,9.37-3.76,14.37-4.51,2.43-.44,4.89-.67,7.35-.67,2.75.04,5.49.32,8.19.84,3.12.56,6.19,1.34,9.19,2.34,1.39.49,2.73,1.11,4.01,1.84,4.11,1.86,7.8,4.53,10.86,7.85,2.48,2.53,4.66,5.33,6.52,8.35,1.67,2.56,2.95,4.62,3.84,6.18.32.49.44,1.09.33,1.67ZM71.89,87.04c1.03.01,2.02-.38,2.76-1.09.76-.68,1.19-1.65,1.17-2.67.03-2.05-1.61-3.73-3.66-3.76-.03,0-.07,0-.1,0-1.03-.01-2.02.38-2.76,1.09-.76.68-1.19,1.65-1.17,2.67-.03,2.05,1.61,3.73,3.66,3.76.03,0,.07,0,.1,0h0Z"/></g></g></g></svg>