<?xml version="1.0" encoding="UTF-8"?><svg id="Layer_1" xmlns="http://www.w3.org/2000/svg" viewBox="0 0 144 144"><defs><style>.cls-1{fill:#487ea2;}.cls-2{fill:#86b2cd;}.cls-3{opacity:0;}.cls-4{fill:#1f3b47;}</style></defs><rect class="cls-3" width="144" height="144"/><polygon class="cls-4" points="131.14 71.97 90.46 15.98 24.64 37.37 24.64 106.57 90.46 127.96 131.14 71.97"/><polygon class="cls-1" points="109.17 104.25 120.26 104.25 143.71 71.97 120.26 39.68 109.17 39.68 131.8 71.7 109.17 104.25"/><path class="cls-1" d="M92.1,11.95l43.61,60.02-43.61,60.02-70.55-22.93V34.88S92.1,11.95,92.1,11.95ZM89.71,19.33l-61.89,20.11v65.07s61.89,20.1,61.89,20.1l38.24-52.64-38.24-52.64Z"/><path class="cls-2" d="M93.44,106.06c-16.88,10.32-38.32,6.51-50.88-8.1-12.66-14.73-12.84-36.57-.34-51.53,12.37-14.81,33.85-18.8,50.77-8.78,12.04,7.13,19.41,19.93,19.61,33.7.2,14.06-6.86,27.19-19.16,34.71ZM75.81,108.96c16.85-1.38,30.25-13.93,33.32-29.82,3.21-16.6-4.99-33.05-20.21-40.5-14.25-6.98-31.21-3.98-42.34,7.16-10.99,11.01-14.12,27.86-7.18,42.29,6.46,13.44,20.7,22.16,36.4,20.87Z"/><path class="cls-2" d="M87.38,73.1l-9.07,7.2c-3.37,2.68-8.05,2.7-11.44,0l-14.51-11.57c-2.4-1.92-4.62-3.96-6.66-6.25-2.33-2.63-2.56-6.74-1.02-9.66,1.1-2.1,2.9-3.27,5.28-3.27h45.26c2.37,0,4.18,1.16,5.28,3.27,1.7,3.24,1.18,7.64-1.55,10.38-3.59,3.6-7.45,6.64-11.57,9.91Z"/><path class="cls-2" d="M70.7,84.76c4.86-1.11,9.1,1.99,10.12,6.33,1.07,4.58-1.79,9.09-6.32,10.16s-8.91-1.65-10.08-6.05,1.36-9.32,6.27-10.44Z"/></svg>