<?xml version="1.0" encoding="UTF-8"?><svg id="Layer_1" xmlns="http://www.w3.org/2000/svg" viewBox="0 0 144 144"><defs><style>.cls-1{fill:#c23d27;}.cls-2{opacity:0;}.cls-3{fill:#c68778;}.cls-4{fill:#2f1718;}</style></defs><rect class="cls-2" width="144" height="144"/><polygon class="cls-4" points="72.27 130.84 128.26 90.16 106.87 24.34 37.67 24.34 16.28 90.16 72.27 130.84"/><polygon class="cls-1" points="39.99 108.86 39.99 119.96 72.27 143.41 104.55 119.96 104.55 108.86 72.54 131.49 39.99 108.86"/><path class="cls-1" d="M39.73,27.53l-20.1,61.88,52.64,38.25,52.64-38.25-20.11-61.88H39.73ZM72.27,135.42L12.25,91.81,35.18,21.25h74.18s22.93,70.56,22.93,70.56l-60.02,43.61Z"/><path class="cls-3" d="M76.73,85.46c0,.66.22,1.29.61,1.81l3.52,4.61v-17.68c0-.61-.19-1.21-.54-1.71l-3.03-4.34c-.17-.25-.56-.13-.56.18v17.13ZM77.17,51.15l11.54,14.67v-3.75c0-.67-.24-1.32-.67-1.83l-11.31-13.49v3.15c0,.45.15.9.43,1.25ZM85.89,46.14v-3.76c0-.29-.09-.58-.26-.82l-1.26-1.72c-.11-.15-.35-.08-.35.11v3.73c0,.61.24,1.19.67,1.63l.94.94c.09.09.25.03.25-.11ZM88.03,79.24c.22.29.68.13.68-.23v-3.04c0-.82-.27-1.62-.78-2.26l-10.51-13.44c-.22-.29-.68-.13-.68.23v3.04c0,.82.27,1.62.78,2.26l10.51,13.44ZM77.64,57.7l3.5,4.02v-1.83c0-.36-.12-.7-.34-.98l-3.71-4.75v2.08c0,.54.2,1.06.55,1.47ZM91.73,76.62v7.84c0,.59-.74.86-1.12.4l-5.74-6.92c-.11-.13-.32-.05-.32.12v35.32c0,.68-.87.98-1.28.44l-1.71-2.22c-.66-.86-1.02-1.91-1.02-2.99v-13.02c0-.67-.22-1.32-.62-1.85l-5.39-7.11c-.68-.89-1.04-1.98-1.04-3.1v-42.71c0-.47.19-.92.52-1.24l3.01-2.96v7.5l4.25,4.89v-19.32l3.81,3.85v4.53l4.39,5.47c.32.4.5.91.5,1.42v7.39c0,.52-.65.75-.98.34l-3.71-4.6c-.11-.14-.33-.06-.33.12v4.94c0,.49.17.96.48,1.33l5.79,7.09c.33.41.51.91.51,1.44v8.08c0,.52-.66.75-.98.34l-5.32-6.84c-.23-.3-.71-.13-.71.24v.53c0,.49.15.97.44,1.36l6.13,8.55c.29.39.44.86.44,1.35Z"/><path class="cls-3" d="M67.27,49.9v-3.15l-11.31,13.49c-.43.51-.67,1.16-.67,1.83v3.75l11.54-14.67c.28-.36.43-.8.43-1.25ZM67.27,85.46v-17.13c0-.3-.39-.42-.56-.18l-3.03,4.34c-.35.5-.54,1.1-.54,1.71v17.68l3.52-4.61c.4-.52.61-1.16.61-1.81ZM58.11,46.14c0,.13.16.2.25.11l.94-.94c.43-.43.67-1.02.67-1.63v-3.73c0-.19-.24-.26-.35-.11l-1.26,1.72c-.17.24-.26.53-.26.82v3.76ZM66.36,57.7c.35-.41.55-.93.55-1.47v-2.08l-3.71,4.75c-.22.28-.34.63-.34.98v1.83l3.5-4.02ZM55.29,79c0,.36.46.52.68.23l10.51-13.44c.51-.65.78-1.44.78-2.26v-3.04c0-.36-.46-.52-.68-.23l-10.51,13.44c-.51.65-.78,1.44-.78,2.26v3.04ZM70.51,40.82v42.71c0,1.12-.37,2.2-1.04,3.1l-5.39,7.11c-.4.53-.62,1.18-.62,1.85v13.02c0,1.08-.36,2.13-1.02,2.99l-1.71,2.22c-.42.54-1.28.25-1.28-.44v-35.32c0-.17-.21-.25-.32-.12l-5.74,6.92c-.38.46-1.12.19-1.12-.4v-7.84c0-.49.16-.96.44-1.35l6.13-8.55c.29-.4.44-.87.44-1.36v-.53c0-.38-.48-.54-.71-.24l-5.32,6.84c-.32.41-.98.19-.98-.34v-8.08c0-.52.18-1.03.51-1.44l5.79-7.09c.31-.38.48-.85.48-1.33v-4.94c0-.17-.22-.25-.33-.12l-3.71,4.6c-.32.4-.98.17-.98-.34v-7.39c0-.52.18-1.02.5-1.42l4.39-5.47v-4.53l3.81-3.85v19.32l4.25-4.89v-7.5l3.01,2.96c.33.33.52.78.52,1.24Z"/></svg>