<?xml version="1.0" encoding="UTF-8"?><svg id="Layer_1" xmlns="http://www.w3.org/2000/svg" viewBox="0 0 144 144"><defs><style>.cls-1{fill:#c23d27;}.cls-2{opacity:0;}.cls-3{fill:#c68778;}.cls-4{fill:#2f1718;}</style></defs><rect class="cls-2" width="144" height="144"/><polygon class="cls-4" points="72.27 130.84 128.26 90.16 106.87 24.34 37.67 24.34 16.28 90.16 72.27 130.84"/><polygon class="cls-1" points="39.99 108.86 39.99 119.96 72.27 143.41 104.55 119.96 104.55 108.86 72.54 131.49 39.99 108.86"/><path class="cls-1" d="M39.73,27.53l-20.1,61.88,52.64,38.25,52.64-38.25-20.11-61.88H39.73ZM72.27,135.42L12.25,91.81,35.18,21.25h74.18s22.93,70.56,22.93,70.56l-60.02,43.61Z"/><path class="cls-3" d="M93.44,106.06c-16.88,10.32-38.32,6.51-50.88-8.1-12.66-14.73-12.84-36.57-.34-51.53,12.37-14.81,33.85-18.8,50.77-8.78,12.04,7.13,19.41,19.93,19.61,33.7.2,14.06-6.86,27.19-19.16,34.71ZM75.81,108.96c16.85-1.38,30.25-13.93,33.32-29.82,3.21-16.6-4.99-33.05-20.21-40.5-14.25-6.98-31.21-3.98-42.34,7.16-10.99,11.01-14.12,27.86-7.18,42.29,6.46,13.44,20.7,22.16,36.4,20.87Z"/><path class="cls-3" d="M87.38,73.1l-9.07,7.2c-3.37,2.68-8.05,2.7-11.44,0l-14.51-11.57c-2.4-1.92-4.62-3.96-6.66-6.25-2.33-2.63-2.56-6.74-1.02-9.66,1.1-2.1,2.9-3.27,5.28-3.27h45.26c2.37,0,4.18,1.16,5.28,3.27,1.7,3.24,1.18,7.64-1.55,10.38-3.59,3.6-7.45,6.64-11.57,9.91Z"/><path class="cls-3" d="M70.7,84.76c4.86-1.11,9.1,1.99,10.12,6.33,1.07,4.58-1.79,9.09-6.32,10.16s-8.91-1.65-10.08-6.05,1.36-9.32,6.27-10.44Z"/></svg>