<?xml version="1.0" encoding="UTF-8"?><svg id="Layer_1" xmlns="http://www.w3.org/2000/svg" viewBox="0 0 144 144"><defs><style>.cls-1{opacity:0;}.cls-2{fill:#252b1f;}.cls-3{fill:#5ca76b;}.cls-4{fill:#98cc9e;}</style></defs><rect class="cls-1" width="144" height="144"/><polygon class="cls-2" points="72.27 13.1 16.28 53.78 37.67 119.59 106.87 119.59 128.26 53.78 72.27 13.1"/><polygon class="cls-3" points="104.55 35.07 104.55 23.98 72.27 .52 39.99 23.98 39.99 35.07 72 12.44 104.55 35.07"/><path class="cls-3" d="M124.91,54.52l-52.64-38.24L19.63,54.52l20.11,61.89h65.07s20.1-61.89,20.1-61.89ZM72.27,8.52l60.02,43.61-22.93,70.55H35.18S12.25,52.13,12.25,52.13L72.27,8.52Z"/><path class="cls-4" d="M69.08,71.95l-33.17-19.15v38.3l33.17-19.15ZM74.92,71.95l33.17,19.15v-38.3l-33.17,19.15ZM88.73,41.31l-16.58-9.57-33.17,19.15,33.17,19.15,33.17-19.15-16.59-9.58ZM88.73,83.55l-16.58-9.58-33.17,19.15,33.17,19.15,33.17-19.15-16.59-9.58h0Z"/></svg>