<?xml version="1.0" encoding="UTF-8"?><svg id="Layer_1" xmlns="http://www.w3.org/2000/svg" viewBox="0 0 144 144"><defs><style>.cls-1{fill:#c23d27;}.cls-2{opacity:0;}.cls-3{fill:#c68778;}.cls-4{fill:#2f1718;}</style></defs><rect class="cls-2" width="144" height="144"/><polygon class="cls-4" points="72.27 130.84 128.26 90.16 106.87 24.34 37.67 24.34 16.28 90.16 72.27 130.84"/><polygon class="cls-1" points="39.99 108.86 39.99 119.96 72.27 143.41 104.55 119.96 104.55 108.86 72.54 131.49 39.99 108.86"/><path class="cls-1" d="M39.73,27.53l-20.1,61.88,52.64,38.25,52.64-38.25-20.11-61.88H39.73ZM72.27,135.42L12.25,91.81,35.18,21.25h74.18s22.93,70.56,22.93,70.56l-60.02,43.61Z"/><path class="cls-3" d="M57.55,57.44l14.45-.05-14.46,21.75,14.46-.05-15.42,23.2h-14.66l14.64-21.7h-14.64l14.63-21.69h-14.63l15.62-23.15,14.46-.05-14.45,21.74ZM86.45,57.44l-14.45-21.74,14.46.05,15.62,23.15h-14.63l14.63,21.69h-14.64l14.64,21.7h-14.66l-15.42-23.2,14.46.05-14.46-21.75,14.45.05Z"/></svg>