<?xml version="1.0" encoding="UTF-8"?><svg xmlns="http://www.w3.org/2000/svg" viewBox="0 0 144 144"><defs><style>.cls-1{fill:#d3ad71;}.cls-2{fill:#99742b;}.cls-3{opacity:0;}.cls-4{fill:#382915;}</style></defs><g id="Layer_2"><rect class="cls-3" width="144" height="144"/></g><g id="Layer_1"><rect class="cls-3" x="0" width="144" height="144"/><polygon class="cls-4" points="131.14 71.97 90.46 15.98 24.64 37.37 24.64 106.57 90.46 127.96 131.14 71.97"/><polygon class="cls-2" points="109.17 104.25 120.26 104.25 143.71 71.97 120.26 39.68 109.17 39.68 131.8 71.7 109.17 104.25"/><path class="cls-2" d="M92.11,131.99l-70.56-22.92V34.88S92.11,11.95,92.11,11.95l43.6,60.02-43.6,60.02ZM27.83,104.51l61.88,20.11,38.25-52.65-38.25-52.64-61.88,20.11v65.07Z"/><polygon class="cls-1" points="109.61 86.73 53.18 86.73 69.47 61.15 109.61 86.73"/><polygon class="cls-1" points="112.67 64.87 85.89 64.87 93.62 52.74 112.67 64.87"/><polygon class="cls-1" points="82.69 53.43 65.89 53.43 70.74 45.82 82.69 53.43"/><polygon class="cls-1" points="48.13 64.38 31.33 64.38 36.18 56.77 48.13 64.38"/><polygon class="cls-1" points="81.84 98.18 65.05 98.18 69.9 90.57 81.84 98.18"/><polygon class="cls-1" points="67.84 60.11 50.88 86.73 38.34 86.73 58.92 54.43 67.84 60.11"/></g></svg>