<?xml version="1.0" encoding="UTF-8"?><svg id="Layer_1" xmlns="http://www.w3.org/2000/svg" viewBox="0 0 144 144"><defs><style>.cls-1{fill:#c23d27;}.cls-2{opacity:0;}.cls-3{fill:#c68778;}.cls-4{fill:#2f1718;}</style></defs><rect class="cls-2" width="144" height="144"/><polygon class="cls-4" points="72.27 130.84 128.26 90.16 106.87 24.34 37.67 24.34 16.28 90.16 72.27 130.84"/><polygon class="cls-1" points="39.99 108.86 39.99 119.96 72.27 143.41 104.55 119.96 104.55 108.86 72.54 131.49 39.99 108.86"/><path class="cls-1" d="M39.73,27.53l-20.1,61.88,52.64,38.25,52.64-38.25-20.11-61.88H39.73ZM72.27,135.42L12.25,91.81,35.18,21.25h74.18s22.93,70.56,22.93,70.56l-60.02,43.61Z"/><path class="cls-3" d="M47.61,85.45l16.76-26.92-6.26-9.99-23.07,36.9h12.57ZM61.44,85.45l9.89-15.82-6.28-10.01-16.15,25.84h12.54ZM79.53,58.62l16.9,26.83h12.54l-23.14-36.9-6.3,10.08ZM62.75,85.45h18.49l-9.26-14.77-9.23,14.77ZM78.91,59.62l-6.25,9.99,9.94,15.85h12.51l-16.2-25.84ZM65.72,58.56l6.26-10.01,6.26,10.01-6.25,10-6.28-10Z"/></svg>