<?xml version="1.0" encoding="UTF-8"?><svg xmlns="http://www.w3.org/2000/svg" viewBox="0 0 144 144"><defs><style>.cls-1{fill:#c23d27;}.cls-2{opacity:0;}.cls-3{fill:#c68778;}.cls-4{fill:#2f1718;}</style></defs><g id="Layer_2"><rect class="cls-2" width="144" height="144"/></g><g id="Layer_1"><rect class="cls-2" x="0" width="144" height="144"/><polygon class="cls-4" points="72.27 130.84 128.26 90.16 106.87 24.34 37.67 24.34 16.28 90.16 72.27 130.84"/><polygon class="cls-1" points="39.99 108.86 39.99 119.96 72.27 143.41 104.55 119.96 104.55 108.86 72.54 131.49 39.99 108.86"/><path class="cls-1" d="M39.73,27.53l-20.1,61.88,52.64,38.25,52.64-38.25-20.11-61.88H39.73ZM72.27,135.42L12.25,91.81,35.18,21.25h74.18s22.93,70.56,22.93,70.56l-60.02,43.61Z"/><polygon class="cls-3" points="109.61 86.73 53.18 86.73 69.47 61.15 109.61 86.73"/><polygon class="cls-3" points="112.67 64.87 85.89 64.87 93.62 52.74 112.67 64.87"/><polygon class="cls-3" points="82.69 53.43 65.89 53.43 70.74 45.82 82.69 53.43"/><polygon class="cls-3" points="48.13 64.38 31.33 64.38 36.18 56.77 48.13 64.38"/><polygon class="cls-3" points="81.84 98.18 65.05 98.18 69.9 90.57 81.84 98.18"/><polygon class="cls-3" points="67.84 60.11 50.88 86.73 38.34 86.73 58.92 54.43 67.84 60.11"/></g></svg>