<?xml version="1.0" encoding="UTF-8"?><svg xmlns="http://www.w3.org/2000/svg" viewBox="0 0 144 144"><defs><style>.cls-1{opacity:0;}.cls-2{fill:#252b1f;}.cls-3{fill:#5ca76b;}.cls-4{fill:#98cc9e;}</style></defs><g id="Layer_2"><rect class="cls-1" width="144" height="144"/></g><g id="Layer_1"><rect class="cls-1" x="0" width="144" height="144"/><polygon class="cls-2" points="72.27 13.1 16.28 53.78 37.67 119.59 106.87 119.59 128.26 53.78 72.27 13.1"/><polygon class="cls-3" points="104.55 35.07 104.55 23.98 72.27 .52 39.99 23.98 39.99 35.07 72 12.44 104.55 35.07"/><path class="cls-3" d="M124.91,54.52l-52.64-38.24L19.63,54.52l20.11,61.89h65.07s20.1-61.89,20.1-61.89ZM72.27,8.52l60.02,43.61-22.93,70.55H35.18S12.25,52.13,12.25,52.13L72.27,8.52Z"/><polygon class="cls-4" points="109.61 86.73 53.18 86.73 69.47 61.15 109.61 86.73"/><polygon class="cls-4" points="112.67 64.87 85.89 64.87 93.62 52.74 112.67 64.87"/><polygon class="cls-4" points="82.69 53.43 65.89 53.43 70.74 45.82 82.69 53.43"/><polygon class="cls-4" points="48.13 64.38 31.33 64.38 36.18 56.77 48.13 64.38"/><polygon class="cls-4" points="81.84 98.18 65.05 98.18 69.9 90.57 81.84 98.18"/><polygon class="cls-4" points="67.84 60.11 50.88 86.73 38.34 86.73 58.92 54.43 67.84 60.11"/></g></svg>