<?xml version="1.0" encoding="UTF-8"?><svg id="Layer_1" xmlns="http://www.w3.org/2000/svg" viewBox="0 0 144 144"><defs><style>.cls-1{opacity:0;}.cls-2{fill:#252b1f;}.cls-3{fill:#5ca76b;}.cls-4{fill:#98cc9e;}</style></defs><rect class="cls-1" width="144" height="144"/><polygon class="cls-2" points="72.27 13.1 16.28 53.78 37.67 119.59 106.87 119.59 128.26 53.78 72.27 13.1"/><polygon class="cls-3" points="104.55 35.07 104.55 23.98 72.27 .52 39.99 23.98 39.99 35.07 72 12.44 104.55 35.07"/><path class="cls-3" d="M124.91,54.52l-52.64-38.24L19.63,54.52l20.11,61.89h65.07s20.1-61.89,20.1-61.89ZM72.27,8.52l60.02,43.61-22.93,70.55H35.18S12.25,52.13,12.25,52.13L72.27,8.52Z"/><path class="cls-4" d="M57.55,57.44l14.45-.05-14.46,21.75,14.46-.05-15.42,23.2h-14.66l14.64-21.7h-14.64l14.63-21.69h-14.63l15.62-23.15,14.46-.05-14.45,21.74ZM86.45,57.44l-14.45-21.74,14.46.05,15.62,23.15h-14.63l14.63,21.69h-14.64l14.64,21.7h-14.66l-15.42-23.2,14.46.05-14.46-21.75,14.45.05Z"/></svg>