<?xml version="1.0" encoding="UTF-8"?><svg xmlns="http://www.w3.org/2000/svg" viewBox="0 0 144 144"><defs><style>.cls-1{fill:#d3ad71;}.cls-2{fill:#99742b;}.cls-3{opacity:0;}.cls-4{fill:#382915;}</style></defs><g id="Layer_2"><rect class="cls-3" width="144" height="144"/></g><g id="Layer_1"><rect class="cls-3" x="0" width="144" height="144"/><polygon class="cls-4" points="131.14 71.97 90.46 15.98 24.64 37.37 24.64 106.57 90.46 127.96 131.14 71.97"/><polygon class="cls-2" points="109.17 104.25 120.26 104.25 143.71 71.97 120.26 39.68 109.17 39.68 131.8 71.7 109.17 104.25"/><path class="cls-2" d="M92.11,131.99l-70.56-22.92V34.88S92.11,11.95,92.11,11.95l43.6,60.02-43.6,60.02ZM27.83,104.51l61.88,20.11,38.25-52.65-38.25-52.64-61.88,20.11v65.07Z"/><polygon class="cls-1" points="112.93 85.91 96.37 85.92 73.27 62.83 73.27 39.71 79.19 45.5 79.19 52.37 112.93 85.91"/><polygon class="cls-1" points="31.81 85.93 65.55 52.4 65.58 45.56 71.51 39.71 71.54 62.81 48.44 85.9 31.81 85.93"/><polygon class="cls-1" points="88.06 87.73 72.31 104.29 56.53 87.71 88.06 87.73"/><polygon class="cls-1" points="89 85.9 79.43 85.91 73.27 79.8 73.41 66.13 88.99 81.55 89 85.9"/><polygon class="cls-1" points="65.42 85.86 55.82 85.92 55.8 81.54 71.4 66.09 71.52 79.78 65.42 85.86"/><path class="cls-1" d="M109.24,79.63l-27.53-27.54c.64-.77,1.27-1.45,2.04-2.2l29.4,29.69-3.92.06Z"/><path class="cls-1" d="M35.83,79.54c-1.75.11-3.25.11-4.99.01l29.4-29.68c.78.76,1.4,1.43,2.04,2.21l-26.45,27.46Z"/></g></svg>