<?xml version="1.0" encoding="UTF-8"?><svg id="Layer_1" xmlns="http://www.w3.org/2000/svg" viewBox="0 0 144 144"><defs><style>.cls-1{fill:#487ea2;}.cls-2{fill:#86b2cd;}.cls-3{opacity:0;}.cls-4{fill:#1f3b47;}</style></defs><rect class="cls-3" width="144" height="144"/><polygon class="cls-4" points="131.14 71.97 90.46 15.98 24.64 37.37 24.64 106.57 90.46 127.96 131.14 71.97"/><polygon class="cls-1" points="109.17 104.25 120.26 104.25 143.71 71.97 120.26 39.68 109.17 39.68 131.8 71.7 109.17 104.25"/><path class="cls-1" d="M92.1,11.95l43.61,60.02-43.61,60.02-70.55-22.93V34.88S92.1,11.95,92.1,11.95ZM89.71,19.33l-61.89,20.11v65.07s61.89,20.1,61.89,20.1l38.24-52.64-38.24-52.64Z"/><path class="cls-2" d="M70.9,71.59c-.35.09-.59.29-.61.66-.05,1.06.61,1.98,1.62,2.26.7.19,1.24.6,1.82.97,1.25.82,2.06,1.85,2.64,3.23.38.89,1.48,1.75,2.46,1.8,1.52.09,2.71.51,3.92,1.39s2.04,1.83,2.5,3.19c.13.39.56.61.78.87,1.45,1.72,2.53.13,5.31,2.1l1.25.88c.41.29.62.82.97,1.18.63.64.59,2.03.02,2.1-1.33.17-2.66.03-4,.09-1.42.05-2.76-.07-4.17-.31s-2.71-.74-4.04-1.26c-.66-.26-1.24-.68-1.88-1.04-1.44-.82-2.65-1.95-3.82-3.11-.08-.08-.29-.11-.31-.2-.13-.45-.55-.63-.77-.96l-1.48-2.19c-.11-.16-.05-.42.05-.5.09-.07.36-.14.5-.06,1.14.58,2.2,1.31,2.99,2.3.49.6.69,1.22,1.07,1.9.39.71,1.31,1.52,2.18,1.59,4.58.35,4.37,2.9,6.45,2.15.58-.21.81-.78.62-1.33-.42-1.23-1.43-2.33-2.81-2.41s-2.56-.51-3.7-1.3c-2.97-2.07-2.04-3.57-3.99-4.63-1.7-.92-2.51-.06-4.59-1.5-.47-.32-.96-.74-1.55-.83-1.56.45-1.08,1.11-1.52,1.74-.27.39-.32.82-.55,1.23-.8,1.45-2.15,3.55-3.31,4.66l-1.28,1.23c-.41.39-.81.69-1.26,1.03l-.94.72c-.56.43-1.17.7-1.83,1-1.67.76-3.34,1.45-5.15,1.79l-1.24.23c-.52.1-1.13-.13-1.62.09-.32.14-.44.13-.77.05-.69-.17-1.46-.02-2.18-.14l-2.9-.49c-.33-.06-.44-.16-.7-.24-4.1-1.28-7.63-3.76-10.17-7.23-1.22-1.66-2.2-3.46-2.79-5.44-.16-.56,1.92-.46,2.06-.09,2.9,7.76,10.83,12.59,19.08,11.32,1.41-.22,2.74-.62,4.07-1.13l.53-.21c1.91-.75,3.53-1.99,5.05-3.38,1.88-1.73,3.51-4.27,4.34-6.72.43-1.25.78-2.44.89-3.77.04-.48.31-1.06-.06-1.52-.33-.42-1.54-.34-1.7.26-.36,1.33-.89,2.4-1.84,3.41-.35.38-.69.84-1.12,1.17-.56.43-1.16.85-1.84,1.15-2.5,1.11-4.11,3.59-3.96,6.37.01.27-.14.49-.28.59-.3.21-1.6.25-1.67-.31-.22-1.67.22-3.38,1.02-4.84.51-.94-1.51-.4-2.07-.36-1.26.11-2.46.2-3.69.4-1.94.31-3.3,2.05-3.28,3.98v1.37c.01.27-.1.53-.26.62s-1.37.3-1.64-.18-.08-.98-.11-1.48c-.19-3.34,2.2-6.07,5.51-6.42l6.86-.73c4.09-.43,6.62-4.26,6-4.99-.1-.11-.31-.26-.56-.26h-9.94c-.6.01-1.04.35-1.27.87-.92,2.09-2.89,3.59-5.22,3.78-1.48.12-2.89.03-4.37.03-1.9,0-3.2,1.55-2.97,3.42.03.26-.03.58-.21.75-.21.21-1.21.28-1.57.01-.97-.73.23-6.08,4.01-6.13l4.75-.06c1.02-.01,1.86-.47,2.63-1.1s1.03-1.59,1.04-2.61c0-.96-.24-1.74-.94-2.4-.75-.72-1.66-1.21-2.74-1.23l-4.73-.07c-3.83-.05-5.01-5.5-4.05-6.12.46-.29,1.28-.27,1.7.05,0,.12.11.24.11.4l.03,1.35c.02,1.16,1.07,2.29,2.35,2.31l4.83.08c2.22.04,4.14,1.47,5.16,3.46.38.74.66,1.17,1.61,1.17l9.76-.02c.24,0,.44-.02.54-.17.08-.11.2-.4.12-.59-.62-1.49-1.77-2.67-3.15-3.44-1.16-.65-2.29-.96-3.6-1.09l-5.72-.59c-2.38-.25-3.48-.88-5.01-2.57-.42-.93-.95-1.81-.96-2.9l-.02-1.99c0-.28.12-.53.27-.64.25-.19,1.26-.19,1.54.04s.18,1.65.28,2.58c.17,1.7,1.54,3.17,3.31,3.36l5.4.58c.14.01.27-.19.32-.28.07-.13-.11-.27-.19-.42-.64-1.3-.99-2.72-1.03-4.17,0-.32.04-.61.21-.78.28-.26,1.28-.27,1.54-.1s.31.43.3.77c-.05,2.1.87,4.13,2.58,5.34.32.22.59.47.95.64,2.3,1.08,4.25,2.96,5.02,5.43.21.66.43,1.14,1.28,1.05.16-.02.42.01.59-.13.58-.52-.23-3.69-.51-4.55l-.28-.86c-.3-.94-1.47-3.46-2.13-3.99.02-.4-.56-.71-.82-1.16-.11-.2-.25-.34-.42-.49-.11-.1-.13-.31-.32-.33-.04,0-.07-.07-.11-.08,0-.18-.15-.3-.3-.43-.83-.71-1.57-1.49-2.49-2-.05-.03-.1-.06-.14-.09-.26-.22-.57-.46-.91-.53,0-.22-1.88-1-2.2-1.13l-.74-.31c-6.56-2.75-14.52-.52-19.04,4.88-1.34,1.61-2.68,3.26-3.35,5.4-.18.56-1.72.59-2.07.35-.11-.08-.11-.37-.06-.51l.6-1.56,1.36-2.61c.2-.11.27-.35.41-.54v-.08c.31-.16.43-.53.66-.82.19-.24.47-.39.51-.68.05,0,.08-.02.08-.07.12-.05.17-.19.2-.31.66-.48,1.19-1.14,1.81-1.68,6.56-5.71,15.7-6.36,23.1-2.08.36.21.66.59,1.13.72.28.08.4.36.62.54,2.64,2.1,4.79,4.7,6.07,7.84s2.37,2.44,4.68,4.5c.79.7,1.19,1.57,1.66,2.52.41.81,1.4,1.6,2.34,1.65,1.58.09,2.85.57,4.08,1.49,2.76,2.07,1.54,2.91,3.56,4.35,1.75,1.25,2.26-.22,5.23,1.94,1.06.77,1.86,1.63,2.37,2.88.42,1.03,1.45,1.94,2.58,2.04,1.25.12,2.37.32,3.41,1.02,3.43,2.33,2.22,3.43,3.96,4.36,1.13.61,2.96.85,3.16-.31.1-.6-.13-.97-.64-1.28-.4-.24-.77-.55-1.16-.82-2.4-1.7-1.48-3.15-3.42-4.2-1.8-.97-2.49,0-4.72-1.58-1.04-.74-2.11-1.63-2.57-2.85-.33-.87-.9-1.53-1.7-1.97-.37-.2-.74-.45-1.19-.44-1.4.05-2.61-.49-3.7-1.29s-1.89-1.61-2.39-2.84c-.45-1.11-1.5-2.08-2.73-2.15-1.45-.09-2.67-.52-3.81-1.39-2.83-2.15-1.95-3.09-3.27-4.14-.65-.51-1.32-.94-2.22-.89-1.25.07.52-2.27.45-2.61.2-.11.42-.14.61-.03l.23.44c1.87,3.61,3.03,1.39,6.1,3.33,1.16.73,2.34,1.84,2.86,3.17.57,1.48,1.97,2.22,3.51,2.27,1.88.07,4.56,2.09,5.22,3.77.36.9.87,1.59,1.71,2.08,1.39.8,2.38.02,4.49,1.43,1.1.73,2.18,1.62,2.69,2.89.57,1.43,1.74,2.44,3.33,2.47,1.7.04,2.7.87,4.01,1.77.38.26.66.71.68,1.2.08,1.58.03,3.13,0,4.74,0,.35-.22.83-.59.89-1.28.23-2.55.04-3.84.12-1.94.11-2-.95-3.64-.93-.95,0-1.74-.4-2.56-.76-.51-.22-1.38-1.08-1.73-1.37-.71-.59-1-1.34-1.4-2.16-.48-.96-1.41-1.91-2.53-1.99-1.47-.11-2.74-.46-3.92-1.35-1.1-.83-1.98-1.83-2.52-3.11-.59-1.41-2.05-2.01-3.49-2.01-1.55,0-4.34-2-5.05-3.71-.51-1.23-1.41-2.34-2.85-2.53-.99-.13-2.04-.18-2.89-.75l-.14-.06Z"/><path class="cls-2" d="M94.24,54.77c.84.66,1.52,1.52,1.92,2.55.42,1.09,1.48,1.97,2.68,2.09.92.09,1.75.16,2.57.6.97.52,1.8,1.19,2.63,1.94.54.49.79,1.17,1.05,1.86.22.59,1.4,1.7,2.2,1.87.33.07.77.32.77.74v7.69c0,.24-.17.43-.3.49-.61.33-.54-.79-3.21-.96-1.36-.09-2.49-.89-3.51-1.73-2.35-1.94-1.19-2.94-3.41-4.11-.35-.18-.69-.45-1.12-.43-1.29.04-2.39-.42-3.43-1.12-1.2-.8-2.13-1.71-2.69-3.07-.42-1.03-1.44-2.03-2.61-2.1-1.53-.09-2.79-.55-4-1.47-2.89-2.19-1.97-3.82-3.32-3.93-.39-.03-.77.14-1.02.54-.37.6-.37,1.67.14,2.25.62.71,1.09,1.33,1.48,2.22.43,1,1.43,1.95,2.56,2.05,1.39.12,2.59.48,3.74,1.29l.97.69c.89.63,1.33,1.87,1.84,2.77.47.81,1.44,1.54,2.4,1.59,1.48.08,2.71.52,3.86,1.39,1.03.78,1.87,1.62,2.37,2.86.43,1.08,1.52,2.03,2.72,2.1,1.39.07,2.55.48,3.66,1.29,1,.73,1.88,1.51,2.4,2.69.42.97.58.42.44,2.36-1.3.17-2.55-.16-3.78-.58-.42-.14-.67-.44-1.01-.64-1.38-.81-2.25-1.96-2.89-3.42-.37-.86-1.43-1.62-2.34-1.74-1.14-.15-2.14-.21-3.08-.82-3.74-2.38-2.57-3.12-4.13-4.66-1.65-1.64-2.83-.17-5.58-2.2-1.01-.74-1.87-1.55-2.36-2.75-.45-1.09-1.42-2.16-2.66-2.27-1.34-.13-2.56-.37-3.65-1.19-1.18-.89-2-1.21-1.76-2.91-.08-.37.34-.47.56-.69,1.44-1.46,2.95-2.78,4.79-3.76.26-.14.56.01.79-.04.22.28.58.48.94.43v.09c.38.24.92.25,1.35.12.33.22.77.2,1.14.32.28.09.52.32.83.32,2.2,1.58,2.41,1.5,3.66,3.98.41.81,1.43,1.65,2.36,1.71,1.48.09,2.67.44,3.84,1.32,1,.75,1.93,1.55,2.41,2.78.46,1.16,1.5,2.18,2.79,2.29.95.08,1.81.19,2.67.66.72.39,1.4.86,2.02,1.42.21.19.5.47.81.33,1.02-.45,1.36-1.71.76-2.62-.71-1.08-1.82-1.69-3.1-1.69-1.05,0-1.92-.5-2.76-1-1.41-.85-2.32-2.03-2.99-3.51-.57-1.28-2.01-1.81-3.31-1.86-1.2-.05-2.14-.67-3.06-1.31-2.24-1.57-2.01-2.81-2.98-3.86-1.65-1.77-3.56-.73-3.42-1.52.07-.41,2.22-.55,2.66-.54.32,0,.66.27.87.45,1.58,1.32,2.53-.22,5.81,2.33Z"/><path class="cls-2" d="M98.33,51.85l9.04.08c.28,0,.46.31.71.37l.02,1.43c0,.29.1,1.32-.22,1.48-.14.07-.33.11-.5-.01-.64-.44-1.31-.82-1.86-1.38-.83-.83-2.27-1.38-2.74-.58-.39.66.42,1.03,1.01,2.49s1.92,2.16,3.39,2.11c.54-.02.9.38.9.87v3.24c0,.19-.09.38-.23.41-.09.02-.26.12-.4,0-.7-.6-1.46-1.32-1.79-2.22-.58-1.6-1.92-2.52-3.6-2.52-1.16,0-2.18-.69-3.1-1.31-1.01-.67-1.75-1.53-2.26-2.64-.09-.2-.25-.34-.33-.48-.2-.35-.31-.8-.09-1.09.29-.4,1.59-.14,2.05-.25Z"/></svg>