<?xml version="1.0" encoding="UTF-8"?><svg id="Layer_1" xmlns="http://www.w3.org/2000/svg" viewBox="0 0 144 144"><defs><style>.cls-1{fill:#c23d27;}.cls-2{opacity:0;}.cls-3{fill:#c68778;}.cls-4{fill:#2f1718;}</style></defs><rect class="cls-2" width="144" height="144"/><polygon class="cls-4" points="72.27 130.84 128.26 90.16 106.87 24.34 37.67 24.34 16.28 90.16 72.27 130.84"/><polygon class="cls-1" points="39.99 108.86 39.99 119.96 72.27 143.41 104.55 119.96 104.55 108.86 72.54 131.49 39.99 108.86"/><path class="cls-1" d="M39.73,27.53l-20.1,61.88,52.64,38.25,52.64-38.25-20.11-61.88H39.73ZM72.27,135.42L12.25,91.81,35.18,21.25h74.18s22.93,70.56,22.93,70.56l-60.02,43.61Z"/><path class="cls-3" d="M66.94,42v10.37c-6.79.2-12.37,2.88-16.52,8.28-3.19,4.14-4.51,8.89-4.15,14.09.7,10.22,9.35,19.15,20.63,19.21v10.44c-10.88-.38-19.74-4.72-25.74-13.82-7.21-10.93-7.42-22.4-.79-33.68,6.51-11.08,18.18-15.18,26.57-14.88h0Z"/><path class="cls-3" d="M70.31,71.81v-29.85h29.84c.58,15.3-12.83,30.09-29.84,29.85Z"/><path class="cls-3" d="M70.32,104.28v-29.83h29.83c.42,15.58-12.97,30.01-29.83,29.83Z"/></svg>