<?xml version="1.0" encoding="UTF-8"?><svg xmlns="http://www.w3.org/2000/svg" viewBox="0 0 144 144"><defs><style>.cls-1{fill:#c23d27;}.cls-2{opacity:0;}.cls-3{fill:#c68778;}.cls-4{fill:#2f1718;}</style></defs><g id="Layer_2"><rect class="cls-2" width="144" height="144"/></g><g id="Layer_1"><rect class="cls-2" x="0" width="144" height="144"/><polygon class="cls-4" points="72.27 130.84 128.26 90.16 106.87 24.34 37.67 24.34 16.28 90.16 72.27 130.84"/><polygon class="cls-1" points="39.99 108.86 39.99 119.96 72.27 143.41 104.55 119.96 104.55 108.86 72.54 131.49 39.99 108.86"/><path class="cls-1" d="M39.73,27.53l-20.1,61.88,52.64,38.25,52.64-38.25-20.11-61.88H39.73ZM72.27,135.42L12.25,91.81,35.18,21.25h74.18s22.93,70.56,22.93,70.56l-60.02,43.61Z"/><polygon class="cls-3" points="72.74 70.46 84.83 58.29 72.72 46.21 72.72 31.52 79 31.45 105.62 58.35 72.92 90.88 72.74 70.46"/><polygon class="cls-3" points="73.03 112.55 72.9 93.01 105.56 60.53 105.62 80.33 73.03 112.55"/><polygon class="cls-3" points="71.19 46.12 58.05 59.14 38.4 59.12 65.61 31.48 71.18 31.47 71.19 46.12"/><polygon class="cls-3" points="38.45 98.63 38.38 79.06 58.01 59.51 58.03 78.81 38.45 98.63"/></g></svg>