<?xml version="1.0" encoding="UTF-8"?><svg xmlns="http://www.w3.org/2000/svg" viewBox="0 0 144 144"><defs><style>.cls-1{fill:#c23d27;}.cls-2{opacity:0;}.cls-3{fill:#c68778;}.cls-4{fill:#2f1718;}</style></defs><g id="Layer_2"><rect class="cls-2" width="144" height="144"/></g><g id="Layer_1"><rect class="cls-2" x="0" width="144" height="144"/><polygon class="cls-4" points="72.27 130.84 128.26 90.16 106.87 24.34 37.67 24.34 16.28 90.16 72.27 130.84"/><polygon class="cls-1" points="39.99 108.86 39.99 119.96 72.27 143.41 104.55 119.96 104.55 108.86 72.54 131.49 39.99 108.86"/><path class="cls-1" d="M39.73,27.53l-20.1,61.88,52.64,38.25,52.64-38.25-20.11-61.88H39.73ZM72.27,135.42L12.25,91.81,35.18,21.25h74.18s22.93,70.56,22.93,70.56l-60.02,43.61Z"/><path class="cls-3" d="M41.96,90.62v-37.19h-5.35v-6.24h18.2v6.19h-5.21v37.19h5.35v6.24h-18.34v-6.19h5.34Z"/><path class="cls-3" d="M67.47,90.62l12.66-18.76-12.66-18.76h-6.38v-5.91h19.98v6.19h-5.58l8.68,12.66,8.58-12.66h-5.77v-6.19h19.09v6.19h-6.19l-12.15,17.92,13.23,19.32h6.42v6.19h-20.31v-6.19h5.72l-9.1-13.42-9.1,13.42h6.24v6.19h-20.07v-6.19h6.7Z"/></g></svg>