<?xml version="1.0" encoding="UTF-8"?><svg id="Layer_1" xmlns="http://www.w3.org/2000/svg" viewBox="0 0 144 144"><defs><style>.cls-1{fill:#c23d27;}.cls-2{opacity:0;}.cls-3{fill:#c68778;}.cls-4{fill:#2f1718;}</style></defs><rect class="cls-2" width="144" height="144"/><polygon class="cls-4" points="72.27 130.84 128.26 90.16 106.87 24.34 37.67 24.34 16.28 90.16 72.27 130.84"/><polygon class="cls-1" points="39.99 108.86 39.99 119.96 72.27 143.41 104.55 119.96 104.55 108.86 72.54 131.49 39.99 108.86"/><path class="cls-1" d="M39.73,27.53l-20.1,61.88,52.64,38.25,52.64-38.25-20.11-61.88H39.73ZM72.27,135.42L12.25,91.81,35.18,21.25h74.18s22.93,70.56,22.93,70.56l-60.02,43.61Z"/><path class="cls-3" d="M34.78,56.59c.12-.07.25-.04.37-.04,3.74,0,7.49,0,11.23,0,.01,0,.03,0,.05,0,.22,0,.41.11.54.29h0c5.22,6.79,10.44,13.57,15.66,20.35.57.73,1.14,1.46,1.69,2.2.2.27.29.22.47-.02,3.14-4.09,6.28-8.17,9.42-12.24,2.65-3.44,5.3-6.89,7.95-10.33.12-.15.23-.25.43-.25,3.85,0,7.69.01,11.54,0,.06,0,.11,0,.17.01.01.17-.11.25-.19.35-7.83,10.17-15.66,20.33-23.49,30.5-.13.18-.32.29-.54.29-.02,0-.03,0-.05,0h0c-3.68,0-7.35,0-11.03,0-.01,0-.03,0-.04,0-.21,0-.4-.11-.51-.28h0c-5.98-7.78-11.97-15.55-17.96-23.33-1.84-2.39-3.69-4.78-5.53-7.18-.08-.1-.19-.18-.21-.34h0Z"/><path class="cls-3" d="M109.22,56.57c-.58.76-1.12,1.46-1.66,2.16-7.3,9.48-14.6,18.97-21.9,28.45-.28.37-.56.53-1.01.53-3.64-.02-7.28-.01-10.92-.01h-.41c-.04-.18.08-.25.15-.34,7.39-9.59,14.77-19.18,22.16-28.76.47-.61.94-1.21,1.4-1.82.11-.14.22-.23.4-.23,3.86,0,7.72,0,11.58,0,.04,0,.09,0,.22.02h0Z"/><path class="cls-3" d="M79.52,56.58c-.94,1.23-1.86,2.42-2.77,3.61-1.21,1.58-2.43,3.15-3.64,4.73-1.13,1.46-2.25,2.92-3.38,4.38-1.2,1.56-2.4,3.12-3.59,4.67-.47.62-.96,1.22-1.42,1.84-.15.21-.26.18-.4-.01-.94-1.26-1.89-2.51-2.85-3.76-.58-.75-1.18-1.48-1.76-2.23-.71-.92-1.4-1.86-2.11-2.79s-1.44-1.82-2.15-2.74-1.4-1.86-2.1-2.78c-.57-.74-1.16-1.46-1.73-2.2s-1.14-1.51-1.71-2.27c-.1-.14-.28-.22-.33-.45h29.95Z"/></svg>