<?xml version="1.0" encoding="UTF-8"?><svg id="Layer_1" xmlns="http://www.w3.org/2000/svg" viewBox="0 0 144 144"><defs><style>.cls-1{opacity:0;}.cls-2{fill:#252b1f;}.cls-3{fill:#5ca76b;}.cls-4{fill:#98cc9e;}</style></defs><rect class="cls-1" width="144" height="144"/><polygon class="cls-2" points="72.27 13.1 16.28 53.78 37.67 119.59 106.87 119.59 128.26 53.78 72.27 13.1"/><polygon class="cls-3" points="104.55 35.07 104.55 23.98 72.27 .52 39.99 23.98 39.99 35.07 72 12.44 104.55 35.07"/><path class="cls-3" d="M124.91,54.52l-52.64-38.24L19.63,54.52l20.11,61.89h65.07s20.1-61.89,20.1-61.89ZM72.27,8.52l60.02,43.61-22.93,70.55H35.18S12.25,52.13,12.25,52.13L72.27,8.52Z"/><path class="cls-4" d="M47.61,85.45l16.76-26.92-6.26-9.99-23.07,36.9h12.57ZM61.44,85.45l9.89-15.82-6.28-10.01-16.15,25.84h12.54ZM79.53,58.62l16.9,26.83h12.54l-23.14-36.9-6.3,10.08ZM62.75,85.45h18.49l-9.26-14.77-9.23,14.77ZM78.91,59.62l-6.25,9.99,9.94,15.85h12.51l-16.2-25.84ZM65.72,58.56l6.26-10.01,6.26,10.01-6.25,10-6.28-10Z"/></svg>