<?xml version="1.0" encoding="UTF-8"?><svg xmlns="http://www.w3.org/2000/svg" viewBox="0 0 144 144"><defs><style>.cls-1{fill:#c23d27;}.cls-2{opacity:0;}.cls-3{fill:#c68778;}.cls-4{fill:#2f1718;}</style></defs><g id="Layer_2"><rect class="cls-2" width="144" height="144"/></g><g id="Layer_1"><rect class="cls-2" x="0" width="144" height="144"/><polygon class="cls-4" points="72.27 130.84 128.26 90.16 106.87 24.34 37.67 24.34 16.28 90.16 72.27 130.84"/><polygon class="cls-1" points="39.99 108.86 39.99 119.96 72.27 143.41 104.55 119.96 104.55 108.86 72.54 131.49 39.99 108.86"/><path class="cls-1" d="M39.73,27.53l-20.1,61.88,52.64,38.25,52.64-38.25-20.11-61.88H39.73ZM72.27,135.42L12.25,91.81,35.18,21.25h74.18s22.93,70.56,22.93,70.56l-60.02,43.61Z"/><path class="cls-3" d="M72.09,114.32l-2.73-8.58c-1.44-.96-2.24-2.52-2.23-4.2s.81-3.23,2.26-4.18c.97-1.68,1.07-5.29,1.11-7.26.05-2.97-.12-5.86-.29-8.84-.09-1.65.01-3.6-.9-5.06-.85-1.36-2.49-.91-3.53-.17-.79.56-1.63,1.12-2.23,1.9-4.91,6.37-6.52,14.68-4.42,22.48-3.8-.94-7.27-2.73-10.25-5.23-3.57-2.99-6.51-6.73-8.4-10.99-.67-1.5-.29-3.29.33-4.71,2.96-6.75,16.73-12.44,23.43-14.64,2.63-1.86,8.5-6.39,4.96-9.85-1.99-1.88-5.42-2.65-8.2-3.09,5.3-2.59,9.18-7.27,11.1-12.89,1.93,5.65,5.77,10.25,11.12,12.9-2.81.46-6.28,1.22-8.26,3.14-3.45,3.3,2.37,8.07,4.99,9.68,4.04,1.57,8.06,3.01,11.89,5.05,1.94,1.03,3.79,2.06,5.58,3.33,2.2,1.57,4.77,3.72,5.91,6.24.66,1.45,1.07,3.3.38,4.86-1.9,4.28-4.86,8.03-8.45,11.02-2.97,2.47-6.4,4.25-10.22,5.19,2.11-7.78.5-16.07-4.38-22.44-.61-.79-1.46-1.37-2.27-1.94-1.05-.74-2.67-1.19-3.52.16-.91,1.44-.82,3.41-.91,5.06-.16,2.97-.34,5.87-.29,8.84.04,1.97.14,5.59,1.11,7.26,1.45.95,2.26,2.5,2.26,4.18s-.79,3.24-2.23,4.2l-2.72,8.58ZM92.15,94.89c1.34-.93,2.46-1.98,3.54-3.15,4.29-4.96,3.56-10.05-.7-14.69-2.07-2.25-4.47-4.09-7.11-5.65-3.02-1.79-6.04-3.42-9.29-4.73-1.16-.47-2.19-1.01-3.11-1.85-.36-.32-.89-.31-1.27-.11-1.18.62-.54,2.76.49,3.78,1.4,1.38,2.74,2.71,4.06,4.21,2.92,3.3,5.67,6.67,8.27,10.23,1.83,2.49,1.93,5.64,1.97,8.59l.09,5.5,3.06-2.13ZM55.07,97.02l.08-5.33c.06-3.8.16-6.44,2.53-9.53,2.6-3.38,5.21-6.66,8.07-9.82,1.21-1.34,2.41-2.54,3.68-3.78,1.09-1.06,1.7-3.23.51-3.83-.45-.23-.99-.15-1.35.18-.92.87-1.98,1.33-3.14,1.82-3.99,1.69-7.8,3.71-11.4,6.13-1.83,1.23-3.43,2.66-4.92,4.26-1.19,1.29-2.14,2.68-2.82,4.28-1.6,3.77-.46,7.33,2.1,10.31,1.06,1.18,2.18,2.23,3.49,3.14l3.14,2.18ZM72.04,105.11c2.04.05,3.57-1.66,3.53-3.56s-1.61-3.51-3.58-3.44-3.42,1.67-3.4,3.53,1.48,3.43,3.44,3.47Z"/><path class="cls-3" d="M48.51,40.11c1.99-.36,3.75.95,4.09,2.82s-.92,3.75-2.83,4.1-3.71-.88-4.08-2.76.81-3.8,2.81-4.16Z"/><path class="cls-3" d="M39.97,61.16c1.99-.36,3.75.95,4.09,2.82s-.92,3.75-2.83,4.1-3.71-.88-4.08-2.76.81-3.8,2.81-4.16Z"/><path class="cls-3" d="M102.93,61.16c1.99-.36,3.75.95,4.09,2.82s-.92,3.75-2.83,4.1-3.71-.88-4.08-2.76.81-3.8,2.81-4.16Z"/><path class="cls-3" d="M71.81,30.39c1.99-.28,3.7,1.11,3.97,2.98s-1.07,3.74-3.02,3.99-3.67-1.05-3.95-2.98.98-3.71,2.99-3.99Z"/><path class="cls-3" d="M94.75,40.1c1.99-.28,3.7,1.11,3.97,2.98s-1.07,3.74-3.02,3.99-3.67-1.05-3.95-2.98.98-3.71,2.99-3.99Z"/></g></svg>