<?xml version="1.0" encoding="UTF-8"?><svg id="Layer_1" xmlns="http://www.w3.org/2000/svg" viewBox="0 0 144 144"><defs><style>.cls-1{fill:#d3ad71;}.cls-2{fill:#99742b;}.cls-3{opacity:0;}.cls-4{fill:#382915;}</style></defs><rect class="cls-3" width="144" height="144"/><polygon class="cls-4" points="131.14 71.97 90.46 15.98 24.64 37.37 24.64 106.57 90.46 127.96 131.14 71.97"/><polygon class="cls-2" points="109.17 104.25 120.26 104.25 143.71 71.97 120.26 39.68 109.17 39.68 131.8 71.7 109.17 104.25"/><path class="cls-2" d="M92.11,131.99l-70.56-22.92V34.88S92.11,11.95,92.11,11.95l43.6,60.02-43.6,60.02ZM27.83,104.51l61.88,20.11,38.25-52.65-38.25-52.64-61.88,20.11v65.07Z"/><g id="Layer_2"><g id="Layer_1-2"><path class="cls-1" d="M69.68,51.96l2.41-2.57,2.41,2.57-2.41,2.57-2.41-2.57Z"/><path class="cls-1" d="M68.7,42.07l3.38-3.61,3.38,3.61-3.38,3.61-3.38-3.61Z"/><path class="cls-1" d="M69.68,32.19l2.41,2.57,2.41-2.57-2.41-2.57-2.41,2.57Z"/><path class="cls-1" d="M73.53,65.58c.59-2.67,1.69-5.2,3.24-7.46l10.59-12.9-2.12-1.93s-7.51,8.67-9.44,11.56c-1.42,3.4-2.19,7.04-2.27,10.73Z"/><path class="cls-1" d="M75.81,75.88c-1.42,3.4-2.19,7.04-2.27,10.73.05-.43-.04.63-.04.63v27.14l.77-27.37c.14-2.03.59-4.03,1.34-5.93.19-.35.38-.68.55-.95l.38-.62c.15-.23.24-.36.24-.36l11.94-14.25-2.12-1.93s-8.86,10.01-10.79,12.9h0Z"/><path class="cls-1" d="M75.81,65.84c-1.42,3.4-2.19,7.04-2.27,10.73.59-2.67,1.69-5.2,3.24-7.46l15.49-18.67-2.12-1.93s-12.42,14.43-14.34,17.32h0Z"/><path class="cls-1" d="M90.18,41.82l-2.12-1.93-2.02,2.36,2.17,1.97,1.97-2.4Z"/><path class="cls-1" d="M75.33,50.93l7.67-8.86-7.67-8.86-2.34,2.5,5.62,6.36-5.62,6.36,2.34,2.5Z"/><path class="cls-1" d="M70.47,65.58c-.59-2.67-1.69-5.2-3.24-7.46l-10.59-12.9,2.12-1.93s7.51,8.67,9.44,11.56c1.42,3.4,2.19,7.04,2.27,10.73Z"/><path class="cls-1" d="M68.19,75.88c1.42,3.4,2.19,7.04,2.27,10.73-.05-.43.04.63.04.63v27.14l-.77-27.37c-.14-2.03-.59-4.03-1.34-5.93-.19-.35-.38-.68-.55-.95l-.38-.62c-.15-.23-.24-.36-.24-.36l-11.94-14.25,2.12-1.93s8.86,10.01,10.79,12.9h0Z"/><path class="cls-1" d="M68.19,65.84c1.42,3.4,2.19,7.04,2.27,10.73-.59-2.67-1.69-5.2-3.24-7.46l-15.49-18.67,2.12-1.93s12.41,14.43,14.34,17.32Z"/><path class="cls-1" d="M53.82,41.82l2.12-1.93,2.02,2.36-2.17,1.97-1.97-2.4Z"/><path class="cls-1" d="M68.67,50.93l-7.67-8.86,7.67-8.86,2.34,2.5-5.62,6.36,5.62,6.36-2.34,2.5Z"/></g></g></svg>