<?xml version="1.0" encoding="UTF-8"?><svg id="Layer_1" xmlns="http://www.w3.org/2000/svg" viewBox="0 0 144 144"><defs><style>.cls-1{fill:#487ea2;}.cls-2{fill:#86b2cd;}.cls-3{opacity:0;}.cls-4{fill:#1f3b47;}</style></defs><rect class="cls-3" width="144" height="144"/><polygon class="cls-4" points="131.14 71.97 90.46 15.98 24.64 37.37 24.64 106.57 90.46 127.96 131.14 71.97"/><polygon class="cls-1" points="109.17 104.25 120.26 104.25 143.71 71.97 120.26 39.68 109.17 39.68 131.8 71.7 109.17 104.25"/><path class="cls-1" d="M92.1,11.95l43.61,60.02-43.61,60.02-70.55-22.93V34.88S92.1,11.95,92.1,11.95ZM89.71,19.33l-61.89,20.11v65.07s61.89,20.1,61.89,20.1l38.24-52.64-38.24-52.64Z"/><path class="cls-2" d="M34.78,56.59c.12-.07.25-.04.37-.04,3.74,0,7.49,0,11.23,0,.01,0,.03,0,.05,0,.22,0,.41.11.54.29h0c5.22,6.79,10.44,13.57,15.66,20.35.57.73,1.14,1.46,1.69,2.2.2.27.29.22.47-.02,3.14-4.09,6.28-8.17,9.42-12.24,2.65-3.44,5.3-6.89,7.95-10.33.12-.15.23-.25.43-.25,3.85,0,7.69.01,11.54,0,.06,0,.11,0,.17.01.01.17-.11.25-.19.35-7.83,10.17-15.66,20.33-23.49,30.5-.13.18-.32.29-.54.29-.02,0-.03,0-.05,0h0c-3.68,0-7.35,0-11.03,0-.01,0-.03,0-.04,0-.21,0-.4-.11-.51-.28h0c-5.98-7.78-11.97-15.55-17.96-23.33-1.84-2.39-3.69-4.78-5.53-7.18-.08-.1-.19-.18-.21-.34h0Z"/><path class="cls-2" d="M109.22,56.57c-.58.76-1.12,1.46-1.66,2.16-7.3,9.48-14.6,18.97-21.9,28.45-.28.37-.56.53-1.01.53-3.64-.02-7.28-.01-10.92-.01h-.41c-.04-.18.08-.25.15-.34,7.39-9.59,14.77-19.18,22.16-28.76.47-.61.94-1.21,1.4-1.82.11-.14.22-.23.4-.23,3.86,0,7.72,0,11.58,0,.04,0,.09,0,.22.02h0Z"/><path class="cls-2" d="M79.52,56.58c-.94,1.23-1.86,2.42-2.77,3.61-1.21,1.58-2.43,3.15-3.64,4.73-1.13,1.46-2.25,2.92-3.38,4.38-1.2,1.56-2.4,3.12-3.59,4.67-.47.62-.96,1.22-1.42,1.84-.15.21-.26.18-.4-.01-.94-1.26-1.89-2.51-2.85-3.76-.58-.75-1.18-1.48-1.76-2.23-.71-.92-1.4-1.86-2.11-2.79s-1.44-1.82-2.15-2.74-1.4-1.86-2.1-2.78c-.57-.74-1.16-1.46-1.73-2.2s-1.14-1.51-1.71-2.27c-.1-.14-.28-.22-.33-.45h29.95Z"/></svg>