<?xml version="1.0" encoding="UTF-8"?><svg id="Layer_1" xmlns="http://www.w3.org/2000/svg" viewBox="0 0 144 144"><defs><style>.cls-1{opacity:0;}.cls-2{fill:#252b1f;}.cls-3{fill:#5ca76b;}.cls-4{fill:#98cc9e;}</style></defs><rect class="cls-1" width="144" height="144"/><polygon class="cls-2" points="72.27 13.1 16.28 53.78 37.67 119.59 106.87 119.59 128.26 53.78 72.27 13.1"/><polygon class="cls-3" points="104.55 35.07 104.55 23.98 72.27 .52 39.99 23.98 39.99 35.07 72 12.44 104.55 35.07"/><path class="cls-3" d="M124.91,54.52l-52.64-38.24L19.63,54.52l20.11,61.89h65.07s20.1-61.89,20.1-61.89ZM72.27,8.52l60.02,43.61-22.93,70.55H35.18S12.25,52.13,12.25,52.13L72.27,8.52Z"/><path class="cls-4" d="M74.38,108.27v-1.58s.04-3.6.04-3.6c.03-2.44-.09-4.8.08-7.23.22-3.17.8-6.19,1.84-9.18.36-1.03.53-2.06.8-3.11l.85-3.3c.13-.51-.12-1.04-.4-1.51-.82,1.43-1.42,2.87-1.9,4.41l-1.44,4.62c-.33,1.05-.47,2.06-.59,3.15-.07.59-.6,1.18-1.19.97-.49-.17-.55-.76-.7-1.18l-1.54-4.61c-.86-2.59-1.76-5.07-2.79-7.65-.93,1.42-.98,2.13-.58,3.6l.79,2.96c.35,1.32.73,2.58,1.15,3.88.28.85.39,1.73.53,2.61.12.74.25,1.44.42,2.17.24,1.06.14,2.1.18,3.19l.24,6.58c.06,1.69.1,3.29.02,4.98-.03.53-.31,1.08-.88,1.06-.13,0-.32-.17-.41-.31-.5-.85-.75-1.74-.89-2.7-.11-.76-.37-1.43-.58-2.17l-1.63-5.64c-1.05-3.64-2.23-7.24-3.89-10.7-1.52,1.61-2.07,3.33-3.34,5.17-.43.62-1.07.89-1.8.8-.29-.04-.46.27-.63.46-.41.46-.87.87-1.35,1.25-.4.31-.88.38-1.36.4-.81.04-1.4.59-1.44,1.39-.01.26-.18.51-.44.55-.34.06-.69,0-.95-.28.89-1.08,1.67-2.15,2.34-3.37.11-.21.06-.5-.13-.6l-.45-.25c.72-1.17,1.35-2.33,1.96-3.57l1.61-3.29c.52-1.06,1.24-1.93,1.79-2.96l.58-1.09c.89-.69,1.14-1.76.6-2.76l-1.18-2.18c-.39-.72-.78-1.37-1.22-2.07-1.41-2.26-2.04-5.09-3.33-7.47-.23-.22-.53-.45-.7-.75-.94-1.71-1.94-3.32-2.96-4.99l-3.08-5.04c-.67-1.1-1.36-2.15-2.12-3.16-.31-.41-.14-.77-.21-1.22-.11-.74-.87-1.45-1.55-1.66-.5-.16-.82-.28-1.16-.65-.26-.28-.39-.57-.38-1l-1.02-.89c-.35-.31-.82-.47-1.29-.56-.11-.11-.08-.39,0-.56.07-.15.31-.36.54-.28.44.15.89.33,1.25.59l.94.68c-.11-1.14-.49-2.14-1.23-3.04,1.07-.54,2.14.02,3.14.36.91-.07,1.73.1,2.45.7l1.5,1.24c.86.72,1.73,1.35,2.51,2.15,1.09,1.11,1.89,2.35,2.53,3.77.44.97.99,1.83,1.54,2.73l1.63,2.67,3.11,4.91,3.08,5.25c.61,1.04,1.09,2.08,1.56,3.19.54-.52.69-1.25.38-1.93-1.67-3.65-3.53-7.16-5.75-10.52-.18-.27-.3-.53-.45-.81-.22-.42-.54-.82-.68-1.29-1.12-3.76-2.91-6.53-5.42-9.49-.77-.91-1.06-1.49-1.28-2.61-.16-.79.38-1.6,1.21-1.64.31-.01.77.3.91.54.5.83,1.23.86,2.06,1.03,1.49.31,3.08,2.7,3.91,3.92l1.23,1.82c.04-.52-1.22-1.45-.52-2.23.17-.19.52-.44.85-.32.58.22,1.01.7,1.29,1.23l.93,1.74c.71,1.32,1.47,2.54,2.21,3.84l3.62,6.36c1-1.73,1.71-3.52,2.18-5.43l1.16-4.74c.21-1.08.37-2.1.49-3.18.04-.35.22-.75.49-.95.33-.25.71-.06.89.25.29.47.33.96.41,1.52.54,3.82,1.58,7.84,3.03,11.42.05.08.12.16.09.06l2.07-4.47c.62-1.35,1.2-2.65,1.95-3.94.79-1.36,1.67-2.61,2.8-3.7.42-.41.86-.77,1.3-1.14.9-.75,1.73-1.51,2.56-2.35.26-.27.67-.52,1.05-.54.51-.02,1.01.26,1.33.64.53.63-.19,1.58,1.69,2.11.64.18.61,1.22.27,1.67l-1.41,1.87c-.46.6-.75,1.39-.67,2.14.05.52-.04.87-.4,1.24-.79.81-1.42,1.75-1.93,2.8-1.07,2.21-2.14,4.32-3.33,6.48-1.09,1.98-2.09,3.92-2.95,6-.27.65-.13,1.37.35,1.86l1.67-2.97,4.84-8.32,4.97-8.48c.59-1.01,1.15-1.9,2.03-2.68.77-.67,1.55-1.32,2.42-1.86.4-.25.79-.45,1.15-.76.48-.39.98-.8,1.57-1.02l1.24-.46c.4-.15.8-.23,1.21-.08.29.11.37.36.4.68.43-.59.95-.97,1.63-.97.44,0,.77.28.75.73-.05,1.03-1.07,1.22-1.67,1.73.61-.14,1.25-.57,1.73.1.14.2.27.61.03.83-.55.5-1.1.99-1.69,1.44-.75.56-1.38,1.21-2.04,1.87-.52.51-.93.98-1.31,1.6l-3.53,5.88-3.74,6.06c-.61.99-1.04,1.95-1.45,3.01l-1.87,4.84c-.4,1.02-.71,2.05-1.32,2.97l-1.59,2.38c-.79,1.17-.63,2.27,0,3.45.82,1.54,1.75,2.97,2.69,4.44,1.57,2.44,1.25,3.65,3.16,5.94l1.89,2.26c.51.61.91,1.27,1.21,1.99.23.57.04,1.2-.53,1.45-.26.11-.57-.02-.84-.08-2.49-.55-4-1.86-5.42-3.96-.18.29-.44.54-.68.6-.91.24-1.64-.8-1.98-1.58-.19-.42-.42-.78-.68-1.16-.92-1.33-1.44-2.7-2.58-3.99h-.13c-1.43,2.89-2.49,5.88-3.39,8.99l-1.7,5.87-.62,2.37c-.23.86-.46,1.69-.58,2.58-.09.71-.64,2.25-1.3,2.24-.54-.01-.74-.92-.75-1.47ZM72.92,62.76c-.43-1.4.16-1.73-.64-2.27-.25,1.68-.56,3.3-1.14,4.89-.69,1.93-.99,3.26,0,5.11.75,1.39,1.06,2.88,1.49,4.46,2.27-5.3,1.86-7.06.28-12.19Z"/></svg>