<?xml version="1.0" encoding="UTF-8"?><svg xmlns="http://www.w3.org/2000/svg" viewBox="0 0 144 144"><defs><style>.cls-1{fill:#487ea2;}.cls-2{fill:#86b2cd;}.cls-3{opacity:0;}.cls-4{fill:#1f3b47;}</style></defs><g id="Layer_2"><rect class="cls-3" width="144" height="144"/></g><g id="Layer_1"><rect class="cls-3" x="0" width="144" height="144"/><polygon class="cls-4" points="131.14 71.97 90.46 15.98 24.64 37.37 24.64 106.57 90.46 127.96 131.14 71.97"/><polygon class="cls-1" points="109.17 104.25 120.26 104.25 143.71 71.97 120.26 39.68 109.17 39.68 131.8 71.7 109.17 104.25"/><path class="cls-1" d="M92.1,11.95l43.61,60.02-43.61,60.02-70.55-22.93V34.88S92.1,11.95,92.1,11.95ZM89.71,19.33l-61.89,20.11v65.07s61.89,20.1,61.89,20.1l38.24-52.64-38.24-52.64Z"/><path class="cls-2" d="M71.45,101.39l-25.11-25.11,25.11-25.11v.25c0,2.72,0,5.43,0,8.15v.02c0,.2-.09.38-.22.5h0c-5.3,5.29-10.6,10.59-15.89,15.88-.09.09-.18.16-.3.27.12.12.21.21.3.3,5.29,5.29,10.58,10.57,15.87,15.86.15.14.25.33.25.56v.03h0c0,2.69,0,5.39,0,8.08v.32Z"/><path class="cls-2" d="M72.54,51.17l25.09,25.09-25.09,25.09v-.2c0-2.72,0-5.43,0-8.15v-.03c0-.22.1-.42.25-.56h0c5.29-5.28,10.58-10.57,15.87-15.86.09-.09.18-.17.3-.27-.11-.12-.2-.21-.29-.3-5.28-5.28-10.56-10.56-15.84-15.83-.17-.16-.28-.38-.28-.63v-.04h0c0-2.76,0-5.54,0-8.3h0Z"/><path class="cls-2" d="M72.54,61.51c4.94,4.94,9.86,9.86,14.76,14.76l-14.76,14.76v-.27c0-2.62,0-5.23,0-7.85v-.04c0-.23.1-.43.25-.57h0c1.92-1.91,3.84-3.82,5.75-5.73.11-.09.22-.18.35-.26h.01c-.14-.11-.27-.21-.39-.31h0c-1.91-1.91-3.83-3.82-5.74-5.73-.14-.13-.23-.32-.23-.53v-.03h0c0-2.73,0-5.46,0-8.19h0Z"/><path class="cls-2" d="M71.45,61.49v4.79c0,1.13,0,2.27,0,3.4,0,.01,0,.03,0,.04,0,.2-.09.39-.23.52h0c-1.93,1.92-3.85,3.84-5.77,5.76-.08.08-.17.15-.28.24.11.12.19.2.27.29,1.92,1.92,3.84,3.84,5.77,5.76.14.13.23.32.23.53v.03h0c0,2.63,0,5.25,0,7.88v.3s-.02.01-.03.02h0s-.03,0-.03,0c-.03-.03-.07-.06-.1-.09l-14.65-14.65,14.81-14.82Z"/><path class="cls-2" d="M73.7,50.61h35.51c-.05.07-.1.13-.15.19h0c-1.96,1.94-3.93,3.88-5.89,5.83-.08.09-.2.14-.33.14h-.03c-.53,0-1.06,0-1.58,0-7.03,0-14.06,0-21.09,0h-.03c-.24,0-.46-.1-.6-.27h0c-1.86-1.87-3.72-3.74-5.59-5.6-.08-.07-.16-.13-.25-.2h0s.03-.07.05-.1h0Z"/><path class="cls-2" d="M34.79,50.61h35.53c-.05.07-.09.13-.14.19h0c-1.94,1.94-3.87,3.88-5.81,5.82-.14.14-.28.15-.45.15-2.87,0-5.75,0-8.62,0-4.66,0-9.32,0-13.98,0h-.03c-.23,0-.44-.1-.58-.26h0c-1.74-1.74-3.49-3.47-5.24-5.19-.22-.22-.43-.45-.68-.71h0Z"/><path class="cls-2" d="M80.91,57.88h20.95c-.09.1-.15.17-.21.24-1.89,1.87-3.77,3.74-5.66,5.62-.1.1-.23.17-.39.17h-.03c-2.81,0-5.61,0-8.42,0-.01,0-.03,0-.04,0-.13,0-.26-.06-.35-.14h0c-1.91-1.92-3.82-3.83-5.74-5.74-.03-.03-.06-.07-.13-.14h0Z"/><path class="cls-2" d="M62.96,57.9l-5.94,5.94.05.07h-.3c-2.76,0-5.53,0-8.29,0h-.02c-.21,0-.4-.09-.53-.24h0c-1.43-1.43-2.87-2.85-4.3-4.27-.49-.49-.96-1-1.44-1.5h20.77Z"/></g></svg>