<?xml version="1.0" encoding="UTF-8"?><svg id="Layer_1" xmlns="http://www.w3.org/2000/svg" viewBox="0 0 144 144"><defs><style>.cls-1{fill:#d3ad71;}.cls-2{fill:#99742b;}.cls-3{opacity:0;}.cls-4{fill:#382915;}</style></defs><rect class="cls-3" width="144" height="144"/><polygon class="cls-4" points="131.14 71.97 90.46 15.98 24.64 37.37 24.64 106.57 90.46 127.96 131.14 71.97"/><polygon class="cls-2" points="109.17 104.25 120.26 104.25 143.71 71.97 120.26 39.68 109.17 39.68 131.8 71.7 109.17 104.25"/><path class="cls-2" d="M92.11,131.99l-70.56-22.92V34.88S92.11,11.95,92.11,11.95l43.6,60.02-43.6,60.02ZM27.83,104.51l61.88,20.11,38.25-52.65-38.25-52.64-61.88,20.11v65.07Z"/><path class="cls-1" d="M66.94,42v10.37c-6.79.2-12.37,2.88-16.52,8.28-3.19,4.14-4.51,8.89-4.15,14.09.7,10.22,9.35,19.15,20.63,19.21v10.44c-10.88-.38-19.74-4.72-25.74-13.82-7.21-10.93-7.42-22.4-.79-33.68,6.51-11.08,18.18-15.18,26.57-14.88h0Z"/><path class="cls-1" d="M70.31,71.81v-29.85h29.84c.58,15.3-12.83,30.09-29.84,29.85Z"/><path class="cls-1" d="M70.32,104.28v-29.83h29.83c.42,15.58-12.97,30.01-29.83,29.83Z"/></svg>