<?xml version="1.0" encoding="UTF-8"?><svg xmlns="http://www.w3.org/2000/svg" viewBox="0 0 144 144"><defs><style>.cls-1{opacity:0;}.cls-2{fill:#252b1f;}.cls-3{fill:#5ca76b;}.cls-4{fill:#98cc9e;}</style></defs><g id="Layer_2"><rect class="cls-1" width="144" height="144"/></g><g id="Layer_1"><rect class="cls-1" x="0" width="144" height="144"/><polygon class="cls-2" points="72.27 13.1 16.28 53.78 37.67 119.59 106.87 119.59 128.26 53.78 72.27 13.1"/><polygon class="cls-3" points="104.55 35.07 104.55 23.98 72.27 .52 39.99 23.98 39.99 35.07 72 12.44 104.55 35.07"/><path class="cls-3" d="M124.91,54.52l-52.64-38.24L19.63,54.52l20.11,61.89h65.07s20.1-61.89,20.1-61.89ZM72.27,8.52l60.02,43.61-22.93,70.55H35.18S12.25,52.13,12.25,52.13L72.27,8.52Z"/><path class="cls-4" d="M41.96,90.62v-37.19h-5.35v-6.24h18.2v6.19h-5.21v37.19h5.35v6.24h-18.34v-6.19h5.34Z"/><path class="cls-4" d="M67.47,90.62l12.66-18.76-12.66-18.76h-6.38v-5.91h19.98v6.19h-5.58l8.68,12.66,8.58-12.66h-5.77v-6.19h19.09v6.19h-6.19l-12.15,17.92,13.23,19.32h6.42v6.19h-20.31v-6.19h5.72l-9.1-13.42-9.1,13.42h6.24v6.19h-20.07v-6.19h6.7Z"/></g></svg>