<?xml version="1.0" encoding="UTF-8"?><svg xmlns="http://www.w3.org/2000/svg" viewBox="0 0 144 144"><defs><style>.cls-1{opacity:0;}.cls-2{fill:#252b1f;}.cls-3{fill:#5ca76b;}.cls-4{fill:#98cc9e;}</style></defs><g id="Layer_2"><rect class="cls-1" width="144" height="144"/></g><g id="Layer_1"><rect class="cls-1" x="0" width="144" height="144"/><polygon class="cls-2" points="72.27 13.1 16.28 53.78 37.67 119.59 106.87 119.59 128.26 53.78 72.27 13.1"/><polygon class="cls-3" points="104.55 35.07 104.55 23.98 72.27 .52 39.99 23.98 39.99 35.07 72 12.44 104.55 35.07"/><path class="cls-3" d="M124.91,54.52l-52.64-38.24L19.63,54.52l20.11,61.89h65.07s20.1-61.89,20.1-61.89ZM72.27,8.52l60.02,43.61-22.93,70.55H35.18S12.25,52.13,12.25,52.13L72.27,8.52Z"/><g id="Layer_2-2"><g id="Layer_1-2"><path class="cls-4" d="M57.97,80.24c-.86-.73-1.95-1.13-3.07-1.13-.08,0-.16,0-.25,0h.01s-6.82,0-6.82,0l-3.81-5.98h10.7c.14.02.29.02.43.02.86,0,1.7-.28,2.38-.8h0c.58-.71.9-1.6.9-2.53,0-.16,0-.32-.03-.48v.02c-.01-1.62-1.33-2.93-2.95-2.93h-.06s0,0,0,0h-7.97l-3.73-5.88c.45-.08.91-.13,1.38-.15h.02s10.25,0,10.25,0c.15.03.31.04.47.04.98,0,1.88-.55,2.32-1.43h0c.25-.55.38-1.12.37-1.71,0-.82-.25-1.62-.72-2.3h0c-.48-.65-1.24-1.04-2.06-1.04-.1,0-.2,0-.29.02h.01s-11.75,0-11.75,0l-5.52-8.77h26.61v45.22c-.05,3.49-1.19,6.87-3.27,9.67l.03-.04c-1.55,2.19-3.6,3.98-5.97,5.22l-.09.04-2.8-.81c.88-1.05,1.67-1.95,2.42-2.88,1.65-2.21,2.71-4.8,3.07-7.54v-.08c.39-4.06.49-8.14.3-12.21-.1-.56-.29-1.1-.56-1.6v.03s.01,0,.01,0Z"/><path class="cls-4" d="M79.31,45.23h26.48l-5.45,8.72h-5.99c-1.85,0-3.7.1-5.6,0-2.51-.21-3.67,1.76-2.93,4.4.16.46.38.89.65,1.3l-.02-.02c.55.5,1.26.78,2,.78.07,0,.15,0,.22,0h0s11.58,0,11.58,0c-1.07,2.07-2.25,4.09-3.53,6.05h-7.83c-.07,0-.16,0-.24,0-1.27,0-2.4.8-2.82,2.01v.02c-.17.42-.26.87-.26,1.32,0,1.01.42,1.98,1.17,2.67h0c.57.46,1.27.71,2,.71.06,0,.12,0,.18,0h0s10.91,0,10.91,0c-.94,2.24-2.48,3.92-3.46,5.98h-8.61c-1.32.55-2.18,1.85-2.19,3.28,0,.12,0,.23.02.35h0c.08,2.79-.08,5.48.07,8.22v.12c0,3,.73,5.95,2.15,8.59l-.05-.1c.86,1.34,1.79,2.63,2.78,3.87l-.07-.09c.25.34.59.63,1.04,1.12l-2.88.87c-2.87-1.6-5.27-3.92-6.96-6.74l-.05-.08c-1.26-2.02-1.99-4.33-2.1-6.7v-.03c0-1.4-.23-2.8-.27-4.2,0-.66.17-1.32.21-1.97v-5.95c0-.22.07-.43.07-.66l-.25-6.06v-1.01c0-3.98-.07-7.95,0-11.93,0-1.58-.11-3.18,0-4.76,0-.77.2-1.54.24-2.31,0-.05,0-.11,0-.16,0-.52-.03-1.04-.09-1.55v.06c0-.28-.19-.56-.15-.81.24-1.64-.15-3.33.03-5.25h0Z"/><path class="cls-4" d="M71.13,109.79c.81-.34,0-1.01.24-1.58l-1.71,1.3c-.36-1.94-.53-3.91-.53-5.89,0-.43,0-.85.02-1.27v.06s-.76-.83-.76-.83c.14-.99.24-2.04.45-3.05.24-1.82.35-3.65.35-5.49,0-.95-.03-1.89-.09-2.82v.13c0-1.4-.25-2.8-.26-4.31,0-.83.27-1.64.27-2.46v-38.18c.91-.12,1.84-.17,2.76-.17.16,0,.32,0,.47,0h-.02s3.09,0,3.09,0c0,.38.07.64.07.91v53.89c0,2.8-.39,5.74-.64,8.61,0,.24-.25.45-.52.88l-.14-1.67h-.28v3.31l-1.08.45.25.81-1.4,2.37c-.29-1.76.25-3.46-.45-5.04l-.1.04ZM71.89,113.42h.2v-1.54h-.2v1.54Z"/></g></g></g></svg>