<?xml version="1.0" encoding="UTF-8"?><svg id="Layer_1" xmlns="http://www.w3.org/2000/svg" viewBox="0 0 144 144"><defs><style>.cls-1{fill:#c23d27;}.cls-2{opacity:0;}.cls-3{fill:#c68778;}.cls-4{fill:#2f1718;}</style></defs><rect class="cls-2" width="144" height="144"/><polygon class="cls-4" points="72.27 130.84 128.26 90.16 106.87 24.34 37.67 24.34 16.28 90.16 72.27 130.84"/><polygon class="cls-1" points="39.99 108.86 39.99 119.96 72.27 143.41 104.55 119.96 104.55 108.86 72.54 131.49 39.99 108.86"/><path class="cls-1" d="M39.73,27.53l-20.1,61.88,52.64,38.25,52.64-38.25-20.11-61.88H39.73ZM72.27,135.42L12.25,91.81,35.18,21.25h74.18s22.93,70.56,22.93,70.56l-60.02,43.61Z"/><path class="cls-3" d="M69.08,71.95l-33.17-19.15v38.3l33.17-19.15ZM74.92,71.95l33.17,19.15v-38.3l-33.17,19.15ZM88.73,41.31l-16.58-9.57-33.17,19.15,33.17,19.15,33.17-19.15-16.59-9.58ZM88.73,83.55l-16.58-9.58-33.17,19.15,33.17,19.15,33.17-19.15-16.59-9.58h0Z"/></svg>