<?xml version="1.0" encoding="UTF-8"?><svg id="Layer_1" xmlns="http://www.w3.org/2000/svg" viewBox="0 0 144 144"><defs><style>.cls-1{fill:#d3ad71;}.cls-2{fill:#99742b;}.cls-3{opacity:0;}.cls-4{fill:#382915;}</style></defs><rect class="cls-3" width="144" height="144"/><polygon class="cls-4" points="131.14 71.97 90.46 15.98 24.64 37.37 24.64 106.57 90.46 127.96 131.14 71.97"/><polygon class="cls-2" points="109.17 104.25 120.26 104.25 143.71 71.97 120.26 39.68 109.17 39.68 131.8 71.7 109.17 104.25"/><path class="cls-2" d="M92.11,131.99l-70.56-22.92V34.88S92.11,11.95,92.11,11.95l43.6,60.02-43.6,60.02ZM27.83,104.51l61.88,20.11,38.25-52.65-38.25-52.64-61.88,20.11v65.07Z"/><path class="cls-1" d="M74.76,84.58h9.49c3.06,0,6.98-1.21,6.98-7.18v-38.21c0-.89-.72-1.61-1.61-1.61s-1.61.72-1.61,1.61v23.2c0,8.34-8.06,16.67-17.77,16.67s-17.77-8.34-17.77-16.67v-23.2c0-.89-.72-1.61-1.61-1.61s-1.61.72-1.61,1.61v38.21c0,5.97,3.92,7.18,6.98,7.18h9.49c.67,0,1.21.54,1.21,1.21,0,.67-.54,1.21-1.21,1.21h-10.32c-3.47,0-6.14-2.4-6.14-2.4v9.52h11.14v6.78l9.85-4.03,9.85,4.03v-6.78h11.14v-9.52s-2.67,2.4-6.14,2.4h-10.32c-.67,0-1.21-.54-1.21-1.21,0-.67.54-1.21,1.21-1.21Z"/><rect class="cls-1" x="82.3" y="96.43" width="8.89" height="8.89"/><rect class="cls-1" x="49.26" y="96.43" width="8.89" height="8.89"/><circle class="cls-1" cx="70.23" cy="53.22" r="15.58"/></svg>