<?xml version="1.0" encoding="UTF-8"?><svg id="Layer_1" xmlns="http://www.w3.org/2000/svg" viewBox="0 0 144 144"><defs><style>.cls-1{fill:#d3ad71;}.cls-2{fill:#99742b;}.cls-3{opacity:0;}.cls-4{fill:#382915;}</style></defs><rect class="cls-3" width="144" height="144"/><polygon class="cls-4" points="131.14 71.97 90.46 15.98 24.64 37.37 24.64 106.57 90.46 127.96 131.14 71.97"/><polygon class="cls-2" points="109.17 104.25 120.26 104.25 143.71 71.97 120.26 39.68 109.17 39.68 131.8 71.7 109.17 104.25"/><path class="cls-2" d="M92.11,131.99l-70.56-22.92V34.88S92.11,11.95,92.11,11.95l43.6,60.02-43.6,60.02ZM27.83,104.51l61.88,20.11,38.25-52.65-38.25-52.64-61.88,20.11v65.07Z"/><path class="cls-1" d="M64.89,36.25c.29.98.28.99-.03.03l-.09-.03h.12Z"/><path class="cls-1" d="M64.78,36.25c.36.37-.4,1.79.21,2.45.29-.25.16-.6.27-.91.22-.58.05-1.17-.36-1.54l-.15-2.25c-.05-.81.47-1.59.51-2.51.29.41.03.82.26,1.24.28-.63-.09-1.81.41-2.24.49-.13.92.44.89.92-.13,1.85,1.53,2.38.93,3.07-.38.05-.62-.47-.97-.63-.35,1.55,1.82.07,1.37,3.55-.1.75.32,1.51.3,2.23-.04,1.04,1.02,1.28.4,4.11-.12.56.04.94.08,1.45.18,2.23.43,4.44.28,6.69l-.4,6.26-.16,5.14c1.26-1.58.58-1.66,1.9-3.96,1.16-2.03,1.02-3.12,1.99-4.98.17.78.43,1.44.66,2.18l1.71,5.34c.2.63.65,1.12.75,1.77.35-.85.1-3.57-.01-4.51-.07-.58.04-1.16,0-1.75l-.64-8.36c-.24-3.18-.3-6.29.21-9.42.14-.86.74-1.56.96-2.4.18-.68.15-1.42.47-2.05.12-.18.73.02.87-.25.42-.83.82-1.61,1.34-2.37.21-.31-.01-.84.28-1.15.33.64.2,1.34.27,2.02.15,1.53-.32,2.76.13,3.07l.84-2.06c.04-.1.11-.23.18-.24.73-.06.21,2.88.16,2.81l.2.88c-.27-1.1.21,3.53.19,2.99.15,2.47.14,4.93.59,7.37.12.67.1,1.25.16,1.92.04.45.34.85.32,1.39-.07,1.64-.03,3.21.34,4.89,1.59-3.19,3.66-6.06,6.17-8.55.81-.81,1.6-1.39,2.52-2.04,1.28-.89,2.28-2.12,3.66-2.85l-.1.65,2.13-1.47c.09-.06.23-.05.3-.09.07-.04.22.23.31.21,1.2-.36,1.79-1.62,3.18-1.32-.45.18-.36.73-.58.91l-2.59,2.01,1.61-.63c-.06.37-.46.4-.58.69-.09.23.18.36.38.43-.62.69-1.31,1.31-1.9,2.06-.51.66-1.19,1.05-1.75,1.64-1.78,1.87-3.4,3.81-4.99,5.86-1.12,1.45-1.82,3.07-2.75,4.6l-2.1,3.44c-.44.72-.85,1.46-1.02,2.34.8-.45.8-1.42,1.33-2.07l5.15-6.19c.66-.79,2.75-1.68,3.69-2.7.14-.15.47-.1.66-.21l4.58-2.78c.04.32.08.54.17.84-.7.58-1.26,1.49-2.02,1.92-.38.21-.88.27-.99.94l.69-.29c-.19,1.73-1.01,1.96-1.91,3.26-1.16,1.68-2.38,3.21-3.68,4.8-1.08,1.33-2.21,2.55-3.14,3.99-1.06,1.65-1.74,3.46-2.72,5.19.25.79.74,1.37.92,2.15.17.72.25,1.44.5,2.16.52,1.51.86,3.03,1.18,4.59.21,1.02.93,1.74,1.33,2.64.76,1.72,1.2,4.81,2.06,6.64l.3-.37c.96,1.15,1.7,2.36,1.93,3.75-.27-.12-.45-.2-.55-.13-.22.15-.15.34,0,.52.53.66.98,1.34,1.55,1.96.3.32.77.45.97.85.13.26.12.85-.24.8-.67-.08-1.59-1.38-2.29-1.29.6.79,1.48,1.2,1.97,1.96l1.12,1.73c0-.05,1.84,1.37,1.26,2.58-.7-.67-1.67-.98-2.26-1.66-.65-.76-1.12-1.59-1.89-2.26-2.55-2.19-3.15-4.93-4.44-6.43-.62-.73-1.29-1.34-1.88-2.14-1.84-2.5-3.42-5.14-5.02-7.82-.21-.35-.15-.76-.51-1.07l-1.17,4.76c-.12.48-.15.92-.25,1.41-.37,1.83-.88,3.59-1.47,5.36-.5,1.5-.93,2.93-1.13,4.52-.22,1.66-.92,1.67-1.14,4.57-.09,1.13-.66,1.94-1.04,2.95l-2.05,5.47c-.32.86-1.22,3.4-1.35,4.14-.03.16-.24.27-.33.27-.15,0-.19-.24-.22-.39-.2-.85-.75-1.49-1.02-2.31l-2.89-8.87c-.52-1.59-1.19-3.01-1.58-4.63l-1.23-5.06c-.75-3.09-1.28-6.2-2.36-9.16l-.87-2.38c-.32.62-.7.96-1.02,1.49l-2.88,4.75c-.5.82-1.14,1.49-1.5,2.42.5-.11.63-.6,1.18-.64-.58,1.3-1.48,2.34-2.34,3.41-1.23,1.52-.95,2.17-2.29,2.97.27-.66.59-1.19.67-1.87-1.53,2.03-1.11,2.19-2.96,4.19-.22.23-.37.16-.59.27-1.26.63-1.95,2.62-2.83,2.93-2.03.72-1.73,1.61-3.49,2.28.5-1.35,1.73-1.98,2.67-2.94.86-.87,1.36-2.05,1.97-3.03h0s.04-.05.06-.07h0c.22-.22.59-.35.56-.78l-.69.78h0c-1.28.16-.86,1.95-2.04,1.72.5-.87.92-1.7,1.3-2.57.47-1.08,2.37-2.21,3.37-4.35l.58-1.24c.3-.65,1.11-1.33,1.17-2.08.09-1.21.18-2.24.58-3.43l.58-1.76,1.09-2.7c.19-.48.39-.82.52-1.35.29-1.24.77-2.36.98-3.64.22-1.38,1.14-2.71,1.13-4.11-.04-1.22-1.11-2.4-1.67-3.44-1.58-2.89-1.05-3.16-3.27-5.75-1.35-1.58-2.58-3.14-3.82-4.81-.77-1.04-1.74-1.83-2.59-2.8-.41-.47-.74-.96-1.25-1.35-.1-.08.12-.3.2-.3.62,0,.91.93,1.49.83-.31-.88-3.57-2.81-3.17-3.38.4-.57,1.08.81,1.14-.25.46-.16,3.02,1.25,3.18,1.49.47.72,1.26.87,1.86,1.4l6.96,6.13c.53.47,1.2,1.52,1.61,2.17l1.62,2.57c.06-.37-.08-.68-.27-.97l-1.9-2.86c-.48-.72-.95-1.37-1.32-2.17-.29-.62-.73-1.17-1.07-1.8-.7-1.3-1.56-2.45-2.55-3.54l-4.11-4.51c-1.1-1.2-2.18-2.32-3.06-3.61.27-.03.38.07.52.06.12,0,.19-.22.3-.31.36-.26,1.07,1.69,1.36.94.2-.52-.35-.68-.67-.93-1.34-1.04-2.71-2.26-3.8-3.57-.06-.22.18-.63-.28-.79,1.14.33,1.92,1.03,2.87,1.62.07.35-.05.66.16.96.24-.11.19-.45.36-.56.66-.44,1.83,1.24,2.64,1.21,1.88-.05,1.85.63,2.42,1.2l1.11,1.1c.55.55,1.02,1.23,1.78,1.6-.09-.63-.62-.94-.83-1.56.49.25.93.63,1.34,1.07,1.33,1.42,2.6,2.85,3.88,4.42-.07.3-.49.18-.78.02.59,1.27,1.45,2.35,2.27,3.54.4.59.52,1.45,1.12,1.91.39.07.3-.57.32-.86.55-8.2,1.88-11.93,1.52-20.86,0-.17.06-.32.1-.46.04-.13.25-.17.38-.08.53.33.09,1.32.78,2.03ZM75.08,77.79c.38-.84,1.01-1.73.64-2.69-.2-.51-.81-.88-1.05-1.39l-.75-1.63-1.69-2.98c-1.58,2.4-2.32,4.33-3.84,6.54,1.33,2.37,1.69,4.2,2.41,6.7l1.41,4.88c.26-1.59.4-2.88.99-4.25.43-1,.48-2.16,1.03-3.12.38-.67.52-1.34.84-2.05Z"/><path class="cls-1" d="M53.03,95.39c.92.1-2.29,3.93-1.87,2.51l1.87-2.51Z"/><path class="cls-1" d="M48.65,97l.69-.78c.02.43-.34.56-.56.77.34-.38.3-.37-.13,0Z"/><path class="cls-1" d="M48.77,97s-.04.04-.06.07h0s-.03-.05-.06-.06h0c.42-.38.47-.39.13,0h0Z"/></svg>