<?xml version="1.0" encoding="UTF-8"?><svg id="Layer_1" xmlns="http://www.w3.org/2000/svg" viewBox="0 0 144 144"><defs><style>.cls-1{opacity:0;}.cls-2{fill:#252b1f;}.cls-3{fill:#5ca76b;}.cls-4{fill:#98cc9e;}</style></defs><rect class="cls-1" width="144" height="144"/><polygon class="cls-2" points="72.27 13.1 16.28 53.78 37.67 119.59 106.87 119.59 128.26 53.78 72.27 13.1"/><polygon class="cls-3" points="104.55 35.07 104.55 23.98 72.27 .52 39.99 23.98 39.99 35.07 72 12.44 104.55 35.07"/><path class="cls-3" d="M124.91,54.52l-52.64-38.24L19.63,54.52l20.11,61.89h65.07s20.1-61.89,20.1-61.89ZM72.27,8.52l60.02,43.61-22.93,70.55H35.18S12.25,52.13,12.25,52.13L72.27,8.52Z"/><path class="cls-4" d="M101,45.93l.04,2.15-15.58,15.51-2-2.46,15.21-15.17c.84-.11,1.51-.1,2.32-.03Z"/><path class="cls-4" d="M100.91,96.71c.21.78.13,1.47.08,2.28-.82.07-1.47.08-2.32-.03l-15.21-15.17,2-2.46,15.44,15.38Z"/><path class="cls-4" d="M100.96,39.83c.13.69.09,1.26.04,2.2l-18.35,18.31-2.62-1.86,18.68-18.64c.82-.09,1.46-.07,2.24-.02Z"/><path class="cls-4" d="M100.96,102.87c.14.55.17,1.63-.04,2.11-.6.36-1.47.08-2.21.1l-18.7-18.66c.9-.65,1.66-1.09,2.58-1.88l18.37,18.33Z"/><path class="cls-4" d="M99.18,69.77c-.51.76-1,1.13-1.59,1.66h-9.51c-.07-1.17-.32-2.09-.46-3.15l9.94.02c.62.2,1.03.97,1.62,1.47Z"/><path class="cls-4" d="M99.19,74.97c-.52.67-1.01,1.11-1.61,1.63h-9.97c.19-1.1.38-1.99.48-3.12l9.53-.03c.59.43.99.89,1.57,1.53Z"/><path class="cls-4" d="M86.37,70.1c1.31,7.86-4.03,15.3-11.87,16.59-7.78,1.28-15.19-3.92-16.57-11.7-1.37-7.78,3.76-15.41,11.84-16.75,8.03-1.33,15.3,4.13,16.59,11.86ZM72.56,83.92c6.31-.23,11.28-5.55,11.04-11.88-.24-6.2-5.39-11.27-11.87-11.02-6.56.24-11.36,5.78-11.03,12.07.33,6.23,5.63,11.06,11.87,10.83Z"/><path class="cls-4" d="M75.45,71.81c.37,1.83-.84,3.59-2.66,3.96-1.75.35-3.48-.76-3.92-2.49-.44-1.76.62-3.7,2.63-4.11,1.94-.39,3.61.94,3.95,2.65Z"/><path class="cls-4" d="M72.12,52.75c1.68,1.65,1.74,1.14,1.55,3.79-1.11-.06-1.94-.06-3.03.02-.23-2.5-.25-2.23,1.48-3.8Z"/><path class="cls-4" d="M73.64,88.38c.3,2.44.09,2.16-1.52,3.69-1.61-1.48-1.75-1.28-1.47-3.68,1.07.06,1.92.05,2.99-.01Z"/><path class="cls-4" d="M64.28,86.42l-18.56,18.52c-.72.47-1.65.04-2.37.17-.15-.8-.12-1.41-.02-2.25l18.33-18.29,2.63,1.85Z"/><path class="cls-4" d="M64.26,58.49l-2.62,1.86-18.32-18.29c-.11-.83-.12-1.49,0-2.23.79-.05,1.43-.06,2.26.02l18.67,18.64Z"/><path class="cls-4" d="M58.77,81.37l2.08,2.39-15.17,15.16c-.91.21-1.57.12-2.39.08-.08-.77-.04-1.37,0-2.19l15.47-15.44Z"/><path class="cls-4" d="M60.79,61.09l-1.97,2.5-15.45-15.38c-.12-.7-.28-1.61,0-2.21.6-.29,1.48-.07,2.25-.05l15.18,15.14Z"/><path class="cls-4" d="M56.14,73.44l.53,3.15h-9.94c-.6-.52-1.07-.93-1.58-1.6.43-.43.92-1.25,1.56-1.48l9.44-.06Z"/><path class="cls-4" d="M46.61,68.28h10.06c-.12,1.06-.39,1.98-.46,3.14h-9.5c-.57-.51-1.05-.98-1.56-1.57.39-.63.94-1,1.47-1.58Z"/></svg>