<?xml version="1.0" encoding="UTF-8"?><svg xmlns="http://www.w3.org/2000/svg" viewBox="0 0 144 144"><defs><style>.cls-1{fill:#487ea2;}.cls-2{fill:#86b2cd;}.cls-3{opacity:0;}.cls-4{fill:#1f3b47;}</style></defs><g id="Layer_2"><rect class="cls-3" width="144" height="144"/></g><g id="Layer_1"><rect class="cls-3" x="0" width="144" height="144"/><polygon class="cls-4" points="131.14 71.97 90.46 15.98 24.64 37.37 24.64 106.57 90.46 127.96 131.14 71.97"/><polygon class="cls-1" points="109.17 104.25 120.26 104.25 143.71 71.97 120.26 39.68 109.17 39.68 131.8 71.7 109.17 104.25"/><path class="cls-1" d="M92.1,11.95l43.61,60.02-43.61,60.02-70.55-22.93V34.88S92.1,11.95,92.1,11.95ZM89.71,19.33l-61.89,20.11v65.07s61.89,20.1,61.89,20.1l38.24-52.64-38.24-52.64Z"/><path class="cls-2" d="M41.96,90.62v-37.19h-5.35v-6.24h18.2v6.19h-5.21v37.19h5.35v6.24h-18.34v-6.19h5.34Z"/><path class="cls-2" d="M67.47,90.62l12.66-18.76-12.66-18.76h-6.38v-5.91h19.98v6.19h-5.58l8.68,12.66,8.58-12.66h-5.77v-6.19h19.09v6.19h-6.19l-12.15,17.92,13.23,19.32h6.42v6.19h-20.31v-6.19h5.72l-9.1-13.42-9.1,13.42h6.24v6.19h-20.07v-6.19h6.7Z"/></g></svg>