<?xml version="1.0" encoding="UTF-8"?><svg id="Layer_1" xmlns="http://www.w3.org/2000/svg" viewBox="0 0 144 144"><defs><style>.cls-1{fill:#c23d27;}.cls-2{opacity:0;}.cls-3{fill:#c68778;}.cls-4{fill:#2f1718;}</style></defs><rect class="cls-2" width="144" height="144"/><polygon class="cls-4" points="72.27 130.84 128.26 90.16 106.87 24.34 37.67 24.34 16.28 90.16 72.27 130.84"/><polygon class="cls-1" points="39.99 108.86 39.99 119.96 72.27 143.41 104.55 119.96 104.55 108.86 72.54 131.49 39.99 108.86"/><path class="cls-1" d="M39.73,27.53l-20.1,61.88,52.64,38.25,52.64-38.25-20.11-61.88H39.73ZM72.27,135.42L12.25,91.81,35.18,21.25h74.18s22.93,70.56,22.93,70.56l-60.02,43.61Z"/><path class="cls-3" d="M74.76,84.58h9.49c3.06,0,6.98-1.21,6.98-7.18v-38.21c0-.89-.72-1.61-1.61-1.61s-1.61.72-1.61,1.61v23.2c0,8.34-8.06,16.67-17.77,16.67s-17.77-8.34-17.77-16.67v-23.2c0-.89-.72-1.61-1.61-1.61s-1.61.72-1.61,1.61v38.21c0,5.97,3.92,7.18,6.98,7.18h9.49c.67,0,1.21.54,1.21,1.21,0,.67-.54,1.21-1.21,1.21h-10.32c-3.47,0-6.14-2.4-6.14-2.4v9.52h11.14v6.78l9.85-4.03,9.85,4.03v-6.78h11.14v-9.52s-2.67,2.4-6.14,2.4h-10.32c-.67,0-1.21-.54-1.21-1.21,0-.67.54-1.21,1.21-1.21Z"/><rect class="cls-3" x="82.3" y="96.43" width="8.89" height="8.89"/><rect class="cls-3" x="49.26" y="96.43" width="8.89" height="8.89"/><circle class="cls-3" cx="70.23" cy="53.22" r="15.58"/></svg>