<?xml version="1.0" encoding="UTF-8"?><svg id="Layer_1" xmlns="http://www.w3.org/2000/svg" viewBox="0 0 144 144"><defs><style>.cls-1{fill:#487ea2;}.cls-2{fill:#86b2cd;}.cls-3{opacity:0;}.cls-4{fill:#1f3b47;}</style></defs><rect class="cls-3" width="144" height="144"/><polygon class="cls-4" points="131.14 71.97 90.46 15.98 24.64 37.37 24.64 106.57 90.46 127.96 131.14 71.97"/><polygon class="cls-1" points="109.17 104.25 120.26 104.25 143.71 71.97 120.26 39.68 109.17 39.68 131.8 71.7 109.17 104.25"/><path class="cls-1" d="M92.1,11.95l43.61,60.02-43.61,60.02-70.55-22.93V34.88S92.1,11.95,92.1,11.95ZM89.71,19.33l-61.89,20.11v65.07s61.89,20.1,61.89,20.1l38.24-52.64-38.24-52.64Z"/><path class="cls-2" d="M80.02,71.94c0,4.42-3.58,8-8,8-4.42,0-8-3.58-8-8,0-4.41,3.57-7.99,7.98-8,4.42-.01,8.01,3.56,8.02,7.98,0,0,0,.01,0,.02ZM107.2,45.41c.35,1.45.53,2.94.52,4.43,0,1.89-.28,3.78-.83,5.59l.04-.14c-.57,2.12-1.88,3.97-3.69,5.2l-.02.02c-5.47,3.61-10.95,7.2-16.42,10.77-.26.15-.52.28-.8.39h-.06c0-3.3-.1-6.44.04-9.59.08-1.71.99-3.14,2.29-4.27,1.01-.88,2.08-1.7,3.2-2.45l.1-.08c4.89-3.16,9.8-6.27,14.69-9.4l.93-.47v-.02ZM85.94,72c.78.49,1.28.78,1.75,1.11,4.95,3.16,9.86,6.41,14.85,9.49,3.57,2.19,5.05,5.44,5.24,9.41.1,2.02,0,4.06,0,6.35-.66-.33-1.01-.49-1.34-.68l-14.42-9.03c-.62-.39-1.18-.83-1.81-1.22-2.93-1.71-4.6-4.97-4.29-8.35.12-2.23,0-4.46,0-7.09h.02ZM45.47,38.55c1.44-.34,2.92-.51,4.41-.5,1.91-.01,3.8.26,5.63.82l-.14-.02c2.12.57,3.97,1.88,5.2,3.69v.02c3.62,5.46,7.22,10.94,10.79,16.42.14.25.27.51.39.78v.06c-3.3,0-6.44.1-9.59-.02-1.69-.13-3.24-.97-4.27-2.31-.88-1.01-1.7-2.07-2.45-3.18l-.08-.12c-3.18-4.87-6.31-9.78-9.43-14.69-.17-.25-.29-.56-.47-.93ZM72.01,59.83c.49-.78.78-1.28,1.11-1.77,3.16-4.95,6.41-9.84,9.49-14.85,2.19-3.53,5.44-5.03,9.4-5.24,2.02-.1,4.06,0,6.35,0-.33.66-.47,1.03-.68,1.36l-9.03,14.4c-.39.62-.82,1.2-1.22,1.81-1.71,2.94-4.96,4.62-8.35,4.31-2.21-.12-4.46-.02-7.09-.02h.02ZM98.41,105.43c-1.44.35-2.92.53-4.41.52-1.89,0-3.78-.28-5.59-.83l.14.04c-2.13-.56-3.98-1.87-5.22-3.69v-.04c-3.61-5.46-7.2-10.93-10.77-16.4-.15-.26-.28-.52-.39-.8l-.02-.06c3.3,0,6.46-.1,9.61.04,1.69.08,3.14.99,4.27,2.29.88,1.01,1.7,2.07,2.45,3.18l.06.12c3.18,4.89,6.29,9.8,9.41,14.69.19.27.29.58.49.93h-.02ZM71.91,84.19l-1.09,1.75c-3.18,4.95-6.41,9.84-9.51,14.85-2.19,3.55-5.44,5.05-9.41,5.24-2.02.1-4.04,0-6.35,0,.33-.66.49-1.03.68-1.34l9.03-14.42c.39-.62.83-1.2,1.22-1.81,1.71-2.94,4.96-4.62,8.35-4.31,2.23.12,4.46.04,7.09.04h0ZM36.73,98.42c-.35-1.44-.52-2.91-.52-4.39,0-1.91.29-3.81.85-5.63l-.04.14c.56-2.13,1.87-3.98,3.69-5.22h.02c5.47-3.61,10.95-7.2,16.42-10.77.26-.15.52-.28.8-.39l.06-.02c0,3.3.1,6.44-.04,9.61-.13,1.68-.96,3.23-2.29,4.27-1.01.88-2.08,1.7-3.2,2.45l-.1.06c-4.91,3.18-9.82,6.31-14.73,9.43-.27.19-.58.29-.93.47h.02ZM57.99,71.88c-.78-.49-1.28-.78-1.77-1.11-4.95-3.16-9.84-6.41-14.85-9.51-3.53-2.17-5.03-5.42-5.24-9.38-.08-2.04.02-4.08.02-6.39.66.33,1.03.47,1.36.66l14.36,9.05c.62.39,1.2.83,1.81,1.22,2.94,1.71,4.62,4.96,4.31,8.35-.12,2.23-.02,4.46-.02,7.1h.02Z"/></svg>