<?xml version="1.0" encoding="UTF-8"?><svg xmlns="http://www.w3.org/2000/svg" viewBox="0 0 144 144"><defs><style>.cls-1{fill:#d3ad71;}.cls-2{fill:#99742b;}.cls-3{opacity:0;}.cls-4{fill:#382915;}</style></defs><g id="Layer_2"><rect class="cls-3" width="144" height="144"/></g><g id="Layer_1"><rect class="cls-3" x="0" width="144" height="144"/><polygon class="cls-4" points="131.14 71.97 90.46 15.98 24.64 37.37 24.64 106.57 90.46 127.96 131.14 71.97"/><polygon class="cls-2" points="109.17 104.25 120.26 104.25 143.71 71.97 120.26 39.68 109.17 39.68 131.8 71.7 109.17 104.25"/><path class="cls-2" d="M92.11,131.99l-70.56-22.92V34.88S92.11,11.95,92.11,11.95l43.6,60.02-43.6,60.02ZM27.83,104.51l61.88,20.11,38.25-52.65-38.25-52.64-61.88,20.11v65.07Z"/><path class="cls-1" d="M80.45,83.73c-3.96,10.38-7.5,19.54-8.48,30.87l-.64-5.32c-.94-7.84-6.46-22.48-9.64-30.08-2.59-6.19-6.09-11.79-10.33-16.88,4.71-3.22,9.45-7.82,9.17-13.79,1.24-2.23,2.1-4.25-.03-6.25-.89-.47-1.7-.79-2.7-1.17,5.19-.14,6.91-2.57,9.65-6.31,1.42-1.93,2.81-3.7,4.54-5.41,1.58,1.63,2.87,3.19,4.17,4.94,2.84,3.85,4.59,6.66,9.99,6.77l-2.43.99c-2.46,1.93-1.57,4.13-.33,6.41-.18,6.12,4.54,10.63,9.22,13.82-5.45,6.39-9.31,13.61-12.18,21.41ZM71.89,49.71l3.76-6.35-4-5.71-4,5.86,4.24,6.2ZM64.6,66.46l3.76-6.39-4.02-5.68-3.99,5.84,4.24,6.22ZM78.63,67.13l3.78-6.35-4.01-5.71-4,5.83,4.23,6.23ZM71.88,81.59l3.76-6.38-3.99-5.68-4,5.84,4.23,6.22Z"/></g></svg>