<?xml version="1.0" encoding="UTF-8"?><svg xmlns="http://www.w3.org/2000/svg" viewBox="0 0 144 144"><defs><style>.cls-1{fill:#c23d27;}.cls-2{opacity:0;}.cls-3{fill:#c68778;}.cls-4{fill:#2f1718;}</style></defs><g id="Layer_2"><rect class="cls-2" width="144" height="144"/></g><g id="Layer_1"><rect class="cls-2" x="0" width="144" height="144"/><polygon class="cls-4" points="72.27 130.84 128.26 90.16 106.87 24.34 37.67 24.34 16.28 90.16 72.27 130.84"/><polygon class="cls-1" points="39.99 108.86 39.99 119.96 72.27 143.41 104.55 119.96 104.55 108.86 72.54 131.49 39.99 108.86"/><path class="cls-1" d="M39.73,27.53l-20.1,61.88,52.64,38.25,52.64-38.25-20.11-61.88H39.73ZM72.27,135.42L12.25,91.81,35.18,21.25h74.18s22.93,70.56,22.93,70.56l-60.02,43.61Z"/><path class="cls-3" d="M80.45,83.73c-3.96,10.38-7.5,19.54-8.48,30.87l-.64-5.32c-.94-7.84-6.46-22.48-9.64-30.08-2.59-6.19-6.09-11.79-10.33-16.88,4.71-3.22,9.45-7.82,9.17-13.79,1.24-2.23,2.1-4.25-.03-6.25-.89-.47-1.7-.79-2.7-1.17,5.19-.14,6.91-2.57,9.65-6.31,1.42-1.93,2.81-3.7,4.54-5.41,1.58,1.63,2.87,3.19,4.17,4.94,2.84,3.85,4.59,6.66,9.99,6.77l-2.43.99c-2.46,1.93-1.57,4.13-.33,6.41-.18,6.12,4.54,10.63,9.22,13.82-5.45,6.39-9.31,13.61-12.18,21.41ZM71.89,49.71l3.76-6.35-4-5.71-4,5.86,4.24,6.2ZM64.6,66.46l3.76-6.39-4.02-5.68-3.99,5.84,4.24,6.22ZM78.63,67.13l3.78-6.35-4.01-5.71-4,5.83,4.23,6.23ZM71.88,81.59l3.76-6.38-3.99-5.68-4,5.84,4.23,6.22Z"/></g></svg>