<?xml version="1.0" encoding="UTF-8"?><svg id="Layer_1" xmlns="http://www.w3.org/2000/svg" viewBox="0 0 144 144"><defs><style>.cls-1{fill:#d3ad71;}.cls-2{fill:#99742b;}.cls-3{opacity:0;}.cls-4{fill:#382915;}</style></defs><rect class="cls-3" width="144" height="144"/><polygon class="cls-4" points="131.14 71.97 90.46 15.98 24.64 37.37 24.64 106.57 90.46 127.96 131.14 71.97"/><polygon class="cls-2" points="109.17 104.25 120.26 104.25 143.71 71.97 120.26 39.68 109.17 39.68 131.8 71.7 109.17 104.25"/><path class="cls-2" d="M92.11,131.99l-70.56-22.92V34.88S92.11,11.95,92.11,11.95l43.6,60.02-43.6,60.02ZM27.83,104.51l61.88,20.11,38.25-52.65-38.25-52.64-61.88,20.11v65.07Z"/><path class="cls-1" d="M57.55,57.44l14.45-.05-14.46,21.75,14.46-.05-15.42,23.2h-14.66l14.64-21.7h-14.64l14.63-21.69h-14.63l15.62-23.15,14.46-.05-14.45,21.74ZM86.45,57.44l-14.45-21.74,14.46.05,15.62,23.15h-14.63l14.63,21.69h-14.64l14.64,21.7h-14.66l-15.42-23.2,14.46.05-14.46-21.75,14.45.05Z"/></svg>