<?xml version="1.0" encoding="UTF-8"?><svg id="Layer_1" xmlns="http://www.w3.org/2000/svg" viewBox="0 0 144 144"><defs><style>.cls-1{fill:#c23d27;}.cls-2{opacity:0;}.cls-3{fill:#c68778;}.cls-4{fill:#2f1718;}</style></defs><rect class="cls-2" width="144" height="144"/><polygon class="cls-4" points="72.27 130.84 128.26 90.16 106.87 24.34 37.67 24.34 16.28 90.16 72.27 130.84"/><polygon class="cls-1" points="39.99 108.86 39.99 119.96 72.27 143.41 104.55 119.96 104.55 108.86 72.54 131.49 39.99 108.86"/><path class="cls-1" d="M39.73,27.53l-20.1,61.88,52.64,38.25,52.64-38.25-20.11-61.88H39.73ZM72.27,135.42L12.25,91.81,35.18,21.25h74.18s22.93,70.56,22.93,70.56l-60.02,43.61Z"/><polygon class="cls-3" points="68.28 58.14 68.28 52.65 63.83 46.98 62 51.13 64.43 53.84 64.43 68.99 67.76 66.42 67.76 57.57 68.28 58.14"/><path class="cls-3" d="M67.76,68v24.54c0,6.18.85,3.59.85,8.35v14.53l-.85-1.97v-8.28c0-4.34-3.93-4.81-3.93-9.72v-20.8l-1.37-1.64v-.59l1.88-2.02,3.42-2.38Z"/><path class="cls-3" d="M63.47,69.97l-1.89,1.97s-3.86-4.34-4.48-5.07-1.75-.67-2.67.32h-.53c2.71-5.83,4.84-2.4,4.72-14.97,0,4.82.2,12.27.71,12.85s4.14,4.9,4.14,4.9Z"/><path class="cls-3" d="M62.8,45.92l-1.84,3.97-.92-1.27c0-2.26-.21-3.64-.72-4.13-.7-.67-2.86-3.27-2.86-3.27-1.49-1.5-1.37-3.34-1-6.37.09,2.84.2,3.09,1.24,4.19s6.11,6.89,6.11,6.89Z"/><path class="cls-3" d="M73.53,28.59v56.06c0,2.16-1.53,3.86-1.53,3.86,0,0-1.53-1.71-1.53-3.86V28.59h3.07Z"/><polygon class="cls-3" points="75.72 58.14 75.72 52.65 80.17 46.98 82 51.13 79.57 53.84 79.57 68.99 76.24 66.42 76.24 57.57 75.72 58.14"/><path class="cls-3" d="M76.24,68v24.54c0,6.18-.85,3.59-.85,8.35v14.53l.85-1.97v-8.28c0-4.34,3.93-4.81,3.93-9.72v-20.8l1.37-1.64v-.59l-1.88-2.02-3.42-2.38Z"/><path class="cls-3" d="M80.53,69.97l1.89,1.97s3.86-4.34,4.48-5.07,1.75-.67,2.67.32h.53c-2.71-5.83-4.84-2.4-4.72-14.97,0,4.82-.2,12.27-.71,12.85s-4.14,4.9-4.14,4.9Z"/><path class="cls-3" d="M81.2,45.92l1.84,3.97.92-1.27c0-2.26.21-3.64.72-4.13.7-.67,2.86-3.27,2.86-3.27,1.49-1.5,1.37-3.34,1-6.37-.09,2.84-.2,3.09-1.24,4.19s-6.11,6.89-6.11,6.89Z"/></svg>