<?xml version="1.0" encoding="UTF-8"?><svg id="Layer_1" xmlns="http://www.w3.org/2000/svg" viewBox="0 0 144 144"><defs><style>.cls-1{opacity:0;}.cls-2{fill:#252b1f;}.cls-3{fill:#5ca76b;}.cls-4{fill:#98cc9e;}</style></defs><rect class="cls-1" width="144" height="144"/><polygon class="cls-2" points="72.27 13.1 16.28 53.78 37.67 119.59 106.87 119.59 128.26 53.78 72.27 13.1"/><polygon class="cls-3" points="104.55 35.07 104.55 23.98 72.27 .52 39.99 23.98 39.99 35.07 72 12.44 104.55 35.07"/><path class="cls-3" d="M124.91,54.52l-52.64-38.24L19.63,54.52l20.11,61.89h65.07s20.1-61.89,20.1-61.89ZM72.27,8.52l60.02,43.61-22.93,70.55H35.18S12.25,52.13,12.25,52.13L72.27,8.52Z"/><path class="cls-4" d="M66.94,42v10.37c-6.79.2-12.37,2.88-16.52,8.28-3.19,4.14-4.51,8.89-4.15,14.09.7,10.22,9.35,19.15,20.63,19.21v10.44c-10.88-.38-19.74-4.72-25.74-13.82-7.21-10.93-7.42-22.4-.79-33.68,6.51-11.08,18.18-15.18,26.57-14.88h0Z"/><path class="cls-4" d="M70.31,71.81v-29.85h29.84c.58,15.3-12.83,30.09-29.84,29.85Z"/><path class="cls-4" d="M70.32,104.28v-29.83h29.83c.42,15.58-12.97,30.01-29.83,29.83Z"/></svg>