<?xml version="1.0" encoding="UTF-8"?><svg xmlns="http://www.w3.org/2000/svg" viewBox="0 0 144 144"><defs><style>.cls-1{fill:#c23d27;}.cls-2{opacity:0;}.cls-3{fill:#c68778;}.cls-4{fill:#2f1718;}</style></defs><g id="Layer_2"><rect class="cls-2" width="144" height="144"/></g><g id="Layer_1"><rect class="cls-2" x="0" width="144" height="144"/><polygon class="cls-4" points="72.27 130.84 128.26 90.16 106.87 24.34 37.67 24.34 16.28 90.16 72.27 130.84"/><polygon class="cls-1" points="39.99 108.86 39.99 119.96 72.27 143.41 104.55 119.96 104.55 108.86 72.54 131.49 39.99 108.86"/><path class="cls-1" d="M39.73,27.53l-20.1,61.88,52.64,38.25,52.64-38.25-20.11-61.88H39.73ZM72.27,135.42L12.25,91.81,35.18,21.25h74.18s22.93,70.56,22.93,70.56l-60.02,43.61Z"/><path class="cls-3" d="M73.14,114.68c-1.11-.51-.55-2.74-.97-3.47-1.26-.38-.49-1.72-.99-4.36-.53-2.81-.96-5.51-1.26-8.35-.5-4.77-1.78-6.16-2.99-10.79-.2-.75-.29-1.67-.7-2.3-.65-1.01-1.27-1.91-1.75-2.99-.63-1.42-1.59-2.58-2.35-3.92-1.12-1.98-2.29-3.81-3.55-5.69-.42-.62-.37-1.61-1.01-2.21-1.01-.94-1.64-2.18-2.5-3.26l-4.24-5.35c-.55-.69-1.18-1.11-1.58-1.98-.37-.8-1.24-1.44-1.97-1.96-1.54-1.1-.23-2.03-1.88-2.88-.62-.32-1.64-1.14-1.31-1.87.63-1.4,3.35,1.21,3.74,2.24.46.17,1.33-.48,1.33-1-.75-1.23-1.96-2.32-3.28-2.92-.8-.36-1.52-.62-2.2-1.18-.57-.46-1.24-.69-2.01-.78-.68-.08-1.56-.79-1.1-1.47.4-.6,1.43-.3,1.93.06,2.59,1.82,2.07.52,4.6,1.77l.95-.44c1.27.42,2.53,1.09,3.63,1.93,2.61,1.99,1.77-.03,3.86,2.44.66.78,1.44,1.21,2.25,1.81.97.72,1.74,2.88,2.63,2.69.2-.04.51-.45.56-.65.77-3.07,2.76-2.04,2.93-5.52l.27-5.62.09-2.84.33-8.95c0-.19.24-.61.41-.64,1.18-.23,1.59,9.15,1.61,10.07l.07,2.75c0,.37.27.75.64.81.33.05.57-.33.81-.63.86-1.03,1.46-2.02,1.7-3.36s.77-2.44,1.21-3.67c.65-1.85.68-3.81.88-5.77l.57-5.52c.02-.2.53-.6.69-.44.65.61.55,1.9.53,2.81-.08,2.89.16,5.76.96,8.52l1.3,4.49c.51,1.77,1.61,3.2,3.15,4.38l-.03-4.98c0-1.18.23-2.17.59-3.28.68-2.07.38-4.3.97-5.79.05-.13.54-.25.61-.15.09.13.27.45.28.62l.15,1.99.33,8.96c.09,2.46.12,4.8.46,7.26.39,2.79,2.32,1.36,2.33,3.69,0,.51.31,1.2.67,1.44.49.32,1.35.53,1.82.09.41-.39.73-1.12,1.14-1.46l3.24-2.61c1.39-1.12,2.92-1.96,4.44-2.89.68-.41,1.17-.69,1.99-.9.53-.22,1.22-.71,1.81-1.02l.41.76c.1.18.73.05.9-.09,1-.83,3.17-1.55,4.24-.47-2.45,1.77-.71-.08-3.15,2.23-.43.4-1.36.31-1.94.51-.69.24-.81,1.06-.92,1.93,1.06.26,1.06-.63,2.17-.21.22.08.53.64.39.85l-1.84,2.74-5.28,6.31c-.32.39-.81.73-1.04,1.19-.45.87-1.05,1.53-1.87,2.05-1.41.9-.58,1.66-2.77,3.67-1.69,1.56-1.05,3-3.88,5.73-.48.46-.52,1.46-.9,1.92-1.35,1.68-2.25,3.54-3.39,5.34-1.02,1.61-1.97,2.94-2.3,4.91s-2.21,5.44-2.67,8.24c-.41,2.53-.82,4.91-1.41,7.39-.62,2.6-.81,5.13-.8,7.81,0,.31-.07,2.52-.7,2.23ZM75.42,55.6c.17-.19.41-.75.27-.94l-2.56-3.52c-1.1.83-2.03,1.89-2.61,3.04-.34.67-.03,1.12.44,1.48,1.14.86,1.49,2.15,1.94,3.53,1.44-1.19.63-1.5,2.51-3.59ZM69.72,64.14c.92-.36-1.6-2.35-2.32-3.46-.39-.6-.59-1.46-1.52-1.16l-.69,1.6-1.49.41c.17,1.42.94,2.33,1.92,3.2l1.03,1.85c1.78-1.29.8-1.55,3.05-2.43ZM80.37,66.64c.57-.95.98-1.86,1.63-2.72.39-.52,1-1.66.43-2.15-1.95-.88-1.43-1.24-3.08-2.3l-1.11,1.92c-.33.58-.8,1.09-.15,1.76s.91,1.54.94,2.53c.02.55.94,1.6,1.33.95ZM77.19,70.64l-2.09-1.76-1.76-1.45c-1.47.86-2.02,1.8-3.74,2.84-.4,1.71,1.57,3.03,2.75,6.45.42,1.21.61,2.35.92,3.59.28-.76.45-1.39.63-2.12.62-2.47,1.8-5.45,3.28-7.55Z"/></g></svg>