<?xml version="1.0" encoding="UTF-8"?><svg id="Layer_1" xmlns="http://www.w3.org/2000/svg" viewBox="0 0 144 144"><defs><style>.cls-1{opacity:0;}.cls-2{fill:#252b1f;}.cls-3{fill:#5ca76b;}.cls-4{fill:#98cc9e;}</style></defs><rect class="cls-1" width="144" height="144"/><polygon class="cls-2" points="72.27 13.1 16.28 53.78 37.67 119.59 106.87 119.59 128.26 53.78 72.27 13.1"/><polygon class="cls-3" points="104.55 35.07 104.55 23.98 72.27 .52 39.99 23.98 39.99 35.07 72 12.44 104.55 35.07"/><path class="cls-3" d="M124.91,54.52l-52.64-38.24L19.63,54.52l20.11,61.89h65.07s20.1-61.89,20.1-61.89ZM72.27,8.52l60.02,43.61-22.93,70.55H35.18S12.25,52.13,12.25,52.13L72.27,8.52Z"/><g id="Layer_2"><g id="Layer_1-2"><path class="cls-4" d="M41.72,93.84c0-.12.13-.12.25-.12h.13v.12c0,.12-.12,0-.12,0h-.26ZM42.1,94.33c0-.12-.12-.12-.24-.12,0,0-.13,0,0-.12,0-.07.05-.12.12-.12h0s.24.24.12.36h0ZM44.3,69.56q-.12,0-.12-.12c0-.12,0-.13.12-.13s.12,0,.12.13c0,.07-.05.12-.12.12ZM58.28,110.64q0,.12-.13.25c-.12,0-.36.12-.49,0s0-.25.12-.25c.13-.01.23-.11.24-.24h0c0-.12-.12-.24-.36-.24s-.37-.25-.37-.49q0-.12-.12-.24l.71.36c.15.12.24.3.24.49h0c.13,0,.13.12.13.36h.02ZM57.27,106.6h0c.12-.13.12-.25.25-.25s.12.12.12.25l-.12.12c-.25-.12-.13,0-.13.12h0q.13,0,.13.12s0,.12-.13,0c-.12,0-.12-.12-.12-.24h0c-.12.12-.12,0,0-.12h0ZM57.15,102.67c.07,0,.12.05.12.12h0c-.12.12-.24,0-.12-.12ZM57.15,102.05l.12.12v.25q-.12,0-.12-.12v-.13s-.12-.12,0-.12h0ZM57.39,105.73c.13,0,.13.13.13.25,0,0,0,.12-.13,0,0,0-.12,0,0-.25ZM57.27,101.69h0c.12-.12.12,0,.12,0q.13.12-.12,0c.12.12,0,.12,0,0ZM57.39,101.2c.13,0,.13.12.13.24,0,.07-.06.13-.13.13h0c0-.25-.12-.25,0-.37-.12,0-.12-.12,0,0ZM57.27,100.7q0-.12.12-.12c.07,0,.12.05.12.12s-.05.12-.12.12h0c0-.07-.05-.12-.12-.12h0ZM86.72,108.92c-.12,0-.12-.12,0-.25v.25ZM89.42,106.22c-.12,0-.12.12-.24.12h-.12v-.12c.01-.09.06-.18.12-.24h0s.12,0,.12,0c.12.12.24.12.12.24h0ZM97.88,101.94h0c-.08-.08-.19-.13-.31-.12-.02,0-.04,0-.06,0h0c-.13,0-.13-.12,0-.12,0-.12.12-.12.24,0,.12,0,.12.12.12.24ZM97.8,70.3c-.12,0-.12.12-.24.12-.25,0-.25.12,0,.24-.1-.03-.2-.05-.31-.05-.11,0-.21.02-.31.05h0q-.12,0-.12-.12h0c0-.07-.05-.12-.12-.12,0,0,0,0,0,0h0q-.12-.12-.24-.12c-.12,0-.12.12-.12.24v1.47c-.12.49.12.99,0,1.47.03.18.05.37.05.55,0,.19-.02.38-.05.57v-.02s0,.36,0,.36c0,.05,0,.11,0,.16,0,.29-.04.57-.13.84v-.02c-.12.12,0,.24,0,.36q.12.12,0,.24c-.12.12-.12.25-.25.37v.12h.13c.12,0,.12-.12.24,0s0,.12,0,.25v.24c0,.24.12.36.12.61-.03.1-.05.2-.05.31,0,.11.02.21.05.31h0q-.12-.14-.24-.14c0-.07-.05-.12-.12-.12h0l-.13.12c.13.13-.12.37.13.49.12,0,0,.12-.13.24s-.12-.12-.12-.12h0c-.12.12.25.25,0,.37.12.12.12.24.37.24v.12h-.12q-.13,0-.13.12c0,.12.13.13.25.13.13.01.23.11.24.24h0v.98s0,.13-.12.13c-.24,0-.24.12-.37.24h.13c.12-.12.24,0,.24.12v.37c-.12,0-.12-.13-.12-.13,0,0-.12-.12-.12,0v.13q.12.12,0,.24s-.13.12,0,.12.12,0,.12-.12c0-.07.05-.12.12-.12h0c.12,0,0,.12,0,.12v1.59c0,.07-.05.12-.12.12h0q-.12,0-.12-.12s-.13-.12-.13,0c-.12,0,0,.12,0,.24s0,.13.13,0,.24.13.24.13c0,.12,0,.24-.12.24-.12.12-.12,0-.25-.12,0,0,0-.12-.12,0v.12c0,.12,0,.24.25.12q.12,0,.12.12c0,.37.12.61.12.99v2.86c-.02.3-.11.6-.25.87h0s-.13-.01-.13-.13h-.16v.12q.12.12,0,.24s-.12,0,0,.12c.12.25,0,.37,0,.61,0,.12,0,.25.25.12q.12,0,.12.13c.12.36.12.71.24.98v.12c-.24.12-.12.24-.12.37s-.12.12,0,.24v.12c-.24.12-.12.37,0,.49,0,.12-.12.12-.12.24s0,.12-.12.12-.13,0-.13.13v.24c.13,0,.13.12.25.24,0,0,.12.12,0,.12h-.12c0-.07-.05-.12-.12-.12,0,0,0,0,0,0h0c-.12.12,0,.25,0,.37.13.24,0,.36,0,.61v.12c.13.12.13,0,.13,0h.24c.12.12,0,.12,0,.24-.24.12,0,.37,0,.61v.12h-.12c-.25-.12-.25,0-.25.12v1.11q0,.12-.12.24c-.12,0-.24.12-.12.25v.12c-.12.24,0,.36,0,.61,0,.07.05.12.12.12h0c.07,0,.12.05.12.12s-.05.12-.12.12h0q-.24.12,0,.24s.12.13,0,.13c-.12.12,0,.24-.12.24s-.24,0-.24.12-.12.24-.25.37c-.07,0-.12.05-.12.12h.12c.13-.12.25-.12.13.12,0,.07.05.12.12.12h0c0-.07.05-.12.12-.12v.12c-.12.12,0,.61.12.61s.12.12.24.12c.25.12.49.37.71.49v.06h-.12c-.24-.12-.49,0-.71-.24l-.49-.47c-.04-.14-.18-.21-.32-.17-.08.02-.15.09-.17.17h0c-.12.12-.25.12-.37.24h-.12q0,.13-.12.25c0-.12-.12-.25-.12-.37,0-.07-.05-.12-.12-.12h-.13c-.12.24-.36.24-.61.12l-.13-.12h-.12c-.12,0,0,.12,0,.12q.12.12.12.25c.13,0,.13.12,0,.24-.07.07-.18.07-.24,0h0c-.12-.12-.24,0-.24.12-.07.06-.11.15-.12.24h0c0,.13-.13.25-.25.13q-.12,0-.12.12c.12.36-.24.49-.36.61s-.37.12-.37.36l-.12.12c-.12.12-.24.25-.24.37-.01.13-.12.23-.25.24h0c-.12,0-.24,0-.12.24,0,0,0,0,0,0,0,.07-.05.12-.12.12h0l-.37.36q0,.12-.12.12h0c-.07,0-.12.05-.12.12,0,0,0,0,0,0h0c0,.19-.09.37-.24.48h0c0,.12-.13.12-.13,0-.12-.12-.24,0-.36,0s-.12.12-.24.12,0,.13,0,.13c.12.12.24.12.24.24-.07.07-.18.07-.24,0h0q-.13,0-.13-.12v-.12h-.12c0,.12-.24.24-.12.36v.12c-.12.25-.12.61-.36.71-.14.26-.35.47-.61.61h0c-.12.13-.37.25-.37.5-.12.26-.29.51-.49.71h0c-.12,0-.12.12-.24.12v-.37q0-.12.12-.12c.25-.12.37-.24.12-.49,0-.07.06-.13.13-.13h0c.07,0,.12-.05.12-.12h0v-.12c.12-.12,0-.24-.12-.36-.12-.15-.3-.24-.49-.25h0c.36,0,.24-.36.24-.49v-.13c.25-.24.25-.61.49-.86.12-.12.12-.36.24-.49,0-.02,0-.04,0-.06,0-.12.05-.23.13-.31h0v-.24c0-.13-.13-.37-.13-.49v-.71c0-.12.13-.24.13-.49v-.71s0-.05,0-.08c0-.15.04-.29.13-.41h0s0-.37,0-.37c0-.24-.12-.49-.12-.71,0-.12-.13-.24-.13-.37,0-.36.13-.61.13-.86v-.71c.03-.16.05-.33.05-.49,0-.17-.02-.34-.05-.51v.02c.03-.2.05-.41.05-.61,0-.21-.02-.43-.05-.64v.02c0-.08,0-.17,0-.26,0-.46-.05-.92-.14-1.37v.04c0-.24-.11-.37,0-.61v-.24c-.12-.25,0-.37,0-.61v-.37c.24-.23.38-.55.38-.88,0-.04,0-.07,0-.11h0c0-.12,0-.24-.12-.12v-.61s.12.12.12,0v-.12c-.12,0-.12-.25-.12-.37,0-.07.05-.12.12-.12h0c.06-.01.1-.06.1-.12,0-.01,0-.02,0-.03h0s0-.98,0-.98q0-.13-.24-.13c-.12,0-.25-.24-.25-.36s-.12-.37,0-.49c.13-.19.13-.43,0-.62h0c0-.24,0-.48.25-.61-.25,0-.25-.12-.25-.36v-.37c0-.12.13-.12.13-.12.07,0,.12-.05.12-.12h0q0-.12-.12-.24t-.13.12c0,.07-.05.12-.12.12h0c-.12,0,0-.12,0-.12,0-.24.12-.37.25-.61v-.12c-.08-.08-.13-.19-.13-.31,0-.02,0-.04,0-.06h0c.11-.28.16-.58.16-.89,0-.02,0-.05,0-.07h0s0-.61,0-.61c0-.09,0-.2,0-.31,0-.53-.05-1.06-.14-1.58v.05s0-.13,0-.13c.03-.24.05-.49.05-.74,0-.26-.02-.51-.05-.76v.03s0-.88,0-.88c0-.12,0-.24-.12-.12q-.12,0-.12-.12v-.25q-.12,0-.12.13v.12c0,.07-.05.12-.12.12h0c-.13,0-.13-.12,0-.12h0c.24-.12.24-.37.24-.61,0-.12.12-.37.12-.49v-.15c.12-.24,0-.49,0-.71v-.61c.12-.24,0-.49,0-.71,0-.12-.12-.12,0-.24v-.12c-.12,0-.12-.13,0-.25.08-.08.13-.19.12-.31,0-.02,0-.04,0-.06h0c-.24,0-.12-.12-.12-.25v-.12q-.12-.12,0-.12v-.12s0-.12-.12,0h-.12s-.12-.12,0-.12.12,0,.12-.12,0-.13-.12-.25l-.12-.16c.12-.12.12.12.24.12v-2.55q0-.13-.12-.13c-.16-.03-.33-.05-.49-.05-.17,0-.34.02-.51.05h.02c-.12.13-.36,0-.49,0-.37-.12-.71,0-1.11-.24-.12.12.12.12,0,.24h-.88s-.05,0-.08,0c-.15,0-.3-.04-.42-.13h0c-.19-.24-.48-.37-.79-.37-.05,0-.1,0-.15.01h0s-20.71,0-20.71,0c-.03,0-.06,0-.1,0-.18,0-.36.04-.52.13h0c-.12.08-.26.12-.41.12-.03,0-.06,0-.09,0h0c-.36,0-.71.12-1.1.12v-.12c-.12,0-.12.12-.24.12-.28.08-.58.12-.87.12-.04,0-.08,0-.12,0h0s-.28,0-.28,0c-.16-.03-.33-.05-.49-.05-.17,0-.34.02-.51.05h.02c-.12,0-.12.13-.12.13v2.43c.12,0,.12-.12.25-.12.12.12-.13.12-.13.12-.07.07-.07.18,0,.24,0,0,0,0,0,0h0c0,.07.06.13.13.13h.12c0,.07-.05.12-.12.12h-.13c0,.12,0,0,.13,0s0,.12,0,.12c-.07.06-.07.16-.01.23,0,0,0,0,.01.01,0,0,.12.12,0,.12-.13.13-.25.25-.13.37s.25.24,0,.24v.12c.13,0,.13.13,0,.13s-.12.12-.12.24v.49c.08.12.13.26.13.41,0,.03,0,.06,0,.08h0s0,.37,0,.37c0,.12-.12.24,0,.24.13.25,0,.49,0,.71,0,.12.13.25.13.49,0,.07.05.12.12.12h0c.07,0,.12.05.12.12h0v.12h-.12c0-.07-.05-.12-.12-.12h0c-.13,0,0,.12,0,.12.12.13.12.25-.13.25-.07,0-.12.05-.12.12h0v2.09c.03.11.04.21.04.32,0,.23-.06.46-.16.66h0s0,1.02,0,1.02c0,.24.12.36,0,.61-.03.2-.05.41-.05.61,0,.21.02.43.05.64v-.02s0,.12,0,.12c-.12.25,0,.61-.12.86-.09.5-.13,1.02-.13,1.53,0,.11,0,.22,0,.32v-.02c-.09.61-.13,1.22-.13,1.84,0,.13,0,.26,0,.39v-.02s0,4.05,0,4.05c0,.07,0,.16,0,.24,0,.43.04.85.13,1.27v-.04s0,.98,0,.98c0,.25-.12.49.12.71,0,0,.12.13,0,.13s0,.12,0,.24.12.36,0,.49v.12c.24.36.12.61.12.98v.12c.12,0,.12.12.12.25.12.12.12.36.25.61v.13s-.13,0-.13.12c0,0,.13,0,.13.12h.12c0-.07.05-.12.12-.12h0v.24c0,.07-.05.12-.12.12h0c-.12,0-.25.12-.25.37,0,0,0,.02,0,.03,0,.16-.04.33-.12.47h0s0,.12,0,.12c-.07,0-.12-.05-.12-.12h0c-.01-.09-.05-.18-.12-.25h0v-.24c0-.07-.05-.12-.12-.12h0l-.12.12c0,.24-.13.36,0,.61v.12c-.13.12.12.24,0,.36h.24v.13q-.12.12.12.12c.12,0,.12.12.24,0,0,0,.13,0,.13.12v.12s-.13,0-.13.12l-.12.12c.12.13.12,0,.25,0q0,.13-.13.13c-.07,0-.12.05-.12.12s.05.12.12.12h.25q0,.12-.12.24c0,.12-.13,0-.13,0,0,0-.12-.12-.12,0-.07.07-.07.18,0,.25h0q.12,0,0,.12h0c.12.12.12.24.25.36v.12h-.13s-.12-.12-.12,0v.25h-.12s0-.12-.12,0c-.07.06-.11.15-.12.24h0s0,.12.12,0c.24-.12.12.12.24.12,0,.13-.12.13-.12,0h-.24c-.07,0-.12.05-.12.12,0,0,0,0,0,0h0c.12.12.12.24.24.36.24.12.24.37.24.61v.24c.08.3.13.61.13.92,0,.06,0,.13,0,.19h0c0,.11.13.11.25.11h0v-.12s-.12-.12,0-.12h.24c0,.07.05.12.12.12h0v.12h-.24c0,.12,0,.24-.24.24,0,0-.13,0-.13.12.02,0,.04,0,.06,0,.12,0,.23.05.31.13h0v.12h-.24c-.13,0-.25,0-.13.24,0,.12.13.24-.12.24-.12,0-.12.37,0,.37.25,0,.25.24.25.37.12,0,0-.13.12-.13h.12q0,.13-.12.25c0,.12-.12,0-.12,0-.22-.1-.39-.27-.49-.49h0c-.12-.13-.24-.25-.24-.38s-.13-.24-.25-.36l-.36-.37c-.1-.24-.28-.45-.5-.58h0v-.13c0-.24-.12-.49-.12-.86,0-.12,0-.24-.12-.24v.49l.12.12c0,.07-.05.12-.12.12-.07,0-.12-.05-.12-.12h0c0-.12-.13-.25-.25-.12h-.1c-.01-.09-.05-.18-.12-.25h0s-.12-.24.12-.12c.07,0,.12-.05.12-.12h0c0-.24-.24-.37-.49-.24-.12.12-.12,0-.24,0-.12-.13-.12-.25-.24-.37-.12-.24-.37-.36-.37-.61,0-.12-.12-.12-.24-.12s-.24,0-.12-.24h0s-.03,0-.05,0c-.18,0-.33-.15-.33-.33h0s0-.03,0-.05h0c0-.12-.12-.12-.12-.24-.12-.12-.24-.25-.24-.37h0c-.12,0-.25-.12-.37-.12-.22-.12-.36-.35-.36-.6,0,0,0-.01,0-.02h0c0-.12,0-.24-.12-.12q-.13,0-.25-.12c0-.12-.12-.24-.24-.37-.08-.1-.23-.12-.33-.04-.01.01-.03.03-.04.04h0c0,.13-.12.13-.12,0s-.12-.12,0-.24l.24-.24s.13-.12,0-.12c0,0-.12-.13-.12,0-.12.24-.36.12-.61.12-.12,0-.24,0-.24.24,0,.12-.12.12-.24,0l-.49-.49c-.1-.08-.24-.06-.32.04-.02.03-.04.06-.04.09h0c0,.07-.05.12-.12.12,0,0,0,0,0,0h0s-.12.12,0,.12h.13s0-.12.12,0v.09q-.12.12-.25.12c-.08-.08-.13-.19-.12-.31,0-.02,0-.04,0-.06h0s.12-.12,0-.12c0-.13.12-.37,0-.49,0,0,0-.25.12-.25s.13-.12.13-.24-.13-.12-.25-.24h-.12c0-.12-.12-.25,0-.37s.12-.12,0-.24c-.12,0-.24-.12,0-.24v-.13s0-.04,0-.06c0-.12-.04-.23-.13-.31h0c-.24-.54-.37-1.12-.37-1.71h0s.13-.25-.12-.13q-.12,0,0-.12c.12-.12,0-.24.12-.36,0-.13,0-.25-.12-.25s-.12-.12,0-.24c.12,0,.12-.12.25,0s.12.12.12,0v-.95c-.07,0-.12.05-.12.12h0s-.13.12-.13,0v-.12l.25-.25q.12-.12,0-.24c0-.07-.05-.12-.12-.12h0c-.13,0-.25-.25-.25-.37s.12-.24.12-.36c-.08-.44-.12-.9-.12-1.35h0c-.24-.25,0-.37,0-.62.03-.22.07-.44.13-.65v.04q0-.12.12-.12c.24,0,.36-.12.24-.24,0-.03,0-.07,0-.1,0-.18-.04-.36-.13-.52h0s0-.24,0-.24c0,0,.12-.12,0-.12h-.25s0-.05,0-.08c0-.15-.04-.29-.13-.41h0c-.12-.42-.18-.85-.18-1.29,0-.18.01-.36.03-.54v.02s0-.61,0-.61c.03-.18.05-.37.05-.55,0-.19-.02-.38-.05-.57v.02c.03-.22.08-.44.13-.65v.04s.11,0,.11,0q.13,0,.13-.12s.12-.13,0-.13c-.07,0-.13.06-.13.13h0s-.12.12-.12,0v-.41c0-.12.12-.24.25-.12h.12v-.25h-.12c-.06.07-.17.07-.24,0,0,0,0,0,0,0h0c0-.12-.12-.12,0-.24v-.1c-.12-.49,0-.86-.12-1.35v-.12h.12s.12.12.12,0v-.12c0-.07-.05-.12-.12-.12h0c-.12,0,0-.13,0-.13l.12-.12s0-.12-.12,0c-.07,0-.12.05-.12.12h0v-.49c0-.12.12-.25.24-.12h.13v-.13c0-.12-.13-.12-.13-.12q-.12,0-.12-.12v-1c0-.13,0-.25.25-.25.07,0,.12-.05.12-.12,0-.07-.05-.12-.12-.12h0s-.13,0-.13-.12l.13-.12c.08-.09.12-.2.12-.32,0-.02,0-.04,0-.05h0q0-.12-.12-.12s-.13,0,0-.12v-.25c.12,0,0,.13.12.13v-.61c-.25.12-.12-.12-.12-.12,0-.25-.13-.37,0-.61.12-.23.11-.49,0-.72h0c0-.13.11-.23.24-.25h0c-.12-.12-.12-.24-.24-.36v-.12c.1-.08.12-.23.04-.33-.01-.01-.03-.03-.04-.04h0c-.09-.23-.13-.47-.13-.72,0-.05,0-.1,0-.15h0s0-1.61,0-1.61c.03-.33.05-.65.05-.98,0-.34-.02-.68-.05-1.02v.04s0-.61,0-.61c0-.12-.12-.24,0-.49v-.12c-.24-.12-.12-.24-.12-.36v-.37s0-.04,0-.06c0-.12.04-.23.13-.31h0c.13-.12.25-.25.13-.37v-.83q0-.12-.13-.12l-.24-.28v-.24c.24-.12.24-.36.24-.61v-.71c0-.07.05-.12.12-.12,0,0,0,0,0,0h0c.24,0,0-.12,0-.12-.13,0-.13-.49,0-.49h.12c-.08-.08-.13-.19-.12-.31,0-.02,0-.04,0-.06h0s0-3.35,0-3.35q0-.12.12-.12h.24c.12,0,.24-.12.12-.37,0-.12,0-.24.12-.24h6.16s.11,0,.16,0c.28,0,.56-.04.83-.13h-.02s1.35,0,1.35,0c.49,0,.99-.12,1.47-.12.02,0,.04,0,.06,0,.12,0,.23-.05.32-.13h0c.07-.07.18-.07.24,0,0,0,0,0,0,0h0c.12,0,0,.13,0,.25.37-.12.86.12,1.23-.12h.12c.12.12.24,0,.49,0,.12,0,0-.25.12-.13.12,0,0,.13.12.13h2.46c-.07,0-.13-.06-.13-.13h0c0-.12.13,0,.13,0,.12,0,.12-.12.24-.12h.09v.12q-.12.25.12.25c.37,0,.61.12.99-.12h.12c.12,0,.12.12.24,0,0-.13.12.12.12,0,0,0,0-.13.12-.13h.13c.12.13.36.25.49.13h13.03c.24,0,.36.12.49-.13.12.25.37.13.49.13h4.91q.12,0,.12-.13c0-.13.12-.12.24-.12.07,0,.12.05.12.12h0v.13c.13,0,.37-.13.49,0s.37,0,.61.12h8.96c.12,0,.24.24.24.36-.12.25,0,.25.12.25s.12.12.12.24v3.93c0,.12-.12.24-.12.36s.24.12.12.24v.61c0,.12.12.37.12.49h0c0,.07.05.12.12.12,0,0,0,0,0,0h0c.24,0,.24.24.12.24-.25.25-.12.49-.12.71v.49c.01.09.06.18.12.25l.12.12v-.25q0-.12.12-.24h.24c.25.12.37.37.61.61l.12.12q.13.12.25,0c0-.12.12-.12.24,0s.12.12,0,.24-.12.13,0,.25.12,0,.24,0l.13-.12c0-.13.12-.13.24,0s0,.12,0,.12c-.12.12,0,.12,0,.24,0,0,.12.12,0,.12h-.12c-.22.1-.43.22-.62.37h0s.04.04.04.04ZM96.29,79.12h0c-.12.12-.12,0-.12-.12,0-.07.05-.12.12-.12h0c.12,0,0,.12,0,.24h0ZM96.53,89.91c-.12.12,0,.37-.12.49,0,.07-.05.12-.12.12h0c-.12,0-.12-.12-.12-.24s0-.12.12-.25.24,0,.24-.12h0ZM47.36,90.16h0c.13-.13.13,0,.13,0,.01.09.06.18.12.24h0q0,.12-.12.12c-.12,0-.13,0-.13-.12v-.24h0ZM47.24,68.95h0c.12-.12.12,0,.12,0,0,.07-.05.12-.12.12h0v-.12ZM54.24,58.64c0-.07.05-.12.12-.12h.37c-.12,0-.12.12-.25.12-.06.07-.16.07-.23.01,0,0,0,0-.01-.01h0s0,0,0,0ZM62.81,60.36c.12,0,.24-.12.37-.12h.12c-.25.12-.37.24-.49.12h0ZM64.16,60.48q.12-.12.24-.12h.12v.12c-.12-.12-.12,0-.36,0h0ZM98.62,102.18c-.06.07-.16.07-.23.01,0,0,0,0-.01-.01l-.12-.12q-.13,0-.13-.12c0-.12.13,0,.13,0h.12c.12,0,.12-.12.24,0s0,.12,0,.24h0ZM99.33,69.44s0,0,0,0c0-.07.05-.12.12-.12h0q.13,0,.13.13c0,.07-.05.12-.11.12,0,0,0,0-.01,0-.07,0-.12-.05-.12-.12h0ZM109.15,75.69v.25c.12.12,0,.24,0,.36s.12.24,0,.37c.12.24-.12.36-.12.61,0,.12-.12.24-.25.12q-.12,0-.12.12v2.45c0,.07.05.12.12.12h0s0,0,0,0c.07,0,.12-.05.12-.12h0s0-.04,0-.06c0-.12.04-.23.13-.31h0c0-.07.05-.12.12-.12h0c.12,0,0,.12,0,.12v.15c.15.11.18.33.07.48-.06.09-.17.14-.27.14-.01,0-.02,0-.04,0h0q.12.12.24,0c-.12.12-.12.36-.37.24q-.12,0-.12.12s.12.13,0,.13c-.15.17-.19.4-.12.61h0s0,.98,0,.98c0,.03,0,.05,0,.08,0,.15.04.29.13.41h0c0,.13.12.25,0,.37,0,.07.05.12.12.12h0c.13,0,.13.12,0,.12-.24.25-.12.61-.12.99q0,.12.12.12c.12,0,.25.12.13.36-.13.49-.49.71-.71,1.23l-.13.12q0,.12.13.12c.13,0,.12-.12.24,0,0,.13,0,.25-.12.25h-.12c0,.12.12,0,.12.12.12,0,.24,0,.24.12s-.12.24-.24.12h0c0,.25-.25.37-.37.49s-.24.36-.49.61q-.13.12-.25,0c-.12-.25-.25-.25-.36,0l-.37.36q-.12.12-.24,0h-.12c-.13.25-.37.25-.49.37-.12,0-.12.12-.24.24v.12h.12c.12-.12.24-.12.36-.24h.12v.12c-.12.12-.24.37-.49.49,0,0-.12.12-.12,0v-.24s-.13,0-.13.12v.19q0,.12-.12.24c-.12.12-.24.37-.61.25v.12q0,.12-.12.12c-.07,0-.12.05-.12.12h0c0,.07-.05.12-.12.12h0c-.12,0,0-.12,0-.12,0,0,0-.12-.12,0s-.25,0-.25.12-.12.13-.12.25c-.24.12-.36.36-.61.61-.12.12-.24.24-.36.24s-.12,0-.12.12l-.71,1.11c-.19.26-.35.54-.48.83v.03h-.13c0-.07-.05-.12-.12-.12h0s-.13.12,0,.12q0,.12-.13.24c-.24.12-.12.49-.36.61-.12.12-.12.24-.24.24l-.13.13c-.01.13-.11.23-.24.24h0c0,.07-.05.12-.12.12h0q0,.12-.12.24s0,.13-.12.13c-.07,0-.13-.06-.13-.13h0q0-.12.13-.12.12-.12.12-.24c-.12-.24-.12-.49-.25-.61v-.12c.16-.12.25-.3.25-.49h0c0-.24.12-.49.12-.86v-.12c.13-.21.21-.46.24-.71h0c0-.13.12-.13.12-.26s.13-.12,0-.24c-.12,0-.12-.12-.12-.24v-1.34c0-.06,0-.13,0-.2,0-.27.05-.54.14-.79v.02c.12-.61.12-1.11.24-1.72v-2.57c0-.08,0-.17,0-.26,0-.46-.04-.93-.13-1.38v.05c0-.24-.12-.36-.12-.61,0-.36-.12-.61-.12-.86v-.12c.12-.14.12-.35,0-.49h0s0-.12,0-.12c.12-.12,0-.36.12-.61h0c-.24-.12,0-.36,0-.49v-.71c-.12,0-.12-.13-.12-.25s0-.12.12-.12c.1-.07.13-.21.06-.31-.02-.02-.03-.04-.06-.06h0c-.12-.13-.24-.25,0-.37v-1s0-.04,0-.06c0-.12-.04-.23-.13-.31h0s0-.84,0-.84c.12-.12,0-.24,0-.37v-.49c.05-.19.09-.39.12-.59v-.03s0-.03,0-.05c0-.12-.04-.23-.12-.32h0s0-.71,0-.71c-.12-.14-.12-.35,0-.49h0s0-.12,0-.12c-.1-.08-.12-.23-.04-.33.01-.01.03-.03.04-.04h0c.09-.22.13-.45.13-.68,0-.06,0-.12,0-.19h0c-.12-.71,0-1.34-.12-2.08v-2.86c0-.24-.12-.49-.12-.71v-.12c-.24,0-.12-.12-.12-.25.06-.23.09-.46.09-.69,0-.11,0-.22-.02-.33h0c0-.23-.12-.48-.12-.7v-.49c0-.12-.12-.24,0-.36v-.12c0-.13-.12-.25,0-.37s-.24-.24-.12-.36,0-.25.12-.37q0-.12-.24-.12c.17-.17.23-.43.15-.65h0s0-2.85,0-2.85c0-.12,0-.24-.25-.24s-.36-.12-.61-.12c-.49,0-.86-.25-1.22-.25s-.61-.24-.86-.24c-.13,0-.25-.12-.13.12q0,.12-.12,0c-.51-.02-1.02-.11-1.52-.25h.04c-.24-.11-.61.01-.86.01h-11.65c-1.72-.12-3.43,0-5.16,0h-2.94s-.06,0-.1,0c-.22,0-.43-.04-.63-.13h.01c-.08-.08-.19-.13-.31-.13-.02,0-.04,0-.06,0h0s-3.57,0-3.57,0c-.02,0-.04,0-.06,0-.12,0-.23.05-.32.13h0c.25.49.12.49-.12.49h-11.9c-.36,0-.71.12-1.1.12h-8.57s-.09,0-.14,0c-.25,0-.5.05-.73.14h.01c-.4.08-.82.12-1.23.12-.08,0-.17,0-.25,0h.01s-1,0-1,0c.12.24-.12.24-.24.36-.12,0-.24.12-.12.25v3.18c0,.12.12.24.12.37q-.12,0-.12.12c0,.12-.12.24.12.36v.12q-.12,0-.12.13v1.47c.12.36-.12.61,0,.98,0,.24.12.49.12.71v.12c-.24,0-.12.12-.12.25,0,.36-.12.71-.12,1.1v1.96c0,.08,0,.17,0,.26,0,.46-.05.92-.14,1.37v-.04s0,.24,0,.24c0,.25-.12.49,0,.71,0,.03,0,.06,0,.1,0,.22.05.43.14.63h0c.12.11,0,.23,0,.35,0,0-.13.12,0,.12.12.14.12.35,0,.49h0c0,.12-.13.24,0,.36s0,.25,0,.37c-.03.18-.05.37-.05.55,0,.19.02.38.05.57v-.02s0,1.35,0,1.35c-.03.2-.05.41-.05.61,0,.21.02.43.05.64v-.02s0,.86,0,.86c0,.12.12.25,0,.37s0,.36,0,.49-.13.37.12.49v.12c-.25,0-.12.13-.12.13v.24c0,.12,0,.24.24.12h.24v.12c-.12.12-.12.25-.24.12-.12,0-.12.13-.12.25s0,.24.12.24.12,0,.12-.12.12-.12.24,0v.12c-.12,0-.12.24-.36.24-.61,0-.61.13-.61.13,0,.12-.12.36-.12.49v.37c-.03.16-.05.33-.05.49,0,.17.02.34.05.51v-.02s0,1.96,0,1.96c0,.12.12.24.12.36,0,.25.12.49,0,.71v.99c-.12.36,0,.71-.12,1.1-.02.14.03.27.12.37h0s0,.71,0,.71c0,.49.12.98.12,1.59v.37q0,.12-.12.12c-.12,0-.12.12,0,.24s.12.37.24.49c.11.35.24.7.4,1.04l-.03-.06c.12.12,0,.37,0,.49-.12.49-.12.86-.24,1.35q0,.12.12.12c.12,0,.24,0,.12.24v.66h-.12c-.12,0-.12-.12-.12-.24-.13-.25-.13-.37-.25-.61,0-.12-.24-.12-.36-.25-.2-.17-.37-.37-.5-.6h0s-.12-.14-.12-.14c-.07,0-.12-.05-.12-.12h0c0-.12-.12-.36-.12-.49v-.13c.12-.12,0-.24-.13-.36s-.24-.24-.36-.24-.12-.13-.12-.13c-.13-.12-.25-.12-.49-.12h-.11c-.08-.08-.13-.19-.12-.31,0-.02,0-.04,0-.06h0c-.13-.25-.37-.37-.49-.61,0-.12-.12-.12-.24-.12-.07,0-.13-.06-.13-.13h0c0-.07-.05-.12-.12-.12h0c-.12,0-.24-.12-.24-.36,0-.12,0-.37-.24-.37,0,0-.13,0-.13-.12,0-.24-.24-.36-.49-.49-.12,0,0-.12,0-.12v-.12h-.12s-.13.12-.13,0v-.76s-.12-.12-.12,0c-.12,0,0,.12,0,.12v.12q-.12,0-.12-.12c-.12-.12-.12-.36-.37-.49,0,0-.12-.13,0-.13,0,0,.13-.12.13,0,.12.13.24.13.36.25h.12v-.12s0,0,0,0c0-.07-.05-.12-.12-.12h0c-.12-.14-.3-.22-.48-.22,0,0,0,0-.01,0h0c-.12-.24-.24-.12-.36,0,0,0-.12.12-.12,0q-.12-.12-.25,0c-.13.12-.24.12-.24,0,0-.05-.03-.1-.08-.11h0s-.16.11-.16.11c0,.12-.12.24-.12.37-.07,0-.13-.06-.13-.13h0q0-.12-.24-.24c-.12,0-.12-.12,0-.24h0c0,.07.05.12.12.12h0v-.25c-.09-.21-.29-.35-.52-.35-.03,0-.06,0-.1,0h0c.13,0,.13-.12.25-.12v-.12c0-.13-.12,0-.12,0h-.13v-.13q0-.12-.12-.24c-.12-.12-.36-.12-.49-.36,0-.13,0-.25.12-.25h.24c.07,0,.12-.05.12-.12s-.05-.12-.12-.12h0q-.12,0-.12-.12s-.12-.12,0-.12h.12c.12,0,.24,0,.24-.13s-.12-.24.13-.24h0c-.13-.12,0-.24.12-.36s.12-.13.24,0c0,0,.12.12.12,0s0-.13-.12-.13c-.07,0-.12-.05-.12-.12h0c0-.12-.12-.12-.12,0-.12.12-.12,0-.25,0,0,0,.13,0,.13-.12.12,0,.12-.12,0-.12-.13-.12-.13-.24,0-.24,0,0,.12-.13,0-.13h-.13c-.12.13-.24.25-.36.25v-.12s.12-.13,0-.13h0c-.07,0-.12.05-.12.12,0,0,0,0,0,0h0c0,.07-.05.12-.12.12h0c-.13,0,0-.12-.13-.12,0-.13-.12-.13-.12-.25s0-.12.12-.12.13-.12,0-.12c-.24-.12-.12-.25-.24-.37l.12-.12s.12-.12,0-.12c0,0,0-.01,0-.02,0-.07-.05-.12-.12-.12,0,0-.02,0-.02,0h0c-.24.12-.24,0-.36-.12v-.13h.26c.12,0,.36.25.49-.12.09,0,.18-.05.24-.12h0c-.12,0-.24,0-.24.12-.03,0-.05,0-.08,0-.12,0-.23-.05-.31-.13h0q-.12-.12-.24-.12c.12-.24,0-.49.12-.71v-1.39c0-.12-.12-.24,0-.36,0,0-.12-.13-.12,0-.25,0-.25-.13-.25-.25h.27c-.37-.1-.37-.35-.25-.6v-.21c.08.08.13.19.13.31,0,.02,0,.04,0,.06h0s0,.13,0,.13l.12.12v-2.76q0-.12-.12-.12c-.12,0-.13,0-.13-.12s0-.25.13-.25c.07,0,.12-.05.12-.12h0q0-.12-.12-.12c-.12,0-.13,0-.13-.12v-.86c0-.25.13-.37,0-.61v-.12c.25,0,.13-.13.13-.13,0-.24-.13-.49,0-.71v-.12c0-.12-.13-.12,0-.24.12,0,0-.12,0-.12-.13-.12-.25-.25,0-.25.12,0,0-.12,0-.12-.07-.06-.11-.15-.13-.24h0v-.12c.13,0,.13-.12.25-.25v-.12c-.12,0-.12-.12,0-.24s0-.25.12-.25c0-.07-.05-.12-.12-.12h0c-.12,0-.12-.12,0-.12,0,0,.12-.12,0-.12-.25-.24,0-.49-.25-.71v-.26s.13-.13,0-.13c-.12-.12,0-.12,0-.12.13,0,.13-.12,0-.24v-.12c.13-.12,0-.25,0-.49-.07,0-.12.05-.12.12h-.12c.01-.13.11-.23.24-.24h0q.13,0,.13-.12v-.37h-.13c-.12,0,0,.12,0,.12-.24,0-.24-.26-.24-.36v-.71c0-.12,0-.25.24-.12.13.12.25-.13.13-.13v-2.35h-.25v-.15c.07,0,.12-.05.12-.12h0q.13-.12,0-.24s-.12,0,0-.13c0-.12,0-.24.13-.24s.12-.12.12-.24,0-.25-.25-.37v-.08c.25-.12.13-.24.13-.37-.09-.26-.13-.54-.13-.81,0-.06,0-.11,0-.17h0s0-1.23,0-1.23c0-.07,0-.14,0-.22,0-.39.05-.78.14-1.16v.03s0-2.33,0-2.33c0-.12,0-.24.12-.24s.12,0,0-.12v-.12s-.12-.13,0-.13.12,0,.12.13c0,.07.05.12.12.12h-.02v-.12c-.15-.27-.23-.58-.23-.9,0-.07,0-.14.01-.21h0s0-.11,0-.11c-.12-.25,0-.49,0-.71v-1.38c0-.12.12-.12,0-.24v-.13c.22-.12.12-.12,0-.27s0-.24,0-.36.24,0,.12-.13c0-.09-.12-.09-.12-.22,0-.07.05-.12.12-.12h0c-.07,0-.12-.05-.12-.12h0q0-.13.12-.13c.12,0,.1,0,.1-.11s0,0-.12,0c-.07,0-.12-.05-.12-.12h0v-2.21q0-.24.24-.24c.12,0,.12-.12.12-.25,0,.13.12.13.25,0,.39-.12.63-.26,1-.36h.36s.09,0,.14,0c.25,0,.5-.04.74-.13h-.01c.24-.12.49,0,.71,0,.16.03.32.05.49.05.17,0,.34-.02.5-.05h-.02s.12,0,.12,0c.25.24.49.12.71,0,.33-.11.64-.28.91-.5h0s34.21,0,34.21,0c.13,0,.25.12.37.12.35.03.75.05,1.16.05s.82-.02,1.22-.05h-.05c.16-.03.33-.04.49-.04.17,0,.34.02.51.05h-.02c.24,0,.36.12.61,0h3.43c.24-.03.49-.05.74-.05.26,0,.51.02.77.05h-.03s4.41,0,4.41,0c.61,0,1.14-.12,1.72-.12h11.77c.31.02.6.11.88.25h-.01s.24,0,.24,0c.44.09.88.14,1.33.13.09,0,.19,0,.28,0h-.01s1.23,0,1.23,0c.17.08.36.12.56.12.02,0,.04,0,.06,0h0s.71,0,.71,0c.12,0,.24.24.24.49v2.34c0,.12,0,.24-.12.12h-.12c0,.07.05.12.12.12h0c.12,0,.24-.12.24.12,0,.02,0,.03,0,.05,0,.12-.04.23-.12.32h0q-.12.12,0,.12c.12,0,.12.36,0,.36-.12.13-.24.25,0,.25,0,0,.12.12,0,.12s-.12.12,0,.12.12.12.12.24v.49c-.06.16-.09.32-.09.49,0,.17.03.34.09.5h0s0,.12,0,.12c-.12.24,0,.61-.12.86,0,.12-.12.24-.12.36,0,0,0,.13-.12.13l-.12.12v.12h.12v-.12c0-.07.05-.12.12-.12h0c.12,0,0,.12,0,.12-.12.12-.12.24.12.24.07,0,.12.05.12.12h0v2.46c.12.36,0,.61.12.98.03.24.05.49.05.74,0,.26-.02.51-.05.76v-.03s0,.09,0,.14c0,.25-.04.5-.13.73h0c-.12.11-.24.24.12.36.13,0,0,.12,0,.12.49,1.1.49,1.23.49,1.59.12,0,0-.12.12-.12s.12.12.12.24c0,0,0,.13-.12,0s-.12,0-.12.13c0,.24-.12.61,0,.86v.12c-.12.23-.11.49,0,.72h0s0,.12,0,.12c-.03.16-.05.33-.05.49,0,.17.02.34.05.51v-.02c0,.13.12.13.24.13.13-.13.13,0,.25.12v.98c0,.12-.12.12-.25.12v-.12q0-.12-.12-.12c-.07,0-.12.05-.12.12h0v.37q0,.12.12,0c.12,0,.37.12.37.24s0,.12-.12,0l-.13-.12c-.12.12-.12.24,0,.49v.12s-.12.12,0,.12c.13.12.13,0,.25,0h.12c0,.24.12.49-.12.71-.07.07-.07.18,0,.24,0,0,0,0,0,0h0q0,.12-.12.12c-.07,0-.13.06-.13.13h0v.12q.13,0,.13-.12s0-.13.12-.13,0,.13,0,.13v.12c0,.12.12.36-.25.12-.07,0-.12.05-.12.12h0c0,.12.12.37.25.37-.13.12-.13.24-.25.24-.12.12,0,.12,0,.24s0,.13.12.13h.13q0,.12-.13.12h-.12l-.12.12c0,.12.12,0,.12,0,.12,0,.25.24.25.36v.99c.16.31.25.66.24,1.02,0,.03,0,.06,0,.09h0s0,.04,0,.04ZM35.71,85.48c0,.12.24.12.12.37-.07.07-.18.07-.24,0,0,0,0,0,0,0h0c-.12-.25,0-.37.12-.37h0ZM108.8,65.48h0q-.24,0-.24-.12h0c.12,0,.24,0,.24.12h0Z"/></g></g></svg>