<?xml version="1.0" encoding="UTF-8"?><svg xmlns="http://www.w3.org/2000/svg" viewBox="0 0 144 144"><defs><style>.cls-1{fill:#c23d27;}.cls-2{opacity:0;}.cls-3{fill:#c68778;}.cls-4{fill:#2f1718;}</style></defs><g id="Layer_2"><rect class="cls-2" width="144" height="144"/></g><g id="Layer_1"><rect class="cls-2" x="0" width="144" height="144"/><polygon class="cls-4" points="72.27 130.84 128.26 90.16 106.87 24.34 37.67 24.34 16.28 90.16 72.27 130.84"/><polygon class="cls-1" points="39.99 108.86 39.99 119.96 72.27 143.41 104.55 119.96 104.55 108.86 72.54 131.49 39.99 108.86"/><path class="cls-1" d="M39.73,27.53l-20.1,61.88,52.64,38.25,52.64-38.25-20.11-61.88H39.73ZM72.27,135.42L12.25,91.81,35.18,21.25h74.18s22.93,70.56,22.93,70.56l-60.02,43.61Z"/><path class="cls-3" d="M72.09,115.68l-.21.06-3.82-8.47c-6.65-.74-12.93-3.33-18.2-7.54l-7.36,2.78-1.5.46,3.32-8.8c-4.19-5.24-6.79-11.52-7.52-18.19l-7.23-3.26-1.35-.7,8.59-3.89c.72-6.68,3.35-12.94,7.54-18.19l-2.82-7.45c-.15-.48-.31-.83-.42-1.4l8.78,3.31c5.25-4.19,11.51-6.79,18.2-7.52l3.28-7.27.67-1.33,3.89,8.61c6.64.74,12.93,3.32,18.2,7.54l7.48-2.83,1.38-.43-3.32,8.81c4.17,5.22,6.78,11.46,7.52,18.2l7.18,3.24,1.41.72-8.59,3.88c-.74,6.67-3.34,12.95-7.55,18.2l2.81,7.44.45,1.42-8.81-3.32c-5.25,4.2-11.51,6.79-18.19,7.52l-3.29,7.26-.53,1.15ZM92.21,97.08l5.62,2.14,2.33.9c-.27-.9-.56-1.57-.86-2.36l-2.15-5.66c3.82-4.8,6.16-10.55,6.83-16.64l5.57-2.49,2.21-.99c-.77-.4-1.45-.68-2.21-1.02l-5.59-2.5c-.72-6.09-3.11-11.83-6.96-16.61l2.18-5.71.87-2.26-2.32.87-5.7,2.17c-11.78-9.41-28.58-9.32-40.25.15l-5.08-1.94-2.9-1.12c.28.86.58,1.56.88,2.36l2.16,5.67c-3.83,4.81-6.15,10.53-6.83,16.63l-5.45,2.44-2.35,1.04c.97.5,1.86.84,2.82,1.28l5,2.26c.71,6.1,3.1,11.79,6.94,16.57l-1.99,5.24-1.06,2.74c.83-.26,1.54-.56,2.35-.86l5.69-2.17c11.87,9.4,28.42,9.33,40.24-.14Z"/><path class="cls-3" d="M60.56,100.06c-8.02-3.29-14.17-9.77-17.06-17.9-1.24-3.48-1.78-7.11-1.71-10.72.32-16.84,14.45-30.41,31.29-29.57l1.01.05c16.93.84,29.42,15.94,28.05,32.66-1.26,15.29-13.95,27.41-29.5,27.7-4.07.08-8.18-.63-12.08-2.23ZM73.05,100.88c11.82-.39,22.17-7.97,26.11-19.09,1.59-4.48,2.04-9.3,1.35-13.99-1.84-12.53-11.66-22.38-24.19-24.24-4.71-.7-9.56-.26-14.08,1.35-9.35,3.33-16.35,11.27-18.43,20.98-1.41,6.56-.54,13.45,2.52,19.4,4.78,9.3,14.21,15.26,24.67,15.59.68.02,1.3.02,2.04,0Z"/><path class="cls-3" d="M77.37,68.24l-5.21,21.31c-.05.2-.15.25-.18.22s-.05-.04-.13-.12l-5.25-21.48.02-11.21,5.03-4.62c.2-.24.53-.23.71.02l5.01,4.6v11.28Z"/><path class="cls-3" d="M85.62,89.79c-.27-.63-.44-1.25-.61-1.94l-4.61-18.6-.25-.95v-11.36s5.39-5.01,5.39-5.01l5.37,5.02v11.26s-2.56,10.55-2.56,10.55l-2.73,11.03Z"/><path class="cls-3" d="M63.59,69.26l-4.6,18.56c-.18.71-.35,1.3-.61,2.02l-2.75-11.11-2.56-10.49v-11.27s5.36-5.01,5.36-5.01l1.52,1.36,3.89,3.65v11.35c0,.31-.16.58-.25.95Z"/><path class="cls-3" d="M70.68,89.77h-11.02s5.31-22.05,5.31-22.05c.02-.09.1-.19.14-.22.06-.04.23.11.25.22l5.31,22.05Z"/><path class="cls-3" d="M84.33,89.77h-11.02s5.32-22.1,5.32-22.1c.01-.06.15-.19.2-.17s.16.13.18.19l5.32,22.08Z"/></g></svg>