<?xml version="1.0" encoding="UTF-8"?><svg id="Layer_1" xmlns="http://www.w3.org/2000/svg" viewBox="0 0 144 144"><defs><style>.cls-1{fill:#c23d27;}.cls-2{opacity:0;}.cls-3{fill:#c68778;}.cls-4{fill:#2f1718;}</style></defs><rect class="cls-2" width="144" height="144"/><polygon class="cls-4" points="72.27 130.84 128.26 90.16 106.87 24.34 37.67 24.34 16.28 90.16 72.27 130.84"/><polygon class="cls-1" points="39.99 108.86 39.99 119.96 72.27 143.41 104.55 119.96 104.55 108.86 72.54 131.49 39.99 108.86"/><path class="cls-1" d="M39.73,27.53l-20.1,61.88,52.64,38.25,52.64-38.25-20.11-61.88H39.73ZM72.27,135.42L12.25,91.81,35.18,21.25h74.18s22.93,70.56,22.93,70.56l-60.02,43.61Z"/><g id="Layer_2"><g id="Layer_1-2"><path class="cls-3" d="M69.68,51.96l2.41-2.57,2.41,2.57-2.41,2.57-2.41-2.57Z"/><path class="cls-3" d="M68.7,42.07l3.38-3.61,3.38,3.61-3.38,3.61-3.38-3.61Z"/><path class="cls-3" d="M69.68,32.19l2.41,2.57,2.41-2.57-2.41-2.57-2.41,2.57Z"/><path class="cls-3" d="M73.53,65.58c.59-2.67,1.69-5.2,3.24-7.46l10.59-12.9-2.12-1.93s-7.51,8.67-9.44,11.56c-1.42,3.4-2.19,7.04-2.27,10.73Z"/><path class="cls-3" d="M75.81,75.88c-1.42,3.4-2.19,7.04-2.27,10.73.05-.43-.04.63-.04.63v27.14l.77-27.37c.14-2.03.59-4.03,1.34-5.93.19-.35.38-.68.55-.95l.38-.62c.15-.23.24-.36.24-.36l11.94-14.25-2.12-1.93s-8.86,10.01-10.79,12.9h0Z"/><path class="cls-3" d="M75.81,65.84c-1.42,3.4-2.19,7.04-2.27,10.73.59-2.67,1.69-5.2,3.24-7.46l15.49-18.67-2.12-1.93s-12.42,14.43-14.34,17.32h0Z"/><path class="cls-3" d="M90.18,41.82l-2.12-1.93-2.02,2.36,2.17,1.97,1.97-2.4Z"/><path class="cls-3" d="M75.33,50.93l7.67-8.86-7.67-8.86-2.34,2.5,5.62,6.36-5.62,6.36,2.34,2.5Z"/><path class="cls-3" d="M70.47,65.58c-.59-2.67-1.69-5.2-3.24-7.46l-10.59-12.9,2.12-1.93s7.51,8.67,9.44,11.56c1.42,3.4,2.19,7.04,2.27,10.73Z"/><path class="cls-3" d="M68.19,75.88c1.42,3.4,2.19,7.04,2.27,10.73-.05-.43.04.63.04.63v27.14l-.77-27.37c-.14-2.03-.59-4.03-1.34-5.93-.19-.35-.38-.68-.55-.95l-.38-.62c-.15-.23-.24-.36-.24-.36l-11.94-14.25,2.12-1.93s8.86,10.01,10.79,12.9h0Z"/><path class="cls-3" d="M68.19,65.84c1.42,3.4,2.19,7.04,2.27,10.73-.59-2.67-1.69-5.2-3.24-7.46l-15.49-18.67,2.12-1.93s12.41,14.43,14.34,17.32Z"/><path class="cls-3" d="M53.82,41.82l2.12-1.93,2.02,2.36-2.17,1.97-1.97-2.4Z"/><path class="cls-3" d="M68.67,50.93l-7.67-8.86,7.67-8.86,2.34,2.5-5.62,6.36,5.62,6.36-2.34,2.5Z"/></g></g></svg>