<?xml version="1.0" encoding="UTF-8"?><svg xmlns="http://www.w3.org/2000/svg" viewBox="0 0 144 144"><defs><style>.cls-1{fill:#487ea2;}.cls-2{fill:#86b2cd;}.cls-3{opacity:0;}.cls-4{fill:#1f3b47;}</style></defs><g id="Layer_2"><rect class="cls-3" width="144" height="144"/></g><g id="Layer_1"><rect class="cls-3" x="0" width="144" height="144"/><polygon class="cls-4" points="131.14 71.97 90.46 15.98 24.64 37.37 24.64 106.57 90.46 127.96 131.14 71.97"/><polygon class="cls-1" points="109.17 104.25 120.26 104.25 143.71 71.97 120.26 39.68 109.17 39.68 131.8 71.7 109.17 104.25"/><path class="cls-1" d="M92.1,11.95l43.61,60.02-43.61,60.02-70.55-22.93V34.88S92.1,11.95,92.1,11.95ZM89.71,19.33l-61.89,20.11v65.07s61.89,20.1,61.89,20.1l38.24-52.64-38.24-52.64Z"/><polygon class="cls-2" points="72.74 70.46 84.83 58.29 72.72 46.21 72.72 31.52 79 31.45 105.62 58.35 72.92 90.88 72.74 70.46"/><polygon class="cls-2" points="73.03 112.55 72.9 93.01 105.56 60.53 105.62 80.33 73.03 112.55"/><polygon class="cls-2" points="71.19 46.12 58.05 59.14 38.4 59.12 65.61 31.48 71.18 31.47 71.19 46.12"/><polygon class="cls-2" points="38.45 98.63 38.38 79.06 58.01 59.51 58.03 78.81 38.45 98.63"/></g></svg>