<?xml version="1.0" encoding="UTF-8"?><svg id="Layer_1" xmlns="http://www.w3.org/2000/svg" viewBox="0 0 144 144"><defs><style>.cls-1{opacity:0;}.cls-2{fill:#252b1f;}.cls-3{fill:#5ca76b;}.cls-4{fill:#98cc9e;}</style></defs><rect class="cls-1" width="144" height="144"/><polygon class="cls-2" points="72.27 13.1 16.28 53.78 37.67 119.59 106.87 119.59 128.26 53.78 72.27 13.1"/><polygon class="cls-3" points="104.55 35.07 104.55 23.98 72.27 .52 39.99 23.98 39.99 35.07 72 12.44 104.55 35.07"/><path class="cls-3" d="M124.91,54.52l-52.64-38.24L19.63,54.52l20.11,61.89h65.07s20.1-61.89,20.1-61.89ZM72.27,8.52l60.02,43.61-22.93,70.55H35.18S12.25,52.13,12.25,52.13L72.27,8.52Z"/><path class="cls-4" d="M74.76,84.58h9.49c3.06,0,6.98-1.21,6.98-7.18v-38.21c0-.89-.72-1.61-1.61-1.61s-1.61.72-1.61,1.61v23.2c0,8.34-8.06,16.67-17.77,16.67s-17.77-8.34-17.77-16.67v-23.2c0-.89-.72-1.61-1.61-1.61s-1.61.72-1.61,1.61v38.21c0,5.97,3.92,7.18,6.98,7.18h9.49c.67,0,1.21.54,1.21,1.21,0,.67-.54,1.21-1.21,1.21h-10.32c-3.47,0-6.14-2.4-6.14-2.4v9.52h11.14v6.78l9.85-4.03,9.85,4.03v-6.78h11.14v-9.52s-2.67,2.4-6.14,2.4h-10.32c-.67,0-1.21-.54-1.21-1.21,0-.67.54-1.21,1.21-1.21Z"/><rect class="cls-4" x="82.3" y="96.43" width="8.89" height="8.89"/><rect class="cls-4" x="49.26" y="96.43" width="8.89" height="8.89"/><circle class="cls-4" cx="70.23" cy="53.22" r="15.58"/></svg>