<?xml version="1.0" encoding="UTF-8"?><svg id="Layer_1" xmlns="http://www.w3.org/2000/svg" viewBox="0 0 144 144"><defs><style>.cls-1{opacity:0;}.cls-2{fill:#252b1f;}.cls-3{fill:#5ca76b;}.cls-4{fill:#98cc9e;}</style></defs><rect class="cls-1" width="144" height="144"/><polygon class="cls-2" points="72.27 13.1 16.28 53.78 37.67 119.59 106.87 119.59 128.26 53.78 72.27 13.1"/><polygon class="cls-3" points="104.55 35.07 104.55 23.98 72.27 .52 39.99 23.98 39.99 35.07 72 12.44 104.55 35.07"/><path class="cls-3" d="M124.91,54.52l-52.64-38.24L19.63,54.52l20.11,61.89h65.07s20.1-61.89,20.1-61.89ZM72.27,8.52l60.02,43.61-22.93,70.55H35.18S12.25,52.13,12.25,52.13L72.27,8.52Z"/><path class="cls-4" d="M81.09,53.58c.08.02.09.23.02.34-.93,1.37-1.61,2.82-2.19,4.36-.29.76-1.18,2.6-2.3,2.15-1.12-.45-1.96-1.63-1.42-2.67.83-1.61,5.37-4.34,5.9-4.18Z"/><path class="cls-4" d="M103.98,48.53l-3.39,5.55c-5.18,9.43-8.87,19.95-9.8,30.71-.61,2.25-2.94,4.7-4.61,6.25-1.14,1.06-2.2,2.08-3.27,3.21-5.44,5.75-8.41,12.31-9.92,20.11-.23-.05-.27-.26-.27-.49v-21.29c.41-4.61,2.84-4.29,3.22-9.31.07-1-.14-1.85.06-2.74.4-1.12.74-2.25.74-3.45l.02-6.09c0-2.16-1.71-3.63.21-6.17,1.44-1.91,2.91-3.71,4.47-5.52,1.87-1.63,3.51-1.15,5.33-2.08l3.79-1.93c.69-.35,1.19-.73,1.78-1.19,1.03-.79,2.27-1.22,3.42-1.81.57-.29,1.13-.64,1.76-.76.89-.18,1.72-.47,2.38-1.11.86-.84,2.77-2.09,4.09-1.89ZM93.93,59.06c.09-.12,1.28-1.16.85-1.7-.09-.11-.28-.2-.47-.25-.83-.21-1.57-.12-2.32.29-.97.52-1.86,1.15-2.71,1.86-1.49,1.25-2.66,1.28-3.82,1.96-.96.56-1.82,1.29-2.55,2.23,2.04-.29,3.54-1.21,5.73-.83-1.72,1.06-3.56,3.28-4.91,4.83-1.2,1.38-2.2.33-2.41,1.26-.39,1.74.18,2.34-.5,4.09-.3.78-.43,1.56-.35,2.41.19,2.11.45,4.15.8,6.25.83-2.12,1.73-4.06,2.74-6.07,2.89-5.7,6.23-11.12,9.91-16.33Z"/><path class="cls-4" d="M78.26,33.63c.21,1.26-.65,2.44-1.86,2.65-1.25.22-2.41-.61-2.65-1.81-.25-1.25.54-2.5,1.89-2.71,1.31-.21,2.43.69,2.63,1.87Z"/><path class="cls-4" d="M78.24,47.31c.25,1.25-.55,2.45-1.78,2.7-1.22.25-2.42-.51-2.7-1.71-.29-1.23.45-2.53,1.78-2.78,1.32-.25,2.47.58,2.71,1.79Z"/><path class="cls-4" d="M78.29,40.8c.05,1.29-.95,2.32-2.17,2.38-1.28.07-2.34-.91-2.42-2.13-.08-1.28.86-2.38,2.21-2.44,1.32-.06,2.33.99,2.38,2.2Z"/><path class="cls-4" d="M71.28,92.66v21.29c-.06.19-.02.39-.27.39-1.53-7.88-4.52-14.44-10.05-20.24-1.03-1.08-2.05-2.05-3.14-3.07-1.67-1.56-3.99-3.98-4.61-6.24-.95-10.96-4.77-21.73-10.12-31.29-.96-1.71-1.94-3.3-3.07-4.97.45-.12.83.03,1.22.14,1.21.36,2.19,1.09,3.11,1.94.91.84,2.08.77,2.82,1.14l2.84,1.39c.62.3,1.26.58,1.78,1.02.35.3.64.59,1.07.81l4.21,2.16c2.15,1.1,3.42.46,5.47,2.12,1.58,1.82,3.06,3.64,4.51,5.57.88,1.17,1.16,2.53.65,3.93-.28.74-.45,1.47-.44,2.3l.02,6.08c0,1.24.37,2.35.76,3.46.14.88,0,1.72.04,2.61.07,1.66.6,3.22,1.42,4.65,1.11,1.4,1.65,2.99,1.8,4.8ZM63.52,75.21c.08-.88-.07-1.68-.37-2.48-.63-1.57-.13-2.21-.46-3.95-.2-1.04-1.21.05-2.39-1.28-1.37-1.55-3.23-3.82-4.95-4.87,2.3-.41,3.56.55,5.71.78-.72-.89-1.57-1.64-2.53-2.2-1.26-.72-2.28-.69-3.82-1.96-.86-.71-1.74-1.33-2.71-1.86-.83-.45-1.74-.54-2.61-.17-.88.37.68,1.83.69,1.85,3.49,4.93,6.66,10.06,9.45,15.44,1.18,2.29,2.24,4.53,3.2,6.95.36-2.1.62-4.15.8-6.25Z"/><path class="cls-4" d="M70.3,40.79c.05,1.28-.93,2.32-2.18,2.39-1.26.07-2.32-.9-2.41-2.13-.09-1.26.85-2.38,2.19-2.45,1.33-.06,2.35.98,2.4,2.19Z"/><path class="cls-4" d="M70.27,33.61c.22,1.26-.64,2.45-1.87,2.67-1.24.21-2.4-.6-2.64-1.82-.24-1.23.53-2.47,1.88-2.7,1.3-.22,2.43.67,2.64,1.86Z"/><path class="cls-4" d="M70.27,47.37c.22,1.26-.62,2.44-1.87,2.65-1.23.2-2.4-.59-2.63-1.82-.24-1.22.52-2.48,1.87-2.7,1.31-.22,2.43.66,2.64,1.87Z"/><path class="cls-4" d="M68.77,57.71c.6,1.05-.25,2.23-1.35,2.72-1.13.49-2.03-1.31-2.34-2.13-.58-1.54-1.26-2.99-2.2-4.36-.06-.08-.06-.24-.03-.3.04-.09.23-.1.36-.04,1.58.74,4.69,2.61,5.55,4.11Z"/></svg>