<?xml version="1.0" encoding="UTF-8"?><svg id="Layer_1" xmlns="http://www.w3.org/2000/svg" viewBox="0 0 144 144"><defs><style>.cls-1{fill:#d3ad71;}.cls-2{fill:#99742b;}.cls-3{opacity:0;}.cls-4{fill:#382915;}</style></defs><rect class="cls-3" width="144" height="144"/><polygon class="cls-4" points="131.14 71.97 90.46 15.98 24.64 37.37 24.64 106.57 90.46 127.96 131.14 71.97"/><polygon class="cls-2" points="109.17 104.25 120.26 104.25 143.71 71.97 120.26 39.68 109.17 39.68 131.8 71.7 109.17 104.25"/><path class="cls-2" d="M92.11,131.99l-70.56-22.92V34.88S92.11,11.95,92.11,11.95l43.6,60.02-43.6,60.02ZM27.83,104.51l61.88,20.11,38.25-52.65-38.25-52.64-61.88,20.11v65.07Z"/><path class="cls-1" d="M69.08,71.95l-33.17-19.15v38.3l33.17-19.15ZM74.92,71.95l33.17,19.15v-38.3l-33.17,19.15ZM88.73,41.31l-16.58-9.57-33.17,19.15,33.17,19.15,33.17-19.15-16.59-9.58ZM88.73,83.55l-16.58-9.58-33.17,19.15,33.17,19.15,33.17-19.15-16.59-9.58h0Z"/></svg>