<?xml version="1.0" encoding="UTF-8"?><svg id="Layer_1" xmlns="http://www.w3.org/2000/svg" viewBox="0 0 144 144"><defs><style>.cls-1{fill:#d3ad71;}.cls-2{fill:#99742b;}.cls-3{opacity:0;}.cls-4{fill:#382915;}</style></defs><rect class="cls-3" width="144" height="144"/><polygon class="cls-4" points="131.14 71.97 90.46 15.98 24.64 37.37 24.64 106.57 90.46 127.96 131.14 71.97"/><polygon class="cls-2" points="109.17 104.25 120.26 104.25 143.71 71.97 120.26 39.68 109.17 39.68 131.8 71.7 109.17 104.25"/><path class="cls-2" d="M92.11,131.99l-70.56-22.92V34.88S92.11,11.95,92.11,11.95l43.6,60.02-43.6,60.02ZM27.83,104.51l61.88,20.11,38.25-52.65-38.25-52.64-61.88,20.11v65.07Z"/><path class="cls-1" d="M47.61,85.45l16.76-26.92-6.26-9.99-23.07,36.9h12.57ZM61.44,85.45l9.89-15.82-6.28-10.01-16.15,25.84h12.54ZM79.53,58.62l16.9,26.83h12.54l-23.14-36.9-6.3,10.08ZM62.75,85.45h18.49l-9.26-14.77-9.23,14.77ZM78.91,59.62l-6.25,9.99,9.94,15.85h12.51l-16.2-25.84ZM65.72,58.56l6.26-10.01,6.26,10.01-6.25,10-6.28-10Z"/></svg>