<?xml version="1.0" encoding="UTF-8"?><svg id="Layer_1" xmlns="http://www.w3.org/2000/svg" viewBox="0 0 144 144"><defs><style>.cls-1{fill:#d3ad71;}.cls-2{fill:#99742b;}.cls-3{opacity:0;}.cls-4{fill:#382915;}</style></defs><rect class="cls-3" width="144" height="144"/><polygon class="cls-4" points="131.14 71.97 90.46 15.98 24.64 37.37 24.64 106.57 90.46 127.96 131.14 71.97"/><polygon class="cls-2" points="109.17 104.25 120.26 104.25 143.71 71.97 120.26 39.68 109.17 39.68 131.8 71.7 109.17 104.25"/><path class="cls-2" d="M92.11,131.99l-70.56-22.92V34.88S92.11,11.95,92.11,11.95l43.6,60.02-43.6,60.02ZM27.83,104.51l61.88,20.11,38.25-52.65-38.25-52.64-61.88,20.11v65.07Z"/><path class="cls-1" d="M67.87,52.35v.68c0,2.39-.63,4.74-1.83,6.81l-4.22,7.3-1.38-1.68,1.9-3.1h-2.13c-.65,0-1.25.32-1.62.85l-16.46-20.01c0,.43.07.85.22,1.25.14.4.35.77.62,1.1l7.48,9.13v.72l7.4,9-3.17,5.11-2.93-3.44c-.31-.37-.57-.77-.77-1.2-.2-.43-.35-.89-.43-1.37h-.33v.45c0,1.3.46,2.56,1.31,3.56l2.55,2.99-2.18,3.52-2.61,4.21c-.3.48-.71.87-1.19,1.14s-1.03.41-1.59.41l-.45.76h3.07c1.32,0,2.54-.68,3.22-1.81l2.79-4.56.87-1.43,1.54,1.81-2.09,3.61,3.04,2.8,1.46-2.5v12.6c0,1.14-.96,3.03-2.51,3.91-1.05.59-2.59,1.4-2.59,1.4-3.72,1.96-3.79,5.05-4.36,5.79.33,0,1.23-.55,1.69-1.59.47-1.03,1.23-1.76,2.97-2.53.81-.36,4.74-2,4.74-2v6.76c0,7.25,5.16,10.62,7.71,11.6.14.05.24-.14.12-.23-4.43-3.11-4.51-6.9-4.51-11.17v-20.78l3.86,4.75c.32.39.96.15.94-.35l-.38-11.07c-.03-.9-.36-1.76-.93-2.46l-2.1-2.56,3.82-6.51c.46-.79.71-1.69.71-2.6v-9.84l-1.27.77ZM58.12,73.54l-1.52-1.79,3.12-5.09,1.4,1.7-2.99,5.18ZM64.72,76.5l.15,3.75c.02.42-.51.63-.78.3l-3.17-3.72,2.17-3.69.34.35c.79.81,1.24,1.88,1.29,3.01Z"/><path class="cls-1" d="M71.78,38.97v59.43c0,.08-.12.1-.14.02l-1.01-3.28v-55.8c0-.21.17-.37.37-.37h.78Z"/><path class="cls-1" d="M58.1,81.64l-2.78,4.74c-.61,1.04-1.72,1.67-2.92,1.67h-5.34l.59-1.02c1.65,0,3.18-.88,4-2.31l3.4-5.89,3.04,2.8Z"/><path class="cls-1" d="M47.7,48.18l-5.57-6.64v-1.69l4.45,5.26c.72.86,1.12,1.94,1.12,3.06h0Z"/><path class="cls-1" d="M74.86,51.58v9.84c0,.92.24,1.81.71,2.6l3.82,6.51-2.1,2.56c-.57.7-.9,1.56-.93,2.46l-.38,11.07c-.02.51.62.75.94.35l3.86-4.75v20.78c0,4.28-.08,8.06-4.51,11.17-.12.09-.02.28.12.23,2.55-.98,7.71-4.35,7.71-11.6v-6.76s3.93,1.64,4.74,2c1.74.77,2.51,1.5,2.97,2.53.47,1.03,1.36,1.59,1.69,1.59-.57-.74-.63-3.83-4.36-5.79,0,0-1.54-.81-2.59-1.4-1.55-.87-2.51-2.77-2.51-3.91v-12.6l1.46,2.5,3.04-2.8-2.09-3.61,1.54-1.81.87,1.43,2.79,4.56c.69,1.12,1.91,1.81,3.22,1.81h3.07l-.45-.76c-.57,0-1.11-.15-1.59-.41s-.89-.65-1.19-1.14l-2.61-4.21-2.18-3.52,2.55-2.99c.84-.99,1.31-2.25,1.31-3.56v-.45h-.33c-.08.47-.23.93-.43,1.37-.2.43-.46.84-.77,1.2l-2.93,3.44-3.17-5.11,7.4-9v-.72l7.48-9.13c.27-.33.48-.71.62-1.1.14-.4.22-.82.22-1.25l-16.46,20.01c-.37-.53-.97-.85-1.62-.85h-2.13l1.9,3.1-1.38,1.68-4.22-7.3c-1.2-2.07-1.83-4.42-1.83-6.81v-.68l-1.27-.77ZM82.88,68.36l1.4-1.7,3.12,5.09-1.52,1.79-2.99-5.18ZM80.57,73.48l.34-.35,2.17,3.69-3.17,3.72c-.27.32-.8.12-.78-.3l.15-3.75c.05-1.13.5-2.2,1.29-3.01Z"/><path class="cls-1" d="M72.22,38.97v59.43c0,.08.12.1.14.02l1.01-3.28v-55.8c0-.21-.17-.37-.37-.37h-.78Z"/><path class="cls-1" d="M85.9,81.64l2.78,4.74c.61,1.04,1.72,1.67,2.92,1.67h5.34l-.59-1.02c-1.65,0-3.18-.88-4-2.31l-3.4-5.89-3.04,2.8Z"/><path class="cls-1" d="M96.3,48.18l5.57-6.64v-1.69l-4.45,5.26c-.72.86-1.12,1.94-1.12,3.06h0Z"/></svg>