<?xml version="1.0" encoding="UTF-8"?><svg id="Layer_1" xmlns="http://www.w3.org/2000/svg" viewBox="0 0 144 144"><defs><style>.cls-1{fill:rgba(1,1,1,0);}.cls-2{fill:#262c20;}.cls-3{fill:#5ca76b;}.cls-4{fill:#99cc9e;}</style></defs><rect class="cls-1" width="144" height="144"/><polygon class="cls-2" points="72.27 13.1 16.29 53.78 37.67 119.6 106.88 119.6 128.26 53.78 72.27 13.1"/><polygon class="cls-3" points="104.56 35.07 104.56 23.98 72.27 .53 39.99 23.98 39.99 35.07 72 12.45 104.56 35.07"/><path class="cls-3" d="M124.91,54.53l-52.64-38.24L19.63,54.53l20.11,61.89h65.07l20.1-61.89h0ZM72.27,8.53l60.02,43.61-22.93,70.55H35.18L12.25,52.14,72.27,8.53h0Z"/><path class="cls-4" d="M85.26,89.67c-.2-.56.04-3.07-.33-3.17-.18-.05-.6,1.32-.61,1.37-.19.75.06,2.45-.24,2.53-1.05.29-.21-1.69-.84-2.76-.54,1.33-.49,2.67-.47,4.02,0,.62-.38,1.07-.52,1.63l-.85,3.24c-.19.7-1.35.36-1.84.46-.65.28-.83,1.41-.9,2.07-.24.15-.72-.09-.91.12-.78.85-.74,1.95-.91,3.02-.07.42-.99.56-1.32.39-.49-.24-.8.17-1.18.2l-4.87.5c-.4.17-.27,1.04-.3,1.38-.2-.32-.56-1.15-1.1-.88-.33.16-.88.35-1.22.44-.61.72-.61,1.82-.84,2.77-1.61.03-.9-1.71-2.8-1.06-1.81-.04-1.95-.95-2.47-1.06-.6-.12-.74-.45-.94-.93-.16-.35-.62.19-.84.24-.63.13-1.53.23-2.15-.02-1.11-.45-.23-2.34-.58-2.41l-1.14-.21c-.96-.93-2.15-1.95-2.22-3.32-.68-.83-1.43-1.56-2.17-2.35-.32-.34-.86-.38-1.16-.74-3.74-4.45-4.46-5.97-5.98-11.52-.15-.54.03-1.17-.27-1.63-.79-1.19,1-1.15-.45-1.78-.19-.08-.36-.17-.42-.29-.09-.17,0-.45.12-.57.44-.42.09-.66-.1-1.02-1.02-1.97-.37-4.93-.58-7.12-1,3.77-.95,7.66-.13,11.5-.49-.11-.64-.62-1.16-.55.23.68.82.87,1.2,1.32.36.42.61,3.13,1.17,4.64.2.54.36.98.41,1.71.07.1-.86-.44-1.07-.19-.38.47,1.21.77,1.66,1.56.15.26.93,2.45.21,1.92-.25-.18-.46-1.24-.75-1.4-.14.53.18.83.15,1.36-.54-.19-.28-1.18-1.58-1.15-.82-.57-.81-2.3-1.27-2.75l-.07,1.41c-1.22-1.01-1.16-3.38-1.5-4.02-.45-.85-.72-1.71-1.08-2.6-.57-1.41-.94-2.81-.95-4.3-.42,1.4.45,3.59.79,5.05.13.58.11,1.17.35,1.71.33.75.51,1.45.75,2.44-1.19-1.03-2.75-6.69-3.08-8.55-.94-5.22-.8-9.09.02-14.26.13-.83.65-1.44,1.17-2.15-.3-.27-.43.11-.77.27.72-2.96,1.88-5.84,3.34-8.56.22.08.3.26.45.27l.39-1.72c3.5-5.87,8.58-10.67,14.67-13.8,10.35-5.33,22.72-5.41,33.08-.07,7.02,3.62,12.77,9.39,16.15,16.5l.54,1.14c2.74,5.76,3.81,12.17,3.38,18.51-.45.31-.73.69-.75,1.23-.08.18-.41.21-.54.38-.04.4.16.73.47.92-.41.21-.57.53-.56.9,0,.45.37.57.8.68-.57.2-1.05-.02-1.64.1-.23,1.83-1.34,1.65-.31,2.35.66.45-1.22.58-1.29,2.34-.02.6-.32.92-.66,1.34-.85,1.05-1.26,2.34-2,3.46-.97,1.47-1.75,2.95-2.58,4.5-.25.48-.6.85-.37,1.45-.52.97-1.64,1.47-2.03,2.53,1.21-.45,2.39-3.12,3.46-2.35l-2.31,2.65c-2,2.29-4.4,4.08-7.01,5.65.28-.35.47-.73.75-1.05,1.2-1.35,3.39-1.67,3.09-2.35-.59.57-1.21.46-1.8.63-1.06.31-1.76,1.31-2.66,1.8-.58.32-1.13.35-1.62.92-.4.47-1.88.62-1.87,1.45,0,.2.21.23.43.42-.57.04-1.32.16-1.83.53,1.42-1.41.1-1.05,1.71-1.79.66-.3,1.34-.78,1.91-1.23l1.98-1.55,3.49-3.47,2.08-2.97.72-1.85c1.9-1.04,1.19-2.54,1.66-3.28l1.48-2.32c.36-.57-.08-1.34-.05-1.95l.91-1.25c.5-.68.3-1.91.97-2.58.73-.74,1.29-1.54,1.44-2.68s.28-2.21.28-3.36l-.02-8.9c0-.62-1.54-3.86-1.47-3.48l-.68-3.63c-.5,1.13-.41,2.26-.53,3.34-.08.67-.28,1.34-.12,2,.07.3.57.2.76.37.31.27.34.78.33,1.2l-.09,5.85c-.02,1.03-.28,1.99-.62,2.92-.17.47.05.95-.03,1.44-.23,1.55-.41,3.1-.92,4.54-.46,1.3-1.24,2.33-1.96,3.46l-3.12,4.9-2.31,3.28c-.13-.04-.19-.14-.23-.21.34-.33.42-.73.25-1.19-.77.36-.87,1.25-1.15,1.18-.32-.08.42-2.35-.04-3.08-.96,1.16-.05,2.59-1.1,3.88-1.11,1.36-2.3,2.85-3.97,3.53-.42.13-.4-.7-.47-1.01-.18-.85.03-1.84.24-2.68.6-2.34,0-4.97.1-5.61s.08-1.27-.21-1.81l-.39,2.09c-.07.37-.65.55-1.03.61l-.04.03ZM52.84,65.7c.41-.18.38-1.3,1.74-2.4.67-.54.11,1.62.88,2.32l.06-3.06c.02-.98.48-1.87.39-2.96-.73.76-.77,1.74-1.18,2.62-1.32.19-2.53-.09-3.95-.17.34.37.38.53.46.9l.31,1.6c.34-.5.89-1.13,1.39-.78.49.22-1.1,2.37-.11,1.94h0ZM66.24,79.35c-.97-.72-1.87-1.37-2.74-2.11-.5-.42-1.72-1.93-2.33-1.3l3.29,2.68c2.6,2.12,1.79.73,1.79.73h-.01ZM77.83,93.82c.03-.46.63-.66.72-1,.19-1.28.32-2.66.09-3.94-.15-.84-.41-1.58-.35-2.49-.66.67-.39,1.44-.5,2.15-.22,1.31-.16,2.57-.07,3.89.02.24-.47.47-.34.73.11.22.07.57.44.65h.01ZM54.12,95.47c-.21-.28-.54-.79-.93-.67-.26.08-.13.42-.13.54,0,.13.41.24.43.37.07.81.64,1.7,1.56,1.51.46-.09-.7-1.44-.93-1.74h0Z"/><path class="cls-4" d="M46.06,95.44l-1.43.42c1.66.38,2.66,1.49,3.24,2.99.21.55.69,1.07.99,1.58.66,1.09,2.38,2.34,1.77,2.89-4.03-2.8-7.9-7.12-10.33-11.25.67.14.67.75,1.04,1.06.61.52,2.14,2.22,1.71.92.39-.15,1.01-.17,1.44.02.2.09.11.41.3.59.25-.13.09-.38.32-.57.42.37.69.77.94,1.33v.02Z"/></svg>