<?xml version="1.0" encoding="UTF-8"?><svg xmlns="http://www.w3.org/2000/svg" viewBox="0 0 144 144"><defs><style>.cls-1{opacity:0;}.cls-2{fill:#252b1f;}.cls-3{fill:#5ca76b;}.cls-4{fill:#98cc9e;}</style></defs><g id="Layer_2"><rect class="cls-1" width="144" height="144"/></g><g id="Layer_1"><rect class="cls-1" x="0" width="144" height="144"/><polygon class="cls-2" points="72.27 13.1 16.28 53.78 37.67 119.59 106.87 119.59 128.26 53.78 72.27 13.1"/><polygon class="cls-3" points="104.55 35.07 104.55 23.98 72.27 .52 39.99 23.98 39.99 35.07 72 12.44 104.55 35.07"/><path class="cls-3" d="M124.91,54.52l-52.64-38.24L19.63,54.52l20.11,61.89h65.07s20.1-61.89,20.1-61.89ZM72.27,8.52l60.02,43.61-22.93,70.55H35.18S12.25,52.13,12.25,52.13L72.27,8.52Z"/><polygon class="cls-4" points="72.74 70.46 84.83 58.29 72.72 46.21 72.72 31.52 79 31.45 105.62 58.35 72.92 90.88 72.74 70.46"/><polygon class="cls-4" points="73.03 112.55 72.9 93.01 105.56 60.53 105.62 80.33 73.03 112.55"/><polygon class="cls-4" points="71.19 46.12 58.05 59.14 38.4 59.12 65.61 31.48 71.18 31.47 71.19 46.12"/><polygon class="cls-4" points="38.45 98.63 38.38 79.06 58.01 59.51 58.03 78.81 38.45 98.63"/></g></svg>