<?xml version="1.0" encoding="UTF-8"?><svg id="Layer_1" xmlns="http://www.w3.org/2000/svg" viewBox="0 0 144 144"><defs><style>.cls-1{opacity:0;}.cls-2{fill:#252b1f;}.cls-3{fill:#5ca76b;}.cls-4{fill:#98cc9e;}</style></defs><rect class="cls-1" width="144" height="144"/><polygon class="cls-2" points="134.38 108.58 72.01 20.15 9.62 108.58 134.38 108.58"/><polygon class="cls-4" points="87.47 59.78 72 37.85 56.53 59.78 87.47 59.78"/><rect class="cls-4" x="66.66" y="49.3" width="10.68" height="56.23"/><polygon class="cls-4" points="62.47 96.41 47 74.47 31.53 96.41 62.47 96.41"/><rect class="cls-4" x="41.66" y="85.92" width="10.68" height="20.23"/><polygon class="cls-4" points="112.47 96.41 97 74.47 81.53 96.41 112.47 96.41"/><rect class="cls-4" x="91.66" y="85.92" width="10.68" height="20.23"/><path class="cls-3" d="M97.01,48.75l43.1,62H3.89s43.11-62,43.11-62v-10S72.01,2.79,72.01,2.79l25,35.96v10ZM130.09,105.54L72.01,23.2,13.92,105.54h116.17Z"/></svg>