<?xml version="1.0" encoding="UTF-8"?><svg xmlns="http://www.w3.org/2000/svg" viewBox="0 0 144 144"><defs><style>.cls-1{fill:#c23d27;}.cls-2{opacity:0;}.cls-3{fill:#c68778;}.cls-4{fill:#2f1718;}</style></defs><g id="Layer_2"><rect class="cls-2" width="144" height="144"/></g><g id="Layer_1"><rect class="cls-2" x="0" width="144" height="144"/><polygon class="cls-4" points="72.27 130.84 128.26 90.16 106.87 24.34 37.67 24.34 16.28 90.16 72.27 130.84"/><polygon class="cls-1" points="39.99 108.86 39.99 119.96 72.27 143.41 104.55 119.96 104.55 108.86 72.54 131.49 39.99 108.86"/><path class="cls-1" d="M39.73,27.53l-20.1,61.88,52.64,38.25,52.64-38.25-20.11-61.88H39.73ZM72.27,135.42L12.25,91.81,35.18,21.25h74.18s22.93,70.56,22.93,70.56l-60.02,43.61Z"/><path class="cls-3" d="M71.54,89.11v20.42l-3.95,1.94-13.59-20.47,10.75-10.75,6.8,8.85h0Z"/><path class="cls-3" d="M54.98,72.58h-20.51l-1.94,3.79,20.48,13.72,10.67-10.72-8.69-6.8h0Z"/><path class="cls-3" d="M71.54,54.97v-20.5l-3.95-1.94-13.59,20.55,10.75,10.75,6.8-8.85h0Z"/><path class="cls-3" d="M55.07,71.44h-20.55l-1.96-3.79,20.45-13.72,10.75,10.72-8.69,6.8h0Z"/><path class="cls-3" d="M72.52,89.11v20.42l3.87,1.94,13.65-20.47-10.73-10.75-6.8,8.85Z"/><path class="cls-3" d="M89.02,72.45h20.51l1.94,3.95-20.48,13.64-10.67-10.8,8.69-6.8h0Z"/><path class="cls-3" d="M72.52,54.97v-20.5l3.87-1.94,13.65,20.55-10.73,10.75-6.8-8.85Z"/><path class="cls-3" d="M88.93,71.57h20.55l1.96-3.95-20.45-13.64-10.75,10.8,8.69,6.8h0Z"/><path class="cls-3" d="M72.03,81.14c-4.75,0-8.6-3.85-8.6-8.6s3.85-8.6,8.6-8.6,8.6,3.85,8.6,8.6h0c0,4.74-3.85,8.59-8.6,8.6h0ZM72.03,65.53c-3.88,0-7.02,3.14-7.02,7.02s3.14,7.02,7.02,7.02,7.02-3.14,7.02-7.02h0c0-3.88-3.14-7.02-7.02-7.02h0Z"/><path class="cls-3" d="M71.19,69.62v1.55l-1.25,1.23h-1.6v-.62l2.84-2.16h0Z"/><path class="cls-3" d="M71.19,75.19v-1.55l-1.25-1.23h-1.6v.62l2.84,2.17Z"/><path class="cls-3" d="M72.74,69.62v1.55l1.25,1.23h1.6v-.62l-2.84-2.16h0Z"/><path class="cls-3" d="M72.74,75.19v-1.55l1.25-1.23h1.6v.62l-2.84,2.17Z"/><path class="cls-3" d="M72.74,72.56c0,.43-.35.77-.77.77s-.77-.35-.77-.77.35-.77.77-.77.77.35.77.77Z"/></g></svg>