<?xml version="1.0" encoding="UTF-8"?><svg xmlns="http://www.w3.org/2000/svg" viewBox="0 0 144 144"><defs><style>.cls-1{fill:#fff;}.cls-2{fill:#c23d27;}.cls-3{opacity:0;}.cls-4{fill:#c68778;}.cls-5{fill:#2f1718;}</style></defs><g id="Layer_2"><rect class="cls-3" width="144" height="144"/></g><g id="Layer_1"><rect class="cls-3" x="0" width="144" height="144"/><rect class="cls-1" x="0" width="144" height="144"/><polygon class="cls-5" points="13.54 41.91 71.98 124.77 130.44 41.91 13.54 41.91"/><polygon class="cls-4" points="56.53 88.22 72 110.15 87.47 88.22 56.53 88.22"/><rect class="cls-4" x="66.66" y="42.47" width="10.68" height="56.23"/><polygon class="cls-4" points="81.53 51.59 97 73.53 112.47 51.59 81.53 51.59"/><rect class="cls-4" x="91.66" y="41.85" width="10.68" height="20.23"/><polygon class="cls-4" points="31.53 51.59 47 73.53 62.47 51.59 31.53 51.59"/><rect class="cls-4" x="41.66" y="41.85" width="10.68" height="20.23"/><path class="cls-2" d="M48.56,97.98L8.18,39.89h127.62s-40.39,58.09-40.39,58.09v9.37s-23.42,33.69-23.42,33.69l-23.42-33.69v-9.37ZM17.56,44.77l54.42,77.15,54.43-77.15H17.56Z"/></g></svg>