<?xml version="1.0" encoding="UTF-8"?><svg xmlns="http://www.w3.org/2000/svg" viewBox="0 0 144 144"><defs><style>.cls-1{fill:#fff;}.cls-2{fill:#d3ad71;}.cls-3{fill:#99742b;}.cls-4{opacity:0;}.cls-5{fill:#382915;}</style></defs><g id="Layer_2"><rect class="cls-4" x="0" y="0" width="144" height="144"/></g><g id="Layer_1"><rect class="cls-4" x="0" y="0" width="144" height="144" transform="translate(0 144) rotate(-90)"/><rect class="cls-1" x="0" y="0" width="144" height="144" transform="translate(0 144) rotate(-90)"/><polygon class="cls-5" points="41.91 130.46 124.77 72.02 41.91 13.56 41.91 130.46"/><polygon class="cls-2" points="88.22 87.47 110.15 72 88.22 56.53 88.22 87.47"/><rect class="cls-2" x="42.47" y="66.66" width="56.23" height="10.68"/><polygon class="cls-2" points="51.59 62.47 73.53 47 51.59 31.53 51.59 62.47"/><rect class="cls-2" x="41.85" y="41.66" width="20.23" height="10.68"/><polygon class="cls-2" points="51.59 112.47 73.53 97 51.59 81.53 51.59 112.47"/><rect class="cls-2" x="41.85" y="91.66" width="20.23" height="10.68"/><path class="cls-3" d="M97.98,95.44l-58.09,40.38V8.2s58.09,40.39,58.09,40.39h9.37s33.69,23.42,33.69,23.42l-33.69,23.42h-9.37ZM44.77,126.44l77.15-54.42L44.77,17.59v108.85Z"/></g></svg>