<?xml version="1.0" encoding="UTF-8"?><svg id="Layer_1" xmlns="http://www.w3.org/2000/svg" viewBox="0 0 144 144"><defs><style>.cls-1{fill:#d3ad71;}.cls-2{fill:#99742b;}.cls-3{opacity:0;}.cls-4{fill:#382915;}</style></defs><rect class="cls-3" x="0" y="0" width="144" height="144" transform="translate(144 0) rotate(90)"/><polygon class="cls-4" points="35.42 134.38 123.85 72.01 35.42 9.62 35.42 134.38"/><polygon class="cls-1" points="84.22 87.47 106.15 72 84.22 56.53 84.22 87.47"/><rect class="cls-1" x="38.47" y="66.66" width="56.23" height="10.68"/><polygon class="cls-1" points="47.59 62.47 69.53 47 47.59 31.53 47.59 62.47"/><rect class="cls-1" x="37.85" y="41.66" width="20.23" height="10.68"/><polygon class="cls-1" points="47.59 112.47 69.53 97 47.59 81.53 47.59 112.47"/><rect class="cls-1" x="37.85" y="91.66" width="20.23" height="10.68"/><path class="cls-2" d="M95.25,97.01l-62,43.1V3.9s62,43.11,62,43.11h10s35.96,25,35.96,25l-35.96,25h-10ZM38.46,130.09l82.34-58.08L38.46,13.92v116.17Z"/></svg>