<?xml version="1.0" encoding="UTF-8"?><svg xmlns="http://www.w3.org/2000/svg" viewBox="0 0 144 144"><defs><style>.cls-1{opacity:0;}.cls-2{fill:#252b1f;}.cls-3{fill:#5ca76b;}.cls-4{fill:#98cc9e;}</style></defs><g id="Layer_2"><rect class="cls-1" width="144" height="144"/></g><g id="Layer_1"><rect class="cls-1" x="0" width="144" height="144"/><polygon class="cls-2" points="72.27 13.1 16.28 53.78 37.67 119.59 106.87 119.59 128.26 53.78 72.27 13.1"/><polygon class="cls-3" points="104.55 35.07 104.55 23.98 72.27 .52 39.99 23.98 39.99 35.07 72 12.44 104.55 35.07"/><path class="cls-3" d="M124.91,54.52l-52.64-38.24L19.63,54.52l20.11,61.89h65.07s20.1-61.89,20.1-61.89ZM72.27,8.52l60.02,43.61-22.93,70.55H35.18S12.25,52.13,12.25,52.13L72.27,8.52Z"/><path class="cls-4" d="M71.55,30.95c-21.42,0-27.51,22.78-27.51,22.78v47.6l18.04,11.73h4.06v-29.1l-12.06-9.03c-1.71-2.61-2.19-8.87,0-11.06h14.55v15.79h7.55v-15.67h12.86c2.81,1.91,2.22,8.61,1.02,10.7l-11.73,9.93v28.42h3.95l17.7-12.3v-47.37s-5.41-22.44-28.42-22.44h0Z"/></g></svg>