<?xml version="1.0" encoding="UTF-8"?><svg id="Layer_1" xmlns="http://www.w3.org/2000/svg" viewBox="0 0 144 144"><defs><style>.cls-1{fill:#c23d27;}.cls-2{opacity:0;}.cls-3{fill:#c68778;}.cls-4{fill:#2f1718;}</style></defs><rect class="cls-2" width="144" height="144" transform="translate(144 144) rotate(180)"/><polygon class="cls-4" points="9.62 35.42 71.99 123.85 134.38 35.42 9.62 35.42"/><polygon class="cls-3" points="56.53 84.22 72 106.15 87.47 84.22 56.53 84.22"/><rect class="cls-3" x="66.66" y="38.47" width="10.68" height="56.23"/><polygon class="cls-3" points="81.53 47.59 97 69.53 112.47 47.59 81.53 47.59"/><rect class="cls-3" x="91.66" y="37.85" width="10.68" height="20.23"/><polygon class="cls-3" points="31.53 47.59 47 69.53 62.47 47.59 31.53 47.59"/><rect class="cls-3" x="41.66" y="37.85" width="10.68" height="20.23"/><path class="cls-1" d="M46.99,95.25L3.89,33.25h136.21s-43.11,62-43.11,62v10s-25,35.96-25,35.96l-25-35.96v-10ZM13.91,38.46l58.08,82.34,58.09-82.34H13.91Z"/></svg>