<?xml version="1.0" encoding="UTF-8"?><svg id="Layer_1" xmlns="http://www.w3.org/2000/svg" viewBox="0 0 144 144"><defs><style>.cls-1{fill:#487ea2;}.cls-2{fill:#86b2cd;}.cls-3{opacity:0;}.cls-4{fill:#1f3b47;}</style></defs><rect class="cls-3" width="144" height="144"/><polygon class="cls-4" points="131.14 71.97 90.46 15.98 24.64 37.37 24.64 106.57 90.46 127.96 131.14 71.97"/><polygon class="cls-1" points="109.17 104.25 120.26 104.25 143.71 71.97 120.26 39.68 109.17 39.68 131.8 71.7 109.17 104.25"/><path class="cls-1" d="M92.1,11.95l43.61,60.02-43.61,60.02-70.55-22.93V34.88S92.1,11.95,92.1,11.95ZM89.71,19.33l-61.89,20.11v65.07s61.89,20.1,61.89,20.1l38.24-52.64-38.24-52.64Z"/><polygon class="cls-2" points="109.53 72.45 111.47 76.4 90.99 90.04 80.32 79.24 89.01 72.44 89.02 72.45 109.53 72.45"/><polygon class="cls-2" points="111.44 67.62 109.48 71.57 88.93 71.57 88.93 71.58 82.81 66.79 93.77 55.83 111.44 67.62"/><polygon class="cls-2" points="79.31 80.25 90.04 91 76.39 111.47 72.52 109.53 72.52 89.11 72.51 89.1 79.31 80.25"/><polygon class="cls-2" points="76.39 32.53 88.19 50.3 77.29 61.2 72.51 54.98 72.52 54.97 72.52 34.47 76.39 32.53"/><path class="cls-2" d="M80.09,69.52c.35.94.54,1.96.54,3.02,0,2.37-.96,4.52-2.52,6.07-1.55,1.56-3.71,2.52-6.08,2.53-1.06,0-2.08-.19-3.02-.54l1.25-1.26c.56.15,1.16.23,1.77.23,3.88,0,7.02-3.14,7.02-7.02l-.23-1.77,1.27-1.26Z"/><polygon class="cls-2" points="71.55 54.98 64.75 63.83 64.67 63.75 54 53.08 67.59 32.53 71.54 34.47 71.54 54.97 71.55 54.98"/><polygon class="cls-2" points="66.75 82.85 71.55 89.1 71.54 89.11 71.54 109.53 67.59 111.47 55.84 93.76 66.75 82.85"/><path class="cls-2" d="M72.03,65.53c-3.88,0-7.02,3.14-7.02,7.02,0,.29.02.58.06.87l-1.35,1.35c-.19-.71-.29-1.46-.29-2.23,0-4.75,3.85-8.6,8.6-8.6.77,0,1.52.1,2.23.29l-1.36,1.36c-.28-.04-.57-.06-.87-.06Z"/><polygon class="cls-2" points="63.76 64.65 55.07 71.45 55.07 71.44 34.52 71.44 32.56 67.65 53.01 53.93 63.76 64.65"/><polygon class="cls-2" points="54.99 72.57 61.12 77.37 50.25 88.24 32.53 76.37 34.47 72.58 54.98 72.58 54.99 72.57"/></svg>