<?xml version="1.0" encoding="UTF-8"?><svg xmlns="http://www.w3.org/2000/svg" viewBox="0 0 144 144"><defs><style>.cls-1{opacity:0;}.cls-2{fill:#252b1f;}.cls-3{fill:#5ca76b;}.cls-4{fill:#98cc9e;}</style></defs><g id="Layer_2"><rect class="cls-1" width="144" height="144"/></g><g id="Layer_1"><rect class="cls-1" x="0" width="144" height="144"/><polygon class="cls-2" points="72.27 13.1 16.28 53.78 37.67 119.59 106.87 119.59 128.26 53.78 72.27 13.1"/><polygon class="cls-3" points="104.55 35.07 104.55 23.98 72.27 .52 39.99 23.98 39.99 35.07 72 12.44 104.55 35.07"/><path class="cls-3" d="M124.91,54.52l-52.64-38.24L19.63,54.52l20.11,61.89h65.07s20.1-61.89,20.1-61.89ZM72.27,8.52l60.02,43.61-22.93,70.55H35.18S12.25,52.13,12.25,52.13L72.27,8.52Z"/><path class="cls-4" d="M71.54,89.11v20.42l-3.95,1.94-13.59-20.47,10.75-10.75,6.8,8.85h0Z"/><path class="cls-4" d="M54.98,72.58h-20.51l-1.94,3.79,20.48,13.72,10.67-10.72-8.69-6.8h0Z"/><path class="cls-4" d="M71.54,54.97v-20.5l-3.95-1.94-13.59,20.55,10.75,10.75,6.8-8.85h0Z"/><path class="cls-4" d="M55.07,71.44h-20.55l-1.96-3.79,20.45-13.72,10.75,10.72-8.69,6.8h0Z"/><path class="cls-4" d="M72.52,89.11v20.42l3.87,1.94,13.65-20.47-10.73-10.75-6.8,8.85Z"/><path class="cls-4" d="M89.02,72.45h20.51l1.94,3.95-20.48,13.64-10.67-10.8,8.69-6.8h0Z"/><path class="cls-4" d="M72.52,54.97v-20.5l3.87-1.94,13.65,20.55-10.73,10.75-6.8-8.85Z"/><path class="cls-4" d="M88.93,71.57h20.55l1.96-3.95-20.45-13.64-10.75,10.8,8.69,6.8h0Z"/><path class="cls-4" d="M72.03,81.14c-4.75,0-8.6-3.85-8.6-8.6s3.85-8.6,8.6-8.6,8.6,3.85,8.6,8.6h0c0,4.74-3.85,8.59-8.6,8.6h0ZM72.03,65.53c-3.88,0-7.02,3.14-7.02,7.02s3.14,7.02,7.02,7.02,7.02-3.14,7.02-7.02h0c0-3.88-3.14-7.02-7.02-7.02h0Z"/><path class="cls-4" d="M71.19,69.62v1.55l-1.25,1.23h-1.6v-.62l2.84-2.16h0Z"/><path class="cls-4" d="M71.19,75.19v-1.55l-1.25-1.23h-1.6v.62l2.84,2.17Z"/><path class="cls-4" d="M72.74,69.62v1.55l1.25,1.23h1.6v-.62l-2.84-2.16h0Z"/><path class="cls-4" d="M72.74,75.19v-1.55l1.25-1.23h1.6v.62l-2.84,2.17Z"/><path class="cls-4" d="M72.74,72.56c0,.43-.35.77-.77.77s-.77-.35-.77-.77.35-.77.77-.77.77.35.77.77Z"/></g></svg>