<?xml version="1.0" encoding="UTF-8"?><svg xmlns="http://www.w3.org/2000/svg" viewBox="0 0 144 144"><defs><style>.cls-1{fill:#d3ad71;}.cls-2{fill:#99742b;}.cls-3{opacity:0;}.cls-4{fill:#382915;}</style></defs><g id="Layer_2"><rect class="cls-3" width="144" height="144"/></g><g id="Layer_1"><rect class="cls-3" x="0" width="144" height="144"/><polygon class="cls-4" points="131.14 71.97 90.46 15.98 24.64 37.37 24.64 106.57 90.46 127.96 131.14 71.97"/><polygon class="cls-2" points="109.17 104.25 120.26 104.25 143.71 71.97 120.26 39.68 109.17 39.68 131.8 71.7 109.17 104.25"/><path class="cls-2" d="M92.11,131.99l-70.56-22.92V34.88S92.11,11.95,92.11,11.95l43.6,60.02-43.6,60.02ZM27.83,104.51l61.88,20.11,38.25-52.65-38.25-52.64-61.88,20.11v65.07Z"/><path class="cls-1" d="M71.55,30.95c-21.42,0-27.51,22.78-27.51,22.78v47.6l18.04,11.73h4.06v-29.1l-12.06-9.03c-1.71-2.61-2.19-8.87,0-11.06h14.55v15.79h7.55v-15.67h12.86c2.81,1.91,2.22,8.61,1.02,10.7l-11.73,9.93v28.42h3.95l17.7-12.3v-47.37s-5.41-22.44-28.42-22.44h0Z"/></g></svg>