<?xml version="1.0" encoding="UTF-8"?><svg xmlns="http://www.w3.org/2000/svg" viewBox="0 0 144 144"><defs><style>.cls-1{opacity:0;}.cls-2{fill:#252b1f;}.cls-3{fill:#5ca76b;}.cls-4{fill:#98cc9e;}</style></defs><g id="Layer_2"><rect class="cls-1" width="144" height="144"/></g><g id="Layer_1"><rect class="cls-1" x="0" width="144" height="144"/><polygon class="cls-2" points="72.27 13.1 16.28 53.78 37.67 119.59 106.87 119.59 128.26 53.78 72.27 13.1"/><polygon class="cls-3" points="104.55 35.07 104.55 23.98 72.27 .52 39.99 23.98 39.99 35.07 72 12.44 104.55 35.07"/><path class="cls-3" d="M124.91,54.52l-52.64-38.24L19.63,54.52l20.11,61.89h65.07s20.1-61.89,20.1-61.89ZM72.27,8.52l60.02,43.61-22.93,70.55H35.18S12.25,52.13,12.25,52.13L72.27,8.52Z"/><path class="cls-4" d="M97.16,67.12c-.21.82-.84,1.3-1.8,1.47-.62.11-.9,1.12-1.57.67l2.72-1.97c-.62-.44-.94-.65-.94-.65.88-.93.72-1.94-.66-1.81-1.19-2.68-3.36-.1-4.55,1.4-.19-.06-2.37-2.41-2.13-3.07.22-.62.41-.99,1.11-.74,1.24-.8.77-1.94-.24-1.23-1.34-2.01.29-1.33-2.5-3.29.14-.55.57-1,.8-1.47.21-.45-.28-1.06-.17-1.59.07-.32.59-.33.79-.38.29-.36.73-.34,1.05-.12.36-.1.62-.25.79-.46l-.15-.44c.66-.47.65-1.57,0-2.04.13-.19,0-.54.08-.75.16-.38.18-.83.25-1.16.17-.74-.55-.78-.9-1.27-.02-.03-.04-.06-.05-.09-.13-.35.21-.9.29-1.17-.17-.03-.31-.03-.41.01-.16-.03-.29-.1-.28-.29.03-.66.31-1.08.39-1.52-.68-.48-.58-1.34-.84-2.3-.02.02-.04.05-.06.07h0s0,0,0,.01c-.3.39-.13.88-.42,1.21-1.02-.66-.16-2.88.09-3.65.06-.18.08-.28.04-.25.13-.09.41.18.5.33-.1.89,1.22.89,1.48,1.64.41,1.19.93,6.16,1.89,2.71-.85-.61-.86-1.8-1.36-2.73-.03-.07-.05-.13-.08-.19-.15-.49-.05-1.15-.61-1.44-.05-.68.17-1.5-.3-2.12-.34-.45-.97-.83-1.22-1.43-.14-.34.72-3.14-.12-3.93-.53-.5-1.56-.61-2.09-.41-.61-1.33-1.86-2.17-3.42-2.46-.19.17-.14.54-.19.79-.93.05-1.39.95-2.09,1.38-.67.41-.67,1.01-.87,1.66-.05.1-.1.23-.16.41-.09,0-.2,0-.29,0-.22.64.2,1.22.24,2.08.02.43-.79.13-1.02.23l-.55.25c-.16.07-.36-.08-.45-.29.2-.22.42-.72.42-1,0-.29-.57-.32-.61-.77.5-.28.82.07,1.17.08l.37-.63c.14-.24.04-.6.18-.96.09-.22-.14-.56-.49-.64-.89-.21-1.38.84-2.07,1.27-2,1.24-.02,2.87.09,5.13-.21.33-.5.83-.26,1.02.36.29,1.04.5,1.59.19.61-.35-.05-1.11.23-1.58.68.3,1.31.75,2.07.76.06,1.45,1.58,1.79,2.86,2.28.78.3.64,1.63,1,2.37.14-.06.3-.58.56-.53.85.15.66,1.29,1.02,1.66.55.57.72.88.58,1.69-.23,1.28-.57,2.89-2.01,3.42-.3.11-.96-.59-.55-1.45-.15-.11-.18-.46-.35-.49-1.48.39-2.9-.27-3.82-1.27-.1.56-.69.77-1.06.74-.25-.02-.65-.68-.47-.85.5-.15,1.1.06,1.53.11.1-.11.29-.3.27-.42-.04.17-3.55-2.29-4.04-1.63-.1.37.41.47.73.9-.03.34-.7.35-1.11.19-.29-.11-.36-.48-.72-1.03-.65,1.78-2.39,2.66-4.13,3.09-.64.13-.65.38-.01.53.4.01.84.26.83.63-.02,1.26-1.78.36-2.93.49.04.25.55.51-.72,1.37.32.61-3.42,1.19-3.68,1.1-.52-.18-1-.55-1.42-.11h0s0,.01,0,.02c0,0,0,0,0,0,0,0,0,0,0,.01.04.19.36.39.3.53-.51,1.05-1.34.08-2.33.11.08-.72.77-.52,1.17-.61.07-.02.14-.04.18-.09.55-.5,1.33-.7,1.75-1.33.33.02.76.02.97-.31-.03-.02-.05-.04-.08-.06-.72-.61-.81-1.87-.47-2.84.09-.26.47-.38.73-.42.05,0,.1,0,.16,0,.59.02,1.68.39,2.35.35.52-.03.92.16,1.18.96l.64-.67c.79.05.91-.12.42-.56-.05-.05-.12-.1-.18-.16-.53-.94-1.23-1.77-2.12-2.41-.73.19.06.85-.05,1.34.1.32-.06.68-.56.73-.66.07-1.2.06-1.69,0l-.76-.1c-.44-.06-.91.29-1.31.42-.34.37-.65,1.07-.57,1.64,0,0,0,0,0,0,0,.02,0,.04,0,.06l-.48-.38c-.32-.61-.26-1.77.1-2.16.21-.22.16-.52,0-.77-.87-.43-1.69-.37-2.59-.26-.8.1-1.59.03-2.24.8.58.15.92.21,1.25.4-.16.63-.56.97-1.25,1.21.55.44,1.38.15.89.51-.69.5-.01,1.35-.35,2.04-.77,1.57-2.36.57-2.56,2.01.14.75.78,1.37.61,2.16-.05.25.03.45.28.41-.17.05-.2.11-.09.18.06-.06.12-.13.19-.21.34-.23.68-.24.97-.19.71.12,1.61,2.27,1.62,2.23-.06.33-.68.5-.86.83.57.03,1.18-.1,1.69.21-.22.29-.59.52-.52.66.11.22.53.02.87.4-.65.3-1.39.39-2.09.58-.4.1-.84.1-1.24.23-.09.03-.17.13-.26.19-.09,0-.18.02-.27.03h0s0,0,0,0c-.11-.07-.21-.2-.42-.53-.2.51-.35,1.05-.86,1.32-.02.14.07.38.27.34.76-.75,1.66-1,2.53-.84.07.02.15.04.24.05.27.06.57-.04,1.09.25l-1.03.92c.63.55,1.28-.03,1.76.65-1.61-.06-2.6.37-3.12,1.75-.12.31-.56.45-.69.64-.21-.05-.37.01-.49.19-.08.11-.14.28-.18.49.05.36-.34.64-.35.95-2.02.64-2.18,1.45-1.99,3.59-.44,1.51-.93,3.88.96,4.46.28.38.48,1.57.55,2.04.26,1.77,4.17-.21,2.84-1.56.48-1,3.61-2.27,4.84-3.31.08,1.36-1.89,2.03-3.14,2.66l.73.61c-.77.19-1.4.28-1.45,1.08,1.92,1.13,2.07,0,4.48-.7-2.41,2.38.39,3.42,2.84,3.19.15-.01.3-.03.45-.06-.01.24-.01.47,0,.69.13,1.8,1.23,2.75,3.04,1.46l.9.26c3.21-.5,6.04-.03,8.87,1.53.01,0,.06-.11.13-.26,1.08,1.39,4.37,4.64,4.81,1.63-2.32-2.3-2.73-3.04-1.25-2.23l.82-.3c.56-1.25,1.41-2.17,2.55-2.76.61,2.58,4.26,2.54,6.17,1.68.08-1.81.04-3.63-.13-5.48.73-.32,1.7.02,2.07-1.04-.97.12-1.63.55-2.41.39,1.15-.06,1.31-1.15,1.27-2.21,0,0,1.45-.64,4.34-1.92,1.51-.58,2.4-3.38.49-2.59ZM87.5,45.28c.28.34.24.64.49.7.09.17.23.38.26.54.01.07,0,.14,0,.2-.06.21-.29.32-.54.2,0,0,0,0-.01,0-.41-.3-.44-1.28-.2-1.64ZM59.25,56.37c-2.72,1.26,4.59-2.88,4.59-2.88-.13.41-.23.55-.22.71.01.22.36.12.72.07-.23.63.77.88.81,1.25.07.68-1.06,1.68-2.22,1.11.45-.31,1.15-.19,1.73-1.08-3.08-.39-1.27,2.37-5.41.81ZM65.13,73.67c-.16.29-.73.11-.89.13.56-.57.34-1.59,1.02-2.04,0,.05,0,.1-.01.14,0,0,0,0,0-.01,0,.09-.02.18-.03.26.01-.08.02-.16.03-.25-.03.55.21,1.2-.11,1.76ZM74.54,74.4c-2.44.39-2.58-2.82-6.22-.7-.78.45-2.01.12-2.42-.54.04-.46.04-.93.03-1.39-.02-.74.27-1.43.37-2.15-1.13.28-1.62,1.13-2.99,1.82-.02-1.09-1.1-1.1-1.66-1.47-.05-.04-.11-.09-.16-.14-.79-.85-1.71-.6-2.89-.62-.24-.49.56-.97.56-1.34-.4-.67-1.01-.3-1.28.05-.25.32-.34.74-.21,1.16-.82-.12-.93.85-2.19,1.14.75-5.17,2.95-7.37,8.05-7.74.03-.35-.08-.6,0-.67-.11.11,3.16-.3,3.3,3,.05,1.23-.02,2.42.55,3.49,1.21-1.07,2.78-2.71,4.67-1.94,3.79,1.53,4.45,7.72,2.51,8.03ZM82.62,31.62c.71-.4,1.78-.97,2.37.13.27.5-.52.96-.74,1.28-.18-.06-.4,0-.59-.04-.02,0-.03,0-.05-.01l-2.35-.76h-.05c.42-.37.97-.36,1.41-.6ZM79.84,33.57c0-.33.4-.56.73-.82l3.03.62c.54.39.29,1.05.36,1.63-.3.09-.53.37-.82.49-.63.39-1.07-.56-1.84-.39-.3.06-.57.16-.79.08-.2-.07-.25-.32-.37-.48.08-.27.38-.19.74-.47-.41-.11-1.06.07-1.05-.65ZM78.13,38.44c-.29-.77.93-.73,1.54-.52.04.04.09.06.16.06v.78c-.6.02-1.15-.15-1.7-.32ZM82.63,37.4c.51.57,1,.62,1.75,1.56-.87.14-1.9-.42-1.75-1.56ZM84.62,34.86c.25-.38.68-.83.24-1.23.16-.34.34-.66.68-.99.21.32.06.54.09.74.18.46,1.1,1.08.56,1.56-.34.15-1.14-.37-1.57-.09ZM86.89,72.36l-.9-1.71c-.75.48-.43,2.13-1.5,2.12-.17,0-.34-.19-.34-.49,0-.36.66-.49.74-.99.01-.09-.2-.11-.28-.16-.22-.09-.39-.08-.54,0-.37.17-.58.72-.9.92-1.32.8-2.92.18-3.96-.62-.71-.55-1.82-.68-2.41-1.6.1.13-1.92-5.99,2.14-7.77.27-.12.74-.07.76.1.01.11-.02.31,0,.65,2.16.24,4.69.73,6.26,2.54,3.06,3.53,1.55,1.89,2.79,5.62-.97.19-1.39.64-1.83,1.42Z"/><path class="cls-4" d="M96.74,70.94c-1.01.5-1.21,1.18-1.96,1.36,1.11.55,1.88-.4,1.96-1.36Z"/><path class="cls-4" d="M90.87,47.13c.03.16.19.34.27.54.5-.27,2.07.95,1.51-.12-.45-.12-.69-.61-1.25-.88-.35-.17-.59.25-.54.46Z"/><path class="cls-4" d="M89.8,60.58c.05-.33.41-1.4-.12-1.47-.79-.11-.34,1.04-.4,1.46h.52Z"/><path class="cls-4" d="M89.1,61.19c-.01-.05-.03-.1-.04-.15,0,.05,0,.1.04.15Z"/><path class="cls-4" d="M87.91,31.88c.3.12.53.51.9.35.27-.12.27-.69.11-.87-.15-.16-.43-.63-.75-.39-.46.35-.5.8-.26.9Z"/><path class="cls-4" d="M87.22,93.35c-.13.39.75.69,1.32.24.38-.3.07-.44.06-1.35-.41-.04-1.16.44-1.38,1.11Z"/><path class="cls-4" d="M87.58,89.68c-.09.26.33.47.86.51.03-.6-.12-1.1.1-1.7-.56.86-.83.81-.96,1.19Z"/><path class="cls-4" d="M85.68,89.44c-.02,1.11-1.04.93-1.52,1.83.9.05,1.56-.69,2.27-1.06-.34-.6-.52-.85-.75-.77Z"/><path class="cls-4" d="M84.42,100.63c.57-.81.98-2.11.31-2.42.15-.62.48-1.76-.04-2.18-.57-.46-1.16.43-1.49.42-.79-.03-1.24-1.18-1.66-1.94-1.5.49-2.09,1.84-1.64,3.42-2.66-.94-1.37,1.16-3.63,3.47-.41.42-.71.61-.35,1.01.18.2.9.5,1.1.15.52-.9,1.49-.57,1.98-.9.67-.45.8-1.93,2.03-1.8-1.06,2.33-3.01,3.53-4.83,4.94-.31.24-.26.84-.63.93-.3.07-.87-.34-1.13-.23-2.8,1.2-1.53-.74-3.83.24.15.36.1,1.01.61,1.05,3.38.27.31-.53,3.91-.08,1.77-.66,2.92-2.61,4.58-3.49.93-.49,1.25-1.12,1.93-2.1.43,2.47-1.12,4.47-2.99,5.76-.6.41-.71,1.33-1.41,1.69l-6.01,3.11c2.07.82,3.87.1,5.55-.53.59-.63,1.42-1.03,1.75-2.07.3-.93,3.47-4.97,4.32-5.07.1-.55.36-1.07.73-1.48.14-.15.15-.21.29,0,.33-.45.98-.23,1.43-.47l.06-.76-.48-.05c-.13-.34-.29-.54-.45-.61ZM81.27,99.38c-.33-.91-.51-1.76.08-2.53.64.71.62,1.71-.08,2.53Z"/><path class="cls-4" d="M84.65,87.11c-.58-.11-1.2.18-1.33.5-.15.37-.17,1,.19,1.18.53-.86.74-1.19,1.14-1.67Z"/><path class="cls-4" d="M79.35,92.34c.98-.05,1.16-1.18,1.42-1.61-.67-.03-1.06.18-1.44.39-.38.21-.83,1.27.02,1.22Z"/><path class="cls-4" d="M80.57,32.76s0,.06.01.09c0-.03,0-.06-.01-.09Z"/><path class="cls-4" d="M79.39,46.79s.01.02.02.04c0,0,0-.02-.02-.04Z"/><path class="cls-4" d="M75.38,112.48c.94,0,1.55-.5,2.19-.93-.05-.41-.58-.48-.79-.4-.43.46-.83.8-1.4,1.33Z"/><path class="cls-4" d="M75.13,36.06c-1.21.59-1.1,1.85-.44,2.8.03-1.09.21-1.76.44-2.8Z"/><path class="cls-4" d="M73.61,104.11c.58-.11,1.16-.46.75-.8-.49-.42-1.59-.14-1.91.35-.23.36.58.56,1.16.45Z"/><path class="cls-4" d="M72.29,104.79c-.81-.7-1.68-.56-2.4-.75-.05-.02-.12-.04-.19-.06-.15-1.48-4.06.66-5.15-3.32-.09-.33-.29-.66-.63-.82-.19-.09-.41.28-.77.38-.4.11-.4-.48-.78-.91-.34.44-.61,1.87-.06,2.39,3.4,2.41,3.75,1.79,7.38,2.68v.34c.87-.34,1.57.64,2.61.08Z"/><path class="cls-4" d="M67.12,93.51c.56-.45.54-.61.19-.88-.97-.77-.04.23-1.4,1.46.62.35.79-.24,1.21-.58Z"/><path class="cls-4" d="M67.3,51.37c-.01-.08-.03-.15-.05-.22,0,.07.03.14.05.22Z"/><path class="cls-4" d="M65.26,71.76s-.01.09-.01.13c0-.04,0-.09.01-.13Z"/><path class="cls-4" d="M64.97,50.53c.42-.6.91-1.14,1.41-1.66l.21-.53c-.26-.01-1.23-.16-1.31.24-.18.85-.77,1.34-1.04,2.12.24,0,.5-.19.73-.17Z"/><path class="cls-4" d="M57.91,44.17c.39.26.83-.03,1.44-.43.38-.25-.16-.79-.43-.85-.28-.06-1.01-.05-1.02.22-.01.25-.24.88.02,1.05Z"/><path class="cls-4" d="M53.23,63.22s.05,0,.07,0c-.02,0-.05,0-.07,0Z"/></g></svg>