<?xml version="1.0" encoding="UTF-8"?><svg id="Layer_1" xmlns="http://www.w3.org/2000/svg" viewBox="0 0 144 144"><defs><style>.cls-1{fill:#487ea2;}.cls-2{fill:#86b2cd;}.cls-3{opacity:0;}.cls-4{fill:#1f3b47;}</style></defs><rect class="cls-3" width="144" height="144"/><polygon class="cls-4" points="130.8 72.3 90.13 16.32 24.31 37.7 24.31 106.91 90.13 128.29 130.8 72.3"/><polygon class="cls-1" points="108.83 104.59 119.92 104.59 143.38 72.3 119.92 40.02 108.83 40.02 131.46 72.03 108.83 104.59"/><path class="cls-1" d="M91.77,132.32l-70.55-22.93V35.21S91.77,12.28,91.77,12.28l43.61,60.02-43.61,60.02ZM27.49,104.84l61.89,20.1,38.24-52.64-38.24-52.64-61.89,20.11v65.07Z"/><polygon class="cls-2" points="109.53 72.45 111.47 76.4 90.99 90.04 80.32 79.24 89.01 72.44 89.02 72.45 109.53 72.45"/><polygon class="cls-2" points="111.44 67.62 109.48 71.57 88.93 71.57 88.93 71.58 82.81 66.79 93.77 55.83 111.44 67.62"/><polygon class="cls-2" points="79.31 80.25 90.04 91 76.39 111.47 72.52 109.53 72.52 89.11 72.51 89.1 79.31 80.25"/><path class="cls-2" d="M80.09,69.52c.35.94.54,1.96.54,3.02,0,2.37-.96,4.52-2.52,6.07-1.55,1.56-3.71,2.52-6.08,2.53-1.06,0-2.08-.19-3.02-.54l1.25-1.26c.56.15,1.16.23,1.77.23,3.88,0,7.02-3.14,7.02-7.02l-.23-1.77,1.27-1.26Z"/><polygon class="cls-2" points="71.55 54.98 64.75 63.83 64.67 63.75 54 53.08 67.59 32.53 71.54 34.47 71.54 54.97 71.55 54.98"/><polygon class="cls-2" points="66.75 82.85 71.55 89.1 71.54 89.11 71.54 109.53 67.59 111.47 55.84 93.76 66.75 82.85"/><polygon class="cls-2" points="63.76 64.65 55.07 71.45 55.07 71.44 34.52 71.44 32.56 67.65 53.01 53.93 63.76 64.65"/><path class="cls-2" d="M96.14,42.17l-8.02,8.02-11.73-17.66-3.87,1.94v20.5h0s4.7,6.13,4.7,6.13l-3.1,3.1c-.66-.17-1.36-.26-2.08-.26-4.75,0-8.6,3.85-8.6,8.6,0,.72.09,1.42.26,2.08l-2.67,2.67-6.03-4.72h-.01s-20.51.01-20.51.01l-1.94,3.79,17.61,11.8-7.49,7.49,2.7,2.7,53.49-53.49-2.7-2.7ZM65.05,73.26c-.03-.24-.04-.47-.04-.71,0-3.88,3.14-7.02,7.02-7.02.24,0,.48.01.71.04l-7.69,7.69Z"/></svg>