<?xml version="1.0" encoding="UTF-8"?><svg id="Layer_1" xmlns="http://www.w3.org/2000/svg" viewBox="0 0 144 144"><defs><style>.cls-1{fill:#487ea2;}.cls-2{fill:#86b2cd;}.cls-3{opacity:0;}.cls-4{fill:#1f3b47;}</style></defs><rect class="cls-3" width="144" height="144"/><polygon class="cls-4" points="131.14 71.97 90.46 15.98 24.64 37.37 24.64 106.57 90.46 127.96 131.14 71.97"/><polygon class="cls-1" points="109.17 104.25 120.26 104.25 143.71 71.97 120.26 39.68 109.17 39.68 131.8 71.7 109.17 104.25"/><path class="cls-1" d="M92.1,11.95l43.61,60.02-43.61,60.02-70.55-22.93V34.88S92.1,11.95,92.1,11.95ZM89.71,19.33l-61.89,20.11v65.07s61.89,20.1,61.89,20.1l38.24-52.64-38.24-52.64Z"/><path class="cls-2" d="M105.68,53.34l-8.25-4.62c1.07-1.22,1.1-1.86,1.96-1.39l8.23,4.6c.29.16.41.37.41.77v38.72c0,.47-.29.81-.64,1.01l-8.28,4.6c-.42-.32-.91-.68-1.07-1.14-.07-.2-.16-.28-.27-.36l7.91-4.43v-37.75Z"/><path class="cls-2" d="M98.16,74.26c.12.63-.09,1.69-.76,1.89-.39.11-1.01.06-1.49.04-.7-.02-1.06-.94-1.19-1.48l-.84-3.51c-.14-.57-.02-1.17.31-1.66.78.33,1.33.05,1.94-.37.46-.09,1,.71,1.12,1.18.34,1.34.65,2.54.92,3.91Z"/><path class="cls-2" d="M97.07,97.56c.18.15.27.3.23.49-.06.25-.34.11-.56.23l-23.39,13,.49-2.36,22.04-12.34,1.19.99Z"/><path class="cls-2" d="M74.33,33.46l22.9,12.69c-.47.74-1.15.94-1.69,1.39l-.09.07-22.11-12.38c.03-.14.08-.26.14-.33.12-.17.48.02.67-.11.43-.3.19-.88.18-1.34Z"/><path class="cls-2" d="M96.21,83.89c.17.39.15.87-.08,1.23l-2.1,3.42c-.25.41-.99,1.18-1.44.93-.52-.35-.91-.88-1.68-.85-.36-.34-.21-1.27.07-1.72l2.14-3.46c.22-.36.61-.64,1-.64.32.94,1.13,1.36,2.08,1.07Z"/><path class="cls-2" d="M92.92,60.49c.38.46.57,1.02.46,1.61-.83-.14-1.61.22-1.88,1.26-.82-.14-1.37-.85-1.92-1.49l-1.87-2.19c-.22-.25-.39-.73-.56-1.02.29-.74,1.44.29,1.98-1.69.44-.1.91.17,1.23.52.9.98,1.73,1.97,2.57,3Z"/><path class="cls-2" d="M88.31,95.84c-.07.45-.32.88-.68,1.17-1.2.97-3.76,3.44-5.04,2.87.15-.9-.21-1.39-.81-1.88-.27-.22.17-.82.39-1l2.99-2.44c.45-.36.97-.63,1.53-.61.06.53.02.99.36,1.36.26.29.75.38,1.26.53Z"/><path class="cls-2" d="M84.89,66.77c.22,1.03.05,2.19-.73,2.88-.91.82-5.85-.51-7.09-.94-.68-.24-1.17-.9-1.29-1.59-.24-1.42-.32-2.81-.31-4.23.54-.29,1.07-.15,1.64-.07,2.37.34,7.18,1.2,7.77,3.95Z"/><path class="cls-2" d="M71.8,65.27c1.16-.33,4.73,5.94,1.97,8.18-.83.68-1.42-1.21-2.63-.13-.43.38-.98.32-1.36-.1-2.11-2.32.74-7.57,2.02-7.94Z"/><path class="cls-2" d="M70.6,35.01v.21l-22.15,12.4c-.15-.17-.24-.31-.53-.44-.43-.18-.81-.64-1.18-1.02l21.92-12.21c.3-.17.79-.75.85-.35l.16,1.09c.04.27.63.08.94.31Z"/><path class="cls-2" d="M70.31,111.09c-.29.32-.47-.19-.7-.32l-23-12.81c.27-.5.72-.94,1.24-1.07.21-.05.26-.15.3-.26l21.66,12.13c.15.78.32,1.55.49,2.32Z"/><path class="cls-2" d="M61.05,82.22c.26.16.91-.03,1.09-.47.27-.63-.14-2.13-.9-2.12-.71.21-.65,1.63-.33,2.08.07.1.3.07.36.1.07.03.13.08,0,.15-.06.03-.18.12-.23.27ZM64.28,91.54l4.16-2.11c.21-.11.42-.07.47.09.16.49-2.94,2.2-3.65,2.41-.03.19.22.4.18.5-.17.44-.82.5-1.09.99.49.18.97.16,1.48.25l4.27-2.44c2.89-1.65,5.62,1.78,8.67,2.76,1.75.56,3.25-1.31,3.52-2.83.34-1.93.54-3.57.56-5.48.01-1.87.27-3.69.17-5.55-.02-.36-.41-.74-.74-.5-.48.36-.66.98-.68,1.56l-.23,6.2c-.01.4-.18.79-.46.92-.22.1-.77.22-.93-.03-1.03-3.18-4.2-4.51-7.32-4.88-2.08-.24-4.11.43-5.93,1.39-3.24,1.7-2.28,4.25-3.78,3.55-.22-.1-.48-.41-.5-.75l-.26-5.25c-.68.15-1.63.97-1.27,1.48.08.12.27.14.42.23-.58.3-.43.83-.41,1.33.08,1.91.11,3.76.48,5.63.06.29.32.36.61.19.37-.13.35.3-.04.27-.25,0-.33.12-.36.21-.03.09.03.23.11.25-.14-.03,2.66-.51,2.54-.41ZM58.25,64.63l-2.1.9-.32,6.43-1.06,3.48c.27.14.51-.21.71-.02-.17.31-.8.66-.57,1.1.26.49,1.02.13,1.38-.06.61-.33.84-.93,1.59-1.23-.31.5-.69.9-1.14,1.25s-.98.65-1.57.95c.27.44.03,1.09.18,1.45.26.6,2.33,2.54,3,1.87.88-.89-1.34-2.1-1.18-3.67-.63.11-.88.62-1.48.63l1.25-.96.86-.66c.52-.4,1.18-.49,1.63-1-.16.84,1.23.93,2.38,1.9.18.15.34.36.54.3.53-.15.27-.93.76-.87.1.01.33.1.28.24-.15.4-.55.56-.92.93.7.95.74,2.01.83,3.18l1.07-.47c-.09.54-.77.62-.97,1.08-.29.65-.2,1.59-.05,2.27.13.55.84.59,1.22.37,1.6-.93.14-2.55,2.41-4.52,2.51-2.18,7.05-2.23,9.8-.02,2.14,1.72.93,3.61,2.37,4.51.34.21.74.16,1.07-.03.21-.13.35-.51.35-.9v-3.11c0-1.46.7-2.58,1.92-3.33.78-.47,1.57-1.01,2.55-.97.7.03,1.15.55,1.36.99.32.66.22,1.3-.17,1.86l-.85,1.21c-.21.3-.14,1.32.34,1.28,1.24-.38,2.49-1.4,3.11-2.6,1.31-2.52-.92-4.85-.98-7.54l-.13-5.08c-.03-1.28-1.39-1.02-2.57-2.9-4.16-6.65-12.52-9.22-19.71-5.98-2.35,1.06-4.25,2.73-5.93,4.68-.13.15-.25.32-.19.47.03.08.14.18.23.3-.79.94-1.86,1.57-2.82,2.45.89.18,2.72-2.14,3.1-1.63.09.12.11.33-.05.41-.56.29-.96.81-1.55,1.06ZM105.05,53.7v37.02l-7.75,4.34-3.25-3.53c-.62.65-1.18,1.31-1.68,2.13l2.99,2.48-21.36,11.96c.36-1.94.37-3.88.37-5.88v-9.39c-1.53-.94-3.34-1.03-4.99-.09l.02,12.13c0,1.06.11,2.09.27,3.11l-21.09-11.81,3.01-2.59c-.57-.73-1.01-1.36-1.68-2.06l-3.2,3.6-7.84-4.39v-37.02l8.09-4.53,5.6,6.46c1.96-1.82,1.99-.41,3.41-1.72l-7.02-5.85,21.65-12.13-.02,5.61c0-.77-.42,3.91-.6,3.38-6.45.36-1.53-1-5.96-.66v3.65c.69.12,1.33.13,2,.03.21-.09.23-.48.42-.63.86.07,2.82-.41,2.83.52l.07,6.67c1.88-.28,3.51-.25,5.29-.02l.02-6.65c-.16-.91,2.7-.58,3.03-.5.44.1-.21.79,2.27.58,0-1.25.14-2.37-.05-3.5-.62-.26-2.04-.33-2.32.43-1.12.31-2.34.06-3.56.12-.18.85-.65-4.37-.65-3.18l-.05-5.84,21.63,12.11-6.98,5.86c.91,1.19,1.58.03,3.34,1.72l5.71-6.43,8.05,4.51ZM98.09,76.88c1.89-1.88.17-4.05-.03-6.38-.11-1.31-1.11-1.62-1.64-2.52-.96-1.61-1.6-3.59-2.12-5.36-.25-.85.12-1.6-.63-2.41-.9-.96-1.87-2.11-2.7-3.14-.74-.92-1.52-.88-2.49-1.27-1.43-.57-2.99-1.43-4.19-2.4-.66-.53-.75-1.42-1.74-1.79l-4.84-1.81c-.22-.08-.47-.07-.66.07-.11.08-.13.29-.06.44.09.22.34.19.57.25.8.18,5.29,1.72,5.46,2.38-.74.11-1.18.4-1.42.9-.23.47-.07,1.04.34,1.55-1.4.23-3.23-1.08-4.86-1.42-.22.11-.05.63.2.73l3.33,1.36c2.17.89.91-1.38,5.67,1.85.16.59.12,1.26.5,1.72l3.01,3.56c.5.59,1.22.88,1.91,1.09.68,1.46,1.28,3.04,1.8,4.58-.23.62-.6,1.38-.41,2.18l.99,4.16c.18.75.66,1.31,1.2,1.81l-1.02,4.72c-.53.27-1.09.38-1.39.85l-2.3,3.65c-.92,1.46-.04,2.23-.78,3.27l-2.45,3.45c-2.22.05-3.03,1.63-5.12,2.96-.8.51-1.17,1.4-1.69,2.02l-3.47.88c-.14.81-.1,1.77-.01,2.68,1.82-.11,3.46-.87,5.19-.86.92,0,1.58.21,2.4-.43l3.56-2.76c.89-.68.87-1.45,1.29-2.3.81-1.67,2.08-3.15,3.11-4.7.57-.25,1.29-.34,1.65-.91l2.45-3.94c.57-.93.41-1.64.39-2.62-.02-1.51,1.08-4.42,1.02-6.11ZM89.46,86.67l-5-5.13-.3,4.17c-.05.75.64,1.2,1.09,1.65l3.22,2.97c1.64-1.97.52-1.05.98-3.66ZM85.51,61.2c.28.06.84-.49.65-.73-1.17-1.49.4-1.89-2.14-2.76-.44.15-.78.61-1.02,1,.99.73,1.73,1.7,2.51,2.5ZM66.98,50.38c.05-.16.04-.45-.09-.53-.12-.08-.38-.14-.56-.07l-5.08,1.9c-.87.33-.9,1.2-1.4,1.58-1.4,1.06-3,1.86-4.56,2.62-.65.32-1.42.14-1.97.76l-3.11,3.56c-.71.82-.4,1.54-.61,2.39-.48,1.89-1.23,3.88-2.19,5.59-.34.6-1.15.7-1.35,1.56l-1.11,4.61c-.43,1.79.77,1.41.95,3.56.15,1.73.94,3.4.94,5.1,0,.95-.29,1.65.29,2.57.7,1.09,1.54,2.28,2.09,3.44.47,1,1.47.98,2.07,1.63,1.2,1.29,2.32,2.98,3.11,4.53.51,1.01.56,1.76,1.57,2.53l3.69,2.81c.71.54,1.53,0,2.33.15l4.91.9c.1-.9.14-1.91-.02-2.76l-3.58-.87c-.32-.5-.59-1.17-1.11-1.56-1.14-.85-2.21-1.71-3.3-2.61-.63-.53-1.5-.65-2.26-.73-.91-1.22-1.8-2.52-2.62-3.82-.4-.64.04-1.59-.27-2.24-.71-1.47-1.67-2.72-2.45-4.13-.32-.58-1.08-.77-1.58-1.12l-1.07-4.68c.62-.56,1.07-1.22,1.28-2.05,1.73-6.74.55-4.73.67-6.13.13-1.56,1.09-3.11,1.61-4.56,1.82-.31,2.89-2.39,4.48-4.01.67-.68.88-1.52,1.03-2.4.98-.67,2.11-1.35,3.21-1.82.54-.14,1.26.35,1.87.12l3.97-1.52c.27-.1.29-.74.06-.69-1.74.39-3.41,1.65-4.86,1.4.46-.47.59-1.03.36-1.55-.19-.43-.65-.75-1.29-.91.23-.75,4.63-2.21,5.32-2.34.24-.05.53.05.61-.2ZM60.78,58.7c.14-.37-.71-1.12-1.08-.96-.53.23-.91.51-1.36.8.1.8-.22,1.31-.55,1.95-.14.28.46.94.78.59l2.21-2.39ZM59.82,86.27l-.33-4.73c-1.92,1.74-3.27,3.32-4.97,5.16-.15.37.13.7.15,1.07.05.82-.66.82.72,2.5l4.43-4Z"/><path class="cls-2" d="M61.77,96.97c1.36,1.21-.53.98-.46,2.69-.15.5-1.31.24-1.69-.07l-2.89-2.27c-.5-.39-.99-.82-1.12-1.49,1.89-.38,1.44-1.06,1.73-1.77.31-.77,4.02,2.54,4.43,2.91Z"/><path class="cls-2" d="M65.8,69.04c-2.38.36-5.58,2.3-7.51,3.75-.67.51-1.27,1.11-2.15,1.33,1.43-1.22,2.95-2.2,4.44-3.24-.17-.13-.3-.19-.35-.26-.05-.06.17-.23.28-.22.31.03.56.33.81.1.24-.22.8-.28.56-.65-.81-.02-1.77.29-2.35-.32-.81-.86-.96-2.45-.37-3.49.53-.93,1.44-1.5,2.38-1.92,2.33-1.02,3.49-.99,5.88-1.41.25-.04.92.05.92.35.02,1.15-.1,2.29-.19,3.44-.11,1.36-1.03,2.33-2.36,2.53Z"/><path class="cls-2" d="M56.64,58.35c.16.38-.02.85-.29,1.18l-2.6,3.07c-.35.41-.76.63-1.25.73-.29-.86-.94-1.35-1.91-1.25-.13-.5-.01-1.07.34-1.49.94-1.1,1.81-2.18,2.8-3.24.26-.28.93-.61,1.17-.35.19.89.73,1.47,1.74,1.35Z"/><path class="cls-2" d="M51,83.72c.69,1.14,2.41,3.5,2.26,4.45-.04.25-.36.49-.68.53-.52.07-.69.49-1.13.78-.4.27-1.06-.3-1.32-.66-.82-1.11-1.43-2.26-2.16-3.43-.28-.44-.43-.99-.29-1.52.97.3,1.82-.11,2.14-1.06.5.05.9.44,1.18.89Z"/><path class="cls-2" d="M49.67,69.63c.42.15.53.96.44,1.42-.21,1.08-.88,5.05-1.93,5.14-.5.04-1.1.03-1.57-.04-.62-.09-.91-1.06-.85-1.61.12-1.19.51-2.16.72-3.34.13-.75.45-1.88,1.32-2.07.5.32,1.18.8,1.88.5Z"/><path class="cls-2" d="M45.56,47.55l.99,1.14-8.3,4.65v37.75l8.04,4.5-.94,1.06c-.22.27-.56.31-.89.13l-8.47-4.73v-39.37c0-.36.19-.65.44-.79l7.79-4.36c.28-.16.35-.5.69-.46.31.03.42.21.65.48Z"/></svg>