<?xml version="1.0" encoding="UTF-8"?><svg xmlns="http://www.w3.org/2000/svg" viewBox="0 0 144 144"><defs><style>.cls-1{fill:#fff;}.cls-2{opacity:0;}.cls-3{fill:#252b1f;}.cls-4{fill:#5ca76b;}.cls-5{fill:#98cc9e;}</style></defs><g id="Layer_2"><rect class="cls-2" width="144" height="144"/></g><g id="Layer_1"><rect class="cls-2" x="0" width="144" height="144"/><rect class="cls-1" x="0" width="144" height="144"/><polygon class="cls-3" points="130.46 102.09 72.02 19.23 13.56 102.09 130.46 102.09"/><polygon class="cls-5" points="87.47 55.78 72 33.85 56.53 55.78 87.47 55.78"/><rect class="cls-5" x="66.66" y="45.3" width="10.68" height="56.23"/><polygon class="cls-5" points="62.47 92.41 47 70.47 31.53 92.41 62.47 92.41"/><rect class="cls-5" x="41.66" y="81.92" width="10.68" height="20.23"/><polygon class="cls-5" points="112.47 92.41 97 70.47 81.53 92.41 112.47 92.41"/><rect class="cls-5" x="91.66" y="81.92" width="10.68" height="20.23"/><path class="cls-4" d="M95.44,46.02l40.38,58.09H8.2s40.39-58.09,40.39-58.09v-9.37S72.02,2.96,72.02,2.96l23.42,33.69v9.37ZM126.44,99.23L72.02,22.08,17.59,99.23h108.85Z"/></g></svg>